<svg xmlns="http://www.w3.org/2000/svg" width="512" height="512" viewBox="0 0 512 512" version="1.1">
	<path d="M 240.402 48.006 C 188.287 52.314, 141.167 74.788, 105.116 112.532 C 85.299 133.279, 70.297 157.132, 60.517 183.445 C 45.191 224.681, 43.424 271.913, 55.632 314 C 66.010 349.774, 84.148 379.521, 111.800 406.115 C 142.943 436.066, 183.126 456.011, 225.500 462.550 C 265.416 468.710, 307.444 462.361, 344.500 444.573 C 367.134 433.708, 383.681 422.257, 400.866 405.567 C 435.893 371.548, 457.593 327.727, 462.986 280.125 C 464.375 267.864, 464.362 243.699, 462.961 231.899 C 453.905 155.652, 403.240 90.112, 331.500 61.843 C 303.262 50.716, 269.556 45.596, 240.402 48.006 M 233.179 59.074 C 147.987 70.131, 79.855 132.246, 62.152 215 C 57.094 238.645, 56.786 269.179, 61.367 293 C 71.695 346.708, 104.970 395.534, 150.479 423.756 C 186.629 446.176, 225.285 456.029, 268.500 453.842 C 306.424 451.922, 346.772 436.429, 378.500 411.603 C 386.798 405.110, 402.993 389.002, 410.273 380 C 430.556 354.919, 444.289 325.072, 450.661 292.222 C 453.042 279.945, 453.324 276.184, 453.336 256.500 C 453.348 238.118, 452.990 232.536, 451.159 222.555 C 443.603 181.369, 426.398 147.679, 398.108 118.674 C 366.039 85.794, 327.430 66.100, 282.318 59.609 C 270.415 57.896, 244.433 57.613, 233.179 59.074 M 236.500 63.024 C 208.140 66.234, 180.222 75.547, 156.645 89.661 C 144.403 96.990, 128.260 110, 116.962 121.643 C 88.834 150.629, 72.161 183.296, 64.837 223.766 C 61.687 241.177, 61.697 270.627, 64.860 288.381 C 85.862 406.257, 204.708 477.538, 317.420 439.859 C 364.230 424.212, 404.533 389.796, 427.395 345.949 C 443.039 315.948, 449.504 289.201, 449.378 255 C 449.262 223.348, 443.184 197.400, 429.467 170 C 401.751 114.634, 350.151 76.067, 289 65.011 C 275.773 62.619, 249.021 61.607, 236.500 63.024 M 238 74.167 C 227.196 75.186, 209.419 78.965, 198.143 82.639 C 186.880 86.309, 163.821 97.911, 153.331 105.185 C 119.901 128.367, 95.400 160.672, 82.905 198.041 C 64.936 251.786, 72.865 311.348, 104.165 357.743 C 162.894 444.794, 281.853 465.036, 365.300 402.177 C 378.530 392.210, 386.126 385.002, 396.196 372.856 C 426.577 336.213, 441.370 290.436, 437.945 243.669 C 435.469 209.863, 426.068 182.357, 407.468 154.500 C 377.015 108.891, 326.565 78.931, 271.929 74.007 C 259.651 72.901, 251.004 72.942, 238 74.167 M 236 82.637 C 168.575 90.905, 111.876 137.179, 90.478 201.402 C 83.833 221.346, 82.497 230.695, 82.528 257 C 82.555 279.195, 82.712 281.160, 85.358 292.383 C 88.955 307.636, 93.954 321.949, 99.689 333.409 C 124.128 382.249, 168.812 416.192, 223.166 427.204 C 232.949 429.186, 237.511 429.500, 256.500 429.500 C 275.813 429.500, 279.844 429.213, 289.500 427.148 C 325.709 419.406, 354.192 404.048, 379.550 378.592 C 403.979 354.069, 419.602 324.816, 427.130 289.500 C 429.195 279.816, 429.475 275.809, 429.475 256 C 429.475 230.918, 428.125 221.714, 421.449 201.296 C 404.744 150.198, 362.515 107.926, 310.937 90.669 C 292.846 84.617, 281.120 82.765, 259 82.469 C 248.275 82.325, 237.925 82.401, 236 82.637 M 236 94.682 C 214.128 98.265, 200.483 102.506, 183.500 110.997 C 167.444 119.025, 154.771 128.229, 141.500 141.500 C 118.516 164.484, 103.683 191.789, 96.815 223.755 C 94.792 233.172, 94.510 237.218, 94.536 256.500 C 94.563 276.526, 94.799 279.532, 97.170 290 C 109.918 346.305, 150.312 391.653, 203.706 409.605 C 225.033 416.775, 253.872 419.773, 275.422 417.061 C 312.179 412.434, 345.539 395.954, 371.500 369.596 C 393.551 347.207, 408.236 319.700, 415.195 287.749 C 417.117 278.922, 417.427 274.517, 417.427 256 C 417.427 237.384, 417.122 233.091, 415.153 224 C 411.852 208.750, 407.767 197.097, 400.957 183.500 C 392.881 167.373, 383.724 154.759, 370.483 141.517 C 357.146 128.180, 344.492 118.987, 328.500 111.016 C 303.816 98.712, 282.945 93.909, 255.151 94.136 C 245.993 94.211, 237.375 94.457, 236 94.682 M 170.903 221.262 C 168.925 224.143, 156.882 241.497, 144.142 259.827 C 131.401 278.157, 121.234 293.570, 121.548 294.077 C 121.870 294.598, 132.268 295, 145.433 295 L 168.748 295 180.103 278.750 C 186.348 269.813, 193.375 259.870, 195.717 256.656 L 199.976 250.813 195.905 245.156 C 193.666 242.045, 188.159 234.217, 183.667 227.760 C 179.175 221.302, 175.275 216.020, 175 216.021 C 174.725 216.023, 172.881 218.381, 170.903 221.262 M 331.483 220.750 C 330.027 222.813, 325.001 229.900, 320.315 236.500 C 315.629 243.100, 311.574 249.045, 311.305 249.712 C 310.858 250.819, 316.593 259.634, 334.077 284.714 L 340.500 293.928 364.809 293.964 C 383.360 293.991, 388.944 293.718, 388.382 292.810 C 387.978 292.155, 383.373 285.517, 378.150 278.060 C 365.190 259.554, 347.489 234.127, 341.039 224.750 C 338.107 220.488, 335.353 217, 334.919 217 C 334.485 217, 332.938 218.688, 331.483 220.750 M 190 342 L 190 364 194.961 364 L 199.922 364 200.211 355.250 L 200.500 346.500 210.250 346.214 L 220 345.928 220 354.964 L 220 364 225.500 364 L 231 364 231 342 L 231 320 225.500 320 L 220 320 220 328.500 L 220 337 210 337 L 200 337 200 328.500 L 200 320 195 320 L 190 320 190 342 M 242 342 L 242 364 260 364 L 278 364 278 360.031 L 278 356.062 265.750 355.781 L 253.500 355.500 253.359 350.750 L 253.217 346 263.609 346 L 274 346 274 342.035 L 274 338.070 263.750 337.785 L 253.500 337.500 253.500 333 L 253.500 328.500 265.250 328.218 L 277 327.937 277 323.968 L 277 320 259.500 320 L 242 320 242 342 M 284 324 L 284 328 295.500 328 C 301.825 328, 307 328.268, 307 328.595 C 307 328.923, 302.613 334.408, 297.250 340.785 C 283.988 356.556, 283 357.971, 283 361.194 L 283 364 303 364 L 323 364 323 360 L 323 356 311 356 C 303.955 356, 299 355.601, 299 355.035 C 299 354.504, 300.269 352.591, 301.819 350.785 C 314.687 335.790, 322 325.708, 322 322.963 L 322 320 303 320 L 284 320 284 324" stroke="none" fill="#008F43" fill-rule="evenodd"/>
</svg>