<?xml version="1.0" encoding="UTF-8"?>
<svg version="1.1" xmlns="http://www.w3.org/2000/svg" width="230" height="245">
<path d="M0 0 C75.9 0 151.8 0 230 0 C230 80.85 230 161.7 230 245 C154.1 245 78.2 245 0 245 C0 164.15 0 83.3 0 0 Z " fill="#FEFEFE" transform="translate(0,0)"/>
<path d="M0 0 C13.2460529 10.16932213 24.14249893 24.19714379 27 41 C28.72652209 63.53002049 25.204451 80.26582655 10.3125 97.6875 C5.15632444 103.18114215 -0.5283354 107.1910147 -7 111 C-7.68707031 111.42023438 -8.37414062 111.84046875 -9.08203125 112.2734375 C-19.58857403 118.15710146 -31.29820048 118.43699666 -43 118 C-43 117.67 -43 117.34 -43 117 C-42.44650879 116.92483154 -41.89301758 116.84966309 -41.32275391 116.7722168 C-19.83896501 113.81456303 -2.79134069 109.00816667 11.9609375 91.69921875 C22.57338657 77.5415629 26.5352261 61.74681969 24.72265625 44.3359375 C22.78593244 33.01071447 18.12439714 22.95077861 11 14 C10.23429687 13.01902344 9.46859375 12.03804687 8.6796875 11.02734375 C6.0240074 7.87284808 2.97813621 5.38135075 -0.375 3 C-0.97497803 2.57211182 -1.57495605 2.14422363 -2.19311523 1.70336914 C-13.78906903 -6.23559522 -25.78631801 -9.18223068 -39.6875 -9.25 C-40.72583984 -9.270625 -41.76417969 -9.29125 -42.83398438 -9.3125 C-56.76054442 -9.38235108 -68.91368337 -4.23774916 -80 4 C-81.11375 4.82757813 -81.11375 4.82757813 -82.25 5.671875 C-93.60812205 14.90034916 -99.20689437 27.21612509 -103 41 C-103.20238281 41.65484375 -103.40476563 42.3096875 -103.61328125 42.984375 C-105.29164537 51.73221225 -104.24904216 61.46568825 -102 70 C-101.34 70 -100.68 70 -100 70 C-99.67 67.69 -99.34 65.38 -99 63 C-96.525 62.505 -96.525 62.505 -94 62 C-93.96261719 60.94941406 -93.92523438 59.89882812 -93.88671875 58.81640625 C-93.54506241 51.03886347 -92.99337752 44.28822353 -90 37 C-89.34 37 -88.68 37 -88 37 C-88.33 38.65 -88.66 40.3 -89 42 C-88.34 42 -87.68 42 -87 42 C-87 40.02 -87 38.04 -87 36 C-87.99 36 -88.98 36 -90 36 C-90 34.02 -90 32.04 -90 30 C-93.32817106 37.41274464 -94.11554692 45.00870629 -95 53 C-96.65 53 -98.3 53 -100 53 C-101.45510502 39.54836248 -96.14384532 27.29898611 -88.25 16.76953125 C-77.12706446 3.07827899 -61.62954934 -5.14425796 -44 -7 C-28.58375421 -8.26214878 -12.8630072 -3.17496528 -0.75 6.46484375 C4.5448191 11.1337807 9.13922279 16.08936389 13 22 C13.70125 23.010625 14.4025 24.02125 15.125 25.0625 C22.62608789 39.08764333 23.18573372 56.60719107 19 71.6875 C18.3577766 73.79925541 17.70080952 75.90695728 17 78 C16.34 78 15.68 78 15 78 C14.5978125 79.09054688 14.5978125 79.09054688 14.1875 80.203125 C8.29612688 94.07885906 -3.77775853 102.99878369 -17.15625 108.9609375 C-19.08703132 109.73478239 -21.01007345 110.39541467 -23 111 C-23.67160156 111.20496094 -24.34320313 111.40992188 -25.03515625 111.62109375 C-34.67557786 114.15804681 -44.45371019 113.58882435 -54 111 C-54 111.66 -54 112.32 -54 113 C-52.35 113 -50.7 113 -49 113 C-49 113.66 -49 114.32 -49 115 C-48.01 115 -47.02 115 -46 115 C-46 115.99 -46 116.98 -46 118 C-64.72076545 116.49026085 -79.59640706 107.97623663 -92 94 C-104.32238271 78.85960877 -107.43694853 62.00383241 -106 43 C-104.03812636 27.48783784 -95.42538611 12.69133882 -83.3671875 2.8515625 C-80.63282236 0.8026928 -77.85397778 -1.12205791 -75 -3 C-73.92298828 -3.72703125 -73.92298828 -3.72703125 -72.82421875 -4.46875 C-50.97014618 -17.96806413 -20.27230749 -14.52521827 0 0 Z " fill="#FCF9F7" transform="translate(154,74)"/>
<path d="M0 0 C3.11360737 2.60453848 6.02158243 5.36210142 8.8125 8.3125 C9.575625 9.034375 10.33875 9.75625 11.125 10.5 C12.8125 12.3125 12.8125 12.3125 12.8125 14.3125 C13.4725 14.3125 14.1325 14.3125 14.8125 14.3125 C28.11793376 31.99433472 30.75429568 52.35088992 28.421875 73.92578125 C26.54922908 82.60477486 22.04909218 90.57544551 17.8125 98.3125 C17.27625 99.29347656 16.74 100.27445312 16.1875 101.28515625 C15.73375 101.95417969 15.28 102.62320313 14.8125 103.3125 C14.1525 103.3125 13.4925 103.3125 12.8125 103.3125 C12.56113281 103.88484375 12.30976563 104.4571875 12.05078125 105.046875 C5.04427573 117.86634883 -11.63344349 125.89072744 -25.08520508 129.87451172 C-45.46904907 135.09445212 -66.67104852 131.77793204 -84.67578125 121.4765625 C-89.51623079 118.57677834 -94.19343294 115.31596487 -98.1875 111.3125 C-98.1875 110.6525 -98.1875 109.9925 -98.1875 109.3125 C-98.74566406 109.11398438 -99.30382812 108.91546875 -99.87890625 108.7109375 C-103.11530223 106.75048105 -104.99072367 103.98403026 -107.125 100.9375 C-107.78640991 99.99583984 -107.78640991 99.99583984 -108.46118164 99.03515625 C-119.78591131 82.44705582 -121.95118491 63.2721193 -119.7890625 43.70703125 C-116.05308998 24.17808397 -103.22412173 7.54040347 -87.1875 -3.6875 C-60.48003903 -20.31115902 -25.20346169 -19.101131 0 0 Z M-97.1875 15.3125 C-109.63600002 31.39379377 -113.73428079 48.25577727 -112.1875 68.3125 C-109.7850986 86.51546698 -98.77426394 100.23689161 -85.1875 111.75 C-76.23344451 118.56809596 -63.67041394 124.24354708 -52.1875 123.3125 C-52.1875 122.3225 -52.1875 121.3325 -52.1875 120.3125 C-53.1775 120.3125 -54.1675 120.3125 -55.1875 120.3125 C-55.1875 119.6525 -55.1875 118.9925 -55.1875 118.3125 C-56.8375 118.3125 -58.4875 118.3125 -60.1875 118.3125 C-60.1875 117.6525 -60.1875 116.9925 -60.1875 116.3125 C-58.970625 116.6425 -57.75375 116.9725 -56.5 117.3125 C-46.38140389 119.52048251 -36.91112725 118.68452021 -27.1875 115.3125 C-26.35605469 115.0340625 -25.52460938 114.755625 -24.66796875 114.46875 C-9.69630637 108.99878831 1.27781977 99.29875018 8.8125 85.3125 C8.8125 84.6525 8.8125 83.9925 8.8125 83.3125 C9.4725 83.3125 10.1325 83.3125 10.8125 83.3125 C16.63862543 65.91215218 16.69777194 49.42576166 9.8125 32.3125 C8.12446633 28.97447286 6.21141494 26.17426441 3.8125 23.3125 C3.19246094 22.54550781 2.57242188 21.77851562 1.93359375 20.98828125 C-9.2598385 7.73578318 -24.7007177 -0.25296507 -41.98828125 -1.96484375 C-58.97246855 -2.57932231 -76.90154632 4.39793986 -89.3125 15.875 C-99.25235904 26.48978774 -106.33307679 39.35940402 -106.4375 54.1875 C-106.37555206 55.56362932 -106.30137349 56.93969183 -106.1875 58.3125 C-104.5375 58.3125 -102.8875 58.3125 -101.1875 58.3125 C-101.07792969 57.3225 -100.96835938 56.3325 -100.85546875 55.3125 C-100.02983747 48.29640969 -99.10731529 41.81572497 -96.1875 35.3125 C-96.1875 37.2925 -96.1875 39.2725 -96.1875 41.3125 C-95.1975 41.3125 -94.2075 41.3125 -93.1875 41.3125 C-93.1875 43.2925 -93.1875 45.2725 -93.1875 47.3125 C-93.8475 47.3125 -94.5075 47.3125 -95.1875 47.3125 C-94.8575 45.6625 -94.5275 44.0125 -94.1875 42.3125 C-94.8475 42.3125 -95.5075 42.3125 -96.1875 42.3125 C-99.57704192 50.56529772 -99.87421942 58.50823542 -100.1875 67.3125 C-102.6625 67.8075 -102.6625 67.8075 -105.1875 68.3125 C-105.5175 70.6225 -105.8475 72.9325 -106.1875 75.3125 C-106.8475 75.3125 -107.5075 75.3125 -108.1875 75.3125 C-111.36238496 63.26494546 -111.4322429 51.06717265 -107.1875 39.3125 C-106.69443359 37.86617187 -106.69443359 37.86617187 -106.19140625 36.390625 C-100.45017305 21.054182 -88.95042963 8.4235448 -74.1875 1.3125 C-64.79084119 -2.8430819 -56.08346921 -4.13855303 -45.8125 -4.1875 C-44.81460449 -4.19378418 -43.81670898 -4.20006836 -42.78857422 -4.20654297 C-36.13719818 -4.09264576 -30.44065974 -2.9096303 -24.1875 -0.6875 C-23.32938721 -0.39746094 -22.47127441 -0.10742188 -21.5871582 0.19140625 C-14.54657151 2.6272595 -9.00264839 6.73898851 -3.1875 11.3125 C-2.31609375 11.98023437 -1.4446875 12.64796875 -0.546875 13.3359375 C9.8183816 22.01941405 15.6997943 35.80532434 18.5625 48.6875 C19.78027244 66.34520039 17.00135693 82.49586913 5.9375 96.8125 C-9.19396708 114.11802845 -26.90436095 120.11312524 -49.1875 122.3125 C-49.1875 122.6425 -49.1875 122.9725 -49.1875 123.3125 C-29.61430399 124.04344923 -14.03854132 119.34507571 0.875 106.375 C7.70132839 99.7639162 13.17274844 92.10726449 16.8125 83.3125 C17.18503906 82.47332031 17.55757812 81.63414062 17.94140625 80.76953125 C23.01088021 67.39813129 23.22529981 49.52893622 18.1328125 36.12109375 C9.49664395 17.75007249 -4.3200862 3.43876768 -23.4453125 -3.9453125 C-49.87756456 -12.25259172 -78.58185993 -5.46856875 -97.1875 15.3125 Z " fill="#FAF5F4" transform="translate(160.1875,68.6875)"/>
<path d="M0 0 C13.2460529 10.16932213 24.14249893 24.19714379 27 41 C28.72652209 63.53002049 25.204451 80.26582655 10.3125 97.6875 C5.15632444 103.18114215 -0.5283354 107.1910147 -7 111 C-7.68707031 111.42023438 -8.37414062 111.84046875 -9.08203125 112.2734375 C-19.58857403 118.15710146 -31.29820048 118.43699666 -43 118 C-43 117.67 -43 117.34 -43 117 C-42.44650879 116.92483154 -41.89301758 116.84966309 -41.32275391 116.7722168 C-19.83896501 113.81456303 -2.79134069 109.00816667 11.9609375 91.69921875 C22.57338657 77.5415629 26.5352261 61.74681969 24.72265625 44.3359375 C22.78593244 33.01071447 18.12439714 22.95077861 11 14 C10.23429687 13.01902344 9.46859375 12.03804687 8.6796875 11.02734375 C6.0240074 7.87284808 2.97813621 5.38135075 -0.375 3 C-0.97497803 2.57211182 -1.57495605 2.14422363 -2.19311523 1.70336914 C-13.78906903 -6.23559522 -25.78631801 -9.18223068 -39.6875 -9.25 C-40.72583984 -9.270625 -41.76417969 -9.29125 -42.83398438 -9.3125 C-56.76054442 -9.38235108 -68.91368337 -4.23774916 -80 4 C-81.11375 4.82757813 -81.11375 4.82757813 -82.25 5.671875 C-93.60812205 14.90034916 -99.20689437 27.21612509 -103 41 C-103.20238281 41.65484375 -103.40476563 42.3096875 -103.61328125 42.984375 C-105.29164537 51.73221225 -104.24904216 61.46568825 -102 70 C-101.34 70 -100.68 70 -100 70 C-99.67 67.69 -99.34 65.38 -99 63 C-96.525 62.505 -96.525 62.505 -94 62 C-93.96261719 60.94941406 -93.92523438 59.89882812 -93.88671875 58.81640625 C-93.54506241 51.03886347 -92.99337752 44.28822353 -90 37 C-89.34 37 -88.68 37 -88 37 C-88.165 38.19625 -88.33 39.3925 -88.5 40.625 C-90.05753543 55.47970359 -89.36923627 69.5328153 -79.90234375 81.76171875 C-79.27457031 82.50035156 -78.64679688 83.23898438 -78 84 C-77.40316406 84.70769531 -76.80632812 85.41539062 -76.19140625 86.14453125 C-67.43555409 95.66492767 -56.73949367 100.74506068 -43.9140625 101.3359375 C-29.97669351 101.59937445 -29.97669351 101.59937445 -17 97 C-16.0821875 96.51402344 -15.164375 96.02804688 -14.21875 95.52734375 C-1.36463565 88.05853829 6.38438254 77.03923889 10.3125 62.75 C11.08976682 58.51036279 11.62245582 54.29208126 12 50 C12.66 50 13.32 50 14 50 C14 53.63 14 57.26 14 61 C14.66 61 15.32 61 16 61 C15.64820092 46.47069797 14.48416058 32.7286719 5 21 C4.41347656 20.24074219 3.82695312 19.48148438 3.22265625 18.69921875 C-4.68263752 9.08030302 -15.8194852 2.62856357 -28 0 C-39.77490651 -0.87755008 -52.24474201 -1.41983958 -63 4 C-63.85207031 4.42410156 -64.70414063 4.84820312 -65.58203125 5.28515625 C-77.72024582 11.97888748 -87.91241986 22.29050527 -92.4453125 35.609375 C-93.76993717 41.31832076 -94.35602976 47.18153946 -95 53 C-96.65 53 -98.3 53 -100 53 C-101.45510502 39.54836248 -96.14384532 27.29898611 -88.25 16.76953125 C-77.12706446 3.07827899 -61.62954934 -5.14425796 -44 -7 C-28.58375421 -8.26214878 -12.8630072 -3.17496528 -0.75 6.46484375 C4.5448191 11.1337807 9.13922279 16.08936389 13 22 C13.70125 23.010625 14.4025 24.02125 15.125 25.0625 C22.62608789 39.08764333 23.18573372 56.60719107 19 71.6875 C18.3577766 73.79925541 17.70080952 75.90695728 17 78 C16.34 78 15.68 78 15 78 C14.5978125 79.09054688 14.5978125 79.09054688 14.1875 80.203125 C8.29612688 94.07885906 -3.77775853 102.99878369 -17.15625 108.9609375 C-19.08703132 109.73478239 -21.01007345 110.39541467 -23 111 C-23.67160156 111.20496094 -24.34320313 111.40992188 -25.03515625 111.62109375 C-34.67557786 114.15804681 -44.45371019 113.58882435 -54 111 C-54 111.66 -54 112.32 -54 113 C-52.35 113 -50.7 113 -49 113 C-49 113.66 -49 114.32 -49 115 C-48.01 115 -47.02 115 -46 115 C-46 115.99 -46 116.98 -46 118 C-64.72076545 116.49026085 -79.59640706 107.97623663 -92 94 C-104.32238271 78.85960877 -107.43694853 62.00383241 -106 43 C-104.03812636 27.48783784 -95.42538611 12.69133882 -83.3671875 2.8515625 C-80.63282236 0.8026928 -77.85397778 -1.12205791 -75 -3 C-73.92298828 -3.72703125 -73.92298828 -3.72703125 -72.82421875 -4.46875 C-50.97014618 -17.96806413 -20.27230749 -14.52521827 0 0 Z " fill="#E2F8E7" transform="translate(154,74)"/>
<path d="M0 0 C1.44898682 -0.01546875 1.44898682 -0.01546875 2.92724609 -0.03125 C12.6966035 0.08876258 20.79736873 2.52620338 29.0625 7.6875 C29.70896484 8.08590088 30.35542969 8.48430176 31.02148438 8.89477539 C35.77486198 11.89934829 39.85537521 15.00778753 43.375 19.4375 C43.97699219 20.18644531 44.57898438 20.93539062 45.19921875 21.70703125 C52.68401735 31.67107131 55.5713918 41.96285245 55.4375 54.25 C55.43298828 55.03826172 55.42847656 55.82652344 55.42382812 56.63867188 C55.41211312 58.57164761 55.39417998 60.50458393 55.375 62.4375 C54.715 62.4375 54.055 62.4375 53.375 62.4375 C53.375 58.8075 53.375 55.1775 53.375 51.4375 C52.715 51.4375 52.055 51.4375 51.375 51.4375 C51.4575 52.654375 51.54 53.87125 51.625 55.125 C51.60403645 68.43685323 44.89664064 80.52184451 36.03125 90.0078125 C25.86945121 99.30286963 14.63844872 104.03030695 1 103.8125 C0.07461426 103.80162354 -0.85077148 103.79074707 -1.80419922 103.77954102 C-16.34749114 103.4403426 -26.48537328 98.6251961 -37 88.5 C-47.40553638 77.51820765 -51.19366464 65.59607327 -50.86328125 50.3984375 C-50.66525719 47.93774512 -50.33163907 45.79296358 -49.625 43.4375 C-48.965 43.4375 -48.305 43.4375 -47.625 43.4375 C-47.625 41.4575 -47.625 39.4775 -47.625 37.4375 C-48.615 37.4375 -49.605 37.4375 -50.625 37.4375 C-50.31039227 27.5273565 -45.90210508 20.93233521 -38.7890625 14.1953125 C-26.77811342 4.43912642 -15.29087948 0.13611338 0 0 Z M-31.8125 28.625 C-40.01062684 39.02766515 -42.0585877 48.55168871 -40.625 61.4375 C-38.78226066 72.91342143 -31.87693583 81.70349607 -22.625 88.4375 C-14.44891564 93.63587463 -7.13618754 94.18649319 2.375 93.4375 C3.58027344 93.35371094 4.78554687 93.26992187 6.02734375 93.18359375 C16.60123915 92.09290964 24.47026975 88.25312595 31.7734375 80.5 C40.22540879 69.61551014 41.49360368 58.79978486 40.375 45.4375 C38.09259434 35.00364554 30.79725242 26.6592015 22.375 20.4375 C3.80793896 9.23444249 -17.22110255 13.16641355 -31.8125 28.625 Z " fill="#F7F8F2" transform="translate(114.625,72.5625)"/>
<path d="M0 0 C5.2948191 4.66893695 9.88922279 9.62452014 13.75 15.53515625 C14.45125 16.54578125 15.1525 17.55640625 15.875 18.59765625 C23.37608789 32.62279958 23.93573372 50.14234732 19.75 65.22265625 C19.1077766 67.33441166 18.45080952 69.44211353 17.75 71.53515625 C17.09 71.53515625 16.43 71.53515625 15.75 71.53515625 C15.3478125 72.62570313 15.3478125 72.62570313 14.9375 73.73828125 C9.04612688 87.61401531 -3.02775853 96.53393994 -16.40625 102.49609375 C-18.33703132 103.26993864 -20.26007345 103.93057092 -22.25 104.53515625 C-22.92160156 104.74011719 -23.59320313 104.94507813 -24.28515625 105.15625 C-35.31366926 108.05849027 -48.91570488 107.70230381 -59.25 102.53515625 C-59.25 101.21515625 -59.25 99.89515625 -59.25 98.53515625 C-58.69957031 98.60734375 -58.14914063 98.67953125 -57.58203125 98.75390625 C-50.9323271 99.49619881 -44.3093391 99.67569505 -37.625 99.72265625 C-36.74303955 99.73554688 -35.8610791 99.7484375 -34.95239258 99.76171875 C-27.06356087 99.77349642 -19.88666199 99.11375929 -13.25 94.53515625 C-12.44820313 94.0865625 -11.64640625 93.63796875 -10.8203125 93.17578125 C2.90404245 85.37087652 9.91171073 74.41626907 14.75 59.53515625 C17.96579604 47.05868174 16.30966866 32.34422025 10.4296875 20.984375 C8.98935941 18.70582319 7.44450711 16.6306836 5.75 14.53515625 C5.16347656 13.77589844 4.57695312 13.01664063 3.97265625 12.234375 C-3.93263752 2.61545927 -15.0694852 -3.83628018 -27.25 -6.46484375 C-39.02490651 -7.34239383 -51.49474201 -7.88468333 -62.25 -2.46484375 C-63.10207031 -2.04074219 -63.95414063 -1.61664063 -64.83203125 -1.1796875 C-76.97024582 5.51404373 -87.16241986 15.82566152 -91.6953125 29.14453125 C-93.01993717 34.85347701 -93.60602976 40.71669571 -94.25 46.53515625 C-95.9 46.53515625 -97.55 46.53515625 -99.25 46.53515625 C-100.70510502 33.08351873 -95.39384532 20.83414236 -87.5 10.3046875 C-65.97206798 -16.19410382 -27.0410729 -21.51990621 0 0 Z " fill="#F6D346" transform="translate(153.25,80.46484375)"/>
<path d="M0 0 C0.99789551 -0.00628418 1.99579102 -0.01256836 3.02392578 -0.01904297 C9.67530182 0.09485424 15.37184026 1.2778697 21.625 3.5 C22.91204834 3.93493774 22.91204834 3.93493774 24.22509766 4.37866211 C31.27608863 6.81859663 36.79777599 10.92475461 42.625 15.5 C43.22441406 15.94472656 43.82382813 16.38945313 44.44140625 16.84765625 C55.81910292 25.61115629 62.34453103 40.23788964 65.375 53.875 C66.58990613 71.49113889 63.82965922 87.63530548 52.8125 101.9375 C43.33086628 112.7840522 32.24458536 122.3070622 17.625 124.5 C17.625 124.17 17.625 123.84 17.625 123.5 C13.48406302 123.29029441 13.48406302 123.29029441 9.625 124.5 C8.23561505 124.59502826 6.84184812 124.63072839 5.44921875 124.6328125 C4.62099609 124.63410156 3.79277344 124.63539063 2.93945312 124.63671875 C2.07255859 124.63285156 1.20566406 124.62898438 0.3125 124.625 C-0.54279297 124.62886719 -1.39808594 124.63273437 -2.27929688 124.63671875 C-6.43790869 124.63027628 -10.32091946 124.55322505 -14.375 123.5 C-14.375 122.84 -14.375 122.18 -14.375 121.5 C-13.158125 121.665 -11.94125 121.83 -10.6875 122 C-0.39418226 123.09881571 8.79312618 122.90955863 18.625 119.5 C19.45644531 119.2215625 20.28789062 118.943125 21.14453125 118.65625 C35.96931156 113.23995231 45.21683591 104.53151582 52.92578125 91.09765625 C53.48652344 90.24042969 54.04726562 89.38320312 54.625 88.5 C55.285 88.5 55.945 88.5 56.625 88.5 C56.75777344 87.83613281 56.89054687 87.17226562 57.02734375 86.48828125 C58.625 78.5 58.625 78.5 59.16796875 76.21484375 C61.64061239 61.52691784 59.84995403 45.17533094 51.75 32.4375 C50.7388552 31.10134437 49.69719318 29.78768299 48.625 28.5 C48.0784375 27.80648437 47.531875 27.11296875 46.96875 26.3984375 C36.26877572 13.41255962 20.4535782 5.86935712 3.82421875 4.22265625 C-12.82469961 3.62030754 -30.72997286 10.36680703 -43 21.5625 C-53.99007063 33.42647986 -59.62998428 47.33315893 -60.375 63.5 C-58.725 63.5 -57.075 63.5 -55.375 63.5 C-55.34921875 62.53320312 -55.3234375 61.56640625 -55.296875 60.5703125 C-54.9431069 52.44972662 -54.10789583 45.87898014 -50.375 38.5 C-49.49659004 41.59720845 -49.38064594 43.40645403 -50.375 46.5 C-49.385 46.5 -48.395 46.5 -47.375 46.5 C-47.375 48.48 -47.375 50.46 -47.375 52.5 C-48.035 52.5 -48.695 52.5 -49.375 52.5 C-49.045 50.85 -48.715 49.2 -48.375 47.5 C-49.035 47.5 -49.695 47.5 -50.375 47.5 C-50.519375 48.799375 -50.66375 50.09875 -50.8125 51.4375 C-51.25 55.375 -51.25 55.375 -52.375 56.5 C-52.58583753 59.17060873 -52.75091197 61.8252135 -52.875 64.5 C-53.23986486 72.36486486 -53.23986486 72.36486486 -54.375 73.5 C-56.04117115 73.54063832 -57.70888095 73.542721 -59.375 73.5 C-59.705 75.81 -60.035 78.12 -60.375 80.5 C-61.035 80.5 -61.695 80.5 -62.375 80.5 C-67.03865441 68.70206473 -66.6516107 56.34292193 -62.375 44.5 C-62.04628906 43.53578125 -61.71757813 42.5715625 -61.37890625 41.578125 C-55.54423008 25.99206963 -43.44831842 12.66396727 -28.375 5.5 C-18.97453691 1.34886093 -10.27384835 0.04896069 0 0 Z " fill="#FCE7E0" transform="translate(114.375,63.5)"/>
<path d="M0 0 C2 3 2 3 2 6 C2.66 6 3.32 6 4 6 C4.66 4.35 5.32 2.7 6 1 C6.68707555 3.49064888 7 5.37886292 7 8 C7.66 8 8.32 8 9 8 C9.33 7.01 9.66 6.02 10 5 C10.99 4.67 11.98 4.34 13 4 C11.125 8.75 11.125 8.75 10 11 C12.31 10.34 14.62 9.68 17 9 C15.02 11.97 15.02 11.97 13 15 C15.31 15 17.62 15 20 15 C18.75 16.5 18.75 16.5 17 18 C15.68 18 14.36 18 13 18 C13 18.66 13 19.32 13 20 C15.31 20.33 17.62 20.66 20 21 C18 22 16 23 14 24 C14.99 24.99 15.98 25.98 17 27 C15.35 27 13.7 27 12 27 C12.99 28.65 13.98 30.3 15 32 C13.02 31.67 11.04 31.34 9 31 C9.495 32.98 9.495 32.98 10 35 C8.68 34.67 7.36 34.34 6 34 C6.495 37.465 6.495 37.465 7 41 C5.35 39.68 3.7 38.36 2 37 C2 39.64 2 42.28 2 45 C-1 41.25 -1 41.25 -1 39 C-3.35785318 39.89335797 -3.35785318 39.89335797 -4.125 43.0625 C-4.558125 44.5165625 -4.558125 44.5165625 -5 46 C-5.33 46 -5.66 46 -6 46 C-6.33 43.03 -6.66 40.06 -7 37 C-8.32 38.98 -9.64 40.96 -11 43 C-11.93065133 40.39417629 -12.14917407 39.35801776 -11.0625 36.75 C-10.711875 36.1725 -10.36125 35.595 -10 35 C-13.465 37.475 -13.465 37.475 -17 40 C-17.66 39.67 -18.32 39.34 -19 39 C-17.35 36.69 -15.7 34.38 -14 32 C-16.31 32.66 -18.62 33.32 -21 34 C-20.34 32.35 -19.68 30.7 -19 29 C-20.98 29 -22.96 29 -25 29 C-25 28.34 -25 27.68 -25 27 C-22.69 26.34 -20.38 25.68 -18 25 C-18 24.34 -18 23.68 -18 23 C-20.64 22.67 -23.28 22.34 -26 22 C-23.35261084 20.5393715 -22.10551666 20 -19 20 C-19 19.34 -19 18.68 -19 18 C-21.475 17.01 -21.475 17.01 -24 16 C-24 15.67 -24 15.34 -24 15 C-22.02 15 -20.04 15 -18 15 C-18.66 13.35 -19.32 11.7 -20 10 C-18.02 10.66 -16.04 11.32 -14 12 C-14.33 10.35 -14.66 8.7 -15 7 C-13.68 7.33 -12.36 7.66 -11 8 C-11.33 5.69 -11.66 3.38 -12 1 C-9.9754262 2.93254772 -8.57894208 4.63158688 -7 7 C-6.67 5.02 -6.34 3.04 -6 1 C-4.68 1.66 -3.36 2.32 -2 3 C-1.34 2.01 -0.68 1.02 0 0 Z " fill="#FAD12E" transform="translate(117,105)"/>
<path d="M0 0 C13.2460529 10.16932213 24.14249893 24.19714379 27 41 C28.72652209 63.53002049 25.204451 80.26582655 10.3125 97.6875 C5.15632444 103.18114215 -0.5283354 107.1910147 -7 111 C-7.68707031 111.42023438 -8.37414062 111.84046875 -9.08203125 112.2734375 C-19.58857403 118.15710146 -31.29820048 118.43699666 -43 118 C-43 117.67 -43 117.34 -43 117 C-42.44650879 116.92483154 -41.89301758 116.84966309 -41.32275391 116.7722168 C-19.83896501 113.81456303 -2.79134069 109.00816667 11.9609375 91.69921875 C22.57338657 77.5415629 26.5352261 61.74681969 24.72265625 44.3359375 C22.78593244 33.01071447 18.12439714 22.95077861 11 14 C10.23429687 13.01902344 9.46859375 12.03804687 8.6796875 11.02734375 C6.0240074 7.87284808 2.97813621 5.38135075 -0.375 3 C-0.97497803 2.57211182 -1.57495605 2.14422363 -2.19311523 1.70336914 C-13.78906903 -6.23559522 -25.78631801 -9.18223068 -39.6875 -9.25 C-40.72583984 -9.270625 -41.76417969 -9.29125 -42.83398438 -9.3125 C-56.76054442 -9.38235108 -68.91368337 -4.23774916 -80 4 C-81.11375 4.82757813 -81.11375 4.82757813 -82.25 5.671875 C-93.60812205 14.90034916 -99.20689437 27.21612509 -103 41 C-103.20109375 41.65871094 -103.4021875 42.31742188 -103.609375 42.99609375 C-106.57126528 58.19059089 -102.17249471 74.1850991 -94 87 C-82.14605562 103.9549311 -66.08304404 112.43620304 -46 116 C-46 116.66 -46 117.32 -46 118 C-64.72076545 116.49026085 -79.59640706 107.97623663 -92 94 C-104.32238271 78.85960877 -107.43694853 62.00383241 -106 43 C-104.03812636 27.48783784 -95.42538611 12.69133882 -83.3671875 2.8515625 C-80.63282236 0.8026928 -77.85397778 -1.12205791 -75 -3 C-73.92298828 -3.72703125 -73.92298828 -3.72703125 -72.82421875 -4.46875 C-50.97014618 -17.96806413 -20.27230749 -14.52521827 0 0 Z " fill="#C64053" transform="translate(154,74)"/>
<path d="M0 0 C0.89098389 -0.00926514 1.78196777 -0.01853027 2.69995117 -0.02807617 C8.2359086 -0.00181012 12.99801868 0.6909205 18.3125 2.25 C18.3125 2.58 18.3125 2.91 18.3125 3.25 C17.49797363 3.22381592 16.68344727 3.19763184 15.84423828 3.1706543 C-9.13650265 2.47468923 -29.1427653 3.82969298 -48.6875 21.25 C-49.3475 21.25 -50.0075 21.25 -50.6875 21.25 C-51.0175 22.24 -51.3475 23.23 -51.6875 24.25 C-52.3475 24.25 -53.0075 24.25 -53.6875 24.25 C-53.94917969 24.81589844 -54.21085937 25.38179687 -54.48046875 25.96484375 C-55.78977569 28.44362873 -57.32854242 30.56288857 -59 32.8125 C-70.66799838 49.40483034 -73.2959094 69.25503671 -70.06640625 89.05859375 C-69.1625676 92.27625933 -68.0487778 95.19767006 -66.6875 98.25 C-66.41373535 98.88486328 -66.1399707 99.51972656 -65.85791016 100.17382812 C-57.6760213 118.88795873 -44.60538289 131.29520186 -25.6875 139.25 C-18.17213984 141.87441149 -10.65916563 143.89635864 -2.6875 144.25 C-1.95917969 144.3015625 -1.23085937 144.353125 -0.48046875 144.40625 C17.68196918 145.1291331 34.30205899 138.50391521 48.3125 127.25 C49.1375 126.64414063 49.9625 126.03828125 50.8125 125.4140625 C64.90278154 113.21716255 71.57600144 94.23461675 73.66015625 76.25 C73.95452048 67.85422015 71.92745329 59.44973305 70.3125 51.25 C70.9725 51.25 71.6325 51.25 72.3125 51.25 C77.60678726 63.25038446 77.30204148 81.913999 73.5 94.34375 C70.84421446 100.84343566 67.68314061 107.09438507 64.3125 113.25 C63.77625 114.23097656 63.24 115.21195312 62.6875 116.22265625 C62.23375 116.89167969 61.78 117.56070313 61.3125 118.25 C60.6525 118.25 59.9925 118.25 59.3125 118.25 C59.06113281 118.82234375 58.80976563 119.3946875 58.55078125 119.984375 C51.54427573 132.80384883 34.86655651 140.82822744 21.41479492 144.81201172 C1.03095093 150.03195212 -20.17104852 146.71543204 -38.17578125 136.4140625 C-43.01623079 133.51427834 -47.69343294 130.25346487 -51.6875 126.25 C-51.6875 125.59 -51.6875 124.93 -51.6875 124.25 C-52.24566406 124.05148438 -52.80382812 123.85296875 -53.37890625 123.6484375 C-56.61530223 121.68798105 -58.49072367 118.92153026 -60.625 115.875 C-61.28640991 114.93333984 -61.28640991 114.93333984 -61.96118164 113.97265625 C-73.28591131 97.38455582 -75.45118491 78.2096193 -73.2890625 58.64453125 C-69.55308998 39.11558397 -56.72412173 22.47790347 -40.6875 11.25 C-27.55947124 3.07865515 -15.38751847 0.10022266 0 0 Z " fill="#EFEFEF" transform="translate(113.6875,53.75)"/>
<path d="M0 0 C0.66 0 1.32 0 2 0 C3.80767015 5.43747182 4.38435395 10.28181166 4.375 16 C4.37628906 16.82218018 4.37757813 17.64436035 4.37890625 18.49145508 C4.24391655 26.43360451 2.51591858 33.48593959 0 41 C-0.66 41 -1.32 41 -2 41 C-2.268125 41.72703125 -2.53625 42.4540625 -2.8125 43.203125 C-8.70387312 57.07885906 -20.77775853 65.99878369 -34.15625 71.9609375 C-36.08703132 72.73478239 -38.01007345 73.39541467 -40 74 C-40.67160156 74.20496094 -41.34320313 74.40992188 -42.03515625 74.62109375 C-53.06366926 77.52333402 -66.66570488 77.16714756 -77 72 C-77 70.68 -77 69.36 -77 68 C-76.44957031 68.0721875 -75.89914063 68.144375 -75.33203125 68.21875 C-68.6823271 68.96104256 -62.0593391 69.1405388 -55.375 69.1875 C-54.49303955 69.20039063 -53.6110791 69.21328125 -52.70239258 69.2265625 C-44.81356087 69.23834017 -37.63666199 68.57860304 -31 64 C-30.19820312 63.55140625 -29.39640625 63.1028125 -28.5703125 62.640625 C-14.84595755 54.83572027 -7.83828927 43.88111282 -3 29 C-2.6343773 27.3401178 -2.2884746 25.67501382 -2 24 C-1.34 24 -0.68 24 0 24 C-0.03552979 23.30849854 -0.07105957 22.61699707 -0.10766602 21.90454102 C-0.26465181 18.79077094 -0.41368123 15.67667062 -0.5625 12.5625 C-0.64661133 10.92958008 -0.64661133 10.92958008 -0.73242188 9.26367188 C-0.78076172 8.22919922 -0.82910156 7.19472656 -0.87890625 6.12890625 C-0.94960327 4.69140015 -0.94960327 4.69140015 -1.02172852 3.22485352 C-1 1 -1 1 0 0 Z " fill="#F7D447" transform="translate(171,111)"/>
<path d="M0 0 C1.49273437 -0.0309375 1.49273437 -0.0309375 3.015625 -0.0625 C13.0209746 -0.11474726 21.09797493 2.21418865 29.5625 7.5 C30.20896484 7.89840088 30.85542969 8.29680176 31.52148438 8.70727539 C36.27486198 11.71184829 40.35537521 14.82028753 43.875 19.25 C44.47699219 19.99894531 45.07898438 20.74789062 45.69921875 21.51953125 C53.18401735 31.48357131 56.0713918 41.77535245 55.9375 54.0625 C55.93298828 54.85076172 55.92847656 55.63902344 55.92382812 56.45117188 C55.91211312 58.38414761 55.89417998 60.31708393 55.875 62.25 C55.215 62.25 54.555 62.25 53.875 62.25 C53.875 58.62 53.875 54.99 53.875 51.25 C53.215 51.25 52.555 51.25 51.875 51.25 C51.875 54.22 51.875 57.19 51.875 60.25 C51.545 60.25 51.215 60.25 50.875 60.25 C50.78863281 58.93386719 50.70226562 57.61773437 50.61328125 56.26171875 C49.4213771 40.5273861 45.97465444 28.55288058 34.0625 17.5625 C22.56767875 7.95063994 9.71418094 4.38850909 -5.125 5.25 C-7.87123255 5.70003438 -10.4646747 6.44309986 -13.125 7.25 C-15.12410291 7.79496821 -17.1241439 8.33650429 -19.125 8.875 C-20.79189807 9.33249105 -22.45864698 9.79052766 -24.125 10.25 C-24.125 9.26 -24.125 8.27 -24.125 7.25 C-25.445 7.58 -26.765 7.91 -28.125 8.25 C-25.76487122 5.5416555 -23.52506885 4.39980073 -20.1875 3.125 C-19.33285156 2.79242188 -18.47820312 2.45984375 -17.59765625 2.1171875 C-11.68631178 0.04401456 -6.22728641 0.03153056 0 0 Z " fill="#FCF1CD" transform="translate(114.125,72.75)"/>
<path d="M0 0 C8.58358021 7.42754247 14.5888451 17.37409895 15.55859375 28.8203125 C15.81341967 39.76441509 13.18699662 48.78873745 7.3203125 58.0078125 C6.6603125 58.0078125 6.0003125 58.0078125 5.3203125 58.0078125 C6.11385045 54.30463539 7.61705722 51.33158714 9.3828125 48.0078125 C12.99015941 40.31213908 12.42786612 29.07091476 10.63671875 20.8828125 C6.57634929 10.10008862 -1.28653967 1.83368503 -11.58984375 -3.1328125 C-22.34774679 -7.55662309 -34.13410637 -7.49926897 -44.9921875 -3.32421875 C-51.62101561 -0.03870947 -57.59764759 4.79137264 -61.6796875 11.0078125 C-62.48792969 12.21824219 -62.48792969 12.21824219 -63.3125 13.453125 C-68.85671547 22.91697187 -69.09476486 32.52677021 -67.09375 43.10546875 C-65.81418279 47.66650672 -63.97381675 51.856531 -61.6796875 56.0078125 C-63.4765625 55.8515625 -63.4765625 55.8515625 -65.6796875 55.0078125 C-72.19601043 46.04039562 -73.28872064 35.69291808 -71.6796875 25.0078125 C-68.5250569 12.42922214 -61.35847381 2.30762062 -50.26171875 -4.46875 C-33.0597722 -13.58978213 -15.52319813 -11.5300925 0 0 Z " fill="#D24557" transform="translate(142.6796875,93.9921875)"/>
<path d="M0 0 C0 1.65 0 3.3 0 5 C-0.84820312 5.13535156 -1.69640625 5.27070312 -2.5703125 5.41015625 C-18.16931427 8.2728302 -31.36994723 14.94793047 -41.12890625 27.8046875 C-47.8288478 37.90355556 -49.6871575 47.13808184 -51 59 C-52.65 59 -54.3 59 -56 59 C-57.45510502 45.54836248 -52.14384532 33.29898611 -44.25 22.76953125 C-33.52013121 9.56210595 -17.48462257 -0.40661913 0 0 Z " fill="#D9273E" transform="translate(110,68)"/>
<path d="M0 0 C0.66 0 1.32 0 2 0 C1.835 1.19625 1.67 2.3925 1.5 3.625 C-0.05753543 18.47970359 0.63076373 32.5328153 10.09765625 44.76171875 C10.72542969 45.50035156 11.35320312 46.23898438 12 47 C12.89525391 48.06154297 12.89525391 48.06154297 13.80859375 49.14453125 C22.56444591 58.66492767 33.26050633 63.74506068 46.0859375 64.3359375 C60.02330649 64.59937445 60.02330649 64.59937445 73 60 C73.9178125 59.51402344 74.835625 59.02804688 75.78125 58.52734375 C88.63536435 51.05853829 96.38438254 40.03923889 100.3125 25.75 C101.08976682 21.51036279 101.62245582 17.29208126 102 13 C102.33 13 102.66 13 103 13 C103.85395994 27.70708793 100.17835751 38.44510349 91 50 C82.73100125 59.16167475 70.90443752 66.14608647 58.47973633 67.21728516 C37.25679868 68.15452711 37.25679868 68.15452711 28 63 C27.08347656 62.50242188 26.16695312 62.00484375 25.22265625 61.4921875 C14.41390418 55.11665473 7.33233017 47.31619907 2 36 C1.67128906 35.31421875 1.34257813 34.6284375 1.00390625 33.921875 C-1.67169175 28.03299902 -2.19349446 22.59557476 -2.1875 16.1875 C-2.18814453 15.47916016 -2.18878906 14.77082031 -2.18945312 14.04101562 C-2.13868469 9.02417101 -1.58080982 4.74242947 0 0 Z " fill="#54B673" transform="translate(64,111)"/>
<path d="M0 0 C1.65 0 3.3 0 5 0 C5.50512244 1.60256108 6.00391627 3.20711792 6.5 4.8125 C6.7784375 5.70582031 7.056875 6.59914062 7.34375 7.51953125 C8 10 8 10 8 13 C8.66 13 9.32 13 10 13 C10.268125 13.54527344 10.53625 14.09054688 10.8125 14.65234375 C17.17413685 26.8943094 25.82014321 33.9100716 38 40 C38 41.65 38 43.3 38 45 C28.84522911 44.14647249 19.77970578 36.6963311 13.6171875 30.05859375 C7.07038839 21.72486637 0 10.97791677 0 0 Z " fill="#26AC55" transform="translate(55,137)"/>
<path d="M0 0 C0.33 0 0.66 0 1 0 C2.77272007 13.67276176 1.24654706 23.23886532 -6.875 34.875 C-8.22497912 36.60317364 -9.59824253 38.31355291 -11 40 C-11.53238281 40.65742188 -12.06476563 41.31484375 -12.61328125 41.9921875 C-17.66481532 47.63285829 -24.29927034 50.6802921 -31 54 C-31.66644531 54.37511719 -32.33289063 54.75023437 -33.01953125 55.13671875 C-38.72128365 57.622098 -45.14881394 57.18316061 -51.25 57.1875 C-52.14074219 57.19974609 -53.03148438 57.21199219 -53.94921875 57.22460938 C-60.18659957 57.23818858 -65.93542757 56.44414063 -72 55 C-72 54.67 -72 54.34 -72 54 C-71.1435791 53.98541748 -70.2871582 53.97083496 -69.40478516 53.95581055 C-66.18014861 53.8941919 -62.95610122 53.81994004 -59.73193359 53.73754883 C-58.34532345 53.70461081 -56.95858923 53.6764856 -55.57177734 53.65356445 C-39.51515131 53.38112351 -26.12017585 49.64650264 -14.13671875 38.39453125 C-3.84682876 26.86308232 -0.6829329 15.02452382 0 0 Z " fill="#E2F5D3" transform="translate(167,124)"/>
<path d="M0 0 C0.66 0 1.32 0 2 0 C3.29517684 21.01064649 -4.50303136 41.34275013 -18.3125 57.125 C-29.37288966 68.91403019 -41.45859204 77.92095553 -57 83 C-58.32 83 -59.64 83 -61 83 C-61 82.34 -61 81.68 -61 81 C-60.18917969 80.70867187 -59.37835938 80.41734375 -58.54296875 80.1171875 C-47.9863333 76.20914318 -38.66586955 71.73017959 -29.97265625 64.515625 C-28 63 -28 63 -25.80859375 61.984375 C-23.64560488 61.0736198 -23.64560488 61.0736198 -23 58 C-22.34 58 -21.68 58 -21 58 C-20.896875 57.401875 -20.79375 56.80375 -20.6875 56.1875 C-20 54 -20 54 -18.703125 52.7421875 C-5.63357462 39.37287679 -1.16230921 18.01579274 0 0 Z " fill="#EFEFEF" transform="translate(200,126)"/>
<path d="M0 0 C16.34802324 -0.77540031 16.34802324 -0.77540031 24 4 C25.22976562 4.72896484 25.22976562 4.72896484 26.484375 5.47265625 C37.03149648 12.23240229 42.99700206 21.05764196 46.578125 32.9140625 C49.05645756 45.16804016 45.56716196 56.68017406 39 67 C38.34 67 37.68 67 37 67 C37.79353795 63.29682289 39.29674472 60.32377464 41.0625 57 C44.66984691 49.30432658 44.10755362 38.06310226 42.31640625 29.875 C38.33875883 19.31195292 30.46642487 10.64151353 20.23828125 5.875 C13.71688907 3.32562504 6.94731024 1.77192336 0 1 C0 0.67 0 0.34 0 0 Z " fill="#D23B51" transform="translate(111,85)"/>
<path d="M0 0 C13.53060069 13.14401209 20.84102209 27.79833394 21.1875 46.875 C21.15708025 52.56957772 20.51136811 57.52129059 19 63 C18.14694832 60.09330538 17.92710285 57.68951127 18.12109375 54.671875 C18.16943359 53.87265625 18.21777344 53.0734375 18.26757812 52.25 C18.32365234 51.425 18.37972656 50.6 18.4375 49.75 C18.48970703 48.90953125 18.54191406 48.0690625 18.59570312 47.203125 C18.72495689 45.1350648 18.86174274 43.0674778 19 41 C18.67 41 18.34 41 18 41 C17.95101562 42.12019531 17.90203125 43.24039063 17.8515625 44.39453125 C17.77652144 45.86721203 17.70097418 47.33986707 17.625 48.8125 C17.57859375 49.91948242 17.57859375 49.91948242 17.53125 51.04882812 C17.32653852 54.81893115 17.13566173 56.79650741 15 60 C15.02618408 59.3922876 15.05236816 58.7845752 15.0793457 58.15844727 C15.71924834 40.9588363 15.24594486 24.97992143 4 11 C2.87320547 9.48049576 1.74815072 7.95969956 0.625 6.4375 C-0.24753133 5.28978571 -1.12156956 4.14320557 -2 3 C-1.34 3 -0.68 3 0 3 C0 2.01 0 1.02 0 0 Z " fill="#FAE3D3" transform="translate(159,81)"/>
<path d="M0 0 C3.31805922 1.4474755 5.48448066 3.29230539 8.0625 5.8125 C16.12941802 13.02542832 23.5463412 15.74788356 34.37890625 15.28515625 C35.57386719 15.19105469 36.76882812 15.09695312 38 15 C39.80791016 14.87431641 39.80791016 14.87431641 41.65234375 14.74609375 C53.23083072 13.55178728 60.57084853 8.69618177 69 1 C69.495 1.99 69.495 1.99 70 3 C63.40932358 11.5878511 55.49869568 16.28018865 45 19 C32.55427375 20.30814608 20.24431696 19.0875176 9.90234375 11.55078125 C7.41504774 9.5231498 5.17063891 7.36216587 3 5 C2.401875 4.443125 1.80375 3.88625 1.1875 3.3125 C0 2 0 2 0 0 Z " fill="#8EDDCD" transform="translate(79,150)"/>
<path d="M0 0 C9.31555993 7.75349957 17.05615955 18.76649607 18.375 31.0703125 C18.39782643 36.0984668 17.93443324 41.07585426 17.375 46.0703125 C17.045 46.0703125 16.715 46.0703125 16.375 46.0703125 C16.28863281 44.75417969 16.20226562 43.43804687 16.11328125 42.08203125 C14.9213771 26.3476986 11.47465444 14.37319308 -0.4375 3.3828125 C-11.92159173 -6.22007563 -24.79460374 -9.81091394 -39.625 -8.9296875 C-41.65791971 -8.56852777 -43.58507774 -8.08449855 -45.56640625 -7.5078125 C-49.52589736 -6.39584915 -53.58877984 -5.70715614 -57.625 -4.9296875 C-55.51667183 -7.26647228 -53.77028031 -8.49292021 -50.8125 -9.5546875 C-50.16667969 -9.79445313 -49.52085938 -10.03421875 -48.85546875 -10.28125 C-31.51157344 -15.32343323 -14.2279939 -10.45926933 0 0 Z " fill="#F2DD7C" transform="translate(148.625,86.9296875)"/>
<path d="M0 0 C0.87840996 3.09720845 0.99435406 4.90645403 0 8 C0.99 8 1.98 8 3 8 C3 9.98 3 11.96 3 14 C2.34 14 1.68 14 1 14 C1.33 12.35 1.66 10.7 2 9 C1.34 9 0.68 9 0 9 C-0.144375 10.299375 -0.28875 11.59875 -0.4375 12.9375 C-0.875 16.875 -0.875 16.875 -2 18 C-2.21083753 20.67060873 -2.37591197 23.3252135 -2.5 26 C-2.86486486 33.86486486 -2.86486486 33.86486486 -4 35 C-5.66617115 35.04063832 -7.33388095 35.042721 -9 35 C-9.33 37.31 -9.66 39.62 -10 42 C-10.66 42 -11.32 42 -12 42 C-15.54380537 23.30009844 -15.54380537 23.30009844 -12 17 C-11.67 17 -11.34 17 -11 17 C-11 19.64 -11 22.28 -11 25 C-9.02 25 -7.04 25 -5 25 C-4.97421875 24.03320312 -4.9484375 23.06640625 -4.921875 22.0703125 C-4.5681069 13.94972662 -3.73289583 7.37898014 0 0 Z " fill="#EEE7DF" transform="translate(64,102)"/>
<path d="M0 0 C5.74547381 3.47061616 11.31552801 7.09677801 16.078125 11.859375 C16.078125 12.849375 16.078125 13.839375 16.078125 14.859375 C11.83949432 14.48537818 9.88099288 12.88454917 6.71972656 10.17163086 C-8.00047542 -1.59533608 -26.05742018 -1.60966616 -43.921875 -1.140625 C-39.1639545 -10.65646601 -8.17191665 -3.99093604 0 0 Z " fill="#FDF0DF" transform="translate(142.921875,69.140625)"/>
<path d="M0 0 C0.33 0 0.66 0 1 0 C2.02327898 21.58646369 -1.32365245 36.88363989 -15.6875 53.6875 C-20.84367556 59.18114215 -26.5283354 63.1910147 -33 67 C-33.68707031 67.42023438 -34.37414062 67.84046875 -35.08203125 68.2734375 C-45.58857403 74.15710146 -57.29820048 74.43699666 -69 74 C-69 73.67 -69 73.34 -69 73 C-68.44650879 72.92483154 -67.89301758 72.84966309 -67.32275391 72.7722168 C-45.83896501 69.81456303 -28.79134069 65.00816667 -14.0390625 47.69921875 C-3.03698874 33.02177973 -0.76971165 17.64260126 0 0 Z " fill="#C7495B" transform="translate(180,118)"/>
<path d="M0 0 C0.66 0.33 1.32 0.66 2 1 C2 1.66 2 2.32 2 3 C3.32 3.66 4.64 4.32 6 5 C5 7 5 7 2 9 C2.66 10.32 3.32 11.64 4 13 C2.02 13.33 0.04 13.66 -2 14 C-1.34 14.61875 -0.68 15.2375 0 15.875 C2 18 2 18 2 20 C0.02 19.67 -1.96 19.34 -4 19 C-3.67 20.65 -3.34 22.3 -3 24 C-4.65 24.33 -6.3 24.66 -8 25 C-8 26.65 -8 28.3 -8 30 C-10.88437779 28.70700306 -12.87219421 27.34058637 -15 25 C-15 26.98 -15 28.96 -15 31 C-15.66 31 -16.32 31 -17 31 C-16.67 27.7 -16.34 24.4 -16 21 C-13 22 -13 22 -12 24 C-12 22.02 -12 20.04 -12 18 C-10.68 18.33 -9.36 18.66 -8 19 C-8.33 17.68 -8.66 16.36 -9 15 C-7.35 15 -5.7 15 -4 15 C-4.66 13.68 -5.32 12.36 -6 11 C-4.68 10.67 -3.36 10.34 -2 10 C-2.99 9.01 -3.98 8.02 -5 7 C-3.68 6.34 -2.36 5.68 -1 5 C-2.32 4.67 -3.64 4.34 -5 4 C-5 3.34 -5 2.68 -5 2 C-2.625 0.9375 -2.625 0.9375 0 0 Z " fill="#FDF6CE" transform="translate(135,121)"/>
<path d="M0 0 C0.33 0 0.66 0 1 0 C1.03738281 0.96679688 1.07476562 1.93359375 1.11328125 2.9296875 C1.50278686 10.64342606 2.10615725 17.76539312 5 25 C5.32742187 25.81855469 5.65484375 26.63710937 5.9921875 27.48046875 C11.04296068 38.71408495 20.38756986 48.34332575 31.796875 53.1875 C32.52390625 53.455625 33.2509375 53.72375 34 54 C33.34 54.99 32.68 55.98 32 57 C20.52575706 53.65194378 10.95044927 44.78983469 5 34.5625 C4 32 4 32 4 30 C3.34 30 2.68 30 2 30 C-1.96375405 20.03462964 -0.89733494 10.43287011 0 0 Z " fill="#CFF4D9" transform="translate(61,120)"/>
<path d="M0 0 C-1.28818012 3.86454035 -3.11451422 4.89285475 -6.3125 7.375 C-10.10340163 10.32066722 -13.12445841 13.1536559 -16 17 C-16.75603516 17.95132813 -16.75603516 17.95132813 -17.52734375 18.921875 C-29.37660136 34.28323944 -32.62341863 51.14192344 -35 70 C-35.66 70 -36.32 70 -37 70 C-37.90598034 56.9387835 -35.09507838 43.61077668 -29 32 C-28.54238281 31.04222656 -28.08476563 30.08445312 -27.61328125 29.09765625 C-23.43570106 21.07629768 -10.53447247 0 0 0 Z " fill="#ECECEC" transform="translate(64,58)"/>
<path d="M0 0 C0.33 0 0.66 0 1 0 C1.18175781 1.05058594 1.36351562 2.10117188 1.55078125 3.18359375 C3.48031231 14.30501916 3.48031231 14.30501916 7 25 C7.30164062 25.76054687 7.60328125 26.52109375 7.9140625 27.3046875 C14.71222529 42.6127807 27.69516386 53.81377972 43.14453125 59.8359375 C48.65753978 61.78624875 54.24924057 62.97951033 60 64 C60 64.66 60 65.32 60 66 C41.27923455 64.49026085 26.40359294 55.97623663 14 42 C3.83909386 29.51539391 -0.53560601 15.91940099 0 0 Z " fill="#51B073" transform="translate(48,126)"/>
<path d="M0 0 C9.24967469 9.24967469 15.85582456 20.41899851 18.35546875 33.35546875 C17.95703125 36.75 17.95703125 36.75 17.35546875 39.35546875 C17.02546875 39.35546875 16.69546875 39.35546875 16.35546875 39.35546875 C16.22591797 38.49888672 16.22591797 38.49888672 16.09375 37.625 C14.05182094 25.841758 9.80848257 15.71910688 2.35546875 6.35546875 C1.58976562 5.37449219 0.8240625 4.39351562 0.03515625 3.3828125 C-2.62052385 0.22831683 -5.66639504 -2.2631805 -9.01953125 -4.64453125 C-9.61950928 -5.07241943 -10.2194873 -5.50030762 -10.83764648 -5.94116211 C-21.39483488 -13.16895414 -32.77247328 -16.55844949 -45.45703125 -17.20703125 C-46.24529297 -17.25021484 -47.03355469 -17.29339844 -47.84570312 -17.33789062 C-49.7784734 -17.44331446 -51.71148151 -17.54436219 -53.64453125 -17.64453125 C-53.64453125 -17.97453125 -53.64453125 -18.30453125 -53.64453125 -18.64453125 C-32.18139578 -21.20626032 -15.68852689 -14.52100861 0 0 Z " fill="#CD4A5C" transform="translate(162.64453125,81.64453125)"/>
<path d="M0 0 C0.33 1.32 0.66 2.64 1 4 C1.66 4 2.32 4 3 4 C2.05228777 6.41158916 1.09361546 8.79887303 0 11.1484375 C-3.34929401 18.60584994 -4.18227547 25.93035 -5 34 C-6.65 34 -8.3 34 -10 34 C-11.28949725 22.07931435 -6.98470298 9.57902123 0 0 Z " fill="#DA3149" transform="translate(64,93)"/>
<path d="M0 0 C0.33 0 0.66 0 1 0 C1.85395994 14.70708793 -1.82164249 25.44510349 -11 37 C-18.34831667 45.14160086 -29.79019163 53.03754171 -41 54 C-46.007226 54.1382363 -50.9928892 54.11735416 -56 54 C-56 53.67 -56 53.34 -56 53 C-54.07800781 52.79697266 -54.07800781 52.79697266 -52.1171875 52.58984375 C-36.14311912 50.69104524 -23.06190583 46.48793421 -12 34 C-9.69037895 30.79791391 -7.76912092 27.52648689 -6 24 C-5.52626953 23.05640625 -5.52626953 23.05640625 -5.04296875 22.09375 C-1.78040309 15.02217911 -0.67634688 7.68899606 0 0 Z " fill="#50B576" transform="translate(166,124)"/>
<path d="M0 0 C21.17950807 -0.63468004 43.40574315 9.7258466 58.890625 23.70703125 C60.3194384 25.07909272 61.66918558 26.53269179 63 28 C63 28.66 63 29.32 63 30 C59.47277101 28.48602956 57.13519646 26.39331518 54.375 23.75 C46.18877889 16.28186846 37.28238 11.94933662 27 8 C26.29746094 7.7009375 25.59492188 7.401875 24.87109375 7.09375 C17.01324506 4.01827106 8.32993867 3.76380236 0 3 C0 2.01 0 1.02 0 0 Z " fill="#CA4357" transform="translate(116,41)"/>
<path d="M0 0 C3.4566219 1.59347818 6.44289256 3.63999043 9.5625 5.8125 C20.38656151 13.09462197 31.23391356 16.86410394 44 19 C45.67255859 19.28230469 45.67255859 19.28230469 47.37890625 19.5703125 C50.25179596 20.05195399 53.12544216 20.52843205 56 21 C56 21.66 56 22.32 56 23 C36.44052578 24.02944601 15.85627544 16.18283463 1.109375 3.35546875 C0 2 0 2 0 0 Z " fill="#5BBB7E" transform="translate(57,190)"/>
<path d="M0 0 C13.75566529 1.36506602 25.72219239 10.19203196 35 20 C35.763125 20.721875 36.52625 21.44375 37.3125 22.1875 C39 24 39 24 39 26 C39.66 26 40.32 26 41 26 C42.46234341 28.01558172 43.77305248 30.00283235 45.0625 32.125 C45.60874023 32.97964844 45.60874023 32.97964844 46.16601562 33.8515625 C48.44225184 37.55412788 49.57329735 40.68045625 50 45 C47.45205366 42.72868784 46.238246 40.6102205 44.875 37.5 C37.59795791 22.5537399 24.00578805 10.6302186 8.56640625 4.67578125 C5.72465477 3.72183641 2.88216427 2.82274548 0 2 C0 1.34 0 0.68 0 0 Z " fill="#EFEFF0" transform="translate(134,57)"/>
<path d="M0 0 C1.5625 1.125 1.5625 1.125 3 3 C2.6875 6.1875 2.6875 6.1875 2 9 C1.01 8.67 0.02 8.34 -1 8 C-0.938125 9.1446875 -0.938125 9.1446875 -0.875 10.3125 C-1 13 -1 13 -3 16 C-3.99 16 -4.98 16 -6 16 C-5.68950274 17.43793392 -5.3765224 18.8753318 -5.0625 20.3125 C-4.88847656 21.11300781 -4.71445313 21.91351563 -4.53515625 22.73828125 C-4.00113841 25.145401 -4.00113841 25.145401 -3 28 C-3.66 28.33 -4.32 28.66 -5 29 C-5 29.99 -5 30.98 -5 32 C-6.98 32.495 -6.98 32.495 -9 33 C-8.34 31.35 -7.68 29.7 -7 28 C-8.98 28 -10.96 28 -13 28 C-13 27.34 -13 26.68 -13 26 C-10.69 25.34 -8.38 24.68 -6 24 C-6 23.34 -6 22.68 -6 22 C-8.64 21.67 -11.28 21.34 -14 21 C-11.35261084 19.5393715 -10.10551666 19 -7 19 C-7 18.34 -7 17.68 -7 17 C-9.475 16.01 -9.475 16.01 -12 15 C-12 14.67 -12 14.34 -12 14 C-10.02 14 -8.04 14 -6 14 C-6.66 12.35 -7.32 10.7 -8 9 C-6.02 9.66 -4.04 10.32 -2 11 C-2.33 9.35 -2.66 7.7 -3 6 C-1.68 6.33 -0.36 6.66 1 7 C0.67 4.69 0.34 2.38 0 0 Z " fill="#F5DB6B" transform="translate(105,106)"/>
<path d="M0 0 C0.66 0.33 1.32 0.66 2 1 C1.56233718 14.58263928 0.7586385 26.88106199 -6 39 C-8.1519437 35.77208445 -8.20086443 34.71599191 -8 31 C-7.34 31 -6.68 31 -6 31 C-5.87882813 30.32453125 -5.75765625 29.6490625 -5.6328125 28.953125 C-5.38144531 27.61507812 -5.38144531 27.61507812 -5.125 26.25 C-4.96257812 25.36828125 -4.80015625 24.4865625 -4.6328125 23.578125 C-4 21 -4 21 -2.96484375 19.18359375 C-1.49165168 15.84952749 -1.56835354 12.4029934 -1.4375 8.8125 C-1.12123631 1.12123631 -1.12123631 1.12123631 0 0 Z " fill="#FCEDE3" transform="translate(177,121)"/>
<path d="M0 0 C0 0.66 0 1.32 0 2 C-0.66 2 -1.32 2 -2 2 C-2.0721875 2.58394531 -2.144375 3.16789063 -2.21875 3.76953125 C-3.8395166 8.3968199 -8.85210689 10.79243784 -13 13 C-16.14577737 13.79336321 -18.728227 13.94722947 -22 14 C-22.33 13.01 -22.66 12.02 -23 11 C-22.29875 10.62488281 -21.5975 10.24976563 -20.875 9.86328125 C-15.68266702 7.06252555 -10.61936804 4.22453355 -5.75390625 0.8828125 C-4 0 -4 0 0 0 Z " fill="#F6D33D" transform="translate(155,168)"/>
<path d="M0 0 C4.01859885 7.50138452 4.13886822 16.05506958 2.24609375 24.2734375 C0.43079804 29.92577003 -1.81480652 34.99469596 -5 40 C-5.66 40 -6.32 40 -7 40 C-6.20646205 36.29682289 -4.70325528 33.32377464 -2.9375 30 C-1.22847282 26.35407534 -0.88218107 23.12518523 -0.9375 19.12109375 C-0.94523438 18.20005859 -0.95296875 17.27902344 -0.9609375 16.33007812 C-0.97382813 15.37552734 -0.98671875 14.42097656 -1 13.4375 C-1.02551551 11.54042178 -1.04654612 9.64327647 -1.0625 7.74609375 C-1.07410156 6.90747803 -1.08570313 6.0688623 -1.09765625 5.20483398 C-1 3 -1 3 0 0 Z " fill="#D03D53" transform="translate(155,112)"/>
<path d="M0 0 C0.99 0.33 1.98 0.66 3 1 C3.6875 3.0625 3.6875 3.0625 4 5 C1.03 4.505 1.03 4.505 -2 4 C-1.67 5.65 -1.34 7.3 -1 9 C-2.65 9.33 -4.3 9.66 -6 10 C-6 11.65 -6 13.3 -6 15 C-8.88437779 13.70700306 -10.87219421 12.34058637 -13 10 C-13 11.98 -13 13.96 -13 16 C-13.66 16 -14.32 16 -15 16 C-14.67 12.7 -14.34 9.4 -14 6 C-11 7 -11 7 -10 9 C-10 7.02 -10 5.04 -10 3 C-7 4.5 -7 4.5 -4 6 C-4 4.68 -4 3.36 -4 2 C-2.35 2 -0.7 2 1 2 C0.67 1.34 0.34 0.68 0 0 Z " fill="#FCF6D3" transform="translate(133,136)"/>
<path d="M0 0 C7.24339534 1.75597463 11.44556601 8.89344266 15.25 14.8125 C21.20369886 25.31527171 21.3086111 34.31709847 20 46 C19.67 46 19.34 46 19 46 C18.91363281 44.68386719 18.82726562 43.36773437 18.73828125 42.01171875 C17.68202266 28.06804375 15.14033616 17.90426068 6 7 C5.43410156 6.32453125 4.86820313 5.6490625 4.28515625 4.953125 C2.8712308 3.28968329 1.43762633 1.64300152 0 0 Z " fill="#EFD972" transform="translate(146,87)"/>
<path d="M0 0 C0.66 0.66 1.32 1.32 2 2 C-4.68262199 10.70765896 -12.50694438 14.90622439 -23 18 C-25.83803074 18.33886934 -28.14211167 18.28018513 -31 18 C-31 17.34 -31 16.68 -31 16 C-30.18917969 15.85304687 -29.37835938 15.70609375 -28.54296875 15.5546875 C-16.88422248 13.19307883 -7.86537977 9.07337325 0 0 Z " fill="#3FB367" transform="translate(147,151)"/>
<path d="M0 0 C2.4027045 3.60405676 3.52929929 7.22281367 4.90234375 11.30859375 C5.97288575 13.93351702 7.19816882 15.82856243 9 18 C8.67 18.66 8.34 19.32 8 20 C7.01 19.67 6.02 19.34 5 19 C4.67 19.66 4.34 20.32 4 21 C2.33333333 17.66666667 0.66666667 14.33333333 -1 11 C-1.57621094 9.94039062 -1.57621094 9.94039062 -2.1640625 8.859375 C-3 7 -3 7 -3 4 C-2.34 4 -1.68 4 -1 4 C-0.67 2.68 -0.34 1.36 0 0 Z " fill="#D6F4DF" transform="translate(55,140)"/>
<path d="M0 0 C-6.24055581 3.60032066 -13.26118488 3.18252929 -20.25 3.1875 C-21.14074219 3.19974609 -22.03148438 3.21199219 -22.94921875 3.22460938 C-29.18659957 3.23818858 -34.93542757 2.44414063 -41 1 C-41 0.67 -41 0.34 -41 0 C-39.65421875 0.00785522 -39.65421875 0.00785522 -38.28125 0.01586914 C-34.9191014 0.03301853 -31.557 0.04550216 -28.19482422 0.05493164 C-26.74592348 0.05992785 -25.29702769 0.06672709 -23.84814453 0.07543945 C-14.46324061 0.20991779 -14.46324061 0.20991779 -5.125 -0.56640625 C-2 -1 -2 -1 0 0 Z " fill="#F6F8D1" transform="translate(136,178)"/>
<path d="M0 0 C-0.33 0.99 -0.66 1.98 -1 3 C-1.49886719 2.62488281 -1.99773437 2.24976562 -2.51171875 1.86328125 C-13.03186344 -5.63491883 -24.08448937 -8.91169644 -36.8125 -9.5625 C-37.60076172 -9.60568359 -38.38902344 -9.64886719 -39.20117188 -9.69335938 C-41.13394215 -9.79878321 -43.06695026 -9.89983094 -45 -10 C-45 -10.33 -45 -10.66 -45 -11 C-27.9253092 -13.03794697 -14.27833572 -9.61041827 0 0 Z " fill="#D35763" transform="translate(154,74)"/>
<path d="M0 0 C0.33 0 0.66 0 1 0 C4.26213592 20.47572816 4.26213592 20.47572816 2 25 C1.34 25 0.68 25 0 25 C-3.54380537 6.30009844 -3.54380537 6.30009844 0 0 Z " fill="#FAFCF8" transform="translate(52,119)"/>
<path d="M0 0 C1.27603607 3.82810821 0.86283987 7.23475107 0.5625 11.1875 C0.51029297 11.93708984 0.45808594 12.68667969 0.40429688 13.45898438 C0.27486216 15.30637082 0.13813482 17.15324371 0 19 C-0.33 19 -0.66 19 -1 19 C-1.33 16.69 -1.66 14.38 -2 12 C-4.31960493 18.95881478 -2.83704844 26.84024635 -2 34 C-5.28468406 29.07297391 -5.1579265 24.45689452 -5.1875 18.625 C-5.20167969 17.35914062 -5.21585938 16.09328125 -5.23046875 14.7890625 C-4.98885461 10.81676225 -4.22893265 7.75965958 -3 4 C-2.34 4 -1.68 4 -1 4 C-0.67 2.68 -0.34 1.36 0 0 Z " fill="#E7DBD6" transform="translate(54,108)"/>
<path d="M0 0 C1.58941406 -0.00193359 1.58941406 -0.00193359 3.2109375 -0.00390625 C4.86996094 0.00189453 4.86996094 0.00189453 6.5625 0.0078125 C8.22152344 0.00201172 8.22152344 0.00201172 9.9140625 -0.00390625 C10.97367188 -0.00261719 12.03328125 -0.00132813 13.125 0 C14.58099609 0.00169189 14.58099609 0.00169189 16.06640625 0.00341797 C18.5625 0.1328125 18.5625 0.1328125 21.5625 1.1328125 C21.5625 1.7928125 21.5625 2.4528125 21.5625 3.1328125 C11.3325 3.1328125 1.1025 3.1328125 -9.4375 3.1328125 C-7.54332805 -0.6555314 -3.76784953 0.00437831 0 0 Z " fill="#FEFAF1" transform="translate(108.4375,64.8671875)"/>
<path d="M0 0 C1.39798828 0.59748047 1.39798828 0.59748047 2.82421875 1.20703125 C11.13407308 4.6852691 19.12549957 7.29394089 28 9 C28 9.66 28 10.32 28 11 C17.24757883 10.13286926 8.48450099 7.1054867 -1 2 C-0.67 1.34 -0.34 0.68 0 0 Z " fill="#66BA81" transform="translate(80,181)"/>
<path d="M0 0 C0 0.66 0 1.32 0 2 C1.98 2 3.96 2 6 2 C3.15497903 3.89668064 0.42700115 5.23263478 -2.6875 6.625 C-3.68136719 7.07101563 -4.67523438 7.51703125 -5.69921875 7.9765625 C-6.45847656 8.31429687 -7.21773438 8.65203125 -8 9 C-8 8.01 -8 7.02 -8 6 C-9.65 6.33 -11.3 6.66 -13 7 C-9.38220061 2.96476222 -5.58037921 0 0 0 Z " fill="#D82D44" transform="translate(93,72)"/>
<path d="M0 0 C0.66 0.33 1.32 0.66 2 1 C1.88569952 3.8966148 1.7589576 6.79178316 1.625 9.6875 C1.5940625 10.50412109 1.563125 11.32074219 1.53125 12.16210938 C1.32044076 16.50126633 0.98261241 20.04283457 -1 24 C-1.66 24 -2.32 24 -3 24 C-2.69479039 20.18687909 -2.37961671 16.37464766 -2.0625 12.5625 C-1.97548828 11.47388672 -1.88847656 10.38527344 -1.79882812 9.26367188 C-1.71181641 8.22919922 -1.62480469 7.19472656 -1.53515625 6.12890625 C-1.456604 5.17056885 -1.37805176 4.21223145 -1.29711914 3.22485352 C-1 1 -1 1 0 0 Z " fill="#FCFAF4" transform="translate(177,121)"/>
<path d="M0 0 C0 0.33 0 0.66 0 1 C-1.90072266 1.27263672 -1.90072266 1.27263672 -3.83984375 1.55078125 C-5.53912554 1.80426527 -7.23834081 2.05819546 -8.9375 2.3125 C-9.76830078 2.43044922 -10.59910156 2.54839844 -11.45507812 2.66992188 C-16.58895739 3.44899305 -21.24499768 4.62387184 -26.09204102 6.50073242 C-28 7 -28 7 -31 6 C-20.57929681 0.31598008 -11.8332868 -0.30298601 0 0 Z " fill="#F5E68F" transform="translate(122,75)"/>
<path d="M0 0 C3.38125527 1.47643047 5.69867944 3.41612432 8.375 5.9375 C11.7806405 9.03916597 14.75040054 11.25657458 19 13 C19 13.99 19 14.98 19 16 C11.30239126 14.22362875 4.3071725 8.55439293 0 2 C0 1.34 0 0.68 0 0 Z " fill="#80D7CD" transform="translate(79,150)"/>
<path d="M0 0 C0.33 0 0.66 0 1 0 C1.33 5.28 1.66 10.56 2 16 C2.66 15.67 3.32 15.34 4 15 C4.18175781 15.65226563 4.36351563 16.30453125 4.55078125 16.9765625 C5.97466596 21.92730011 7.49407234 26.46546423 10 31 C8.203125 30.84375 8.203125 30.84375 6 30 C-0.80410989 20.63654603 -0.71296735 11.02458771 0 0 Z " fill="#CC959C" transform="translate(71,119)"/>
<path d="M0 0 C0.66 0 1.32 0 2 0 C1.835 1.134375 1.67 2.26875 1.5 3.4375 C0.8495969 9.0060197 0.9710399 14.5513543 1.125 20.14624023 C1.18774479 23.99850866 1.19247228 25.71129157 -1 29 C-2.03669859 24.72880183 -2.19159065 20.56040743 -2.1875 16.1875 C-2.18814453 15.47916016 -2.18878906 14.77082031 -2.18945312 14.04101562 C-2.13868469 9.02417101 -1.58080982 4.74242947 0 0 Z " fill="#63C383" transform="translate(64,111)"/>
<path d="M0 0 C0.99 0.33 1.98 0.66 3 1 C4.02734375 3.2578125 4.02734375 3.2578125 4.9375 6.125 C6.12667421 9.65579139 7.33577981 12.86311431 9.25 16.0625 C11 19 11 19 11 21 C6.87485603 19.62495201 6.40113198 17.65998698 4.375 13.875 C3.45847656 12.20050781 3.45847656 12.20050781 2.5234375 10.4921875 C0.96413924 6.9177961 0.36397008 3.86595252 0 0 Z " fill="#3FB16A" transform="translate(31,152)"/>
<path d="M0 0 C0.33 0.66 0.66 1.32 1 2 C3.32156597 2.40729228 5.6568787 2.74438677 8 3 C5 4.5 5 4.5 2 6 C2.99 6.99 3.98 7.98 5 9 C3.35 9 1.7 9 0 9 C0.99 10.65 1.98 12.3 3 14 C0.03 13.505 0.03 13.505 -3 13 C-2.835 12.29875 -2.67 11.5975 -2.5 10.875 C-1.89942288 7.96277125 -1.89942288 7.96277125 -2.0625 4.8125 C-2 2 -2 2 0 0 Z " fill="#F6D752" transform="translate(129,123)"/>
<path d="M0 0 C0.33 0 0.66 0 1 0 C2.24516733 4.82255285 2.14770793 9.55724138 2.125 14.5 C2.12886719 15.34175781 2.13273438 16.18351562 2.13671875 17.05078125 C2.1302433 21.16268987 2.03531987 24.99018972 1 29 C0.67 29 0.34 29 0 29 C-0.19859939 25.47970194 -0.38186528 21.95876195 -0.5625 18.4375 C-0.61857422 17.44685547 -0.67464844 16.45621094 -0.73242188 15.43554688 C-0.99747116 10.11689117 -0.99167749 5.23752631 0 0 Z " fill="#F6D547" transform="translate(173,113)"/>
<path d="M0 0 C0.33 0 0.66 0 1 0 C1.185625 1.2065625 1.185625 1.2065625 1.375 2.4375 C1.58125 3.283125 1.7875 4.12875 2 5 C2.66 5.33 3.32 5.66 4 6 C4.33 5.01 4.66 4.02 5 3 C4.67 6.63 4.34 10.26 4 14 C2.35 14 0.7 14 -1 14 C-1.027193 12.41676312 -1.04648306 10.83338938 -1.0625 9.25 C-1.07410156 8.36828125 -1.08570313 7.4865625 -1.09765625 6.578125 C-1.00826198 4.2181162 -0.66912821 2.25501476 0 0 Z " fill="#DE3B56" transform="translate(55,113)"/>
<path d="M0 0 C0.33 0 0.66 0 1 0 C1.33 2.31 1.66 4.62 2 7 C2.66 7 3.32 7 4 7 C3.34 10.3 2.68 13.6 2 17 C1 13 1 13 1 10 C0.01 12.31 -0.98 14.62 -2 17 C-2.66 17 -3.32 17 -4 17 C-4.33 17.99 -4.66 18.98 -5 20 C-5.33 19.34 -5.66 18.68 -6 18 C-5.28470721 15.86866012 -4.47778891 13.76764532 -3.625 11.6875 C-2.03342119 7.7885765 -0.67197144 4.16466018 0 0 Z " fill="#F8DA59" transform="translate(169,135)"/>
<path d="M0 0 C2.97 0.33 5.94 0.66 9 1 C9.33 1.99 9.66 2.98 10 4 C11.65 4 13.3 4 15 4 C15 4.66 15 5.32 15 6 C15.99 6.33 16.98 6.66 18 7 C11.76259194 6.63604661 6.51889132 6.05300371 1 3 C0.67 2.01 0.34 1.02 0 0 Z " fill="#EDF9E7" transform="translate(90,183)"/>
<path d="M0 0 C0 3.10551666 -0.5393715 4.35261084 -2 7 C0.31 6.34 2.62 5.68 5 5 C3.02 7.97 3.02 7.97 1 11 C3.31 11 5.62 11 8 11 C7.01 11.99 6.02 12.98 5 14 C3.02 13.34 1.04 12.68 -1 12 C-1 11.01 -1 10.02 -1 9 C-1.99 9 -2.98 9 -4 9 C-3.67 7.68 -3.34 6.36 -3 5 C-3.66 4.67 -4.32 4.34 -5 4 C-4.34 4 -3.68 4 -3 4 C-2.67 3.01 -2.34 2.02 -2 1 C-1.34 0.67 -0.68 0.34 0 0 Z " fill="#F6DD77" transform="translate(129,109)"/>
<path d="M0 0 C1.76754092 3.00886737 2.17805031 4.69608809 1.625 8.125 C0.61108986 16.04542741 0.92187166 24.03090961 1 32 C0.67 32 0.34 32 0 32 C-0.03738281 30.91203125 -0.07476562 29.8240625 -0.11328125 28.703125 C-0.4880874 19.79614639 -1.37092599 11.58169442 -4 3 C-3.01 3.495 -3.01 3.495 -2 4 C-2 4.66 -2 5.32 -2 6 C-1.34 6 -0.68 6 0 6 C0 4.02 0 2.04 0 0 Z " fill="#F7D863" transform="translate(170,103)"/>
<path d="M0 0 C6.75 1.875 6.75 1.875 9 3 C9.66 2.835 10.32 2.67 11 2.5 C13 2 13 2 15 3 C15 4.65 15 6.3 15 8 C8.92838975 7.68863537 4.66140596 4.64625533 0 1 C0 0.67 0 0.34 0 0 Z " fill="#38B362" transform="translate(78,174)"/>
<path d="M0 0 C15.74487472 -0.55353075 15.74487472 -0.55353075 23 3 C23 3.99 23 4.98 23 6 C21.92621094 5.72285156 20.85242188 5.44570312 19.74609375 5.16015625 C18.30994471 4.79407904 16.87374401 4.42820442 15.4375 4.0625 C14.38079102 3.78889648 14.38079102 3.78889648 13.30273438 3.50976562 C8.87862902 2.3884486 4.52944562 1.56543671 0 1 C0 0.67 0 0.34 0 0 Z " fill="#CD3142" transform="translate(111,85)"/>
<path d="M0 0 C1.65 0 3.3 0 5 0 C5.33 3.3 5.66 6.6 6 10 C4.35 10 2.7 10 1 10 C0.67 6.7 0.34 3.4 0 0 Z " fill="#F4EFC6" transform="translate(54,127)"/>
<path d="M0 0 C5.27749285 0.53851968 9.25645564 1.77343836 14 4 C13.67 5.32 13.34 6.64 13 8 C12.40832031 7.79503906 11.81664062 7.59007813 11.20703125 7.37890625 C7.16339184 6.0002429 3.23144751 4.68249153 -1 4 C0.32 3.67 1.64 3.34 3 3 C3 2.34 3 1.68 3 1 C2.01 0.67 1.02 0.34 0 0 Z " fill="#FBE1D2" transform="translate(127,65)"/>
<path d="M0 0 C0.33 0 0.66 0 1 0 C0.85851011 1.6045556 0.71164314 3.20863767 0.5625 4.8125 C0.48128906 5.70582031 0.40007813 6.59914063 0.31640625 7.51953125 C0 10 0 10 -1 13 C-1.99 12.67 -2.98 12.34 -4 12 C-4 9.36 -4 6.72 -4 4 C-3.01 3.67 -2.02 3.34 -1 3 C-0.67 2.01 -0.34 1.02 0 0 Z " fill="#D91736" transform="translate(60,106)"/>
<path d="M0 0 C6.28260706 -0.23268915 11.88019467 0.59545452 18 2 C17.34 2.66 16.68 3.32 16 4 C13.24410223 3.98252073 10.61213324 3.86136729 7.875 3.625 C7.12089844 3.56828125 6.36679688 3.5115625 5.58984375 3.453125 C3.72581904 3.3115535 1.86278863 3.15700041 0 3 C0 2.01 0 1.02 0 0 Z " fill="#CE5562" transform="translate(116,41)"/>
<path d="M0 0 C-8.12745857 5.84161085 -19.43924722 4.1044257 -29 4 C-29 3.67 -29 3.34 -29 3 C-28.03320312 2.96261719 -27.06640625 2.92523438 -26.0703125 2.88671875 C-18.9980922 2.52960664 -12.74583525 2.04420049 -6.05078125 -0.4765625 C-3.67046554 -1.08410975 -2.30063061 -0.77899456 0 0 Z " fill="#C9EFD3" transform="translate(139,175)"/>
<path d="M0 0 C6.36857379 3.82114427 11.86839244 8.80258866 16 15 C15.67 15.99 15.34 16.98 15 18 C14.41992188 17.26394531 13.83984375 16.52789062 13.2421875 15.76953125 C8.27983573 9.42936868 8.27983573 9.42936868 2.4375 3.9375 C1.633125 3.298125 0.82875 2.65875 0 2 C0 1.34 0 0.68 0 0 Z " fill="#CA4656" transform="translate(154,75)"/>
<path d="M0 0 C0.33 0.66 0.66 1.32 1 2 C1.8971875 1.505 1.8971875 1.505 2.8125 1 C5 0 5 0 8 0 C6.79618552 2.49361571 5.54571278 4.68143083 4 7 C4.33 7.66 4.66 8.32 5 9 C4.01 9 3.02 9 2 9 C2 7.35 2 5.7 2 4 C0.68 4 -0.64 4 -2 4 C-1.34 2.68 -0.68 1.36 0 0 Z " fill="#FCF6D6" transform="translate(95,137)"/>
<path d="M0 0 C2 3 2 3 2 6 C2.66 6 3.32 6 4 6 C4.66 4.35 5.32 2.7 6 1 C6.91058531 4.07322544 7.08886184 6.80097361 7 10 C6.34 10 5.68 10 5 10 C5 9.01 5 8.02 5 7 C3.68 7.33 2.36 7.66 1 8 C1 6.68 1 5.36 1 4 C0.34 4 -0.32 4 -1 4 C-1 4.99 -1 5.98 -1 7 C-1.99 7 -2.98 7 -4 7 C-3.43628586 3.73045798 -2.50037734 2.17424117 0 0 Z " fill="#F7DF81" transform="translate(117,105)"/>
<path d="M0 0 C0.33 0 0.66 0 1 0 C1.06058594 0.97839844 1.12117188 1.95679687 1.18359375 2.96484375 C1.63321512 9.99968883 2.14049365 17.00116259 3 24 C2.34 24.33 1.68 24.66 1 25 C-1.57445499 16.51944238 -0.78963144 8.69661657 0 0 Z " fill="#E0FBE8" transform="translate(61,120)"/>
<path d="M0 0 C1.5625 1.125 1.5625 1.125 3 3 C2.6875 6.1875 2.6875 6.1875 2 9 C1.01 8.67 0.02 8.34 -1 8 C-1 9.65 -1 11.3 -1 13 C-5 13 -5 13 -8 11 C-8 10.34 -8 9.68 -8 9 C-6.02 9.66 -4.04 10.32 -2 11 C-2.33 9.35 -2.66 7.7 -3 6 C-1.68 6.33 -0.36 6.66 1 7 C0.67 4.69 0.34 2.38 0 0 Z " fill="#F3D960" transform="translate(105,106)"/>
<path d="M0 0 C0.66 0 1.32 0 2 0 C4.66815719 7.69057071 3.76557692 15.05455308 3 23 C2.67 23 2.34 23 2 23 C1.34 15.41 0.68 7.82 0 0 Z " fill="#DCDD88" transform="translate(163,110)"/>
<path d="M0 0 C4.07295675 2.86207771 6.19387818 5.3421069 8 10 C8.1875 12.875 8.1875 12.875 8 15 C5.52733876 12.73762373 3.936134 10.42546667 2.3125 7.5 C1.65701172 6.33984375 1.65701172 6.33984375 0.98828125 5.15625 C0 3 0 3 0 0 Z " fill="#D03049" transform="translate(147,100)"/>
<path d="M0 0 C6.6 0.66 13.2 1.32 20 2 C20 2.66 20 3.32 20 4 C5.7218543 4.29139073 5.7218543 4.29139073 0 0 Z " fill="#45AC6D" transform="translate(93,209)"/>
<path d="M0 0 C-5.98009978 3.82061931 -10.03495602 4.11608407 -17 4 C-17 3.34 -17 2.68 -17 2 C-14.91952703 1.4678559 -12.83547707 0.94968214 -10.75 0.4375 C-9.58984375 0.14746094 -8.4296875 -0.14257812 -7.234375 -0.44140625 C-4.27909017 -0.95179964 -2.75565899 -1.02996165 0 0 Z " fill="#39B061" transform="translate(133,165)"/>
<path d="M0 0 C4.95 0.99 4.95 0.99 10 2 C10 2.66 10 3.32 10 4 C7.69 4.66 5.38 5.32 3 6 C3 6.66 3 7.32 3 8 C2.01 7.67 1.02 7.34 0 7 C0.33 6.34 0.66 5.68 1 5 C1.99 5 2.98 5 4 5 C4 4.34 4 3.68 4 3 C2.68 3 1.36 3 0 3 C0 2.01 0 1.02 0 0 Z " fill="#FCF6D1" transform="translate(89,126)"/>
<path d="M0 0 C3 1 3 1 4.1328125 3.07421875 C5.89025136 7.70306362 7.477485 12.03610752 8 17 C7.34 17 6.68 17 6 17 C5.18457569 14.91780951 4.37276811 12.83420239 3.5625 10.75 C3.11003906 9.58984375 2.65757812 8.4296875 2.19140625 7.234375 C1.29849367 4.81033692 0.54205635 2.51713525 0 0 Z " fill="#CA4759" transform="translate(191,88)"/>
<path d="M0 0 C3.34708051 1.54841575 6.24667512 3.49105864 9.25 5.625 C10.14203125 6.25664062 11.0340625 6.88828125 11.953125 7.5390625 C12.96632813 8.26222656 12.96632813 8.26222656 14 9 C11 10 11 10 8.80859375 8.92578125 C8.02613281 8.39339844 7.24367188 7.86101562 6.4375 7.3125 C5.65246094 6.79300781 4.86742187 6.27351562 4.05859375 5.73828125 C1.93321591 3.94360736 1.02964585 2.55463485 0 0 Z " fill="#42B16E" transform="translate(57,190)"/>
<path d="M0 0 C1.95582488 2.93373731 3.56224304 5.78216298 5 9 C4 11 4 11 2 12 C1.67 10.68 1.34 9.36 1 8 C0.34 8 -0.32 8 -1 8 C-1.625 5.6875 -1.625 5.6875 -2 3 C-1.34 2.01 -0.68 1.02 0 0 Z " fill="#C8F1D4" transform="translate(64,142)"/>
<path d="M0 0 C1.65 0 3.3 0 5 0 C5.66 2.31 6.32 4.62 7 7 C6.01 7 5.02 7 4 7 C3.34 7.66 2.68 8.32 2 9 C1.34 6.03 0.68 3.06 0 0 Z " fill="#38B768" transform="translate(55,137)"/>
<path d="M0 0 C0.66 0.33 1.32 0.66 2 1 C2 1.66 2 2.32 2 3 C0.35 3.33 -1.3 3.66 -3 4 C-1.68 4.66 -0.36 5.32 1 6 C1 6.66 1 7.32 1 8 C-0.98 8.33 -2.96 8.66 -5 9 C-4.67 7.68 -4.34 6.36 -4 5 C-4.66 5 -5.32 5 -6 5 C-6.33 4.01 -6.66 3.02 -7 2 C-4.69 2 -2.38 2 0 2 C0 1.34 0 0.68 0 0 Z " fill="#FCF8D4" transform="translate(97,117)"/>
<path d="M0 0 C6.6 0 13.2 0 20 0 C15.48332093 3.01111938 12.3360009 3.10067926 7 3 C7 2.67 7 2.34 7 2 C4.69 1.67 2.38 1.34 0 1 C0 0.67 0 0.34 0 0 Z " fill="#F7D13B" transform="translate(112,182)"/>
<path d="M0 0 C-3 2 -3 2 -6.5625 3.5 C-9.99005769 4.74653251 -9.99005769 4.74653251 -12 7 C-12 6.01 -12 5.02 -12 4 C-13.32 4.33 -14.64 4.66 -16 5 C-12.50674767 0.19677804 -5.52658162 -0.34541135 0 0 Z " fill="#FCE7DC" transform="translate(102,76)"/>
<path d="M0 0 C1.9375 0.75 1.9375 0.75 4 2 C4.96569331 4.49470772 5 6.29745539 5 9 C0.545 8.01 0.545 8.01 -4 7 C-4 6.34 -4 5.68 -4 5 C-1.03 5.495 -1.03 5.495 2 6 C1.34 4.02 0.68 2.04 0 0 Z " fill="#F7E9AB" transform="translate(98,108)"/>
<path d="M0 0 C4.04648443 1.34882814 4.95502599 3.34826069 7 7 C6.67 7.99 6.34 8.98 6 10 C2.64888166 7.76592111 1.18446044 6.73784176 0.1875 2.75 C0.125625 1.8425 0.06375 0.935 0 0 Z " fill="#E1F9E7" transform="translate(67,152)"/>
<path d="M0 0 C1.625 1 1.625 1 3 3 C2.65009645 5.8158905 1.84980278 8.2716858 1 11 C-1.52588702 8.63707344 -2.88820837 7.33537489 -4 4 C-2.68 4 -1.36 4 0 4 C0 2.68 0 1.36 0 0 Z " fill="#FBEFBE" transform="translate(110,102)"/>
<path d="M0 0 C0.886875 0.185625 1.77375 0.37125 2.6875 0.5625 C5.91821398 1.17285221 5.91821398 1.17285221 8.75 0.4375 C9.4925 0.293125 10.235 0.14875 11 0 C11.66 0.66 12.32 1.32 13 2 C12.01 2 11.02 2 10 2 C10.33 3.32 10.66 4.64 11 6 C7.2089881 4.55049545 3.6125362 2.84827434 0 1 C0 0.67 0 0.34 0 0 Z " fill="#F6D855" transform="translate(137,77)"/>
<path d="M0 0 C0.81210938 0.33837891 0.81210938 0.33837891 1.640625 0.68359375 C-1.01714549 3.34136424 -3.90242327 4.25313096 -7.359375 5.68359375 C-8.69950997 6.33648002 -10.03679028 6.9958497 -11.359375 7.68359375 C-12.019375 7.02359375 -12.679375 6.36359375 -13.359375 5.68359375 C-11.61814951 4.64786479 -9.86600905 3.63046855 -8.109375 2.62109375 C-6.64757812 1.76837891 -6.64757812 1.76837891 -5.15625 0.8984375 C-2.359375 -0.31640625 -2.359375 -0.31640625 0 0 Z " fill="#D4596B" transform="translate(90.359375,66.31640625)"/>
<path d="M0 0 C0.75732422 0.04833984 1.51464844 0.09667969 2.29492188 0.14648438 C3.08060547 0.20255859 3.86628906 0.25863281 4.67578125 0.31640625 C5.47306641 0.36861328 6.27035156 0.42082031 7.09179688 0.47460938 C9.05764647 0.60409647 11.0230179 0.74080666 12.98828125 0.87890625 C12.98828125 1.20890625 12.98828125 1.53890625 12.98828125 1.87890625 C10.40546289 2.10114876 7.82305938 2.30714113 5.23828125 2.50390625 C4.50867188 2.56835938 3.7790625 2.6328125 3.02734375 2.69921875 C-0.87083611 2.98272274 -3.71817197 3.14972008 -7.01171875 0.87890625 C-4.18726283 -0.06257906 -2.87000257 -0.1942107 0 0 Z " fill="#77C890" transform="translate(106.01171875,175.12109375)"/>
<path d="M0 0 C2.97 1.65 5.94 3.3 9 5 C8.01 5.33 7.02 5.66 6 6 C5.34 5.67 4.68 5.34 4 5 C4 5.66 4 6.32 4 7 C2.0625 6.1875 2.0625 6.1875 0 5 C-0.33 4.01 -0.66 3.02 -1 2 C-0.67 1.34 -0.34 0.68 0 0 Z " fill="#D9F6DE" transform="translate(74,172)"/>
<path d="M0 0 C3 1 3 1 4 3 C4.66 2.34 5.32 1.68 6 1 C6.33 2.98 6.66 4.96 7 7 C5.02 6.01 3.04 5.02 1 4 C1 5.98 1 7.96 1 10 C0.34 10 -0.32 10 -1 10 C-0.67 6.7 -0.34 3.4 0 0 Z " fill="#FBF1C2" transform="translate(119,142)"/>
<path d="M0 0 C-0.185625 1.11375 -0.37125 2.2275 -0.5625 3.375 C-1.31680657 6.82568861 -1.31680657 6.82568861 0 9 C-0.99 9.33 -1.98 9.66 -3 10 C-3.28875 9.195625 -3.5775 8.39125 -3.875 7.5625 C-4.73262568 4.8673532 -4.73262568 4.8673532 -7 4 C-2.25 0 -2.25 0 0 0 Z " fill="#FCF5D1" transform="translate(107,140)"/>
<path d="M0 0 C0.33 0.99 0.66 1.98 1 3 C1.99 2.67 2.98 2.34 4 2 C3.67 4.64 3.34 7.28 3 10 C2.34 8.68 1.68 7.36 1 6 C0.67 6.66 0.34 7.32 0 8 C-0.66 8 -1.32 8 -2 8 C-1.34 5.36 -0.68 2.72 0 0 Z " fill="#DD3E56" transform="translate(59,101)"/>
<path d="M0 0 C0.66 0.33 1.32 0.66 2 1 C0.88200014 2.33920838 -0.24461897 3.67122556 -1.375 5 C-2.00148438 5.7425 -2.62796875 6.485 -3.2734375 7.25 C-4.12808594 8.11625 -4.12808594 8.11625 -5 9 C-5.66 9 -6.32 9 -7 9 C-7 9.66 -7 10.32 -7 11 C-7.66 10.67 -8.32 10.34 -9 10 C-7.8758824 8.70756532 -6.75067408 7.41607925 -5.625 6.125 C-4.99851562 5.40570313 -4.37203125 4.68640625 -3.7265625 3.9453125 C-2.52573166 2.5923402 -1.2791655 1.2791655 0 0 Z " fill="#F9D0D2" transform="translate(89,95)"/>
<path d="M0 0 C2.37616467 2.37616467 3.04068181 4.35349521 4.1875 7.5 C4.55230469 8.4796875 4.91710937 9.459375 5.29296875 10.46875 C6 13 6 13 5 15 C1.85351331 9.99422572 -0.3439299 6.01877323 0 0 Z " fill="#4CB06E" transform="translate(64,137)"/>
<path d="M0 0 C2.67289025 3.87671106 2.01875653 7.79267603 1.625 12.25 C1.53992188 13.36761719 1.53992188 13.36761719 1.453125 14.5078125 C1.31223742 16.33935108 1.15748116 18.16981352 1 20 C0.67 20 0.34 20 0 20 C-0.1946838 17.22949974 -0.38102792 14.45886998 -0.5625 11.6875 C-0.61857422 10.90181641 -0.67464844 10.11613281 -0.73242188 9.30664062 C-0.78076172 8.54931641 -0.82910156 7.79199219 -0.87890625 7.01171875 C-0.9260376 6.31522217 -0.97316895 5.61872559 -1.02172852 4.90112305 C-1 3 -1 3 0 0 Z " fill="#DA4F65" transform="translate(155,112)"/>
<path d="M0 0 C0.66 0 1.32 0 2 0 C2.05447047 1.41623216 2.09300508 2.83308191 2.125 4.25 C2.14820313 5.03890625 2.17140625 5.8278125 2.1953125 6.640625 C1.9828378 9.20731941 1.28654105 10.7916067 0 13 C-0.19397476 11.02145742 -0.38001321 9.0421352 -0.5625 7.0625 C-0.66691406 5.96035156 -0.77132812 4.85820313 -0.87890625 3.72265625 C-0.91886719 2.82417969 -0.95882812 1.92570312 -1 1 C-0.67 0.67 -0.34 0.34 0 0 Z " fill="#F8D339" transform="translate(171,111)"/>
<path d="M0 0 C2 1.0625 2 1.0625 4 3 C4.25 6.6875 4.25 6.6875 4 10 C-0.875 5.25 -0.875 5.25 -2 3 C-1.34 3 -0.68 3 0 3 C0 2.01 0 1.02 0 0 Z " fill="#FAE1CA" transform="translate(159,81)"/>
<path d="M0 0 C-0.66 0 -1.32 0 -2 0 C-2 2.64 -2 5.28 -2 8 C-5 4.25 -5 4.25 -5 2 C-5.99 2.33 -6.98 2.66 -8 3 C-7.67 2.01 -7.34 1.02 -7 0 C-4.05610218 -1.17755913 -3.10046087 -1.03348696 0 0 Z " fill="#F8DF7C" transform="translate(121,142)"/>
<path d="M0 0 C3.375 -0.1875 3.375 -0.1875 7 0 C7.66 0.99 8.32 1.98 9 3 C6.03 2.505 6.03 2.505 3 2 C3.33 3.65 3.66 5.3 4 7 C2.68 6.34 1.36 5.68 0 5 C0 3.35 0 1.7 0 0 Z " fill="#F5E48D" transform="translate(126,136)"/>
<path d="M0 0 C0 0.66 0 1.32 0 2 C-3.05847848 2.54372951 -5.88772805 3 -9 3 C-9.33 2.01 -9.66 1.02 -10 0 C-6.30458414 -0.95024979 -3.69541586 -0.95024979 0 0 Z " fill="#FAEDB2" transform="translate(139,132)"/>
<path d="M0 0 C0.66 0.33 1.32 0.66 2 1 C0.75965588 2.32162881 -0.49268626 3.63200453 -1.75 4.9375 C-2.44609375 5.66839844 -3.1421875 6.39929688 -3.859375 7.15234375 C-6.00599725 9.00517646 -7.23532932 9.60771565 -10 10 C-3.84965831 2.51708428 -3.84965831 2.51708428 0 0 Z " fill="#FBD3DA" transform="translate(82,82)"/>
<path d="M0 0 C4 5 4 5 8 10 C7.01 10 6.02 10 5 10 C3.39453125 8.25 3.39453125 8.25 1.8125 6 C1.28269531 5.2575 0.75289063 4.515 0.20703125 3.75 C-0.19128906 3.1725 -0.58960937 2.595 -1 2 C-0.67 1.34 -0.34 0.68 0 0 Z " fill="#5DB57E" transform="translate(70,151)"/>
<path d="M0 0 C1.45606519 4.52092968 0.27032841 7.51648796 -1 12 C-1.66 12 -2.32 12 -3 12 C-3.33 12.99 -3.66 13.98 -4 15 C-5 13 -5 13 -4.00390625 9.9609375 C-3.52824219 8.77757812 -3.05257812 7.59421875 -2.5625 6.375 C-2.08941406 5.18648437 -1.61632812 3.99796875 -1.12890625 2.7734375 C-0.75636719 1.85820312 -0.38382813 0.94296875 0 0 Z " fill="#F7DD6E" transform="translate(168,140)"/>
<path d="M0 0 C0.66 0 1.32 0 2 0 C2 1.65 2 3.3 2 5 C2.99 4.67 3.98 4.34 5 4 C4.34 5.65 3.68 7.3 3 9 C2.34 9 1.68 9 1 9 C0.63877119 7.68942607 0.28619689 6.37646376 -0.0625 5.0625 C-0.35833984 3.96615234 -0.35833984 3.96615234 -0.66015625 2.84765625 C-0.77230469 2.23792969 -0.88445312 1.62820312 -1 1 C-0.67 0.67 -0.34 0.34 0 0 Z " fill="#FAF2CC" transform="translate(118,102)"/>
<path d="M0 0 C-1.49097658 3.7952131 -3.75700849 5.61042731 -7 8 C-6.62952882 5.25851328 -6.31412056 3.41406801 -4.625 1.1875 C-3 0 -3 0 0 0 Z " fill="#CE3545" transform="translate(88,95)"/>
<path d="M0 0 C8.19256018 -0.4726477 8.19256018 -0.4726477 11.5625 1.5 C12.036875 1.995 12.51125 2.49 13 3 C12 4 12 4 8.9375 4.0625 C7.968125 4.041875 6.99875 4.02125 6 4 C5.67 3.34 5.34 2.68 5 2 C2.47266765 1.34444881 2.47266765 1.34444881 0 1 C0 0.67 0 0.34 0 0 Z " fill="#F9CF2A" transform="translate(124,71)"/>
<path d="M0 0 C0.66 0.66 1.32 1.32 2 2 C0.35 3.98 -1.3 5.96 -3 8 C-3.99 7.34 -4.98 6.68 -6 6 C-4.02 4.02 -2.04 2.04 0 0 Z " fill="#69B176" transform="translate(147,151)"/>
<path d="M0 0 C1.25 1.5625 1.25 1.5625 2 4 C0.93237266 6.57001015 -0.46544943 8.6530403 -2 11 C-2.66 11 -3.32 11 -4 11 C-3.21681311 7.08406554 -1.60820142 3.63593365 0 0 Z " fill="#D1485C" transform="translate(152,141)"/>
<path d="M0 0 C1.65 1.65 3.3 3.3 5 5 C4.67 5.66 4.34 6.32 4 7 C1.9375 7.625 1.9375 7.625 0 8 C-0.66 6.68 -1.32 5.36 -2 4 C-1.34 4 -0.68 4 0 4 C0 2.68 0 1.36 0 0 Z " fill="#F6D555" transform="translate(162,91)"/>
<path d="M0 0 C2.5 1.8125 2.5 1.8125 5 4 C5 4.99 5 5.98 5 7 C3.35 6.67 1.7 6.34 0 6 C0 4 0 2 0 0 Z " fill="#FDECD8" transform="translate(154,77)"/>
<path d="M0 0 C0.33 1.32 0.66 2.64 1 4 C0.34 4 -0.32 4 -1 4 C-1.0825 4.78375 -1.165 5.5675 -1.25 6.375 C-2 9 -2 9 -4.0625 10.3125 C-5.0215625 10.6528125 -5.0215625 10.6528125 -6 11 C-4.54955729 6.89041233 -2.48889248 3.56741255 0 0 Z " fill="#FBF0B7" transform="translate(168,154)"/>
<path d="M0 0 C0.33 0.66 0.66 1.32 1 2 C2.65 2 4.3 2 6 2 C6 3.65 6 5.3 6 7 C4.68 7.33 3.36 7.66 2 8 C2.66 6.35 3.32 4.7 4 3 C2.02 3 0.04 3 -2 3 C-2 2.34 -2 1.68 -2 1 C-1.34 0.67 -0.68 0.34 0 0 Z " fill="#F7E492" transform="translate(94,131)"/>
<path d="M0 0 C2.3828125 -0.29296875 2.3828125 -0.29296875 5.125 -0.1875 C6.03507812 -0.16042969 6.94515625 -0.13335937 7.8828125 -0.10546875 C8.58148438 -0.07066406 9.28015625 -0.03585938 10 0 C6.96474514 2.02350324 5.80573798 2.32124018 2.3125 2.625 C1.50425781 2.69976562 0.69601563 2.77453125 -0.13671875 2.8515625 C-0.75160156 2.90054688 -1.36648437 2.94953125 -2 3 C-1.34 2.01 -0.68 1.02 0 0 Z " fill="#D23146" transform="translate(100,86)"/>
<path d="M0 0 C0 0.66 0 1.32 0 2 C0.66 2.33 1.32 2.66 2 3 C0.02 4.32 -1.96 5.64 -4 7 C-4.33 5.35 -4.66 3.7 -5 2 C-2 0 -2 0 0 0 Z " fill="#FAD6DC" transform="translate(80,74)"/>
<path d="M0 0 C0.66 0.33 1.32 0.66 2 1 C2 1.66 2 2.32 2 3 C2.99 4.485 2.99 4.485 4 6 C-0.455 5.01 -0.455 5.01 -5 4 C-5 3.34 -5 2.68 -5 2 C-2.625 0.9375 -2.625 0.9375 0 0 Z " fill="#FAF3C0" transform="translate(135,121)"/>
<path d="M0 0 C0.99 0.66 1.98 1.32 3 2 C4.9896995 2.39013716 6.99019869 2.73202649 9 3 C6.09907498 4.93395001 5.10325263 5.30131941 1.8125 5.625 C0.554375 5.74875 -0.70375 5.8725 -2 6 C-1.34 4.02 -0.68 2.04 0 0 Z " fill="#F5D33F" transform="translate(107,110)"/>
<path d="M0 0 C2.00993705 2.00993705 2.89940919 3.59211232 4.125 6.125 C4.47820313 6.84945312 4.83140625 7.57390625 5.1953125 8.3203125 C5.46085937 8.87460938 5.72640625 9.42890625 6 10 C5.01 10 4.02 10 3 10 C2.30289269 8.71349294 1.61757124 7.42059335 0.9375 6.125 C0.36322266 5.04605469 0.36322266 5.04605469 -0.22265625 3.9453125 C-0.47917969 3.30335938 -0.73570313 2.66140625 -1 2 C-0.67 1.34 -0.34 0.68 0 0 Z " fill="#5DB77F" transform="translate(55,153)"/>
<path d="M0 0 C2.2328877 2.2328877 2.36778152 2.91909815 2.75 5.9375 C2.84796875 6.62714844 2.9459375 7.31679687 3.046875 8.02734375 C3 10 3 10 1 13 C0.63779734 11.20994059 0.28547531 9.41787943 -0.0625 7.625 C-0.25972656 6.62726563 -0.45695313 5.62953125 -0.66015625 4.6015625 C-1 2 -1 2 0 0 Z " fill="#D35D6B" transform="translate(178,108)"/>
<path d="M0 0 C0.66 0 1.32 0 2 0 C2 3.3 2 6.6 2 10 C1.01 10.33 0.02 10.66 -1 11 C-1.0270043 9.54176788 -1.04639787 8.08339325 -1.0625 6.625 C-1.07410156 5.81289062 -1.08570312 5.00078125 -1.09765625 4.1640625 C-1 2 -1 2 0 0 Z " fill="#FAF2C4" transform="translate(124,103)"/>
<path d="M0 0 C1.60080151 4.00200378 0.29279692 7.04556236 -1 11 C-1.99 10.67 -2.98 10.34 -4 10 C-2.8905928 6.51329166 -1.73662334 3.22515763 0 0 Z " fill="#D35F73" transform="translate(55,96)"/>
<path d="M0 0 C3.96 0.99 3.96 0.99 8 2 C4.1496895 4.56687367 2.41430237 3.83288724 -2 3 C-1.34 2.01 -0.68 1.02 0 0 Z " fill="#FCEEB2" transform="translate(128,74)"/>
<path d="M0 0 C0 0.66 0 1.32 0 2 C1.98 2 3.96 2 6 2 C3.08235 3.9451 1.37462715 4.45276317 -2 5 C-2.99 3.68 -3.98 2.36 -5 1 C-3 0 -3 0 0 0 Z " fill="#D83A4B" transform="translate(93,72)"/>
<path d="M0 0 C4.27786748 0.49360009 7.09567131 1.04783565 11 3 C6.545 3.495 6.545 3.495 2 4 C1.34 2.68 0.68 1.36 0 0 Z " fill="#ECFCED" transform="translate(92,175)"/>
<path d="M0 0 C0.66 0.66 1.32 1.32 2 2 C-0.64 3.65 -3.28 5.3 -6 7 C-6.66 6.34 -7.32 5.68 -8 5 C-4.04 2.525 -4.04 2.525 0 0 Z " fill="#5DC183" transform="translate(148,164)"/>
<path d="M0 0 C0.66 1.32 1.32 2.64 2 4 C0.68 3.67 -0.64 3.34 -2 3 C-1.67 5.31 -1.34 7.62 -1 10 C-2.5625 8.8125 -2.5625 8.8125 -4 7 C-3.6875 4.3125 -3.6875 4.3125 -3 2 C-2.01 2 -1.02 2 0 2 C0 1.34 0 0.68 0 0 Z " fill="#F4D757" transform="translate(125,136)"/>
<path d="M0 0 C0.66 0 1.32 0 2 0 C2.33 1.65 2.66 3.3 3 5 C1.35 6.32 -0.3 7.64 -2 9 C-2.66 8.67 -3.32 8.34 -4 8 C-3.34 7.236875 -2.68 6.47375 -2 5.6875 C0.29850538 3.15722061 0.29850538 3.15722061 0 0 Z " fill="#F3DE83" transform="translate(102,136)"/>
<path d="M0 0 C6.4 0.49230769 6.4 0.49230769 9.4375 3.0625 C10.2109375 4.0215625 10.2109375 4.0215625 11 5 C9.53932801 4.54917531 8.08151968 4.08906463 6.625 3.625 C5.81289062 3.36976563 5.00078125 3.11453125 4.1640625 2.8515625 C2 2 2 2 0 0 Z " fill="#CFF6F3" transform="translate(94,161)"/>
<path d="M0 0 C1.32 1.65 2.64 3.3 4 5 C2.35 5.66 0.7 6.32 -1 7 C-1.66 5.68 -2.32 4.36 -3 3 C-2.34 3 -1.68 3 -1 3 C-0.67 2.01 -0.34 1.02 0 0 Z " fill="#36B265" transform="translate(67,156)"/>
<path d="M0 0 C0.99 0 1.98 0 3 0 C3.75 2.25 3.75 2.25 4 5 C2.0625 7.3125 2.0625 7.3125 0 9 C0.875 3.25 0.875 3.25 2 1 C1.34 0.67 0.68 0.34 0 0 Z " fill="#F4DB69" transform="translate(105,139)"/>
<path d="M0 0 C2 2 2 2 2.125 5.625 C2.08375 6.73875 2.0425 7.8525 2 9 C-1.875 7.25 -1.875 7.25 -3 5 C-2.34 5 -1.68 5 -1 5 C-0.67 3.35 -0.34 1.7 0 0 Z " fill="#FBF6CB" transform="translate(104,104)"/>
<path d="M0 0 C1.485 0.99 1.485 0.99 3 2 C3.1875 5.125 3.1875 5.125 3 8 C2.34 8 1.68 8 1 8 C-0.35439668 5.29120665 -0.06501451 2.99066732 0 0 Z " fill="#FACF33" transform="translate(167,101)"/>
<path d="M0 0 C3.625 0.375 3.625 0.375 7 1 C7 1.66 7 2.32 7 3 C4.03 2.67 1.06 2.34 -2 2 C-1.34 1.34 -0.68 0.68 0 0 Z " fill="#6FBB8D" transform="translate(101,189)"/>
<path d="M0 0 C0.33 0.99 0.66 1.98 1 3 C1.66 3 2.32 3 3 3 C2.67 5.31 2.34 7.62 2 10 C1.67 10 1.34 10 1 10 C1 8.35 1 6.7 1 5 C0.34 5 -0.32 5 -1 5 C-0.67 3.35 -0.34 1.7 0 0 Z " fill="#FAD3DA" transform="translate(55,100)"/>
<path d="M0 0 C1.32 1.32 2.64 2.64 4 4 C3.01 4.495 3.01 4.495 2 5 C1.67 5.66 1.34 6.32 1 7 C0.01 5.35 -0.98 3.7 -2 2 C-1.34 2 -0.68 2 0 2 C0 1.34 0 0.68 0 0 Z " fill="#D5F6DF" transform="translate(68,166)"/>
<path d="M0 0 C0.33 1.32 0.66 2.64 1 4 C-1.31 4.66 -3.62 5.32 -6 6 C-4 4 -2 2 0 0 Z " fill="#E3F8E0" transform="translate(152,163)"/>
<path d="M0 0 C2 2 2 2 2 5 C-0.31 5 -2.62 5 -5 5 C-5 4.34 -5 3.68 -5 3 C-4.360625 2.87625 -3.72125 2.7525 -3.0625 2.625 C-2.0415625 2.315625 -2.0415625 2.315625 -1 2 C-0.67 1.34 -0.34 0.68 0 0 Z " fill="#FBF8E5" transform="translate(98,109)"/>
<path d="M0 0 C0.33 0.66 0.66 1.32 1 2 C1.66 2 2.32 2 3 2 C2.625 3.9375 2.625 3.9375 2 6 C1.01 6.495 1.01 6.495 0 7 C0 6.01 0 5.02 0 4 C-0.66 3.67 -1.32 3.34 -2 3 C-1.34 2.01 -0.68 1.02 0 0 Z " fill="#FAD5DB" transform="translate(64,86)"/>
<path d="M0 0 C-1.15173355 2.46800047 -2.04783565 4.04783565 -4 6 C-4.99 5.67 -5.98 5.34 -7 5 C-2.25 0 -2.25 0 0 0 Z " fill="#D45667" transform="translate(70,79)"/>
<path d="M0 0 C0.33 0.99 0.66 1.98 1 3 C-2.3 2.34 -5.6 1.68 -9 1 C-9 0.67 -9 0.34 -9 0 C-5.69903842 -0.8252404 -3.1967 -1.37001429 0 0 Z " fill="#FCF5CE" transform="translate(135,68)"/>
</svg>
