<svg xmlns="http://www.w3.org/2000/svg" width="438" height="432" viewBox="0 0 438 432" version="1.1">
	<path d="M 208.901 25.091 C 191.281 26.521, 171.341 32.757, 162.127 39.718 C 144.423 53.094, 142.934 71.787, 158.464 85.684 C 164.067 90.697, 173.626 96.040, 180.500 97.999 C 182.700 98.626, 185.400 99.507, 186.500 99.956 C 191.458 101.982, 203.602 103.367, 216.075 103.328 C 228.468 103.290, 242.003 101.684, 244.500 99.954 C 245.050 99.573, 247.119 98.970, 249.097 98.614 C 251.076 98.258, 255.126 96.822, 258.097 95.424 C 261.069 94.025, 264.637 92.345, 266.027 91.690 C 273.628 88.110, 280.085 81.181, 283.750 72.672 C 286.780 65.638, 283.900 53.747, 277.296 46.033 C 269.226 36.605, 250.594 28.338, 232 25.936 C 219.802 24.360, 218.492 24.312, 208.901 25.091 M 96.077 76.530 C 59.862 86.663, 29.574 136.071, 38.521 170.420 C 42.739 186.612, 56.103 194.651, 72.022 190.573 C 108.479 181.233, 139.544 131.382, 130.513 96.711 C 126.181 80.078, 112.355 71.976, 96.077 76.530 M 319.500 79.928 C 316.035 80.763, 309.278 84.869, 306.797 87.647 C 299.895 95.374, 297.270 112.165, 300.487 128 C 305.453 152.445, 325.298 179.051, 346.662 189.908 C 360.444 196.911, 371.703 197.506, 380.558 191.698 C 403.034 176.956, 396.637 132.378, 367.563 101.133 C 353.343 85.851, 332.703 76.745, 319.500 79.928 M 275.044 122.461 C 281.020 125.575, 288 133.158, 288 136.537 C 288 139.936, 286.042 138.703, 285.864 135.191 C 285.749 132.917, 285.662 132.840, 285.302 134.695 C 284.756 137.502, 282.006 136.630, 281.985 133.643 C 281.973 132.059, 281.745 131.854, 281.110 132.857 C 279.832 134.874, 276.555 133.410, 275.258 130.243 L 274.136 127.500 274.676 130.250 C 275.127 132.543, 274.871 133, 273.134 133 C 271.841 133, 270.475 131.886, 269.533 130.063 C 268.698 128.448, 267.560 126.846, 267.005 126.503 C 266.451 126.160, 266.932 127.465, 268.075 129.402 L 270.152 132.924 267.563 133.573 C 266.032 133.958, 264.357 133.711, 263.464 132.970 C 262.217 131.935, 262.057 131.985, 262.544 133.255 C 262.904 134.192, 262.249 135.413, 260.866 136.381 C 258.747 137.865, 258.430 137.823, 256.056 135.735 L 253.514 133.500 255.395 135.731 C 256.936 137.559, 257.048 138.237, 256.016 139.481 C 254.410 141.416, 252.589 141.414, 250.980 139.476 C 250.284 138.638, 249.482 138.185, 249.197 138.470 C 248.912 138.755, 249.430 139.817, 250.348 140.832 C 251.909 142.557, 251.897 142.783, 250.153 144.362 C 248.396 145.952, 248.038 145.905, 243.895 143.536 C 237.755 140.027, 236.611 140.368, 242.339 144 C 246.492 146.633, 246.939 147.245, 246 149 C 244.671 151.484, 243.949 151.490, 239.807 149.056 C 235.517 146.534, 227.813 144.787, 226.550 146.050 C 225.950 146.650, 226.687 147.004, 228.550 147.010 C 232.407 147.023, 241.667 151.358, 241.667 153.151 C 241.667 155.111, 235.335 154.833, 231.300 152.695 C 227.908 150.899, 222.490 150.366, 223.453 151.924 C 224.327 153.337, 218.262 157.224, 216.251 156.540 C 213.131 155.478, 210.562 152.536, 207.500 146.520 C 203.736 139.124, 193.138 127.694, 186.529 123.903 C 183.763 122.317, 181.050 121.035, 180.500 121.056 C 179.950 121.076, 181.548 122.160, 184.050 123.464 C 189.829 126.475, 198.203 133.981, 202.095 139.638 C 205.189 144.134, 205.200 146, 202.135 146 C 201.174 146, 197.589 146.945, 194.168 148.101 C 189.003 149.845, 187.682 149.981, 186.381 148.901 C 184.994 147.750, 185.198 147.268, 188.157 144.704 L 191.500 141.807 187.663 144.039 L 183.826 146.271 181.726 144.171 C 179.644 142.089, 179.643 142.051, 181.563 139.785 L 183.500 137.500 181.250 139.405 C 179.071 141.250, 178.937 141.253, 176.984 139.486 L 174.969 137.662 177.234 135.081 L 179.500 132.500 176.890 134.792 C 174.622 136.785, 173.940 136.930, 171.672 135.896 C 170.237 135.242, 169.343 134.254, 169.686 133.699 C 170.050 133.110, 169.806 133.002, 169.098 133.440 C 166.955 134.764, 163.008 133.181, 163.611 131.240 C 164.119 129.602, 164.085 129.603, 163.026 131.250 C 162.407 132.213, 160.831 133, 159.524 133 C 158.101 133, 156.963 132.298, 156.689 131.250 C 156.280 129.685, 156.220 129.678, 156.116 131.183 C 155.991 133.001, 152.651 134.520, 151.009 133.506 C 150.454 133.163, 150 133.535, 150 134.334 C 150 136.816, 147.170 137.125, 146.698 134.695 C 146.346 132.880, 146.249 132.976, 146.136 135.250 C 145.980 138.411, 144 139.051, 144 135.941 C 144 134.801, 143.546 134.162, 142.984 134.510 C 142.425 134.856, 142.226 135.557, 142.543 136.069 C 142.859 136.581, 142.656 137, 142.090 137 C 141.525 137, 141.350 137.749, 141.701 138.664 C 142.089 139.674, 141.937 140.079, 141.316 139.695 C 139.856 138.793, 138.137 143.109, 136.456 151.895 C 132.902 170.467, 136.211 188.338, 145.075 198.432 C 149.354 203.306, 158.145 207.528, 160.920 206.043 C 163.721 204.544, 163.538 203.331, 160.250 201.621 C 147.804 195.146, 143.947 167.785, 153.530 153.956 C 156.642 149.466, 159.665 147.999, 165.797 148.004 C 173.187 148.010, 180.759 153.738, 185.025 162.552 C 186.846 166.313, 187.049 167.596, 186.141 169.591 L 185.029 172.029 180.978 167.978 C 178.750 165.750, 176.525 164.176, 176.033 164.480 C 175.541 164.784, 174.813 164.506, 174.415 163.862 C 173.963 163.131, 174.124 162.959, 174.845 163.405 C 175.480 163.797, 176 163.883, 176 163.595 C 176 162.815, 168.695 157.999, 167.518 158.004 C 166.958 158.006, 167.963 158.899, 169.750 159.989 C 173.780 162.446, 174.039 163.589, 170.105 161.554 C 168.513 160.731, 165.293 159.751, 162.949 159.376 L 158.689 158.695 159.450 162.097 C 161.174 169.800, 161.236 170.601, 159.984 169 C 158.987 167.724, 158.900 167.774, 159.406 169.332 C 159.733 170.339, 160 171.378, 160 171.641 C 160 171.903, 160.520 171.797, 161.155 171.405 C 161.885 170.953, 162.037 171.131, 161.569 171.888 C 160.285 173.967, 167.753 181.846, 173.992 184.996 C 180.819 188.442, 184.005 192.071, 183.988 196.385 C 183.970 201.134, 181.645 208.814, 178.115 215.790 C 175.279 221.392, 174.736 224.899, 176.913 223.554 C 177.339 223.291, 177.083 225.406, 176.344 228.255 C 174.389 235.790, 174.576 243.570, 176.750 245.193 C 177.713 245.912, 179.321 248.300, 180.325 250.500 C 183.166 256.725, 186.342 260.986, 188.146 260.993 C 189.052 260.997, 191.211 262.615, 192.944 264.589 C 194.736 266.630, 196.690 267.949, 197.474 267.648 C 198.277 267.340, 199.951 268.558, 201.478 270.560 C 202.921 272.452, 204.959 274, 206.006 274 C 207.054 274, 209.569 275.125, 211.595 276.500 C 216.182 279.613, 217.119 279.613, 220.818 276.500 C 222.452 275.125, 224.658 274, 225.720 274 C 227.769 274, 230.988 270.978, 232.910 267.250 C 234.349 264.460, 236 264.328, 236 267.003 C 236 268.638, 236.664 268.271, 239.616 265.003 C 241.605 262.801, 243.968 260.968, 244.866 260.928 C 247.398 260.816, 252.116 254.442, 253.149 249.738 C 253.661 247.407, 254.812 244.946, 255.706 244.268 C 257.849 242.645, 258.608 233.374, 256.998 228.493 C 256.010 225.500, 256.019 224.607, 257.042 223.974 C 258.018 223.371, 257.423 221.111, 254.507 214.343 C 247.463 197.997, 247.408 192.128, 254.256 187.687 C 256.536 186.209, 259.169 185, 260.107 185 C 262.404 185, 270.851 175.512, 273.158 170.341 C 275.520 165.047, 276.713 157, 275.136 157 C 274.511 157, 273.997 158.012, 273.994 159.250 C 273.991 160.488, 273.500 163.260, 272.903 165.411 C 272.112 168.258, 271.581 168.941, 270.950 167.919 C 270.446 167.104, 270.484 166.116, 271.042 165.558 C 271.569 165.031, 271.993 164.128, 271.985 163.550 C 271.976 162.973, 271.533 163.175, 271 164 C 270.418 164.901, 270.025 165.025, 270.015 164.309 C 270.007 163.654, 270.457 162.835, 271.016 162.490 C 273.339 161.055, 270.538 159.791, 266.317 160.370 C 263.133 160.806, 262.094 160.656, 262.603 159.833 C 263.041 159.124, 262.865 158.965, 262.138 159.415 C 261.494 159.813, 261.212 160.535, 261.512 161.019 C 261.811 161.503, 261.031 162.446, 259.778 163.114 C 257.625 164.261, 257.582 164.223, 259 162.414 C 259.825 161.361, 258.475 162.275, 256 164.445 C 253.525 166.615, 251.006 169.046, 250.402 169.848 C 248.870 171.881, 246.997 170.411, 247.016 167.191 C 247.041 163.223, 250.857 157.235, 256.279 152.658 C 260.405 149.174, 261.846 148.566, 266.827 148.206 C 271.988 147.833, 272.942 148.080, 275.884 150.556 C 277.692 152.078, 279.607 154.263, 280.138 155.411 C 280.669 156.560, 281.849 158.850, 282.759 160.500 C 283.891 162.551, 284.533 166.663, 284.790 173.500 C 285.163 183.438, 285.142 183.547, 281.333 191 C 278.409 196.721, 276.459 199.190, 273.109 201.411 C 269.033 204.113, 268.850 204.417, 270.550 205.661 C 273.276 207.654, 275.035 207.332, 281.003 203.750 C 287.409 199.905, 291.982 194.236, 295.095 186.282 C 297.829 179.294, 298.961 158.921, 297.045 151.193 C 295.130 143.469, 289.890 133.798, 284.935 128.841 C 280.771 124.676, 273.396 119.922, 271.290 120.047 C 270.855 120.072, 272.545 121.159, 275.044 122.461 M 151.970 128.055 C 151.365 129.186, 151.018 130.555, 151.200 131.099 C 151.381 131.642, 152.046 130.717, 152.678 129.043 C 153.991 125.562, 153.598 125.013, 151.970 128.055 M 259 128.378 C 259 128.585, 259.788 129.373, 260.750 130.128 C 262.336 131.371, 262.371 131.336, 261.128 129.750 C 259.821 128.084, 259 127.555, 259 128.378 M 279.564 129.293 C 279.940 130.279, 280.499 130.834, 280.807 130.526 C 281.115 130.219, 280.808 129.412, 280.124 128.733 C 279.136 127.753, 279.022 127.868, 279.564 129.293 M 170.872 130.750 C 169.629 132.336, 169.664 132.371, 171.250 131.128 C 172.916 129.821, 173.445 129, 172.622 129 C 172.415 129, 171.627 129.787, 170.872 130.750 M 289.731 139.080 C 290.085 140.432, 290.538 140.886, 290.788 140.137 C 291.028 139.415, 290.750 138.350, 290.168 137.768 C 289.426 137.026, 289.296 137.417, 289.731 139.080 M 234.813 140.683 C 235.534 140.972, 236.397 140.936, 236.729 140.604 C 237.061 140.272, 236.471 140.036, 235.417 140.079 C 234.252 140.127, 234.015 140.364, 234.813 140.683 M 203.500 146.732 C 202.400 146.950, 198.663 148.043, 195.196 149.163 C 190.442 150.698, 188.976 151.605, 189.234 152.850 C 189.711 155.144, 195.004 154.671, 202.229 151.689 C 207.081 149.685, 207.769 149.095, 206.729 147.830 C 206.053 147.009, 204.600 146.515, 203.500 146.732 M 202 154.103 C 200.075 155.214, 199.400 155.821, 200.500 155.453 C 201.600 155.085, 203.963 154.361, 205.750 153.845 C 207.537 153.328, 209 152.702, 209 152.453 C 209 151.358, 205.210 152.251, 202 154.103 M 163.813 157.683 C 164.534 157.972, 165.397 157.936, 165.729 157.604 C 166.061 157.272, 165.471 157.036, 164.417 157.079 C 163.252 157.127, 163.015 157.364, 163.813 157.683 M 213.081 161.412 C 214.271 163.429, 214.695 165.070, 214.119 165.427 C 213.583 165.758, 212.856 165.122, 212.504 164.013 C 212.152 162.905, 210.883 161.483, 209.682 160.853 C 207.569 159.745, 207.555 159.771, 209.250 161.683 C 210.213 162.769, 210.986 164.972, 210.968 166.579 C 210.937 169.425, 210.895 169.449, 209.334 167.500 C 207.700 165.462, 207.741 165.882, 209.628 170.555 C 210.129 171.796, 209.518 171.695, 206.598 170.055 L 202.941 168.001 205.204 171.933 C 206.449 174.096, 207.158 176.175, 206.780 176.554 C 206.402 176.932, 204.169 175.724, 201.819 173.871 L 197.546 170.500 199.928 174.368 L 202.309 178.237 198.005 175.118 C 193.961 172.189, 189.747 170.543, 193.223 173.250 C 195.301 174.869, 200.010 181.952, 199.965 183.390 C 199.945 184, 199.383 183.527, 198.715 182.337 C 196.487 178.371, 190.974 173, 189.131 173 C 185.973 173, 183.692 176.663, 183.207 182.515 L 182.752 188 185.642 187.422 C 191.011 186.348, 196.415 192.820, 199.120 203.562 C 200.090 207.413, 200.491 207.998, 201.098 206.446 C 201.844 204.541, 201.863 204.542, 202.041 206.500 C 202.341 209.812, 202.005 221.983, 201.375 230.640 L 200.782 238.780 204.623 241.390 C 206.827 242.887, 209.857 244, 211.732 244 C 214.459 244, 214.997 243.627, 214.985 241.750 C 214.965 238.817, 213.814 237.090, 210.915 235.645 C 207.550 233.967, 205.150 229.450, 206.766 227.834 C 207.749 226.851, 208.783 227.358, 211.794 230.299 C 215.848 234.257, 217 234.783, 217 232.674 C 217 229.370, 223.961 225.510, 225.482 227.971 C 226.466 229.564, 223.343 234.523, 220.555 235.793 C 217.931 236.989, 215.510 241.398, 216.552 243.084 C 217.499 244.617, 221.859 244.112, 226.024 241.988 C 230.887 239.507, 231.718 236.767, 230.090 228.576 C 228.792 222.047, 228.928 189.838, 230.250 190.655 C 230.662 190.910, 231 190.668, 231 190.118 C 231 189.568, 230.552 188.841, 230.004 188.502 C 229.375 188.114, 229.560 186.818, 230.504 184.993 C 232.453 181.224, 232.394 180.439, 230.289 182.128 C 229.077 183.100, 229.209 182.599, 230.742 180.411 C 231.933 178.712, 233.603 176.745, 234.453 176.039 C 235.304 175.333, 236 174.276, 236 173.690 C 236 173.105, 234.762 173.745, 233.250 175.113 C 231.738 176.481, 229.600 178.245, 228.500 179.033 C 226.512 180.457, 226.511 180.451, 228.433 177.983 C 229.496 176.617, 231.746 174.239, 233.433 172.699 C 236.629 169.779, 234.876 169.830, 230.250 172.790 C 229.012 173.582, 228 173.898, 228 173.493 C 228 173.087, 227.356 173.289, 226.570 173.942 C 225.423 174.894, 224.908 174.696, 223.970 172.944 C 223.327 171.742, 223.183 170.994, 223.650 171.282 C 224.118 171.570, 224.597 170.386, 224.715 168.653 L 224.930 165.500 222.949 168 L 220.967 170.500 221.414 167.766 C 221.660 166.263, 222.154 164.463, 222.511 163.766 C 222.869 163.070, 222 163.763, 220.581 165.306 C 217.622 168.523, 217.216 167.121, 219.513 161.622 C 221.189 157.612, 219.987 156.753, 217.557 160.223 L 216 162.445 214.443 160.223 C 211.966 156.685, 210.861 157.650, 213.081 161.412 M 157.079 162.583 C 157.127 163.748, 157.364 163.985, 157.683 163.188 C 157.972 162.466, 157.936 161.603, 157.604 161.271 C 157.272 160.939, 157.036 161.529, 157.079 162.583 M 164.543 161.931 C 164.226 162.443, 164.350 163.098, 164.817 163.387 C 165.284 163.676, 165.667 163.257, 165.667 162.456 C 165.667 160.770, 165.351 160.623, 164.543 161.931 M 269.459 171.067 C 269.096 171.653, 269.014 172.348, 269.276 172.610 C 269.538 172.872, 270.019 172.392, 270.345 171.543 C 271.021 169.781, 270.445 169.471, 269.459 171.067 M 236.905 176.750 C 235.090 178.813, 233.355 180.426, 233.052 180.336 C 232.748 180.246, 232.358 182.946, 232.184 186.336 C 232.011 189.726, 231.448 192.650, 230.934 192.833 C 230.420 193.017, 230 193.606, 230 194.142 C 230 194.679, 230.498 194.810, 231.107 194.434 C 231.851 193.974, 231.995 194.441, 231.546 195.855 C 231.179 197.012, 231.273 198.666, 231.756 199.529 C 232.489 200.838, 232.832 200.663, 233.830 198.474 C 234.487 197.031, 234.725 195.364, 234.358 194.771 C 233.991 194.177, 234.128 193.961, 234.662 194.291 C 235.196 194.621, 236.414 193.569, 237.369 191.953 C 239.546 188.268, 242.484 186.654, 245.593 187.434 C 247.890 188.010, 248 187.814, 248 183.154 C 248 177.742, 245.213 173, 242.031 173 C 241.028 173, 238.721 174.688, 236.905 176.750 M 226.564 175.707 C 226.022 177.132, 226.136 177.247, 227.124 176.267 C 227.808 175.588, 228.115 174.781, 227.807 174.474 C 227.499 174.166, 226.940 174.721, 226.564 175.707 M 200.079 196.583 C 200.127 197.748, 200.364 197.985, 200.683 197.188 C 200.972 196.466, 200.936 195.603, 200.604 195.271 C 200.272 194.939, 200.036 195.529, 200.079 196.583 M 187.003 198.645 C 187 199.845, 194.617 204.050, 195.391 203.276 C 195.636 203.031, 195.407 201.598, 194.882 200.091 C 194.081 197.794, 193.370 197.365, 190.467 197.426 C 188.563 197.467, 187.005 198.015, 187.003 198.645 M 237 197.728 C 237 200.548, 243.128 203.221, 244.500 201 C 244.840 200.450, 244.529 199.993, 243.809 199.985 C 242.858 199.974, 242.910 199.704, 244 199 C 245.244 198.196, 245.159 198.026, 243.500 198.002 C 242.400 197.986, 240.488 197.701, 239.250 197.370 C 238.012 197.038, 237 197.199, 237 197.728 M 200.079 201.583 C 200.127 202.748, 200.364 202.985, 200.683 202.188 C 200.972 201.466, 200.936 200.603, 200.604 200.271 C 200.272 199.939, 200.036 200.529, 200.079 201.583 M 236.354 202.520 C 235.535 204.655, 236.306 205.192, 238.842 204.254 C 240.963 203.470, 240.963 203.458, 238.965 202.210 C 237.288 201.163, 236.855 201.214, 236.354 202.520 M 219.405 230.250 L 217.500 232.500 219.750 230.595 C 220.988 229.547, 222 228.535, 222 228.345 C 222 227.545, 221.195 228.136, 219.405 230.250 M 358.880 237.476 C 351.819 239.258, 340.791 245.220, 335.849 249.928 C 325.969 259.338, 322.991 262.610, 318.038 269.500 C 310.918 279.406, 304.726 291.999, 301.811 302.504 C 299.249 311.739, 298.788 329.475, 300.962 335.168 C 306.184 348.840, 311.535 353.771, 323.010 355.482 C 332.410 356.884, 349.410 350.397, 358.151 342.072 C 368.038 332.656, 371.005 329.390, 375.932 322.500 C 379.079 318.100, 383.345 311.125, 385.413 307 C 387.480 302.875, 389.530 299.050, 389.967 298.500 C 390.405 297.950, 390.989 295.925, 391.266 294 C 391.542 292.075, 392.532 287.125, 393.466 283 C 395.261 275.071, 394.899 261.382, 392.754 256.066 C 389.836 248.833, 388.674 246.797, 385.612 243.550 C 379.585 237.160, 369.348 234.834, 358.880 237.476 M 57.500 237.681 C 49.057 239.577, 42.645 244.441, 39.730 251.161 C 36.542 258.508, 36.185 259.944, 35.523 268.066 C 35.006 274.418, 35.256 278.352, 36.534 284 C 37.468 288.125, 38.458 293.075, 38.734 295 C 39.011 296.925, 39.595 298.950, 40.033 299.500 C 40.470 300.050, 42.520 303.875, 44.587 308 C 46.655 312.125, 50.921 319.100, 54.068 323.500 C 58.995 330.390, 61.962 333.656, 71.849 343.072 C 80.590 351.397, 97.590 357.884, 106.990 356.482 C 118.465 354.771, 123.816 349.840, 129.038 336.168 C 131.212 330.475, 130.751 312.739, 128.189 303.504 C 125.274 292.999, 119.082 280.406, 111.962 270.500 C 107.009 263.610, 104.031 260.338, 94.151 250.928 C 84.785 242.007, 66.946 235.560, 57.500 237.681 M 207.506 248.934 C 208.294 249.723, 211.546 250.557, 214.732 250.787 C 219.345 251.121, 220.999 250.822, 222.855 249.319 C 225.177 247.439, 225.150 247.432, 215.629 247.466 C 207.330 247.495, 206.261 247.689, 207.506 248.934 M 206 318.960 C 187.642 321.334, 166.931 330.352, 159.468 339.220 C 152.053 348.032, 150.424 358.619, 154.922 368.760 C 159.806 379.772, 175.341 390.108, 194.500 395.092 C 202.200 397.096, 205.955 397.438, 220.500 397.459 C 239.826 397.487, 244.595 396.682, 260 390.791 C 269.848 387.025, 279.091 381.362, 283.262 376.538 C 286.065 373.296, 289.659 364.908, 290.402 359.873 C 291.154 354.782, 288.950 347.439, 284.931 341.642 C 278.794 332.792, 262.965 324.364, 245 320.384 C 237.062 318.625, 214.861 317.814, 206 318.960" stroke="none" fill="#E91E8C" fill-rule="evenodd"/>
</svg>