<?xml version="1.0" encoding="UTF-8"?>
<svg version="1.1" xmlns="http://www.w3.org/2000/svg" width="1062" height="252">
<path d="M0 0 C350.46 0 700.92 0 1062 0 C1062 83.16 1062 166.32 1062 252 C711.54 252 361.08 252 0 252 C0 168.84 0 85.68 0 0 Z " fill="#010104" transform="translate(0,0)"/>
<path d="M0 0 C2.47045803 3.81615468 2.43831912 7.84744248 2.625 12.25 C2.68300781 13.36761719 2.68300781 13.36761719 2.7421875 14.5078125 C2.83605108 16.3381524 2.91909718 18.16904143 3 20 C3.66 20 4.32 20 5 20 C5.17015625 19.38253906 5.3403125 18.76507813 5.515625 18.12890625 C7.22185424 12.1661796 9.33581117 6.59885369 12 1 C12.33 1 12.66 1 13 1 C13.20847621 5.89919095 12.67119944 10.04274659 11.4375 14.7890625 C10.95281473 17.23845414 10.93008565 19.50930115 11 22 C11.77085937 21.00097656 12.54171875 20.00195312 13.3359375 18.97265625 C14.34875974 17.66911651 15.36179145 16.3657395 16.375 15.0625 C17.13683594 14.0734668 17.13683594 14.0734668 17.9140625 13.06445312 C18.40390625 12.43603516 18.89375 11.80761719 19.3984375 11.16015625 C19.84880371 10.57886963 20.29916992 9.99758301 20.76318359 9.39868164 C22 8 22 8 24 7 C22.34998276 14.09507413 19.13106483 20.45233299 16 27 C16.95261719 26.24074219 17.90523438 25.48148438 18.88671875 24.69921875 C20.15352377 23.69515848 21.42045768 22.6912608 22.6875 21.6875 C23.31333984 21.18798828 23.93917969 20.68847656 24.58398438 20.17382812 C27.93834478 17.52195158 31.25793231 15.09641651 35 13 C33.602659 16.11288838 31.92976075 18.36895011 29.625 20.875 C26.71069613 24.04607074 24.33920415 27.3829927 22 31 C23.04800781 30.55527344 24.09601563 30.11054687 25.17578125 29.65234375 C26.55448063 29.0802304 27.93339839 28.50864309 29.3125 27.9375 C30.00279297 27.64294922 30.69308594 27.34839844 31.40429688 27.04492188 C36.66015625 24.88671875 36.66015625 24.88671875 40 26 C37.87657342 27.64789866 35.7513551 29.29338788 33.625 30.9375 C33.02171875 31.40607422 32.4184375 31.87464844 31.796875 32.35742188 C27.2265625 35.88671875 27.2265625 35.88671875 25 37 C32.26 36.34 39.52 35.68 47 35 C44.16443197 37.83556803 40.69624132 38.77445029 37 40.125 C36.26265625 40.40214844 35.5253125 40.67929688 34.765625 40.96484375 C29.27170567 43 29.27170567 43 27 43 C27 43.66 27 44.32 27 45 C28.10859375 45.04898438 29.2171875 45.09796875 30.359375 45.1484375 C31.82294065 45.22349215 33.28648112 45.29903881 34.75 45.375 C35.47960937 45.4059375 36.20921875 45.436875 36.9609375 45.46875 C41.00797144 45.68949731 43.29841994 46.14920997 47 48 C40.73 48.99 34.46 49.98 28 51 C34.27392437 53.90169002 40.49375138 56.66757125 47 59 C47 59.33 47 59.66 47 60 C39.98475852 59.44210432 32.99017804 58.81552077 26 58 C26 58.66 26 59.32 26 60 C26.71542969 60.24492187 27.43085938 60.48984375 28.16796875 60.7421875 C31.34583121 62.15359676 33.63646999 63.91281519 36.3125 66.125 C37.19550781 66.84945312 38.07851562 67.57390625 38.98828125 68.3203125 C39.65214844 68.87460938 40.31601563 69.42890625 41 70 C38 71 38 71 35.765625 70.109375 C34.93546875 69.66078125 34.1053125 69.2121875 33.25 68.75 C29.23498937 66.60361067 25.19649456 64.75715289 21 63 C21.77085937 63.96421875 22.54171875 64.9284375 23.3359375 65.921875 C24.34914623 67.19776748 25.36215669 68.47381742 26.375 69.75 C27.13683594 70.70132813 27.13683594 70.70132813 27.9140625 71.671875 C28.40390625 72.290625 28.89375 72.909375 29.3984375 73.546875 C29.84880371 74.11245117 30.29916992 74.67802734 30.76318359 75.26074219 C32.06853064 77.09637036 33.04423303 78.9636312 34 81 C30.5718511 79.46844274 27.89928575 77.43584825 25 75.0625 C22.03955451 72.64811229 19.07336972 70.26945588 16 68 C16.39832031 68.845625 16.79664063 69.69125 17.20703125 70.5625 C20.04591349 76.64088534 22.76686325 82.67277921 25 89 C24.34 89 23.68 89 23 89 C21.67138672 87.43945313 21.67138672 87.43945313 20.1796875 85.28125 C19.64472656 84.51425781 19.10976562 83.74726563 18.55859375 82.95703125 C17.72521484 81.74080078 17.72521484 81.74080078 16.875 80.5 C16.31167969 79.68917969 15.74835938 78.87835938 15.16796875 78.04296875 C13.77261256 76.03270983 12.38365151 74.01832507 11 72 C11.62796555 79.00417264 12.28673863 86.00396829 13 93 C9.63142467 91.31571234 9.14010407 87.44793287 7.9375 84.0625 C6.16171793 78.95027185 6.16171793 78.95027185 4 74 C2.515 84.395 2.515 84.395 1 95 C-1.0140956 91.9788566 -1.26836596 91.19339983 -1.4140625 87.76953125 C-1.47207031 86.56586914 -1.47207031 86.56586914 -1.53125 85.33789062 C-1.57765625 84.08782227 -1.57765625 84.08782227 -1.625 82.8125 C-1.68300781 81.5450293 -1.68300781 81.5450293 -1.7421875 80.25195312 C-1.83636279 78.16832476 -1.91926675 76.08419247 -2 74 C-2.66 74 -3.32 74 -4 74 C-4.17015625 74.53367187 -4.3403125 75.06734375 -4.515625 75.6171875 C-6.43463324 81.5171171 -8.64054239 87.26304469 -11 93 C-11.33 93 -11.66 93 -12 93 C-11.03644647 79.3667426 -11.03644647 79.3667426 -10 73 C-14.02949298 76.80362454 -17.02278961 81.11737011 -20.1953125 85.63671875 C-22 88 -22 88 -24 89 C-22.34998276 81.90492587 -19.13106483 75.54766701 -16 69 C-16.79664062 69.60328125 -17.59328125 70.2065625 -18.4140625 70.828125 C-19.48430911 71.63550402 -20.55462535 72.44279075 -21.625 73.25 C-23.19121094 74.43335938 -23.19121094 74.43335938 -24.7890625 75.640625 C-27.80951894 77.86003581 -30.86543917 79.94794516 -34 82 C-32.25477062 77.94785821 -29.5771843 74.69396039 -26.875 71.25 C-26.40707031 70.64800781 -25.93914062 70.04601562 -25.45703125 69.42578125 C-24.30774993 67.94813384 -23.15428765 66.47373995 -22 65 C-27.06068415 66.36887358 -31.8520306 67.78931032 -36.5 70.25 C-37.655 70.8275 -38.81 71.405 -40 72 C-40.66 71.67 -41.32 71.34 -42 71 C-36.72 67.04 -31.44 63.08 -26 59 C-33.8898086 58.94737386 -33.8898086 58.94737386 -41.625 59.5 C-42.46289062 59.5928125 -43.30078125 59.685625 -44.1640625 59.78125 C-45.07285156 59.88953125 -45.07285156 59.88953125 -46 60 C-42.71414149 57.24020259 -39.37771204 55.81690532 -35.375 54.3125 C-34.22773437 53.87550781 -33.08046875 53.43851563 -31.8984375 52.98828125 C-29 52 -29 52 -27 52 C-27 51.34 -27 50.68 -27 50 C-28.2375 50.04125 -29.475 50.0825 -30.75 50.125 C-36.61618748 50.14371192 -42.25262878 49.08918033 -48 48 C-48 47.67 -48 47.34 -48 47 C-45.81347261 46.66034526 -43.62571975 46.32857523 -41.4375 46 C-40.21933594 45.814375 -39.00117187 45.62875 -37.74609375 45.4375 C-34.12372152 45.01444923 -30.64287954 44.92498575 -27 45 C-27 44.34 -27 43.68 -27 43 C-27.52335937 42.88527344 -28.04671875 42.77054688 -28.5859375 42.65234375 C-31.6822028 41.8156507 -34.62742768 40.70266013 -37.625 39.5625 C-38.77226563 39.13066406 -39.91953125 38.69882813 -41.1015625 38.25390625 C-44 37 -44 37 -46 35 C-44.90300781 35.144375 -43.80601563 35.28875 -42.67578125 35.4375 C-41.22137548 35.62516526 -39.76694719 35.81265606 -38.3125 36 C-37.59126953 36.09539062 -36.87003906 36.19078125 -36.12695312 36.2890625 C-32.39007129 36.76683735 -28.77708469 37.11919794 -25 37 C-25.89203125 36.32453125 -26.7840625 35.6490625 -27.703125 34.953125 C-28.88553624 34.05224025 -30.06782124 33.1511898 -31.25 32.25 C-31.83652344 31.8065625 -32.42304687 31.363125 -33.02734375 30.90625 C-36.24377849 28.4487493 -39.21242594 25.95317252 -42 23 C-37.42111848 24.45115322 -33.02350565 26.20581904 -28.625 28.125 C-27.98433594 28.40214844 -27.34367187 28.67929688 -26.68359375 28.96484375 C-25.12143075 29.64100385 -23.56057685 30.32018707 -22 31 C-23.67229701 27.04030824 -26.36304994 23.9838799 -29.125 20.75 C-29.59292969 20.19570312 -30.06085938 19.64140625 -30.54296875 19.0703125 C-31.69175328 17.71052674 -32.84539653 16.35484835 -34 15 C-33.67 14.34 -33.34 13.68 -33 13 C-32.19175781 13.68707031 -31.38351563 14.37414062 -30.55078125 15.08203125 C-29.4715104 15.99237275 -28.39207453 16.90251865 -27.3125 17.8125 C-26.78205078 18.26431641 -26.25160156 18.71613281 -25.70507812 19.18164062 C-22.61476694 21.77901874 -19.52501051 24.03148764 -16 26 C-19.17074108 18.0811277 -19.17074108 18.0811277 -22.8125 10.375 C-24 8 -24 8 -24 6 C-23.34 6 -22.68 6 -22 6 C-21.07230538 7.34000334 -20.15458365 8.68788448 -19.28515625 10.06640625 C-16.75200634 13.87768043 -13.83036707 17.40761103 -11 21 C-11.33 14.4 -11.66 7.8 -12 1 C-10.05591278 3.91613083 -8.78533613 6.64824006 -7.4375 9.875 C-7.00308594 10.90367188 -6.56867188 11.93234375 -6.12109375 12.9921875 C-5.11951113 15.67936037 -4.46350315 18.1773179 -4 21 C-3.34 21 -2.68 21 -2 21 C-1.93941406 19.73542969 -1.87882812 18.47085938 -1.81640625 17.16796875 C-1.73199096 15.50780129 -1.64734345 13.84764563 -1.5625 12.1875 C-1.52318359 11.35412109 -1.48386719 10.52074219 -1.44335938 9.66210938 C-1.38051758 8.45844727 -1.38051758 8.45844727 -1.31640625 7.23046875 C-1.27974854 6.49207764 -1.24309082 5.75368652 -1.20532227 4.99291992 C-1 3 -1 3 0 0 Z " fill="#BC8D24" transform="translate(119,77)"/>
<path d="M0 0 C7.4406481 7.4406481 8.61917574 13.23631064 8.875 23.625 C8.66053958 33.62957854 6.13928279 38.91588839 -0.7734375 46.22265625 C-11.17312765 55.35669496 -22.31051561 55.73179024 -35.4375 55.625 C-36.49839844 55.62048828 -37.55929687 55.61597656 -38.65234375 55.61132812 C-41.24745598 55.59963843 -43.84244709 55.58325276 -46.4375 55.5625 C-46.62505859 57.52896484 -46.62505859 57.52896484 -46.81640625 59.53515625 C-47.32876473 64.13197532 -48.23140005 68.52338012 -49.375 73 C-49.62926758 74.05864258 -49.62926758 74.05864258 -49.88867188 75.13867188 C-51.18857621 80.31357621 -51.18857621 80.31357621 -53.4375 82.5625 C-56.12589385 82.83241906 -58.72891936 82.64987357 -61.4375 82.5625 C-63.17056994 79.59446682 -63.65802527 77.81062375 -63.17578125 74.41210938 C-63.06572754 73.62280029 -62.95567383 72.83349121 -62.84228516 72.02026367 C-62.17792514 67.9864203 -61.4343088 63.97598247 -60.625 59.96875 C-60.45121826 59.0960144 -60.27743652 58.22327881 -60.09838867 57.32409668 C-59.73382233 55.49856385 -59.36734524 53.67341164 -58.99902344 51.84863281 C-58.4336593 49.04344344 -57.87662769 46.23668384 -57.3203125 43.4296875 C-56.9640356 41.65094266 -56.6072822 39.87229318 -56.25 38.09375 C-56.08330811 37.2521936 -55.91661621 36.41063721 -55.74487305 35.5435791 C-54.55248548 29.67748548 -54.55248548 29.67748548 -53.4375 28.5625 C-52.58161385 24.48058143 -51.78727329 20.38918117 -51.00292969 16.29296875 C-50.51244512 13.75563514 -50.00696187 11.22158821 -49.5 8.6875 C-49.34233154 7.85492676 -49.18466309 7.02235352 -49.0222168 6.16455078 C-47.44390969 -1.63442236 -47.44390969 -1.63442236 -44.4375 -4.4375 C-32.16650494 -10.15497462 -10.52519798 -8.17189819 0 0 Z " fill="#C6C6C8" transform="translate(346.4375,100.4375)"/>
<path d="M0 0 C1.37140137 0.00737183 1.37140137 0.00737183 2.77050781 0.01489258 C13.82797264 0.20530283 23.39268781 2.11595854 32.6875 8.3125 C33.615625 8.910625 34.54375 9.50875 35.5 10.125 C39.50589423 14.13089423 41.88409712 18.72153162 42.125 24.4375 C41.34702744 31.3281141 38.47280599 35.29158984 33.2578125 39.640625 C28.17138739 42.94912036 22.46683689 44.60010388 16.6875 46.3125 C15.90375 46.56 15.12 46.8075 14.3125 47.0625 C0.56219029 50.81258447 -15.18763533 48.2754311 -28 42.375 C-33.47598447 38.96542476 -38.39555073 34.14639853 -41.3125 28.3125 C-41.74739641 21.78905385 -41.09142451 17.8593894 -36.94140625 12.5625 C-27.49758296 2.05426497 -13.46968104 -0.08640833 0 0 Z " fill="#037135" transform="translate(119.3125,191.6875)"/>
<path d="M0 0 C14.18540835 -0.4445019 27.40488337 2.1203426 39.2421875 10.09765625 C43.45498763 14.18655049 45.6100394 17.29361168 45.7421875 23.22265625 C45.39372545 30.29749172 43.26600808 33.59548503 38.31640625 38.51171875 C26.18806955 48.76854858 8.82289897 48.81253806 -6.1953125 47.91015625 C-16.09695687 46.87012742 -26.52160934 42.90720286 -33.265625 35.32421875 C-37.02861525 30.22805482 -38.05847144 26.4386256 -37.6328125 20.16015625 C-35.36714294 13.36314756 -29.83085024 9.51660511 -24.2578125 5.41015625 C-16.45377809 1.69394939 -8.5276128 0.51874202 0 0 Z " fill="#AC1731" transform="translate(115.6328125,9.83984375)"/>
<path d="M0 0 C1.093125 0.639375 2.18625 1.27875 3.3125 1.9375 C6.04768288 4.03659384 6.90424879 4.82722785 8 8 C7.828125 10.99609375 7.828125 10.99609375 7.25 14.4375 C7.05148437 15.67757812 6.85296875 16.91765625 6.6484375 18.1953125 C6.43445313 19.45085937 6.22046875 20.70640625 6 22 C4.75346982 29.42931984 3.7442843 36.45638679 4 44 C5.95236766 43.73125295 5.95236766 43.73125295 8 43 C9.78379415 40.01647106 9.78379415 40.01647106 11 37 C11.66 37 12.32 37 13 37 C13.33 35.35 13.66 33.7 14 32 C17 33 17 33 19 36 C19.75494951 40.60870339 19.43664672 44.14287866 17.3125 48.3125 C13.81227718 52.38032652 10.2919547 55.67701133 5 57 C0.69370084 57.06958114 -2.81074054 56.79283964 -6.4375 54.375 C-8.40867252 51.37881777 -9.19759578 48.47708494 -10 45 C-10.61875 46.051875 -11.2375 47.10375 -11.875 48.1875 C-15.91042649 53.74892811 -21.29862436 56.36382606 -28 57.515625 C-34.37179095 57.87322551 -39.0086605 56.90416964 -44.0859375 52.953125 C-49.16662457 47.76875044 -51.26823998 42.21237178 -51.5 35 C-50.91297669 22.62491392 -46.02494745 13.33082065 -37.1875 4.828125 C-27.1913055 -3.52583755 -11.67652018 -6.95622479 0 0 Z " fill="#C5C5C7" transform="translate(923,127)"/>
<path d="M0 0 C3.5 0.4375 3.5 0.4375 5.13208008 1.52441406 C7.16026534 4.36090518 7.36730072 7.05211251 7.88671875 10.484375 C7.99345413 11.17380188 8.10018951 11.86322876 8.2101593 12.57354736 C8.43345193 14.03187487 8.65077796 15.49112673 8.86254883 16.95117188 C9.18461228 19.16762658 9.5251849 21.38059833 9.86914062 23.59375 C10.82681606 29.91775093 11.63093979 36.02196806 11.5 42.4375 C12.16 42.4375 12.82 42.4375 13.5 42.4375 C13.83 41.24125 14.16 40.045 14.5 38.8125 C16.58917002 32.57414114 19.95070076 27.08434941 23.30273438 21.46289062 C24.6031539 19.26299659 25.87333856 17.04725977 27.140625 14.828125 C28.03095217 13.28107856 28.92157272 11.73420092 29.8125 10.1875 C30.23281494 9.44822266 30.65312988 8.70894531 31.08618164 7.94726562 C31.48699951 7.25826172 31.88781738 6.56925781 32.30078125 5.859375 C32.65309814 5.24674805 33.00541504 4.63412109 33.3684082 4.00292969 C34.5 2.4375 34.5 2.4375 37.5 0.4375 C40.4375 0.0625 40.4375 0.0625 43.5 0.4375 C46.19796178 2.53656879 47.34891936 3.86629586 48.22949219 7.19555664 C48.33422852 8.23574951 48.43896484 9.27594238 48.546875 10.34765625 C48.73056641 12.08112305 48.73056641 12.08112305 48.91796875 13.84960938 C49.02753906 15.05423828 49.13710938 16.25886719 49.25 17.5 C49.37503906 18.67755859 49.50007812 19.85511719 49.62890625 21.06835938 C50.34852954 28.21319059 50.6646319 35.25863442 50.5 42.4375 C51.16 42.4375 51.82 42.4375 52.5 42.4375 C52.70625 41.468125 52.9125 40.49875 53.125 39.5 C54.26874072 35.54391051 56.23761213 32.64974773 58.5859375 29.30078125 C61.56598241 24.84287733 64.21113002 20.19278074 66.89648438 15.55322266 C74.4561161 2.54480424 74.4561161 2.54480424 77.5 0.4375 C80.64924548 0.04384432 82.61909116 -0.09104531 85.375 1.5625 C86.9682099 4.21784983 86.70214032 6.40539518 86.5 9.4375 C85.84 9.4375 85.18 9.4375 84.5 9.4375 C84.314375 10.22125 84.12875 11.005 83.9375 11.8125 C82.64380072 15.0748721 81.3513669 17.2060478 79.31640625 20.01171875 C75.64834219 25.1698897 72.29777779 30.47496978 69 35.875 C67.86608415 37.71366424 66.7319714 39.55220707 65.59765625 41.390625 C63.8016433 44.31056651 62.01552166 47.2357641 60.24609375 50.171875 C59.35083984 51.63367188 59.35083984 51.63367188 58.4375 53.125 C57.95152344 53.93324219 57.46554687 54.74148437 56.96484375 55.57421875 C54.57776554 58.61058223 52.32770475 59.33183556 48.5625 59.8125 C44.53391657 59.31920407 43.27583358 58.41480537 40.5 55.4375 C39.43557546 52.17829532 39.06209517 48.89945868 38.6875 45.5 C38.56914795 44.56518799 38.4507959 43.63037598 38.32885742 42.66723633 C37.48435223 35.56518649 37.14177806 28.58867134 37.5 21.4375 C36.84 21.4375 36.18 21.4375 35.5 21.4375 C35.39727783 21.97648926 35.29455566 22.51547852 35.1887207 23.07080078 C34.31812461 26.06249114 32.96038072 28.56194877 31.48046875 31.3046875 C30.87009766 32.43777344 30.25972656 33.57085937 29.63085938 34.73828125 C29.31141357 35.32561035 28.99196777 35.91293945 28.6628418 36.51806641 C27.69602162 38.29682193 26.73713937 40.07967848 25.77929688 41.86328125 C17.91834573 56.3973798 17.91834573 56.3973798 14.625 58.8125 C11.75162821 59.65760935 9.48119318 59.74804096 6.5 59.4375 C4.06186248 57.99484056 2.75547059 57.06540155 1.67730713 54.41546631 C1.52630554 53.64382141 1.37530396 52.87217651 1.21972656 52.07714844 C1.03984192 51.19903503 0.85995728 50.32092163 0.67462158 49.41619873 C0.41029327 47.99588348 0.41029327 47.99588348 0.140625 46.546875 C-0.05347961 45.56889954 -0.24758423 44.59092407 -0.4475708 43.58331299 C-0.85506762 41.51358537 -1.25467375 39.44229088 -1.64697266 37.36962891 C-2.2457071 34.21015329 -2.86866739 31.05623321 -3.49609375 27.90234375 C-3.88946165 25.88830171 -4.28143423 23.87398654 -4.671875 21.859375 C-4.8561908 20.92059509 -5.04050659 19.98181519 -5.23040771 19.0145874 C-7.52594812 6.79114569 -7.52594812 6.79114569 -5.4375 2 C-3.5 0.4375 -3.5 0.4375 0 0 Z " fill="#C6C6C8" transform="translate(627.5,124.5625)"/>
<path d="M0 0 C3.9095034 2.6407589 6.45935423 5.37394956 7.8125 9.9375 C8.62457335 14.33563176 8.69559763 18.08750716 6.7421875 22.1796875 C1.22745589 30.16550104 -6.32622354 33.51632981 -15.625 35.25 C-16.41970703 35.41822266 -17.21441406 35.58644531 -18.03320312 35.75976562 C-23.49931418 36.84942975 -28.61762892 37.08803706 -34.1875 36.9375 C-33.40198343 38.25368998 -32.6088763 39.56535228 -31.8125 40.875 C-31.37164062 41.60589844 -30.93078125 42.33679688 -30.4765625 43.08984375 C-29.3101016 45.07522272 -29.3101016 45.07522272 -27.1875 45.9375 C-18.87092547 46.91309817 -12.52914159 44.6083208 -5.1875 40.9375 C-2.1875 40.75 -2.1875 40.75 0.8125 40.9375 C2.8125 42.9375 2.8125 42.9375 3.3125 45.25 C2.70355839 48.52306116 1.40295673 49.72634772 -1.23828125 51.671875 C-10.45137048 57.65392091 -19.08006554 60.17848062 -30.125 58.25 C-38.00783327 54.87164288 -43.85642677 49.90594969 -47.1875 41.9375 C-48.85724366 30.12829847 -47.03645278 20.77883893 -40.1875 10.9375 C-36.66943278 6.94948688 -33.51142358 3.94090023 -28.1875 2.9375 C-28.1875 2.2775 -28.1875 1.6175 -28.1875 0.9375 C-19.64389962 -3.24712059 -8.70407082 -4.36644612 0 0 Z " fill="#C3C3C5" transform="translate(404.1875,126.0625)"/>
<path d="M0 0 C2.31 0 4.62 0 7 0 C7 0.66 7 1.32 7 2 C7.66 2 8.32 2 9 2 C9.96102909 7.09166847 9.88210529 10.94696585 8.75 15.9921875 C8.4715625 17.27351563 8.193125 18.55484375 7.90625 19.875 C7.60496493 21.20851394 7.30287197 22.54184559 7 23.875 C6.40930602 26.51671475 5.82815521 29.16016272 5.25 31.8046875 C4.98703125 32.96983887 4.7240625 34.13499023 4.453125 35.33544922 C4.30359375 36.21475098 4.1540625 37.09405273 4 38 C4.495 38.495 4.495 38.495 5 39 C5.78375 38.01 6.5675 37.02 7.375 36 C8.24125 35.01 9.1075 34.02 10 33 C10.66 33 11.32 33 12 33 C12 32.34 12 31.68 12 31 C17.40865194 28.23813518 21.92135278 27.05118886 28 28 C32.56258127 29.54731017 36.77102721 31.54205443 39 36 C41.28514807 47.68877898 39.80800903 58.52049943 37.75 70.125 C37.54552246 71.32342529 37.34104492 72.52185059 37.13037109 73.7565918 C36.91719238 74.89136963 36.70401367 76.02614746 36.484375 77.1953125 C36.29584961 78.21641113 36.10732422 79.23750977 35.91308594 80.28955078 C34.83750775 83.48234998 33.64255552 84.93478409 31 87 C25.07660333 87.72743468 25.07660333 87.72743468 22.265625 85.828125 C20.44232454 83.19446878 20.90789871 81.43896448 21.3125 78.3125 C21.43238281 77.31863281 21.55226563 76.32476562 21.67578125 75.30078125 C21.78277344 74.54152344 21.88976562 73.78226562 22 73 C22.66 73 23.32 73 24 73 C23.95875 71.865625 23.9175 70.73125 23.875 69.5625 C23.86415906 66.46199017 24.21263984 63.80668651 25 60.8125 C26.4652967 54.9306752 26.16750029 49.02070502 26 43 C20.85935396 41.61943349 16.7417466 41.09429177 11.875 43.625 C2.50823295 51.36276408 -0.49725279 59.66522854 -2.5625 71.1875 C-2.94981936 73.32862185 -3.34659135 75.46806059 -3.75390625 77.60546875 C-3.92220947 78.54543701 -4.0905127 79.48540527 -4.26391602 80.45385742 C-5.06600784 83.22832362 -6.05947768 84.87584848 -8 87 C-10.83568858 87.66259654 -13.04239226 87.28167693 -16 87 C-18 85 -18 85 -18.20333862 81.84051514 C-17.99836522 77.96912341 -17.47277959 74.35889303 -16.74658203 70.55175781 C-16.54657593 69.48943687 -16.54657593 69.48943687 -16.3425293 68.40565491 C-15.90410841 66.0868575 -15.45632831 63.76998923 -15.0078125 61.453125 C-14.69835352 59.83370855 -14.38926711 58.21422087 -14.08053589 56.59466553 C-13.4340592 53.21153369 -12.78289552 49.82934675 -12.12841797 46.44775391 C-11.28985224 42.11281796 -10.46336871 37.77568046 -9.64038277 33.43776321 C-9.00534268 30.09799337 -8.36380629 26.759497 -7.72030258 23.42134857 C-7.41286188 21.82214164 -7.10748286 20.22253694 -6.80420303 18.62253571 C-6.38015685 16.39057341 -5.94736243 14.1604832 -5.51220703 11.93066406 C-5.14580612 10.02707123 -5.14580612 10.02707123 -4.77200317 8.08502197 C-4 5 -4 5 -2 2 C-1.34 2 -0.68 2 0 2 C0 1.34 0 0.68 0 0 Z " fill="#C6C6C8" transform="translate(822,96)"/>
<path d="M0 0 C1.7015625 0.2165625 1.7015625 0.2165625 3.4375 0.4375 C8.07261349 7.39017024 4.46959055 19.83650825 2.93212891 27.70922852 C2.13228483 31.62608107 1.2975222 35.5333992 0.4375 39.4375 C-0.2225 39.4375 -0.8825 39.4375 -1.5625 39.4375 C-1.5625 43.7275 -1.5625 48.0175 -1.5625 52.4375 C-0.64210938 51.69886719 0.27828125 50.96023437 1.2265625 50.19921875 C3.18322187 48.62915004 5.1419154 47.06186813 7.10571289 45.50073242 C10.52696052 42.78009247 13.9249572 40.04112208 17.26953125 37.2265625 C17.87651855 36.72552002 18.48350586 36.22447754 19.10888672 35.70825195 C20.25552157 34.7614936 21.39202368 33.80227687 22.51611328 32.82885742 C26.83797929 29.30312462 30.00366557 28.54606241 35.4375 28.4375 C37.4375 30.4375 37.4375 30.4375 37.875 33.25 C36.95004936 39.98892611 28.64651268 44.66291801 23.625 48.75 C22.83673828 49.39517578 22.04847656 50.04035156 21.23632812 50.70507812 C19.30534327 52.28497483 17.37237133 53.8623674 15.4375 55.4375 C16.16512611 59.34160461 17.25709458 62.71272725 18.8125 66.375 C19.25722656 67.42945313 19.70195313 68.48390625 20.16015625 69.5703125 C21.44248792 72.5534262 21.44248792 72.5534262 23.25 75.75 C24.78383073 79.22130113 24.93293844 81.68632326 24.4375 85.4375 C22.39944014 87.77749465 20.99840973 88.30805929 18 89 C14.19495316 88.16474582 12.52169028 85.53798587 10.4375 82.4375 C9.11730444 79.75536225 8.10441596 77.00945839 7.125 74.1875 C6.72958008 73.10855469 6.72958008 73.10855469 6.32617188 72.0078125 C4.4375 66.76858766 4.4375 66.76858766 4.4375 64.4375 C3.65375 64.9325 2.87 65.4275 2.0625 65.9375 C-0.5625 67.4375 -0.5625 67.4375 -2.5625 67.4375 C-2.5625 68.0975 -2.5625 68.7575 -2.5625 69.4375 C-3.36429687 69.63472656 -4.16609375 69.83195312 -4.9921875 70.03515625 C-5.84039062 70.49792969 -6.68859375 70.96070313 -7.5625 71.4375 C-8.49669038 74.42984732 -8.49669038 74.42984732 -8.6875 77.875 C-9.24680401 83.9795986 -9.24680401 83.9795986 -10.86328125 86.32421875 C-14.06193609 88.41988916 -16.82952647 87.79302129 -20.5625 87.4375 C-23.03738091 83.72517863 -22.60465649 82.7447633 -21.90625 78.4375 C-21.70515625 77.18453125 -21.5040625 75.9315625 -21.296875 74.640625 C-21.05464277 73.23913855 -20.80974168 71.83811139 -20.5625 70.4375 C-20.43359375 69.70337891 -20.3046875 68.96925781 -20.171875 68.21289062 C-19.32489768 63.4364272 -18.43777693 58.66823093 -17.53076172 53.90283203 C-17.05805084 51.41407581 -16.59325434 48.92392228 -16.12890625 46.43359375 C-15.82599277 44.83063991 -15.52262405 43.22777202 -15.21875 41.625 C-15.08223022 40.89055664 -14.94571045 40.15611328 -14.80505371 39.39941406 C-14.01283956 35.27559888 -12.92271017 31.40486521 -11.5625 27.4375 C-11.13706156 25.61893371 -10.74239944 23.79289108 -10.37890625 21.9609375 C-10.17330078 20.960625 -9.96769531 19.9603125 -9.75585938 18.9296875 C-9.33391992 16.84481018 -8.91728469 14.75885262 -8.50585938 12.671875 C-8.29896484 11.67414063 -8.09207031 10.67640625 -7.87890625 9.6484375 C-7.60735718 8.29177979 -7.60735718 8.29177979 -7.33032227 6.90771484 C-5.92261795 2.37889059 -4.80736088 0.59037765 0 0 Z " fill="#C6C6C8" transform="translate(509.5625,95.5625)"/>
<path d="M0 0 C3.21057428 2.11133799 4.93482574 4.32393248 6.5625 7.8125 C6.91930484 10.4855629 7.08537583 12.82864452 7.0625 15.5 C7.05895508 16.25949951 7.05541016 17.01899902 7.05175781 17.80151367 C6.85041999 25.18754793 5.65939269 32.37129528 4.3125 39.625 C4.10818359 40.75188232 3.90386719 41.87876465 3.69335938 43.03979492 C1.67130939 53.1416451 1.67130939 53.1416451 -2.4375 56.8125 C-5.4375 57.8125 -5.4375 57.8125 -8.4375 57.8125 C-10.62890625 56.62890625 -10.62890625 56.62890625 -12.4375 54.8125 C-12.71484375 52.52734375 -12.71484375 52.52734375 -12.375 49.75 C-12.189375 48.15671875 -12.189375 48.15671875 -12 46.53125 C-11.35376863 42.25894264 -10.618173 38.00627376 -9.875 33.75 C-7.93873241 23.80886239 -7.93873241 23.80886239 -8.4375 13.8125 C-11.55976193 11.73099205 -13.51741343 11.1998551 -17.25390625 11.31640625 C-23.32599569 12.69593283 -27.33594301 18.29147036 -30.515625 23.30078125 C-33.86315629 29.01541291 -35.00112094 34.64817551 -36.0625 41.125 C-38.24808475 54.11972671 -38.24808475 54.11972671 -42.4375 57.8125 C-45.5 58.3125 -45.5 58.3125 -48.4375 57.8125 C-50.44257804 56.27531514 -51.32838352 55.40998273 -51.78704834 52.89849854 C-51.62230908 47.12149994 -50.90444155 41.59732621 -49.828125 35.921875 C-49.66004333 35.01423401 -49.49196167 34.10659302 -49.31878662 33.17144775 C-48.96321067 31.2681188 -48.6033081 29.36559345 -48.23925781 27.46386719 C-47.68693028 24.5595042 -47.15933977 21.65132423 -46.6328125 18.7421875 C-46.28274605 16.88513403 -45.93123344 15.02835246 -45.578125 13.171875 C-45.42377991 12.30721619 -45.26943481 11.44255737 -45.1104126 10.55169678 C-44.15891939 5.72206257 -43.17920806 2.2853219 -39.4375 -1.1875 C-35.8125 -1.625 -35.8125 -1.625 -32.4375 -1.1875 C-30.4375 0.8125 -30.4375 0.8125 -30.2421875 3.4140625 C-30.26539063 4.41179687 -30.28859375 5.40953125 -30.3125 6.4375 C-30.33054687 7.44039062 -30.34859375 8.44328125 -30.3671875 9.4765625 C-30.39039063 10.24742187 -30.41359375 11.01828125 -30.4375 11.8125 C-29.921875 10.94625 -29.40625 10.08 -28.875 9.1875 C-22.40642661 -0.49242188 -10.94103989 -6.4192817 0 0 Z " fill="#C4C4C7" transform="translate(1028.4375,126.1875)"/>
<path d="M0 0 C0.89102417 -0.00622879 1.78204834 -0.01245758 2.70007324 -0.01887512 C4.13921082 -0.0050605 4.13921082 -0.0050605 5.60742188 0.0090332 C6.59488403 0.0085347 7.58234619 0.00803619 8.59973145 0.00752258 C10.68776461 0.00986338 12.77580057 0.01959222 14.86376953 0.03613281 C18.06373266 0.05972275 21.26286267 0.05669402 24.46289062 0.05004883 C26.49023935 0.05562562 28.51758457 0.0627355 30.54492188 0.0715332 C31.98405945 0.07016609 31.98405945 0.07016609 33.45227051 0.06877136 C34.34329468 0.07830338 35.23431885 0.08783539 36.15234375 0.09765625 C36.93605347 0.10226364 37.71976318 0.10687103 38.52722168 0.11161804 C40.57617188 0.37231445 40.57617188 0.37231445 43.57617188 2.37231445 C43.72002475 6.33725943 43.71916319 9.95375263 41.15039062 13.1418457 C39.82050449 14.27348794 38.45878134 15.36823001 37.07617188 16.43481445 C34.14330406 18.70778701 31.46612361 21.21134801 28.76367188 23.74731445 C24.03479677 28.12382439 19.15200782 32.25424072 14.12695312 36.2902832 C11.03606923 38.81316393 8.07512059 41.4616359 5.13476562 44.1574707 C3.57617188 45.37231445 3.57617188 45.37231445 1.57617188 45.37231445 C1.57617188 46.03231445 1.57617188 46.69231445 1.57617188 47.37231445 C2.53507324 47.36184082 3.49397461 47.35136719 4.48193359 47.34057617 C8.03397906 47.30442117 11.58600822 47.28143052 15.13818359 47.26245117 C16.67662286 47.25238328 18.21504295 47.23872799 19.75341797 47.22143555 C21.9626132 47.19722129 24.17155582 47.18583954 26.38085938 47.17700195 C27.07049774 47.16667938 27.76013611 47.15635681 28.47067261 47.14572144 C30.17418094 47.14531967 31.8770313 47.2504042 33.57617188 47.37231445 C34.23617187 48.03231445 34.89617187 48.69231445 35.57617188 49.37231445 C35.11463341 55.83385291 35.11463341 55.83385291 32.57617188 58.37231445 C30.45092773 58.61955261 30.45092773 58.61955261 27.79101562 58.61523438 C26.2993689 58.61984932 26.2993689 58.61984932 24.77758789 58.6245575 C23.70049561 58.61737198 22.62340332 58.61018646 21.51367188 58.6027832 C20.41144287 58.60232498 19.30921387 58.60186676 18.17358398 58.60139465 C15.83999558 58.59836968 13.50640924 58.59047611 11.17285156 58.578125 C7.59107345 58.55989032 4.00955401 58.55761512 0.42773438 58.55786133 C-1.8352887 58.55294546 -4.09831002 58.54711684 -6.36132812 58.5402832 C-7.43842041 58.53917038 -8.5155127 58.53805756 -9.62524414 58.53691101 C-10.61967529 58.53053116 -11.61410645 58.52415131 -12.63867188 58.51757812 C-13.51644287 58.51376633 -14.39421387 58.50995453 -15.29858398 58.50602722 C-17.42382812 58.37231445 -17.42382812 58.37231445 -19.42382812 57.37231445 C-20.14183367 50.43159423 -20.14183367 50.43159423 -18.15820312 47.50512695 C-16.64259518 45.96744704 -15.20640893 44.59148889 -13.42382812 43.37231445 C-12.76382812 43.37231445 -12.10382813 43.37231445 -11.42382812 43.37231445 C-11.42382812 42.71231445 -11.42382812 42.05231445 -11.42382812 41.37231445 C-9.91231266 40.02134072 -8.335695 38.743041 -6.73632812 37.49731445 C-1.68382872 33.46052369 3.0926866 29.22321618 7.80737305 24.79858398 C11.9785753 20.89020274 16.25717139 17.11650628 20.57617188 13.37231445 C19.83455811 13.35249512 19.09294434 13.33267578 18.32885742 13.31225586 C14.97343353 13.21708517 11.61863901 13.10737352 8.26367188 12.99731445 C7.09642578 12.96637695 5.92917969 12.93543945 4.7265625 12.90356445 C3.60830078 12.86489258 2.49003906 12.8262207 1.33789062 12.78637695 C0.30623779 12.75495605 -0.72541504 12.72353516 -1.78833008 12.69116211 C-4.42382812 12.37231445 -4.42382812 12.37231445 -7.42382812 10.37231445 C-8.08862682 4.27832639 -8.08862682 4.27832639 -6.17687988 1.67292786 C-3.96322486 0.0305865 -2.73973378 -0.00220038 0 0 Z " fill="#C6C6C9" transform="translate(437.423828125,124.627685546875)"/>
<path d="M0 0 C0.99 0.66 1.98 1.32 3 2 C3.6209372 9.83157042 1.99721484 17.10302941 0.421875 24.74023438 C-1.85789842 35.01004445 -1.85789842 35.01004445 0 45 C4.42895975 45.57177144 8.3467017 45.96675918 12.3046875 43.65234375 C18.97411951 37.92669929 22.39567797 31.85030893 24.5 23.4375 C24.92193792 21.84342149 25.34512609 20.24967341 25.76953125 18.65625 C26.07818115 17.480625 26.07818115 17.480625 26.39306641 16.28125 C27.2707582 12.98231511 28.21384345 9.70956513 29.1875 6.4375 C29.49042969 5.40496094 29.79335938 4.37242187 30.10546875 3.30859375 C31 1 31 1 33 0 C39.21403509 -0.56491228 39.21403509 -0.56491228 42 1.4375 C43.55290447 5.4168177 42.73189793 8.91448019 42 13 C41.88817383 13.64775391 41.77634766 14.29550781 41.66113281 14.96289062 C39.27574642 28.72425358 39.27574642 28.72425358 38 30 C37.72792129 31.42455427 37.50974127 32.85951518 37.31640625 34.296875 C37.19330078 35.1734375 37.07019531 36.05 36.94335938 36.953125 C36.6916131 38.80184638 36.44158265 40.6508023 36.19335938 42.5 C35.45843919 47.7091752 34.74812012 52.33181665 31.8125 56.8125 C28.91454379 58.71116097 26.35910239 58.30537294 23 58 C21 56 21 56 20.8046875 53.6171875 C20.82789063 52.71226562 20.85109375 51.80734375 20.875 50.875 C20.89304687 49.96492188 20.91109375 49.05484375 20.9296875 48.1171875 C20.95289063 47.41851562 20.97609375 46.71984375 21 46 C20.59910156 46.51949219 20.19820312 47.03898437 19.78515625 47.57421875 C14.80839669 53.67949522 9.96708957 58.15164442 2.00390625 59.51171875 C-3.13768328 59.80057209 -6.9918789 59.63844353 -11.125 56.375 C-15.99482379 51.26820182 -16.22932626 46.12333944 -16.18969727 39.36352539 C-15.85339475 33.4005398 -14.77054875 27.57545219 -13.65625 21.71801758 C-13.24667133 19.54483845 -12.86497022 17.36787283 -12.484375 15.18945312 C-12.22562208 13.79396131 -11.96526353 12.39876605 -11.703125 11.00390625 C-11.47270508 9.75424072 -11.24228516 8.5045752 -11.00488281 7.21704102 C-9.11936555 1.18072882 -6.25141573 -0.79805307 0 0 Z " fill="#C5C5C7" transform="translate(567,125)"/>
<path d="M0 0 C17.49 0 34.98 0 53 0 C58.56395349 22.25581395 58.56395349 22.25581395 53 33 C49.97061671 36.66714819 47.49054984 38.54430801 43 40 C40.10546875 40.1953125 40.10546875 40.1953125 37.1875 40.125 C36.21167969 40.10695312 35.23585937 40.08890625 34.23046875 40.0703125 C33.12638672 40.03550781 33.12638672 40.03550781 32 40 C32 39.34 32 38.68 32 38 C30.700625 37.91105469 30.700625 37.91105469 29.375 37.8203125 C25.2336056 36.81372358 22.95648085 34.77700553 20 31.875 C19.4738208 31.37218506 18.9476416 30.86937012 18.40551758 30.35131836 C16.91997089 28.91694178 15.45588308 27.46440636 14 26 C13.07767578 25.07767578 13.07767578 25.07767578 12.13671875 24.13671875 C5.69495505 17.13933123 1.34133405 9.38933833 0 0 Z " fill="#C9C8CB" transform="translate(172,77)"/>
<path d="M0 0 C17.49 0 34.98 0 53 0 C47.5068077 16.47957689 38.32765345 29.78756864 23.1484375 38.5625 C18.80698486 40.5447017 15.63942645 40.8932491 11 40 C9.783125 39.835 8.56625 39.67 7.3125 39.5 C2.7343522 37.42687647 0.51928256 34.269254 -2 30 C-3.36327078 25.91018766 -3.22385809 22.09650477 -3.25 17.8125 C-3.270625 16.98685547 -3.29125 16.16121094 -3.3125 15.31054688 C-3.31765625 14.49263672 -3.3228125 13.67472656 -3.328125 12.83203125 C-3.3374707 12.09702393 -3.34681641 11.3620166 -3.35644531 10.60473633 C-3 8 -3 8 0 0 Z " fill="#C9C9CC" transform="translate(15,77)"/>
<path d="M0 0 C4.92208837 2.47761687 8.72820515 5.92187033 11 11 C12.04828993 14.3679102 12.19869093 17.54355302 12.25 21.0625 C12.27578125 22.10535156 12.3015625 23.14820313 12.328125 24.22265625 C12 28 12 28 9 39 C-8.49 39 -25.98 39 -44 39 C-38.77669404 23.33008213 -29.46725117 10.43124572 -15 2 C-9.97290926 -0.32866801 -5.47389244 -0.95668333 0 0 Z " fill="#C7C8CA" transform="translate(216,132)"/>
<path d="M0 0 C13.58313568 7.45906983 23.29768103 20.08952906 29.1875 34.1875 C29.1875 35.1775 29.1875 36.1675 29.1875 37.1875 C12.0275 37.1875 -5.1325 37.1875 -22.8125 37.1875 C-25.41855592 30.23801754 -26.33483013 26.64333653 -26.3125 19.6875 C-26.34085938 18.88441406 -26.36921875 18.08132812 -26.3984375 17.25390625 C-26.41835982 11.10787099 -24.77446555 6.90743093 -20.8125 2.1875 C-14.47445118 -3.16624809 -7.44183493 -3.2677288 0 0 Z " fill="#C9C9CB" transform="translate(37.8125,133.8125)"/>
<path d="M0 0 C0.9215538 0.00222061 1.8431076 0.00444122 2.79258728 0.00672913 C3.83359085 0.00680466 4.87459442 0.00688019 5.94714355 0.00695801 C7.07941879 0.01211929 8.21169403 0.01728058 9.37828064 0.02259827 C10.53106003 0.02401321 11.68383942 0.02542816 12.87155151 0.02688599 C16.57043503 0.03250446 20.26925903 0.0450601 23.96812439 0.05775452 C26.46877456 0.06276714 28.96942567 0.06733045 31.47007751 0.07142639 C37.61528027 0.0824799 43.76044808 0.099236 49.90562439 0.12025452 C49.45939373 1.53739214 49.00618377 2.95233299 48.55015564 4.36634827 C48.29854675 5.15452942 48.04693787 5.94271057 47.78770447 6.754776 C46.36200879 10.57807115 44.22550957 13.78624811 41.90562439 17.12025452 C41.47507751 17.77896545 41.04453064 18.43767639 40.60093689 19.11634827 C34.29325501 28.2571415 25.7697882 34.57892965 14.90562439 37.12025452 C10.20066549 37.83043699 7.00201227 37.62627969 2.65562439 35.62025452 C-1.90629935 31.47305112 -4.74618852 28.13548296 -5.47328186 21.83900452 C-5.58757651 14.8289325 -5.10855572 7.86849297 -3.09437561 1.12025452 C-2.09437561 0.12025452 -2.09437561 0.12025452 0 0 Z " fill="#057135" transform="translate(174.09437561035156,170.87974548339844)"/>
<path d="M0 0 C3.84523216 7.69046433 4.66239225 18.19066188 2.28125 26.51171875 C0.03907025 31.25826862 -3.22074517 35.61037259 -8 38 C-16.58095434 39.00661195 -23.76612982 37.24429697 -30.640625 31.9765625 C-33.1947358 29.73598027 -35.61049137 27.41448607 -38 25 C-38.55429687 24.47921875 -39.10859375 23.9584375 -39.6796875 23.421875 C-44.08737183 18.89506407 -52 7.46270603 -52 1 C-34.84 0.67 -17.68 0.34 0 0 Z " fill="#057135" transform="translate(67,170)"/>
<path d="M0 0 C3.88361497 2.65645039 6.69302787 5.70914299 8.08203125 10.32421875 C9.2864601 18.30206926 9.47950718 26.43013831 6.4765625 33.9375 C-11.0134375 33.9375 -28.5034375 33.9375 -46.5234375 33.9375 C-38.6742908 18.23920659 -22.65310837 -9.53815089 0 0 Z " fill="#AB1832" transform="translate(61.5234375,43.0625)"/>
<path d="M0 0 C14.16003329 6.38103411 22.55132692 19.90956731 28.0625 33.6875 C10.9025 33.6875 -6.2575 33.6875 -23.9375 33.6875 C-24.2675 34.3475 -24.5975 35.0075 -24.9375 35.6875 C-25.89199751 29.98379538 -26.18564452 24.40412177 -26.25 18.625 C-26.27900391 17.75294922 -26.30800781 16.88089844 -26.33789062 15.98242188 C-26.39334625 10.34727698 -25.71513538 7.14759141 -21.9375 2.6875 C-15.68041531 -3.11174923 -7.72887373 -2.52650784 0 0 Z " fill="#AB1831" transform="translate(195.9375,43.3125)"/>
<path d="M0 0 C1.90372582 1.25654309 3.35620965 2.37040035 4.76953125 4.16796875 C4.58203125 7.79296875 4.58203125 7.79296875 3.76953125 11.16796875 C0.60185743 12.75180566 -2.77216438 12.46657736 -6.23046875 12.16796875 C-7.56380208 11.50130208 -8.89713542 10.83463542 -10.23046875 10.16796875 C-16.12422689 9.67682224 -21.02145581 10.22179584 -26.23046875 13.16796875 C-31.49134002 18.07014425 -34.89362664 24.61729785 -35.4296875 31.859375 C-35.19304346 36.39617928 -34.67348808 38.61135472 -31.79296875 42.23046875 C-27.66578219 45.35102444 -25.66777056 45.28530852 -20.67578125 44.69140625 C-17.44723208 44.00031106 -14.89554421 42.60675511 -12.01953125 41.03125 C-9.63298812 39.87966478 -7.8306977 39.70910482 -5.23046875 40.16796875 C-3.23046875 42.16796875 -3.23046875 42.16796875 -2.85546875 45.04296875 C-3.23046875 48.16796875 -3.23046875 48.16796875 -4.60546875 50.23046875 C-12.29340974 55.90490138 -19.68371217 58.50892434 -29.23046875 58.16796875 C-30.90604254 57.8827647 -32.5786412 57.56841179 -34.23046875 57.16796875 C-34.23046875 56.50796875 -34.23046875 55.84796875 -34.23046875 55.16796875 C-35.52984375 54.88953125 -35.52984375 54.88953125 -36.85546875 54.60546875 C-42.27486804 52.29720609 -45.02918126 47.96989999 -48.23046875 43.16796875 C-50.23078209 32.71562719 -49.19963901 23.03896937 -43.8359375 13.75390625 C-40.52172721 9.08428014 -36.39430889 4.25033511 -30.85546875 2.35546875 C-30.31921875 2.29359375 -29.78296875 2.23171875 -29.23046875 2.16796875 C-29.23046875 1.50796875 -29.23046875 0.84796875 -29.23046875 0.16796875 C-19.8993372 -4.31097439 -9.34418721 -4.66316035 0 0 Z " fill="#C5C5C7" transform="translate(796.23046875,126.83203125)"/>
<path d="M0 0 C0.78697266 -0.02900391 1.57394531 -0.05800781 2.38476562 -0.08789062 C9.56704205 -0.16486473 14.61846612 1.70310946 19.90625 6.59765625 C21.90573182 10.14265591 21.97016236 12.69578489 21.9375 16.75 C21.9478125 18.02746094 21.958125 19.30492188 21.96875 20.62109375 C21.11439586 26.55759859 17.87553889 30.53913267 13.20703125 34.21484375 C6.16460438 38.58332488 -2.33715629 39.45765657 -10.4375 39.375 C-11.58992188 39.36597656 -12.74234375 39.35695312 -13.9296875 39.34765625 C-14.79851562 39.33605469 -15.66734375 39.32445312 -16.5625 39.3125 C-15.99743677 30.95467904 -14.35302639 22.92138812 -12.5625 14.75 C-12.28921875 13.46802734 -12.0159375 12.18605469 -11.734375 10.86523438 C-9.40682388 0.11172 -9.40682388 0.11172 0 0 Z " fill="#040407" transform="translate(320.5625,105.6875)"/>
<path d="M0 0 C0 2.97 0 5.94 0 9 C-0.66 9 -1.32 9 -2 9 C-2.103125 10.134375 -2.20625 11.26875 -2.3125 12.4375 C-3.56655982 21.7934463 -6.3048634 28.12294512 -14 34 C-18.17551485 35.96570392 -21.36690963 36.5791363 -26 36 C-28.63016161 33.8272578 -30.47336894 32.05326212 -32 29 C-32.60967809 20.46450676 -30.81265432 12.36371318 -25.453125 5.53515625 C-18.5407265 -1.76745829 -9.47965034 -4.59619411 0 0 Z " fill="#07070A" transform="translate(917,137)"/>
<path d="M0 0 C3 0.375 3 0.375 4.66921997 1.64338684 C7.12036646 4.83282268 6.3205524 8.53076478 6 12.375 C5.57249181 15.6406805 4.97035927 18.85397265 4.3203125 22.08203125 C4.06107498 23.41375618 4.06107498 23.41375618 3.79660034 24.77238464 C3.43243813 26.6328311 3.06414852 28.49247406 2.69189453 30.35131836 C2.12348797 33.19506473 1.57059306 36.04151917 1.01953125 38.88867188 C0.66236964 40.7033046 0.30432764 42.51776432 -0.0546875 44.33203125 C-0.21935516 45.17997757 -0.38402283 46.02792389 -0.55368042 46.90156555 C-0.71369537 47.69306503 -0.87371033 48.48456451 -1.03857422 49.30004883 C-1.17625214 49.99238113 -1.31393005 50.68471344 -1.45578003 51.39802551 C-2.06012698 53.59342181 -2.8443671 55.41317282 -4 57.375 C-7.0832635 58.91663175 -9.60878099 58.67247535 -13 58.375 C-15.12528585 56.26886087 -15.95800511 55.05259323 -16.14453125 52.04296875 C-16.03496094 51.22441406 -15.92539062 50.40585938 -15.8125 49.5625 C-15.69390625 48.67433594 -15.5753125 47.78617188 -15.453125 46.87109375 C-15 44.375 -15 44.375 -14.0625 41.125 C-13.05817729 37.58033161 -12.5382264 34.27223575 -12.0625 30.625 C-11.33521866 25.22479289 -10.26110839 20.13885191 -8.71875 14.91796875 C-7.81742161 11.72902974 -7.20061921 8.51184221 -6.625 5.25 C-5.40707674 1.59623022 -3.75813165 0.46976646 0 0 Z " fill="#C5C5C7" transform="translate(964,124.625)"/>
<path d="M0 0 C3.26479124 0.4862455 3.98922846 0.87708052 5.9375 3.4375 C5.70974018 12.37269294 3.6497058 21.31821566 2.03613281 30.09765625 C1.56136977 32.69368015 1.10082132 35.2919845 0.640625 37.890625 C0.33680363 39.55744977 0.03214524 41.22412224 -0.2734375 42.890625 C-0.40793304 43.65949036 -0.54242859 44.42835571 -0.68099976 45.22052002 C-1.52458088 49.71369424 -2.65423668 53.47770912 -5.0625 57.4375 C-8.0625 59.4375 -8.0625 59.4375 -11.125 59.25 C-14.0625 58.4375 -14.0625 58.4375 -16.0625 55.4375 C-16.32010279 52.74297479 -16.15150053 50.15201625 -16.0625 47.4375 C-15.4025 47.4375 -14.7425 47.4375 -14.0625 47.4375 C-14.00316284 46.53245728 -14.00316284 46.53245728 -13.94262695 45.60913086 C-13.3315021 37.70101461 -12.08009663 29.94694216 -10.64331055 22.15551758 C-10.24666187 19.98170557 -9.87242653 17.80469639 -9.49804688 15.62695312 C-9.24355469 14.2315208 -8.98774326 12.83632828 -8.73046875 11.44140625 C-8.50641357 10.19174072 -8.2823584 8.9420752 -8.05151367 7.65454102 C-6.62218979 3.00526904 -4.89536489 0.69933784 0 0 Z " fill="#C7C7C9" transform="translate(734.0625,124.5625)"/>
<path d="M0 0 C1.5 1.875 1.5 1.875 2.0625 4.75 C1.27237135 9.13960362 0.15233778 10.2762212 -3.5 12.875 C-10.74277888 15.54170798 -17.83202561 16.33304272 -25.5 15.875 C-25.8174837 12.72244257 -25.72777776 11.23116158 -23.99609375 8.5234375 C-17.54740385 1.40173442 -10.01045469 -4.50470461 0 0 Z " fill="#050508" transform="translate(397.5,136.125)"/>
<path d="M0 0 C2 1 2 1 3 3 C3.39296656 6.09461163 3.61866635 8.04348869 3 11 C0.87004224 13.6624472 -0.63900262 14.74580594 -4.0078125 15.375 C-7.27755803 15.56804771 -9.42005764 15.47120317 -12 13.375 C-13.3181446 10.24440659 -13.55014903 8.3696628 -13 5 C-9.21694854 -0.43813647 -6.19726476 -0.79964707 0 0 Z " fill="#C4C4C7" transform="translate(972,101)"/>
<path d="M0 0 C3.875 0.5625 3.875 0.5625 5.875 1.5625 C7.51040837 4.83331673 7.48443522 8.04053132 6.875 11.5625 C5.4375 14.0625 5.4375 14.0625 2.875 15.5625 C-0.15616605 15.8755292 -3.09035839 15.79593397 -6.125 15.5625 C-6.455 14.5725 -6.785 13.5825 -7.125 12.5625 C-7.785 12.5625 -8.445 12.5625 -9.125 12.5625 C-9.60904486 8.49652319 -9.2441537 6.76357187 -7.125 3.1875 C-3.64347766 0.14116795 -3.64347766 0.14116795 0 0 Z " fill="#C2C2C5" transform="translate(739.125,100.4375)"/>
<path d="M0 0 C0.66 0 1.32 0 2 0 C3.41500096 1.97089419 4.70781954 3.94990601 6 6 C7.07966655 7.62743855 8.16311993 9.25237009 9.25 10.875 C10.16666667 12.25 11.08333333 13.625 12 15 C11.01 15.495 11.01 15.495 10 16 C9.34 15.67 8.68 15.34 8 15 C7.67 15.66 7.34 16.32 7 17 C5.82866942 14.54379149 4.66278278 12.08525083 3.5 9.625 C3.16613281 8.92632812 2.83226563 8.22765625 2.48828125 7.5078125 C0 2.2265625 0 2.2265625 0 0 Z " fill="#A87F25" transform="translate(95,83)"/>
<path d="M0 0 C5.22222222 7.83333333 5.22222222 7.83333333 4.75 12.4375 C4.5025 13.283125 4.255 14.12875 4 15 C3.79310406 16.43483677 3.60673548 17.87273549 3.4375 19.3125 C3.293125 20.529375 3.14875 21.74625 3 23 C2.01 22.67 1.02 22.34 0 22 C0.17402344 21.00871094 0.34804687 20.01742187 0.52734375 18.99609375 C1.10409696 14.95882125 0.88646535 11.13006496 0.5625 7.0625 C0.51029297 6.37865234 0.45808594 5.69480469 0.40429688 4.99023438 C0.27630102 3.32628831 0.13912281 1.6630527 0 0 Z " fill="#9C7620" transform="translate(107,78)"/>
<path d="M0 0 C1.62723299 0.45034123 3.25173664 0.91055354 4.875 1.375 C6.23238281 1.75785156 6.23238281 1.75785156 7.6171875 2.1484375 C10 3 10 3 12 5 C5.07 4.67 -1.86 4.34 -9 4 C-9.33 3.34 -9.66 2.68 -10 2 C-9.04287109 1.90912109 -9.04287109 1.90912109 -8.06640625 1.81640625 C-6.82697266 1.69072266 -6.82697266 1.69072266 -5.5625 1.5625 C-4.73878906 1.48128906 -3.91507813 1.40007812 -3.06640625 1.31640625 C-1.01337975 1.21069185 -1.01337975 1.21069185 0 0 Z " fill="#9A741D" transform="translate(154,132)"/>
<path d="M0 0 C1.65 0.33 3.3 0.66 5 1 C1.29909479 4.9252025 -2.54959656 7.94580156 -7 11 C-5.22054913 6.95579349 -2.60470327 3.53921513 0 0 Z " fill="#A1781E" transform="translate(92,148)"/>
<path d="M0 0 C-4.83543623 2.7663725 -8.47007709 4.54602182 -14.0625 3.25 C-15.38363045 2.86156506 -16.70021173 2.45477226 -18 2 C-18 1.67 -18 1.34 -18 1 C-15.75152519 0.63627613 -13.50113812 0.28435904 -11.25 -0.0625 C-9.99703125 -0.25972656 -8.7440625 -0.45695312 -7.453125 -0.66015625 C-4.49983411 -0.95080818 -2.7397586 -0.98935727 0 0 Z " fill="#99741B" transform="translate(166,113)"/>
<path d="M0 0 C2.40804568 2.40804568 3.00768759 4.42203775 4.125 7.625 C4.47820312 8.62789062 4.83140625 9.63078125 5.1953125 10.6640625 C5.46085938 11.43492187 5.72640625 12.20578125 6 13 C5.34 13 4.68 13 4 13 C2.4921875 11.03125 2.4921875 11.03125 0.875 8.5 C0.33617187 7.6646875 -0.20265625 6.829375 -0.7578125 5.96875 C-1.16773438 5.3190625 -1.57765625 4.669375 -2 4 C-1.34 2.68 -0.68 1.36 0 0 Z " fill="#9A761F" transform="translate(138,153)"/>
<path d="M0 0 C4.23429756 1.31061591 8.07407404 2.94356259 12 5 C11.34 6.32 10.68 7.64 10 9 C8.33043913 7.69118353 6.66441696 6.37785174 5 5.0625 C4.071875 4.33160156 3.14375 3.60070312 2.1875 2.84765625 C1.465625 2.23792969 0.74375 1.62820312 0 1 C0 0.67 0 0.34 0 0 Z " fill="#9C771C" transform="translate(77,100)"/>
<path d="M0 0 C0.66 0.33 1.32 0.66 2 1 C0.61469871 4.42717768 -0.67477227 5.7293493 -4 7.3125 C-4.70125 7.65925781 -5.4025 8.00601563 -6.125 8.36328125 C-7.053125 8.67845703 -7.053125 8.67845703 -8 9 C-8.66 8.67 -9.32 8.34 -10 8 C-6.7 5.36 -3.4 2.72 0 0 Z " fill="#99731B" transform="translate(87,140)"/>
<path d="M0 0 C0 3.58912412 -0.66436554 4.10857029 -3 6.6875 C-3.556875 7.31011719 -4.11375 7.93273437 -4.6875 8.57421875 C-5.120625 9.04472656 -5.55375 9.51523438 -6 10 C-7.32 9.34 -8.64 8.68 -10 8 C-6.7 5.36 -3.4 2.72 0 0 Z " fill="#A1791D" transform="translate(153,90)"/>
<path d="M0 0 C3.99199058 0.99799764 5.82006579 2.55799862 8 6 C3.87248551 5.39301257 0.6678852 3.96189209 -3 2 C-2.01 1.34 -1.02 0.68 0 0 Z " fill="#9D761E" transform="translate(152,142)"/>
<path d="M0 0 C0.33 0.66 0.66 1.32 1 2 C-0.37393005 5.66381347 -1.1447677 7.56243929 -4.6875 9.375 C-5.450625 9.58125 -6.21375 9.7875 -7 10 C-2.85714286 2.42857143 -2.85714286 2.42857143 0 0 Z " fill="#A0791F" transform="translate(142,84)"/>
<path d="M0 0 C1.65 1.65 3.3 3.3 5 5 C4.67 5.66 4.34 6.32 4 7 C3.67 6.67 3.34 6.34 3 6 C2.67 7.98 2.34 9.96 2 12 C1.67 12 1.34 12 1 12 C0.01751476 7.9472484 -0.08159574 4.16138263 0 0 Z " fill="#3E2E12" transform="translate(129,148)"/>
<path d="M0 0 C-5.75 5 -5.75 5 -8 5 C-8 4.34 -8 3.68 -8 3 C-8.66 2.67 -9.32 2.34 -10 2 C-3.375 -1.125 -3.375 -1.125 0 0 Z " fill="#A17B1E" transform="translate(159,103)"/>
<path d="M0 0 C2 4 2 4 2 8 C1.38655243 9.68698082 0.72904086 11.35965807 0 13 C-0.33 13 -0.66 13 -1 13 C-0.67 8.71 -0.34 4.42 0 0 Z " fill="#9F791E" transform="translate(108,157)"/>
<path d="M0 0 C0.66 0 1.32 0 2 0 C2 1.98 2 3.96 2 6 C0 7 -2 8 -4 9 C-2.80100302 5.9168649 -1.52299523 2.93720508 0 0 Z " fill="#36383B" transform="translate(663,146)"/>
<path d="M0 0 C0.66 0 1.32 0 2 0 C1.25 4.75 1.25 4.75 -1 7 C-1.625 4.625 -1.625 4.625 -2 2 C-1.34 1.34 -0.68 0.68 0 0 Z " fill="#B2861C" transform="translate(111,155)"/>
<path d="M0 0 C0.33 0 0.66 0 1 0 C1.25 6.625 1.25 6.625 -1 10 C-2.23076923 4.58461538 -2.23076923 4.58461538 -1.0625 1.625 C-0.5365625 0.820625 -0.5365625 0.820625 0 0 Z " fill="#936D1C" transform="translate(131,78)"/>
<path d="M0 0 C2.09350689 3.4019487 2.17942163 6.05272412 2 10 C1.34 9.67 0.68 9.34 0 9 C-0.99444068 5.65506316 -1.10348268 3.31044803 0 0 Z " fill="#94711B" transform="translate(130,160)"/>
<path d="M0 0 C0.33 0.99 0.66 1.98 1 3 C1.99 3.33 2.98 3.66 4 4 C3.34 5.32 2.68 6.64 2 8 C1.34 8 0.68 8 0 8 C0 5.36 0 2.72 0 0 Z " fill="#363638" transform="translate(678,159)"/>
<path d="M0 0 C0.66 0 1.32 0 2 0 C2 2.31 2 4.62 2 7 C1.34 6.01 0.68 5.02 0 4 C-0.99 4.66 -1.98 5.32 -3 6 C-1.125 1.125 -1.125 1.125 0 0 Z " fill="#2B2110" transform="translate(107,150)"/>
<path d="M0 0 C0 1.32 0 2.64 0 4 C-1.98 4 -3.96 4 -6 4 C-6 3.34 -6 2.68 -6 2 C-2.25 0 -2.25 0 0 0 Z " fill="#33250F" transform="translate(152,118)"/>
</svg>
