<?xml version="1.0" standalone="no"?>
<!DOCTYPE svg PUBLIC "-//W3C//DTD SVG 20010904//EN"
 "http://www.w3.org/TR/2001/REC-SVG-20010904/DTD/svg10.dtd">
<svg version="1.0" xmlns="http://www.w3.org/2000/svg"
 width="71.000000pt" height="74.000000pt" viewBox="0 0 71.000000 74.000000"
 preserveAspectRatio="xMidYMid meet">
<metadata>
Created by potrace 1.16, written by Peter Selinger 2001-2019
</metadata>
<g transform="translate(0.000000,74.000000) scale(0.100000,-0.100000)"
fill="#000000" stroke="none">
<path d="M335 680 c-4 -6 -3 -16 3 -22 6 -6 12 -6 17 2 4 6 3 16 -3 22 -6 6
-12 6 -17 -2z"/>
<path d="M180 660 c0 -5 5 -10 10 -10 6 0 10 5 10 10 0 6 -4 10 -10 10 -5 0
-10 -4 -10 -10z"/>
<path d="M490 660 c0 -5 5 -10 10 -10 6 0 10 5 10 10 0 6 -4 10 -10 10 -5 0
-10 -4 -10 -10z"/>
<path d="M221 600 c-16 -9 -6 -30 15 -30 15 0 20 25 6 34 -4 2 -14 1 -21 -4z"/>
<path d="M445 601 c-8 -15 3 -31 21 -31 9 0 14 7 12 17 -4 20 -24 28 -33 14z"/>
<path d="M327 576 c-8 -20 20 -43 35 -28 14 14 3 42 -16 42 -7 0 -16 -6 -19
-14z"/>
<path d="M95 540 c-4 -6 -3 -16 3 -22 6 -6 12 -6 17 2 4 6 3 16 -3 22 -6 6
-12 6 -17 -2z"/>
<path d="M577 544 c-8 -8 1 -24 14 -24 5 0 9 7 9 15 0 15 -12 20 -23 9z"/>
<path d="M266 504 c-19 -18 -19 -20 -6 -45 14 -25 56 -25 70 1 23 44 -29 80
-64 44z"/>
<path d="M371 506 c-7 -8 -11 -25 -9 -38 2 -18 9 -23 32 -23 36 0 56 27 40 53
-14 22 -48 27 -63 8z"/>
<path d="M173 484 c-8 -22 18 -37 36 -20 7 8 10 19 7 25 -10 16 -36 13 -43 -5z"/>
<path d="M480 480 c0 -13 7 -20 20 -20 13 0 20 7 20 20 0 13 -7 20 -20 20 -13
0 -20 -7 -20 -20z"/>
<path d="M210 410 c-15 -28 4 -60 35 -60 31 0 50 32 35 60 -6 12 -21 20 -35
20 -14 0 -29 -8 -35 -20z"/>
<path d="M420 415 c-26 -32 13 -81 48 -59 22 14 27 41 12 59 -16 19 -44 19
-60 0z"/>
<path d="M104 399 c-10 -17 13 -36 27 -22 12 12 4 33 -11 33 -5 0 -12 -5 -16
-11z"/>
<path d="M560 390 c0 -11 7 -20 15 -20 8 0 15 9 15 20 0 11 -7 20 -15 20 -8 0
-15 -9 -15 -20z"/>
<path d="M30 390 c0 -5 5 -10 10 -10 6 0 10 5 10 10 0 6 -4 10 -10 10 -5 0
-10 -4 -10 -10z"/>
<path d="M645 390 c3 -5 10 -10 16 -10 5 0 9 5 9 10 0 6 -7 10 -16 10 -8 0
-12 -4 -9 -10z"/>
<path d="M262 324 c-20 -36 13 -73 51 -58 22 8 31 42 17 59 -17 20 -57 19 -68
-1z"/>
<path d="M364 326 c-15 -40 21 -80 54 -60 37 24 21 74 -25 74 -13 0 -26 -6
-29 -14z"/>
<path d="M181 316 c-14 -17 -7 -36 14 -36 22 0 29 20 13 36 -13 13 -16 13 -27
0z"/>
<path d="M487 324 c-15 -15 -7 -45 11 -42 9 2 17 12 17 22 0 20 -16 31 -28 20z"/>
<path d="M95 260 c-4 -6 -3 -16 3 -22 6 -6 12 -6 17 2 4 6 3 16 -3 22 -6 6
-12 6 -17 -2z"/>
<path d="M580 255 c0 -9 5 -15 11 -13 6 2 11 8 11 13 0 5 -5 11 -11 13 -6 2
-11 -4 -11 -13z"/>
<path d="M324 225 c-4 -9 -2 -21 4 -27 15 -15 44 -1 40 19 -4 23 -36 29 -44 8z"/>
<path d="M216 201 c-7 -11 18 -33 27 -24 4 3 7 12 7 20 0 15 -26 18 -34 4z"/>
<path d="M444 199 c-7 -12 15 -31 28 -23 4 3 8 12 8 20 0 17 -26 19 -36 3z"/>
<path d="M186 131 c-4 -7 -5 -15 -2 -18 9 -9 19 4 14 18 -4 11 -6 11 -12 0z"/>
<path d="M496 131 c-4 -7 -5 -15 -2 -18 9 -9 19 4 14 18 -4 11 -6 11 -12 0z"/>
<path d="M336 123 c-11 -11 -6 -23 9 -23 8 0 15 4 15 9 0 13 -16 22 -24 14z"/>
</g>
</svg>
