<?xml version="1.0" standalone="no"?>
<!DOCTYPE svg PUBLIC "-//W3C//DTD SVG 20010904//EN"
 "http://www.w3.org/TR/2001/REC-SVG-20010904/DTD/svg10.dtd">
<svg version="1.0" xmlns="http://www.w3.org/2000/svg"
 width="211.000000pt" height="273.000000pt" viewBox="0 0 211.000000 273.000000"
 preserveAspectRatio="xMidYMid meet">
<metadata>
Created by potrace 1.16, written by Peter Selinger 2001-2019
</metadata>
<g transform="translate(0.000000,273.000000) scale(0.100000,-0.100000)"
fill="#000000" stroke="none">
<path d="M173 2490 c-67 -40 -63 33 -63 -1152 0 -1034 1 -1074 19 -1102 10
-15 32 -37 47 -47 28 -18 63 -19 889 -19 835 0 861 1 892 20 67 40 63 -33 63
1151 0 1071 0 1072 -21 1106 -41 67 11 63 -936 63 -833 0 -859 -1 -890 -20z
m998 -590 c30 -6 92 -28 138 -50 153 -73 255 -204 301 -386 24 -92 25 -145 5
-239 -68 -323 -394 -520 -708 -428 -192 56 -350 231 -388 431 -16 84 -6 221
21 299 92 264 362 423 631 373z"/>
<path d="M1035 1768 c-81 -29 -157 -108 -186 -193 -7 -22 -21 -49 -30 -60 -9
-11 -24 -34 -33 -52 -9 -18 -33 -44 -53 -59 -77 -56 -80 -78 -23 -136 22 -23
40 -47 40 -53 0 -7 6 -18 14 -24 12 -10 18 -4 32 38 19 51 32 61 86 61 52 0
122 -121 135 -234 5 -43 8 -47 19 -31 12 16 14 14 28 -20 9 -21 16 -41 16 -46
0 -39 141 48 202 125 50 63 89 145 96 201 l4 42 -46 6 c-25 4 -74 21 -108 38
-72 35 -178 101 -178 110 0 3 11 11 24 17 13 6 29 25 35 42 l11 32 -65 -4 -65
-4 33 34 c17 18 60 47 95 64 54 27 69 30 120 25 31 -3 66 -9 77 -13 38 -15 -7
28 -50 47 -93 43 -212 12 -300 -76 -25 -25 -41 -37 -36 -27 14 27 94 98 132
118 20 10 57 18 91 18 32 1 58 4 58 7 0 20 -125 25 -175 7z m-160 -298 c-3 -5
-13 -10 -21 -10 -8 0 -14 5 -14 10 0 6 9 10 21 10 11 0 17 -4 14 -10z"/>
</g>
</svg>
