<?xml version="1.0" standalone="no"?>
<!DOCTYPE svg PUBLIC "-//W3C//DTD SVG 20010904//EN"
 "http://www.w3.org/TR/2001/REC-SVG-20010904/DTD/svg10.dtd">
<svg version="1.0" xmlns="http://www.w3.org/2000/svg"
 width="466.000000pt" height="617.000000pt" viewBox="0 0 466.000000 617.000000"
 preserveAspectRatio="xMidYMid meet">
<metadata>
Created by potrace 1.16, written by Peter Selinger 2001-2019
</metadata>
<g transform="translate(0.000000,617.000000) scale(0.100000,-0.100000)"
fill="#000000" stroke="none">
<path d="M0 3085 l0 -3085 2330 0 2330 0 0 3085 0 3085 -2330 0 -2330 0 0
-3085z m2658 2740 c119 -24 258 -66 332 -98 34 -15 38 -14 85 9 69 35 252 81
376 94 88 10 118 10 195 -4 134 -23 244 -75 244 -116 0 -32 -16 -31 -94 6 -49
23 -108 41 -167 51 -85 15 -103 15 -210 -1 -256 -35 -513 -158 -768 -366 -139
-112 -154 -130 -141 -164 l10 -27 33 28 c19 15 69 59 113 97 170 147 419 288
604 343 85 25 110 28 245 28 144 0 152 -1 212 -29 75 -34 87 -46 70 -70 -12
-16 -15 -16 -58 2 -62 27 -139 42 -212 42 -63 0 -229 -24 -248 -35 -5 -4 21
-27 58 -52 153 -103 306 -242 401 -365 36 -47 41 -60 36 -87 -4 -17 -10 -34
-14 -36 -4 -3 -39 35 -78 83 -124 155 -306 313 -458 397 l-51 28 -102 -52
c-116 -58 -182 -101 -321 -207 -92 -70 -148 -121 -139 -127 2 -1 29 -10 59
-21 30 -10 88 -33 128 -53 l73 -34 51 32 c50 32 50 32 82 15 17 -9 60 -40 96
-70 70 -56 72 -62 56 -152 -7 -38 -5 -44 32 -87 22 -25 57 -74 79 -107 85
-136 73 -125 133 -128 59 -3 77 -13 91 -51 11 -27 11 -27 -101 -115 -96 -75
-94 -75 -121 -3 -56 155 -128 268 -240 379 -128 127 -274 213 -449 264 l-85
24 -32 -37 c-17 -21 -28 -41 -25 -44 4 -4 36 -12 72 -19 248 -47 507 -245 624
-478 36 -71 86 -214 86 -245 0 -19 13 -32 58 -59 l59 -34 54 37 c37 25 56 33
61 25 4 -6 8 -45 8 -86 l0 -75 98 -95 c116 -112 227 -244 267 -317 15 -29 32
-53 37 -53 13 0 69 128 106 240 45 137 64 256 64 395 -1 184 -34 326 -126 545
-36 84 -38 108 -11 130 32 27 156 -288 190 -484 42 -243 2 -500 -121 -786
l-55 -128 29 -63 c118 -254 146 -523 71 -671 -20 -39 -36 -47 -56 -27 -8 8 -6
24 9 58 25 58 36 169 26 269 -15 158 -127 421 -255 602 -65 91 -256 300 -274
300 -5 0 -9 -16 -9 -34 0 -28 7 -40 36 -63 20 -15 47 -43 60 -63 13 -19 55
-73 93 -120 191 -232 299 -503 289 -724 -4 -83 -25 -160 -36 -128 -2 6 -9 12
-15 12 -9 0 -12 42 -13 148 0 141 -2 151 -33 237 -40 109 -104 231 -173 328
-65 91 -118 157 -128 157 -4 0 -12 -19 -19 -42 -23 -77 -35 -88 -96 -88 -64 0
-61 3 -145 -125 -33 -49 -74 -107 -92 -127 l-31 -38 16 -57 c8 -32 12 -63 9
-69 -8 -14 -160 -134 -179 -141 -7 -3 -35 9 -63 26 l-49 30 -73 -34 c-40 -19
-77 -35 -83 -35 -5 0 -34 20 -63 45 l-54 45 34 14 c113 49 157 71 221 114 143
94 276 241 350 388 42 82 85 206 93 266 5 41 3 44 -35 71 l-41 28 0 -24 c0
-104 -103 -340 -202 -463 -106 -132 -290 -259 -439 -304 -55 -17 -59 -17 -73
-1 -22 24 -20 28 15 36 153 34 346 164 467 314 92 115 182 333 182 442 0 37
-5 41 -115 106 -44 25 -81 48 -83 49 -2 1 3 14 10 28 l14 26 88 -51 c48 -27
91 -48 93 -45 3 3 2 21 -1 41 -6 31 -15 39 -81 76 -41 22 -75 42 -75 44 0 2 4
15 10 30 l10 25 51 -25 c28 -15 53 -24 55 -22 3 2 -7 40 -20 83 -66 207 -230
391 -443 498 -66 33 -241 86 -283 86 -10 0 -33 -24 -57 -60 -38 -58 -40 -59
-61 -44 -28 19 -27 23 2 67 l24 35 -31 5 c-26 5 -37 0 -57 -23 l-25 -28 -29
20 -28 21 -77 -22 c-235 -68 -418 -211 -534 -418 -29 -51 -77 -162 -77 -178 0
-2 32 -23 70 -46 70 -42 78 -51 60 -79 -8 -13 -20 -10 -80 22 -62 33 -70 35
-70 18 0 -10 -3 -25 -6 -33 -4 -11 14 -26 60 -52 63 -35 64 -37 54 -65 l-10
-29 -76 41 c-43 23 -90 50 -107 61 -89 61 -75 59 -136 21 -30 -18 -57 -34 -62
-34 -4 0 -5 35 -1 78 l6 77 -81 69 c-138 116 -346 374 -410 509 -13 26 -26 47
-30 47 -13 0 -107 -209 -134 -295 -47 -153 -60 -259 -54 -443 8 -233 47 -395
146 -593 l48 -97 -18 -33 -17 -34 -56 115 c-62 130 -116 285 -143 410 -22 106
-25 406 -5 520 21 113 90 313 148 427 l53 103 -20 57 c-74 211 -77 448 -8 560
21 33 22 34 35 14 13 -18 12 -28 -6 -81 -29 -86 -29 -240 0 -357 56 -223 193
-457 388 -664 41 -44 78 -79 82 -79 5 0 13 12 18 28 8 25 3 33 -67 107 -183
192 -312 413 -361 619 -25 102 -26 244 -4 310 16 45 17 46 31 27 11 -16 13
-37 8 -89 -8 -81 8 -197 40 -292 31 -92 33 -95 55 -75 17 15 19 14 30 -19 9
-27 8 -39 -2 -55 -11 -19 -9 -29 17 -78 41 -79 161 -236 233 -307 58 -56 60
-57 67 -35 11 34 22 39 91 39 l61 0 48 73 c27 39 82 107 123 149 l74 76 -11
52 c-6 28 -11 57 -11 64 0 17 183 136 208 136 10 0 38 -14 61 -32 l44 -32 63
23 c35 13 88 29 116 37 l53 13 47 -46 c27 -26 48 -52 48 -58 0 -5 -45 -20 -99
-33 -296 -69 -577 -305 -692 -581 l-31 -75 28 -23 c31 -24 54 -30 54 -12 0 6
15 44 34 84 129 280 383 477 689 535 51 10 60 16 87 55 27 39 28 44 13 50 -10
4 -36 30 -59 59 l-41 52 28 17 29 16 47 -55 48 -55 18 22 c17 21 16 23 -40 86
-45 52 -55 68 -46 82 13 20 86 26 179 13 l68 -9 101 84 c88 75 275 206 344
243 l24 12 -34 15 c-44 19 -184 57 -284 78 -107 23 -390 31 -522 16 -160 -19
-322 -61 -485 -128 -33 -14 -39 -14 -67 3 -17 10 -31 21 -31 24 0 17 288 114
430 145 200 43 502 43 708 0z m-1179 -194 l33 -18 -95 -52 c-144 -80 -291
-196 -421 -332 -115 -121 -116 -122 -126 -95 -5 15 -10 32 -10 38 0 24 287
294 372 351 85 57 198 125 208 126 3 0 20 -8 39 -18z m2374 -598 c15 -26 16
-35 6 -57 -16 -33 -30 -33 -49 2 -12 20 -14 35 -6 60 11 38 24 37 49 -5z m58
-460 c6 -16 13 -41 16 -56 6 -27 4 -28 -28 -25 -28 2 -35 8 -43 36 -7 26 -5
36 9 52 24 27 34 25 46 -7z m-3179 -10 c21 -19 22 -25 7 -76 -10 -36 -13 -38
-37 -32 -36 9 -35 7 -22 56 20 79 21 80 52 52z m1366 -45 c7 -7 12 -43 12 -90
0 -75 -1 -78 -24 -78 -13 0 -29 7 -36 15 -21 25 -76 19 -99 -11 -28 -35 -26
-69 4 -99 27 -28 62 -32 91 -10 10 8 29 15 42 15 20 0 22 -5 22 -53 0 -29 -5
-58 -12 -65 -17 -17 -319 -17 -336 0 -8 8 -12 64 -12 188 0 124 4 180 12 188
8 8 60 12 168 12 108 0 160 -4 168 -12z m733 2 c18 -10 19 -23 19 -188 0 -125
-4 -182 -12 -190 -17 -17 -319 -17 -336 0 -7 7 -12 36 -12 65 0 49 2 53 23 53
13 0 32 -7 43 -15 28 -21 62 -18 89 10 30 30 32 64 4 99 -23 30 -78 36 -99 11
-7 -8 -23 -15 -36 -15 -23 0 -24 2 -24 80 0 65 3 81 18 89 23 14 298 14 323 1z
m704 -97 c6 -24 1 -33 -30 -60 -21 -18 -69 -54 -107 -79 -56 -39 -71 -45 -79
-33 -19 30 -6 49 81 113 49 37 92 71 95 76 12 19 33 10 40 -17z m419 -15 c3
-13 6 -40 6 -60 0 -36 -2 -38 -30 -38 -22 0 -30 5 -30 18 0 9 -3 33 -6 54 -5
30 -3 37 12 41 36 9 42 7 48 -15z m-3236 -22 c1 -2 -1 -24 -4 -49 -6 -44 -9
-47 -35 -47 -28 0 -29 2 -29 48 0 27 3 52 7 56 6 6 53 0 61 -8z m1707 -6 c0
-12 -13 -15 -60 -15 -50 0 -60 3 -63 18 -3 16 3 18 60 15 48 -2 63 -7 63 -18z
m-389 -45 c5 -12 25 -15 93 -15 53 0 92 5 99 12 13 13 42 -6 42 -28 0 -18 -37
-37 -45 -24 -8 13 -182 13 -190 0 -3 -5 -17 -10 -30 -10 -31 0 -50 32 -35 60
13 24 58 27 66 5z m596 -10 c8 -19 8 -28 -2 -40 -14 -17 -56 -20 -65 -5 -4 6
-58 10 -131 10 -104 0 -124 2 -124 15 0 13 20 15 124 15 98 0 126 3 136 15 19
23 49 18 62 -10z m1334 -156 c-4 -39 -10 -77 -12 -84 -7 -16 -59 -4 -58 13 1
7 2 41 3 77 l1 65 36 0 37 0 -7 -71z m-3252 -10 c8 -75 2 -88 -35 -89 -18 0
-29 44 -29 118 0 40 2 42 29 42 28 0 29 -1 35 -71z m576 -29 c0 -37 -3 -42
-61 -80 -34 -22 -64 -39 -66 -36 -3 2 -6 19 -6 37 -2 28 5 38 53 75 69 54 80
55 80 4z m1148 -37 l3 -43 70 0 c55 0 69 -3 69 -15 0 -12 -17 -15 -91 -15
l-90 0 3 43 3 42 -117 3 c-97 2 -118 5 -118 18 0 12 20 14 133 12 l132 -3 3
-42z m-1011 -29 c20 -225 93 -397 236 -550 85 -91 167 -151 278 -203 l83 -39
36 30 c46 40 144 151 183 208 16 25 31 46 33 48 1 2 14 -4 28 -13 l25 -17 -26
-41 c-35 -56 -98 -132 -150 -180 -24 -22 -43 -43 -43 -47 0 -5 14 -12 32 -15
30 -7 36 -3 76 41 23 27 70 84 104 127 33 42 64 77 69 77 5 0 18 -5 28 -12 18
-11 16 -16 -29 -82 -27 -39 -68 -92 -93 -118 -40 -44 -44 -52 -26 -50 4 1 17
-10 29 -23 26 -28 26 -28 -50 -25 -51 1 -57 -1 -89 -34 -19 -20 -32 -39 -28
-42 3 -4 66 -9 139 -12 l133 -5 54 -48 c49 -44 53 -51 43 -71 -6 -13 -20 -44
-31 -70 l-20 -48 -114 0 c-123 0 -136 5 -152 60 -14 49 -34 70 -66 70 -16 0
-50 5 -75 11 -44 11 -46 11 -107 -32 -34 -24 -87 -60 -117 -81 -74 -49 -288
-162 -336 -178 -21 -7 -43 -15 -47 -18 -19 -10 210 -221 428 -394 122 -96 249
-190 362 -266 l63 -43 107 72 c219 148 492 365 685 547 105 99 108 100 138 89
16 -6 29 -16 27 -22 -7 -19 -283 -268 -427 -384 -145 -116 -321 -246 -457
-336 l-72 -47 -108 73 c-242 163 -536 397 -726 579 l-108 103 -72 -17 c-40
-10 -126 -20 -192 -23 -144 -6 -238 11 -335 59 -55 28 -65 37 -67 61 -1 15 2
27 6 27 5 0 38 -14 75 -31 97 -45 159 -59 274 -59 220 0 472 84 717 240 116
73 165 111 159 121 -2 4 -15 10 -29 13 -20 5 -41 -4 -98 -42 -211 -141 -419
-231 -611 -263 -127 -21 -320 4 -376 49 -27 22 -18 57 14 48 12 -3 55 -15 96
-26 63 -18 91 -20 170 -15 154 10 149 5 75 91 -113 129 -279 363 -362 510 -39
69 -40 72 -24 98 8 14 19 26 23 26 8 0 10 -2 91 -140 84 -145 237 -352 379
-515 l35 -39 74 28 c41 16 106 43 145 61 77 35 274 155 274 167 0 22 -44 16
-94 -12 l-56 -32 -32 23 c-18 13 -62 46 -97 73 -69 54 -65 40 -45 149 5 29 -1
40 -54 104 -55 66 -118 162 -135 206 -5 13 -18 17 -59 17 -76 0 -93 16 -123
113 -36 120 -35 125 37 183 117 94 149 116 154 111 3 -3 10 -37 15 -77 20
-145 97 -324 192 -448 89 -115 225 -226 365 -296 l52 -27 35 28 c19 16 35 31
35 34 0 4 -24 17 -52 29 -82 35 -217 128 -286 198 -147 149 -238 343 -261 552
-6 55 -4 70 9 78 23 16 35 9 37 -24z m509 -46 c82 -86 84 -91 84 -194 l0 -94
-195 0 -195 0 0 121 0 121 29 27 c49 46 90 61 166 61 70 0 71 0 111 -42z m945
22 c77 -40 79 -45 79 -185 l0 -125 -190 0 -190 0 0 94 c0 103 2 108 84 194 40
41 41 42 108 42 50 0 80 -6 109 -20z m-523 -37 l3 -43 95 0 c77 0 94 -3 94
-15 0 -12 -19 -15 -109 -15 l-110 0 -3 43 -3 42 -152 3 c-128 2 -153 5 -153
18 0 12 24 14 168 12 l167 -3 3 -42z m-110 -55 c-3 -9 -35 -14 -101 -16 -82
-2 -97 0 -97 13 0 12 17 15 101 15 76 0 100 -3 97 -12z m82 -93 c0 -12 -15
-15 -75 -15 -60 0 -75 3 -75 15 0 12 15 15 75 15 60 0 75 -3 75 -15z m1430
-516 c12 -27 11 -36 -4 -63 -56 -103 -283 -390 -399 -505 -49 -48 -58 -52 -86
-46 -17 4 -31 9 -31 12 0 3 42 51 93 107 133 144 222 255 318 400 46 69 87
125 90 126 4 0 12 -14 19 -31z m-1317 -127 c19 -21 13 -32 -16 -32 -21 0 -57
26 -57 42 0 16 57 8 73 -10z m156 -144 c25 -23 47 -45 49 -49 2 -4 -11 -10
-28 -14 -27 -6 -38 -1 -86 41 -41 34 -52 49 -42 55 28 18 62 8 107 -33z m1908
-1582 c34 -29 39 -92 9 -125 -36 -39 -117 -40 -156 -1 -23 23 -27 87 -7 112
35 44 111 51 154 14z m-2339 -247 l2 -204 118 113 117 114 50 -6 c28 -3 68 -6
89 -6 l40 0 -114 -115 c-104 -105 -112 -117 -98 -133 42 -50 228 -291 228
-296 0 -3 -42 -6 -94 -6 l-94 0 -88 110 -88 110 -33 -32 c-32 -31 -33 -35 -33
-110 l0 -78 -85 0 -85 0 0 370 0 369 68 3 c37 2 74 3 82 2 13 -1 15 -32 18
-205z m-1651 155 c64 -22 117 -65 142 -117 65 -137 12 -289 -122 -348 -42 -18
-75 -23 -174 -27 l-123 -4 0 -99 0 -99 -85 0 -85 0 0 355 0 355 200 0 c157 0
209 -3 247 -16z m631 -146 c97 -24 182 -141 182 -249 l0 -57 -205 -7 -204 -7
15 -30 c37 -71 149 -91 234 -42 l45 25 37 -43 c21 -24 38 -49 38 -55 0 -21
-71 -61 -140 -79 -115 -29 -233 0 -311 78 -110 110 -107 308 6 407 83 72 177
91 303 59z m711 6 c30 -6 31 -9 31 -55 0 -48 -2 -52 -130 -204 -71 -86 -130
-158 -130 -160 0 -3 65 -5 145 -5 l145 0 0 -65 0 -65 -255 0 -255 0 0 54 0 53
103 119 c140 163 157 184 157 195 0 5 -57 9 -130 9 l-130 0 0 65 0 65 209 0
c115 0 223 -3 240 -6z m981 -154 c0 -206 14 -244 93 -257 44 -7 100 19 118 55
10 18 16 80 19 192 l5 165 80 0 80 0 3 -277 2 -278 -80 0 -80 0 0 36 0 36 -34
-30 c-75 -65 -218 -65 -292 0 -71 63 -79 90 -82 301 -2 104 -1 195 2 203 4 10
25 14 86 14 l80 0 0 -160z m637 148 c5 -7 33 -86 62 -175 28 -90 55 -163 59
-163 4 0 31 69 60 153 77 221 60 198 143 195 l72 -3 60 -178 c35 -101 64 -172
68 -165 4 7 30 80 58 161 69 201 58 187 141 187 38 0 71 -3 73 -7 3 -5 -39
-129 -93 -278 l-98 -270 -83 -3 -84 -3 -55 166 c-30 91 -58 165 -61 165 -4 0
-32 -74 -64 -165 l-58 -166 -85 3 -86 3 -13 35 c-6 19 -48 138 -92 263 -45
126 -81 235 -81 243 0 19 143 20 157 2z m1043 -268 l0 -280 -85 0 -85 0 0 273
c0 151 3 277 7 280 3 4 42 7 85 7 l78 0 0 -280z m-2360 -775 c0 -126 -1 -135
-19 -135 -11 0 -21 5 -23 10 -2 7 -14 6 -34 -1 -66 -25 -124 16 -124 88 0 57
33 93 85 93 20 0 45 -5 56 -10 18 -10 19 -7 19 40 0 43 3 50 20 50 19 0 20 -7
20 -135z m730 0 c0 -128 -1 -135 -20 -135 -19 0 -20 7 -20 135 0 128 1 135 20
135 19 0 20 -7 20 -135z m570 121 c0 -9 -12 -16 -27 -18 -20 -2 -29 -9 -31
-25 -3 -19 1 -23 22 -23 16 0 26 -6 26 -15 0 -9 -9 -15 -25 -15 -25 0 -25 -1
-25 -80 0 -73 -2 -80 -20 -80 -18 0 -20 7 -20 80 0 62 -3 80 -14 80 -8 0 -16
7 -20 15 -4 10 1 15 14 15 14 0 20 7 20 22 0 12 7 30 17 40 20 22 83 25 83 4z
m-2578 -18 c24 -12 33 -54 19 -84 -6 -13 -29 -44 -52 -69 l-42 -45 57 0 c49 0
56 -2 56 -20 0 -19 -7 -20 -95 -20 -114 0 -119 8 -44 71 60 50 89 92 82 120
-7 27 -51 36 -84 16 -22 -12 -31 -13 -44 -3 -15 11 -15 13 -2 25 35 28 104 33
149 9z m-224 -4 c26 -18 30 -65 7 -84 -14 -12 -13 -15 5 -32 12 -12 20 -31 20
-53 0 -49 -35 -65 -140 -65 l-80 0 0 125 0 125 83 0 c59 0 89 -5 105 -16z
m512 -4 c23 -23 25 -49 6 -75 -12 -17 -12 -22 5 -44 25 -31 24 -63 -2 -87 -17
-15 -40 -20 -110 -22 l-89 -4 0 126 0 126 85 0 c72 0 88 -3 105 -20z m378 8
c-3 -7 -23 -14 -46 -16 l-42 -3 0 -110 c0 -102 -1 -109 -20 -109 -18 0 -20 8
-22 108 l-3 107 -42 3 c-29 2 -43 8 -43 18 0 11 21 14 111 14 84 0 110 -3 107
-12z m1216 -13 c32 -29 35 -82 7 -116 -15 -19 -32 -25 -83 -29 l-63 -5 -3 -38
c-3 -29 -7 -37 -23 -37 -18 0 -19 8 -19 125 l0 125 79 0 c69 0 81 -3 105 -25z
m476 -10 c0 -20 5 -25 25 -25 16 0 25 -6 25 -15 0 -9 -9 -15 -25 -15 -24 0
-25 -3 -25 -54 0 -56 17 -83 45 -72 10 4 15 -1 15 -14 0 -16 -7 -20 -32 -20
-51 0 -68 24 -68 92 0 51 -3 61 -20 65 -11 3 -20 12 -20 19 0 8 9 14 20 14 15
0 20 7 20 25 0 18 5 25 20 25 15 0 20 -7 20 -25z m-1550 -40 c0 -17 -5 -25
-18 -25 -31 0 -42 -22 -42 -87 0 -61 -1 -63 -25 -63 -28 0 -30 15 -19 129 6
50 10 61 25 61 11 0 19 -4 19 -9 0 -6 12 -3 28 5 34 18 32 18 32 -11z m697 -8
c7 -7 17 -27 22 -45 l10 -32 -80 0 c-43 0 -79 -4 -79 -8 0 -5 6 -17 14 -27 12
-17 36 -20 100 -12 29 3 30 -18 1 -31 -51 -23 -122 -5 -145 37 -27 51 10 135
63 143 29 5 77 -8 94 -25z m1672 7 c13 -12 18 -11 32 2 24 21 85 20 110 -2 16
-14 19 -31 19 -96 0 -71 -2 -78 -20 -78 -17 0 -19 8 -22 72 -3 69 -4 73 -30
82 -22 8 -32 6 -48 -9 -16 -15 -20 -30 -20 -82 0 -56 -2 -63 -20 -63 -18 0
-20 7 -20 58 0 63 -19 102 -50 102 -36 0 -50 -27 -50 -96 0 -57 -2 -64 -19
-64 -18 0 -20 9 -23 95 -3 93 -2 95 20 95 12 0 22 -5 22 -11 0 -8 4 -8 13 -1
29 24 79 22 106 -4z m-2179 -4 c16 -16 20 -33 20 -95 0 -68 -2 -75 -20 -75
-11 0 -20 5 -20 10 0 7 -6 7 -19 0 -47 -24 -111 2 -111 45 0 33 36 55 87 55
30 0 43 4 43 14 0 25 -29 39 -70 33 -22 -3 -43 -1 -46 5 -20 32 104 40 136 8z
m1222 3 c14 -13 18 -31 18 -95 0 -71 -2 -78 -20 -78 -11 0 -20 5 -20 10 0 7
-6 7 -19 0 -48 -25 -111 0 -111 44 0 38 16 49 74 54 58 5 70 18 41 42 -9 8
-30 11 -55 7 -41 -5 -63 8 -39 24 25 15 111 10 131 -8z m552 -14 c36 -43 35
-91 -3 -130 -74 -73 -203 0 -171 97 15 45 45 64 101 64 40 0 51 -4 73 -31z
m126 19 c0 -9 3 -9 12 0 17 17 58 15 58 -3 0 -8 -7 -15 -15 -15 -34 0 -55 -38
-55 -100 0 -53 -2 -60 -19 -60 -18 0 -20 9 -23 91 -2 50 -1 93 1 95 10 9 41 3
41 -8z"/>
<path d="M2326 5074 l-38 -49 29 -6 c38 -7 44 -4 71 34 27 40 27 47 3 47 -11
0 -21 5 -23 12 -2 6 -21 -10 -42 -38z"/>
<path d="M1310 4338 c0 -7 -3 -23 -6 -34 -4 -17 2 -26 31 -44 31 -19 39 -20
46 -9 18 28 9 54 -26 77 -40 25 -45 27 -45 10z"/>
<path d="M3240 4121 c0 -34 6 -44 37 -70 21 -17 41 -31 45 -31 5 0 8 18 8 40
0 35 -4 42 -45 70 l-45 31 0 -40z"/>
<path d="M2016 3177 c-39 -33 -39 -34 -15 -40 40 -11 53 -8 87 24 38 34 38 37
-4 44 -23 5 -37 -1 -68 -28z"/>
<path d="M247 1273 c-4 -3 -7 -57 -7 -120 l0 -113 86 0 c59 0 97 5 120 16 95
45 78 185 -25 214 -41 11 -164 14 -174 3z"/>
<path d="M983 1120 c-27 -16 -63 -65 -63 -85 0 -3 56 -5 125 -5 81 0 125 4
125 10 0 28 -35 73 -65 86 -47 19 -84 18 -122 -6z"/>
<path d="M2020 210 c-11 -11 -20 -31 -20 -45 0 -30 32 -65 60 -65 28 0 60 35
60 65 0 30 -32 65 -60 65 -11 0 -29 -9 -40 -20z"/>
<path d="M512 253 l3 -38 48 1 c57 0 88 24 71 52 -8 12 -27 18 -68 20 l-57 3
3 -38z"/>
<path d="M512 143 c3 -37 5 -38 44 -41 52 -4 94 12 94 36 0 31 -22 42 -83 42
l-58 0 3 -37z"/>
<path d="M1022 253 c3 -36 5 -38 38 -39 45 -1 76 10 83 30 10 27 -21 46 -74
46 l-50 0 3 -37z"/>
<path d="M1022 143 c3 -37 4 -38 49 -41 60 -4 98 23 80 56 -10 19 -20 22 -72
22 l-60 0 3 -37z"/>
<path d="M2624 276 c-3 -8 -4 -31 -2 -52 3 -38 4 -39 45 -42 32 -2 47 2 62 17
26 26 26 46 1 71 -24 24 -98 28 -106 6z"/>
<path d="M2270 211 c-15 -30 -14 -31 45 -31 38 0 55 4 55 13 0 39 -81 53 -100
18z"/>
<path d="M1785 146 c-26 -19 -13 -46 23 -46 32 0 52 16 52 42 0 22 -47 25 -75
4z"/>
<path d="M3005 146 c-26 -19 -13 -46 23 -46 33 0 57 22 48 45 -7 19 -46 20
-71 1z"/>
<path d="M3536 211 c-46 -51 13 -133 69 -97 33 22 41 60 21 91 -20 31 -65 34
-90 6z"/>
</g>
</svg>
