<?xml version="1.0" standalone="no"?>
<!DOCTYPE svg PUBLIC "-//W3C//DTD SVG 20010904//EN"
 "http://www.w3.org/TR/2001/REC-SVG-20010904/DTD/svg10.dtd">
<svg version="1.0" xmlns="http://www.w3.org/2000/svg"
 width="288.000000pt" height="382.000000pt" viewBox="0 0 288.000000 382.000000"
 preserveAspectRatio="xMidYMid meet">
<metadata>
Created by potrace 1.16, written by Peter Selinger 2001-2019
</metadata>
<g transform="translate(0.000000,382.000000) scale(0.100000,-0.100000)"
fill="#000000" stroke="none">
<path d="M0 1910 l0 -1910 1440 0 1440 0 0 1910 0 1910 -1440 0 -1440 0 0
-1910z m1643 1655 c47 -8 118 -27 158 -41 70 -25 74 -26 104 -10 89 47 276 69
367 42 55 -16 119 -58 107 -70 -3 -4 -33 6 -65 21 -51 24 -71 28 -149 28 -56
-1 -112 -8 -150 -19 -142 -43 -303 -136 -444 -260 -48 -41 -80 -62 -90 -58
-22 8 108 125 232 209 70 47 95 69 85 74 -8 4 -48 18 -89 29 -115 33 -333 39
-462 11 -54 -11 -112 -27 -130 -34 -83 -36 -88 -37 -109 -26 -11 6 -16 15 -12
19 22 21 207 78 304 93 64 10 266 6 343 -8z m640 -89 c37 -18 56 -56 20 -41
-10 5 -44 15 -77 23 -48 13 -67 13 -102 4 -25 -7 -57 -12 -72 -12 -16 0 -32
-3 -35 -6 -3 -4 25 -29 64 -56 76 -53 215 -189 224 -219 4 -10 2 -26 -3 -35
-7 -13 -15 -7 -46 34 -48 66 -131 141 -224 204 l-75 51 -56 -28 c-81 -39 -207
-125 -280 -190 -47 -42 -66 -54 -75 -45 -24 24 227 216 360 275 144 65 292 81
377 41z m-1832 -63 c-38 -137 21 -329 158 -511 85 -112 245 -252 349 -306 32
-17 44 -46 18 -46 -7 0 -30 11 -50 25 -20 14 -39 25 -42 25 -3 0 -43 30 -88
68 -127 105 -253 248 -303 347 l-21 39 -26 -51 c-57 -113 -79 -200 -83 -333
-6 -148 8 -228 63 -357 43 -105 51 -133 35 -133 -14 0 -59 94 -98 207 -26 73
-28 88 -27 248 0 159 2 175 27 248 15 43 42 107 60 143 l33 66 -20 56 c-28 78
-30 245 -3 286 24 36 31 28 18 -21z m513 41 c9 -3 16 -9 16 -14 0 -4 -38 -30
-85 -59 -50 -30 -127 -92 -184 -147 -78 -75 -100 -91 -105 -78 -13 35 136 179
270 261 38 23 70 42 71 42 1 1 8 -2 17 -5z m-454 -123 c0 -41 8 -96 21 -135
17 -56 23 -66 38 -61 22 7 36 -21 20 -41 -7 -9 -7 -19 2 -36 34 -66 100 -149
171 -217 44 -43 85 -88 91 -101 7 -14 27 -29 47 -35 60 -19 90 -38 90 -57 0
-10 -2 -18 -5 -18 -18 0 -166 111 -237 179 -185 175 -293 401 -264 555 11 59
26 41 26 -33z m1215 -331 c143 -88 268 -169 279 -179 13 -14 17 -27 12 -45
l-6 -26 -558 2 -557 3 0 33 c0 31 6 36 270 202 149 93 277 169 285 170 8 0
132 -72 275 -160z m635 74 c0 -32 -28 -31 -36 0 -3 14 -3 30 1 36 11 17 35 -8
35 -36z m101 -214 c61 -184 50 -362 -38 -568 l-35 -83 26 -58 c58 -130 73
-304 31 -368 -23 -34 -30 -18 -16 34 41 147 -44 381 -208 568 -53 60 -158 151
-233 202 -38 24 -68 51 -68 59 0 22 12 17 96 -38 108 -72 281 -244 319 -317 8
-17 19 -31 24 -31 13 0 77 176 90 244 22 118 7 277 -35 373 -44 102 -54 136
-42 151 10 11 16 6 35 -30 12 -24 37 -86 54 -138z m-66 -52 c6 -24 4 -28 -13
-28 -25 0 -35 25 -21 52 13 23 25 15 34 -24z m-1861 -26 c-4 -13 -14 -22 -25
-22 -22 0 -23 8 -9 46 9 24 13 26 25 13 9 -8 12 -23 9 -37z m1884 -80 c3 -27
0 -32 -17 -32 -17 0 -21 6 -21 36 0 28 3 35 18 32 11 -2 18 -14 20 -36z
m-1900 -9 c-2 -17 -10 -29 -20 -31 -14 -3 -18 3 -18 27 0 25 4 31 21 31 16 0
20 -5 17 -27z m1345 8 c4 -1 6 -90 5 -198 l-3 -198 -75 0 -75 0 -3 190 c-1
104 -1 194 1 200 4 8 73 11 150 6z m-665 -198 l-3 -198 -75 0 -75 0 -3 198 -2
197 80 0 80 0 -2 -197z m220 0 l-3 -198 -54 -3 c-30 -2 -65 -1 -78 3 l-23 5 0
195 0 195 80 0 80 0 -2 -197z m223 3 c0 -104 -4 -193 -9 -198 -5 -5 -38 -8
-73 -6 l-64 3 -3 198 -2 198 75 -3 76 -3 0 -189z m-991 154 c0 -5 -7 -10 -15
-10 -18 0 -20 -26 -2 -34 10 -5 10 -7 0 -12 -20 -9 -15 -24 7 -24 11 0 20 -4
20 -8 0 -4 -15 -8 -34 -8 l-34 0 3 44 c3 43 16 62 43 62 6 0 12 -4 12 -10z
m1655 -27 c-4 -10 -7 -28 -6 -41 0 -13 -5 -29 -12 -37 -20 -20 -42 4 -43 48
-1 36 10 50 19 25 3 -10 10 -8 23 5 10 9 20 17 22 17 2 0 1 -8 -3 -17z m-1791
-19 c12 -30 7 -84 -8 -84 -17 0 -26 21 -26 59 0 41 22 57 34 25z m1904 -31
c-2 -35 -7 -48 -18 -48 -11 0 -16 13 -18 48 -3 42 -1 47 18 47 19 0 21 -5 18
-47z m-412 -58 c78 -53 210 -185 263 -263 94 -140 142 -291 127 -397 -11 -69
-32 -53 -28 21 4 74 -10 136 -50 222 -68 145 -182 280 -320 380 -50 35 -78 62
-78 74 0 21 -3 23 86 -37z m-1207 -265 c6 0 11 5 11 10 0 6 4 10 8 10 15 0 8
-74 -7 -86 -27 -21 -49 4 -48 54 0 37 2 42 12 28 7 -9 17 -16 24 -16z m1341
10 c0 -5 -9 -10 -19 -10 -28 0 -37 -20 -9 -21 23 -1 23 -1 -2 -9 l-25 -8 25
-2 c24 -3 24 -3 2 -7 -26 -5 -20 -23 9 -23 10 0 19 -4 19 -10 0 -17 -46 -11
-62 8 -25 28 -26 45 -4 69 20 23 66 32 66 13z m-202 -19 c8 -5 12 -17 10 -27
-3 -18 -23 -19 -491 -22 -427 -2 -488 0 -493 13 -4 8 -4 22 0 30 5 13 68 15
483 15 263 0 484 -4 491 -9z m-1287 -174 c82 -128 197 -267 220 -267 28 0 161
64 240 115 83 54 178 127 178 138 1 4 -84 7 -188 7 -203 0 -216 3 -209 52 l3
23 557 3 558 2 6 -26 c13 -51 -4 -54 -293 -54 l-264 0 -92 -81 c-50 -45 -124
-103 -162 -129 -61 -41 -210 -125 -255 -143 -11 -4 -2 -18 35 -52 86 -80 216
-188 315 -261 150 -111 126 -107 222 -42 110 75 297 224 378 302 42 40 71 61
83 59 9 -3 17 -8 17 -13 0 -9 -114 -118 -201 -190 -75 -62 -220 -170 -302
-225 l-57 -38 -68 45 c-89 59 -249 185 -341 267 -155 139 -150 135 -177 122
-41 -18 -217 -15 -274 5 -53 19 -98 49 -88 59 3 4 39 -5 80 -20 65 -24 83 -26
163 -22 138 8 287 64 430 160 75 51 182 136 214 171 l24 26 -30 0 c-19 0 -38
-9 -54 -26 -40 -44 -200 -158 -279 -201 -126 -68 -199 -88 -320 -88 -86 0
-111 3 -134 18 -41 28 -19 39 41 21 39 -11 69 -13 117 -7 l65 8 -87 112 c-48
61 -109 148 -136 192 -42 70 -47 83 -35 97 12 15 14 15 24 -1 5 -9 40 -63 76
-118z m1649 8 c0 -47 -243 -345 -281 -345 -10 0 -19 4 -19 9 0 5 30 42 66 82
82 91 141 168 183 237 33 53 51 59 51 17z m-360 -94 c0 -5 -7 -11 -15 -15 -21
-8 -19 -26 3 -26 15 -1 15 -2 -3 -16 -19 -14 -19 -15 3 -20 34 -9 26 -22 -12
-21 -33 1 -34 2 -30 40 2 22 9 46 15 53 13 16 39 19 39 5z m798 -1039 c16 -22
15 -42 -5 -64 -21 -24 -58 -23 -83 2 -23 23 -25 40 -7 62 24 31 70 31 95 0z
m-1368 -135 l5 -118 65 66 c61 62 67 65 112 65 26 0 48 -3 48 -6 0 -4 -27 -35
-60 -71 l-61 -64 64 -82 c89 -114 87 -107 23 -107 l-54 0 -52 65 c-50 62 -53
65 -71 49 -11 -10 -19 -33 -21 -63 l-3 -46 -47 -3 -48 -3 0 221 0 221 48 -3
47 -3 5 -118z m-969 93 c19 -5 48 -23 64 -40 23 -24 29 -41 33 -87 3 -49 0
-64 -20 -93 -32 -47 -68 -63 -158 -69 l-75 -6 0 -55 0 -55 -52 -3 -53 -3 0
210 0 211 113 0 c61 0 128 -5 148 -10z m399 -102 c48 -33 72 -70 77 -122 l6
-46 -122 0 c-66 0 -121 -4 -121 -8 0 -13 43 -49 66 -56 12 -4 40 1 63 10 41
16 43 16 66 -6 20 -18 22 -26 13 -37 -41 -50 -155 -59 -225 -18 -110 65 -104
232 9 288 49 25 128 22 168 -5z m408 -9 c2 -21 -14 -47 -72 -118 -42 -50 -76
-93 -76 -96 0 -3 36 -5 80 -5 l80 0 0 -40 0 -40 -150 0 -150 0 0 29 c0 22 20
52 80 123 l80 93 -78 5 c-71 5 -77 7 -80 28 -8 51 -3 53 145 50 l138 -3 3 -26z
m552 -65 c0 -100 7 -127 41 -145 25 -13 74 4 84 29 4 10 10 61 13 115 l5 98
46 -3 46 -3 0 -160 0 -160 -47 -3 c-38 -2 -48 0 -48 12 0 20 -9 20 -34 1 -12
-9 -42 -15 -72 -15 -42 0 -59 5 -83 26 -40 33 -51 77 -51 202 l0 102 50 0 50
0 0 -96z m400 11 c33 -102 39 -119 45 -113 3 3 20 47 39 99 l33 94 43 0 43 0
28 -80 c48 -142 41 -140 81 -24 l35 104 38 3 c21 2 41 0 46 -5 4 -4 -18 -78
-50 -163 l-57 -155 -48 0 -48 0 -30 85 c-16 47 -33 88 -36 92 -4 4 -22 -35
-41 -87 l-33 -95 -48 0 -48 0 -56 158 c-31 86 -56 161 -56 165 0 4 21 7 47 5
l47 -3 26 -80z m580 -80 l0 -165 -50 0 -50 0 0 158 c0 87 3 162 7 165 3 4 26
7 50 7 l43 0 0 -165z m-940 -419 c0 -41 4 -77 8 -80 5 -3 26 13 47 34 22 22
47 40 57 40 25 0 23 -9 -13 -46 l-31 -32 37 -49 c32 -41 34 -48 19 -52 -12 -2
-30 11 -51 35 -27 33 -35 37 -50 28 -10 -6 -19 -25 -21 -43 -3 -24 -8 -31 -20
-29 -15 3 -17 21 -20 136 -2 127 -2 132 18 132 18 0 20 -6 20 -74z m-618 42
c23 -19 29 -50 15 -78 -11 -22 -11 -29 7 -53 16 -22 18 -33 10 -55 -12 -35
-57 -51 -146 -51 l-68 -1 0 125 0 125 83 0 c51 0 89 -5 99 -12z m234 -69 c15
-17 19 -35 17 -91 -2 -76 -6 -87 -26 -69 -10 8 -22 8 -46 0 -36 -13 -85 2 -96
28 -16 42 23 73 91 73 31 0 35 3 32 23 -3 20 -8 22 -55 21 -38 -1 -53 2 -53
11 0 18 16 23 71 24 35 1 51 -4 65 -20z m129 11 c4 -7 12 -7 25 0 29 15 81 12
102 -7 14 -13 18 -31 18 -95 0 -43 -2 -78 -4 -78 -28 0 -36 16 -36 76 0 59 -2
65 -25 76 -19 8 -31 8 -50 0 -23 -11 -25 -17 -25 -77 0 -58 -2 -65 -20 -65
-19 0 -20 7 -20 90 0 72 3 90 14 90 8 0 18 -5 21 -10z"/>
<path d="M1817 2663 c-11 -11 -8 -313 3 -313 6 0 10 60 10 160 0 88 -1 160 -3
160 -2 0 -7 -3 -10 -7z"/>
<path d="M1075 2659 c-10 -26 -1 -304 10 -302 14 4 19 293 6 306 -7 7 -12 5
-16 -4z"/>
<path d="M246 824 c-8 -20 -7 -72 1 -103 5 -21 10 -23 59 -19 89 8 122 61 69
113 -19 20 -34 25 -73 25 -36 0 -52 -4 -56 -16z"/>
<path d="M665 735 c-39 -38 -32 -45 45 -45 63 0 70 2 70 19 0 24 -36 51 -68
51 -12 0 -34 -11 -47 -25z"/>
<path d="M1042 233 c3 -36 5 -38 38 -41 37 -2 81 15 87 34 8 24 -28 44 -78 44
l-50 0 3 -37z"/>
<path d="M1052 161 c-8 -5 -12 -22 -10 -42 3 -29 7 -34 32 -37 83 -10 134 31
86 70 -23 19 -85 24 -108 9z"/>
<path d="M1322 131 c-21 -13 -10 -46 16 -49 28 -4 52 14 52 39 0 14 -7 19 -27
19 -16 0 -34 -4 -41 -9z"/>
</g>
</svg>
