<?xml version="1.0" standalone="no"?>
<!DOCTYPE svg PUBLIC "-//W3C//DTD SVG 20010904//EN"
 "http://www.w3.org/TR/2001/REC-SVG-20010904/DTD/svg10.dtd">
<svg version="1.0" xmlns="http://www.w3.org/2000/svg"
 width="814.000000pt" height="811.000000pt" viewBox="0 0 814.000000 811.000000"
 preserveAspectRatio="xMidYMid meet">
<metadata>
Created by potrace 1.16, written by Peter Selinger 2001-2019
</metadata>
<g transform="translate(0.000000,811.000000) scale(0.100000,-0.100000)"
fill="#000000" stroke="none">
<path d="M3775 7969 c-361 -29 -748 -111 -1051 -224 -1194 -446 -2091 -1443
-2402 -2670 -138 -545 -158 -1074 -60 -1635 176 -1019 786 -1951 1653 -2531
611 -408 1294 -624 2040 -646 1052 -31 2070 373 2816 1117 479 478 798 1014
985 1655 94 321 154 738 154 1070 0 326 -59 742 -150 1057 -378 1310 -1395
2324 -2684 2677 -425 116 -891 163 -1301 130z m635 -2137 c443 -97 831 -360
1077 -732 190 -287 293 -626 293 -965 0 -544 -255 -1049 -695 -1375 -296 -220
-643 -335 -1010 -333 -469 1 -885 179 -1216 519 -179 185 -292 363 -380 604
-351 958 212 2015 1205 2266 148 38 202 43 426 40 162 -3 225 -8 300 -24z"/>
<path d="M4052 5449 c-202 -54 -391 -189 -519 -370 -59 -84 -128 -226 -150
-313 -14 -54 -23 -71 -44 -82 -37 -19 -75 -66 -89 -111 -33 -102 -88 -171
-204 -255 -149 -108 -184 -158 -171 -244 9 -62 46 -104 93 -105 32 -1 34 -2
12 -8 -40 -11 -29 -32 35 -65 70 -36 72 -38 81 -91 9 -54 30 -95 68 -127 40
-35 46 -35 46 3 0 17 16 63 35 102 27 55 35 83 35 127 l0 56 143 10 c107 8
154 16 192 32 45 20 48 20 27 3 -12 -11 -28 -21 -35 -24 -7 -3 6 -23 34 -53
86 -91 162 -226 224 -399 46 -127 65 -203 79 -320 l12 -100 27 46 c15 25 32
61 38 80 19 54 29 57 29 8 0 -57 30 -176 64 -251 l26 -58 67 25 c408 154 788
631 828 1040 4 39 9 77 11 86 4 14 -9 17 -83 22 -211 13 -423 104 -788 337
-66 42 -137 83 -159 92 l-38 15 58 21 c92 33 169 123 187 218 5 28 3 32 -21
37 -51 10 -295 -9 -335 -26 -35 -15 -37 -15 -28 1 18 34 187 188 258 235 241
160 494 197 721 106 41 -16 77 -28 79 -25 9 8 -69 86 -120 119 -117 77 -294
124 -427 114 -236 -19 -543 -208 -694 -430 -67 -97 -73 -91 -12 13 115 196
305 358 501 427 76 27 88 28 253 27 l173 0 -45 23 c-77 39 -151 53 -281 52
-86 0 -141 -6 -193 -20z m-553 -895 c2 -2 -1 -15 -7 -29 -8 -17 -20 -25 -36
-25 -13 0 -38 -3 -56 -7 l-33 -6 19 31 c20 35 57 53 89 45 11 -3 22 -7 24 -9z
m-342 -801 c-3 -10 -5 -2 -5 17 0 19 2 27 5 18 2 -10 2 -26 0 -35z"/>
</g>
</svg>
