<?xml version="1.0" standalone="no"?>
<!DOCTYPE svg PUBLIC "-//W3C//DTD SVG 20010904//EN"
 "http://www.w3.org/TR/2001/REC-SVG-20010904/DTD/svg10.dtd">
<svg version="1.0" xmlns="http://www.w3.org/2000/svg"
 width="2048.000000pt" height="2048.000000pt" viewBox="0 0 2048.000000 2048.000000"
 preserveAspectRatio="xMidYMid meet">
<metadata>
Created by potrace 1.16, written by Peter Selinger 2001-2019
</metadata>
<g transform="translate(0.000000,2048.000000) scale(0.100000,-0.100000)"
fill="#000000" stroke="none">
<path d="M10078 18595 c-2 -1 -86 -5 -188 -9 -354 -12 -1016 -89 -1260 -147
-47 -11 -130 -29 -185 -40 -264 -54 -436 -101 -830 -229 -505 -164 -947 -363
-1560 -704 -11 -6 -47 -29 -80 -50 -33 -22 -80 -50 -105 -64 -38 -22 -235
-151 -415 -272 -48 -33 -199 -145 -239 -177 -11 -9 -47 -37 -80 -62 -34 -25
-63 -48 -66 -51 -3 -3 -32 -27 -65 -52 -55 -43 -109 -88 -160 -136 -11 -10
-38 -31 -60 -47 -22 -16 -42 -31 -45 -34 -3 -4 -50 -46 -105 -96 -55 -49 -104
-96 -108 -103 -5 -7 -15 -18 -24 -25 -35 -26 -354 -348 -448 -452 -220 -243
-424 -492 -566 -690 -35 -49 -74 -103 -86 -120 -121 -168 -413 -628 -413 -649
0 -4 -12 -25 -27 -49 -67 -105 -235 -425 -301 -572 -88 -199 -152 -347 -186
-433 -88 -222 -132 -344 -151 -412 -7 -25 -29 -97 -50 -160 -82 -259 -107
-347 -151 -526 -25 -103 -48 -197 -50 -208 -20 -90 -75 -403 -89 -496 -9 -63
-18 -126 -20 -140 -9 -56 -50 -459 -59 -585 -19 -240 -25 -782 -11 -1000 3
-55 8 -136 11 -180 15 -246 92 -815 144 -1070 113 -551 317 -1193 536 -1682
145 -325 362 -735 529 -1003 82 -130 380 -569 394 -580 4 -3 46 -57 93 -120
48 -63 117 -153 153 -200 217 -277 695 -769 985 -1014 14 -11 59 -50 101 -86
42 -36 85 -72 95 -80 11 -8 48 -38 84 -67 485 -388 985 -707 1535 -977 433
-213 671 -312 1075 -445 309 -103 439 -140 775 -219 227 -54 502 -103 770
-137 28 -4 59 -8 70 -10 148 -22 270 -35 550 -55 118 -8 887 -5 955 4 19 2 71
7 115 10 104 7 264 24 340 36 33 5 80 12 105 15 420 56 906 156 1181 241 25 8
54 16 65 19 10 2 55 15 99 30 44 14 127 41 185 60 150 48 394 138 550 203 377
158 777 359 1105 556 33 20 77 46 98 58 96 56 532 352 622 421 370 286 477
376 774 652 170 158 510 515 585 613 11 15 36 45 55 68 44 50 68 79 103 126
15 20 34 42 41 50 91 93 472 635 630 898 159 266 346 621 449 855 20 44 54
122 77 173 165 370 389 1072 466 1457 8 39 25 124 39 190 21 102 34 180 61
370 5 35 13 105 19 155 2 19 7 46 10 60 5 25 10 66 21 190 3 36 10 115 15 175
20 220 25 346 25 660 0 286 -8 557 -20 625 -2 14 -6 61 -9 105 -6 71 -15 166
-32 305 -29 253 -82 570 -125 755 -17 72 -40 171 -51 220 -78 344 -293 991
-418 1262 -18 37 -41 91 -52 118 -29 75 -264 547 -317 639 -26 45 -74 127
-107 184 -107 187 -123 212 -181 298 -32 47 -74 111 -94 143 -53 85 -140 196
-151 193 -5 -1 -7 2 -3 8 5 8 -89 146 -153 225 -4 6 -54 69 -112 140 -57 72
-108 135 -114 140 -6 6 -36 39 -66 75 -98 117 -222 253 -360 394 -152 156
-262 262 -366 355 -27 25 -74 68 -104 95 -31 28 -76 67 -100 86 -25 19 -85 69
-135 110 -102 85 -94 78 -200 163 -241 192 -688 484 -1090 712 -242 137 -882
434 -995 461 -3 0 -14 4 -25 9 -270 106 -404 150 -780 260 -27 8 -129 33 -225
55 -96 22 -184 43 -195 45 -192 49 -632 118 -915 145 -63 6 -131 13 -150 15
-126 15 -362 27 -592 30 -147 2 -268 2 -270 0z m687 -454 c289 -20 640 -65
905 -116 69 -13 141 -27 160 -30 221 -38 696 -172 1060 -299 142 -50 142 -50
234 -90 32 -14 63 -26 69 -26 5 0 39 -13 74 -30 34 -16 65 -30 68 -30 20 0
534 -253 705 -346 47 -26 159 -92 250 -146 91 -54 174 -104 185 -111 11 -7 22
-14 25 -17 3 -3 73 -50 155 -105 83 -54 156 -105 163 -112 8 -7 22 -18 32 -23
40 -21 344 -258 470 -366 14 -12 57 -48 95 -82 39 -33 96 -81 127 -108 68 -59
515 -510 609 -615 55 -61 185 -215 236 -279 266 -332 541 -732 698 -1013 17
-30 35 -61 41 -68 6 -8 42 -72 79 -144 37 -71 82 -157 101 -190 42 -77 163
-339 221 -480 25 -60 51 -123 58 -140 73 -161 236 -651 305 -915 50 -192 94
-403 144 -690 39 -220 40 -229 65 -455 11 -99 23 -220 26 -270 4 -49 8 -106
11 -125 2 -19 6 -161 10 -315 6 -245 -4 -600 -21 -790 -13 -137 -36 -363 -40
-390 -3 -16 -14 -91 -25 -165 -66 -459 -176 -911 -335 -1385 -184 -551 -473
-1154 -788 -1645 -233 -364 -409 -604 -654 -891 -297 -349 -744 -790 -1038
-1025 -33 -26 -80 -64 -105 -84 -191 -155 -560 -412 -807 -562 -252 -153 -648
-360 -923 -482 -58 -26 -118 -53 -135 -61 -132 -60 -582 -223 -730 -265 -16
-5 -77 -22 -135 -40 -364 -107 -791 -195 -1195 -246 -22 -2 -51 -7 -65 -9 -14
-2 -54 -7 -90 -10 -36 -3 -76 -8 -90 -10 -14 -2 -77 -7 -140 -11 -63 -4 -164
-10 -225 -14 -280 -18 -989 3 -1185 35 -14 2 -50 7 -80 10 -290 31 -831 131
-1078 200 -219 62 -398 114 -462 136 -156 52 -447 159 -525 194 -16 7 -64 28
-105 45 -41 18 -154 70 -250 115 -96 45 -202 95 -235 110 -33 15 -89 44 -125
65 -36 21 -101 57 -145 80 -87 46 -496 291 -517 310 -7 6 -44 31 -83 57 -68
44 -185 128 -330 236 -63 46 -274 218 -425 344 -171 143 -599 570 -786 783
-209 239 -484 599 -645 845 -333 506 -663 1163 -834 1655 -26 74 -58 166 -71
204 -29 81 -140 472 -183 642 -65 260 -154 800 -177 1069 -3 39 -7 80 -9 93
-2 12 -7 86 -10 165 -4 78 -8 148 -11 156 -5 17 -5 717 0 751 2 14 7 77 11
140 11 195 45 529 65 645 5 28 12 68 15 90 3 22 7 47 10 55 2 8 6 33 10 55 20
147 85 448 135 630 17 61 43 157 59 215 64 233 175 543 291 815 28 66 64 152
80 190 92 229 338 688 520 975 25 39 56 89 70 110 52 83 187 276 225 325 23
27 63 81 90 119 85 119 224 293 385 480 157 183 573 594 730 722 19 16 41 34
48 41 7 7 34 29 59 50 26 21 61 51 78 67 16 15 66 56 110 89 44 34 85 65 90
69 132 103 165 127 190 143 17 11 32 22 35 25 8 9 178 123 208 140 15 8 29 18
30 23 2 4 8 7 12 7 5 0 29 14 52 31 94 66 221 147 322 204 58 33 143 82 189
108 108 63 518 265 654 322 59 25 117 50 128 55 113 54 611 230 775 274 30 8
96 26 145 40 152 41 289 78 310 82 11 2 54 11 95 19 41 8 86 17 100 20 49 10
246 46 280 51 19 3 89 14 155 24 143 22 349 47 460 55 44 4 96 8 115 10 19 2
118 7 220 11 102 4 187 8 189 10 7 6 537 -5 686 -15z"/>
<path d="M10060 17997 c-3 -2 -86 -7 -185 -10 -272 -10 -399 -21 -700 -63
-465 -65 -1007 -188 -1320 -299 -55 -20 -145 -51 -200 -70 -173 -58 -320 -116
-472 -186 -24 -10 -45 -19 -48 -19 -8 0 -199 -92 -408 -196 -186 -94 -470
-257 -462 -266 3 -3 -1 -5 -7 -5 -33 0 -548 -342 -669 -443 -9 -8 -30 -24 -45
-35 -86 -63 -355 -283 -439 -360 -55 -49 -121 -110 -148 -135 -28 -25 -57 -53
-66 -64 -9 -10 -22 -24 -30 -30 -21 -17 -289 -285 -346 -347 -83 -90 -134
-156 -127 -164 4 -5 2 -5 -5 -1 -14 8 -45 -33 -36 -47 3 -6 2 -7 -4 -4 -19 12
-294 -325 -445 -549 -30 -43 -84 -122 -121 -176 -37 -53 -67 -101 -67 -106 0
-6 -4 -12 -9 -14 -5 -1 -39 -52 -75 -113 -37 -60 -71 -117 -76 -125 -6 -8 -14
-24 -19 -36 -5 -12 -25 -45 -44 -75 -91 -143 -342 -659 -431 -889 -21 -52 -47
-117 -58 -145 -122 -294 -299 -906 -367 -1265 -62 -326 -108 -673 -126 -950
-4 -52 -9 -111 -11 -130 -9 -74 -12 -722 -4 -850 28 -418 73 -763 154 -1180
32 -160 54 -253 131 -535 36 -133 155 -498 166 -509 5 -6 9 -16 9 -23 0 -32
199 -507 308 -734 66 -137 176 -343 257 -479 18 -30 51 -86 74 -125 98 -170
344 -536 420 -627 6 -7 51 -65 99 -129 96 -127 212 -270 252 -309 14 -14 37
-41 51 -60 93 -123 506 -533 734 -729 133 -114 172 -147 260 -217 210 -166
626 -464 649 -464 3 0 27 -15 53 -34 47 -33 355 -213 461 -269 28 -16 52 -25
52 -20 0 4 4 3 8 -4 9 -14 364 -193 512 -258 165 -72 499 -202 541 -210 9 -2
30 -10 46 -18 15 -8 42 -18 58 -22 17 -5 35 -9 40 -11 6 -1 53 -17 105 -34 52
-17 136 -42 185 -56 50 -14 97 -27 105 -29 313 -88 951 -208 1225 -230 44 -4
91 -8 105 -10 158 -24 861 -37 1115 -21 99 6 343 27 485 42 46 5 258 38 375
59 438 79 436 78 762 167 45 12 79 26 76 32 -3 5 -1 6 5 2 30 -18 657 195 868
295 22 10 43 19 47 19 15 0 440 206 612 298 202 106 429 242 590 352 241 164
345 237 475 337 42 32 226 178 230 183 3 3 41 36 85 74 181 156 409 367 489
455 17 18 58 61 91 96 59 61 184 197 225 245 12 14 31 36 43 50 148 172 183
216 331 415 53 72 99 135 104 140 4 6 27 39 51 75 25 36 47 67 50 70 20 18
226 347 319 510 11 19 36 64 57 100 61 105 259 507 305 615 22 55 64 154 92
220 89 213 198 525 249 710 134 494 191 765 244 1155 3 25 10 77 15 115 5 39
12 104 15 145 4 41 8 86 10 100 32 227 38 989 10 1245 -2 22 -7 69 -10 105 -3
36 -10 103 -15 150 -6 47 -12 108 -15 135 -3 28 -10 77 -15 110 -5 33 -12 80
-15 105 -3 25 -11 70 -17 100 -6 30 -12 62 -13 70 -1 8 -5 29 -8 45 -4 17 -9
46 -12 65 -5 33 -30 170 -39 215 -30 150 -146 577 -201 740 -22 63 -88 250
-129 365 -14 38 -66 166 -96 235 -92 213 -130 294 -222 475 -101 197 -136 262
-224 412 -17 29 -47 81 -66 114 -34 60 -227 354 -238 364 -3 3 -30 41 -59 85
-127 187 -232 323 -440 565 -35 41 -75 89 -89 105 -144 171 -514 538 -732 725
-35 30 -71 62 -79 70 -15 13 -83 70 -135 110 -10 8 -39 32 -64 53 -25 21 -57
46 -71 55 -14 9 -37 27 -51 39 -14 13 -28 23 -31 23 -3 0 -22 13 -40 30 -19
16 -37 30 -41 30 -4 0 -13 6 -20 13 -18 18 -94 72 -273 192 -349 235 -748 453
-1220 665 -104 47 -365 149 -480 188 -66 23 -153 53 -192 67 -70 24 -121 39
-443 126 -185 51 -441 104 -690 144 -19 3 -57 10 -85 15 -56 11 -319 45 -410
54 -209 20 -922 45 -935 33z m575 -461 c17 -2 82 -7 145 -10 102 -6 154 -11
345 -31 74 -8 198 -25 226 -30 13 -3 51 -10 84 -16 168 -30 472 -93 579 -120
257 -65 724 -215 853 -274 17 -8 34 -15 38 -15 35 0 595 -263 805 -378 177
-97 434 -250 519 -310 417 -291 523 -372 836 -640 186 -159 590 -568 720 -728
22 -27 50 -60 63 -74 31 -34 236 -299 297 -384 113 -158 187 -265 227 -330 24
-37 55 -87 70 -110 26 -39 46 -73 119 -199 19 -32 39 -66 44 -75 95 -158 295
-563 362 -732 14 -36 35 -85 46 -110 11 -25 30 -74 43 -110 12 -36 32 -90 44
-120 115 -294 263 -838 315 -1160 3 -19 8 -48 10 -65 3 -16 10 -50 15 -75 5
-25 17 -98 25 -162 9 -65 18 -126 20 -137 2 -11 7 -51 10 -88 4 -37 9 -70 10
-73 2 -3 6 -61 10 -130 4 -69 9 -134 11 -145 2 -11 7 -153 10 -315 10 -452
-18 -894 -82 -1275 -13 -82 -27 -163 -30 -180 -14 -86 -87 -432 -108 -510 -56
-213 -143 -495 -216 -695 -83 -229 -88 -241 -132 -338 -15 -34 -28 -64 -28
-67 0 -3 -16 -40 -36 -82 -20 -43 -43 -96 -52 -118 -8 -22 -18 -44 -22 -50 -5
-5 -41 -75 -82 -155 -226 -438 -544 -931 -788 -1220 -26 -30 -91 -109 -145
-175 -196 -239 -592 -642 -781 -796 -44 -35 -88 -72 -99 -82 -43 -40 -333
-268 -415 -327 -304 -217 -605 -403 -917 -566 -60 -31 -112 -60 -118 -64 -5
-4 -48 -24 -95 -45 -47 -21 -121 -56 -165 -77 -170 -83 -738 -294 -910 -338
-16 -5 -100 -28 -186 -53 -86 -25 -194 -53 -240 -62 -46 -9 -133 -27 -194 -40
-114 -25 -362 -69 -450 -79 -27 -4 -61 -8 -75 -11 -49 -9 -337 -35 -475 -42
-308 -17 -968 -5 -1205 22 -42 5 -113 12 -195 20 -32 4 -62 8 -65 10 -3 2 -29
6 -58 10 -228 29 -684 127 -917 197 -55 16 -122 36 -150 44 -63 17 -391 131
-510 177 -490 188 -1026 473 -1499 797 -139 95 -529 393 -576 440 -3 3 -23 20
-45 39 -107 90 -246 221 -405 380 -184 185 -198 200 -350 376 -52 61 -97 112
-100 115 -8 8 -233 292 -261 330 -86 117 -247 355 -331 490 -43 69 -83 132
-88 140 -47 67 -324 612 -390 765 -88 204 -100 234 -164 407 -89 239 -182 546
-256 848 -28 110 -97 462 -109 556 -7 44 -13 89 -15 100 -5 25 -14 95 -21 169
-4 33 -8 69 -10 81 -2 11 -6 65 -10 120 -4 54 -9 102 -11 106 -6 9 -19 401
-19 548 0 129 13 482 19 520 3 14 7 68 11 120 3 52 8 104 10 115 2 11 7 49 10
85 3 36 8 79 10 95 40 296 60 412 112 655 20 91 37 172 38 180 3 23 49 180
117 398 11 34 21 68 22 75 4 21 36 119 66 197 16 41 47 127 70 190 37 101 106
259 214 495 18 39 41 89 51 113 10 23 22 42 27 42 4 0 8 9 8 19 0 11 3 21 8
23 4 2 23 35 42 73 36 72 141 257 202 355 19 30 45 75 59 100 13 25 27 49 32
55 4 5 50 74 103 153 127 192 220 319 324 446 19 24 49 60 65 82 34 44 136
167 145 174 3 3 16 18 29 35 12 16 55 64 94 106 40 41 106 113 147 158 41 46
97 104 125 129 88 83 115 112 115 123 0 5 4 8 9 4 5 -3 18 6 29 20 11 14 23
25 27 25 4 0 37 29 74 64 36 36 84 78 106 94 22 16 51 40 65 53 45 42 154 134
192 162 20 15 42 33 50 40 7 7 29 24 48 37 19 13 40 29 46 35 6 5 22 17 34 25
13 8 35 24 49 35 14 12 61 45 104 75 43 30 104 73 135 95 32 23 79 54 106 70
27 17 60 38 75 47 14 10 37 24 51 32 14 8 49 30 79 50 29 20 56 36 60 36 4 0
59 31 122 68 93 56 558 292 574 292 2 0 48 21 102 46 104 48 110 51 408 161
429 160 871 273 1370 353 132 21 141 22 365 45 85 8 175 17 200 19 25 3 104 8
175 12 72 3 132 8 134 10 5 5 596 -5 636 -10z"/>
<path d="M9965 17209 c-104 -4 -244 -12 -310 -18 -66 -6 -149 -14 -185 -17
-101 -9 -425 -58 -585 -89 -287 -55 -411 -88 -845 -224 -368 -115 -910 -357
-1246 -556 -18 -11 -53 -30 -76 -43 -24 -13 -72 -42 -108 -65 -36 -22 -98 -61
-138 -86 -40 -25 -100 -65 -132 -88 -33 -24 -90 -64 -127 -89 -104 -72 -208
-150 -317 -239 -54 -44 -110 -89 -125 -100 -33 -24 -241 -211 -291 -260 -19
-19 -38 -35 -42 -35 -5 0 -8 -7 -8 -16 0 -8 -3 -13 -8 -11 -11 7 -311 -299
-410 -418 -18 -22 -46 -56 -62 -75 -16 -19 -55 -66 -87 -105 -32 -38 -65 -77
-74 -85 -35 -34 -315 -412 -359 -485 -13 -22 -50 -80 -82 -128 -32 -48 -58
-90 -58 -93 0 -3 -13 -25 -30 -49 -16 -24 -30 -46 -30 -49 0 -4 -18 -37 -41
-74 -43 -70 -143 -256 -215 -402 -47 -95 -204 -439 -204 -448 0 -8 -60 -164
-71 -185 -13 -24 -78 -221 -119 -357 -17 -58 -40 -130 -50 -160 -27 -79 -75
-271 -99 -391 -11 -57 -34 -169 -50 -249 -27 -136 -53 -288 -65 -390 -3 -25
-8 -65 -11 -90 -3 -25 -12 -129 -20 -230 -16 -217 -14 -1077 4 -1230 6 -52 13
-120 16 -150 3 -30 7 -71 10 -90 3 -19 7 -55 10 -80 8 -63 23 -145 51 -290 14
-69 27 -136 30 -150 19 -94 89 -384 108 -448 13 -42 45 -147 70 -232 103 -350
252 -715 443 -1088 247 -483 611 -1019 936 -1382 327 -364 509 -541 857 -831
221 -184 493 -378 782 -557 200 -124 634 -351 813 -425 33 -14 109 -46 169
-71 60 -25 113 -43 118 -40 4 3 8 1 8 -5 0 -5 10 -12 23 -16 12 -3 31 -10 42
-15 72 -30 170 -64 305 -105 85 -26 180 -55 211 -66 57 -19 398 -103 454 -112
17 -3 71 -14 121 -26 102 -23 418 -77 509 -86 33 -4 70 -8 82 -10 12 -2 57 -7
100 -10 43 -4 85 -9 94 -10 52 -10 351 -20 584 -20 579 0 928 35 1410 140 11
3 34 7 50 10 377 74 958 259 1320 422 55 25 116 52 135 60 111 48 395 196 560
291 52 30 114 65 137 78 23 13 91 55 150 94 255 164 427 288 623 450 36 30 85
70 107 88 22 18 56 47 75 65 19 18 60 55 93 82 32 28 81 70 109 95 58 50 229
222 295 296 25 27 72 78 105 114 90 97 157 174 226 260 19 24 40 48 45 54 6 6
26 31 45 56 19 25 37 47 40 50 3 3 17 21 30 40 13 19 27 37 30 40 5 4 157 217
200 280 60 88 187 286 221 343 23 40 58 99 78 132 52 88 250 483 305 610 72
168 199 498 234 610 17 55 45 144 62 198 140 450 250 1047 277 1512 16 261 7
1098 -12 1158 -2 6 -6 48 -9 92 -8 106 -44 365 -61 440 -7 33 -16 78 -20 100
-7 48 -67 327 -94 440 -22 91 -61 226 -86 299 -9 26 -18 58 -21 69 -20 104
-173 508 -276 727 -22 47 -48 105 -58 130 -21 52 -134 272 -210 410 -29 52
-66 120 -83 150 -63 116 -120 200 -131 193 -5 -3 -6 -2 -3 4 4 5 -18 47 -48
93 -30 45 -55 86 -55 90 0 5 -4 10 -8 12 -5 2 -28 32 -52 68 -61 91 -139 198
-175 241 -16 20 -41 51 -55 70 -14 18 -54 67 -90 109 -36 42 -81 95 -100 119
-103 129 -191 224 -394 426 -211 209 -371 353 -586 524 -91 72 -169 135 -175
139 -59 48 -393 272 -404 272 -5 0 -11 3 -13 8 -9 22 -362 229 -568 333 -138
70 -207 103 -415 197 -196 89 -741 283 -840 299 -11 2 -31 8 -45 13 -71 27
-359 94 -584 135 -43 8 -86 17 -95 19 -29 9 -284 45 -426 60 -328 35 -681 47
-1040 35z m690 -489 c94 -5 188 -12 210 -15 22 -2 67 -7 100 -10 33 -3 71 -8
85 -10 14 -3 48 -7 75 -10 89 -10 118 -15 205 -31 104 -19 311 -62 365 -75 22
-5 49 -11 60 -14 50 -9 191 -47 345 -93 98 -29 365 -119 418 -141 26 -11 103
-42 172 -69 142 -57 219 -92 440 -199 144 -71 226 -116 405 -222 39 -23 79
-48 90 -54 105 -63 434 -287 505 -344 8 -7 69 -55 135 -108 403 -322 738 -660
1087 -1095 141 -176 321 -436 428 -617 38 -65 74 -123 80 -130 5 -7 10 -14 10
-16 0 -3 30 -58 67 -123 60 -107 115 -218 242 -488 98 -208 304 -801 337 -970
2 -10 10 -42 18 -70 8 -28 17 -62 20 -76 15 -71 47 -217 51 -230 9 -29 64
-377 74 -465 45 -397 47 -438 44 -885 -3 -753 -138 -1472 -408 -2184 -98 -260
-103 -272 -162 -396 -25 -52 -58 -126 -74 -164 -68 -162 -323 -604 -488 -846
-116 -170 -317 -431 -425 -550 -23 -25 -66 -75 -96 -110 -221 -259 -632 -634
-946 -863 -49 -36 -100 -74 -114 -85 -243 -184 -755 -479 -1081 -622 -52 -23
-116 -52 -144 -65 -27 -13 -93 -39 -145 -60 -52 -20 -108 -42 -125 -50 -93
-42 -516 -173 -690 -215 -164 -39 -474 -101 -670 -134 -242 -41 -769 -72
-1059 -62 -259 9 -553 32 -721 57 -257 37 -729 136 -925 194 -151 45 -360 113
-450 147 -237 89 -262 100 -523 222 -55 25 -101 46 -105 46 -13 0 -360 191
-517 285 -237 142 -319 198 -610 420 -609 463 -1168 1098 -1581 1795 -108 182
-206 360 -244 445 -18 39 -59 129 -92 200 -85 185 -94 206 -176 425 -75 199
-179 535 -224 725 -16 70 -99 478 -104 515 -2 19 -6 49 -9 65 -8 53 -22 164
-31 245 -3 30 -7 66 -10 80 -25 156 -25 943 0 1204 20 214 22 226 47 386 11
69 22 139 25 155 3 17 7 37 9 45 2 8 6 26 9 40 15 83 70 340 91 425 87 347
256 815 393 1090 17 33 49 101 73 150 23 50 75 149 116 222 40 72 73 136 73
141 0 6 4 12 8 14 5 2 31 41 58 88 47 82 123 202 144 227 5 7 34 47 63 90 134
197 278 386 406 534 36 42 85 98 108 125 87 103 468 481 591 587 282 241 656
514 907 661 44 26 94 55 110 65 83 49 345 189 380 203 22 9 87 39 145 66 58
28 143 66 190 85 47 20 119 50 160 67 78 33 290 108 325 116 11 2 31 8 45 14
25 10 127 42 275 85 359 105 972 203 1360 218 202 8 621 6 770 -3z"/>
<path d="M6968 11818 c-19 -24 -54 -72 -79 -108 -24 -36 -46 -67 -49 -70 -3
-3 -40 -57 -83 -120 -43 -63 -104 -151 -134 -195 -31 -44 -99 -143 -151 -220
-144 -211 -150 -220 -249 -360 -119 -169 -168 -239 -248 -355 -36 -52 -117
-169 -180 -260 -62 -91 -153 -221 -200 -290 -47 -69 -133 -190 -190 -270 -57
-80 -143 -201 -190 -270 -47 -69 -115 -168 -152 -220 -211 -303 -256 -372
-242 -380 7 -5 448 -9 979 -9 l967 0 24 40 c13 22 51 77 84 123 33 46 87 123
120 171 33 47 83 117 110 155 28 38 75 105 105 149 30 45 61 89 68 98 7 10 39
56 72 103 32 47 63 90 67 95 4 6 21 30 38 55 16 25 33 47 36 50 3 3 47 66 98
140 97 143 253 365 274 390 6 9 25 36 42 60 16 25 42 62 59 83 l29 38 -24 42
c-22 40 -82 129 -104 154 -5 6 -53 73 -105 148 -52 75 -124 177 -159 228 -36
51 -88 126 -116 167 -28 41 -110 156 -181 255 -71 99 -142 201 -159 225 -34
52 -125 181 -135 193 -4 4 -22 -11 -42 -35z"/>
<path d="M13350 11799 c-19 -28 -44 -63 -56 -77 -12 -15 -55 -76 -96 -137 -41
-60 -133 -191 -203 -290 -137 -191 -215 -302 -264 -375 -17 -25 -96 -137 -176
-249 -80 -112 -145 -207 -145 -211 0 -4 12 -25 27 -46 15 -21 63 -93 108 -159
99 -146 180 -264 254 -369 31 -43 76 -109 101 -145 25 -36 86 -122 135 -191
49 -69 120 -172 159 -229 57 -85 324 -468 353 -506 5 -6 21 -28 37 -50 62 -83
-49 -75 1043 -75 678 0 973 3 973 11 0 5 -4 7 -10 4 -5 -3 -7 0 -5 8 3 7 -16
42 -43 78 -26 35 -73 100 -103 144 -61 87 -348 498 -427 610 -27 39 -111 158
-187 265 -145 204 -210 299 -307 440 -31 47 -72 105 -89 130 -18 25 -66 95
-107 155 -42 61 -78 112 -81 115 -4 3 -15 19 -25 35 -11 17 -72 104 -136 195
-65 91 -165 235 -223 320 -58 85 -111 154 -117 152 -6 -1 -9 2 -6 7 3 4 -8 28
-25 52 -16 24 -82 121 -144 214 -115 170 -157 225 -172 225 -4 0 -24 -23 -43
-51z"/>
<path d="M7585 7681 c-2 -4 -4 -405 -4 -892 l0 -885 217 1 217 0 5 360 5 360
380 0 380 0 5 -360 5 -360 70 -1 c39 0 77 3 86 7 9 5 19 6 22 2 3 -3 63 -6
132 -7 l125 -1 0 435 c1 1112 0 1334 -10 1340 -9 5 -398 7 -422 2 -4 -1 -9
-156 -10 -344 l-3 -343 -25 -2 c-65 -4 -104 -4 -372 -3 -158 0 -291 0 -295 -1
-5 -1 -23 -1 -40 0 l-33 1 -2 348 -3 347 -213 1 c-117 1 -214 -1 -217 -5z"/>
<path d="M9699 7686 c-2 -3 -4 -404 -3 -892 l2 -888 693 -1 c382 0 700 1 707
3 9 3 12 47 12 173 l0 169 -482 2 -483 3 -2 25 c-1 14 -2 99 -3 190 l-2 165
24 3 c12 1 196 3 408 5 l385 2 3 162 2 162 -406 1 c-223 0 -409 2 -412 4 -4 2
-6 85 -4 185 l3 181 463 0 464 0 4 23 c5 25 0 296 -6 312 -4 10 -1356 21
-1367 11z"/>
<path d="M11360 7515 l0 -176 460 2 c253 2 463 0 466 -4 8 -7 -64 -96 -233
-290 -13 -15 -67 -81 -120 -145 -169 -205 -287 -346 -325 -387 -20 -22 -47
-53 -59 -70 -35 -46 -129 -155 -172 -202 l-40 -42 -1 -148 -1 -148 785 0 c432
0 792 1 800 3 13 3 15 28 13 169 -2 92 -4 168 -6 169 -2 2 -227 4 -500 4 -320
1 -497 4 -497 11 0 8 91 131 110 149 3 3 25 30 50 60 25 30 49 60 55 66 5 6
26 30 45 54 19 24 51 62 70 85 43 51 84 101 151 185 28 36 61 76 73 90 11 14
39 47 61 75 52 65 55 68 183 222 61 72 116 142 123 155 8 14 13 69 13 146 1
101 -2 125 -14 132 -8 4 -347 8 -752 9 l-738 1 0 -175z"/>
</g>
</svg>
