<?xml version="1.0" standalone="no"?>
<!DOCTYPE svg PUBLIC "-//W3C//DTD SVG 20010904//EN"
 "http://www.w3.org/TR/2001/REC-SVG-20010904/DTD/svg10.dtd">
<svg version="1.0" xmlns="http://www.w3.org/2000/svg"
 width="423.000000pt" height="637.000000pt" viewBox="0 0 423.000000 637.000000"
 preserveAspectRatio="xMidYMid meet">
<metadata>
Created by potrace 1.16, written by Peter Selinger 2001-2019
</metadata>
<g transform="translate(0.000000,637.000000) scale(0.100000,-0.100000)"
fill="#000000" stroke="none">
<path d="M0 3185 l0 -3185 2115 0 2115 0 0 3185 0 3185 -2115 0 -2115 0 0
-3185z m602 3011 c97 -21 173 -62 242 -132 98 -97 146 -209 146 -339 0 -130
-48 -243 -146 -341 -292 -294 -788 -106 -821 311 -15 190 92 372 268 459 109
53 199 65 311 42z m1985 -388 c-3 -8 -6 -5 -6 6 -1 11 2 17 5 13 3 -3 4 -12 1
-19z m-255 -163 c4 -34 3 -35 -30 -35 -31 0 -34 2 -28 23 3 12 6 28 6 35 0 6
11 12 24 12 20 0 25 -6 28 -35z m378 -45 c6 -11 8 -20 6 -20 -3 0 -10 9 -16
20 -6 11 -8 20 -6 20 3 0 10 -9 16 -20z m-690 -14 c0 -2 -7 -7 -16 -10 -8 -3
-12 -2 -9 4 6 10 25 14 25 6z m673 -23 c-7 -2 -21 -2 -30 0 -10 3 -4 5 12 5
17 0 24 -2 18 -5z m-97 -18 c-36 -19 -45 -19 -20 0 10 8 26 14 34 15 8 0 2 -7
-14 -15z m-659 -1 c-3 -3 -12 -4 -19 -1 -8 3 -5 6 6 6 11 1 17 -2 13 -5z m591
-54 c-7 -10 -14 -17 -17 -15 -4 4 18 35 25 35 2 0 -1 -9 -8 -20z m319 -17 c-3
-10 -5 -4 -5 12 0 17 2 24 5 18 2 -7 2 -21 0 -30z m-128 11 c1 -1 1 -7 0 -13
-3 -6 -16 -2 -34 10 l-30 20 30 -7 c17 -4 32 -8 34 -10z m-1100 -7 c-2 -1 -13
-9 -24 -17 -19 -14 -19 -14 -6 3 7 9 18 17 24 17 6 0 8 -1 6 -3z m1061 -12 c0
-8 -4 -15 -10 -15 -5 0 -10 7 -10 15 0 8 5 15 10 15 6 0 10 -7 10 -15z m-1187
-2 c-7 -2 -21 -2 -30 0 -10 3 -4 5 12 5 17 0 24 -2 18 -5z m107 -30 c10 9 13
9 17 0 3 -7 11 -13 19 -13 7 0 19 -9 26 -20 13 -21 48 -28 48 -10 0 6 -4 10
-10 10 -5 0 -10 5 -10 10 0 6 25 10 58 9 52 -1 54 -2 30 -12 -35 -14 -36 -27
-2 -27 17 0 23 4 18 13 -5 8 -2 8 9 -2 21 -17 22 -65 1 -85 -14 -14 -14 -16 0
-16 21 0 49 46 43 70 -3 13 0 20 9 20 17 0 18 12 2 28 -9 9 -2 12 31 12 38 0
42 -2 31 -15 -7 -9 -10 -18 -6 -22 3 -4 12 2 20 12 9 13 29 20 60 22 40 3 46
1 46 -17 0 -16 7 -20 30 -20 34 0 40 15 10 23 -11 3 -18 1 -14 -4 3 -5 0 -9
-5 -9 -6 0 -11 7 -11 15 0 12 14 15 70 15 62 0 70 -2 70 -19 0 -32 32 -36 55
-7 24 30 31 32 39 10 5 -13 3 -14 -7 -6 -10 9 -20 -2 -45 -48 -18 -32 -38 -61
-45 -63 -6 -3 2 -5 18 -5 17 0 25 2 18 4 -7 3 -9 12 -6 20 4 12 8 12 13 4 5
-9 9 -9 14 -1 4 6 2 11 -4 11 -6 0 -4 12 6 32 l17 32 19 -38 c11 -21 17 -44
14 -52 -4 -11 7 -14 52 -13 31 0 51 3 45 6 -8 3 -13 23 -13 51 l0 46 49 -48
49 -48 4 61 c2 45 0 60 -9 57 -7 -3 -15 -1 -18 4 -4 6 8 10 26 10 26 0 30 -3
21 -12 -29 -29 -11 -33 143 -32 146 1 155 0 149 -18 -4 -12 0 -18 11 -18 11 0
15 5 11 15 -3 10 3 17 21 21 24 6 33 0 76 -47 61 -68 67 -84 67 -172 0 -91 -7
-117 -31 -117 -29 0 -35 -28 -10 -51 11 -11 21 -15 21 -9 0 6 -7 13 -15 16
-24 10 -18 34 10 34 13 0 29 8 35 18 11 16 11 16 6 -1 -5 -17 18 -77 30 -77 2
0 -2 14 -11 30 -18 35 -12 41 6 8 7 -13 12 -39 12 -58 -1 -31 -1 -32 7 -10 7
22 8 21 9 -12 1 -37 -12 -51 -22 -25 -3 7 -6 5 -6 -5 -1 -14 8 -18 37 -19 20
-1 40 -1 44 0 4 0 11 -11 14 -27 4 -15 13 -34 21 -44 8 -9 13 -30 11 -49 -2
-25 -11 -37 -35 -51 -28 -15 -33 -15 -33 -3 0 8 8 15 18 15 10 0 23 5 30 12
17 17 15 63 -3 78 -8 7 -16 22 -16 34 -1 18 -2 18 -6 3 -3 -10 3 -27 12 -37
25 -27 16 -73 -15 -80 -16 -4 -26 -14 -28 -28 -7 -46 -72 -9 -72 41 0 11 -4
15 -12 11 -7 -4 -8 -3 -4 4 14 23 -6 105 -30 127 -29 27 -32 57 -6 49 16 -5
16 -5 -1 6 -9 6 -15 15 -12 21 4 5 1 9 -5 9 -8 0 -11 -14 -8 -40 l4 -40 -66
-1 c-36 -1 -68 -1 -73 0 -4 1 -31 1 -60 1 -28 0 -61 0 -72 0 -217 0 -260 -2
-274 -13 -12 -9 -13 -9 -7 1 6 10 -35 12 -201 12 -230 -1 -233 -1 -249 19 -9
11 -13 11 -19 1 -4 -7 -2 -16 6 -22 16 -10 -52 -5 -69 6 -6 3 -13 2 -16 -2 -7
-11 -56 -3 -75 12 -11 8 -13 8 -7 -1 4 -7 3 -13 -3 -13 -5 0 -11 6 -14 13 -4
10 -7 10 -18 0 -14 -14 -279 -19 -279 -6 0 3 8 16 18 27 16 20 16 20 -1 7 -10
-8 -25 -28 -33 -45 -8 -17 -12 -23 -9 -13 4 15 -3 17 -50 17 -30 0 -55 5 -55
10 0 6 5 10 10 10 6 0 10 4 10 10 0 5 -7 7 -15 4 -8 -4 -15 -12 -15 -20 0 -12
-36 -14 -205 -14 l-205 0 36 73 c20 39 51 88 68 108 17 20 43 56 59 80 30 48
62 95 102 148 14 19 25 45 25 58 0 20 5 23 41 23 l41 0 -4 -49 c-2 -36 0 -47
10 -44 6 3 12 16 12 29 0 13 4 24 8 24 13 0 53 -46 46 -52 -3 -3 10 -6 30 -5
l35 1 -27 17 c-15 9 -35 25 -45 36 -16 19 -16 21 -1 34 9 7 31 12 50 10 19 -1
34 2 34 8 0 17 -19 22 -41 10 -15 -8 -19 -8 -15 0 14 22 -9 10 -42 -21 l-34
-33 4 33 c4 31 3 33 -19 27 -13 -3 -23 -1 -23 5 0 5 16 10 35 10 19 0 35 -4
35 -10 0 -5 -4 -10 -10 -10 -5 0 -10 -7 -10 -17 0 -14 2 -14 20 2 11 10 17 22
14 26 -3 5 27 9 65 9 43 0 71 4 71 11 0 5 5 7 10 4 18 -11 -10 -36 -31 -30
-17 6 -19 0 -19 -50 0 -50 3 -57 25 -67 18 -8 35 -9 53 -2 24 8 28 15 32 66 5
51 3 57 -14 55 -11 -1 -20 5 -21 16 -2 11 1 14 8 10 7 -5 27 -8 45 -8 25 -1
31 3 27 15 -4 12 -2 11 8 -2 11 -14 16 -15 27 -5z m805 -33 c10 -11 29 -20 42
-20 18 0 23 -5 23 -27 l0 -27 -43 42 c-23 23 -46 42 -50 42 -4 0 -7 -27 -7
-60 0 -51 -3 -60 -17 -60 -20 0 -57 56 -47 71 3 5 16 9 30 9 15 0 24 6 24 16
0 10 -6 14 -14 11 -10 -4 -13 -1 -9 9 8 20 47 17 68 -6z m-895 -54 c0 -41 -21
-60 -55 -52 -21 5 -25 12 -25 46 0 40 0 40 40 40 39 0 40 -1 40 -34z m-370
-30 c0 -2 -8 -10 -17 -17 -16 -13 -17 -12 -4 4 13 16 21 21 21 13z m1867 -213
c-2 -21 -4 -6 -4 32 0 39 2 55 4 38 2 -18 2 -50 0 -70z m-2657 -190 c0 -1 -8
0 -17 3 -10 4 2 -13 26 -36 37 -36 49 -41 78 -38 l33 4 -27 -23 -27 -23 -63
67 c-67 73 -84 109 -33 71 17 -12 30 -23 30 -25z m71 -30 c13 -15 12 -15 -8
-4 -24 12 -29 21 -14 21 5 0 15 -7 22 -17z m1116 -35 c-3 -8 -6 -5 -6 6 -1 11
2 17 5 13 3 -3 4 -12 1 -19z m90 0 c-3 -8 -6 -5 -6 6 -1 11 2 17 5 13 3 -3 4
-12 1 -19z m93 2 c0 -5 -2 -10 -4 -10 -3 0 -8 5 -11 10 -3 6 -1 10 4 10 6 0
11 -4 11 -10z m348 3 c-15 -2 -42 -2 -60 0 -18 2 -6 4 27 4 33 0 48 -2 33 -4z
m254 -56 c-29 -29 -52 -59 -52 -66 0 -8 12 -30 26 -50 l26 -36 -31 33 c-17 18
-31 40 -31 49 0 16 101 132 109 126 3 -2 -19 -27 -47 -56z m559 46 c13 -16 12
-17 -3 -4 -10 7 -18 15 -18 17 0 8 8 3 21 -13z m-1515 -12 c-8 -13 -84 -51
-101 -51 -12 0 -12 5 -3 26 10 21 17 25 49 23 21 -2 41 0 45 4 10 10 16 9 10
-2z m164 -16 c5 3 11 1 15 -5 3 -5 -3 -10 -15 -10 -13 0 -19 -4 -14 -11 4 -8
0 -8 -15 0 -11 7 -21 16 -21 21 0 14 17 12 23 -2 3 -7 6 -2 7 12 2 18 4 20 7
7 2 -9 8 -15 13 -12z m413 -20 c-7 -21 -13 -19 -13 6 0 11 4 18 10 14 5 -3 7
-12 3 -20z m214 3 c-3 -8 -6 -5 -6 6 -1 11 2 17 5 13 3 -3 4 -12 1 -19z m34 5
c13 -16 12 -17 -3 -4 -17 13 -22 21 -14 21 2 0 10 -8 17 -17z m722 2 c-3 -9
-8 -14 -10 -11 -3 3 -2 9 2 15 9 16 15 13 8 -4z m-2353 -15 c-27 -7 -60 -2
-60 9 0 4 19 5 43 2 35 -4 38 -5 17 -11z m1257 -2 c-3 -8 -6 -5 -6 6 -1 11 2
17 5 13 3 -3 4 -12 1 -19z m20 0 c-3 -8 -6 -5 -6 6 -1 11 2 17 5 13 3 -3 4
-12 1 -19z m417 14 c2 -4 -4 -8 -15 -8 -10 0 -19 4 -19 8 0 4 6 8 14 8 8 0 17
-4 20 -8z m-111 -22 c3 -11 1 -18 -4 -14 -5 3 -9 12 -9 20 0 20 7 17 13 -6z
m505 -11 c-1 -17 5 -35 13 -40 10 -6 7 -9 -13 -9 -20 0 -26 -4 -22 -15 7 -17
-4 -19 -26 -5 -11 7 -11 10 -2 10 7 0 10 5 6 11 -4 8 -12 3 -20 -12 l-13 -24
-1 28 c0 20 5 27 20 27 11 0 20 -4 20 -10 0 -5 7 -7 15 -4 8 4 15 13 15 21 0
10 -6 13 -16 9 -10 -4 -14 -2 -11 6 2 7 10 12 16 11 6 -2 11 4 11 12 0 8 2 15
4 15 3 0 4 -14 4 -31z m-1091 15 c-3 -3 -12 -4 -19 -1 -8 3 -5 6 6 6 11 1 17
-2 13 -5z m-1122 -36 c-41 -26 -51 -28 -73 -19 -13 7 -23 13 -21 15 9 9 88 31
114 33 26 1 25 -1 -20 -29z m522 17 c0 -8 -4 -12 -9 -9 -5 3 -6 10 -3 15 9 13
12 11 12 -6z m1980 9 c-3 -3 -12 -4 -19 -1 -8 3 -5 6 6 6 11 1 17 -2 13 -5z
m-343 -12 c3 -5 -1 -9 -9 -9 -8 0 -12 4 -9 9 3 4 7 8 9 8 2 0 6 -4 9 -8z m366
-2 c-8 -5 -22 -10 -32 -10 -9 0 -19 -6 -21 -12 -3 -8 -6 -7 -6 4 -1 15 8 19
64 26 6 1 3 -3 -5 -8z m-773 -6 c-3 -3 -12 -4 -19 -1 -8 3 -5 6 6 6 11 1 17
-2 13 -5z m254 -11 c11 -15 11 -16 -1 -6 -11 10 -17 10 -29 0 -14 -11 -14 -10
-2 6 7 9 15 17 16 17 1 0 9 -8 16 -17z m-51 -3 c0 -5 -2 -10 -4 -10 -3 0 -8 5
-11 10 -3 6 -1 10 4 10 6 0 11 -4 11 -10z m-1549 -33 c-10 -9 -11 -8 -5 6 3
10 9 15 12 12 3 -3 0 -11 -7 -18z m531 -19 l4 -38 -39 0 c-32 0 -38 3 -33 16
3 9 6 26 6 38 0 18 6 22 29 21 27 0 30 -4 33 -37z m985 15 c0 -9 -4 -10 -14
-2 -7 6 -13 12 -13 14 0 1 6 2 13 2 8 0 14 -6 14 -14z m133 -3 c0 -5 -4 -10
-10 -10 -5 0 -10 5 -10 10 0 6 5 10 10 10 6 0 10 -4 10 -10z m177 4 c-3 -3
-12 -4 -19 -1 -8 3 -5 6 6 6 11 1 17 -2 13 -5z m-1786 -21 c13 -16 12 -17 -3
-4 -17 13 -23 8 -19 -13 1 -5 -4 -5 -11 1 -7 6 -20 13 -28 17 -8 3 -5 4 7 2
13 -2 26 0 29 5 7 12 10 12 25 -8z m984 7 c-3 -5 -11 -10 -16 -10 -6 0 -7 5
-4 10 3 6 11 10 16 10 6 0 7 -4 4 -10z m985 -15 c-13 -14 -31 -25 -39 -24 -11
0 -10 3 4 9 12 4 27 15 34 24 7 9 16 16 19 16 3 0 -5 -11 -18 -25z m-810 -17
c0 -5 -16 -8 -35 -8 -19 0 -35 3 -35 8 0 4 16 7 35 7 19 0 35 -3 35 -7z m998
-13 c-3 -3 -9 2 -12 12 -6 14 -5 15 5 6 7 -7 10 -15 7 -18z m52 7 c0 -5 -7 -9
-15 -9 -8 0 -12 4 -9 9 3 4 9 8 15 8 5 0 9 -4 9 -8z m-700 -46 c13 -9 19 -16
13 -16 -7 0 -15 5 -18 10 -3 6 -14 10 -23 10 -11 0 -18 8 -19 21 -2 18 0 19
10 7 7 -8 23 -22 37 -32z m394 29 c-4 -8 -8 -15 -10 -15 -2 0 -4 7 -4 15 0 8
4 15 10 15 5 0 7 -7 4 -15z m-1214 -10 c-14 -8 -34 -14 -45 -14 -13 0 -8 5 15
14 46 18 61 18 30 0z m468 -17 c3 -26 1 -28 -32 -28 -31 0 -36 3 -36 23 0 31
9 39 40 35 19 -2 26 -10 28 -30z m-621 -13 c-20 -14 -37 -29 -37 -34 0 -9 -90
-51 -111 -51 -8 0 -1 7 15 15 15 8 35 15 43 15 7 0 25 11 38 24 31 31 67 56
80 56 5 0 -7 -11 -28 -25z m1336 5 c-6 -23 -31 -46 -40 -36 -3 3 -1 6 6 6 6 0
16 11 21 25 11 30 20 33 13 5z m58 3 c13 -16 12 -17 -3 -4 -17 13 -22 21 -14
21 2 0 10 -8 17 -17z m-2121 -29 c0 -24 -8 -46 -26 -67 -30 -36 -21 -47 41
-47 45 1 74 21 96 65 8 15 19 30 26 32 18 6 -24 -69 -50 -89 -47 -37 -186 -17
-162 23 4 6 3 14 -3 18 -6 4 -2 23 11 53 17 36 27 48 45 48 19 0 22 -5 22 -36z
m1808 19 c-10 -2 -26 -2 -35 0 -10 3 -2 5 17 5 19 0 27 -2 18 -5z m83 -10 c12
-16 12 -17 -1 -7 -8 6 -22 14 -30 17 -13 5 -12 6 1 6 9 1 23 -7 30 -16z m-364
-25 c-3 -8 -6 -5 -6 6 -1 11 2 17 5 13 3 -3 4 -12 1 -19z m667 -39 c-2 -4 -15
-2 -28 4 -14 7 -20 15 -14 18 7 4 7 9 -1 13 -6 4 -11 11 -11 16 0 4 13 -3 29
-18 17 -14 28 -29 25 -33z m-1739 32 c-22 -4 -52 -14 -65 -24 -17 -12 -42 -17
-80 -15 l-55 1 62 6 c40 4 69 12 80 24 11 11 31 17 58 16 l40 -2 -40 -6z
m-206 -27 c14 -12 -19 -1 -35 12 -18 14 -18 14 6 3 14 -6 27 -13 29 -15z
m1688 20 c-3 -3 -12 -4 -19 -1 -8 3 -5 6 6 6 11 1 17 -2 13 -5z m63 -8 c-7 -7
-13 -7 -20 0 -6 6 -3 10 10 10 13 0 16 -4 10 -10z m117 -18 c-3 -8 -6 -5 -6 6
-1 11 2 17 5 13 3 -3 4 -12 1 -19z m-640 -27 c-2 -10 0 -26 5 -35 8 -13 3 -16
-27 -16 -30 0 -35 3 -35 23 0 14 3 18 8 10 9 -14 26 -5 35 20 9 23 21 22 14
-2z m108 9 c3 -5 1 -10 -4 -10 -6 0 -11 5 -11 10 0 6 2 10 4 10 3 0 8 -4 11
-10z m55 0 c0 -5 -5 -10 -11 -10 -5 0 -7 5 -4 10 3 6 8 10 11 10 2 0 4 -4 4
-10z m-585 -28 c-3 -3 -11 0 -18 7 -9 10 -8 11 6 5 10 -3 15 -9 12 -12z m1040
8 c3 -5 1 -10 -4 -10 -6 0 -11 5 -11 10 0 6 2 10 4 10 3 0 8 -4 11 -10z m163
-36 c-3 -14 -5 -12 -10 9 -3 19 -2 25 4 19 6 -6 8 -18 6 -28z m-543 6 c3 -6
-1 -7 -10 -4 -33 13 -66 -7 -100 -61 -44 -69 -62 -78 -133 -71 -32 3 -110 7
-174 9 -70 1 -118 6 -118 12 0 10 158 4 293 -11 52 -5 61 -3 84 18 14 12 31
36 39 51 9 15 24 37 35 48 20 20 73 26 84 9z m-609 -28 c-4 -3 -14 2 -24 12
-16 18 -16 18 6 6 13 -6 21 -14 18 -18z m1803 -16 c-3 -3 -11 5 -18 17 -13 21
-12 21 5 5 10 -10 16 -20 13 -22z m-1419 4 c0 -5 -2 -10 -4 -10 -3 0 -8 5 -11
10 -3 6 -1 10 4 10 6 0 11 -4 11 -10z m-1260 -51 c0 -5 -7 -9 -15 -9 -15 0
-20 12 -9 23 8 8 24 -1 24 -14z m910 -4 c13 -14 21 -25 18 -25 -2 0 -15 11
-28 25 -13 14 -21 25 -18 25 2 0 15 -11 28 -25z m1637 3 c-3 -8 -6 -5 -6 6 -1
11 2 17 5 13 3 -3 4 -12 1 -19z m276 -132 c16 -62 17 -80 3 -41 -9 22 -16 47
-16 56 0 8 -14 28 -31 45 -17 16 -40 43 -51 59 -12 17 3 3 33 -29 30 -33 58
-73 62 -90z m-115 66 c2 -7 -2 -10 -11 -6 -8 3 -18 1 -22 -5 -8 -14 -25 -14
-25 0 0 5 5 7 10 4 6 -3 10 1 10 10 0 19 31 17 38 -3z m-994 -24 c-5 -9 -2 -9
9 1 9 7 17 11 17 8 0 -3 3 -13 7 -23 5 -13 3 -15 -8 -10 -8 4 -6 1 4 -7 27
-23 20 -37 -19 -37 -35 0 -35 1 -29 33 8 35 13 47 21 47 3 0 2 -6 -2 -12z
m346 -2 c-7 -7 -14 -6 -21 1 -9 9 -7 12 9 10 14 -1 18 -5 12 -11z m322 -8 c-7
-7 -12 -8 -12 -2 0 6 3 14 7 17 3 4 9 5 12 2 2 -3 -1 -11 -7 -17z m-1245 -35
c-3 -10 -5 -4 -5 12 0 17 2 24 5 18 2 -7 2 -21 0 -30z m1288 27 c3 -5 1 -10
-4 -10 -6 0 -11 5 -11 10 0 6 2 10 4 10 3 0 8 -4 11 -10z m-370 -9 c3 -5 2
-12 -3 -15 -5 -3 -9 1 -9 9 0 17 3 19 12 6z m-175 -38 c0 -18 -3 -34 -7 -35
-5 0 -19 -2 -33 -3 -23 -2 -25 1 -22 34 3 32 7 36 33 36 26 0 29 -3 29 -32z
m680 2 c14 -19 14 -19 -2 -6 -10 7 -18 18 -18 24 0 6 1 8 3 6 1 -2 9 -13 17
-24z m-1953 -11 c-3 -3 -12 -4 -19 -1 -8 3 -5 6 6 6 11 1 17 -2 13 -5z m535
-41 c-3 -16 -7 -21 -12 -12 -6 8 -9 6 -13 -7 -4 -16 -5 -16 -6 -2 0 9 4 20 9
23 6 3 10 16 10 28 0 16 3 18 9 9 4 -7 6 -25 3 -39z m-848 -34 c-3 -5 -22 -9
-42 -9 -27 0 -33 3 -22 10 12 7 13 15 3 40 l-11 30 39 -31 c21 -17 37 -35 33
-40z m351 61 c3 -5 2 -10 -4 -10 -5 0 -13 5 -16 10 -3 6 -2 10 4 10 5 0 13 -4
16 -10z m2001 -12 c-10 -6 -22 -6 -26 -2 -5 5 3 10 18 11 22 1 24 0 8 -9z
m164 8 c0 -2 -8 -10 -17 -17 -16 -13 -17 -12 -4 4 13 16 21 21 21 13z m-1774
-101 c11 -17 14 -26 5 -21 -10 7 -12 2 -6 -25 4 -25 3 -30 -4 -19 -6 8 -11 23
-11 33 0 10 -4 16 -8 13 -5 -3 -15 10 -24 29 -8 19 -11 32 -5 28 6 -4 8 0 4
10 -23 57 -11 45 49 -48z m1725 78 c12 -16 12 -17 -1 -6 -8 6 -33 13 -55 16
l-40 4 41 1 c29 1 46 -3 55 -15z m-1434 -15 c-3 -8 -6 -5 -6 6 -1 11 2 17 5
13 3 -3 4 -12 1 -19z m1506 -45 c-10 -21 -26 -49 -35 -62 -10 -13 -18 -31 -19
-40 0 -12 -2 -13 -6 -2 -3 7 10 42 28 77 37 69 60 88 32 27z m-1155 10 c-10
-2 -28 -2 -40 0 -13 2 -5 4 17 4 22 1 32 -1 23 -4z m86 1 c16 -6 12 -24 -5
-24 -6 0 -8 4 -5 9 4 5 0 12 -6 14 -7 3 -10 6 -6 6 3 1 13 -2 22 -5z m303 -41
c-3 -10 -5 -2 -5 17 0 19 2 27 5 18 2 -10 2 -26 0 -35z m-1584 10 c-7 -2 -21
-2 -30 0 -10 3 -4 5 12 5 17 0 24 -2 18 -5z m824 -15 c-3 -8 -6 -5 -6 6 -1 11
2 17 5 13 3 -3 4 -12 1 -19z m423 15 c-8 -3 -19 -10 -25 -15 -22 -18 -119 -88
-123 -88 -2 0 11 16 30 36 35 38 93 73 118 73 13 -1 13 -1 0 -6z m-432 -82
c-4 -45 -43 -119 -56 -107 -2 3 0 11 6 18 10 13 12 18 12 39 0 5 5 7 12 3 6
-4 8 -3 4 4 -6 10 14 92 23 92 2 0 1 -22 -1 -49z m769 -3 c-3 -8 -6 -5 -6 6
-1 11 2 17 5 13 3 -3 4 -12 1 -19z m-978 -98 c-1 -41 2 -88 5 -105 6 -29 6
-29 -4 -5 -14 31 -22 219 -9 199 5 -8 8 -48 8 -89z m481 75 c0 -7 -57 -35 -72
-35 -7 0 5 9 27 19 48 23 45 22 45 16z m-863 -31 c-3 -3 -12 -4 -19 -1 -8 3
-5 6 6 6 11 1 17 -2 13 -5z m148 -3 c-3 -6 3 -15 12 -21 15 -9 14 -10 -7 -4
-14 4 -59 7 -100 6 -60 -1 -70 1 -50 10 14 5 49 7 77 5 29 -3 55 -1 58 4 4 5
8 9 11 9 3 0 3 -4 -1 -9z m187 -38 c-10 -28 -10 -28 -11 12 -1 28 2 36 10 28
8 -8 8 -19 1 -40z m365 11 c-3 -3 -12 -4 -19 -1 -8 3 -5 6 6 6 11 1 17 -2 13
-5z m1426 -111 c-5 -12 -63 -36 -70 -29 -2 2 10 8 26 14 30 11 31 13 32 74 l2
63 7 -55 c4 -30 5 -60 3 -67z m-1809 71 c3 -8 2 -12 -4 -9 -6 3 -10 10 -10 16
0 14 7 11 14 -7z m1132 -65 c5 0 9 -6 9 -13 0 -8 4 -18 8 -22 15 -16 6 -24
-29 -24 -35 0 -35 1 -29 33 9 42 16 52 25 37 4 -6 11 -11 16 -11z m222 -1 c8
-25 -17 -32 -47 -13 -5 3 -12 1 -16 -5 -10 -16 -25 -12 -25 8 0 15 8 18 43 17
23 0 43 -3 45 -7z m295 -35 c-38 -5 -70 -40 -79 -87 -3 -18 -16 -46 -29 -62
-23 -28 -25 -29 -122 -30 l-98 -2 93 7 c89 6 95 8 118 36 13 17 27 45 30 63
10 53 40 82 82 80 37 -1 37 -1 5 -5z m64 1 c-3 -3 -12 -4 -19 -1 -8 3 -5 6 6
6 11 1 17 -2 13 -5z m-1688 -46 c0 -31 -1 -31 -10 -10 -5 13 -7 28 -3 33 10
16 14 9 13 -23z m28 -75 c-2 -16 -4 -5 -4 22 0 28 2 40 4 28 2 -13 2 -35 0
-50z m-22 -120 c-10 -35 -21 -63 -26 -63 -4 0 -2 19 6 41 23 63 18 70 -9 14
-28 -57 -33 -48 -10 16 8 24 17 52 19 62 2 10 7 28 11 40 7 20 8 18 17 -13 6
-25 4 -51 -8 -97z m52 95 c-3 -7 -5 -2 -5 12 0 14 2 19 5 13 2 -7 2 -19 0 -25z
m50 0 c-3 -7 -5 -2 -5 12 0 14 2 19 5 13 2 -7 2 -19 0 -25z m1166 -34 c-27
-20 -39 -17 -18 6 10 11 22 17 27 14 5 -3 1 -12 -9 -20z m-1237 -105 c-9 -34
-27 -75 -41 -91 -32 -38 -32 -24 0 22 14 21 31 65 38 101 6 35 13 56 15 47 2
-10 -4 -45 -12 -79z m907 84 c-7 -2 -21 -2 -30 0 -10 3 -4 5 12 5 17 0 24 -2
18 -5z m285 1 c-3 -3 -41 -5 -83 -5 -42 0 -80 2 -83 5 -3 4 34 6 83 6 49 0 86
-2 83 -6z m-1138 -85 c-11 -38 -16 -44 -25 -30 -3 6 -1 11 4 11 6 0 11 8 11
18 0 16 8 32 16 32 1 0 -1 -14 -6 -31z m740 -19 c-8 -5 -19 -10 -25 -10 -5 0
-3 5 5 10 8 5 20 10 25 10 6 0 3 -5 -5 -10z m-850 -20 c0 -4 -6 -13 -14 -20
-12 -9 -15 -8 -13 8 1 17 27 28 27 12z m746 -45 c-24 -24 -53 -63 -65 -87 -12
-24 -18 -32 -15 -18 10 37 48 93 84 123 46 40 45 33 -4 -18z m-801 5 c-10 -11
-15 -20 -11 -20 3 0 -1 -14 -9 -31 -11 -21 -34 -39 -69 -55 -57 -26 -135 -44
-103 -24 9 6 27 13 38 15 42 8 165 95 134 95 -4 0 0 9 10 20 10 11 20 20 23
20 3 0 -3 -9 -13 -20z m11 -38 c-17 -16 -18 -16 -5 5 7 12 15 20 18 17 3 -2
-3 -12 -13 -22z m-46 14 c0 -2 -8 -10 -17 -17 -16 -13 -17 -12 -4 4 13 16 21
21 21 13z m975 -16 c3 -5 0 -7 -8 -4 -8 3 -17 -2 -21 -12 -5 -13 -9 -14 -21
-4 -8 6 -20 8 -27 4 -10 -5 -10 -4 -1 6 10 11 15 11 28 0 12 -10 15 -10 15 4
0 17 25 22 35 6z m-904 -27 c-5 -10 -31 -38 -58 -63 -89 -84 -98 -86 -18 -3
44 45 81 82 83 82 1 1 -2 -7 -7 -16z m108 -23 c0 -10 -3 -8 -9 5 -12 27 -12
43 0 25 5 -8 9 -22 9 -30z m833 33 c-6 -2 -10 -8 -7 -12 2 -5 -9 -21 -25 -36
-26 -25 -34 -27 -57 -19 -24 8 -31 5 -55 -21 l-28 -30 15 31 c16 32 77 71 83
53 3 -6 9 -5 18 2 11 9 14 9 14 -1 0 -10 3 -10 15 0 8 6 14 15 13 18 -2 16 3
22 15 21 9 0 9 -2 -1 -6z m-882 -60 c-11 -17 -11 -17 -6 0 3 10 7 26 7 35 1
15 2 15 6 0 2 -10 -1 -25 -7 -35z m-240 22 c-14 -8 -36 -14 -50 -14 -21 1 -19
2 8 9 18 4 36 10 39 14 4 3 11 6 17 6 6 -1 0 -7 -14 -15z m970 -5 c0 -5 -12
-10 -27 -9 -25 0 -26 1 -8 9 27 12 35 12 35 0z m-1083 -6 c-3 -3 -12 -4 -19
-1 -8 3 -5 6 6 6 11 1 17 -2 13 -5z m856 -11 c-7 -2 -21 -2 -30 0 -10 3 -4 5
12 5 17 0 24 -2 18 -5z m-411 -36 c-7 -27 -7 -27 -20 -6 -8 12 -9 18 -3 14 6
-3 14 1 17 10 10 25 14 12 6 -18z m-392 2 c19 -6 14 -7 -20 -4 -33 4 -39 2
-25 -4 19 -9 19 -10 -2 -10 -12 -1 -24 -5 -28 -11 -3 -5 -12 -7 -19 -4 -7 3
-16 -2 -19 -10 -7 -18 -31 -22 -25 -4 5 15 78 57 98 57 8 -1 26 -5 40 -10z
m893 4 c-7 -2 -19 -2 -25 0 -7 3 -2 5 12 5 14 0 19 -2 13 -5z m92 -3 c3 -5 1
-10 -4 -10 -6 0 -11 5 -11 10 0 6 2 10 4 10 3 0 8 -4 11 -10z m-739 -49 c-15
-15 -31 -41 -36 -57 -7 -24 -8 -25 -9 -7 -1 20 52 93 67 93 3 0 -7 -13 -22
-29z m734 25 c0 -3 -4 -8 -10 -11 -5 -3 -10 -1 -10 4 0 6 5 11 10 11 6 0 10
-2 10 -4z m-1165 -26 c-27 -12 -43 -12 -25 0 8 5 22 9 30 9 10 0 8 -3 -5 -9z
m562 -32 c-3 -7 -5 -2 -5 12 0 14 2 19 5 13 2 -7 2 -19 0 -25z m-297 4 c0 -4
-10 -13 -22 -21 -23 -14 -23 -14 -4 8 20 22 26 25 26 13z m1094 -3 c14 -7 27
-18 30 -26 8 -19 -11 -53 -30 -53 -19 0 -34 -40 -34 -91 0 -32 -3 -39 -20 -39
-11 0 -20 5 -20 12 0 6 -7 4 -18 -5 -25 -23 -37 -21 -56 8 -11 16 -16 46 -16
89 0 75 13 90 91 105 24 5 45 9 46 10 1 1 13 -4 27 -10z m-794 -58 c-4 -16
-13 -38 -20 -48 -11 -17 -11 -17 -5 2 3 11 9 32 12 48 3 15 9 27 14 27 4 0 4
-13 -1 -29z m-183 -23 c-3 -8 -6 -5 -6 6 -1 11 2 17 5 13 3 -3 4 -12 1 -19z
m-27 -42 c0 -2 -8 -10 -17 -17 -16 -13 -17 -12 -4 4 13 16 21 21 21 13z m-47
-66 c-10 -17 -19 -26 -21 -20 -4 10 25 50 35 50 2 0 -4 -14 -14 -30z m1097 -3
c-1 -21 -1 -21 -15 -3 -8 10 -12 23 -9 28 9 14 24 -2 24 -25z m35 23 c-3 -5
-12 -10 -18 -10 -7 0 -6 4 3 10 19 12 23 12 15 0z m-1180 -40 c-3 -5 -12 -10
-18 -10 -7 0 -6 4 3 10 19 12 23 12 15 0z m960 -58 c-5 -5 -25 43 -25 61 1 7
7 -3 16 -22 8 -19 12 -36 9 -39z m-995 44 c0 -2 -7 -7 -16 -10 -8 -3 -12 -2
-9 4 6 10 25 14 25 6z m1060 -5 c0 -5 -7 -12 -16 -15 -24 -9 -28 -7 -14 9 14
17 30 20 30 6z m-763 -73 c-3 -8 -6 -5 -6 6 -1 11 2 17 5 13 3 -3 4 -12 1 -19z
m-16 -41 c-10 -9 -11 -8 -5 6 3 10 9 15 12 12 3 -3 0 -11 -7 -18z m849 7 c0
-8 -6 -14 -12 -11 -7 2 -21 0 -30 -4 -16 -9 -68 7 -68 20 0 3 25 7 55 9 45 2
55 -1 55 -14z m-131 -120 c-19 -23 -21 -10 -7 37 l12 44 4 -33 c2 -18 -2 -40
-9 -48z m-359 46 c0 -5 -4 -10 -10 -10 -5 0 -10 5 -10 10 0 6 5 10 10 10 6 0
10 -4 10 -10z m450 -43 c0 -4 -11 0 -25 10 -13 10 -25 22 -25 26 0 4 11 0 25
-10 13 -10 25 -22 25 -26z m134 18 c-4 -8 -16 -15 -27 -15 -20 0 -20 0 -1 15
25 19 35 19 28 0z m-314 -10 c-7 -8 -16 -15 -20 -15 -15 0 -78 -70 -95 -106
-9 -19 -19 -33 -22 -30 -14 14 54 116 78 116 6 0 7 4 4 10 -3 5 9 16 27 24 43
19 43 19 28 1z m43 -9 c-4 -7 -23 -26 -41 -41 -17 -15 -30 -30 -27 -35 5 -9
-27 -53 -64 -88 -31 -28 -50 -14 -24 18 39 49 89 105 117 132 30 29 53 38 39
14z m120 -84 c20 -22 21 -24 4 -33 -23 -13 -23 -44 1 -34 9 4 31 13 48 19 18
6 40 18 50 26 16 13 17 13 11 0 -3 -8 -18 -44 -33 -80 -15 -36 -28 -81 -28
-102 -1 -20 -4 -34 -7 -33 -3 2 -10 -27 -17 -64 -18 -105 -25 -118 -72 -131
-47 -13 -70 -2 -70 33 0 19 -1 19 -12 4 -9 -11 -21 -15 -35 -11 -33 9 -28 27
14 55 l37 24 -1 102 c-2 79 2 114 18 160 29 82 36 89 68 61 l26 -23 -21 25
c-12 14 -25 41 -28 60 l-7 35 16 -35 c9 -19 26 -45 38 -58z m-513 26 c0 -10
-3 -10 -35 2 -14 5 -24 14 -21 19 7 10 56 -9 56 -21z m545 11 c10 -30 0 -33
-13 -4 -6 14 -7 25 -2 25 5 0 12 -9 15 -21z m-394 -26 c-6 -10 -13 -39 -16
-66 -4 -26 -10 -45 -15 -42 -6 3 -5 16 0 30 12 32 -5 43 -28 18 -9 -11 -13
-12 -7 -3 11 17 68 80 72 80 2 0 -1 -8 -6 -17z m49 2 c-7 -9 -15 -13 -17 -11
-7 7 7 26 19 26 6 0 6 -6 -2 -15z m395 -3 c-3 -3 -11 0 -18 7 -9 10 -8 11 6 5
10 -3 15 -9 12 -12z m-202 -34 c-3 -18 -10 -39 -16 -45 -5 -7 -6 -13 -2 -13 4
0 2 -7 -5 -15 -6 -8 -8 -20 -4 -27 4 -7 3 -9 -2 -5 -5 5 -15 -13 -24 -39 -14
-43 -40 -72 -40 -44 0 6 5 8 11 4 7 -4 10 -1 7 7 -3 8 -13 13 -22 13 -19 -2
-20 9 -2 59 12 33 12 39 0 44 -11 4 -12 9 -3 19 6 8 14 12 18 10 4 -3 25 11
46 29 22 19 41 34 42 35 1 0 0 -15 -4 -32z m-633 12 c0 -5 -4 -10 -10 -10 -5
0 -10 5 -10 10 0 6 5 10 10 10 6 0 10 -4 10 -10z m-224 -67 c-10 -10 -19 5
-10 18 6 11 8 11 12 0 2 -7 1 -15 -2 -18z m329 17 c3 -5 -1 -10 -10 -10 -9 0
-13 5 -10 10 3 6 8 10 10 10 2 0 7 -4 10 -10z m351 -65 c-8 -8 -18 -24 -21
-35 -4 -11 -10 -18 -15 -15 -4 3 -1 27 8 55 15 46 16 48 29 30 12 -17 12 -22
-1 -35z m-153 30 c-3 -9 -8 -14 -10 -11 -3 3 -2 9 2 15 9 16 15 13 8 -4z
m-1083 -20 c0 -8 -4 -15 -10 -15 -5 0 -10 7 -10 15 0 8 5 15 10 15 6 0 10 -7
10 -15z m400 -14 c0 -6 -4 -13 -10 -16 -5 -3 -10 1 -10 9 0 9 5 16 10 16 6 0
10 -4 10 -9z m661 -18 c-12 -20 -14 -14 -5 12 4 9 9 14 11 11 3 -2 0 -13 -6
-23z m-381 -14 c0 -6 -4 -7 -10 -4 -5 3 -10 11 -10 16 0 6 5 7 10 4 6 -3 10
-11 10 -16z m375 -39 c-4 -12 -9 -19 -12 -17 -3 3 -2 15 2 27 4 12 9 19 12 17
3 -3 2 -15 -2 -27z m-888 -16 c-9 -9 -28 6 -21 18 4 6 10 6 17 -1 6 -6 8 -13
4 -17z m1040 20 c-3 -3 -12 -4 -19 -1 -8 3 -5 6 6 6 11 1 17 -2 13 -5z m-897
-84 c0 -5 -5 -10 -11 -10 -5 0 -7 5 -4 10 3 6 8 10 11 10 2 0 4 -4 4 -10z
m1000 -10 c0 -5 -5 -10 -11 -10 -5 0 -7 5 -4 10 3 6 8 10 11 10 2 0 4 -4 4
-10z m-17 -98 c-9 -15 -28 -33 -42 -40 -21 -10 -19 -5 14 28 21 22 40 40 42
40 1 0 -5 -13 -14 -28z m147 -81 c0 -5 -9 -7 -20 -4 -11 3 -20 7 -20 9 0 2 9
4 20 4 11 0 20 -4 20 -9z m-663 -7 c-3 -3 -12 -4 -19 -1 -8 3 -5 6 6 6 11 1
17 -2 13 -5z m-64 -31 c-7 -2 -19 -2 -25 0 -7 3 -2 5 12 5 14 0 19 -2 13 -5z
m41 -1 c3 -5 -1 -9 -9 -9 -8 0 -15 4 -15 9 0 4 4 8 9 8 6 0 12 -4 15 -8z m-94
-12 c-8 -5 -19 -10 -25 -10 -5 0 -3 5 5 10 8 5 20 10 25 10 6 0 3 -5 -5 -10z
m18 -52 c2 -12 -3 -18 -16 -18 -24 0 -36 -14 -67 -77 l-24 -48 6 38 c3 20 1
37 -4 37 -15 0 -32 -22 -27 -35 3 -7 1 -16 -5 -20 -7 -4 -11 4 -11 19 0 14 -5
28 -12 32 -6 4 -9 3 -6 -2 3 -5 -1 -22 -9 -39 -13 -30 -13 -30 -8 15 l6 45
-21 -35 c-16 -28 -19 -30 -14 -10 7 29 39 60 63 60 9 1 34 14 56 30 44 33 88
36 93 8z m1290 -45 c2 -7 -1 -13 -8 -13 -6 0 -8 6 -5 13 4 6 -1 3 -10 -8 -10
-11 -23 -35 -31 -52 -8 -18 -19 -33 -24 -33 -14 0 -12 27 3 33 7 3 4 6 -6 6
-19 1 -56 -35 -57 -55 0 -5 -6 -19 -14 -30 -13 -17 -14 -15 -11 24 1 24 9 49
16 55 9 8 8 6 -1 -8 -8 -11 10 4 40 33 40 39 61 52 79 50 14 -2 26 -9 29 -15z
m-26 -105 c-7 -7 -12 -22 -12 -34 0 -13 -5 -26 -12 -30 -8 -5 -9 2 -5 26 7 35
26 64 35 55 3 -3 0 -11 -6 -17z m-154 -14 c-7 -15 -14 -21 -16 -15 -2 7 2 18
8 26 18 22 21 18 8 -11z m88 -25 c-9 -13 -16 -31 -16 -41 0 -10 -5 -18 -10
-18 -10 0 -6 32 12 79 6 17 12 21 20 13 7 -7 6 -17 -6 -33z m-1336 27 c0 -3
-4 -8 -10 -11 -5 -3 -10 -1 -10 4 0 6 5 11 10 11 6 0 10 -2 10 -4z m1225 -56
c-3 -5 -11 -10 -16 -10 -6 0 -7 5 -4 10 3 6 11 10 16 10 6 0 7 -4 4 -10z
m-2236 -544 c-2 -2 -15 -9 -29 -15 -24 -11 -24 -11 -6 3 16 13 49 24 35 12z
m-419 -61 c25 -13 41 -24 35 -24 -5 0 -30 11 -55 24 -25 13 -40 24 -35 24 6 0
30 -11 55 -24z m547 -11 c-3 -3 -12 -4 -19 -1 -8 3 -5 6 6 6 11 1 17 -2 13 -5z
m-220 -140 c543 -254 653 -307 650 -310 -2 -2 -122 52 -268 120 -647 303 -674
316 -656 316 3 0 126 -57 274 -126z m368 48 c-3 -3 -11 0 -18 7 -9 10 -8 11 6
5 10 -3 15 -9 12 -12z m205 -52 c-8 -5 -19 -10 -25 -10 -5 0 -3 5 5 10 8 5 20
10 25 10 6 0 3 -5 -5 -10z m395 -200 c3 -5 1 -10 -4 -10 -6 0 -11 5 -11 10 0
6 2 10 4 10 3 0 8 -4 11 -10z"/>
<path d="M397 6159 c-52 -12 -134 -55 -185 -96 -124 -101 -180 -283 -136 -448
54 -210 277 -354 490 -318 298 51 461 375 321 636 -93 175 -300 271 -490 226z
m225 -29 c219 -67 345 -301 280 -517 -82 -270 -395 -386 -630 -234 -73 48
-117 99 -156 181 -29 60 -31 73 -31 170 0 97 2 110 32 172 55 116 166 210 279
237 67 16 158 12 226 -9z"/>
<path d="M405 6126 c-249 -62 -383 -334 -276 -562 122 -260 456 -320 657 -120
225 226 120 599 -191 681 -69 18 -121 18 -190 1z m193 -20 c74 -20 131 -56
190 -121 70 -77 96 -146 96 -255 -1 -112 -27 -180 -99 -258 -191 -207 -512
-158 -637 96 -30 61 -33 74 -33 162 0 86 3 101 31 160 83 175 270 264 452 216z"/>
<path d="M420 6087 c-115 -27 -202 -98 -254 -207 -27 -57 -31 -76 -31 -150 0
-76 3 -92 33 -152 65 -132 185 -209 327 -209 211 0 368 153 368 361 0 108 -29
178 -107 256 -92 92 -214 129 -336 101z m220 -43 c228 -103 274 -402 87 -569
-71 -64 -141 -88 -247 -83 -101 5 -161 32 -227 100 -85 87 -117 206 -89 319
55 213 278 322 476 233z"/>
<path d="M275 5738 c-27 -40 -51 -76 -53 -80 -2 -4 18 -8 45 -8 50 0 49 -1
105 85 3 6 -6 25 -20 43 l-27 32 -50 -72z"/>
<path d="M640 5775 l-23 -36 31 -42 c28 -39 34 -42 82 -45 l52 -3 -48 68 c-71
103 -68 100 -94 58z"/>
<path d="M360 5545 c0 -25 5 -45 10 -45 6 0 10 9 10 20 0 26 46 28 53 3 3 -10
5 2 5 27 0 25 -2 37 -5 28 -6 -22 -53 -25 -53 -3 0 8 -4 15 -10 15 -5 0 -10
-20 -10 -45z"/>
<path d="M470 5547 c0 -42 1 -43 35 -45 19 -2 35 2 35 8 0 5 -11 10 -25 10
-14 0 -25 5 -25 10 0 6 9 10 20 10 11 0 20 5 20 10 0 6 -9 10 -20 10 -30 0
-24 18 8 23 22 3 20 4 -10 6 l-38 1 0 -43z"/>
<path d="M583 5583 l27 -4 -25 -33 c-14 -18 -25 -36 -25 -40 0 -4 18 -6 40 -4
44 2 56 18 14 18 l-26 0 26 35 27 35 -43 -1 c-30 -2 -35 -3 -15 -6z"/>
<path d="M2290 5630 c0 -5 5 -10 10 -10 6 0 10 5 10 10 0 6 -4 10 -10 10 -5 0
-10 -4 -10 -10z"/>
<path d="M1536 5403 c-11 -11 -6 -23 9 -23 8 0 15 4 15 9 0 13 -16 22 -24 14z"/>
<path d="M1570 5350 c0 -33 -4 -60 -10 -60 -5 0 -10 -7 -10 -15 0 -8 5 -15 11
-15 5 0 7 5 4 10 -4 6 6 10 22 11 15 0 22 3 16 6 -14 5 -18 53 -5 53 5 0 21
-13 37 -30 26 -27 34 -30 89 -29 34 1 51 4 39 6 -21 4 -23 10 -23 64 0 76 -18
77 -22 2 -3 -49 -6 -58 -23 -61 -28 -4 -72 53 -49 62 19 7 15 50 -6 53 -21 4
-43 -12 -38 -27 3 -9 9 -8 21 4 16 16 17 16 17 -2 0 -18 -18 -32 -41 -32 -5 0
-9 14 -9 30 0 17 -4 30 -10 30 -6 0 -10 -27 -10 -60z"/>
<path d="M1880 5351 c0 -38 -4 -61 -12 -64 -7 -3 3 -5 22 -5 19 0 29 2 23 5
-9 3 -13 26 -13 64 0 33 -4 59 -10 59 -6 0 -10 -26 -10 -59z"/>
<path d="M1944 5401 c-14 -14 2 -40 37 -60 43 -25 46 -42 8 -52 -21 -6 -21 -7
-3 -8 29 -1 59 23 51 42 -3 9 -23 25 -44 36 -37 20 -37 20 -10 21 15 0 27 6
27 13 0 8 4 7 10 -3 8 -13 10 -13 10 2 0 12 -9 16 -41 15 -22 -1 -42 -4 -45
-6z"/>
<path d="M2112 5348 c3 -54 6 -63 23 -65 11 -2 14 0 8 3 -8 4 -13 27 -13 65 0
34 -4 59 -10 59 -7 0 -10 -24 -8 -62z"/>
<path d="M2153 5403 c-17 -6 -16 -23 1 -23 8 0 16 7 20 15 6 15 1 17 -21 8z"/>
<path d="M2770 5320 c0 -5 5 -10 11 -10 5 0 7 5 4 10 -3 6 -8 10 -11 10 -2 0
-4 -4 -4 -10z"/>
<path d="M1940 5299 c0 -11 4 -18 10 -14 5 3 7 12 3 20 -7 21 -13 19 -13 -6z"/>
<path d="M2632 5289 c2 -6 8 -10 13 -10 5 0 11 4 13 10 2 6 -4 11 -13 11 -9 0
-15 -5 -13 -11z"/>
<path d="M1331 5254 c0 -11 3 -14 6 -6 3 7 2 16 -1 19 -3 4 -6 -2 -5 -13z"/>
<path d="M1830 5251 c0 -7 -4 -9 -10 -6 -5 3 -10 1 -10 -4 0 -6 4 -11 9 -11
13 0 25 20 17 27 -3 4 -6 1 -6 -6z"/>
<path d="M2515 5253 c-11 -3 -24 -9 -29 -14 -5 -4 8 -4 29 2 27 8 41 7 49 -1
8 -8 7 -13 -4 -20 -9 -6 -10 -10 -3 -10 19 0 26 20 13 35 -13 15 -20 16 -55 8z"/>
<path d="M2616 5252 c-3 -6 -1 -14 5 -17 14 -9 20 -2 10 14 -6 8 -11 9 -15 3z"/>
<path d="M1775 5240 c-3 -5 1 -10 9 -10 9 0 16 5 16 10 0 6 -4 10 -9 10 -6 0
-13 -4 -16 -10z"/>
<path d="M2710 5240 c0 -5 5 -10 10 -10 6 0 10 5 10 10 0 6 -4 10 -10 10 -5 0
-10 -4 -10 -10z"/>
<path d="M1408 5233 c6 -2 18 -2 25 0 6 3 1 5 -13 5 -14 0 -19 -2 -12 -5z"/>
<path d="M1772 5208 c6 -18 28 -21 28 -4 0 9 -7 16 -16 16 -9 0 -14 -5 -12
-12z"/>
<path d="M2042 5204 c-8 -8 -22 -12 -32 -9 -10 3 -22 0 -26 -6 -4 -8 -3 -9 5
-5 6 4 19 2 27 -5 12 -10 17 -8 29 7 23 30 20 45 -3 18z"/>
<path d="M2443 5203 c4 -3 1 -13 -6 -22 -11 -14 -10 -14 6 -2 20 15 22 31 5
31 -6 0 -8 -3 -5 -7z"/>
<path d="M2531 5194 c0 -11 3 -14 6 -6 3 7 2 16 -1 19 -3 4 -6 -2 -5 -13z"/>
<path d="M1540 5190 c0 -5 5 -10 10 -10 6 0 10 5 10 10 0 6 -4 10 -10 10 -5 0
-10 -4 -10 -10z"/>
<path d="M2326 5181 c-3 -4 6 -6 19 -3 14 2 25 6 25 8 0 8 -39 4 -44 -5z"/>
<path d="M2474 5159 c-12 -25 -13 -34 -3 -43 9 -8 10 -8 5 1 -9 16 13 61 33
66 14 4 14 5 -1 6 -10 1 -24 -12 -34 -30z"/>
<path d="M1948 5173 c7 -3 16 -2 19 1 4 3 -2 6 -13 5 -11 0 -14 -3 -6 -6z"/>
<path d="M2889 5159 c0 -22 -1 -23 -9 -4 -8 18 -9 18 -9 2 -1 -10 -5 -16 -10
-13 -5 3 -11 -8 -13 -24 -4 -28 -2 -30 28 -30 32 0 32 0 27 43 -7 49 -13 61
-14 26z m-5 -44 c-4 -8 -10 -12 -15 -9 -14 8 -10 24 6 24 9 0 12 -6 9 -15z"/>
<path d="M1728 5163 c12 -2 30 -2 40 0 9 3 -1 5 -23 4 -22 0 -30 -2 -17 -4z"/>
<path d="M2101 5154 c0 -11 3 -14 6 -6 3 7 2 16 -1 19 -3 4 -6 -2 -5 -13z"/>
<path d="M2150 5156 c0 -7 7 -13 15 -13 8 0 15 4 15 8 0 4 -7 9 -15 13 -9 3
-15 0 -15 -8z"/>
<path d="M2275 5160 c-3 -6 3 -22 14 -36 12 -15 21 -22 21 -16 0 6 -7 18 -17
27 -14 14 -14 18 -2 26 9 5 10 9 2 9 -6 0 -15 -5 -18 -10z"/>
<path d="M1270 5135 c0 -14 4 -25 9 -25 4 0 6 11 3 25 -2 14 -6 25 -8 25 -2 0
-4 -11 -4 -25z"/>
<path d="M1525 5150 c-4 -6 -15 -8 -26 -5 -13 4 -19 2 -19 -9 0 -9 6 -16 13
-15 18 1 54 17 42 19 -5 2 4 6 20 10 l30 8 -27 1 c-15 0 -30 -4 -33 -9z"/>
<path d="M1960 5145 c0 -8 2 -15 4 -15 2 0 6 7 10 15 3 8 1 15 -4 15 -6 0 -10
-7 -10 -15z"/>
<path d="M2070 5144 c0 -8 5 -12 10 -9 6 4 8 11 5 16 -9 14 -15 11 -15 -7z"/>
<path d="M2210 5150 c0 -5 5 -10 10 -10 6 0 10 5 10 10 0 6 -4 10 -10 10 -5 0
-10 -4 -10 -10z"/>
<path d="M2010 5140 c0 -5 7 -10 15 -10 8 0 15 5 15 10 0 6 -7 10 -15 10 -8 0
-15 -4 -15 -10z"/>
<path d="M2500 5134 c0 -17 22 -14 28 4 2 7 -3 12 -12 12 -9 0 -16 -7 -16 -16z"/>
<path d="M2543 5137 c0 -7 9 -14 19 -14 11 -1 18 5 17 15 0 11 -2 13 -6 4 -3
-9 -9 -10 -17 -3 -9 8 -13 7 -13 -2z"/>
<path d="M2616 5141 c-4 -7 -5 -15 -2 -18 9 -9 19 4 14 18 -4 11 -6 11 -12 0z"/>
<path d="M2400 5131 c0 -6 -6 -11 -14 -11 -32 0 -23 -17 9 -18 39 -2 42 2 20
24 -8 9 -15 11 -15 5z"/>
<path d="M2685 5130 c-3 -5 1 -10 9 -10 9 0 16 5 16 10 0 6 -4 10 -9 10 -6 0
-13 -4 -16 -10z"/>
<path d="M2166 5117 c3 -10 9 -15 12 -12 3 3 0 11 -7 18 -10 9 -11 8 -5 -6z"/>
<path d="M2320 5115 c0 -8 7 -15 15 -15 8 0 15 4 15 9 0 5 -7 11 -15 15 -9 3
-15 0 -15 -9z"/>
<path d="M1201 5112 c-1 -7 -5 -11 -10 -8 -5 3 -11 -10 -13 -29 -4 -32 -2 -35
23 -35 15 0 31 5 34 11 9 14 -3 61 -14 54 -5 -3 -12 1 -14 7 -4 10 -6 10 -6 0z"/>
<path d="M2260 5105 c-10 -13 -9 -15 9 -15 12 0 21 6 21 15 0 8 -4 15 -9 15
-5 0 -14 -7 -21 -15z"/>
<path d="M1462 5090 c0 -14 2 -19 5 -12 2 6 2 18 0 25 -3 6 -5 1 -5 -13z"/>
<path d="M1581 5094 c0 -11 3 -14 6 -6 3 7 2 16 -1 19 -3 4 -6 -2 -5 -13z"/>
<path d="M1658 5103 c-24 -6 -23 -23 2 -23 11 0 20 7 20 15 0 8 -1 14 -2 14
-2 -1 -11 -3 -20 -6z"/>
<path d="M2002 5099 c2 -6 8 -10 13 -10 5 0 11 4 13 10 2 6 -4 11 -13 11 -9 0
-15 -5 -13 -11z"/>
<path d="M1337 5089 c7 -7 15 -10 18 -7 3 3 -2 9 -12 12 -14 6 -15 5 -6 -5z"/>
<path d="M1710 5090 c0 -5 5 -10 10 -10 6 0 10 5 10 10 0 6 -4 10 -10 10 -5 0
-10 -4 -10 -10z"/>
<path d="M2472 5065 c-27 -42 -37 -43 -69 -9 -18 19 -27 23 -37 15 -7 -6 -17
-7 -22 -2 -12 12 -114 20 -114 10 0 -5 24 -9 54 -9 30 0 58 -5 61 -10 5 -8 11
-8 20 0 9 8 17 6 29 -5 9 -9 16 -21 16 -26 0 -5 9 -9 19 -9 19 0 71 52 71 71
0 14 -4 11 -28 -26z"/>
<path d="M1545 5080 c-3 -5 -1 -10 4 -10 6 0 11 5 11 10 0 6 -2 10 -4 10 -3 0
-8 -4 -11 -10z"/>
<path d="M2536 5082 c-3 -6 -1 -14 5 -17 14 -9 20 -2 10 14 -6 8 -11 9 -15 3z"/>
<path d="M1378 5073 c7 -3 16 -2 19 1 4 3 -2 6 -13 5 -11 0 -14 -3 -6 -6z"/>
<path d="M2585 5071 c-3 -5 -2 -12 3 -15 5 -3 9 1 9 9 0 17 -3 19 -12 6z"/>
<path d="M2625 5070 c3 -5 8 -10 11 -10 2 0 4 5 4 10 0 6 -5 10 -11 10 -5 0
-7 -4 -4 -10z"/>
<path d="M2826 5065 c-3 -8 -1 -15 4 -15 6 0 10 7 10 15 0 8 -2 15 -4 15 -2 0
-6 -7 -10 -15z"/>
<path d="M2928 5073 c-24 -6 -23 -23 2 -23 11 0 20 7 20 15 0 8 -1 14 -2 14
-2 -1 -11 -3 -20 -6z"/>
<path d="M2004 5048 c4 -18 28 -16 34 2 4 13 3 13 -10 2 -11 -9 -18 -9 -21 -2
-3 6 -4 5 -3 -2z"/>
<path d="M1608 5043 c7 -3 16 -2 19 1 4 3 -2 6 -13 5 -11 0 -14 -3 -6 -6z"/>
<path d="M1670 5045 c0 -4 11 -20 25 -37 14 -16 25 -26 25 -23 0 4 -11 20 -25
37 -14 16 -25 26 -25 23z"/>
<path d="M1970 5040 c0 -5 5 -10 11 -10 5 0 7 5 4 10 -3 6 -8 10 -11 10 -2 0
-4 -4 -4 -10z"/>
<path d="M2172 5038 c6 -18 28 -21 28 -4 0 9 -7 16 -16 16 -9 0 -14 -5 -12
-12z"/>
<path d="M1140 5021 c0 -5 7 -11 15 -15 8 -3 15 -1 15 3 0 5 -7 11 -15 15 -8
3 -15 1 -15 -3z"/>
<path d="M2091 5004 c0 -11 3 -14 6 -6 3 7 2 16 -1 19 -3 4 -6 -2 -5 -13z"/>
<path d="M2117 5004 c3 -7 9 -14 14 -14 14 0 10 17 -5 23 -10 4 -13 1 -9 -9z"/>
<path d="M2251 5008 c-1 -20 14 -24 25 -6 4 6 3 8 -4 4 -5 -3 -13 0 -15 6 -3
8 -6 6 -6 -4z"/>
<path d="M1801 4994 c0 -11 3 -14 6 -6 3 7 2 16 -1 19 -3 4 -6 -2 -5 -13z"/>
<path d="M2150 5006 c0 -9 30 -14 35 -6 4 6 -3 10 -14 10 -12 0 -21 -2 -21 -4z"/>
<path d="M2200 5006 c0 -2 9 -6 20 -9 11 -3 20 -1 20 4 0 5 -9 9 -20 9 -11 0
-20 -2 -20 -4z"/>
<path d="M1023 4993 c-7 -3 -13 -9 -13 -14 0 -6 4 -8 9 -4 5 3 12 -3 14 -12 4
-17 5 -17 6 -1 1 12 6 15 19 11 18 -6 17 -4 -8 13 -8 6 -21 9 -27 7z"/>
<path d="M1880 4990 c0 -5 5 -10 10 -10 6 0 10 5 10 10 0 6 -4 10 -10 10 -5 0
-10 -4 -10 -10z"/>
<path d="M1920 4990 c0 -5 5 -10 10 -10 6 0 10 5 10 10 0 6 -4 10 -10 10 -5 0
-10 -4 -10 -10z"/>
<path d="M1955 4990 c-3 -5 -1 -10 4 -10 6 0 11 5 11 10 0 6 -2 10 -4 10 -3 0
-8 -4 -11 -10z"/>
<path d="M2466 4983 c-11 -11 -6 -23 9 -23 8 0 15 4 15 9 0 13 -16 22 -24 14z"/>
<path d="M2810 4958 c0 -14 -3 -33 -6 -42 -5 -13 1 -16 33 -16 l38 0 -3 43
c-3 40 -6 43 -33 42 -25 0 -29 -4 -29 -27z m40 -27 c0 -6 -4 -13 -10 -16 -5
-3 -10 1 -10 9 0 9 5 16 10 16 6 0 10 -4 10 -9z"/>
<path d="M2608 4945 c-4 -34 -3 -35 30 -35 27 0 33 3 28 16 -3 9 -6 24 -6 35
0 13 -7 19 -24 19 -20 0 -25 -6 -28 -35z"/>
<path d="M1431 4953 c0 -11 3 -13 6 -5 2 6 10 9 15 6 7 -4 8 -2 4 4 -11 18
-26 14 -25 -5z"/>
<path d="M1490 4955 c-10 -12 -10 -15 2 -15 8 0 15 7 15 15 0 8 -1 15 -2 15
-2 0 -8 -7 -15 -15z"/>
<path d="M1877 4954 c-8 -8 1 -24 14 -24 5 0 9 7 9 15 0 15 -12 20 -23 9z"/>
<path d="M1000 4934 c0 -7 17 -11 44 -10 63 2 67 13 7 17 -33 3 -51 0 -51 -7z"/>
<path d="M3006 4935 c4 -8 8 -15 10 -15 2 0 4 7 4 15 0 8 -4 15 -10 15 -5 0
-7 -7 -4 -15z"/>
<path d="M2113 4925 c0 -10 4 -12 13 -4 8 7 13 6 17 -3 2 -7 8 -9 13 -5 5 4 2
12 -6 17 -22 14 -37 12 -37 -5z"/>
<path d="M2455 4930 c3 -5 12 -7 20 -3 21 7 19 13 -6 13 -11 0 -18 -4 -14 -10z"/>
<path d="M2545 4930 c3 -5 8 -10 11 -10 2 0 4 5 4 10 0 6 -5 10 -11 10 -5 0
-7 -4 -4 -10z"/>
<path d="M1330 4915 c0 -6 7 -12 15 -12 8 0 15 6 15 12 0 6 -7 12 -15 12 -8 0
-15 -6 -15 -12z"/>
<path d="M2175 4920 c4 -6 11 -8 16 -5 14 9 11 15 -7 15 -8 0 -12 -5 -9 -10z"/>
<path d="M2210 4919 c0 -5 5 -7 10 -4 6 3 10 8 10 11 0 2 -4 4 -10 4 -5 0 -10
-5 -10 -11z"/>
<path d="M1330 4670 c0 -5 5 -10 10 -10 6 0 10 5 10 10 0 6 -4 10 -10 10 -5 0
-10 -4 -10 -10z"/>
<path d="M1990 4600 c0 -5 5 -10 10 -10 6 0 10 5 10 10 0 6 -4 10 -10 10 -5 0
-10 -4 -10 -10z"/>
<path d="M2765 4211 c18 -7 18 -9 3 -12 -13 -3 -15 -8 -8 -19 10 -17 15 -14
24 18 6 18 4 22 -16 21 -22 0 -22 -1 -3 -8z"/>
<path d="M1930 4082 c6 -13 14 -21 18 -18 3 4 -2 14 -12 24 -18 16 -18 16 -6
-6z"/>
<path d="M3067 3783 c-10 -9 -9 -33 1 -33 4 0 8 9 8 20 0 23 0 22 -9 13z"/>
<path d="M1972 3590 c0 -14 2 -19 5 -12 2 6 2 18 0 25 -3 6 -5 1 -5 -13z"/>
<path d="M2785 3290 c-2 -3 5 -6 15 -7 11 -1 22 2 25 7 3 5 -4 8 -16 7 -11 -1
-22 -4 -24 -7z"/>
<path d="M2717 3084 c-4 -4 -7 -18 -7 -31 0 -20 4 -23 28 -17 21 4 24 3 12 -5
-12 -9 -10 -11 10 -11 36 0 52 14 48 41 -2 20 -9 24 -43 27 -23 2 -44 0 -48
-4z"/>
</g>
</svg>
