<?xml version="1.0" standalone="no"?>
<!DOCTYPE svg PUBLIC "-//W3C//DTD SVG 20010904//EN"
 "http://www.w3.org/TR/2001/REC-SVG-20010904/DTD/svg10.dtd">
<svg version="1.0" xmlns="http://www.w3.org/2000/svg"
 width="296.000000pt" height="222.000000pt" viewBox="0 0 296.000000 222.000000"
 preserveAspectRatio="xMidYMid meet">
<metadata>
Created by potrace 1.16, written by Peter Selinger 2001-2019
</metadata>
<g transform="translate(0.000000,222.000000) scale(0.100000,-0.100000)"
fill="#000000" stroke="none">
<path d="M1639 2085 c-32 -17 -50 -34 -57 -54 -6 -17 -35 -56 -66 -86 -53 -54
-55 -55 -111 -55 -46 0 -63 -5 -87 -25 l-30 -25 -222 4 c-121 3 -249 8 -283
11 -35 4 -86 2 -117 -5 -81 -17 -96 -42 -96 -158 0 -69 -4 -92 -16 -103 -9 -7
-23 -27 -32 -44 -19 -36 -62 -97 -109 -156 -18 -22 -49 -74 -69 -116 -30 -61
-47 -83 -93 -117 -95 -70 -131 -114 -131 -158 0 -31 4 -38 19 -38 31 0 33 -46
4 -81 -31 -36 -23 -49 31 -49 44 0 70 18 95 68 14 27 40 28 88 2 45 -24 121
-26 149 -5 21 16 109 20 119 6 3 -5 18 -12 33 -16 32 -7 81 15 131 57 25 23
39 28 60 23 16 -3 49 1 76 10 l48 17 24 -29 c13 -15 31 -42 38 -60 8 -18 25
-37 37 -44 11 -6 50 -39 85 -73 l64 -61 102 -7 c56 -4 123 -10 149 -13 45 -7
50 -5 80 27 18 19 41 47 51 61 25 37 74 37 108 0 34 -38 53 -97 40 -122 -20
-36 -12 -71 25 -116 35 -43 35 -43 89 -38 69 7 109 -14 99 -52 -11 -43 13 -80
69 -110 62 -33 107 -73 107 -94 0 -35 58 -163 91 -201 19 -23 27 -25 102 -23
45 1 83 6 85 11 1 5 43 7 96 4 90 -4 95 -4 119 21 14 13 30 43 36 64 16 59 41
77 104 74 30 -1 65 3 80 8 25 10 27 15 27 65 0 30 -5 58 -10 61 -6 4 -17 23
-25 42 -14 33 -14 38 2 62 32 47 43 73 43 100 0 49 -26 100 -80 158 -30 32
-62 70 -71 84 -14 22 -26 27 -74 31 -50 4 -61 9 -96 46 -22 22 -61 55 -87 71
-26 17 -51 35 -56 40 -4 5 -17 19 -28 31 -12 13 -29 20 -46 19 -65 -5 -84 11
-37 33 34 15 32 28 -2 19 -18 -5 -29 -15 -31 -29 -7 -44 -62 -8 -62 40 0 36
-28 111 -45 120 -19 11 -16 65 4 73 13 5 12 9 -9 25 l-25 20 25 1 c14 1 30 2
36 2 16 0 18 180 3 209 -7 13 -36 52 -66 88 -30 36 -56 76 -59 90 -9 43 -19
54 -68 79 -31 15 -57 38 -73 65 -14 23 -36 54 -49 69 -13 15 -29 47 -35 70
-16 55 -26 66 -74 88 -53 25 -91 23 -146 -6z m-27 -179 c3 2 8 -7 10 -21 3
-14 1 -28 -3 -31 -5 -3 -9 2 -9 10 0 9 -4 16 -10 16 -5 0 -10 -7 -10 -15 0 -8
-5 -15 -11 -15 -7 0 -9 9 -5 23 3 12 6 28 6 36 0 10 3 11 13 2 8 -6 16 -8 19
-5z m275 -102 c-3 -3 -12 -4 -19 -1 -8 3 -5 6 6 6 11 1 17 -2 13 -5z m40 -76
c-3 -7 -5 -2 -5 12 0 14 2 19 5 13 2 -7 2 -19 0 -25z m43 14 c0 -13 -12 -22
-22 -16 -10 6 -1 24 13 24 5 0 9 -4 9 -8z m-965 -83 c5 -14 2 -25 -6 -30 -19
-12 -29 -11 -29 1 0 6 7 10 16 10 9 0 14 5 12 11 -2 6 -6 9 -9 7 -3 -2 -13 3
-22 10 -13 11 -16 6 -19 -48 -2 -43 1 -60 10 -60 6 0 12 11 12 25 0 14 4 25
10 25 5 0 17 -11 26 -25 9 -14 25 -25 36 -25 16 0 15 4 -12 26 -29 25 -29 27
-13 40 16 11 16 15 4 36 -13 22 -13 23 6 6 24 -22 47 -23 39 -3 -3 8 -1 15 5
15 7 0 10 -22 7 -60 l-3 -60 35 0 c47 0 80 24 80 59 0 15 -5 32 -12 39 -9 9
-5 9 16 0 24 -12 27 -17 24 -55 -2 -33 0 -43 12 -43 12 0 14 10 12 45 -3 31 0
45 8 45 7 0 19 8 26 18 12 16 13 16 19 0 8 -20 40 -24 51 -6 4 6 3 8 -2 5 -6
-3 -16 -2 -23 2 -9 6 -5 10 13 13 23 5 26 2 27 -21 0 -25 0 -26 9 -3 9 22 44
30 54 13 4 -5 -2 -7 -13 -4 -11 3 -21 -2 -25 -12 -5 -14 -2 -16 20 -12 25 4
26 3 22 -39 -3 -39 -1 -44 17 -43 11 0 14 3 8 6 -15 6 -18 99 -3 108 6 3 7 -1
4 -9 -9 -22 22 -21 35 2 9 15 10 14 11 -6 0 -21 4 -23 35 -19 19 3 35 3 35 2
0 -2 3 -10 6 -19 4 -11 0 -16 -15 -16 -15 0 -19 5 -15 18 3 9 -2 4 -11 -13
-10 -16 -24 -36 -33 -42 -14 -12 -13 -13 6 -13 12 0 21 3 21 8 -4 26 3 33 34
30 23 -2 32 -8 31 -20 -1 -12 5 -18 17 -18 19 0 19 1 -2 43 -12 23 -18 39 -14
35 3 -3 20 -2 37 2 l30 9 -4 -44 c-2 -26 1 -45 7 -45 6 0 9 20 7 48 l-4 47 46
-45 46 -44 0 37 0 37 140 0 c99 0 139 -3 137 -11 -1 -6 4 -14 12 -17 10 -3 12
0 8 12 -6 14 -1 17 25 14 25 -2 42 -15 75 -56 42 -51 43 -55 43 -125 0 -90 -7
-117 -31 -117 -27 0 -32 -17 -9 -33 18 -12 18 -15 5 -20 -9 -4 -15 -19 -15
-42 l0 -35 -52 -1 c-29 -1 -57 -1 -62 0 -6 1 -89 2 -185 1 -127 0 -177 -4
-183 -13 -6 -9 -8 -9 -8 1 0 9 -46 12 -195 12 -123 0 -195 4 -195 10 0 6 -7
10 -15 10 -8 0 -15 -4 -15 -10 0 -6 -30 -10 -70 -10 -40 0 -70 4 -70 10 0 6
-7 10 -15 10 -8 0 -15 -4 -15 -10 0 -6 -132 -10 -365 -10 -201 0 -365 3 -365
5 0 16 67 135 91 163 16 18 29 37 29 41 0 5 18 31 40 57 22 27 40 54 40 60 0
6 11 23 25 38 14 15 25 35 25 45 0 14 9 20 36 23 l36 4 -4 -43 c-2 -34 0 -43
13 -43 12 0 15 7 11 25 -2 14 0 25 6 25 6 0 19 -11 30 -25 11 -14 30 -25 43
-25 20 0 17 4 -19 31 -51 37 -44 61 14 52 28 -5 34 -2 34 12 0 13 -6 16 -23
11 -16 -4 -24 -1 -24 7 0 9 10 12 29 9 26 -4 28 -7 28 -51 0 -26 5 -52 12 -59
18 -18 64 -15 79 6 13 15 12 16 -3 4 -9 -8 -27 -12 -40 -10 -20 3 -23 9 -26
56 -2 28 1 52 7 52 5 0 7 -9 4 -20 -5 -18 -1 -20 51 -17 37 1 56 6 56 15 0 6
-7 12 -15 12 -8 0 -15 5 -15 11 0 5 3 8 8 6 4 -3 16 -1 27 3 26 10 52 -4 60
-31z m-105 11 c0 -5 -7 -7 -15 -4 -8 4 -12 10 -9 15 6 11 24 2 24 -11z m764 7
c-3 -8 -11 -14 -19 -14 -21 0 -19 15 3 20 9 3 18 5 19 6 1 0 0 -5 -3 -12z
m-934 -5 c0 -5 -11 -19 -25 -32 l-25 -23 0 31 c0 27 4 32 25 32 14 0 25 -4 25
-8z m424 -2 c-9 -8 -54 -7 -54 2 0 5 13 7 30 6 16 -1 27 -5 24 -8z m106 6 c0
-3 -4 -8 -10 -11 -5 -3 -10 -1 -10 4 0 6 5 11 10 11 6 0 10 -2 10 -4z m-92
-55 c5 -29 -15 -51 -44 -51 -21 0 -24 5 -24 38 0 35 1 37 32 36 26 -1 34 -6
36 -23z m582 2 c0 -13 -1 -23 -3 -23 -2 0 -13 10 -25 23 l-21 22 25 0 c18 0
24 -5 24 -22z m351 -444 l24 -20 -30 17 c-39 24 -40 24 -28 24 6 0 21 -9 34
-21z m-1366 -29 c3 -5 -8 -16 -24 -25 -36 -18 -41 -19 -41 -2 0 29 50 51 65
27z m139 -15 c-4 -8 -8 -15 -10 -15 -2 0 -4 7 -4 15 0 8 4 15 10 15 5 0 7 -7
4 -15z m26 -15 c0 -5 -2 -10 -4 -10 -3 0 -8 5 -11 10 -3 6 -1 10 4 10 6 0 11
-4 11 -10z m1295 -20 c3 -5 -1 -10 -9 -10 -8 0 -18 5 -21 10 -3 6 1 10 9 10 8
0 18 -4 21 -10z m-52 -15 c-3 -9 -8 -14 -10 -11 -3 3 -2 9 2 15 9 16 15 13 8
-4z m-283 -12 c0 -5 -5 -15 -10 -23 -8 -12 -10 -11 -10 8 0 12 5 22 10 22 6 0
10 -3 10 -7z m-1090 -45 c0 -36 -2 -38 -33 -38 -32 0 -32 1 -29 38 3 33 6 37
33 37 27 0 29 -3 29 -37z m852 -31 c9 -4 10 -6 1 -6 -12 -1 -63 59 -63 75 0 5
11 -8 25 -28 13 -20 30 -38 37 -41z m280 66 c-12 -2 -20 -9 -17 -14 4 -5 -1
-9 -9 -9 -9 0 -16 4 -16 9 0 12 19 20 45 19 17 -1 16 -1 -3 -5z m178 -48 c-7
-8 -17 -15 -23 -15 -6 0 -2 7 9 15 25 19 30 19 14 0z m-718 -47 c3 -37 3 -38
-30 -38 -33 0 -33 1 -27 33 8 34 17 44 40 44 8 0 15 -15 17 -39z m679 -5 c13
-17 13 -17 -6 -3 -11 8 -22 16 -24 17 -2 2 0 3 6 3 6 0 17 -8 24 -17z m-62
-36 c-2 -1 -14 -10 -26 -20 -16 -14 -23 -15 -29 -6 -4 7 -3 10 3 6 6 -4 16 0
23 8 7 8 17 15 23 15 6 0 8 -1 6 -3z m110 -19 c11 -15 11 -18 -1 -18 -7 0 -14
10 -15 21 -1 12 -1 20 0 18 2 -2 9 -12 16 -21z m-621 -96 c-5 -2 -16 -1 -25 2
-14 6 -14 8 3 21 17 12 20 11 25 -3 4 -9 2 -19 -3 -20z m711 -6 c-1 -20 -2
-20 -6 -1 -3 11 -10 27 -17 35 -10 13 -9 13 7 1 9 -7 16 -23 16 -35z m594
-120 c4 -10 1 -13 -8 -9 -8 3 -12 9 -9 14 7 12 11 11 17 -5z m-583 -26 c9 -16
8 -18 -5 -14 -8 4 -15 12 -15 20 0 20 7 17 20 -6z m-282 -30 c-12 -16 -25 -30
-28 -30 -4 0 -5 14 -2 30 3 24 9 30 28 30 l25 0 -23 -30z m18 -27 c-11 -11
-19 6 -11 24 8 17 8 17 12 0 3 -10 2 -21 -1 -24z m71 -20 c-3 -10 -5 -4 -5 12
0 17 2 24 5 18 2 -7 2 -21 0 -30z m40 -5 c-3 -7 -5 -2 -5 12 0 14 2 19 5 13 2
-7 2 -19 0 -25z m96 -225 c-7 -2 -21 -2 -30 0 -10 3 -4 5 12 5 17 0 24 -2 18
-5z m313 -112 c27 10 48 4 39 -11 -3 -4 -21 -8 -40 -7 -29 1 -35 5 -34 21 1
17 2 17 6 4 3 -14 9 -15 29 -7z m-151 -1 c-3 -5 -1 -19 5 -30 7 -13 7 -20 0
-20 -5 0 -10 7 -10 15 0 8 -4 15 -10 15 -5 0 -10 -7 -10 -15 0 -8 -4 -15 -10
-15 -5 0 -10 6 -10 14 0 28 12 46 32 46 10 0 16 -4 13 -10z"/>
<path d="M1280 1653 c0 -14 12 -28 36 -42 40 -24 36 -45 -7 -39 -18 3 -26 1
-21 -4 5 -5 22 -8 38 -6 42 5 45 42 5 62 -16 9 -35 24 -40 33 -9 16 -10 16
-11 -4z"/>
<path d="M1892 1571 c4 -13 18 -16 19 -4 0 4 -5 9 -11 12 -7 2 -11 -2 -8 -8z"/>
<path d="M1800 1536 c0 -2 9 -6 20 -9 11 -3 18 -1 14 4 -5 9 -34 13 -34 5z"/>
<path d="M1742 1523 c-17 -3 -22 -10 -20 -26 2 -17 -4 -23 -27 -28 -27 -6 -28
-7 -5 -8 32 -1 54 13 48 30 -3 9 7 19 26 26 31 11 21 14 -22 6z"/>
<path d="M1130 1490 c0 -5 5 -10 10 -10 6 0 10 5 10 10 0 6 -4 10 -10 10 -5 0
-10 -4 -10 -10z"/>
<path d="M1790 1484 c-30 -16 -50 -42 -50 -63 1 -9 7 -1 15 17 9 20 21 32 33
32 11 0 22 7 26 15 3 8 4 15 3 14 -1 -1 -13 -7 -27 -15z"/>
<path d="M1340 1470 c0 -5 7 -10 15 -10 8 0 15 5 15 10 0 6 -7 10 -15 10 -8 0
-15 -4 -15 -10z"/>
<path d="M1596 1464 c-20 -12 -25 -19 -17 -27 8 -8 2 -18 -22 -38 l-32 -28 52
-1 c28 0 55 -5 59 -11 4 -8 9 -8 17 0 8 8 19 3 40 -17 l29 -27 24 30 c13 17
24 37 24 45 0 9 -6 5 -13 -9 -6 -13 -20 -29 -29 -35 -14 -9 -21 -6 -34 12 -9
13 -23 22 -32 21 -34 -3 -116 4 -94 8 12 2 22 8 22 12 0 4 27 5 60 3 43 -3 60
-1 60 8 0 8 -10 11 -30 8 -16 -3 -30 0 -30 5 0 5 -7 4 -15 -3 -11 -9 -15 -9
-15 -1 0 7 -4 10 -9 7 -5 -3 -14 1 -21 9 -7 8 -11 15 -9 15 17 1 79 29 64 29
-11 0 -33 -7 -49 -15z"/>
<path d="M1450 1450 c-13 -8 -12 -10 3 -10 9 0 17 5 17 10 0 12 -1 12 -20 0z"/>
<path d="M2120 1450 c0 -5 -3 -9 -7 -9 -24 4 -33 -4 -33 -26 0 -20 5 -25 25
-25 22 0 25 4 25 35 0 19 -2 35 -5 35 -3 0 -5 -4 -5 -10z m0 -34 c0 -3 -4 -8
-10 -11 -5 -3 -10 -1 -10 4 0 6 5 11 10 11 6 0 10 -2 10 -4z"/>
<path d="M682 1430 c0 -14 2 -19 5 -12 2 6 2 18 0 25 -3 6 -5 1 -5 -13z"/>
<path d="M893 1443 c-13 -2 -23 -11 -23 -19 0 -18 14 -18 30 0 6 8 24 17 38
19 26 4 26 4 2 4 -14 0 -35 -2 -47 -4z"/>
<path d="M1776 1442 c-3 -6 -1 -14 5 -17 15 -10 25 3 12 16 -7 7 -13 7 -17 1z"/>
<path d="M613 1403 c-7 -3 -13 -16 -13 -29 0 -19 5 -24 25 -24 21 0 25 5 25
28 0 28 -10 34 -37 25z"/>
<path d="M1330 1400 c0 -5 5 -10 10 -10 6 0 10 5 10 10 0 6 -4 10 -10 10 -5 0
-10 -4 -10 -10z"/>
<path d="M1060 1390 c-12 -7 -10 -9 8 -7 12 0 22 5 22 9 0 11 -12 10 -30 -2z"/>
<path d="M2031 1374 c0 -11 3 -14 6 -6 3 7 2 16 -1 19 -3 4 -6 -2 -5 -13z"/>
<path d="M1826 1372 c-2 -4 4 -9 15 -9 10 -1 19 2 19 8 0 11 -27 12 -34 1z"/>
<path d="M1870 1368 c0 -4 7 -8 15 -8 8 0 15 4 15 8 0 5 -7 9 -15 9 -8 0 -15
-4 -15 -9z"/>
<path d="M1300 1344 c0 -8 5 -12 10 -9 6 4 8 11 5 16 -9 14 -15 11 -15 -7z"/>
<path d="M1485 1340 c3 -5 10 -10 16 -10 5 0 9 5 9 10 0 6 -7 10 -16 10 -8 0
-12 -4 -9 -10z"/>
<path d="M560 1322 c0 -5 7 -9 15 -9 8 0 15 4 15 9 0 4 -7 8 -15 8 -8 0 -15
-4 -15 -8z"/>
<path d="M1550 1310 c0 -5 5 -10 11 -10 5 0 7 5 4 10 -3 6 -8 10 -11 10 -2 0
-4 -4 -4 -10z"/>
<path d="M1206 1298 c3 -4 9 -8 15 -8 5 0 9 4 9 8 0 5 -7 9 -15 9 -8 0 -12 -4
-9 -9z"/>
<path d="M1270 1300 c0 -5 7 -10 16 -10 8 0 12 5 9 10 -3 6 -10 10 -16 10 -5
0 -9 -4 -9 -10z"/>
<path d="M460 1285 c0 -8 2 -15 4 -15 2 0 6 7 10 15 3 8 1 15 -4 15 -6 0 -10
-7 -10 -15z"/>
<path d="M2048 1265 c-4 -34 14 -51 25 -22 4 10 6 10 6 0 1 -7 8 -13 17 -13
13 0 15 6 9 27 -8 33 -5 29 -31 37 -19 6 -22 2 -26 -29z"/>
<path d="M1740 1280 c0 -5 5 -10 10 -10 6 0 10 5 10 10 0 6 -4 10 -10 10 -5 0
-10 -4 -10 -10z"/>
<path d="M1870 1260 c0 -26 4 -30 28 -30 26 0 28 3 24 30 -3 24 -9 30 -28 30
-20 0 -24 -5 -24 -30z"/>
<path d="M821 1264 c0 -11 3 -14 6 -6 3 7 2 16 -1 19 -3 4 -6 -2 -5 -13z"/>
<path d="M1220 1260 c0 -5 5 -10 10 -10 6 0 10 5 10 10 0 6 -4 10 -10 10 -5 0
-10 -4 -10 -10z"/>
<path d="M1460 1240 c0 -5 5 -10 11 -10 5 0 7 5 4 10 -3 6 -8 10 -11 10 -2 0
-4 -4 -4 -10z"/>
<path d="M1810 1240 c0 -5 5 -10 11 -10 5 0 7 5 4 10 -3 6 -8 10 -11 10 -2 0
-4 -4 -4 -10z"/>
<path d="M688 1233 c7 -3 16 -2 19 1 4 3 -2 6 -13 5 -11 0 -14 -3 -6 -6z"/>
<path d="M690 1654 c0 -14 3 -14 15 -4 8 7 15 14 15 16 0 2 -7 4 -15 4 -8 0
-15 -7 -15 -16z"/>
<path d="M730 1010 c0 -5 5 -10 10 -10 6 0 10 5 10 10 0 6 -4 10 -10 10 -5 0
-10 -4 -10 -10z"/>
<path d="M1326 961 c-4 -7 -5 -15 -2 -18 9 -9 19 4 14 18 -4 11 -6 11 -12 0z"/>
<path d="M2230 1300 c6 -11 13 -20 16 -20 2 0 0 9 -6 20 -6 11 -13 20 -16 20
-2 0 0 -9 6 -20z"/>
<path d="M2250 1261 c0 -4 -14 -7 -32 -5 -32 4 -34 -5 -1 -10 10 -2 19 -13 21
-24 3 -17 10 -22 32 -22 16 0 31 -5 33 -10 3 -6 4 -5 3 2 -1 7 -15 14 -30 16
-25 3 -28 7 -22 33 3 16 3 29 1 29 -3 0 -5 -4 -5 -9z"/>
<path d="M2310 1156 c0 -2 8 -10 18 -17 15 -13 16 -12 3 4 -13 16 -21 21 -21
13z"/>
</g>
</svg>
