<?xml version="1.0" standalone="no"?>
<!DOCTYPE svg PUBLIC "-//W3C//DTD SVG 20010904//EN"
 "http://www.w3.org/TR/2001/REC-SVG-20010904/DTD/svg10.dtd">
<svg version="1.0" xmlns="http://www.w3.org/2000/svg"
 width="1795.000000pt" height="415.000000pt" viewBox="0 0 1795.000000 415.000000"
 preserveAspectRatio="xMidYMid meet">
<metadata>
Created by potrace 1.16, written by Peter Selinger 2001-2019
</metadata>
<g transform="translate(0.000000,415.000000) scale(0.100000,-0.100000)"
fill="#000000" stroke="none">
<path d="M110 2115 l0 -1945 8820 0 8820 0 0 1945 0 1945 -8820 0 -8820 0 0
-1945z m17590 0 l0 -1895 -8770 0 -8770 0 0 1895 0 1895 8770 0 8770 0 0
-1895z"/>
<path d="M1870 3831 c-14 -5 -47 -9 -73 -10 -45 -1 -160 -40 -230 -78 -15 -8
-39 -20 -52 -27 -28 -15 -95 -85 -95 -100 0 -5 -8 -18 -17 -28 -24 -26 -24
-135 0 -171 9 -14 17 -32 17 -39 1 -19 54 -75 79 -83 12 -3 21 -10 21 -15 0
-4 19 -17 43 -28 148 -69 151 -70 284 -83 179 -17 319 -2 453 49 52 20 97 39
100 43 3 3 24 18 47 33 62 38 123 143 123 211 0 47 -105 205 -136 205 -4 0
-15 7 -24 15 -28 25 -192 87 -255 96 -94 14 -257 19 -285 10z"/>
<path d="M3810 2125 l0 -1685 95 0 95 0 0 1685 0 1685 -95 0 -95 0 0 -1685z"/>
<path d="M17320 2125 l0 -1685 95 0 95 0 0 1685 0 1685 -95 0 -95 0 0 -1685z"/>
<path d="M1320 3620 c0 -5 -13 -7 -30 -3 -18 3 -30 1 -30 -5 0 -6 10 -12 23
-14 20 -3 22 -9 25 -71 4 -86 22 -79 22 9 0 36 4 64 10 64 15 0 12 17 -5 24
-8 3 -15 1 -15 -4z"/>
<path d="M1283 3423 c24 -4 27 -8 28 -46 0 -23 5 -51 10 -62 6 -14 8 -2 6 42
-1 49 1 63 13 67 8 2 -7 4 -35 3 -27 0 -38 -2 -22 -4z"/>
<path d="M989 3399 c-25 -4 -66 -16 -92 -28 -25 -12 -49 -21 -53 -21 -4 0 -22
-11 -40 -25 -18 -14 -36 -25 -41 -25 -12 -1 -103 -87 -103 -98 0 -5 -11 -17
-25 -26 -14 -9 -25 -23 -25 -30 0 -7 -7 -19 -15 -26 -16 -14 -104 -172 -109
-198 -1 -9 -8 -29 -13 -43 -6 -14 -17 -60 -24 -102 -14 -84 -2 -179 27 -221 8
-11 14 -27 14 -35 0 -15 60 -75 91 -92 10 -5 54 -9 99 -9 70 0 89 4 148 32 37
18 72 37 78 43 6 5 23 19 39 30 37 26 86 76 133 134 20 25 40 48 45 49 4 2 7
12 7 22 0 10 5 22 10 25 6 4 29 46 52 93 76 162 75 369 -3 470 -48 62 -124 93
-200 81z"/>
<path d="M2848 3355 c-53 -11 -97 -48 -132 -111 -47 -84 -42 -293 9 -402 81
-170 84 -174 198 -292 37 -39 71 -70 76 -70 4 0 21 -11 37 -25 16 -14 43 -29
59 -35 17 -5 48 -16 70 -24 53 -20 138 -20 178 0 37 19 97 73 97 88 0 6 6 23
14 38 31 60 40 134 26 221 -7 45 -17 93 -23 107 -6 14 -12 34 -14 44 -2 11
-17 41 -33 68 -17 27 -30 52 -30 56 0 12 -82 120 -126 168 -120 129 -282 196
-406 169z"/>
<path d="M8337 3052 c-10 -10 -17 -25 -17 -34 0 -8 -11 -62 -25 -119 -13 -57
-29 -124 -35 -149 -11 -49 -72 -305 -125 -525 -47 -196 -84 -351 -97 -410 -6
-27 -14 -63 -19 -79 -21 -67 -23 -66 125 -66 l134 0 37 153 c20 83 43 182 52
220 9 37 21 67 27 67 6 0 17 -15 25 -32 17 -41 53 -120 86 -193 14 -31 25 -58
25 -61 0 -8 39 -95 55 -124 14 -25 16 -25 160 -28 l147 -3 -7 31 c-6 29 -22
67 -92 220 -14 30 -40 89 -58 130 -19 41 -41 89 -49 105 -9 17 -16 35 -16 41
0 5 95 104 210 218 127 126 210 215 210 227 0 18 -9 19 -142 19 l-142 0 -188
-188 c-104 -103 -190 -186 -193 -184 -2 2 0 14 5 25 5 12 20 74 35 137 14 63
30 131 35 150 12 41 52 215 81 349 27 121 27 121 -121 121 -91 0 -109 -3 -123
-18z"/>
<path d="M13100 3055 c-7 -8 -23 -61 -35 -118 -12 -56 -37 -163 -54 -237 -18
-74 -41 -173 -52 -220 -19 -81 -26 -109 -49 -197 -5 -21 -16 -67 -24 -103 -37
-163 -78 -338 -86 -370 -5 -19 -12 -59 -16 -87 l-7 -53 131 0 130 0 10 33 c11
36 23 82 51 207 52 222 92 384 100 397 4 8 29 37 55 63 87 89 177 100 204 25
15 -40 6 -106 -39 -295 -16 -69 -34 -145 -40 -170 -6 -25 -14 -61 -20 -81 -5
-20 -14 -61 -19 -90 -6 -30 -13 -62 -16 -72 -5 -16 4 -17 132 -15 l138 3 12
45 c25 98 98 416 125 545 21 101 24 210 8 269 -6 21 -28 57 -50 81 -32 35 -52
46 -104 60 -101 28 -195 3 -315 -82 -23 -18 -24 -17 -16 2 4 11 25 94 46 185
22 91 44 186 50 211 18 77 15 79 -120 79 -93 0 -120 -3 -130 -15z"/>
<path d="M11794 3036 c-69 -31 -117 -155 -84 -217 17 -31 64 -49 131 -49 116
0 179 63 179 178 0 72 -29 96 -123 99 -46 2 -83 -2 -103 -11z"/>
<path d="M15033 3034 c-41 -21 -62 -44 -79 -91 -23 -67 -18 -111 17 -144 28
-26 38 -29 101 -29 89 0 139 25 168 85 22 45 26 115 9 147 -24 45 -151 64
-216 32z"/>
<path d="M5515 2961 c-42 -18 -48 -35 -101 -261 -20 -85 -47 -200 -61 -255
-14 -55 -28 -116 -33 -135 -4 -19 -31 -132 -60 -250 -29 -118 -58 -244 -66
-280 -8 -36 -16 -75 -19 -87 l-5 -23 139 0 140 0 15 53 c14 47 23 86 57 242 5
22 15 63 22 90 l13 50 140 6 c191 8 277 34 389 114 91 64 139 130 183 248 25
66 31 229 10 288 -30 87 -92 145 -195 182 -51 18 -87 21 -303 24 -135 1 -254
-1 -265 -6z m422 -244 c62 -33 78 -107 46 -208 -22 -69 -82 -130 -148 -152
-31 -11 -81 -17 -138 -17 -78 0 -88 2 -83 16 6 17 48 191 72 303 8 35 17 68
20 73 11 17 194 5 231 -15z"/>
<path d="M6735 2676 c-310 -58 -494 -324 -483 -696 4 -124 24 -175 98 -244 57
-53 132 -82 236 -91 135 -12 338 28 390 76 19 18 44 112 44 167 0 32 -38 36
-109 13 -34 -11 -100 -28 -147 -37 -80 -16 -89 -16 -138 -1 -29 9 -62 27 -74
39 -28 31 -47 105 -38 151 l7 37 124 0 c221 0 344 28 423 96 67 57 93 111 99
202 8 118 -23 193 -102 242 -76 47 -219 67 -330 46z m122 -206 c58 -21 71
-100 24 -152 l-29 -33 -141 -3 c-163 -4 -164 -4 -110 80 60 93 167 138 256
108z"/>
<path d="M12495 2684 c-11 -2 -45 -9 -75 -15 -94 -18 -208 -80 -271 -146 -133
-140 -208 -349 -196 -546 6 -107 28 -166 83 -227 109 -121 334 -142 538 -50
75 33 87 50 109 158 13 64 13 75 0 87 -20 21 -26 20 -125 -26 -182 -84 -304
-54 -324 79 -8 49 8 188 25 219 5 10 19 39 30 64 52 113 135 173 242 174 57 0
75 -5 143 -40 72 -37 79 -39 103 -25 30 17 51 70 60 151 5 53 4 57 -23 76 -66
47 -237 83 -319 67z"/>
<path d="M14235 2676 c-206 -36 -264 -84 -265 -218 0 -56 22 -63 108 -34 85
29 212 50 251 41 56 -12 76 -65 56 -153 -7 -36 -14 -38 -165 -46 -151 -8 -269
-54 -349 -134 -61 -62 -90 -125 -97 -215 -11 -125 25 -198 121 -250 32 -18 56
-22 125 -22 96 1 143 17 223 78 26 21 49 37 52 37 2 0 5 -19 7 -42 l3 -43 108
-3 c59 -1 107 -1 107 0 0 5 29 159 45 238 8 41 23 111 34 155 11 44 27 116 36
160 9 44 21 96 26 116 23 89 -1 208 -52 260 -38 39 -97 65 -179 78 -78 13
-104 13 -195 -3z m91 -623 c-13 -73 -28 -103 -68 -137 -53 -46 -98 -66 -145
-66 -57 0 -77 25 -71 88 10 101 83 148 232 151 l58 1 -6 -37z"/>
<path d="M15800 2679 c-58 -17 -114 -45 -163 -83 -26 -20 -49 -36 -52 -36 -2
0 -5 21 -7 48 l-3 47 -96 3 c-109 3 -110 3 -126 -73 -26 -117 -65 -283 -73
-315 -10 -39 -34 -144 -75 -325 -14 -66 -30 -133 -35 -150 -5 -16 -12 -51 -15
-77 l-7 -48 130 0 129 0 11 43 c21 80 91 382 107 462 9 44 25 98 34 120 31 69
135 155 188 155 12 0 35 -11 50 -24 26 -22 28 -30 27 -88 -1 -35 -18 -133 -38
-218 -20 -85 -43 -189 -52 -230 -9 -41 -20 -88 -24 -105 -5 -16 -12 -49 -15
-72 l-7 -43 134 0 134 0 29 123 c15 67 38 163 50 212 13 50 31 126 40 170 10
44 24 105 31 135 30 119 12 241 -45 304 -52 57 -179 89 -261 65z"/>
<path d="M7334 2604 c-9 -31 -17 -77 -17 -102 l-2 -47 198 -3 c108 -1 197 -3
197 -5 0 -1 -85 -88 -188 -193 -413 -420 -387 -391 -406 -473 -28 -122 -63
-111 374 -111 350 0 378 1 385 18 14 34 34 127 35 160 l0 32 -215 0 c-118 0
-215 3 -215 6 0 4 105 115 233 248 366 379 350 361 366 438 7 37 10 72 6 77
-4 8 -124 11 -370 11 l-364 0 -17 -56z"/>
<path d="M9217 2642 c-10 -10 -17 -26 -17 -34 0 -16 -15 -84 -85 -378 -67
-282 -73 -325 -54 -413 41 -194 290 -234 486 -79 l52 42 3 -53 3 -52 106 -3
c122 -3 105 -20 139 133 12 50 25 106 30 125 14 51 119 484 136 560 8 36 20
84 26 108 7 28 7 47 1 53 -6 6 -62 8 -134 7 l-124 -3 -17 -55 c-9 -30 -42
-161 -73 -290 -64 -267 -78 -304 -132 -355 -80 -77 -154 -95 -200 -49 -24 24
-25 31 -20 87 3 34 20 121 37 192 17 72 42 180 56 240 14 61 29 126 34 146 6
20 10 48 10 63 l0 26 -123 0 c-107 0 -126 -2 -140 -18z"/>
<path d="M10177 2654 c-9 -9 -8 -342 2 -686 6 -194 11 -271 21 -282 10 -13 37
-16 146 -16 l133 0 50 103 c47 98 105 221 149 317 11 25 33 72 49 105 l28 60
5 -280 c3 -154 9 -286 13 -292 6 -9 46 -13 141 -13 114 0 135 2 148 18 8 9 87
159 175 332 89 173 193 377 232 454 40 76 71 148 69 160 -3 20 -10 21 -117 24
-81 2 -118 -1 -129 -10 -8 -7 -29 -44 -47 -83 -18 -38 -44 -95 -58 -125 -14
-30 -48 -104 -77 -165 -29 -60 -68 -148 -87 -195 -19 -47 -38 -89 -42 -93 -4
-4 -6 140 -3 320 4 286 3 330 -11 341 -10 9 -46 12 -118 10 l-104 -3 -47 -95
c-89 -178 -206 -427 -238 -504 -18 -42 -33 -76 -35 -76 -1 0 -2 152 -1 338 l1
337 -121 3 c-66 1 -123 -1 -127 -4z"/>
<path d="M11678 2643 c-8 -10 -23 -52 -32 -93 -26 -113 -66 -281 -76 -320 -5
-19 -21 -84 -35 -145 -14 -60 -36 -155 -50 -210 -13 -55 -27 -116 -30 -135 -4
-19 -9 -43 -11 -52 -5 -17 6 -18 130 -18 l134 0 11 33 c6 17 22 84 37 147 14
63 39 171 56 240 16 69 33 143 37 165 5 22 16 68 25 103 26 97 64 291 58 297
-3 3 -58 5 -122 5 -99 0 -119 -3 -132 -17z"/>
<path d="M14925 2640 c-15 -17 -36 -90 -75 -270 -12 -55 -31 -135 -60 -260
-25 -105 -33 -141 -49 -215 -5 -27 -17 -81 -25 -120 -25 -114 -35 -105 113
-105 l128 0 16 58 c8 31 27 109 42 172 14 63 35 153 46 200 27 116 43 184 74
325 15 66 31 133 36 149 5 16 9 42 9 57 l0 29 -118 0 c-106 0 -121 -2 -137
-20z"/>
<path d="M3185 2022 c-68 -17 -165 -77 -242 -148 -56 -53 -136 -158 -148 -192
-3 -12 -10 -22 -15 -22 -4 0 -15 -19 -25 -42 -9 -24 -22 -56 -29 -73 -7 -16
-18 -43 -25 -58 -17 -42 -24 -213 -13 -284 11 -64 42 -117 91 -158 58 -47 211
-46 291 3 19 12 44 26 55 31 11 5 29 18 39 30 11 11 23 21 27 21 5 0 27 21 51
46 24 26 51 55 61 65 9 11 17 23 17 27 0 5 9 18 20 30 25 26 78 120 108 192
37 86 47 139 47 240 0 95 -3 111 -28 162 -34 69 -72 107 -123 123 -66 21 -97
23 -159 7z"/>
<path d="M608 2016 c-69 -13 -114 -51 -152 -128 -23 -47 -26 -63 -26 -167 0
-124 8 -160 62 -280 16 -35 36 -70 44 -78 8 -8 14 -19 14 -24 0 -5 25 -42 55
-83 89 -120 224 -222 332 -248 60 -15 74 -14 165 8 37 8 82 56 112 117 24 46
26 62 26 169 0 113 -3 132 -40 223 -28 71 -82 175 -104 200 -14 17 -26 34 -26
40 0 12 -170 175 -195 186 -11 5 -36 19 -55 31 -19 11 -55 25 -80 30 -25 4
-52 10 -60 12 -8 2 -41 -1 -72 -8z"/>
<path d="M1869 1315 c-141 -18 -286 -79 -366 -154 -28 -26 -69 -97 -77 -133
-14 -60 30 -165 90 -218 41 -36 91 -70 104 -70 5 0 10 -4 10 -9 0 -5 13 -12
30 -16 16 -3 46 -14 67 -24 61 -29 276 -46 398 -31 98 11 190 34 210 51 5 5
18 9 30 9 12 0 42 14 68 30 26 17 50 30 54 30 13 0 79 85 92 119 23 60 24 121
4 172 -18 46 -74 119 -91 119 -5 0 -21 10 -36 23 -50 43 -182 88 -301 103
-129 16 -158 15 -286 -1z"/>
</g>
</svg>
