<?xml version="1.0" standalone="no"?>
<!DOCTYPE svg PUBLIC "-//W3C//DTD SVG 20010904//EN"
 "http://www.w3.org/TR/2001/REC-SVG-20010904/DTD/svg10.dtd">
<svg version="1.0" xmlns="http://www.w3.org/2000/svg"
 width="1920.000000pt" height="544.000000pt" viewBox="0 0 1920.000000 544.000000"
 preserveAspectRatio="xMidYMid meet">
<metadata>
Created by potrace 1.16, written by Peter Selinger 2001-2019
</metadata>
<g transform="translate(0.000000,544.000000) scale(0.100000,-0.100000)"
fill="#000000" stroke="none">
<path d="M0 2720 l0 -2720 9600 0 9600 0 0 2720 0 2720 -9600 0 -9600 0 0
-2720z m1543 804 c7 -7 -25 -100 -60 -173 -45 -94 -112 -189 -196 -277 -254
-269 -527 -297 -639 -66 -31 65 -33 71 -33 192 0 116 9 177 38 270 20 64 -8
60 457 60 234 0 429 -3 433 -6z m2607 -14 c43 -86 55 -155 55 -305 0 -133 -1
-143 -28 -197 -34 -70 -101 -131 -162 -148 -48 -13 -159 -9 -192 8 -10 5 -38
20 -63 32 -160 82 -322 253 -416 440 -34 67 -73 177 -66 185 3 3 199 4 435 3
370 -3 431 -5 437 -18z m-1726 -115 c12 -119 28 -230 35 -238 8 -8 38 56 101
216 23 59 44 106 47 104 6 -7 -38 -299 -48 -319 -14 -28 0 -21 29 13 14 18 48
49 75 70 27 22 46 39 42 39 -3 0 15 27 40 60 25 33 48 60 50 60 11 0 -27 -69
-52 -93 l-28 -29 30 15 c71 36 88 40 152 40 43 -1 79 -7 98 -17 17 -9 35 -16
41 -16 6 0 39 -26 72 -57 53 -48 62 -62 62 -90 0 -43 -20 -34 -21 10 -1 18 -3
24 -6 15 -5 -19 -28 -24 -38 -8 -3 5 -11 7 -18 5 -14 -5 -41 14 -50 35 -4 12
-6 11 -6 -2 -1 -14 -10 -18 -36 -18 -19 0 -44 -5 -54 -12 -17 -10 -23 -8 -41
13 -19 21 -20 22 -8 2 11 -20 10 -25 -7 -37 -23 -18 -45 -20 -45 -6 0 6 -5 10
-11 10 -8 0 -8 -4 0 -14 10 -11 7 -17 -10 -29 -21 -15 -49 -13 -49 4 0 5 -5 9
-10 9 -6 0 -3 -11 5 -24 14 -22 14 -25 0 -40 -21 -20 -14 -21 -83 14 -33 17
-66 30 -73 30 -8 0 13 -14 46 -31 76 -38 81 -44 62 -63 -16 -16 -57 -22 -57
-8 0 12 -82 41 -125 44 -38 3 -41 1 -60 -37 -23 -45 -51 -75 -72 -75 -35 0
-88 64 -135 160 -9 19 -26 105 -38 190 -12 85 -24 166 -27 180 -11 50 14 4 47
-85 51 -141 91 -235 100 -235 8 0 17 57 41 254 14 107 22 104 33 -9z m-349
-62 c52 -74 54 -81 16 -54 -26 19 -71 85 -71 106 0 17 20 -2 55 -52z m-75 -20
c25 -10 51 -23 58 -30 7 -7 18 -13 23 -13 25 0 134 -112 178 -184 47 -77 49
-86 19 -86 -13 0 -45 -12 -73 -25 -58 -29 -90 -32 -99 -9 -4 9 -5 18 -4 19 14
12 102 45 120 45 13 0 30 5 38 10 30 19 -33 10 -105 -14 -50 -18 -73 -22 -82
-14 -22 18 -14 33 32 58 24 13 43 25 41 27 -6 6 -66 -19 -66 -27 0 -5 -9 -12
-21 -15 -28 -9 -69 32 -48 47 11 8 10 9 -3 4 -10 -3 -23 0 -30 7 -7 7 -30 23
-50 36 -39 23 -43 30 -30 47 4 5 -1 1 -10 -9 -13 -14 -21 -16 -37 -8 -11 6
-38 11 -60 11 -23 0 -41 5 -41 10 0 6 -10 2 -22 -9 -14 -14 -25 -17 -33 -11
-7 6 -15 2 -23 -11 -11 -17 -16 -18 -28 -9 -11 10 -14 9 -14 -4 0 -9 -4 -16
-10 -16 -5 0 -10 11 -10 24 0 15 18 40 54 74 102 97 213 121 336 75z m3981
-98 c102 -30 161 -60 225 -118 91 -82 133 -190 134 -338 0 -102 -16 -165 -65
-264 -26 -52 -110 -155 -127 -155 -5 0 -24 -11 -41 -24 -44 -33 -133 -74 -176
-82 -20 -4 -42 -12 -50 -18 -9 -7 -90 -12 -235 -13 l-221 -3 -7 -32 c-28 -133
-41 -198 -45 -228 -3 -19 -9 -39 -13 -45 -4 -5 -11 -31 -14 -57 -5 -36 -15
-53 -39 -74 -27 -23 -37 -25 -76 -20 -24 3 -53 13 -63 22 -17 16 -35 78 -29
99 2 6 7 33 12 60 4 28 15 86 23 130 9 44 18 96 21 115 4 19 10 44 15 55 5 11
11 36 14 55 3 19 12 71 21 115 9 44 18 94 21 110 3 17 9 39 14 50 5 11 11 36
15 55 13 75 24 130 50 245 15 66 31 138 35 160 22 103 27 121 39 142 28 53
109 70 352 72 113 1 170 -3 210 -14z m3001 -47 c26 -29 29 -39 25 -78 -5 -43
-27 -161 -47 -245 -5 -22 -16 -76 -25 -120 -9 -44 -20 -100 -25 -125 -5 -25
-20 -101 -35 -169 -14 -68 -24 -125 -22 -127 2 -2 34 22 72 54 38 31 113 91
166 132 53 41 138 110 190 152 106 86 134 100 181 91 66 -12 99 -76 68 -133
-5 -10 -95 -87 -199 -170 l-190 -152 13 -36 c23 -63 93 -224 130 -297 43 -85
47 -134 13 -171 -32 -34 -90 -41 -137 -17 -32 17 -74 79 -93 138 -26 82 -95
240 -104 240 -6 0 -49 -30 -95 -66 l-84 -66 -19 -98 c-25 -126 -48 -155 -124
-155 -43 0 -56 4 -76 26 -14 15 -25 39 -25 53 0 28 23 166 40 246 6 28 15 73
20 100 9 53 36 182 51 250 18 80 30 141 35 175 3 19 9 44 14 55 5 11 11 36 14
55 3 19 15 78 26 130 19 82 33 153 57 273 3 15 19 41 35 57 24 25 38 30 75 30
39 0 51 -5 75 -32z m5269 2 c32 -33 36 -69 18 -150 -6 -25 -14 -64 -20 -87 -5
-24 -13 -62 -19 -85 -9 -43 -26 -129 -53 -268 -8 -41 -14 -76 -12 -77 1 -2 17
18 35 45 49 67 112 125 167 151 27 13 56 27 65 32 24 12 158 11 158 -1 0 -5 7
-10 17 -10 31 0 103 -51 128 -91 60 -94 66 -198 23 -434 -11 -60 -24 -132 -28
-160 -25 -147 -39 -216 -52 -242 -18 -39 -79 -59 -131 -43 -64 19 -80 66 -57
180 6 30 17 96 25 145 8 50 20 117 27 150 6 33 12 100 12 148 1 88 1 89 -32
118 -27 24 -41 29 -87 29 -65 0 -109 -22 -179 -88 -67 -65 -156 -209 -156
-253 0 -11 -4 -27 -9 -37 -5 -9 -17 -62 -26 -117 -9 -55 -21 -110 -26 -123 -5
-13 -9 -33 -9 -46 0 -27 -18 -65 -41 -88 -21 -21 -80 -30 -116 -18 -60 21 -70
81 -39 230 10 47 22 105 26 130 5 25 12 59 15 75 4 17 17 84 30 150 13 66 26
134 30 150 3 17 10 50 15 75 5 25 21 99 35 165 15 66 30 143 35 170 5 28 14
73 20 100 6 28 13 64 16 80 14 81 58 125 123 125 36 0 49 -6 72 -30z m-12660
-41 c-5 -13 -10 -19 -10 -12 -1 15 10 45 15 40 3 -2 0 -15 -5 -28z m11228 -41
c73 -75 14 -210 -100 -225 -43 -6 -109 21 -109 44 0 7 -4 13 -10 13 -5 0 -10
24 -10 53 0 40 6 61 24 86 38 51 56 60 117 61 51 0 60 -3 88 -32z m3821 0 c30
-31 32 -36 27 -91 -4 -43 -12 -66 -28 -83 -72 -77 -179 -71 -219 12 -24 48
-24 61 -5 107 24 57 70 87 136 87 51 0 60 -3 89 -32z m-14062 -62 c18 -3 48
-16 68 -30 32 -22 34 -25 19 -40 -20 -20 -26 -20 -19 -1 4 8 1 15 -5 15 -6 0
-11 -4 -11 -8 0 -14 -35 -7 -64 11 -14 10 -40 20 -56 24 -17 3 -30 9 -30 12 0
16 25 30 44 26 12 -2 36 -6 54 -9z m-665 -13 c42 -23 117 -94 117 -110 0 -7 4
-13 8 -13 13 0 32 -63 26 -87 -8 -29 -20 -29 -35 -1 -7 13 -24 32 -37 43 -60
47 -59 46 -25 40 54 -11 45 9 -33 70 -41 32 -77 62 -80 67 -9 14 27 9 59 -9z
m1047 12 c0 -2 -37 -32 -81 -66 -70 -53 -80 -64 -66 -74 15 -10 14 -13 -1 -26
-9 -8 -27 -27 -39 -43 -25 -32 -43 -27 -43 12 0 66 138 200 208 202 12 0 22
-2 22 -5z m-668 -57 c-18 -5 -30 -13 -27 -18 4 -6 -6 -10 -22 -9 -25 0 -26 1
-8 9 11 5 16 9 10 10 -5 1 6 7 25 14 19 8 39 11 45 8 5 -3 -5 -10 -23 -14z
m-462 -49 c27 -6 50 -15 50 -20 0 -5 6 -9 14 -9 7 0 20 -7 27 -17 13 -15 12
-15 -6 -5 -37 21 -97 42 -121 42 -20 0 -22 -4 -18 -37 l4 -38 -13 40 c-20 60
-18 61 63 44z m-90 -13 c0 -9 -7 -12 -20 -9 -31 8 -34 23 -6 23 16 0 26 -6 26
-14z m1280 -7 c0 -21 -1 -21 -26 -4 -16 10 -30 13 -37 7 -7 -5 -28 -12 -47
-16 -32 -6 -33 -5 -15 8 24 16 49 23 93 25 26 1 32 -3 32 -20z m84 13 c3 -5
-10 -14 -29 -20 -39 -11 -49 3 -12 18 29 11 35 12 41 2z m-690 -63 c-5 -30 -3
-43 7 -49 11 -7 10 -10 -4 -16 -14 -5 -12 -9 15 -24 30 -16 33 -22 31 -57 -3
-42 -6 -40 50 -34 4 1 7 6 7 12 0 8 -5 8 -15 -1 -8 -7 -15 -9 -15 -6 0 13 33
56 42 56 6 0 5 -7 -3 -16 -10 -13 -10 -17 0 -24 11 -6 7 -16 -14 -44 -15 -20
-25 -39 -21 -43 3 -3 6 -1 6 5 0 7 4 12 9 12 5 0 9 -21 8 -47 -1 -29 3 -48 11
-50 15 -6 16 -49 2 -58 -8 -5 -7 -11 1 -21 9 -11 8 -19 -6 -34 -10 -11 -13
-20 -7 -20 6 0 10 -29 11 -72 1 -40 5 -100 11 -133 5 -33 10 -76 10 -96 0 -41
-29 -81 -63 -86 -12 -2 -26 -8 -31 -13 -14 -14 -42 -12 -56 4 -15 19 6 66 36
81 35 17 54 42 54 70 0 23 -4 26 -27 23 -16 -2 -28 -7 -27 -13 0 -5 -10 -21
-23 -35 l-23 -24 -38 37 c-39 38 -56 45 -67 27 -10 -16 18 -70 40 -76 36 -11
55 -36 55 -71 0 -29 -3 -33 -25 -33 -35 0 -102 35 -115 60 -8 15 -8 65 -1 173
6 84 8 162 5 175 -4 13 -2 22 5 22 7 0 6 8 -4 24 -11 17 -13 30 -6 48 6 15 5
31 -2 43 -7 14 -7 20 1 23 7 2 9 9 5 15 -4 7 0 8 12 3 14 -5 15 -3 7 6 -15 19
-22 108 -9 128 8 15 14 16 29 7 10 -7 18 -17 18 -24 0 -7 5 -13 10 -13 13 0
13 17 -1 26 -6 3 -9 17 -6 30 2 13 0 24 -4 24 -5 0 -9 5 -9 10 0 14 27 12 33
-2 5 -15 11 -3 22 47 4 17 10 24 12 17 7 -18 23 -4 23 19 0 11 4 18 9 14 5 -3
12 4 16 15 11 34 16 22 9 -21z m456 21 c0 -5 -5 -10 -11 -10 -5 0 -7 5 -4 10
3 6 8 10 11 10 2 0 4 -4 4 -10z m-522 -25 c-3 -3 -9 2 -12 12 -6 14 -5 15 5 6
7 -7 10 -15 7 -18z m662 5 c0 -11 -4 -20 -9 -20 -5 0 -7 9 -4 20 3 11 7 20 9
20 2 0 4 -9 4 -20z m-1210 -55 c0 -5 -5 -3 -10 5 -5 8 -10 20 -10 25 0 6 5 3
10 -5 5 -8 10 -19 10 -25z m770 -34 c0 -5 -7 -12 -16 -15 -14 -5 -15 -4 -4 9
14 17 20 19 20 6z m-762 -36 c11 -23 10 -25 -11 -21 -12 3 -48 8 -79 11 -70 8
-76 23 -10 28 26 2 56 4 68 5 14 1 25 -7 32 -23z m348 -9 c62 -62 82 -148 44
-186 -11 -11 -21 -18 -21 -15 -1 3 -2 10 -3 15 -1 14 -77 80 -91 80 -6 0 -16
-5 -22 -11 -35 -35 -44 41 -13 109 25 54 57 57 106 8z m554 14 c36 -31 43
-161 6 -131 -17 14 -61 -7 -91 -45 -35 -44 -55 -27 -55 45 0 55 3 62 41 105
46 51 65 56 99 26z m393 10 c47 0 29 -18 -25 -25 -29 -3 -66 -9 -81 -12 l-29
-5 18 27 c15 23 22 26 53 21 20 -3 48 -6 64 -6z m14371 -9 c3 -4 19 -11 35
-14 41 -8 102 -65 130 -121 39 -80 36 -236 -9 -451 -18 -83 -28 -136 -44 -220
-8 -44 -18 -92 -21 -107 -24 -97 -191 -102 -209 -6 -3 18 1 66 10 107 8 41 22
118 31 170 8 53 19 119 25 146 37 193 7 285 -95 285 -66 0 -117 -21 -173 -72
-87 -80 -163 -214 -186 -325 -4 -24 -12 -62 -17 -85 -5 -24 -14 -77 -21 -118
-7 -41 -16 -83 -21 -92 -5 -10 -9 -24 -9 -32 0 -8 -15 -24 -34 -35 -56 -35
-130 -24 -161 23 -17 26 -16 45 15 191 5 28 17 88 25 135 21 116 30 161 50
260 9 47 21 105 26 130 27 147 32 161 61 190 42 43 103 42 148 0 32 -30 33
-31 26 -98 -4 -37 -9 -78 -12 -92 -3 -15 7 -4 27 30 56 94 173 190 230 190 10
0 19 5 19 10 0 12 147 14 154 1z m-10385 -17 c133 -46 212 -164 195 -290 -9
-61 -53 -142 -98 -179 -43 -35 -163 -95 -190 -95 -8 0 -17 -4 -20 -9 -3 -5
-52 -14 -108 -20 -57 -7 -114 -15 -128 -17 -14 -3 -54 -7 -90 -10 -35 -3 -66
-7 -69 -9 -2 -3 5 -26 16 -52 13 -33 33 -57 62 -78 41 -29 48 -30 144 -30 102
0 102 0 197 48 104 52 145 58 178 27 56 -52 11 -133 -105 -189 -37 -18 -76
-37 -85 -42 -10 -5 -26 -9 -36 -9 -10 0 -23 -5 -30 -12 -8 -8 -53 -12 -134
-12 -100 -1 -131 3 -163 18 -22 10 -55 25 -73 34 -18 8 -52 34 -75 57 -37 37
-55 66 -100 163 -17 36 -12 230 7 288 23 69 53 131 89 184 34 52 146 160 165
160 6 0 12 3 12 8 0 8 56 35 130 62 61 23 248 26 309 4z m6567 -18 c27 -14 63
-39 78 -55 25 -26 28 -35 24 -75 -7 -60 -36 -85 -99 -86 -44 0 -99 18 -99 33
0 4 -9 7 -19 7 -11 0 -23 5 -26 10 -3 6 -35 10 -70 10 -35 0 -67 -4 -70 -10
-3 -5 -15 -10 -26 -10 -32 0 -128 -69 -170 -122 -67 -85 -82 -129 -83 -245 -1
-97 0 -103 29 -145 70 -99 177 -112 322 -38 129 65 193 53 193 -35 0 -34 -6
-47 -37 -77 -40 -38 -150 -98 -181 -98 -10 0 -23 -5 -29 -11 -17 -17 -210 -17
-263 1 -25 8 -47 17 -50 20 -3 3 -21 14 -40 24 -52 29 -99 83 -134 156 -29 62
-30 71 -30 192 0 87 3 131 12 140 6 6 12 21 12 32 0 30 58 138 104 195 71 87
179 160 301 205 30 11 74 14 170 12 118 -3 135 -6 181 -30z m2089 17 c11 -6
33 -17 48 -24 51 -24 124 -101 131 -138 3 -19 2 -39 -3 -45 -4 -6 -11 -31 -14
-56 -3 -25 -13 -85 -23 -135 -30 -165 -35 -199 -40 -286 -6 -82 -5 -86 16 -92
37 -10 68 13 110 79 22 35 40 67 40 71 0 5 11 21 24 37 l23 30 25 -40 c48 -76
53 -102 28 -168 -33 -87 -143 -196 -199 -196 -11 0 -23 -4 -26 -10 -3 -5 -26
-10 -50 -10 -24 0 -47 5 -50 10 -3 6 -14 10 -23 10 -28 0 -90 57 -100 93 -6
17 -13 49 -17 70 l-6 39 -28 -44 c-75 -117 -215 -187 -348 -174 -34 4 -74 13
-90 21 -15 8 -34 15 -41 15 -24 0 -122 108 -143 157 -11 26 -25 90 -31 141 -9
79 -8 103 7 170 10 42 21 84 25 92 49 108 72 142 150 221 69 70 101 93 170
126 47 23 94 43 105 46 36 10 309 2 330 -10z m-13521 -9 c3 -8 2 -12 -4 -9 -6
3 -10 10 -10 16 0 14 7 11 14 -7z m7662 -2 c39 -33 47 -58 34 -115 -6 -29 -15
-74 -20 -102 -5 -27 -16 -90 -25 -140 -9 -49 -19 -108 -22 -130 -3 -22 -9 -45
-14 -51 -5 -6 -10 -43 -11 -81 -3 -87 14 -117 73 -133 95 -26 247 68 314 193
7 12 21 38 31 57 27 47 50 128 79 275 9 44 21 94 26 111 5 17 9 40 9 51 0 12
14 35 31 52 74 75 216 7 181 -86 -6 -16 -13 -46 -16 -68 -3 -22 -12 -76 -21
-120 -25 -124 -33 -163 -50 -255 -9 -47 -20 -105 -25 -130 -5 -25 -14 -74 -20
-110 -22 -136 -49 -173 -126 -173 -41 0 -51 4 -77 33 -27 31 -29 37 -23 89 3
31 9 67 13 81 5 19 -4 12 -34 -25 -146 -183 -341 -245 -480 -152 -90 61 -118
131 -109 272 5 82 11 122 46 295 13 59 20 99 39 200 20 104 31 134 59 157 34
29 107 31 138 5z m1061 -9 c20 -19 33 -41 37 -68 22 -132 27 -166 36 -220 6
-33 15 -91 20 -130 10 -74 28 -180 40 -230 6 -29 9 -25 59 70 55 107 98 185
135 250 13 22 43 76 67 120 113 210 122 221 200 231 42 6 48 4 81 -28 28 -26
37 -44 41 -78 8 -59 28 -245 38 -345 6 -62 20 -178 28 -244 1 -4 101 160 101
165 0 2 25 42 55 89 30 46 55 87 55 89 0 3 38 69 85 148 95 160 140 208 192
208 62 0 114 -59 98 -111 -9 -27 -123 -218 -153 -254 -4 -5 -11 -17 -15 -25
-4 -8 -25 -42 -47 -75 -22 -33 -49 -76 -60 -95 -11 -19 -33 -54 -48 -78 -15
-23 -60 -95 -101 -160 -41 -64 -81 -125 -90 -136 -25 -29 -98 -59 -129 -53
-94 19 -111 44 -128 185 -7 59 -20 166 -29 237 -9 72 -19 150 -23 175 l-7 45
-17 -30 c-17 -33 -109 -201 -185 -340 -136 -247 -128 -237 -208 -262 -48 -15
-103 -2 -135 32 -21 22 -51 125 -64 215 -3 25 -15 95 -26 155 -12 61 -25 137
-31 170 -5 33 -16 96 -24 140 -9 44 -18 107 -21 140 -6 58 -5 61 27 93 44 43
101 45 146 5z m1756 15 c54 -26 56 -64 12 -298 -9 -47 -18 -101 -21 -120 -3
-19 -9 -44 -14 -55 -5 -11 -11 -38 -14 -60 -14 -115 -67 -351 -87 -383 -15
-23 -66 -52 -94 -52 -30 0 -84 31 -92 53 -9 27 -4 128 7 142 4 6 10 28 13 50
3 22 13 78 22 125 9 47 21 108 26 135 18 89 28 139 38 185 11 50 16 77 33 164
20 103 92 150 171 114z m3841 -3 c42 -28 48 -60 32 -165 -8 -52 -20 -117 -26
-145 -5 -27 -17 -88 -26 -135 -17 -93 -28 -151 -43 -220 -5 -25 -16 -79 -25
-120 -22 -109 -26 -123 -51 -147 -41 -40 -108 -39 -158 1 -21 17 -25 83 -9
161 6 28 18 86 26 130 30 161 36 191 51 265 9 41 21 100 26 130 10 59 24 126
34 175 10 45 61 85 107 85 22 0 49 -7 62 -15z m-8120 -20 c20 -26 20 -74 1
-113 -17 -34 -73 -85 -540 -493 -77 -67 -141 -126 -143 -131 -2 -4 106 -8 240
-8 134 0 253 -3 264 -6 53 -14 64 -107 19 -154 l-29 -30 -402 0 c-221 0 -410
3 -419 6 -26 10 -45 58 -38 97 4 28 22 52 82 109 81 77 388 352 452 404 21 17
68 59 105 93 l67 61 -217 0 c-240 0 -265 5 -284 59 -7 20 -7 42 -1 65 19 68
10 67 441 64 374 -3 388 -4 402 -23z m-6456 -87 c2 -5 9 -8 16 -8 28 0 47 -37
44 -85 l-3 -46 -100 -41 c-55 -22 -121 -48 -147 -59 -27 -10 -48 -17 -48 -16
0 2 42 35 93 72 50 38 98 75 105 82 7 7 16 13 20 13 4 0 20 11 36 25 23 20 26
26 13 31 -13 5 -249 -20 -276 -29 -3 -1 -8 2 -11 8 -3 5 40 28 95 51 97 40
101 41 130 25 17 -9 32 -19 33 -23z m1028 1 c139 -56 130 -66 -43 -45 -71 9
-134 16 -141 16 -27 0 -8 -22 64 -71 41 -29 79 -60 85 -71 5 -10 25 -25 44
-32 19 -8 45 -24 57 -36 l23 -22 -50 20 c-27 11 -99 41 -160 65 l-110 45 -3
43 c-1 24 1 49 5 54 13 16 106 63 129 64 12 0 57 -13 100 -30z m-2028 -13
c178 -48 385 -236 495 -451 26 -50 77 -170 77 -180 0 -3 -196 -5 -435 -5
l-435 0 -11 28 c-32 81 -42 144 -43 257 -1 154 18 219 85 286 72 73 158 94
267 65z m3079 -11 c71 -30 120 -93 149 -191 13 -46 15 -83 11 -173 -3 -64 -9
-129 -15 -146 -5 -16 -15 -49 -21 -72 l-12 -43 -440 0 -440 0 6 23 c31 102
150 296 243 398 174 190 370 266 519 204z m-1373 -107 c-7 -10 -26 -10 -43 1
-24 15 -4 30 23 18 13 -7 22 -15 20 -19z m-516 -1 c3 -13 -4 -17 -31 -17 -44
0 -59 27 -19 33 38 5 47 3 50 -16z m59 -49 c-3 -8 -6 -5 -6 6 -1 11 2 17 5 13
3 -3 4 -12 1 -19z m726 -217 c27 -29 7 -19 -56 29 -33 25 -56 55 -82 106 -19
39 -35 74 -35 79 0 4 34 -37 76 -91 42 -54 85 -110 97 -123z m-942 151 c-10
-34 -33 -72 -43 -72 -5 0 -8 -6 -8 -13 0 -15 -31 -45 -75 -73 -26 -17 -25 -13
15 36 25 30 61 76 79 103 19 26 36 47 37 47 1 0 -1 -13 -5 -28z m426 -404 c32
5 59 9 60 8 1 0 -5 -10 -13 -21 -12 -16 -26 -20 -78 -20 -60 0 -121 19 -111
35 3 5 23 3 44 -2 27 -7 59 -7 98 0z"/>
<path d="M2531 3107 c-13 -21 -12 -21 5 -5 10 10 16 20 13 22 -3 3 -11 -5 -18
-17z"/>
<path d="M1702 3248 c-7 -7 -11 -21 -11 -32 1 -21 1 -21 6 -1 3 11 10 26 15
33 13 15 6 16 -10 0z"/>
<path d="M1750 3229 c0 -5 5 -7 10 -4 6 3 10 8 10 11 0 2 -4 4 -10 4 -5 0 -10
-5 -10 -11z"/>
<path d="M2025 3130 c-3 -6 1 -7 9 -4 18 7 21 14 7 14 -6 0 -13 -4 -16 -10z"/>
<path d="M5680 3031 c-75 -6 -75 -6 -87 -41 -7 -19 -12 -47 -12 -63 -1 -15 -5
-35 -10 -45 -5 -9 -17 -62 -26 -117 -9 -55 -21 -109 -25 -120 -5 -11 -11 -36
-14 -55 -3 -19 -11 -65 -17 -101 -19 -106 -23 -103 149 -96 159 7 209 18 310
69 98 49 150 122 171 239 10 52 10 79 0 130 -11 56 -19 70 -64 116 -40 39 -65
55 -106 67 -67 18 -171 25 -269 17z"/>
<path d="M2381 2784 c0 -11 3 -14 6 -6 3 7 2 16 -1 19 -3 4 -6 -2 -5 -13z"/>
<path d="M2262 2655 c6 -14 13 -24 14 -22 6 6 -9 47 -17 47 -5 0 -3 -11 3 -25z"/>
<path d="M6825 2533 c-73 -29 -150 -97 -188 -168 -21 -39 -46 -102 -42 -107 6
-5 188 10 243 20 96 20 178 57 211 96 19 22 26 98 11 125 -26 49 -152 67 -235
34z"/>
<path d="M15458 2536 c-184 -50 -332 -318 -273 -497 27 -79 50 -99 126 -108
35 -5 71 -5 79 0 8 4 29 13 47 19 46 17 129 106 163 175 43 89 55 122 74 210
10 44 22 97 28 117 15 51 6 65 -53 82 -62 19 -126 19 -191 2z"/>
</g>
</svg>
