<?xml version="1.0" standalone="no"?>
<!DOCTYPE svg PUBLIC "-//W3C//DTD SVG 20010904//EN"
 "http://www.w3.org/TR/2001/REC-SVG-20010904/DTD/svg10.dtd">
<svg version="1.0" xmlns="http://www.w3.org/2000/svg"
 width="791.000000pt" height="781.000000pt" viewBox="0 0 791.000000 781.000000"
 preserveAspectRatio="xMidYMid meet">
<metadata>
Created by potrace 1.16, written by Peter Selinger 2001-2019
</metadata>
<g transform="translate(0.000000,781.000000) scale(0.100000,-0.100000)"
fill="#000000" stroke="none">
<path d="M310 7731 c-83 -26 -141 -74 -181 -151 l-24 -45 0 -3640 0 -3640 27
-50 c31 -59 67 -94 128 -126 l45 -24 3640 0 3640 0 50 27 c59 31 94 67 126
128 l24 45 0 3640 0 3640 -24 45 c-32 61 -67 97 -126 128 l-50 27 -3625 2
c-1994 1 -3636 -2 -3650 -6z m3902 -653 c243 -182 229 -173 318 -192 41 -9
129 -29 195 -45 137 -33 424 -101 697 -165 103 -24 192 -47 198 -51 14 -8 9 2
301 -680 256 -596 298 -693 488 -1124 67 -151 121 -277 121 -282 0 -9 -191
-453 -290 -674 -39 -88 -154 -351 -255 -585 -101 -234 -210 -486 -243 -560
l-59 -135 -739 -278 c-406 -153 -770 -290 -809 -304 -38 -15 -96 -44 -127 -65
-31 -21 -61 -38 -67 -38 -5 0 -87 61 -182 136 -94 74 -181 140 -193 145 -24
10 -284 77 -893 229 l-412 103 -12 31 c-7 17 -16 33 -20 36 -4 3 -35 118 -68
255 -34 138 -66 259 -70 270 -5 11 -24 80 -41 153 -21 85 -37 132 -45 132 -7
0 -15 -4 -17 -9 -1 -5 -19 -2 -38 6 -35 16 -35 16 -10 23 14 3 28 3 31 -2 3
-5 13 -6 21 -3 12 5 14 14 8 42 -5 20 -13 39 -18 42 -4 3 -11 14 -15 24 -4 10
-11 15 -17 12 -5 -3 -7 0 -4 9 8 22 -13 54 -38 58 -13 2 -22 9 -21 16 4 15 0
15 -32 0 -23 -10 -28 -10 -37 5 -5 10 -13 15 -18 12 -19 -12 -96 204 -140 392
-15 67 -32 128 -36 135 -4 7 -66 90 -137 183 -71 94 -132 176 -134 183 -3 6
26 49 64 95 78 92 52 29 358 883 129 358 358 971 376 1007 6 9 16 17 24 17 8
0 15 8 15 18 0 21 23 32 270 128 80 31 240 93 355 139 116 45 293 115 395 155
102 40 311 123 465 185 l280 112 32 -18 c17 -9 118 -82 225 -161z m-2332
-3508 c0 -4 -6 -10 -14 -13 -10 -4 -12 0 -9 14 5 18 23 18 23 -1z m20 -26
c-18 -21 -24 -10 -8 15 7 12 14 17 16 11 2 -6 -2 -17 -8 -26z m34 -49 l8 -30
-21 24 c-16 18 -18 26 -9 32 15 9 13 11 22 -26z m-30 -4 c7 -10 -3 -41 -13
-41 -3 0 -7 11 -7 25 -2 25 10 33 20 16z m66 -14 c0 -7 -37 -47 -44 -47 -3 0
-6 6 -6 13 0 10 8 17 48 36 1 0 2 -1 2 -2z m14 -113 c9 -3 16 -13 16 -20 0 -8
6 -17 13 -20 19 -7 17 -34 -5 -56 -17 -17 -18 -17 -35 9 -13 20 -15 27 -5 31
10 3 10 9 -2 27 -19 29 -12 40 18 29z m-24 -28 c0 -3 -4 -8 -10 -11 -5 -3 -10
-1 -10 4 0 6 5 11 10 11 6 0 10 -2 10 -4z m70 -108 c0 -4 -4 -8 -9 -8 -6 0
-12 4 -15 8 -3 5 1 9 9 9 8 0 15 -4 15 -9z m4742 -1478 c55 -16 119 -105 70
-97 -10 1 -31 12 -46 24 -52 41 -88 46 -280 39 -100 -3 -498 -7 -886 -7 -388
-1 -680 -5 -650 -9 72 -8 48 -17 -70 -27 -136 -11 -1613 -13 -1685 -3 -33 5
-86 10 -118 11 -57 2 -66 13 -17 22 20 3 -1164 11 -1760 11 -153 0 -182 -6
-224 -53 -22 -24 -36 -19 -36 13 0 29 35 62 80 74 50 14 5572 16 5622 2z
m-3353 -354 c50 -26 65 -89 32 -141 l-19 -30 30 -31 c50 -53 39 -131 -22 -167
-20 -12 -52 -17 -114 -17 l-86 0 0 200 0 200 75 0 c46 0 87 -6 104 -14z m372
-175 c38 -101 69 -190 69 -197 0 -8 -8 -14 -19 -14 -13 0 -24 15 -37 53 l-19
52 -89 0 -89 0 -20 -52 c-14 -38 -25 -53 -38 -53 -30 0 -35 -18 97 333 24 61
29 68 51 65 23 -3 32 -20 94 -187z m211 172 c8 -10 53 -85 99 -166 l84 -149 3
166 c2 158 3 166 22 166 19 0 20 -7 20 -195 0 -172 -2 -196 -16 -202 -9 -3
-24 -2 -32 4 -9 5 -56 81 -106 168 l-91 159 -3 -167 c-2 -168 -3 -168 -25
-165 -22 3 -22 5 -25 188 -1 101 0 190 2 197 8 19 50 16 68 -4z m388 -71 l5
-84 74 86 c44 51 81 86 92 86 37 0 29 -11 -103 -156 l-28 -30 80 -99 c44 -55
80 -103 80 -107 0 -5 -10 -8 -22 -7 -17 0 -44 27 -98 96 l-75 96 -5 -94 c-5
-88 -6 -94 -27 -97 l-23 -3 0 201 0 201 23 -3 c20 -3 22 -9 27 -86z m850 -616
c25 -3 74 -7 110 -11 35 -3 66 -8 69 -10 2 -3 -517 -4 -1155 -4 -666 1 -1129
5 -1089 10 203 24 334 27 1145 23 481 -2 895 -6 920 -8z"/>
<path d="M3900 7200 c-25 -11 -130 -53 -235 -94 -104 -40 -255 -100 -335 -131
-80 -31 -206 -81 -280 -110 -74 -29 -223 -88 -330 -130 -107 -42 -264 -104
-348 -137 -84 -33 -151 -62 -149 -65 3 -2 31 0 63 6 33 5 145 20 249 32 l190
22 95 53 c209 117 385 181 660 240 14 3 68 36 120 73 130 92 354 253 359 257
11 10 -18 2 -59 -16z"/>
<path d="M3796 7057 c-108 -77 -195 -141 -194 -142 2 -2 46 1 98 7 124 13 460
3 589 -17 57 -9 104 -15 107 -13 2 2 -88 72 -200 155 l-203 150 -197 -140z"/>
<path d="M4690 6817 c3 -3 43 -19 88 -36 46 -17 148 -63 225 -104 l142 -74
233 -23 c128 -12 236 -19 240 -16 22 23 -26 42 -238 91 -304 71 -650 154 -675
161 -11 4 -18 4 -15 1z"/>
<path d="M3635 6783 c-86 -11 -220 -35 -264 -49 -46 -13 -50 -17 -39 -33 7
-12 20 -18 37 -15 14 1 53 6 86 10 33 3 67 10 75 14 8 5 31 10 50 12 22 2 39
11 47 23 11 19 12 19 22 -5 5 -14 10 -18 11 -10 0 13 1 13 11 0 7 -10 12 -11
15 -4 3 7 24 9 56 6 51 -5 51 -5 46 22 -6 29 7 36 14 8 3 -10 15 -18 27 -19
12 -1 19 2 16 8 -4 5 -2 9 4 9 5 0 11 -6 14 -12 3 -8 8 -6 13 7 4 11 12 23 18
27 11 8 -202 8 -259 1z"/>
<path d="M4048 6783 c12 -2 32 -2 45 0 12 2 2 4 -23 4 -25 0 -35 -2 -22 -4z"/>
<path d="M4210 6776 c0 -9 40 -13 46 -5 3 5 -6 9 -20 9 -14 0 -26 -2 -26 -4z"/>
<path d="M3695 6714 c-223 -28 -191 -32 244 -33 233 -1 422 1 420 3 -2 3 -58
12 -123 20 -180 24 -400 28 -541 10z"/>
<path d="M3281 6687 c-8 -11 -5 -13 19 -9 17 2 30 8 30 13 0 14 -36 11 -49 -4z"/>
<path d="M4620 6686 c0 -9 40 -13 46 -5 3 5 -6 9 -20 9 -14 0 -26 -2 -26 -4z"/>
<path d="M3335 6639 c-94 -14 -285 -93 -285 -119 0 -4 -11 -11 -25 -14 -13 -3
-77 -58 -142 -122 -79 -78 -106 -110 -83 -97 38 21 226 128 250 143 83 51 150
89 170 95 13 4 30 13 37 20 7 8 33 13 59 13 42 0 129 16 164 29 8 4 19 5 23 4
16 -3 222 41 232 50 12 11 -318 10 -400 -2z"/>
<path d="M4175 6639 c-24 -5 -26 -7 -7 -8 12 0 91 -15 175 -32 83 -17 198 -39
255 -49 86 -16 111 -26 161 -60 33 -22 62 -40 64 -40 2 0 75 -43 162 -95 87
-53 159 -94 161 -93 1 2 -43 51 -99 109 -81 84 -117 114 -172 142 -39 19 -69
38 -67 41 5 13 1 26 -8 26 -5 0 -7 -7 -4 -15 5 -11 2 -13 -10 -9 -19 7 -21 30
-3 38 6 3 0 3 -15 1 -15 -2 -29 2 -32 8 -3 9 -7 8 -15 -3 -9 -12 -14 -12 -45
2 -68 33 -183 49 -330 47 -78 -2 -154 -6 -171 -10z"/>
<path d="M3810 6615 c-30 -7 -102 -23 -160 -35 -89 -18 -129 -34 -115 -48 3
-3 187 38 313 70 44 11 67 29 35 27 -10 0 -43 -6 -73 -14z"/>
<path d="M3918 6623 c7 -3 16 -2 19 1 4 3 -2 6 -13 5 -11 0 -14 -3 -6 -6z"/>
<path d="M4170 6584 c25 -8 63 -19 85 -23 22 -5 119 -28 215 -51 96 -22 184
-42 195 -43 11 -1 25 -7 30 -14 6 -6 26 -20 45 -30 19 -10 60 -35 90 -55 62
-40 320 -201 332 -206 5 -2 8 7 8 20 0 17 -12 30 -50 51 -28 16 -55 25 -62 21
-7 -4 -8 -3 -4 4 4 7 -22 29 -66 57 -217 137 -315 195 -331 195 -10 0 -86 13
-170 29 -340 64 -407 73 -317 45z"/>
<path d="M2858 6515 c-69 -41 -161 -102 -204 -136 -102 -80 -300 -265 -364
-339 -46 -53 -49 -60 -40 -87 l10 -28 -17 22 -18 23 -70 -95 c-41 -55 -73
-109 -78 -131 -8 -40 -1 -57 13 -34 7 11 10 11 10 2 0 -7 -6 -15 -14 -18 -20
-8 -29 -34 -11 -34 8 0 15 6 15 13 0 6 16 30 35 52 l35 40 -41 -73 c-31 -54
-44 -70 -51 -60 -6 9 -7 5 -3 -11 4 -14 3 -21 -2 -18 -11 7 -43 -122 -43 -170
0 -37 16 -52 25 -23 3 11 11 20 16 20 5 0 9 9 9 19 0 11 4 21 9 23 5 2 11 14
13 28 1 14 5 27 8 30 22 19 49 70 39 70 -7 0 -3 9 9 20 12 12 22 28 22 38 0
12 2 14 8 4 6 -9 18 2 42 35 19 27 59 80 90 118 186 233 170 206 171 271 l1
59 11 -39 12 -38 20 22 c13 14 18 32 16 56 -1 19 2 34 7 34 5 0 9 -7 8 -16 0
-9 5 -19 12 -21 7 -3 12 5 12 21 0 19 5 26 19 26 10 0 29 10 42 23 14 12 78
69 142 126 117 103 140 132 72 93 -19 -12 -35 -17 -35 -12 0 6 4 10 9 10 5 0
16 6 23 13 7 7 36 28 63 47 28 19 53 39 57 44 3 5 14 11 23 12 21 3 28 10 31
29 5 31 -46 13 -168 -60z m137 45 c3 -6 -1 -7 -9 -4 -18 7 -21 14 -7 14 6 0
13 -4 16 -10z m-185 -155 c0 -2 -10 -9 -22 -15 -22 -11 -22 -10 -4 4 21 17 26
19 26 11z m-60 -38 c0 -2 -42 -37 -92 -77 -51 -41 -111 -90 -132 -109 l-40
-36 32 38 c18 21 32 42 32 48 0 6 4 8 9 5 5 -3 12 1 15 10 4 9 9 14 12 11 7
-6 44 29 44 42 0 5 8 15 17 22 11 10 14 10 9 2 -4 -7 -2 -13 3 -13 6 0 11 5
11 10 0 6 7 10 15 10 9 0 18 7 21 15 4 8 10 13 14 10 5 -3 11 -1 15 5 6 10 15
14 15 7z m-485 -467 c-3 -5 -11 -10 -16 -10 -6 0 -7 5 -4 10 3 6 11 10 16 10
6 0 7 -4 4 -10z m-75 -104 c0 -2 -8 -10 -17 -17 -16 -13 -17 -12 -4 4 13 16
21 21 21 13z m-90 -227 c0 -6 -4 -7 -10 -4 -5 3 -10 11 -10 16 0 6 5 7 10 4 6
-3 10 -11 10 -16z"/>
<path d="M3720 6539 c-456 -102 -465 -105 -567 -166 -51 -30 -93 -60 -93 -65
0 -5 -4 -7 -9 -4 -5 3 -48 -18 -97 -48 l-89 -53 -6 -54 -5 -54 -5 46 -4 46
-85 -47 c-47 -27 -84 -53 -83 -59 2 -6 -3 -12 -10 -12 -6 -1 2 -5 18 -9 30 -8
30 -8 -7 -9 -37 -1 -67 -29 -53 -50 3 -5 -3 -12 -12 -14 -17 -4 -17 -5 0 -6 9
0 17 -5 17 -10 0 -5 -9 -7 -20 -4 -12 3 -29 -2 -41 -13 -19 -17 -19 -19 -2
-25 16 -7 15 -8 -4 -8 -16 -1 -40 -26 -85 -87 -35 -47 -85 -114 -112 -147
l-49 -62 67 -3 c44 -2 82 3 110 13 22 9 52 16 66 17 14 1 31 6 38 11 6 5 12 6
12 3 0 -4 7 0 16 8 8 9 29 16 46 16 23 0 29 4 24 15 -3 8 -1 15 4 15 5 0 12
-10 15 -21 6 -17 9 -19 16 -8 6 9 9 10 9 2 0 -7 -6 -16 -14 -20 -7 -4 -18 -18
-25 -30 -12 -23 -12 -23 69 -23 l80 0 0 -41 c0 -33 8 -50 43 -92 23 -29 47
-55 52 -59 6 -4 6 -8 2 -8 -5 0 -31 24 -58 53 l-50 52 5 -35 c6 -36 9 -401 4
-404 -2 0 -155 0 -340 2 l-338 3 0 96 c0 79 -2 93 -13 84 -8 -6 -17 -7 -22 -3
-4 4 -5 -3 -2 -15 3 -13 1 -25 -3 -28 -5 -3 -11 14 -13 37 -3 24 -4 -10 -3
-75 1 -64 -1 -112 -6 -105 -4 7 -8 72 -8 143 0 97 -3 125 -11 112 -6 -10 -8
-28 -6 -39 3 -11 0 -30 -8 -42 -7 -11 -20 -68 -30 -125 -14 -86 -14 -105 -3
-112 22 -14 56 -10 67 9 10 16 10 16 11 0 0 -16 13 -18 123 -20 83 -1 99 -3
50 -5 -63 -3 -73 -6 -73 -22 0 -17 10 -19 92 -20 51 -1 94 -4 97 -6 2 -3 -52
-5 -120 -5 -68 0 -130 -4 -137 -9 -8 -5 -12 -21 -10 -37 2 -22 12 -33 41 -48
21 -10 36 -20 34 -23 -3 -2 -25 6 -50 18 -29 14 -43 27 -40 36 3 7 2 24 -1 38
-6 23 -11 25 -60 25 l-55 0 -10 -52 c-6 -29 -22 -122 -37 -207 -23 -136 -25
-162 -14 -215 13 -68 68 -272 105 -386 13 -41 46 -149 73 -240 48 -165 48
-165 127 -270 199 -266 177 -241 213 -236 17 2 32 1 33 -3 0 -3 3 -22 6 -41 2
-19 5 -42 5 -50 0 -17 81 -127 112 -152 13 -11 30 -15 48 -11 21 4 28 2 28
-10 0 -9 -4 -19 -10 -22 -15 -9 -12 -23 8 -34 15 -8 18 -5 20 22 1 18 5 40 8
50 4 12 0 17 -14 17 -11 0 -25 7 -32 15 -11 13 -6 15 39 15 38 0 51 -4 51 -14
0 -8 -4 -17 -10 -21 -5 -3 -7 -12 -3 -20 3 -8 0 -15 -6 -15 -6 0 -11 -9 -11
-20 0 -11 4 -20 8 -20 4 0 8 -12 7 -26 0 -23 14 -34 120 -93 249 -140 286
-157 335 -155 25 2 160 5 300 8 140 4 299 8 352 10 72 3 101 1 111 -8 11 -11
16 -11 32 0 13 10 51 14 131 14 117 0 148 5 137 22 -4 7 4 9 23 4 16 -4 36 -8
44 -9 9 -2 21 -6 28 -11 7 -4 12 -2 12 4 0 6 8 9 18 6 9 -2 52 -7 94 -11 l77
-7 -6 -29 c-3 -18 -1 -29 6 -29 6 0 11 14 11 30 0 27 3 30 30 30 33 0 42 23
13 34 -15 6 -15 8 -3 16 13 8 12 10 -2 10 -12 0 -18 8 -18 21 0 18 -5 20 -27
16 -31 -6 -55 1 -47 14 3 5 -3 9 -13 9 -21 1 -59 27 -51 36 18 17 262 -95 300
-137 9 -11 23 -16 31 -13 17 6 31 34 18 34 -4 0 -8 7 -8 16 0 10 7 14 19 11
10 -3 18 -1 18 4 0 5 -6 10 -12 10 -33 3 -38 5 -38 12 0 4 1 8 3 9 7 5 102
-14 112 -22 15 -13 201 90 228 126 14 17 25 22 41 18 32 -8 44 12 48 86 l3 65
-68 24 c-43 15 -65 27 -59 33 12 12 89 17 123 8 23 -7 25 -6 21 22 l-5 30 44
-5 c24 -4 60 -9 79 -12 32 -6 38 -3 68 34 37 46 39 55 12 46 -32 -10 -23 5 10
16 17 6 30 17 30 25 0 8 13 23 30 32 16 9 35 29 41 45 6 15 15 27 20 27 4 0
13 16 20 35 7 19 19 35 26 35 8 0 13 6 12 13 -4 31 2 67 11 67 6 0 9 -3 9 -7
-4 -27 1 -35 16 -23 20 17 20 90 1 90 -8 0 -16 -10 -18 -22 -2 -12 -9 -23 -15
-26 -9 -2 -13 10 -13 42 0 36 3 44 15 40 8 -4 15 -1 15 4 0 13 -64 27 -86 18
-13 -5 -14 -17 -9 -70 4 -38 3 -66 -3 -70 -5 -3 -78 -7 -161 -10 -134 -3 -154
-6 -166 -22 -7 -11 -17 -16 -21 -11 -4 4 -1 7 7 7 11 0 11 2 -1 10 -8 5 -49
10 -91 10 -85 0 -88 3 -83 63 2 20 -1 37 -6 37 -6 0 -10 -7 -10 -15 0 -9 -6
-18 -14 -21 -10 -4 -12 -13 -6 -32 5 -15 20 -126 35 -248 14 -122 27 -232 30
-245 2 -13 6 -50 10 -81 3 -32 11 -57 17 -55 20 4 19 -20 -2 -26 -11 -3 -20
-1 -20 5 0 6 -7 7 -16 4 -8 -3 -24 -1 -35 5 -15 8 -24 7 -35 -2 -12 -10 -21
-6 -49 23 l-34 34 -15 195 c-9 107 -19 230 -21 274 -10 136 -15 165 -31 165
-8 0 -15 -10 -15 -22 -1 -17 -2 -19 -6 -5 -6 24 -28 21 -41 -5 -8 -18 -11 -19
-11 -5 -1 26 -31 21 -32 -5 -1 -17 -2 -19 -6 -5 -7 28 -33 20 -33 -10 -1 -27
-1 -27 -13 -7 -21 37 -37 17 -36 -44 0 -61 17 -123 18 -69 1 15 5 27 9 27 5 0
7 -37 5 -82 -16 -425 -12 -392 -44 -429 -15 -18 -31 -30 -34 -27 -4 3 -8 34
-10 69 -3 35 -7 96 -10 135 l-6 71 -90 15 c-50 7 -93 10 -95 6 -7 -11 6 -14
94 -28 l72 -12 -1 -51 c0 -44 -2 -49 -12 -33 -34 53 -56 71 -74 60 -40 -24
-53 -71 -46 -172 5 -71 3 -93 -5 -88 -7 4 -12 19 -12 34 0 20 -3 23 -9 13 -12
-19 -19 39 -24 197 -2 67 -7 125 -10 128 -19 20 -24 -19 -19 -152 5 -146 5
-146 -16 -135 -25 13 -92 15 -92 2 0 -5 -14 -11 -30 -15 -17 -3 -30 -9 -29
-13 3 -20 -2 -33 -15 -33 -7 0 -28 -16 -47 -35 -19 -19 -41 -35 -49 -35 -18 0
-44 51 -31 60 15 9 6 45 -12 48 -10 2 -17 -2 -17 -8 0 -6 5 -8 10 -5 6 3 10 2
10 -3 0 -14 -34 -25 -38 -13 -2 5 -9 8 -17 5 -11 -5 -14 29 -14 196 0 110 -3
223 -7 250 -7 55 -6 56 58 41 21 -5 36 -5 33 -1 -2 4 -23 10 -45 14 l-40 6 0
256 0 255 -22 -3 c-13 -2 -24 -9 -24 -15 -1 -7 -2 -25 -4 -40 l-2 -28 -11 30
c-14 36 -47 37 -47 2 0 -12 -5 -29 -10 -37 -8 -12 -10 -9 -10 13 0 20 -5 27
-19 27 -14 0 -21 -10 -26 -37 l-8 -38 -11 28 c-23 62 -35 21 -51 -175 -6 -78
-9 -88 -26 -88 -13 0 -19 -7 -19 -24 0 -14 -4 -28 -10 -31 -6 -4 -10 5 -10 19
0 41 -35 29 -43 -14 -4 -25 -4 -25 -12 -2 -10 30 -29 28 -42 -5 -10 -26 -11
-26 -12 -5 -1 12 -7 22 -16 22 -13 0 -15 22 -15 135 l0 135 -29 0 c-16 0 -43
-3 -60 -6 l-31 -6 0 -98 c0 -70 4 -100 13 -103 9 -3 9 -7 0 -17 -9 -9 -9 -17
0 -31 8 -13 8 -24 0 -41 -6 -13 -14 -30 -16 -38 -4 -11 -6 -10 -6 3 -1 27 -34
17 -42 -13 -7 -24 -7 -24 -8 -2 -1 29 -27 29 -36 0 -6 -18 -8 -20 -12 -7 -2
10 -12 19 -22 22 -14 3 -17 -2 -14 -27 1 -18 0 -23 -4 -11 -3 11 -10 23 -16
27 -7 4 -7 11 2 22 11 13 11 16 -3 16 -9 0 -16 -6 -16 -12 0 -9 -2 -10 -8 -2
-4 6 -18 15 -31 19 -22 7 -23 5 -18 -16 4 -13 7 -27 7 -31 0 -16 20 -8 20 8 0
14 2 14 15 0 8 -8 15 -25 14 -38 l0 -23 -11 25 -11 25 -7 -25 c-5 -16 -8 -19
-9 -7 -1 25 -19 21 -24 -5 l-4 -23 -2 23 c-1 28 -19 29 -30 0 -7 -20 -8 -20
-15 -3 -6 16 -11 14 -49 -21 -23 -22 -53 -49 -66 -59 l-24 -20 6 118 c6 104 5
117 -8 107 -8 -7 -15 -20 -15 -28 0 -13 -3 -12 -15 4 -14 19 -14 19 -15 -1 0
-17 -2 -18 -11 -5 -7 10 -12 11 -15 4 -3 -7 -13 -10 -23 -7 -16 4 -20 -3 -25
-49 -4 -29 -11 -75 -16 -103 -4 -27 -14 -91 -20 -140 l-12 -90 -39 0 c-31 0
-39 3 -39 17 0 10 7 18 18 18 14 0 17 10 18 50 1 30 -3 50 -10 51 -6 1 -15 2
-21 4 -5 1 -29 3 -52 3 -31 2 -43 6 -43 17 0 13 31 21 63 16 4 0 7 6 7 14 0
11 -12 15 -44 15 -25 0 -48 6 -55 14 -13 15 -12 86 1 86 13 0 9 27 -7 40 -12
10 -15 1 -18 -67 l-3 -78 -2 81 c-2 74 -4 82 -23 87 -15 4 -27 -1 -39 -16 -17
-21 -17 -21 -22 16 -4 34 -2 37 22 38 24 1 24 1 -7 15 -18 8 -41 21 -51 30
-27 23 -132 64 -148 57 -12 -4 -14 26 -15 178 -2 209 -2 243 1 247 5 5 8 25 9
77 l1 55 79 0 80 0 4 38 c2 20 4 -1 4 -48 0 -47 -2 -69 -4 -49 -5 43 -15 48
-96 41 -47 -4 -57 -8 -57 -23 0 -15 8 -19 39 -19 22 0 41 5 43 12 3 7 12 9 23
4 31 -12 1 -29 -54 -30 l-51 -1 0 -109 c0 -60 3 -107 6 -104 3 3 6 20 6 37 1
17 5 31 10 31 4 0 8 -4 8 -10 0 -5 6 -7 13 -4 7 2 22 -5 34 -16 12 -11 29 -20
38 -20 10 0 15 -10 16 -27 1 -28 1 -28 10 4 9 30 12 32 35 23 36 -14 64 -12
64 4 0 8 6 17 13 19 9 4 9 6 -1 6 -7 1 -11 5 -7 10 3 6 -3 10 -12 10 -29 1
-62 7 -68 13 -3 2 3 13 14 22 16 15 47 17 239 19 121 1 223 -1 227 -5 4 -4 10
-37 13 -73 3 -42 8 -62 13 -53 6 9 9 8 9 -7 0 -12 3 -16 8 -9 4 7 36 13 72 15
36 2 76 9 90 16 14 7 34 13 46 13 11 0 24 3 28 7 4 5 13 8 19 8 8 0 13 32 15
100 4 127 22 153 22 31 0 -56 4 -85 10 -81 6 3 14 -4 19 -17 l10 -23 1 25 c0
18 3 21 9 11 5 -7 13 -11 19 -7 6 3 13 0 15 -6 3 -8 6 -5 6 6 1 12 6 16 16 12
9 -3 15 0 15 9 0 8 6 15 14 15 19 0 26 32 26 127 l0 82 -109 -1 c-117 -1 -140
4 -120 28 9 11 25 14 56 11 32 -4 43 -2 43 9 0 8 5 14 10 14 6 0 10 -3 10 -8
0 -4 27 -9 61 -10 59 -3 60 -3 49 18 -6 12 -9 28 -6 36 3 9 -11 33 -35 59 -41
44 -43 45 -108 46 -47 1 -57 3 -36 8 25 5 27 8 12 14 -10 4 -32 7 -48 7 -18 0
-28 4 -24 10 3 6 0 10 -7 11 -22 1 25 18 53 18 16 1 30 10 38 25 16 29 6 70
-16 62 -9 -4 -14 0 -12 12 1 9 -1 29 -5 45 -7 21 -14 27 -37 27 -16 0 -29 5
-29 10 0 6 9 10 19 10 21 0 21 11 0 113 -12 56 -13 57 -47 57 -38 0 -38 12 -1
14 33 2 35 24 2 29 -27 4 -27 5 -5 12 32 11 27 25 -8 25 -44 0 -99 -62 -100
-112 l0 -38 -45 0 c-25 0 -45 5 -45 10 0 6 -27 10 -60 10 -47 0 -60 3 -60 15
0 12 -14 15 -68 15 -67 0 -68 0 -112 45 l-44 45 -111 2 c-60 1 -91 3 -67 5 29
3 40 8 36 16 -5 8 -3 8 7 0 9 -9 57 -13 164 -13 107 0 155 4 163 13 7 6 50 15
95 18 l82 6 -100 3 c-55 2 -86 5 -70 7 17 3 35 9 40 13 6 5 17 5 25 0 8 -6 43
-10 78 -10 56 0 62 -2 54 -17 -8 -14 -27 -17 -102 -18 -83 0 -94 -3 -110 -23
-19 -22 -50 -30 -50 -12 0 6 -25 10 -55 10 -30 0 -55 -4 -55 -8 0 -4 15 -22
33 -40 32 -31 35 -32 124 -32 89 0 92 1 116 30 24 28 30 30 95 30 69 0 82 6
107 48 6 11 3 12 -13 3 -35 -19 -46 -12 -18 10 15 12 30 19 33 16 3 -3 11 -1
17 6 18 16 -9 68 -32 61 -11 -4 -8 2 8 15 21 18 23 22 10 31 -16 10 -14 11 40
13 19 1 35 7 36 12 0 6 8 27 17 49 21 48 21 55 1 77 -9 10 -13 23 -9 30 6 8
12 4 21 -12 16 -28 18 -21 4 15 -6 16 -6 27 1 31 22 14 -6 27 -47 21 -24 -3
-46 -2 -49 3 -6 11 23 24 50 23 11 -1 5 4 -14 10 -27 9 -36 9 -39 0 -2 -8 -26
-11 -70 -10 -64 2 -64 2 -14 5 56 4 63 14 35 47 -16 18 -15 18 11 -2 23 -18
41 -22 97 -21 38 1 69 5 69 10 0 5 5 9 10 9 6 0 10 -8 10 -17 1 -16 2 -15 12
2 7 11 18 26 26 34 11 11 11 15 0 22 -11 7 -10 11 2 19 8 5 10 10 5 10 -6 0
-11 10 -12 23 -2 20 0 20 22 -8 18 -22 27 -27 36 -18 13 13 -14 73 -34 73 -20
0 -60 -57 -44 -63 9 -4 9 -7 0 -17 -10 -11 -14 -10 -19 3 -5 13 -9 14 -25 4
-23 -14 -45 3 -35 28 4 12 13 15 30 11 28 -7 39 4 30 28 -4 11 -19 16 -50 16
-24 0 -44 4 -44 8 0 5 26 9 58 9 31 0 69 4 85 8 19 5 27 4 27 -5 0 -7 10 -28
21 -47 l22 -35 39 39 c25 24 37 44 34 56 -5 19 10 24 17 5 3 -9 10 -7 26 7 18
15 21 26 17 49 -5 22 -3 27 5 19 13 -13 56 6 84 37 10 11 24 20 32 20 7 0 13
5 13 10 0 6 7 10 16 10 11 0 14 -6 9 -21 -5 -16 -4 -19 6 -14 7 5 24 9 38 11
38 3 81 22 81 35 0 6 7 8 16 5 13 -5 14 -2 9 11 -5 10 -9 28 -10 40 -2 30 -34
75 -47 67 -6 -4 -8 -3 -4 4 3 5 0 13 -6 15 -9 4 -4 14 15 31 16 15 33 24 38
21 5 -4 9 3 9 14 0 12 -5 21 -12 21 -6 0 1 13 16 29 16 16 25 34 22 39 -3 5 3
12 14 15 10 3 21 0 23 -7 3 -8 9 -7 23 4 10 8 7 1 -7 -15 -28 -32 -59 -90 -59
-111 0 -7 -8 -18 -17 -23 -15 -9 -11 -10 18 -11 27 0 40 6 56 29 l21 28 58
-54 c50 -48 59 -52 72 -39 13 13 19 9 53 -30 22 -25 39 -40 39 -34 0 6 5 8 11
4 9 -5 10 1 5 20 l-7 28 28 -27 c15 -14 45 -35 66 -46 20 -11 37 -23 37 -28 0
-14 31 -19 57 -10 15 6 23 3 27 -7 6 -16 36 -19 36 -4 0 18 22 10 27 -10 3
-11 14 -20 24 -20 23 0 23 -1 5 -45 -14 -33 -14 -35 4 -35 12 0 17 -5 14 -13
-2 -7 18 -29 46 -50 54 -41 62 -35 35 30 -21 49 -19 52 10 13 14 -19 25 -40
25 -48 0 -7 4 -11 9 -8 10 6 3 56 -11 72 -5 8 -3 14 6 17 9 4 18 2 21 -3 4 -6
11 -10 17 -10 6 0 1 9 -12 20 -13 12 -30 18 -37 15 -7 -3 -19 -7 -25 -10 -8
-3 -30 19 -53 50 -38 54 -70 73 -99 62 -7 -3 -33 12 -57 34 -24 21 -53 39 -65
39 -13 0 -34 4 -48 10 -14 5 -26 6 -26 1 0 -15 -89 34 -96 52 -3 10 -12 16
-19 13 -11 -4 -12 0 -5 19 8 20 3 29 -36 65 -48 44 -64 47 -43 8 12 -23 12
-23 -9 -4 -33 29 -64 101 -59 135 3 17 18 41 33 54 l28 24 -21 41 -20 40 -34
-44 c-19 -25 -43 -56 -54 -68 -11 -13 -41 -51 -67 -85 -29 -36 -53 -58 -61
-55 -7 2 -19 -6 -27 -21 -13 -25 -40 -35 -40 -14 0 5 -5 7 -12 3 -7 -4 -8 -3
-4 4 4 7 17 12 28 12 12 0 19 3 16 6 -4 3 9 20 28 37 44 40 116 160 102 168
-7 4 -6 15 2 30 10 19 10 22 0 12 -7 -6 -18 -10 -24 -7 -6 2 -48 -52 -94 -120
-79 -117 -82 -125 -70 -151 11 -25 10 -29 -10 -43 -12 -8 -22 -22 -22 -32 0
-11 -10 -20 -27 -25 -15 -3 -31 -12 -36 -18 -4 -7 -5 -1 -2 13 2 14 7 37 9 52
2 14 9 35 15 46 15 28 14 32 -9 32 -10 0 -28 -10 -40 -22 -22 -24 -23 -21 -20
45 1 20 -1 37 -4 37 -3 0 -21 -28 -41 -62 -21 -35 -49 -79 -63 -98 l-27 -35
28 18 c38 25 36 0 -3 -38 -16 -16 -30 -25 -30 -19 0 5 -4 3 -9 -4 -4 -7 -20
-15 -36 -16 -32 -4 -85 -60 -152 -161 -25 -38 -70 -95 -101 -127 l-55 -58 19
-23 c11 -13 6 -11 -13 6 -30 28 -32 28 -57 12 -27 -18 -46 -13 -46 12 0 9 6
13 15 9 23 -9 18 11 -11 37 -22 21 -23 25 -9 37 13 11 19 10 35 -5 26 -23 25
-9 0 33 -12 19 -20 48 -19 65 2 18 2 51 1 73 l-2 41 -44 -41 c-58 -55 -76 -69
-82 -63 -3 3 11 18 30 34 20 15 36 34 36 41 0 6 7 12 15 12 8 0 19 9 25 20 6
11 7 20 3 20 -4 0 -3 4 2 9 6 5 57 11 113 13 57 1 106 6 108 10 3 5 -12 8 -33
9 -21 0 -33 3 -26 5 8 4 9 14 3 35 -5 17 -5 29 1 29 5 0 9 -9 9 -20 0 -12 7
-20 16 -20 14 0 14 3 4 15 -9 11 -9 15 -1 15 6 0 17 -11 23 -25 6 -14 15 -25
19 -25 4 0 -1 17 -11 38 -17 37 -33 92 -27 92 2 0 14 -20 27 -45 19 -37 25
-43 33 -30 5 10 16 14 28 10 13 -4 30 2 50 19 17 14 37 26 45 26 8 0 26 7 39
16 13 9 29 13 35 9 5 -3 10 -2 10 4 0 5 10 13 22 17 23 7 30 13 89 70 24 24
48 36 75 40 21 3 49 7 61 10 33 6 89 59 133 125 22 31 57 71 80 89 31 25 39
37 34 52 -4 15 -3 18 6 13 11 -7 59 39 60 58 0 4 12 19 28 32 l27 24 -25 0
c-14 -1 -122 -23 -240 -50z m95 1 c3 -5 1 -10 -4 -10 -6 0 -11 5 -11 10 0 6 2
10 4 10 3 0 8 -4 11 -10z m86 -353 c-10 -9 -11 -8 -5 6 3 10 9 15 12 12 3 -3
0 -11 -7 -18z m-681 -73 c0 -8 -5 -12 -10 -9 -6 4 -8 11 -5 16 9 14 15 11 15
-7z m70 -14 c0 -13 -7 -20 -19 -20 -22 0 -35 15 -26 30 12 19 45 11 45 -10z
m-430 -105 l0 -75 -112 2 -113 2 84 5 c70 5 86 9 95 26 6 11 17 24 24 28 6 4
12 26 12 47 0 22 2 40 5 40 3 0 5 -34 5 -75z m-102 31 c3 -3 -20 -6 -52 -6
-38 0 -55 4 -51 11 7 10 91 6 103 -5z m22 -28 c0 -4 -10 -8 -22 -9 -13 0 -17
-3 -10 -6 26 -10 10 -20 -37 -21 -44 -1 -48 0 -48 22 0 21 3 23 58 22 33 0 59
-4 59 -8z m256 -46 c-11 -10 -15 4 -8 28 l7 25 3 -23 c2 -13 1 -26 -2 -30z
m-66 9 c-5 -11 -15 -23 -21 -27 -6 -3 -3 5 6 20 20 30 30 35 15 7z m40 -8 c0
-5 -5 -15 -10 -23 -8 -12 -10 -11 -10 8 0 12 5 22 10 22 6 0 10 -3 10 -7z
m470 -63 c-8 -15 -8 -20 1 -20 7 0 9 -3 5 -7 -10 -11 -86 -12 -80 -2 3 5 1 9
-5 9 -5 0 -11 -5 -13 -11 -2 -7 -10 -10 -18 -7 -9 3 8 20 45 45 47 32 62 38
68 27 4 -8 3 -23 -3 -34z m-510 30 c0 -5 -10 -10 -22 -9 -22 0 -22 1 -3 9 11
5 21 9 23 9 1 1 2 -3 2 -9z m797 -32 c-3 -8 -6 -5 -6 6 -1 11 2 17 5 13 3 -3
4 -12 1 -19z m-242 -7 c-3 -6 -11 -8 -17 -5 -6 4 -5 9 3 15 16 10 23 4 14 -10z
m163 -18 c5 -18 -28 -29 -38 -12 -5 7 -6 17 -3 22 7 12 35 5 41 -10z m612 3
c0 -3 -4 -8 -10 -11 -5 -3 -10 -1 -10 4 0 6 5 11 10 11 6 0 10 -2 10 -4z
m-743 -38 c-2 -25 -7 -33 -22 -34 -11 0 -30 -5 -42 -12 -12 -7 -25 -12 -30
-12 -13 0 51 49 64 50 6 0 15 9 18 20 10 30 15 24 12 -12z m-887 -22 c0 -2 -8
-10 -17 -17 -16 -13 -17 -12 -4 4 13 16 21 21 21 13z m103 -96 c-23 -22 -28
-18 -13 9 6 12 16 19 21 15 6 -4 3 -13 -8 -24z m-303 -20 c-8 -5 -19 -10 -25
-10 -5 0 -3 5 5 10 8 5 20 10 25 10 6 0 3 -5 -5 -10z m568 -403 l3 -38 -43 3
c-42 3 -43 4 -46 41 l-3 38 43 -3 c42 -3 43 -4 46 -41z m62 -57 c0 -5 -2 -10
-4 -10 -3 0 -8 5 -11 10 -3 6 -1 10 4 10 6 0 11 -4 11 -10z m-3 -26 c-3 -3
-12 -4 -19 -1 -8 3 -5 6 6 6 11 1 17 -2 13 -5z m-107 -55 c0 -12 7 -19 20 -19
11 0 20 -4 20 -10 0 -5 -9 -10 -19 -10 -14 0 -18 -5 -14 -20 6 -22 -25 -34
-73 -28 -26 3 -29 7 -32 47 -4 51 4 58 59 58 31 0 39 -3 39 -18z m87 15 c-3
-3 -12 -4 -19 -1 -8 3 -5 6 6 6 11 1 17 -2 13 -5z m-21 -93 c-4 -6 -16 -11
-27 -11 -11 0 -17 5 -14 10 4 6 11 8 16 5 5 -4 9 2 9 11 0 13 3 15 11 7 6 -6
8 -16 5 -22z m-516 -31 c0 -5 -4 -10 -10 -10 -5 0 -10 5 -10 10 0 6 5 10 10
10 6 0 10 -4 10 -10z m77 -13 c-2 -6 -9 -13 -17 -15 -7 -3 -10 0 -6 7 4 6 0
11 -11 11 -14 0 -15 2 -4 9 17 11 43 3 38 -12z m143 9 c0 -2 -8 -10 -17 -17
-16 -13 -17 -12 -4 4 13 16 21 21 21 13z m-115 -128 l50 -53 -50 47 -50 47
-90 4 -90 3 90 2 91 2 49 -52z m495 -32 c0 -7 -6 -19 -14 -25 -11 -9 -12 -6
-8 14 5 26 22 35 22 11z m-877 -60 c13 -10 17 -28 17 -80 0 -52 3 -66 15 -66
11 0 15 -11 15 -39 0 -32 6 -43 34 -65 l34 -26 -4 -122 c-2 -68 -4 -125 -4
-127 0 -3 -5 0 -11 6 -7 7 -12 53 -13 111 -1 56 -5 104 -9 108 -4 4 -7 14 -7
21 0 8 -11 29 -25 47 -17 22 -28 55 -35 106 -6 41 -14 82 -17 90 -4 8 -7 17
-7 20 -1 3 -5 11 -9 18 -11 16 3 15 26 -2z m765 -27 c-3 -42 -3 -42 -46 -43
l-42 -1 0 43 0 42 46 0 45 0 -3 -41z m140 -95 c-10 -10 -23 -14 -34 -10 -16 6
-16 8 -4 16 8 6 24 10 35 10 18 0 18 -1 3 -16z m-689 -7 c-2 -1 -12 -9 -21
-16 -15 -12 -18 -11 -18 3 0 10 8 16 22 16 12 0 19 -1 17 -3z m356 -87 c3 -5
-1 -10 -10 -10 -9 0 -13 5 -10 10 3 6 8 10 10 10 2 0 7 -4 10 -10z m260 -57
c-11 -2 -51 -38 -90 -78 -66 -70 -73 -74 -122 -79 -31 -3 -53 -1 -53 4 0 6 24
10 54 10 l54 0 67 75 c46 52 74 75 89 74 20 -1 20 -2 1 -6z m-538 -19 c-3 -3
-12 -4 -19 -1 -8 3 -5 6 6 6 11 1 17 -2 13 -5z m90 0 c-3 -3 -12 -4 -19 -1 -8
3 -5 6 6 6 11 1 17 -2 13 -5z m483 -64 c-23 -27 -44 -50 -47 -50 -6 0 12 23
56 73 42 46 35 30 -9 -23z m-603 24 c-3 -3 -12 -4 -19 -1 -8 3 -5 6 6 6 11 1
17 -2 13 -5z m86 -1 c-7 -2 -19 -2 -25 0 -7 3 -2 5 12 5 14 0 19 -2 13 -5z
m184 -50 c-3 -10 -5 -2 -5 17 0 19 2 27 5 18 2 -10 2 -26 0 -35z m-150 -13 c8
0 12 -3 10 -7 -3 -5 -47 -6 -99 -3 -89 4 -90 4 -38 11 30 3 68 5 84 3 16 -2
35 -4 43 -4z m618 1 c7 -12 -12 -24 -25 -16 -11 7 -4 25 10 25 5 0 11 -4 15
-9z m-45 -14 c0 -2 -15 -16 -32 -33 l-33 -29 29 33 c28 30 36 37 36 29z m176
-24 c-10 -10 -19 5 -10 18 6 11 8 11 12 0 2 -7 1 -15 -2 -18z m-346 5 c0 -4
-12 -8 -27 -8 -19 0 -24 3 -15 8 17 11 42 11 42 0z m50 -23 c0 -8 -7 -15 -15
-15 -16 0 -20 12 -8 23 11 12 23 8 23 -8z m280 -4 c0 -12 -20 -25 -27 -18 -7
7 6 27 18 27 5 0 9 -4 9 -9z m-251 -60 c-36 -41 -59 -51 -59 -26 0 8 8 15 18
15 10 0 29 11 42 25 37 39 36 29 -1 -14z m-572 3 c-3 -3 -22 -6 -42 -6 -20 0
-39 3 -42 6 -4 3 15 6 42 6 27 0 46 -3 42 -6z m79 -3 c-18 -7 -66 -3 -66 5 0
2 19 4 43 3 30 0 36 -3 23 -8z m141 2 c-8 -7 -108 -5 -116 2 -2 3 24 5 59 5
35 0 60 -3 57 -7z m-267 -23 c0 -5 -11 -10 -25 -10 -14 0 -25 5 -25 10 0 6 11
10 25 10 14 0 25 -4 25 -10z m60 0 c0 -5 -11 -10 -25 -10 -14 0 -25 5 -25 10
0 6 11 10 25 10 14 0 25 -4 25 -10z m90 -10 c0 -12 -8 -12 -35 0 -18 8 -17 9
8 9 15 1 27 -3 27 -9z m-93 -22 c-2 -7 -20 -13 -40 -14 -20 0 -40 -4 -44 -8
-4 -4 59 -6 140 -4 113 2 147 0 147 -10 0 -9 -35 -12 -151 -10 l-152 3 -3 28
c-3 27 -2 27 53 27 39 0 53 -4 50 -12z m73 -8 c0 -5 -13 -10 -30 -10 -16 0
-30 5 -30 10 0 6 14 10 30 10 17 0 30 -4 30 -10z m115 0 c-3 -5 -26 -10 -50
-10 -24 0 -47 5 -50 10 -4 6 15 10 50 10 35 0 54 -4 50 -10z m203 -29 c2 -7
-11 -11 -37 -11 -26 0 -41 5 -41 13 0 15 73 14 78 -2z m-88 1 c0 -4 -20 -9
-45 -10 -25 -1 -45 3 -45 8 0 6 20 10 45 10 25 0 45 -4 45 -8z m-160 -33 c0
-5 -54 -9 -126 -9 -79 0 -123 4 -119 10 8 13 245 12 245 -1z m318 -14 c9 -8
-241 -3 -273 6 -18 5 31 6 119 4 82 -3 151 -7 154 -10z m352 -11 c0 -16 -26
-19 -35 -4 -3 6 -4 14 0 20 8 13 35 1 35 -16z m-985 6 c-3 -5 -18 -9 -33 -9
l-27 1 30 8 c17 4 31 8 33 9 2 0 0 -3 -3 -9z m395 -20 c0 -5 -5 -10 -11 -10
-5 0 -7 5 -4 10 3 6 8 10 11 10 2 0 4 -4 4 -10z m-400 -10 c0 -9 -8 -12 -26
-9 -4 0 -11 -5 -15 -13 -7 -10 -9 -9 -9 4 0 16 13 26 38 27 6 1 12 -3 12 -9z
m38 -19 c-2 -9 -12 -17 -23 -19 -15 -2 -17 -1 -6 6 8 6 11 17 8 25 -4 11 -2
14 9 10 8 -3 14 -13 12 -22z m1062 -530 c0 -11 -4 -23 -10 -26 -6 -4 -10 5
-10 19 0 14 5 26 10 26 6 0 10 -9 10 -19z m-54 -16 c1 -8 -2 -17 -7 -21 -5 -3
-9 7 -9 22 0 27 12 26 16 -1z m1902 -8 c2 -12 -3 -17 -17 -17 -12 0 -21 6 -21
13 0 31 32 34 38 4z m55 -3 c-7 -18 -33 -18 -33 -1 0 19 10 27 25 20 8 -2 11
-11 8 -19z m-2857 -67 c4 -4 1 -14 -7 -23 -11 -13 -11 -18 -1 -21 6 -3 12 -12
12 -20 0 -9 -6 -13 -15 -9 -17 6 -21 -9 -5 -19 16 -10 12 -45 -5 -39 -11 5
-14 18 -10 55 2 27 -1 49 -6 49 -5 0 -9 9 -9 20 0 14 6 19 20 17 11 -2 22 -6
26 -10z m2724 -8 c0 -12 -7 -19 -20 -19 -13 0 -20 7 -20 18 0 11 8 18 20 19
14 1 20 -4 20 -18z m-2795 -37 c1 -13 -4 -22 -12 -22 -7 0 -16 0 -20 -1 -4 0
-9 4 -11 10 -2 6 5 11 15 12 10 0 13 3 6 6 -19 7 -16 22 4 19 9 -2 17 -12 18
-24z m2877 -14 c-7 -7 -12 -8 -12 -2 0 14 12 26 19 19 2 -3 -1 -11 -7 -17z
m-148 -27 c7 -11 -41 -24 -54 -16 -6 4 -10 10 -10 16 0 12 57 12 64 0z m243
-13 c-3 -8 -6 -5 -6 6 -1 11 2 17 5 13 3 -3 4 -12 1 -19z m-107 -48 c0 -11
-10 -20 -25 -22 -21 -4 -25 -1 -25 17 0 17 6 23 25 23 17 0 25 -6 25 -18z
m-2753 -47 c-3 -10 -5 -4 -5 12 0 17 2 24 5 18 2 -7 2 -21 0 -30z m30 15 c-3
-8 -6 -5 -6 6 -1 11 2 17 5 13 3 -3 4 -12 1 -19z m2540 -173 c22 -20 22 -21 3
-21 -11 0 -20 4 -20 9 0 5 -6 7 -14 4 -19 -8 -29 22 -14 40 10 13 13 13 17 2
2 -8 15 -23 28 -34z m-590 -57 c-3 -7 -5 -2 -5 12 0 14 2 19 5 13 2 -7 2 -19
0 -25z m643 -8 c0 -11 -29 -40 -40 -40 -4 0 -7 8 -5 18 2 9 4 22 4 29 1 12 41
6 41 -7z m-643 -32 c-3 -8 -6 -5 -6 6 -1 11 2 17 5 13 3 -3 4 -12 1 -19z m540
-15 c-3 -10 -5 -4 -5 12 0 17 2 24 5 18 2 -7 2 -21 0 -30z m-2277 -3 c0 -5 -9
-10 -21 -10 -11 0 -17 5 -14 10 3 6 13 10 21 10 8 0 14 -4 14 -10z m1660 -20
c0 -5 -5 -10 -11 -10 -5 0 -7 5 -4 10 3 6 8 10 11 10 2 0 4 -4 4 -10z m-502
-32 c-7 -19 -38 -22 -38 -4 0 10 9 16 21 16 12 0 19 -5 17 -12z m307 -28 c13
-6 15 -9 5 -9 -8 0 -22 4 -30 9 -18 12 -2 12 25 0z m-310 -10 c3 -6 -1 -13
-10 -16 -19 -8 -30 0 -20 15 8 14 22 14 30 1z m775 -50 c0 -5 -7 -7 -15 -4 -8
4 -15 8 -15 10 0 2 7 4 15 4 8 0 15 -4 15 -10z"/>
<path d="M2693 5983 c9 -2 23 -2 30 0 6 3 -1 5 -18 5 -16 0 -22 -2 -12 -5z"/>
<path d="M5312 6483 c57 -43 172 -146 255 -229 84 -84 153 -151 153 -149 0 1
-19 80 -41 176 -23 96 -44 186 -46 202 -3 15 -9 30 -14 32 -7 5 -354 45 -392
45 -10 0 28 -35 85 -77z"/>
<path d="M2550 6539 c-36 -5 -126 -17 -200 -27 l-134 -17 -37 -195 c-48 -248
-48 -244 -3 -189 70 84 287 290 386 364 106 80 106 80 -12 64z"/>
<path d="M4103 6537 c-13 -7 -23 -19 -22 -27 0 -8 3 -10 5 -4 3 7 13 10 23 7
15 -4 18 -13 17 -45 -2 -32 3 -44 26 -63 15 -13 36 -26 46 -29 9 -3 28 -28 41
-56 16 -34 30 -50 42 -50 11 0 19 -6 19 -13 0 -9 10 -12 30 -9 18 2 30 0 30
-7 0 -6 7 -8 17 -4 10 4 14 2 10 -4 -4 -7 5 -14 23 -18 16 -4 44 -16 62 -29
18 -12 56 -32 83 -45 28 -12 62 -29 77 -37 16 -9 29 -11 33 -5 3 6 12 8 20 5
10 -4 21 5 32 26 10 18 26 42 35 54 16 18 15 16 -1 -18 -14 -31 -16 -44 -8
-57 6 -10 15 -15 19 -13 4 3 8 -6 8 -20 0 -23 -4 -26 -37 -26 l-36 0 24 -20
c13 -11 29 -24 35 -29 7 -5 14 -7 18 -4 3 3 26 -4 51 -16 25 -12 50 -19 55
-16 5 3 11 1 15 -4 3 -6 11 -8 18 -5 7 2 31 -12 54 -33 48 -45 95 -79 106 -75
4 1 7 -3 7 -8 0 -6 7 -10 15 -10 9 0 20 -11 26 -24 7 -14 17 -22 25 -19 10 4
14 27 14 90 0 53 4 82 10 78 6 -3 10 -37 10 -74 0 -77 9 -131 21 -131 4 0 10
10 12 23 4 22 4 22 6 0 1 -18 9 -23 57 -29 43 -5 58 -3 65 7 6 10 9 11 9 2 0
-8 16 -14 43 -15 l42 -1 -45 -7 c-38 -6 -32 -7 35 -7 44 0 69 2 56 4 -16 3
-20 7 -12 12 8 5 -11 37 -60 102 -87 115 -110 140 -120 133 -4 -2 -12 4 -18
13 -8 14 -12 16 -22 6 -17 -17 -26 -16 -26 1 0 9 10 13 29 12 32 -2 34 1 12
25 -9 10 -23 15 -32 12 -15 -4 -15 -3 -2 6 13 9 11 14 -13 38 -21 22 -29 25
-36 15 -6 -11 -9 -10 -13 5 -3 10 -52 47 -109 82 -57 35 -120 74 -139 86 -249
159 -241 156 -455 204 -77 18 -167 38 -200 46 -93 21 -138 24 -162 12z m507
-147 c0 -5 -5 -10 -11 -10 -5 0 -7 5 -4 10 3 6 8 10 11 10 2 0 4 -4 4 -10z
m-162 -34 c5 -24 -10 -38 -31 -30 -20 7 -22 25 -5 42 16 16 32 10 36 -12z
m192 -180 c0 -3 -4 -8 -10 -11 -5 -3 -10 -1 -10 4 0 6 5 11 10 11 6 0 10 -2
10 -4z m183 -106 c4 -16 0 -20 -19 -20 -28 0 -33 26 -6 33 9 3 18 5 18 6 1 0
4 -8 7 -19z m24 -2 c-3 -8 -6 -5 -6 6 -1 11 2 17 5 13 3 -3 4 -12 1 -19z m282
-139 c-12 -22 -29 -16 -29 10 0 25 11 33 26 20 10 -8 11 -16 3 -30z m189 -16
c-10 -2 -28 -2 -40 0 -13 2 -5 4 17 4 22 1 32 -1 23 -4z m-68 -78 c0 -8 -4
-15 -10 -15 -5 0 -10 7 -10 15 0 8 5 15 10 15 6 0 10 -7 10 -15z"/>
<path d="M3290 6511 c-91 -20 -223 -95 -228 -129 -2 -12 0 -22 5 -22 4 0 45
22 89 49 55 33 106 55 158 67 60 14 76 21 76 36 0 21 -3 21 -100 -1z"/>
<path d="M4998 6523 c7 -3 16 -2 19 1 4 3 -2 6 -13 5 -11 0 -14 -3 -6 -6z"/>
<path d="M5040 6500 c0 -5 5 -10 11 -10 5 0 7 5 4 10 -3 6 -8 10 -11 10 -2 0
-4 -4 -4 -10z"/>
<path d="M2055 6168 c-65 -172 -132 -350 -150 -395 -18 -46 -31 -83 -30 -83 1
0 25 37 53 83 28 45 75 114 105 154 54 72 54 73 82 220 15 81 36 188 46 238 9
49 16 91 15 93 -2 1 -56 -138 -121 -310z"/>
<path d="M5171 6413 c24 -20 66 -59 93 -87 27 -28 46 -45 41 -37 -5 10 -4 12
3 7 7 -4 10 -18 6 -34 -4 -15 -4 -24 0 -20 10 8 46 -23 46 -39 0 -7 -2 -13 -5
-13 -3 0 -47 33 -98 73 -51 41 -114 89 -142 107 -43 28 -33 16 65 -85 63 -65
131 -136 150 -157 21 -23 45 -38 60 -39 17 -1 19 -3 8 -6 -10 -2 -18 -7 -18
-9 0 -3 21 -30 47 -60 29 -33 53 -52 61 -49 10 4 12 0 8 -11 -4 -10 14 -41 52
-87 32 -40 79 -100 106 -134 36 -49 53 -63 74 -64 26 -1 26 -1 4 -7 -23 -7
-23 -7 17 -65 23 -32 41 -63 41 -70 0 -21 49 -117 60 -117 5 0 10 -6 10 -14 0
-8 7 -16 15 -19 11 -5 12 -1 5 19 -6 14 -10 38 -10 54 0 39 -48 172 -68 189
-16 13 -16 13 1 8 20 -8 21 -1 3 75 -16 67 -12 58 -100 178 -82 113 -381 414
-489 494 -86 63 -113 75 -46 19z m199 -269 c0 -2 -7 -4 -15 -4 -8 0 -15 4 -15
10 0 5 7 7 15 4 8 -4 15 -8 15 -10z m240 -218 c14 -16 35 -40 47 -52 23 -25
42 -71 25 -60 -6 3 -13 0 -15 -6 -3 -7 -6 -1 -6 13 -1 15 -18 46 -43 75 -23
27 -51 60 -62 74 l-21 25 25 -20 c13 -11 36 -33 50 -49z m97 -68 c-3 -8 -6 -5
-6 6 -1 11 2 17 5 13 3 -3 4 -12 1 -19z m-27 -98 c0 -16 -4 -30 -8 -30 -4 0
-8 14 -7 30 0 17 3 30 7 30 5 0 8 -13 8 -30z"/>
<path d="M2980 6354 c-30 -19 -54 -39 -53 -44 2 -5 -3 -7 -10 -4 -19 7 -60
-29 -56 -49 6 -25 183 80 187 111 4 29 -2 27 -68 -14z"/>
<path d="M5692 6380 c3 -8 22 -89 43 -180 30 -131 43 -172 66 -202 16 -20 59
-78 95 -130 37 -51 65 -86 61 -78 -17 45 -260 596 -264 600 -4 3 -4 -2 -1 -10z"/>
<path d="M2815 6254 c-18 -14 -31 -54 -16 -54 18 1 42 31 39 49 -3 18 -5 18
-23 5z"/>
<path d="M2723 6200 c-29 -17 -53 -35 -53 -40 0 -6 -7 -10 -16 -10 -8 0 -12
-4 -9 -10 4 -6 -5 -10 -19 -10 -26 0 -38 -19 -13 -21 6 0 3 -4 -8 -9 -19 -8
-19 -9 3 -9 22 -1 65 33 55 43 -4 3 3 6 13 6 11 0 29 7 40 16 18 14 18 15 -3
4 -16 -7 -23 -7 -23 0 0 10 19 14 51 11 20 -2 42 23 37 43 -2 13 -13 10 -55
-14z"/>
<path d="M4046 6175 c4 -8 12 -15 20 -15 8 0 14 -4 14 -10 0 -5 5 -10 11 -10
15 0 -7 27 -32 41 -15 7 -17 6 -13 -6z"/>
<path d="M5180 6171 c0 -24 15 -35 33 -24 6 4 21 6 32 5 13 -1 7 5 -15 17 -44
25 -50 25 -50 2z"/>
<path d="M5235 6120 c3 -5 20 -10 36 -10 18 0 28 4 24 10 -3 6 -20 10 -36 10
-18 0 -28 -4 -24 -10z"/>
<path d="M5268 6093 c6 -2 12 -12 12 -22 0 -9 9 -23 20 -31 11 -8 20 -18 20
-23 0 -16 53 -77 67 -77 8 0 11 -5 7 -12 -5 -8 -2 -9 9 -5 10 3 17 2 17 -3 0
-6 -5 -10 -11 -10 -11 0 45 -82 70 -103 11 -9 15 -9 18 1 3 6 9 9 14 6 6 -3 5
-11 -2 -20 -18 -22 26 -63 77 -71 l39 -6 -29 32 c-17 17 -36 31 -43 31 -7 0
-13 5 -13 10 0 6 5 10 11 10 5 0 -18 34 -53 76 -35 42 -84 102 -111 135 -35
43 -54 59 -72 59 -26 0 -34 15 -12 23 6 3 -1 5 -18 5 -16 0 -24 -2 -17 -5z"/>
<path d="M2542 6050 c-10 -17 -10 -20 4 -20 8 0 13 4 9 10 -3 5 9 14 27 19
l33 9 -30 1 c-20 1 -34 -6 -43 -19z"/>
<path d="M4355 6050 c3 -5 11 -10 16 -10 6 0 7 5 4 10 -3 6 -11 10 -16 10 -6
0 -7 -4 -4 -10z"/>
<path d="M2507 6014 c-7 -7 17 -34 31 -34 5 0 17 9 27 20 18 20 17 20 -17 20
-19 0 -37 -3 -41 -6z"/>
<path d="M2367 5835 c-125 -158 -157 -200 -157 -208 0 -4 13 -7 30 -7 26 0 40
13 110 103 44 56 96 122 116 147 l36 45 -24 6 c-21 6 -20 7 7 8 18 1 35 9 42
20 11 17 9 19 -23 18 -31 -1 -42 -11 -137 -132z"/>
<path d="M4883 5902 c-5 -4 -17 -21 -26 -37 -8 -17 -25 -39 -38 -50 l-22 -20
18 28 c26 41 10 45 -29 7 -21 -19 -41 -30 -50 -27 -23 9 -25 -44 -2 -64 18
-14 18 -16 2 -22 -10 -4 -19 -1 -22 8 -4 8 -11 15 -18 15 -6 0 -22 14 -36 31
-66 81 -90 97 -90 59 0 -11 20 -41 44 -67 23 -27 59 -66 78 -87 38 -42 59 -47
146 -31 29 5 42 4 42 -4 0 -6 -7 -11 -15 -11 -9 0 -27 -7 -40 -16 -15 -10 -25
-12 -25 -5 0 6 -9 11 -21 11 -12 0 -19 -5 -16 -12 2 -7 10 -12 16 -10 6 1 11
-3 11 -9 0 -8 4 -8 15 1 8 6 20 10 26 8 7 -2 -2 -15 -21 -28 -25 -18 -32 -20
-27 -8 7 19 -11 28 -59 28 -41 0 -42 -7 -6 -52 46 -58 83 -88 110 -88 6 0 41
36 78 80 37 44 69 78 72 76 2 -3 -30 -43 -72 -90 -42 -47 -76 -90 -76 -95 0
-5 10 -12 23 -16 19 -6 19 -8 5 -12 -10 -2 -18 -8 -18 -13 0 -5 -6 -7 -13 -4
-12 4 -14 -14 -8 -72 1 -6 12 -17 26 -24 30 -16 33 -30 6 -30 -10 0 -24 -7
-31 -15 -14 -17 0 -21 17 -4 8 8 13 7 18 -3 5 -7 5 -10 1 -6 -12 10 -49 -29
-43 -45 3 -8 1 -19 -5 -25 -6 -6 -6 -12 0 -16 5 -3 20 6 32 19 19 20 32 25 69
23 40 -1 41 -2 11 -5 -67 -7 -65 -17 5 -23 l70 -6 -76 -2 c-58 -2 -80 -6 -90
-19 -11 -13 -11 -17 -1 -20 6 -3 10 -9 6 -14 -3 -5 1 -9 8 -9 8 0 28 -20 46
-45 30 -43 34 -45 84 -47 50 -1 51 -2 11 -5 -24 -2 -43 -7 -43 -11 0 -4 20
-29 43 -55 24 -26 39 -47 33 -47 -6 0 -24 18 -40 40 -29 39 -32 40 -88 40 -47
0 -56 -3 -52 -15 4 -8 1 -15 -5 -15 -6 0 -11 7 -11 15 0 16 -9 19 -34 9 -19
-7 -21 -24 -3 -24 8 0 23 -10 35 -23 30 -32 28 -42 -3 -12 -25 26 -45 32 -45
15 0 -5 6 -10 13 -10 8 0 8 -3 1 -8 -16 -11 -24 -41 -14 -47 15 -9 12 -25 -4
-25 -9 0 -20 -19 -28 -47 -12 -42 -12 -49 1 -55 14 -6 14 -7 0 -7 -16 -1 -59
-41 -44 -41 5 0 4 -5 -3 -12 -16 -16 -15 -28 3 -28 19 0 20 -16 1 -27 -23 -14
-1 -53 29 -53 17 0 24 4 19 12 -5 8 2 9 26 5 18 -4 78 -8 134 -9 l101 -2 -82
-3 c-63 -3 -83 -7 -83 -18 0 -7 8 -16 18 -18 12 -3 11 -5 -6 -6 -15 -1 -22 -6
-20 -17 2 -10 -3 -19 -9 -21 -7 -3 -13 2 -13 11 0 13 -11 16 -50 16 -49 0 -50
-1 -40 -22 l11 -23 -20 23 c-10 12 -24 22 -29 22 -5 0 -12 7 -16 15 -7 18 -41
20 -62 3 -43 -35 -71 -65 -77 -80 -3 -10 -12 -18 -19 -18 -9 0 -8 -3 2 -10 13
-8 13 -10 -2 -10 -11 0 -15 -5 -12 -15 4 -8 1 -15 -5 -15 -6 0 -11 -7 -11 -16
0 -8 -4 -12 -10 -9 -5 3 -10 1 -10 -5 0 -7 40 -10 126 -9 69 0 128 -1 131 -4
3 -4 3 -13 0 -22 -6 -15 -33 -17 -245 -17 -63 1 -73 -2 -68 -15 5 -13 4 -14
-9 -3 -9 7 -18 10 -21 7 -3 -3 -17 -2 -30 3 -31 12 -51 -17 -26 -37 15 -12 15
-13 -3 -11 -11 2 -19 -2 -18 -7 1 -6 -7 -11 -18 -11 -10 0 -19 4 -19 8 0 17
-38 7 -43 -12 -3 -11 0 -20 5 -20 6 0 8 -12 4 -31 -8 -43 18 -67 51 -46 9 6
11 3 6 -10 -5 -15 -2 -14 19 5 29 26 48 28 48 6 0 -12 -6 -15 -22 -11 -21 6
-22 5 -5 -7 14 -11 15 -15 5 -19 -9 -4 -7 -6 4 -6 9 -1 18 -7 21 -13 2 -7 3
-5 2 5 -2 12 3 17 18 16 12 0 16 -3 10 -6 -7 -2 -13 -10 -13 -17 0 -10 13 -15
58 -18 6 -1 12 -7 12 -13 0 -20 57 -15 76 6 9 10 15 22 12 25 -15 14 17 78 58
117 38 35 108 74 137 76 4 1 7 -68 7 -153 0 -166 3 -186 29 -185 10 0 11 2 3
6 -6 2 -10 9 -6 14 9 15 21 10 27 -10 3 -14 15 -18 51 -20 68 -2 76 -3 70 -13
-3 -5 -9 -6 -13 -4 -4 3 -4 -21 0 -52 4 -31 8 -80 8 -108 1 -48 3 -51 36 -64
19 -8 35 -21 35 -29 0 -14 2 -14 9 -1 6 8 8 17 5 21 -2 4 3 12 11 19 21 17 19
30 -4 30 -18 0 -20 7 -17 90 1 69 -1 90 -11 90 -7 0 -13 10 -13 23 0 16 3 18
9 9 6 -11 10 -10 15 3 5 14 9 15 21 5 13 -11 14 -10 9 4 -4 11 -2 16 7 14 11
-2 14 17 14 97 l0 100 180 6 c99 4 219 9 268 13 66 4 87 3 88 -7 1 -6 0 -64
-1 -127 -2 -131 7 -152 60 -156 24 -2 34 2 37 17 3 10 9 16 15 13 5 -3 6 5 2
20 -5 21 -3 25 10 20 14 -5 16 -26 16 -143 0 -135 1 -136 19 -112 17 22 19 39
15 140 -3 64 -5 125 -6 136 -1 11 -1 44 0 73 2 52 4 55 65 113 51 49 59 61 47
70 -12 9 -11 10 7 6 12 -3 27 1 34 9 6 8 8 14 3 14 -5 0 -4 4 3 8 22 14 43
124 43 227 0 70 4 107 14 120 12 18 11 38 -10 155 -13 74 -27 151 -30 170 l-6
35 -64 -1 c-49 0 -70 4 -85 17 -12 10 -18 23 -14 28 4 7 -10 11 -39 11 -24 0
-46 -4 -48 -10 -3 -10 -255 -16 -265 -6 -4 3 1 6 11 6 12 0 16 5 11 19 -5 16
1 20 37 23 24 3 47 1 52 -3 6 -5 -4 -9 -23 -9 -22 0 -31 -4 -29 -12 6 -16 198
-24 198 -8 0 6 45 10 123 10 l123 0 -14 82 c-13 81 -27 107 -46 88 -15 -15
-30 -12 -17 3 13 16 -14 45 -66 71 -17 8 -62 45 -100 81 -37 35 -72 65 -78 65
-5 0 -3 -4 5 -10 24 -15 6 -21 -28 -9 -18 6 -32 17 -32 25 0 16 -16 19 -25 4
-3 -6 -18 -7 -32 -4 l-25 7 18 -29 18 -29 -25 25 c-14 14 -24 27 -23 28 6 9
-56 68 -110 106 -101 71 -110 76 -117 65 -5 -8 -13 -8 -27 0 -30 16 -34 -1 -9
-32 77 -93 87 -107 75 -107 -8 -1 -7 -5 5 -14 22 -17 4 -26 -37 -19 -18 4 -31
1 -37 -8 -7 -11 -9 -10 -9 4 0 10 -4 15 -10 12 -5 -3 -10 0 -10 8 0 8 -16 22
-36 32 -23 10 -34 22 -30 31 3 7 -22 51 -56 96 -68 91 -80 122 -83 220 -3 67
-22 113 -42 100z m-16 -214 c-3 -8 -6 -5 -6 6 -1 11 2 17 5 13 3 -3 4 -12 1
-19z m73 -65 c0 -5 -7 -16 -14 -25 -17 -22 -40 -24 -32 -2 3 9 6 20 6 25 0 5
9 9 20 9 11 0 20 -3 20 -7z m390 -180 c82 -91 79 -98 -5 -12 -33 34 -51 57
-40 51 11 -6 31 -23 45 -39z m-300 -72 c0 -12 -20 -25 -27 -18 -7 7 6 27 18
27 5 0 9 -4 9 -9z m-60 -36 c0 -8 -7 -15 -15 -15 -8 0 -15 7 -15 15 0 8 7 15
15 15 8 0 15 -7 15 -15z m200 5 c0 -5 -4 -10 -10 -10 -5 0 -10 5 -10 10 0 6 5
10 10 10 6 0 10 -4 10 -10z m179 1 c9 -6 10 -11 2 -15 -6 -4 -11 -2 -11 3 0
18 -20 12 -27 -6 -3 -10 -14 -26 -25 -36 -17 -17 -18 -17 -18 -1 0 20 38 64
54 64 6 0 17 -4 25 -9z m-461 -33 c11 -14 10 -16 -7 -11 -12 3 -21 9 -21 12 0
8 12 23 14 19 1 -2 7 -11 14 -20z m246 -150 c-1 -13 -3 -33 -3 -45 -1 -21 -6
-23 -51 -23 l-50 0 0 45 0 45 53 0 c50 0 53 -2 51 -22z m-214 -59 c0 -5 -2 -9
-4 -9 -2 0 -13 -3 -23 -6 -15 -5 -15 -4 -3 5 11 8 12 11 2 11 -7 0 -11 4 -7
10 7 11 35 2 35 -11z m750 -19 c0 -5 -4 -10 -10 -10 -5 0 -10 5 -10 10 0 6 5
10 10 10 6 0 10 -4 10 -10z m-408 -18 c4 -4 -40 -6 -97 -4 -70 2 -105 0 -105
-7 0 -7 30 -11 79 -11 63 0 81 -3 92 -17 13 -16 12 -17 -3 -5 -11 9 -44 13
-95 12 -114 -2 -111 -3 -108 23 1 12 3 22 4 22 23 3 228 -9 233 -13z m258 8
c0 -5 -5 -10 -11 -10 -5 0 -7 5 -4 10 3 6 8 10 11 10 2 0 4 -4 4 -10z m-422
-102 c5 -25 -25 -23 -38 3 -10 18 -9 20 12 17 12 -2 24 -11 26 -20z m245 15
c-18 -2 -48 -2 -65 0 -18 2 -4 4 32 4 36 0 50 -2 33 -4z m67 -23 c13 -9 13
-10 0 -11 -8 -1 -18 -1 -21 -1 -4 1 -17 -10 -29 -23 -13 -14 -28 -25 -33 -25
-8 0 52 66 63 68 3 1 12 -3 20 -8z m320 -8 c0 -5 -13 -7 -30 -4 -16 2 -30 6
-30 8 0 2 14 4 30 4 17 0 30 -4 30 -8z m-365 -52 c-30 -29 -31 -29 -153 -31
-68 -1 -126 1 -129 5 -8 7 -7 7 137 6 112 -1 116 0 140 25 13 14 26 25 29 25
3 0 -8 -13 -24 -30z m390 20 c3 -5 1 -10 -4 -10 -6 0 -11 5 -11 10 0 6 2 10 4
10 3 0 8 -4 11 -10z m-835 -75 c0 -8 -4 -15 -10 -15 -5 0 -10 7 -10 15 0 8 5
15 10 15 6 0 10 -7 10 -15z m154 -43 c-7 -40 -18 -52 -43 -47 -9 2 -23 4 -32
4 -15 1 -18 23 -10 73 1 7 71 16 84 10 4 -2 5 -20 1 -40z m76 44 c0 -3 -4 -8
-10 -11 -5 -3 -10 -1 -10 4 0 6 5 11 10 11 6 0 10 -2 10 -4z m-388 -98 c-9 -9
-12 -7 -12 12 0 19 3 21 12 12 9 -9 9 -15 0 -24z m68 22 c0 -5 -2 -10 -4 -10
-3 0 -8 5 -11 10 -3 6 -1 10 4 10 6 0 11 -4 11 -10z m1015 -12 c2 -7 0 -29 -4
-48 -5 -20 -10 -27 -10 -15 -1 11 -8 29 -16 39 -8 11 -15 23 -15 28 0 13 40 9
45 -4z m-438 -5 c-62 -4 -69 -6 -77 -29 -6 -14 -10 -111 -10 -215 0 -183 1
-191 23 -214 15 -17 36 -25 67 -28 29 -2 17 -4 -33 -5 l-79 -2 6 58 c3 31 5
144 6 250 l0 192 83 -2 82 -2 -68 -3z m216 0 c-13 -2 -35 -2 -50 0 -16 2 -5 4
22 4 28 0 40 -2 28 -4z m-623 -43 c0 -5 -4 -10 -10 -10 -5 0 -10 5 -10 10 0 6
5 10 10 10 6 0 10 -4 10 -10z m-245 -101 c11 -16 1 -19 -13 -3 -7 8 -8 14 -3
14 5 0 13 -5 16 -11z m765 -39 c0 -14 -7 -20 -24 -20 -13 0 -32 -3 -40 -6 -12
-5 -15 -2 -10 11 5 13 3 16 -7 13 -8 -3 -13 -10 -12 -16 1 -5 -12 -12 -29 -16
-31 -6 -53 0 -27 8 44 13 50 17 44 26 -4 6 6 10 24 10 16 0 32 -6 34 -12 3 -8
6 -6 6 5 1 25 41 23 41 -3z m207 14 c-3 -3 -12 -4 -19 -1 -8 3 -5 6 6 6 11 1
17 -2 13 -5z m-59 -11 c-10 -2 -26 -2 -35 0 -10 3 -2 5 17 5 19 0 27 -2 18 -5z
m-281 -9 c-3 -3 -12 -4 -19 -1 -8 3 -5 6 6 6 11 1 17 -2 13 -5z m303 -33 c0
-5 -3 -17 -6 -25 -5 -13 -9 -14 -20 -5 -12 10 -13 9 -8 -5 3 -9 1 -16 -4 -16
-13 0 -25 36 -17 50 8 13 55 13 55 1z m-533 -121 c21 0 33 -4 27 -8 -7 -4 -47
-5 -90 -3 -66 4 -72 6 -37 10 l42 6 -50 60 -51 60 61 -62 c53 -55 65 -63 98
-63z m453 97 c0 -17 -6 -23 -27 -25 -15 -1 -30 4 -35 10 -6 10 -8 10 -8 0 0
-7 -5 -10 -10 -7 -6 4 -8 12 -4 18 3 7 -3 2 -13 -9 -21 -24 -102 -40 -104 -20
0 7 -3 6 -6 -1 -7 -20 -30 -15 -36 7 -4 14 0 20 11 21 10 1 32 2 50 4 24 2 32
-1 33 -14 0 -10 4 -7 10 9 8 20 12 22 20 10 8 -13 10 -13 18 -1 5 8 16 11 25
8 8 -3 18 -2 21 3 4 6 17 10 31 10 18 0 24 -5 24 -23z m-680 3 c0 -5 -5 -10
-11 -10 -5 0 -7 5 -4 10 3 6 8 10 11 10 2 0 4 -4 4 -10z m-20 -45 l25 -30 -27
24 c-16 14 -28 29 -28 34 0 6 1 8 3 6 1 -2 13 -17 27 -34z m-159 -42 c13 -16
12 -17 -3 -4 -17 13 -22 21 -14 21 2 0 10 -8 17 -17z m732 0 c-7 -2 -19 -2
-25 0 -7 3 -2 5 12 5 14 0 19 -2 13 -5z m261 -22 c-26 -26 -36 -28 -109 -30
-72 -2 -78 -1 -60 13 11 8 23 12 27 10 5 -3 8 0 8 5 0 6 7 11 15 11 8 0 15 -7
15 -16 0 -8 5 -12 10 -9 6 4 8 10 5 15 -3 5 7 12 22 16 15 3 33 7 38 9 6 2 21
4 34 4 l25 1 -30 -29z m-779 -1 c10 -11 16 -20 13 -20 -3 0 -13 9 -23 20 -10
11 -16 20 -13 20 3 0 13 -9 23 -20z m320 -79 c-3 -2 -6 -2 -7 0 -2 2 -19 22
-38 44 l-35 40 42 -39 c24 -22 40 -42 38 -45z m-457 62 c-10 -2 -26 -2 -35 0
-10 3 -2 5 17 5 19 0 27 -2 18 -5z m52 -38 c13 -14 21 -25 18 -25 -2 0 -15 11
-28 25 -13 14 -21 25 -18 25 2 0 15 -11 28 -25z m961 11 c3 -3 3 -23 1 -45
l-4 -41 -182 2 -181 2 157 6 c145 5 158 7 177 27 30 32 26 41 -16 46 l-38 4
41 1 c22 1 43 0 45 -2z m-187 -22 c25 -10 19 -22 -9 -16 -14 2 -22 8 -19 13 6
11 8 11 28 3z m-244 -26 c0 -16 -3 -19 -11 -11 -6 6 -8 16 -5 22 11 17 16 13
16 -11z m-580 -32 c0 -3 -4 -8 -10 -11 -5 -3 -10 -1 -10 4 0 6 5 11 10 11 6 0
10 -2 10 -4z m110 -15 c0 -11 -5 -23 -11 -27 -15 -9 -33 12 -26 30 9 23 37 20
37 -3z m-502 -52 c19 -30 8 -34 -12 -4 -9 14 -13 25 -9 25 5 0 14 -9 21 -21z
m1256 -67 c2 -4 -2 -15 -9 -25 -11 -16 -12 -15 -12 8 0 24 11 33 21 17z
m-1224 -56 c0 -11 -19 -15 -25 -6 -3 5 1 10 9 10 9 0 16 -2 16 -4z m295 -16
c3 -5 -1 -10 -10 -10 -9 0 -13 5 -10 10 3 6 8 10 10 10 2 0 7 -4 10 -10z m121
-167 c-10 -10 -19 5 -10 18 6 11 8 11 12 0 2 -7 1 -15 -2 -18z"/>
<path d="M3858 5754 c-32 -6 -35 -16 -12 -38 17 -17 40 -21 48 -7 3 4 33 7 66
5 47 -3 62 0 66 11 7 16 44 21 44 5 0 -5 -8 -14 -17 -19 -10 -6 -13 -11 -6
-11 6 0 18 7 27 15 14 15 56 21 56 9 0 -4 -8 -13 -17 -20 -10 -7 -13 -14 -6
-14 6 0 18 7 27 15 8 8 22 15 30 15 22 0 20 -27 -1 -33 -14 -4 -13 -5 3 -6 12
0 25 6 28 14 5 13 10 14 28 4 21 -11 21 -12 3 -25 -15 -11 -16 -14 -3 -14 8 0
21 7 28 15 9 11 16 12 30 3 23 -15 15 -32 -11 -25 -11 3 -17 1 -13 -4 7 -12
41 -11 49 1 4 7 13 6 27 -1 16 -9 18 -13 7 -19 -7 -5 -17 -6 -21 -4 -4 3 -8 0
-8 -5 0 -14 33 -14 46 -1 7 7 17 5 30 -5 19 -14 18 -14 -3 -15 -13 0 -23 -5
-23 -10 0 -6 16 -10 36 -8 23 2 39 -2 41 -9 3 -8 -4 -13 -17 -13 -12 0 -18 -4
-15 -11 4 -6 19 -7 35 -4 31 7 52 -11 25 -21 -27 -11 11 -45 41 -38 28 7 32
-10 7 -26 -15 -10 -14 -10 8 -6 17 4 31 0 38 -8 15 -17 0 -29 -25 -19 -12 4
-15 3 -10 -5 4 -7 21 -12 37 -12 24 0 30 -4 27 -17 -2 -11 -11 -17 -22 -15
-11 2 -15 -1 -11 -7 3 -6 20 -11 36 -11 24 0 30 -4 27 -17 -2 -10 -11 -17 -20
-17 -9 1 -14 -4 -12 -11 3 -7 15 -10 30 -7 19 3 24 0 24 -17 0 -15 -6 -21 -21
-21 -12 0 -17 -4 -13 -11 3 -6 15 -8 26 -6 12 3 22 -1 25 -10 6 -16 -15 -35
-29 -27 -4 3 -8 0 -8 -5 0 -6 11 -11 25 -11 16 0 25 -6 25 -15 0 -8 -9 -15
-20 -15 -11 0 -20 -4 -20 -10 0 -5 11 -10 25 -10 16 0 25 -6 25 -15 0 -8 -9
-15 -20 -15 -11 0 -20 -4 -20 -10 0 -15 48 -12 53 3 8 24 -32 176 -63 238 -93
184 -225 296 -440 374 -62 22 -95 27 -190 30 -63 2 -127 1 -142 -1z m102 -13
c0 -6 -5 -13 -10 -16 -15 -9 -43 3 -35 15 8 13 45 13 45 1z m55 0 c3 -5 1 -13
-5 -16 -15 -9 -43 3 -35 15 8 13 32 13 40 1z m-115 -10 c0 -5 -6 -11 -12 -14
-18 -6 -39 3 -32 14 7 12 44 12 44 0z m610 -221 c0 -5 -7 -10 -15 -10 -8 0
-15 5 -15 10 0 6 7 10 15 10 8 0 15 -4 15 -10z"/>
<path d="M4530 5744 c0 -8 5 -12 10 -9 6 4 8 11 5 16 -9 14 -15 11 -15 -7z"/>
<path d="M3740 5721 c-68 -22 -128 -52 -200 -101 -151 -103 -278 -317 -293
-495 -3 -33 -3 -52 0 -42 3 10 14 17 29 17 14 0 24 6 24 14 0 9 -7 12 -21 9
-17 -5 -20 -2 -17 13 2 11 13 20 26 22 12 2 22 9 22 17 0 8 -7 11 -21 8 -16
-4 -20 -2 -17 8 2 7 15 16 28 19 13 3 25 11 28 18 3 9 -3 11 -22 6 -28 -7 -31
-3 -17 24 5 9 19 38 30 65 17 37 26 47 45 47 14 0 28 5 31 10 4 6 -5 10 -21
10 -22 0 -25 2 -14 15 8 9 21 13 36 9 15 -4 24 -2 24 5 0 6 -9 11 -20 11 -11
0 -20 5 -20 10 0 15 31 25 39 12 4 -6 19 3 39 24 29 30 30 34 12 34 -21 0 -27
15 -10 25 6 4 17 1 25 -5 11 -9 19 -7 38 14 13 14 29 26 36 26 6 0 11 4 11 9
0 5 10 12 23 16 l22 8 -22 4 c-13 2 -23 9 -23 14 0 5 10 14 23 19 12 6 30 15
39 22 9 7 20 9 24 6 10 -11 -6 -28 -27 -28 -10 0 -19 -4 -19 -10 0 -16 37 -12
44 5 3 8 13 15 23 15 24 1 51 22 46 37 -6 18 36 38 50 24 9 -9 6 -13 -11 -17
-12 -4 -22 -10 -22 -15 0 -14 16 -11 30 6 8 9 21 13 36 9 15 -4 24 -2 24 6 0
6 -4 8 -10 5 -5 -3 -15 -3 -22 1 -7 5 -5 11 7 21 26 18 4 16 -65 -6z m-39 -46
c-1 -15 -24 -12 -29 3 -3 9 2 13 12 10 10 -1 17 -7 17 -13z m-131 -74 c0 -14
-18 -23 -30 -16 -6 4 -8 11 -5 16 8 12 35 12 35 0z m-49 -36 c0 -6 -10 -12
-23 -13 -19 -4 -20 -2 -9 12 15 17 33 18 32 1z m-71 -75 c0 -12 -28 -25 -36
-17 -9 9 6 27 22 27 8 0 14 -5 14 -10z"/>
<path d="M5278 5723 c12 -2 32 -2 45 0 12 2 2 4 -23 4 -25 0 -35 -2 -22 -4z"/>
<path d="M5290 5699 c0 -9 83 -19 168 -19 66 0 73 2 62 15 -11 13 -34 15 -122
13 -59 -1 -108 -5 -108 -9z"/>
<path d="M5562 5698 c5 -13 88 -30 88 -18 0 16 -27 30 -58 30 -22 0 -32 -4
-30 -12z"/>
<path d="M5865 5655 c4 -11 10 -31 13 -45 2 -14 8 -29 12 -35 4 -5 11 -25 15
-43 5 -26 10 -31 20 -22 11 9 11 18 -4 53 -20 45 -68 125 -56 92z"/>
<path d="M4019 5643 c6 -13 16 -23 21 -23 5 0 15 10 21 23 11 20 11 21 -4 8
-14 -11 -20 -11 -34 0 -15 13 -15 12 -4 -8z"/>
<path d="M4647 5654 c-12 -12 4 -24 31 -24 25 0 25 1 6 15 -21 16 -28 18 -37
9z"/>
<path d="M5266 5639 c19 -22 43 -21 61 1 12 15 15 11 17 -20 1 -13 32 -16 66
-7 8 3 70 -46 70 -55 0 -4 15 -23 33 -42 43 -45 72 -80 72 -87 0 -13 55 -69
68 -69 8 0 22 11 31 25 14 22 15 25 1 25 -8 0 -14 -4 -13 -9 4 -12 -16 -15
-20 -3 -4 12 53 33 65 24 4 -4 0 2 -10 14 -9 11 -14 25 -10 30 5 5 -2 0 -14
-10 -20 -17 -23 -17 -23 -3 0 10 5 17 10 17 6 0 10 5 10 11 0 13 -100 139
-111 139 -3 0 -9 9 -12 20 -5 20 -12 21 -157 19 -147 -1 -150 -2 -134 -20z
m354 -149 c0 -5 -9 -10 -21 -10 -11 0 -17 5 -14 10 3 6 13 10 21 10 8 0 14 -4
14 -10z"/>
<path d="M5605 5651 c-2 -2 17 -30 43 -62 36 -45 53 -58 75 -58 26 -1 27 1 16
22 -7 12 -25 41 -41 65 -24 35 -34 42 -59 40 -17 -1 -32 -4 -34 -7z"/>
<path d="M1963 5565 c-56 -112 -116 -264 -109 -281 3 -8 1 -14 -4 -14 -8 0
-20 -36 -49 -144 -6 -22 -9 -41 -7 -43 2 -2 22 26 45 62 22 37 37 63 31 60 -5
-3 -10 -1 -10 4 0 6 7 11 15 11 9 0 15 10 15 26 0 14 -4 23 -10 19 -5 -3 -10
-2 -10 3 0 5 11 14 24 21 26 14 73 123 56 129 -5 2 -4 10 4 17 16 17 59 169
54 193 -3 10 -20 -14 -45 -63z"/>
<path d="M5054 5602 c2 -17 10 -37 17 -44 27 -25 81 -60 85 -55 5 5 -64 95
-89 116 -15 12 -17 10 -13 -17z"/>
<path d="M4670 5610 c0 -5 12 -10 26 -10 14 0 23 4 19 10 -3 6 -15 10 -26 10
-10 0 -19 -4 -19 -10z"/>
<path d="M2712 5603 c-34 -3 -55 -9 -59 -19 -3 -7 -12 -14 -20 -14 -8 0 -13
-8 -11 -17 3 -15 17 -19 88 -23 l85 -5 6 -45 c3 -27 8 -39 12 -30 14 30 12
104 -2 96 -5 -3 -15 1 -22 10 -11 14 -11 18 4 29 16 11 16 13 1 19 -8 3 -19 5
-22 4 -4 -1 -31 -3 -60 -5z m28 -28 c0 -8 -4 -15 -9 -15 -5 0 -23 -3 -40 -6
-20 -4 -31 -3 -31 5 0 6 11 11 24 11 14 0 28 5 31 10 9 15 25 12 25 -5z"/>
<path d="M4610 5580 c0 -18 4 -29 10 -25 6 3 10 15 10 25 0 10 -4 22 -10 25
-6 4 -10 -7 -10 -25z"/>
<path d="M2197 5594 c-8 -8 3 -34 14 -34 5 0 9 9 9 20 0 19 -11 26 -23 14z"/>
<path d="M2340 5592 c0 -15 36 -28 60 -21 14 4 21 8 15 8 -5 1 -3 6 5 11 11 7
2 10 -32 10 -27 0 -48 -3 -48 -8z m50 -6 c0 -3 -4 -8 -10 -11 -5 -3 -10 -1
-10 4 0 6 5 11 10 11 6 0 10 -2 10 -4z"/>
<path d="M4038 5593 c-35 -5 -37 -18 -4 -19 14 -1 27 4 30 12 3 8 4 13 3 13
-1 -1 -14 -4 -29 -6z"/>
<path d="M2465 5550 c-18 -20 -17 -20 8 -20 20 0 27 5 27 20 0 11 -4 20 -8 20
-5 0 -17 -9 -27 -20z"/>
<path d="M3780 5550 c6 -11 13 -20 16 -20 2 0 0 9 -6 20 -6 11 -13 20 -16 20
-2 0 0 -9 6 -20z"/>
<path d="M2140 5514 c-26 -60 -26 -85 -1 -53 15 20 34 99 24 99 -2 0 -13 -21
-23 -46z"/>
<path d="M4191 5544 c0 -11 3 -14 6 -6 3 7 2 16 -1 19 -3 4 -6 -2 -5 -13z"/>
<path d="M4635 5550 c-8 -13 -1 -24 14 -19 6 3 7 10 2 18 -6 10 -10 10 -16 1z"/>
<path d="M5716 5505 c4 -8 17 -15 30 -15 17 0 22 4 18 15 -4 8 -17 15 -30 15
-17 0 -22 -4 -18 -15z"/>
<path d="M2510 5500 c-12 -8 -9 -10 13 -10 15 0 27 5 27 10 0 13 -20 13 -40 0z"/>
<path d="M2595 5500 c-19 -8 -19 -9 3 -9 12 -1 22 4 22 9 0 6 -1 10 -2 9 -2 0
-12 -4 -23 -9z"/>
<path d="M2730 5501 c0 -5 11 -11 25 -13 17 -4 25 -1 25 8 0 8 -11 14 -25 14
-14 0 -25 -4 -25 -9z"/>
<path d="M2425 5490 c-4 -6 7 -10 24 -10 17 0 31 5 31 10 0 6 -11 10 -24 10
-14 0 -28 -4 -31 -10z"/>
<path d="M4188 5477 c-2 -12 1 -39 8 -57 12 -34 12 -33 7 20 -7 64 -9 69 -15
37z"/>
<path d="M5930 5489 c0 -5 -4 -7 -10 -4 -5 3 -10 1 -10 -4 0 -6 5 -11 10 -11
6 0 10 -11 10 -25 0 -14 5 -25 11 -25 5 0 8 -4 5 -9 -4 -5 0 -12 6 -14 10 -4
10 -6 0 -6 -9 -1 -8 -7 4 -26 9 -14 14 -25 11 -25 -3 0 8 -14 24 -31 17 -18
28 -40 27 -50 -2 -10 0 -18 5 -19 4 0 11 0 17 0 9 0 -55 193 -79 239 -12 22
-31 29 -31 10z"/>
<path d="M5760 5455 c29 -31 31 -31 17 0 -7 14 -18 25 -26 25 -10 0 -7 -8 9
-25z"/>
<path d="M2419 5466 c-2 -3 -26 -6 -51 -7 -26 -2 -45 -6 -43 -10 3 -3 25 -4
50 -1 43 4 45 4 45 -22 0 -25 -2 -26 -59 -26 -39 0 -61 4 -64 13 -2 6 -12 -4
-22 -23 -12 -23 -14 -35 -6 -38 13 -4 15 -38 3 -46 -5 -3 -7 -19 -4 -36 l4
-31 226 3 c139 2 227 7 229 13 2 6 -26 10 -69 10 -69 0 -73 1 -76 24 -6 39 6
69 37 90 l29 21 35 -24 35 -24 6 21 c3 12 6 39 6 60 0 30 -4 37 -20 37 -11 0
-20 -6 -20 -12 0 -9 -4 -8 -11 2 -8 11 -12 12 -16 3 -5 -15 -43 -18 -43 -4 0
9 -192 16 -201 7z m129 -39 c0 -25 -32 -34 -55 -15 -7 6 -13 6 -13 1 0 -5 -11
-10 -25 -11 -20 -1 -25 3 -25 22 0 22 4 23 59 25 55 1 59 0 59 -22z m-104 -86
c10 -11 16 -30 14 -43 -3 -20 -9 -23 -48 -25 -25 -2 -58 -4 -75 -5 -26 -3 -30
1 -33 25 -2 15 1 27 7 27 6 0 11 7 11 15 0 8 5 15 10 15 6 0 10 -7 10 -15 0
-8 5 -15 10 -15 6 0 10 -7 10 -17 0 -19 13 -9 16 13 7 48 37 59 68 25z m106
-18 l21 -28 -20 -16 c-30 -24 -61 -13 -61 20 0 26 16 51 31 51 4 0 17 -12 29
-27z"/>
<path d="M2740 5406 c0 -25 4 -47 9 -50 5 -3 8 17 8 44 -1 28 -5 50 -9 50 -4
0 -8 -20 -8 -44z"/>
<path d="M4740 5439 c0 -5 5 -7 10 -4 6 3 10 8 10 11 0 2 -4 4 -10 4 -5 0 -10
-5 -10 -11z"/>
<path d="M3545 5430 c-3 -6 1 -7 9 -4 18 7 21 14 7 14 -6 0 -13 -4 -16 -10z"/>
<path d="M2772 5368 c-1 -35 -6 -48 -17 -48 -10 0 -15 -10 -15 -34 0 -67 2
-66 -149 -68 l-136 -1 155 -7 c85 -4 159 -4 163 0 4 4 6 51 4 106 -1 54 -4 78
-5 52z"/>
<path d="M2813 5402 c-8 -5 -13 -44 -15 -112 l-3 -105 -33 -3 c-24 -2 -32 -7
-28 -18 4 -12 -10 -14 -87 -12 l-92 2 78 3 c42 2 77 8 77 13 0 6 -92 9 -226 9
-160 0 -230 3 -240 12 -9 7 -14 31 -14 69 0 39 -4 60 -13 63 -18 7 -19 0 -21
-118 l-1 -100 294 -3 c293 -2 294 -2 309 20 9 12 16 33 17 47 1 15 5 33 9 42
4 8 5 57 4 107 -2 68 -6 89 -15 84z"/>
<path d="M3517 5398 c-7 -4 9 -8 35 -8 26 0 49 4 52 9 7 10 -71 9 -87 -1z"/>
<path d="M4135 5401 c-6 -5 -19 -11 -30 -14 -16 -4 -14 -5 6 -6 16 -1 29 5 33
14 6 17 4 19 -9 6z"/>
<path d="M3960 5390 c-13 -8 -13 -10 2 -10 9 0 20 5 23 10 8 13 -5 13 -25 0z"/>
<path d="M4340 5380 c-13 -8 -12 -10 3 -10 9 0 17 5 17 10 0 12 -1 12 -20 0z"/>
<path d="M4385 5380 c3 -5 17 -10 31 -10 14 0 22 4 19 10 -3 6 -17 10 -31 10
-14 0 -22 -4 -19 -10z"/>
<path d="M3655 5303 c25 -43 47 -90 50 -105 13 -56 43 -55 129 5 15 11 81 47
145 79 64 33 105 56 91 52 -37 -10 -211 -99 -276 -140 -30 -20 -57 -34 -58
-32 -2 1 -11 28 -21 58 -22 70 -42 109 -68 138 -39 42 -36 22 8 -55z"/>
<path d="M1933 5314 c-11 -32 -24 -68 -29 -79 -7 -18 -6 -19 9 -6 18 14 51
113 45 133 -2 6 -13 -15 -25 -48z"/>
<path d="M2639 5328 l-2 -43 -7 40 -7 40 -2 -48 c-1 -43 1 -47 17 -38 12 7 17
22 17 50 0 54 -15 53 -16 -1z"/>
<path d="M3500 5358 c0 -4 16 -8 35 -8 19 0 35 2 35 4 0 2 -16 6 -35 8 -19 2
-35 0 -35 -4z"/>
<path d="M3815 5319 c-98 -55 -125 -76 -86 -64 14 4 21 3 17 -3 -3 -5 3 -17
14 -27 19 -17 21 -17 40 0 22 20 19 35 -4 16 -11 -9 -17 -8 -30 5 -19 18 -8
39 25 49 25 8 135 75 123 75 -5 0 -50 -23 -99 -51z"/>
<path d="M4020 5361 c-15 -4 -20 -10 -13 -14 13 -8 43 1 43 14 0 5 -1 9 -2 8
-2 -1 -14 -4 -28 -8z"/>
<path d="M4188 5363 c6 -2 18 -2 25 0 6 3 1 5 -13 5 -14 0 -19 -2 -12 -5z"/>
<path d="M5936 5340 c8 -53 24 -100 34 -100 5 0 1 24 -9 53 -26 76 -31 86 -25
47z"/>
<path d="M2671 5323 c-1 -24 4 -43 9 -43 12 0 12 24 0 60 -7 21 -8 19 -9 -17z"/>
<path d="M4148 5353 c7 -3 16 -2 19 1 4 3 -2 6 -13 5 -11 0 -14 -3 -6 -6z"/>
<path d="M2603 5310 c0 -25 2 -35 4 -22 2 12 2 32 0 45 -2 12 -4 2 -4 -23z"/>
<path d="M4108 5343 c7 -3 16 -2 19 1 4 3 -2 6 -13 5 -11 0 -14 -3 -6 -6z"/>
<path d="M4212 5334 c-7 -8 -23 -14 -36 -14 -33 0 -136 -37 -158 -57 -20 -18
-70 -104 -64 -110 2 -2 18 20 37 48 26 41 45 58 93 81 40 19 74 28 98 26 40
-2 62 10 50 28 -5 9 -11 8 -20 -2z"/>
<path d="M3335 5331 c-3 -5 -1 -12 5 -16 12 -7 30 2 30 16 0 12 -27 12 -35 0z"/>
<path d="M3697 5334 c-8 -8 10 -44 22 -44 12 0 8 43 -5 47 -5 2 -13 0 -17 -3z"/>
<path d="M2700 5300 c0 -18 4 -29 10 -25 6 3 10 15 10 25 0 10 -4 22 -10 25
-6 4 -10 -7 -10 -25z"/>
<path d="M3934 5314 c-18 -14 -18 -15 4 -4 12 6 22 13 22 15 0 8 -5 6 -26 -11z"/>
<path d="M2013 5290 c-13 -16 -23 -39 -23 -52 0 -13 -6 -32 -14 -43 -7 -11
-16 -47 -20 -80 -4 -32 -9 -69 -12 -82 -5 -19 -2 -23 19 -23 24 0 26 5 37 73
6 39 18 107 26 150 9 43 14 80 12 82 -2 1 -13 -10 -25 -25z"/>
<path d="M4409 5307 c5 -5 26 -7 47 -5 l39 3 -47 5 c-26 3 -43 1 -39 -3z"/>
<path d="M4502 5274 l-2 -51 -50 5 c-34 3 -50 1 -50 -7 0 -8 11 -10 35 -5 23
4 41 2 50 -6 23 -19 26 -9 22 56 l-3 59 -2 -51z"/>
<path d="M3440 5302 c0 -5 7 -9 15 -9 8 0 15 4 15 9 0 4 -7 8 -15 8 -8 0 -15
-4 -15 -8z"/>
<path d="M3324 5275 c-10 -8 -14 -15 -8 -15 6 0 17 7 24 15 16 19 9 19 -16 0z"/>
<path d="M3410 5284 c0 -6 9 -19 20 -29 24 -21 70 -13 70 13 -1 16 -1 16 -11
0 -14 -25 -45 -22 -63 4 -9 12 -16 18 -16 12z"/>
<path d="M3861 5280 c-8 -4 -21 -6 -29 -2 -10 3 -13 1 -8 -6 4 -7 13 -12 19
-12 16 0 43 18 36 24 -2 3 -11 1 -18 -4z"/>
<path d="M4220 5243 c0 -13 -3 -14 -12 -5 -21 21 -63 13 -107 -19 -58 -42 -44
-49 18 -9 28 17 56 28 62 24 7 -4 -9 -16 -40 -31 -56 -27 -62 -42 -10 -24 38
13 46 9 24 -13 -9 -9 -12 -16 -6 -16 14 0 51 37 51 51 0 6 7 9 15 5 11 -4 15
2 15 24 0 17 -2 30 -5 30 -3 0 -5 -8 -5 -17z"/>
<path d="M5900 5229 c0 -5 5 -7 10 -4 6 3 10 8 10 11 0 2 -4 4 -10 4 -5 0 -10
-5 -10 -11z"/>
<path d="M2370 5221 c-69 -6 -72 -7 -35 -13 68 -13 115 -10 115 7 0 8 -1 14
-2 13 -2 -1 -37 -4 -78 -7z"/>
<path d="M6200 5207 c0 -3 9 -43 19 -89 11 -46 25 -119 32 -163 12 -79 12 -79
102 -187 49 -59 91 -108 93 -108 2 0 -8 24 -22 53 -15 28 -69 151 -121 272
-88 205 -103 237 -103 222z"/>
<path d="M3490 5150 l0 -50 -55 0 c-30 0 -55 -4 -55 -10 0 -6 27 -10 60 -10
l60 0 0 60 c0 33 -2 60 -5 60 -3 0 -5 -22 -5 -50z"/>
<path d="M3867 5182 c-18 -20 -23 -47 -8 -37 5 3 11 -4 13 -16 2 -12 14 -29
28 -38 23 -15 24 -15 11 1 -15 20 -7 53 10 42 8 -4 9 -3 5 5 -4 6 -16 9 -27 6
-15 -5 -19 -1 -19 14 0 14 6 21 20 21 11 0 20 5 20 10 0 17 -36 11 -53 -8z"/>
<path d="M3462 5165 c0 -16 2 -22 5 -12 2 9 2 23 0 30 -3 6 -5 -1 -5 -18z"/>
<path d="M5896 5175 c4 -8 15 -15 25 -15 12 0 16 5 13 15 -4 8 -15 15 -25 15
-12 0 -16 -5 -13 -15z"/>
<path d="M1894 5137 c-48 -73 -88 -386 -82 -642 2 -108 1 -162 -4 -135 -8 46
-19 141 -19 173 0 10 -5 15 -11 11 -6 -4 -14 -1 -18 6 -10 17 -1 42 12 34 6
-4 9 6 7 22 -2 16 -1 34 2 39 16 27 19 68 7 83 -8 9 -8 13 -2 9 7 -4 14 0 17
8 4 10 1 12 -11 8 -16 -5 -16 -5 0 8 21 18 32 139 12 139 -9 0 -10 8 -4 29 5
19 4 33 -3 40 -8 8 -7 11 5 11 9 0 18 9 21 20 6 23 -1 25 -25 6 -26 -19 -35
-53 -49 -167 -26 -225 13 -808 52 -783 5 3 7 10 4 15 -4 5 1 9 9 9 11 0 16 9
15 28 -1 16 -3 20 -6 10 -2 -10 -8 -18 -13 -18 -4 0 -6 9 -3 20 3 11 10 20 15
20 6 0 8 14 5 35 -3 19 -2 35 2 35 4 0 17 -44 29 -97 l22 -98 -5 275 c-3 245
11 566 30 673 3 17 0 27 -8 27 -8 0 -9 2 -1 8 10 6 31 172 22 172 -2 0 -13
-15 -24 -33z m-68 -860 c1 -23 -1 -25 -18 -16 -11 6 -17 13 -14 16 3 3 -2 12
-12 20 -15 12 -14 13 13 10 25 -3 30 -8 31 -30z"/>
<path d="M3392 5140 c0 -14 2 -19 5 -12 2 6 2 18 0 25 -3 6 -5 1 -5 -13z"/>
<path d="M3410 5157 c0 -2 15 -14 33 -27 l32 -23 -24 26 c-21 23 -41 35 -41
24z"/>
<path d="M4457 5153 c-13 -13 -7 -21 13 -16 11 3 17 9 14 14 -6 11 -18 12 -27
2z"/>
<path d="M5985 5105 c9 -83 14 -95 35 -95 17 0 17 3 3 63 -9 34 -22 69 -30 77
-13 13 -14 7 -8 -45z"/>
<path d="M3784 5141 c4 -5 3 -17 0 -26 -5 -13 -15 -16 -40 -12 -42 7 -44 0 -4
-10 l31 -8 -21 -23 c-16 -17 -29 -22 -51 -18 -16 2 -27 0 -23 -5 3 -5 15 -9
27 -10 22 0 22 0 -1 -10 -15 -6 -31 -5 -44 2 -29 16 -34 3 -6 -15 14 -9 35
-15 49 -14 13 1 34 -2 47 -6 16 -5 22 -3 22 7 0 10 -7 13 -20 10 -11 -3 -20
-1 -20 5 0 17 28 34 47 28 37 -11 93 -15 93 -6 0 6 -8 11 -17 11 -10 1 -27 3
-38 4 -11 1 -28 3 -38 3 -17 2 -17 3 0 26 28 38 49 38 78 1 14 -19 25 -38 25
-43 0 -13 27 -23 45 -16 16 6 30 42 21 51 -3 4 -6 -1 -6 -9 0 -23 -24 -29 -47
-13 -18 13 -27 29 -48 90 -7 19 -7 19 -16 -2 -11 -29 -33 -31 -24 -3 5 14 2
20 -10 20 -9 0 -14 -4 -11 -9z"/>
<path d="M4507 5120 c-7 -29 -34 -35 -57 -15 -11 10 -20 14 -20 9 0 -16 23
-34 42 -34 19 0 58 33 58 50 0 18 -18 10 -23 -10z"/>
<path d="M5914 5108 c3 -13 6 -40 6 -60 0 -29 3 -36 15 -32 19 8 20 72 1 97
-18 24 -29 21 -22 -5z"/>
<path d="M4170 5081 c-13 -25 -13 -29 3 -28 6 0 25 -1 40 -1 39 -3 29 -26 -13
-32 -18 -3 -35 -11 -38 -18 -3 -11 0 -12 17 -3 11 6 32 9 46 5 22 -5 25 -3 25
20 0 19 5 26 18 26 23 0 32 8 26 25 -4 9 -15 10 -46 3 -45 -10 -73 -4 -63 12
3 5 4 10 1 10 -3 0 -10 -9 -16 -19z"/>
<path d="M3795 5070 c-3 -6 1 -7 9 -4 18 7 21 14 7 14 -6 0 -13 -4 -16 -10z"/>
<path d="M4652 5063 c-17 -7 -5 -23 19 -23 10 0 19 7 19 15 0 15 -14 18 -38 8z"/>
<path d="M3240 5044 c0 -11 6 -14 23 -9 38 12 43 25 9 25 -22 0 -32 -5 -32
-16z"/>
<path d="M4800 5051 c0 -5 9 -11 21 -14 13 -4 18 -10 14 -17 -6 -9 -10 -9 -16
1 -6 10 -9 8 -9 -8 0 -25 -16 -39 -23 -21 -3 7 -6 3 -6 -9 -1 -22 3 -23 75
-23 85 0 84 -3 19 68 -27 29 -75 45 -75 23z"/>
<path d="M3973 5036 c-25 -12 -31 -29 -10 -24 24 6 22 -14 -3 -31 -22 -15 -24
-15 -18 1 5 12 3 15 -8 11 -23 -9 3 -41 64 -82 l51 -34 -27 -24 c-15 -13 -23
-23 -18 -23 5 0 3 -6 -3 -14 -8 -10 -6 -19 10 -40 25 -32 39 -33 39 -3 0 12 9
37 20 55 18 29 24 32 71 32 61 0 89 13 89 42 0 17 -3 19 -12 10 -15 -15 -48
-16 -48 -1 0 7 -14 8 -41 4 -30 -5 -40 -4 -35 4 4 6 11 9 16 6 4 -3 10 2 14
10 6 17 -9 21 -19 5 -5 -8 -11 -7 -21 1 -10 8 -18 9 -27 0 -8 -6 -17 -8 -20
-4 -4 3 -7 1 -7 -5 0 -7 -4 -12 -10 -12 -21 0 -9 20 15 26 29 7 32 26 8 45
-13 11 -17 11 -20 2 -3 -7 -12 -13 -20 -13 -14 0 -14 2 0 18 23 25 21 31 -5
24 -21 -5 -22 -4 -9 11 15 19 15 19 -16 3z m77 -62 c0 -2 -13 -10 -30 -19 -20
-10 -30 -12 -30 -4 0 6 -7 9 -15 5 -14 -5 -21 5 -11 15 5 5 86 8 86 3z m30
-54 c0 -5 -7 -10 -16 -10 -8 0 -12 5 -9 10 3 6 10 10 16 10 5 0 9 -4 9 -10z"/>
<path d="M6070 5014 c7 -18 7 -23 -1 -18 -7 4 -9 0 -5 -13 12 -36 15 -103 5
-108 -5 -4 -9 1 -9 9 0 8 -5 38 -11 66 -8 39 -15 50 -30 50 -24 0 -24 -10 -4
-196 29 -278 22 -439 -35 -724 -15 -80 -31 -167 -35 -194 -4 -27 -9 -56 -12
-65 -4 -12 -1 -11 15 4 13 13 31 64 52 150 17 72 36 149 42 172 6 24 15 40 20
37 5 -4 8 -14 5 -24 -3 -12 3 -21 18 -28 27 -12 29 -7 45 148 14 140 14 149
-10 143 -22 -6 -26 -18 -9 -29 8 -5 8 -8 0 -14 -6 -3 -13 -20 -14 -37 -1 -16
-7 -30 -12 -30 -7 0 -11 87 -11 251 -1 138 -4 262 -7 276 -6 19 -5 20 2 5 19
-45 29 -85 20 -85 -8 0 -7 -10 8 -47 3 -10 7 -25 7 -33 1 -8 9 -16 19 -18 15
-3 17 5 17 65 0 103 -27 273 -47 295 -23 26 -34 22 -23 -8z m3 -739 c-7 -21
-13 -19 -13 6 0 11 4 18 10 14 5 -3 7 -12 3 -20z m27 -41 c0 -2 -9 -4 -20 -4
-11 0 -20 4 -20 9 0 5 9 7 20 4 11 -3 20 -7 20 -9z"/>
<path d="M3426 5023 c-11 -11 -6 -23 9 -23 8 0 15 4 15 9 0 13 -16 22 -24 14z"/>
<path d="M4531 5015 c0 -11 -8 -31 -17 -43 -9 -13 -14 -26 -11 -29 11 -10 38
46 34 69 -4 20 -4 20 -6 3z"/>
<path d="M1616 4965 c-10 -31 -31 -89 -47 -128 -15 -39 -27 -72 -26 -73 1 -1
18 16 37 38 28 35 36 55 47 122 16 101 13 115 -11 41z"/>
<path d="M3238 5003 c-6 -27 6 -81 15 -65 5 6 5 17 2 22 -3 6 6 15 22 22 l28
12 -25 4 c-14 2 -28 8 -31 14 -3 5 -8 1 -11 -9z"/>
<path d="M3466 4985 c-9 -13 -16 -27 -16 -31 0 -10 30 17 41 38 15 27 -6 22
-25 -7z"/>
<path d="M3866 4975 c-4 -19 -10 -35 -14 -36 -4 0 -19 -2 -34 -4 -16 -2 -28 1
-28 6 0 6 -9 7 -20 4 -15 -5 -20 -2 -20 11 0 13 -3 14 -15 4 -8 -7 -21 -10
-30 -7 -8 4 -17 2 -20 -2 -7 -12 20 -21 66 -21 21 0 39 -3 39 -7 0 -5 15 -8
34 -8 32 0 36 3 47 43 6 23 9 45 7 48 -3 3 -9 -11 -12 -31z"/>
<path d="M4428 4999 c-17 -11 16 -23 42 -16 10 3 21 0 24 -7 3 -6 5 -2 3 9 -2
14 -10 20 -30 20 -15 1 -33 -2 -39 -6z"/>
<path d="M4645 5000 c-3 -5 -4 -10 -1 -10 2 0 11 -3 19 -6 8 -3 17 2 20 10 7
18 -27 23 -38 6z"/>
<path d="M1940 4985 c0 -8 9 -15 20 -15 24 0 27 15 4 24 -22 9 -24 8 -24 -9z"/>
<path d="M2040 4990 c-13 -9 -13 -11 0 -20 18 -11 39 5 24 20 -6 6 -15 6 -24
0z"/>
<path d="M2096 4993 c-11 -11 -6 -23 9 -23 8 0 15 4 15 9 0 13 -16 22 -24 14z"/>
<path d="M2135 4990 c-3 -6 6 -15 21 -20 26 -10 43 -1 44 23 0 11 -58 9 -65
-3z"/>
<path d="M3390 4980 c0 -15 7 -20 25 -20 14 0 25 2 25 4 0 2 -11 11 -25 20
-24 16 -25 16 -25 -4z"/>
<path d="M3792 4991 c-10 -6 -4 -10 19 -15 20 -4 37 -2 43 5 8 8 5 9 -11 4
-14 -4 -23 -2 -23 4 0 13 -10 14 -28 2z"/>
<path d="M5763 4980 c1 -23 32 -27 40 -6 7 17 -1 26 -24 26 -12 0 -17 -7 -16
-20z"/>
<path d="M5833 4980 c1 -21 22 -26 47 -10 17 11 13 15 -22 24 -23 5 -27 3 -25
-14z"/>
<path d="M4210 4975 c-7 -9 -11 -18 -8 -20 9 -10 38 7 38 21 0 18 -14 18 -30
-1z"/>
<path d="M5936 4943 c2 -27 11 -84 19 -128 8 -44 19 -107 24 -140 15 -103 12
-3 -4 150 -8 77 -15 146 -15 153 0 6 -6 12 -14 12 -11 0 -14 -11 -10 -47z"/>
<path d="M1944 4952 c-6 -4 -14 -45 -17 -92 -13 -176 -17 -255 -12 -245 2 6
16 73 30 150 14 77 28 152 31 168 6 27 -8 36 -32 19z"/>
<path d="M2897 4930 c-14 -16 -33 -30 -41 -30 -9 0 -16 -4 -16 -10 0 -5 23
-10 50 -10 47 0 50 2 50 25 0 23 4 25 44 25 30 0 46 5 50 15 4 12 -5 15 -53
15 -53 0 -62 -3 -84 -30z"/>
<path d="M3278 4942 c-19 -4 -33 -32 -15 -32 18 0 40 16 36 27 -2 5 -11 7 -21
5z"/>
<path d="M4640 4941 c0 -11 26 -22 34 -14 12 12 5 23 -14 23 -11 0 -20 -4 -20
-9z"/>
<path d="M4446 4925 c-3 -8 -3 -15 0 -15 3 0 12 7 20 15 13 13 13 15 1 15 -8
0 -17 -7 -21 -15z"/>
<path d="M3458 4903 l-48 -4 0 -38 c0 -35 2 -38 25 -33 15 2 25 0 25 -7 0 -6
5 -11 10 -11 14 0 12 13 -4 35 -12 17 -16 17 -31 5 -15 -13 -17 -12 -13 10 2
20 9 24 42 25 22 0 41 6 44 13 2 6 2 11 0 10 -1 -1 -24 -3 -50 -5z"/>
<path d="M3698 4902 c-44 -5 -32 -20 22 -27 28 -4 50 -12 51 -18 0 -7 4 -3 9
8 12 29 12 41 -1 28 -11 -11 -37 -7 -49 6 -3 3 -17 5 -32 3z"/>
<path d="M4640 4890 c-8 -5 -19 -6 -25 -4 -5 3 -1 -2 9 -10 12 -10 24 -12 29
-7 15 15 4 32 -13 21z"/>
<path d="M3830 4883 c-42 -12 -44 -16 -16 -24 33 -9 39 -7 34 14 -1 8 -10 12
-18 10z"/>
<path d="M3266 4866 c3 -8 13 -12 25 -9 27 7 24 23 -6 23 -17 0 -23 -4 -19
-14z"/>
<path d="M3350 4869 c0 -5 5 -7 10 -4 6 3 10 8 10 11 0 2 -4 4 -10 4 -5 0 -10
-5 -10 -11z"/>
<path d="M4587 4874 c-5 -5 -39 -9 -75 -9 -62 0 -67 -2 -70 -22 -2 -16 2 -23
13 -23 12 0 15 6 10 21 -6 18 -4 20 17 14 33 -11 35 -15 14 -31 -18 -12 -18
-14 -3 -14 10 0 20 7 23 15 6 14 8 13 19 -1 7 -11 17 -14 25 -9 10 6 12 4 7
-8 -3 -10 -2 -17 3 -17 6 0 10 -4 10 -10 0 -19 -29 -10 -35 11 -5 15 -10 18
-18 10 -14 -14 -70 -14 -84 0 -6 6 -17 8 -24 4 -8 -6 -4 -12 14 -21 14 -8 28
-23 32 -34 3 -11 11 -20 17 -20 6 0 5 7 -3 16 -12 14 -11 16 6 13 22 -5 24
-20 2 -33 -11 -7 -23 -6 -40 3 -19 10 -29 11 -43 1 -16 -10 -17 -11 -1 -6 11
3 17 0 17 -10 0 -12 -9 -15 -41 -12 -29 2 -43 -1 -47 -11 -3 -10 3 -13 26 -9
20 3 33 0 36 -9 4 -10 -6 -13 -39 -13 -45 0 -45 0 -45 34 0 19 6 37 13 40 6 3
-6 3 -28 1 -26 -2 -46 2 -57 13 -10 8 -18 13 -19 11 0 -2 -2 -12 -4 -22 -2 -9
1 -15 5 -12 14 9 23 -16 11 -28 -8 -8 -11 -7 -11 3 0 11 -3 11 -12 2 -8 -8 -8
-15 1 -26 8 -10 9 -16 1 -21 -5 -3 -10 -1 -10 6 0 7 -3 10 -6 6 -3 -3 1 -26 9
-51 9 -26 12 -46 7 -46 -4 0 -13 22 -20 48 -6 26 -22 61 -36 77 l-24 30 19
-50 c10 -27 21 -66 25 -85 4 -26 1 -22 -13 18 -27 71 -70 150 -88 156 -10 4
-11 1 -4 -13 6 -10 7 -22 3 -26 -4 -5 -1 -5 6 -1 18 10 38 -44 20 -56 -21 -13
-31 -9 -18 7 11 13 10 14 -4 9 -11 -4 -22 1 -32 15 -9 12 -20 18 -26 15 -6 -4
-8 -2 -4 4 3 6 1 14 -5 18 -6 3 -15 1 -19 -6 -6 -9 -20 -5 -56 16 -55 31 -53
27 26 -37 75 -62 94 -71 135 -63 23 4 35 2 35 -5 0 -17 -47 -24 -82 -12 -34
12 -138 80 -138 90 0 9 -63 36 -77 33 -14 -3 -18 20 -6 31 3 4 8 19 9 34 2 17
0 23 -5 15 -4 -7 -12 -12 -17 -11 -19 3 -34 -1 -34 -11 0 -5 6 -10 14 -10 24
0 25 -14 3 -40 -12 -16 -18 -18 -14 -7 7 20 3 21 -25 6 -18 -9 -19 -8 -13 10
5 15 2 21 -10 21 -10 0 -13 -5 -9 -12 5 -7 2 -9 -9 -5 -11 4 -14 2 -11 -7 6
-14 90 -42 112 -38 7 2 47 -19 87 -47 106 -72 129 -82 190 -82 52 -1 72 -13
41 -25 -25 -10 -124 15 -166 41 -22 14 -40 23 -40 21 0 -3 -12 6 -26 19 -15
14 -33 25 -40 25 -8 0 -14 5 -14 11 0 5 -4 7 -10 4 -5 -3 -10 -2 -10 3 0 5
-12 12 -27 16 -16 3 -62 13 -105 23 -67 15 -80 15 -105 3 l-28 -14 55 -6 c45
-4 54 -8 52 -22 -3 -18 18 -25 32 -11 4 4 21 8 38 9 23 1 32 -3 36 -18 2 -11
10 -17 18 -14 7 3 16 1 19 -4 4 -6 0 -10 -7 -10 -10 0 -10 -2 1 -9 8 -5 20 -7
26 -5 7 3 15 -2 18 -10 8 -20 4 -20 -43 3 -29 14 -40 16 -40 7 0 -7 10 -18 23
-24 22 -10 22 -11 -5 -11 -16 -1 -28 4 -28 9 0 13 -148 11 -156 -1 -3 -5 -20
-8 -37 -8 -18 1 -24 3 -14 6 9 2 17 13 17 24 0 11 7 19 18 20 10 0 12 3 4 6
-6 2 -10 9 -7 13 3 5 1 12 -5 15 -6 4 -9 3 -8 -2 3 -13 -13 -53 -22 -53 -5 0
-10 6 -12 12 -3 9 -9 8 -22 -5 -19 -19 -36 -22 -36 -7 0 6 7 10 17 10 9 0 14
3 10 6 -3 3 -23 0 -44 -7 -21 -8 -45 -14 -53 -14 -8 0 -14 -3 -12 -8 1 -4 2
-12 2 -19 0 -6 9 -3 20 7 15 14 23 15 33 6 8 -6 16 -8 19 -5 3 2 8 -2 11 -11
5 -11 -1 -15 -21 -16 -15 -1 -31 -1 -37 0 -5 1 -2 -6 7 -15 14 -14 20 -16 30
-6 17 17 38 15 38 -3 0 -8 -7 -15 -15 -15 -8 0 -15 -7 -15 -15 0 -17 26 -21
32 -5 2 6 13 12 26 15 28 5 30 -21 2 -30 -24 -8 -26 -21 -5 -29 10 -4 19 3 27
19 9 20 13 22 24 10 19 -18 18 -31 -3 -39 -12 -5 -13 -10 -5 -18 14 -14 43 7
36 26 -3 8 3 15 13 18 15 4 18 -2 19 -29 1 -27 -2 -33 -20 -33 -20 -1 -19 -2
4 -15 22 -12 25 -12 28 1 4 15 52 20 52 5 0 -5 -10 -13 -22 -17 -22 -7 -22 -7
-3 -14 13 -5 23 -2 28 6 10 17 47 19 47 3 0 -6 -9 -13 -21 -16 -16 -4 -17 -8
-7 -14 20 -13 38 -11 38 6 0 17 35 21 45 5 3 -6 -1 -13 -10 -16 -13 -6 -14 -8
-3 -15 20 -13 25 -11 31 11 3 11 13 20 22 20 13 0 16 -6 11 -25 -6 -24 -4 -25
38 -25 35 0 45 4 49 20 3 12 14 20 26 20 25 0 28 -27 4 -33 -11 -3 -8 -5 9 -6
20 -1 26 3 22 13 -3 9 3 17 16 21 30 9 39 -4 16 -21 -19 -13 -19 -14 7 -14 22
0 26 4 24 22 -1 17 4 24 21 26 15 2 22 -2 22 -12 0 -9 -7 -16 -15 -16 -8 0
-15 -4 -15 -9 0 -4 28 -2 63 6 66 15 97 33 58 33 -29 0 -23 24 7 28 15 2 22
-2 22 -13 0 -12 6 -15 23 -9 12 3 29 12 37 19 8 7 22 15 30 18 11 4 11 6 -3 6
-10 1 -17 7 -15 14 6 17 39 21 49 6 6 -11 11 -11 21 -1 9 9 9 12 -5 12 -19 0
-21 8 -7 30 7 12 13 13 28 3 17 -10 18 -9 14 13 -3 19 0 24 15 24 10 0 24 -5
30 -11 8 -8 13 -8 17 0 4 6 0 11 -8 11 -20 0 -20 14 -1 30 12 10 18 10 30 0
12 -10 15 -9 15 4 0 10 -5 14 -11 10 -7 -4 -9 1 -7 12 3 14 12 18 33 17 28 -2
29 -1 11 12 -18 13 -18 16 -2 40 9 14 14 30 11 35 -7 11 5 13 43 10 14 -1 22
4 22 14 0 9 -6 15 -12 14 -7 -2 -13 4 -13 12 0 10 9 14 28 13 18 -1 27 3 27
13 0 8 -9 14 -21 14 -14 0 -19 5 -16 14 3 7 -1 23 -9 34 -8 11 -10 23 -5 26 5
3 12 -5 15 -19 7 -29 37 -33 57 -9 11 13 9 14 -12 9 -20 -5 -26 -1 -34 20 -6
15 -14 23 -18 19z m-112 -174 c-3 -5 -12 -10 -18 -10 -7 0 -6 4 3 10 19 12 23
12 15 0z m-28 -36 c-3 -3 -12 -4 -19 -1 -8 3 -5 6 6 6 11 1 17 -2 13 -5z
m-697 -74 c0 -5 -25 -10 -55 -10 -30 0 -55 5 -55 10 0 6 25 10 55 10 30 0 55
-4 55 -10z m-200 -14 c0 -2 -8 -10 -17 -17 -16 -13 -17 -12 -4 4 13 16 21 21
21 13z m258 -10 c9 12 50 10 64 -4 7 -7 3 -12 -11 -17 -15 -4 -21 -15 -21 -35
0 -25 -4 -28 -46 -35 -25 -3 -48 -4 -51 -1 -12 12 11 26 41 26 25 0 35 5 39
20 4 17 0 20 -29 20 -37 0 -37 0 -28 24 5 13 9 14 21 4 9 -7 17 -8 21 -2z
m-117 -6 c16 0 29 -4 29 -10 0 -5 -13 -7 -30 -3 -23 4 -34 1 -45 -13 -12 -17
-13 -17 -12 9 1 18 6 26 15 22 8 -3 27 -5 43 -5z m55 -37 c-1 -14 -7 -28 -13
-31 -14 -4 -17 16 -7 42 10 25 21 19 20 -11z m199 7 c-16 -17 -16 -21 -2 -35
21 -21 22 -20 42 21 19 40 22 40 29 1 2 -14 8 -32 12 -39 4 -7 -2 -5 -13 5
-19 17 -20 16 -32 -9 -13 -29 -31 -28 -46 4 -12 26 -24 28 -40 5 -10 -14 -11
-11 -8 14 5 28 18 38 72 52 2 1 -4 -8 -14 -19z m109 -32 c-9 -59 -14 -60 -14
-5 0 26 5 47 10 47 6 0 8 -16 4 -42z m96 7 c-11 -13 -6 -15 34 -15 25 0 46 -4
46 -10 0 -5 -25 -10 -56 -10 -53 0 -55 1 -48 23 9 31 27 52 32 38 2 -7 -2 -18
-8 -26z m138 -87 c-5 -15 -48 -24 -48 -10 0 14 12 22 33 22 10 0 17 -5 15 -12z
m-120 -40 c-3 -7 -11 -13 -18 -13 -7 0 -15 6 -17 13 -3 7 4 12 17 12 13 0 20
-5 18 -12z m-240 -20 c-5 -16 -48 -24 -48 -10 0 11 17 20 38 21 8 1 12 -5 10
-11z"/>
<path d="M3381 4838 c-1 -16 4 -28 9 -28 12 0 12 8 0 35 -8 18 -9 17 -9 -7z"/>
<path d="M3491 4830 l-1 -35 -56 2 c-51 1 -55 0 -51 -18 3 -10 1 -19 -5 -19
-5 0 -6 -4 -3 -10 9 -14 25 -12 23 2 -2 9 12 13 49 12 58 -1 67 10 53 68 l-8
33 -1 -35z"/>
<path d="M3691 4837 c-7 -10 0 -15 33 -23 39 -9 42 -8 44 11 1 15 -1 16 -8 6
-7 -12 -12 -12 -33 2 -20 13 -27 14 -36 4z"/>
<path d="M3321 4833 c-1 -6 -10 -13 -21 -15 -13 -2 -17 -7 -12 -15 11 -18 47
8 39 28 -3 8 -6 9 -6 2z"/>
<path d="M6275 4530 c0 -148 2 -266 5 -264 3 3 51 67 106 142 l102 136 -100
123 c-55 68 -103 125 -106 127 -4 2 -7 -117 -7 -264z"/>
<path d="M3610 4779 c0 -5 9 -9 20 -9 11 0 20 2 20 4 0 2 -9 6 -20 9 -11 3
-20 1 -20 -4z"/>
<path d="M3670 4775 c-10 -12 -10 -15 4 -15 9 0 16 7 16 15 0 8 -2 15 -4 15
-2 0 -9 -7 -16 -15z"/>
<path d="M1540 4703 c-36 -42 -84 -99 -108 -127 -23 -27 -41 -53 -40 -57 7
-17 220 -290 224 -286 2 2 -1 71 -7 153 -6 82 -9 204 -6 272 3 67 5 122 4 122
-2 0 -32 -34 -67 -77z"/>
<path d="M3312 4773 c-10 -4 -10 -8 -1 -19 8 -10 16 -11 31 -3 17 9 18 13 7
20 -15 10 -18 10 -37 2z"/>
<path d="M4310 4769 c0 -5 5 -7 10 -4 6 3 10 8 10 11 0 2 -4 4 -10 4 -5 0 -10
-5 -10 -11z"/>
<path d="M3464 4744 c5 -13 1 -15 -18 -10 -30 7 -118 -14 -113 -28 4 -13 97
-18 97 -5 0 5 11 13 23 18 23 9 34 41 14 41 -5 0 -6 -7 -3 -16z"/>
<path d="M4690 4736 c-15 -39 -12 -46 6 -13 9 16 13 31 10 34 -3 3 -10 -6 -16
-21z"/>
<path d="M3513 4723 c-16 -16 -18 -23 -8 -23 8 0 19 9 25 21 16 29 9 29 -17 2z"/>
<path d="M4176 4697 c3 -10 9 -15 12 -12 3 3 0 11 -7 18 -10 9 -11 8 -5 -6z"/>
<path d="M3454 4688 c-10 -15 16 -28 59 -28 25 0 40 5 44 15 7 21 -6 33 -17
15 -7 -11 -16 -12 -44 -3 -24 8 -38 8 -42 1z"/>
<path d="M3610 4689 c0 -5 5 -7 10 -4 13 8 13 -7 0 -23 -5 -7 -3 -6 6 2 9 8
13 19 10 25 -9 14 -26 14 -26 0z"/>
<path d="M4665 4679 c-4 -6 -5 -12 -2 -15 2 -3 7 2 10 11 7 17 1 20 -8 4z"/>
<path d="M3376 4671 c-24 -5 -27 -8 -15 -18 9 -7 20 -8 28 -3 8 4 21 6 30 3
10 -3 12 -1 6 4 -5 4 -12 11 -15 14 -3 3 -18 3 -34 0z"/>
<path d="M3697 4673 c-3 -3 -3 -11 0 -18 5 -14 33 -9 33 5 0 10 -26 20 -33 13z"/>
<path d="M4552 4659 c2 -6 8 -10 13 -10 5 0 11 4 13 10 2 6 -4 11 -13 11 -9 0
-15 -5 -13 -11z"/>
<path d="M4630 4630 c-6 -11 -7 -20 -2 -20 10 0 32 21 32 32 0 16 -19 8 -30
-12z"/>
<path d="M4605 4590 c-3 -5 -1 -10 4 -10 6 0 11 5 11 10 0 6 -2 10 -4 10 -3 0
-8 -4 -11 -10z"/>
<path d="M4535 4515 c-28 -24 -58 -51 -67 -60 -21 -17 -24 -39 -5 -32 6 2 11
10 10 16 -2 6 5 11 16 11 17 0 101 84 101 102 0 13 -3 11 -55 -37z"/>
<path d="M3240 4540 l-35 -7 38 -2 c20 0 37 4 37 9 0 6 -1 9 -2 9 -2 -1 -19
-5 -38 -9z"/>
<path d="M5947 4543 c-2 -5 0 -21 4 -38 7 -29 7 -29 8 8 1 35 -3 46 -12 30z"/>
<path d="M4680 4510 c0 -5 25 -10 55 -10 30 0 55 5 55 10 0 6 -25 10 -55 10
-30 0 -55 -4 -55 -10z"/>
<path d="M1911 4399 c-1 -53 5 -103 14 -129 8 -23 15 -60 15 -80 0 -71 138
-507 184 -581 70 -114 114 -180 149 -221 33 -40 44 -47 81 -50 l43 -3 -25 32
c-13 18 -29 30 -34 27 -5 -3 -8 0 -6 7 3 15 -56 105 -133 205 -45 58 -52 77
-132 345 -47 156 -101 340 -121 409 l-34 125 -1 -86z m399 -999 c0 -5 -5 -10
-11 -10 -5 0 -7 5 -4 10 3 6 8 10 11 10 2 0 4 -4 4 -10z"/>
<path d="M5979 4433 c-6 -16 -8 -45 -6 -66 3 -21 1 -35 -4 -31 -12 7 -31 -46
-26 -74 2 -12 0 -25 -5 -28 -10 -6 -21 -33 -32 -77 -6 -26 -5 -28 21 -25 25 3
29 9 40 58 7 30 15 96 18 145 4 50 9 98 11 108 8 28 -5 20 -17 -10z"/>
<path d="M6120 4449 c0 -5 5 -7 10 -4 6 3 10 8 10 11 0 2 -4 4 -10 4 -5 0 -10
-5 -10 -11z"/>
<path d="M6350 4300 c-94 -128 -94 -128 -107 -212 -6 -45 -23 -125 -37 -177
-14 -51 -22 -91 -19 -87 8 7 264 599 260 602 -1 1 -45 -56 -97 -126z"/>
<path d="M4400 4411 c0 -11 26 -22 34 -14 3 3 3 10 0 14 -7 12 -34 11 -34 0z"/>
<path d="M4346 4375 c-7 -19 10 -28 31 -17 15 9 14 11 -4 21 -17 8 -22 8 -27
-4z"/>
<path d="M4280 4349 c-13 -9 -12 -10 3 -5 9 3 17 2 17 -2 0 -12 -40 -33 -50
-27 -5 3 -18 2 -28 -4 -10 -6 -24 -6 -32 -1 -9 5 -20 4 -28 -2 -10 -9 -10 -13
-1 -19 7 -4 1 -6 -14 -6 -15 1 -27 5 -27 8 0 8 -82 -5 -99 -16 -10 -5 -12 -4
-7 3 9 15 -36 12 -46 -3 -5 -6 -11 -5 -17 4 -7 11 -9 11 -14 0 -5 -12 -7 -12
-15 0 -7 9 -15 10 -28 3 -21 -11 -77 -5 -69 8 3 4 -4 10 -15 13 -11 3 -20 1
-20 -5 0 -5 -6 -8 -12 -5 -7 2 -12 10 -10 16 1 6 -4 11 -12 11 -8 0 -22 3 -32
7 -12 4 -15 3 -10 -5 4 -7 2 -12 -3 -12 -6 0 -11 5 -11 10 0 6 -7 10 -16 10
-28 0 -9 -23 32 -37 114 -41 360 -57 338 -22 -3 5 5 9 18 9 18 0 20 -2 8 -10
-45 -29 131 9 216 47 33 15 39 21 28 31 -16 15 -25 15 -44 1z"/>
<path d="M3490 4305 c-7 -8 -21 -15 -31 -15 -17 0 -19 -9 -19 -114 0 -109 1
-114 22 -119 12 -4 35 0 50 8 16 7 26 10 23 5 -2 -4 6 -10 20 -12 14 -3 25 -2
25 2 0 4 11 5 25 2 26 -5 59 14 49 29 -3 5 0 9 5 9 6 0 11 -6 11 -12 0 -8 7
-5 15 6 9 12 15 15 15 7 0 -10 6 -9 24 3 14 9 32 13 40 10 9 -3 16 -1 16 5 0
6 -12 11 -27 11 -23 0 -25 13 -2 16 22 3 23 5 12 12 -7 5 -14 20 -15 35 -1 15
-6 27 -11 27 -5 0 -5 9 -2 20 7 22 -5 26 -23 8 -9 -9 -12 -8 -12 6 0 12 -5 16
-16 12 -9 -3 -18 -6 -21 -6 -4 0 2 -9 12 -20 18 -20 18 -20 -9 -18 -15 1 -32
8 -38 15 -12 15 -52 18 -43 3 3 -5 4 -10 1 -10 -3 0 -12 13 -21 29 -16 32 -42
61 -54 61 -5 0 -14 -7 -21 -15z m130 -130 c0 -8 -4 -15 -10 -15 -5 0 -10 7
-10 15 0 8 5 15 10 15 6 0 10 -7 10 -15z m120 -9 c0 -2 -7 -7 -16 -10 -8 -3
-12 -2 -9 4 6 10 25 14 25 6z m-180 -25 c0 -5 -7 -11 -15 -15 -9 -3 -15 0 -15
9 0 8 7 15 15 15 8 0 15 -4 15 -9z"/>
<path d="M3248 4303 c12 -2 32 -2 45 0 12 2 2 4 -23 4 -25 0 -35 -2 -22 -4z"/>
<path d="M4490 4300 c0 -5 5 -10 11 -10 5 0 7 5 4 10 -3 6 -8 10 -11 10 -2 0
-4 -4 -4 -10z"/>
<path d="M4600 4300 c0 -5 18 -10 40 -10 22 0 40 5 40 10 0 6 -18 10 -40 10
-22 0 -40 -4 -40 -10z"/>
<path d="M3630 4256 c0 -9 5 -16 10 -16 6 0 10 4 10 9 0 6 -4 13 -10 16 -5 3
-10 -1 -10 -9z"/>
<path d="M3763 4228 c-2 -18 0 -20 7 -8 12 18 13 30 2 30 -4 0 -9 -10 -9 -22z"/>
<path d="M5193 4111 c-74 -9 -93 -36 -91 -129 2 -39 5 -69 9 -66 4 2 9 -6 12
-17 3 -12 10 -18 17 -14 8 5 6 13 -6 26 -19 21 -14 87 8 101 30 19 68 8 88
-24 10 -17 16 -36 13 -41 -4 -6 -1 -7 7 -2 7 4 26 8 41 7 27 -1 29 2 31 36 l1
37 4 -32 c3 -26 9 -33 27 -33 12 0 27 5 34 12 8 8 15 8 27 -2 11 -9 13 -16 5
-24 -12 -12 -14 -39 -1 -32 5 3 20 -3 33 -14 19 -15 28 -16 37 -7 8 8 14 8 19
2 13 -18 32 -15 32 5 0 11 -4 20 -10 20 -5 0 -10 5 -10 11 0 5 5 7 10 4 6 -4
10 13 10 44 0 55 -7 81 -22 81 -6 0 -8 -7 -5 -15 4 -8 2 -17 -3 -20 -5 -3 -10
5 -12 17 -4 28 -39 36 -115 28 -29 -3 -53 -4 -53 -1 1 19 23 26 84 26 47 0 71
4 73 13 4 9 -24 12 -119 10 -67 -1 -146 -4 -175 -7z m80 -86 c-3 -9 -8 -14
-10 -11 -3 3 -2 9 2 15 9 16 15 13 8 -4z m227 -22 c0 -5 -5 -15 -10 -23 -8
-12 -10 -11 -10 8 0 12 5 22 10 22 6 0 10 -3 10 -7z"/>
<path d="M5895 4108 c-17 -47 -33 -113 -29 -120 3 -4 1 -8 -4 -8 -5 0 -12 -10
-15 -22 -4 -20 -23 -90 -43 -163 -4 -16 -3 -17 5 -5 8 11 11 5 11 -28 0 -27
-4 -41 -10 -37 -6 4 -8 15 -5 26 4 10 2 19 -3 19 -5 0 -16 -23 -26 -51 -9 -29
-39 -82 -66 -119 -28 -37 -50 -77 -50 -88 0 -12 -9 -23 -20 -27 -11 -3 -20
-13 -20 -21 0 -8 -4 -13 -9 -10 -5 3 -14 -7 -21 -24 -7 -16 -23 -36 -37 -45
-14 -10 -22 -22 -19 -31 3 -8 -1 -14 -9 -14 -7 0 -35 -28 -61 -61 -37 -48 -48
-72 -52 -108 l-4 -46 22 20 c12 11 53 61 91 110 37 50 73 95 79 102 14 16 13
30 -2 36 -9 4 -10 8 -2 14 6 4 14 15 17 23 4 12 6 11 6 -2 1 -10 4 -18 9 -18
18 1 56 55 61 88 5 28 11 38 28 40 30 4 81 67 94 116 11 41 92 288 104 319 6
13 2 17 -16 18 l-24 1 24 7 c19 5 28 18 38 56 7 28 13 53 13 58 0 12 -50 8
-55 -5z m-42 -253 c-7 -21 -13 -19 -13 6 0 11 4 18 10 14 5 -3 7 -12 3 -20z"/>
<path d="M5795 4085 c-22 -8 -41 -15 -42 -15 -11 0 0 -20 10 -20 8 0 13 -9 12
-22 -3 -34 4 -47 26 -45 13 1 24 17 37 59 21 64 19 65 -43 43z"/>
<path d="M1921 4011 c-1 -42 8 -112 20 -162 18 -78 28 -98 75 -159 31 -39 57
-70 59 -70 3 0 -1 12 -7 28 -6 15 -41 119 -79 232 l-68 205 0 -74z"/>
<path d="M2575 4061 c30 -11 52 -14 56 -8 4 5 9 5 13 -2 11 -17 22 -13 23 9 2
18 -4 20 -70 19 l-72 -1 50 -17z"/>
<path d="M2680 4072 c0 -9 47 -8 57 1 3 4 -8 7 -25 7 -18 0 -32 -4 -32 -8z"/>
<path d="M2780 4070 c0 -5 7 -7 15 -4 8 4 15 8 15 10 0 2 -7 4 -15 4 -8 0 -15
-4 -15 -10z"/>
<path d="M2835 4061 c-3 -8 -3 -16 0 -19 3 -3 5 -1 5 5 0 6 14 13 30 15 27 4
35 -2 31 -24 0 -5 4 -8 9 -8 6 0 10 11 10 25 0 22 -3 24 -40 22 -23 -1 -42 -8
-45 -16z"/>
<path d="M2623 4023 c9 -2 25 -2 35 0 9 3 1 5 -18 5 -19 0 -27 -2 -17 -5z"/>
<path d="M2723 4023 c15 -2 37 -2 50 0 12 2 0 4 -28 4 -27 0 -38 -2 -22 -4z"/>
<path d="M5057 4015 c-12 -30 -7 -96 7 -110 12 -12 15 -8 18 30 4 50 -15 109
-25 80z"/>
<path d="M1811 4000 c0 -8 4 -22 9 -30 12 -18 12 -2 0 25 -6 13 -9 15 -9 5z"/>
<path d="M4003 3955 c0 -22 2 -30 4 -17 2 12 2 30 0 40 -3 9 -5 -1 -4 -23z"/>
<path d="M2390 3965 c0 -8 2 -15 4 -15 2 0 6 7 10 15 3 8 1 15 -4 15 -6 0 -10
-7 -10 -15z"/>
<path d="M5777 3958 c-21 -8 -26 -14 -22 -29 4 -10 7 -33 7 -50 1 -20 4 -26 9
-17 5 7 9 19 9 27 0 8 7 22 16 32 25 28 15 48 -19 37z"/>
<path d="M2291 3944 c0 -11 3 -14 6 -6 3 7 2 16 -1 19 -3 4 -6 -2 -5 -13z"/>
<path d="M2547 3953 c-11 -10 -8 -63 3 -63 6 0 10 16 10 35 0 36 -2 40 -13 28z"/>
<path d="M4062 3930 c0 -19 2 -27 5 -17 2 9 2 25 0 35 -3 9 -5 1 -5 -18z"/>
<path d="M1720 3941 c0 -6 5 -13 10 -16 6 -3 10 1 10 9 0 9 -4 16 -10 16 -5 0
-10 -4 -10 -9z"/>
<path d="M1759 3930 c-1 -14 -1 -31 0 -38 2 -9 -6 -12 -20 -10 -12 2 -23 -3
-25 -10 -1 -7 0 -8 3 -2 5 11 40 -29 36 -41 -4 -11 34 -17 48 -8 11 7 10 9 -3
9 -22 0 -29 13 -16 30 8 12 9 12 4 -3 -4 -12 -1 -17 9 -15 7 2 21 -6 29 -17
15 -19 15 -19 9 5 -10 37 -43 90 -43 67 0 -10 -5 -15 -10 -12 -6 4 -8 14 -6
23 3 10 1 24 -4 32 -8 12 -10 10 -11 -10z"/>
<path d="M1690 3930 c0 -5 5 -10 11 -10 5 0 7 5 4 10 -3 6 -8 10 -11 10 -2 0
-4 -4 -4 -10z"/>
<path d="M4123 3905 c0 -22 2 -30 4 -17 2 12 2 30 0 40 -3 9 -5 -1 -4 -23z"/>
<path d="M2628 3923 c-10 -3 -18 -13 -18 -24 0 -17 8 -19 70 -19 69 0 83 7 56
29 -15 12 -80 20 -108 14z"/>
<path d="M2293 3830 c0 -30 2 -43 4 -27 2 15 2 39 0 55 -2 15 -4 2 -4 -28z"/>
<path d="M3010 3854 c0 -10 6 -14 15 -10 8 3 15 1 15 -4 0 -6 5 -10 11 -10 5
0 7 6 3 13 -6 9 -5 9 8 0 17 -15 29 -7 21 13 -8 21 -73 19 -73 -2z"/>
<path d="M2670 3841 c0 -5 9 -7 20 -4 11 3 20 7 20 9 0 2 -9 4 -20 4 -11 0
-20 -4 -20 -9z"/>
<path d="M6013 3830 c-3 -11 -9 -20 -14 -20 -5 0 -9 -7 -9 -15 0 -8 -5 -15
-11 -15 -6 0 -8 -9 -4 -20 6 -18 -2 -24 -26 -22 -3 1 -5 -17 -5 -39 1 -21 -2
-39 -5 -39 -10 0 -47 -94 -54 -135 -3 -21 -9 -42 -14 -45 -5 -3 -12 -21 -15
-40 l-7 -35 26 45 c62 104 145 295 160 368 7 36 -13 47 -22 12z"/>
<path d="M2664 3811 c8 -12 46 -21 46 -10 0 5 12 4 26 -1 32 -12 144 -13 144
-1 0 5 -7 12 -16 15 -26 10 -54 7 -54 -6 0 -9 -3 -9 -12 0 -14 14 -142 17
-134 3z"/>
<path d="M3013 3812 c-6 -4 -13 -40 -16 -82 -4 -80 -1 -100 14 -100 6 0 7 4 4
10 -3 5 -2 17 3 26 7 13 11 7 16 -25 6 -41 22 -54 32 -26 9 23 34 18 34 -8 0
-15 6 -23 20 -24 11 -1 22 2 25 8 4 5 15 9 26 9 16 0 19 7 20 43 0 23 2 56 5
74 2 18 -1 35 -6 38 -7 4 -7 13 0 25 9 16 5 19 -31 25 -48 8 -58 -1 -60 -55 0
-19 -3 -29 -6 -22 -2 6 -10 9 -16 6 -8 -5 -8 -2 1 7 6 7 12 27 12 44 0 29 -3
32 -33 33 -17 1 -37 -2 -44 -6z"/>
<path d="M4052 3768 c2 -32 8 -44 21 -46 16 -3 18 2 15 40 -2 32 -8 44 -21 46
-16 3 -18 -2 -15 -40z"/>
<path d="M1805 3790 c-19 -8 -19 -9 3 -9 12 -1 22 4 22 9 0 6 -1 10 -2 9 -2 0
-12 -4 -23 -9z"/>
<path d="M5404 3775 c-3 -14 -4 -41 -2 -60 4 -31 1 -35 -19 -35 -13 0 -26 6
-29 13 -4 11 -19 11 -88 1 -45 -6 -100 -9 -122 -5 -84 13 -89 11 -87 -38 1
-24 4 -45 6 -47 2 -2 96 -1 210 3 163 5 207 9 207 20 0 7 -7 13 -15 13 -19 0
-20 29 -1 44 9 7 12 24 9 49 -4 29 -12 41 -34 52 -27 15 -29 14 -35 -10z
m-194 -145 c0 -5 -5 -10 -11 -10 -5 0 -7 5 -4 10 3 6 8 10 11 10 2 0 4 -4 4
-10z"/>
<path d="M2760 3755 c-11 -13 -8 -15 16 -15 16 0 25 4 19 8 -5 4 -13 11 -16
15 -3 4 -12 1 -19 -8z"/>
<path d="M2823 3743 c9 -2 25 -2 35 0 9 3 1 5 -18 5 -19 0 -27 -2 -17 -5z"/>
<path d="M5490 3710 c0 -37 22 -40 38 -5 16 35 16 35 -13 35 -21 0 -25 -5 -25
-30z"/>
<path d="M2778 3723 c7 -3 16 -2 19 1 4 3 -2 6 -13 5 -11 0 -14 -3 -6 -6z"/>
<path d="M1860 3646 c0 -9 30 -14 35 -6 4 6 -3 10 -14 10 -12 0 -21 -2 -21 -4z"/>
<path d="M1822 3628 c6 -18 28 -21 28 -4 0 9 -7 16 -16 16 -9 0 -14 -5 -12
-12z"/>
<path d="M2750 3629 c0 -5 5 -7 10 -4 6 3 10 8 10 11 0 2 -4 4 -10 4 -5 0 -10
-5 -10 -11z"/>
<path d="M4060 3605 c0 -25 4 -35 13 -33 18 7 20 43 2 58 -13 11 -15 8 -15
-25z"/>
<path d="M2010 3626 c0 -10 75 -148 102 -188 23 -33 22 -34 -2 -41 -11 -3 -20
-1 -20 4 0 5 -7 9 -15 9 -85 0 209 -357 492 -598 40 -34 114 -89 165 -123 75
-51 101 -63 136 -64 37 -2 43 0 39 15 -3 13 0 16 14 13 11 -3 22 -10 26 -16 3
-6 1 -7 -5 -3 -7 4 -12 2 -12 -4 0 -7 7 -9 16 -6 8 3 30 -1 47 -10 l32 -17
-25 28 c-21 23 -145 121 -344 273 -27 20 -52 42 -57 47 -73 89 -81 96 -95 78
-11 -16 -12 -15 -8 12 4 27 -5 42 -67 115 -63 75 -76 85 -103 83 -20 -1 -35 5
-44 19 -21 29 -36 1 -17 -29 18 -26 19 -33 5 -33 -5 0 -10 6 -10 14 0 7 -7 19
-15 26 -17 14 -21 35 -5 25 6 -3 10 1 10 9 0 9 8 16 19 16 47 0 35 19 -114
187 -38 43 -87 99 -107 123 -20 25 -37 41 -38 36z m135 -246 c3 -6 -1 -7 -9
-4 -18 7 -21 14 -7 14 6 0 13 -4 16 -10z m160 -210 c3 -5 1 -10 -4 -10 -6 0
-11 5 -11 10 0 6 2 10 4 10 3 0 8 -4 11 -10z m35 -34 c0 -3 -4 -8 -10 -11 -5
-3 -10 -1 -10 4 0 6 5 11 10 11 6 0 10 -2 10 -4z m177 -186 c22 -27 22 -28 3
-23 -12 3 -18 8 -15 11 2 3 0 11 -6 19 -9 9 -15 10 -25 3 -9 -9 -12 -7 -9 7 2
10 4 19 4 20 3 8 29 -13 48 -37z m-30 -16 c-3 -3 -12 -4 -19 -1 -8 3 -5 6 6 6
11 1 17 -2 13 -5z"/>
<path d="M5788 3544 c-34 -48 -87 -115 -116 -150 -42 -50 -53 -71 -55 -103 -2
-42 -23 -63 -39 -39 -5 9 -10 10 -15 2 -5 -6 -56 -71 -115 -145 -77 -97 -134
-157 -209 -219 -175 -145 -274 -231 -274 -238 0 -4 -4 -12 -8 -19 -4 -6 -3
-14 3 -18 6 -4 7 -11 4 -17 -4 -6 -9 -5 -15 3 -4 7 -11 10 -16 6 -15 -15 20
-25 56 -15 116 32 272 148 505 377 169 166 273 293 291 356 22 81 28 128 15
120 -6 -4 -1 13 11 36 19 38 52 149 44 149 -2 0 -32 -39 -67 -86z m-2 -134 c0
-20 -7 -25 -19 -13 -4 3 -2 12 4 20 15 17 15 17 15 -7z m-145 -183 l-24 -22
19 27 c10 14 21 24 23 22 3 -3 -6 -15 -18 -27z m-31 -41 c0 -2 -8 -10 -17 -17
-16 -13 -17 -12 -4 4 13 16 21 21 21 13z"/>
<path d="M1900 3610 c0 -5 5 -10 10 -10 6 0 10 5 10 10 0 6 -4 10 -10 10 -5 0
-10 -4 -10 -10z"/>
<path d="M4214 3609 c-3 -6 -1 -16 5 -22 8 -8 11 -5 11 11 0 24 -5 28 -16 11z"/>
<path d="M4272 3590 c0 -14 2 -19 5 -12 2 6 2 18 0 25 -3 6 -5 1 -5 -13z"/>
<path d="M3001 3584 c0 -11 3 -14 6 -6 3 7 2 16 -1 19 -3 4 -6 -2 -5 -13z"/>
<path d="M4320 3575 c0 -8 4 -15 10 -15 5 0 7 7 4 15 -4 8 -8 15 -10 15 -2 0
-4 -7 -4 -15z"/>
<path d="M4372 3565 c0 -16 2 -22 5 -12 2 9 2 23 0 30 -3 6 -5 -1 -5 -18z"/>
<path d="M4422 3555 c0 -16 2 -22 5 -12 2 9 2 23 0 30 -3 6 -5 -1 -5 -18z"/>
<path d="M4470 3545 c0 -14 4 -25 9 -25 4 0 6 11 3 25 -2 14 -6 25 -8 25 -2 0
-4 -11 -4 -25z"/>
<path d="M4522 3530 c0 -14 2 -19 5 -12 2 6 2 18 0 25 -3 6 -5 1 -5 -13z"/>
<path d="M4560 3523 c0 -13 5 -23 10 -23 13 0 13 11 0 30 -8 12 -10 11 -10 -7z"/>
<path d="M4612 3510 c0 -14 2 -19 5 -12 2 6 2 18 0 25 -3 6 -5 1 -5 -13z"/>
<path d="M2600 3509 c0 -5 5 -7 10 -4 6 3 10 8 10 11 0 2 -4 4 -10 4 -5 0 -10
-5 -10 -11z"/>
<path d="M2034 3484 c3 -9 6 -17 6 -20 0 -2 7 -1 15 2 8 4 15 1 15 -5 0 -6 -4
-11 -10 -11 -5 0 -10 -4 -10 -10 0 -5 9 -10 20 -10 22 0 18 22 -8 53 -19 21
-36 22 -28 1z"/>
<path d="M4932 3464 c2 -22 8 -38 13 -36 15 3 12 65 -3 70 -10 3 -13 -6 -10
-34z"/>
<path d="M2732 3455 c0 -16 2 -22 5 -12 2 9 2 23 0 30 -3 6 -5 -1 -5 -18z"/>
<path d="M4150 3450 c8 -5 20 -10 25 -10 6 0 3 5 -5 10 -8 5 -19 10 -25 10 -5
0 -3 -5 5 -10z"/>
<path d="M2765 3440 c3 -5 10 -10 16 -10 5 0 9 5 9 10 0 6 -7 10 -16 10 -8 0
-12 -4 -9 -10z"/>
<path d="M4447 3423 c-10 -9 -9 -93 1 -93 4 0 17 -3 30 -6 20 -6 22 -3 22 39
0 36 -5 49 -19 57 -23 12 -26 12 -34 3z"/>
<path d="M4220 3381 c0 -39 13 -61 25 -41 8 13 -5 80 -16 80 -5 0 -9 -18 -9
-39z"/>
<path d="M4280 3371 c0 -30 4 -41 16 -41 11 0 14 9 12 37 -4 52 -28 56 -28 4z"/>
<path d="M5960 3338 c-23 -40 -76 -117 -117 -171 l-75 -98 -43 -192 c-24 -106
-47 -203 -51 -217 -14 -50 5 -11 101 210 53 124 121 279 150 345 67 151 85
195 81 195 -2 0 -22 -33 -46 -72z"/>
<path d="M4620 3326 c0 -19 5 -38 10 -41 6 -4 10 10 10 34 0 23 -4 41 -10 41
-5 0 -10 -15 -10 -34z"/>
<path d="M4418 3293 c7 -3 16 -2 19 1 4 3 -2 6 -13 5 -11 0 -14 -3 -6 -6z"/>
<path d="M2380 3273 c0 -10 25 -47 56 -83 86 -100 81 -97 78 -46 -2 31 -11 57
-29 80 -23 30 -31 34 -56 29 -22 -4 -29 -2 -29 10 0 9 -4 19 -10 22 -5 3 -10
-2 -10 -12z"/>
<path d="M5280 3193 c0 -40 1 -41 27 -37 15 3 28 6 29 7 0 1 13 19 29 40 l28
38 -57 -3 -56 -3 0 -42z"/>
<path d="M2135 3170 c-3 -5 1 -10 10 -10 9 0 13 5 10 10 -3 6 -8 10 -10 10 -2
0 -7 -4 -10 -10z"/>
<path d="M4970 3151 c0 -25 6 -27 13 -6 4 8 2 17 -3 20 -6 4 -10 -3 -10 -14z"/>
<path d="M2536 3114 c-6 -30 -3 -41 16 -63 33 -37 39 -40 53 -28 14 13 9 31
-6 22 -5 -4 -9 4 -9 17 0 13 -11 39 -24 56 l-24 33 -6 -37z"/>
<path d="M5241 3089 c-1 -26 2 -38 9 -34 12 7 14 62 2 69 -5 3 -9 -13 -11 -35z"/>
<path d="M5358 3104 c-5 -4 -8 -16 -8 -28 0 -14 3 -17 11 -9 6 6 9 19 7 28 -1
9 -6 13 -10 9z"/>
<path d="M5305 3042 c-6 -4 -16 -20 -24 -35 -9 -17 -20 -26 -29 -22 -8 3 -21
0 -29 -7 -8 -7 -21 -13 -27 -14 -7 -1 -76 -37 -154 -80 -101 -56 -142 -83
-142 -96 0 -10 3 -18 7 -18 24 0 371 200 397 229 18 20 19 56 1 43z"/>
<path d="M2150 3028 c0 -5 73 -303 91 -370 12 -45 11 -45 229 -52 l155 -6 -35
28 c-125 99 -152 125 -139 133 11 7 10 9 -4 9 -14 0 -17 5 -13 20 3 11 9 29
12 40 3 11 13 20 22 20 16 1 15 2 0 11 -10 5 -18 17 -18 24 0 16 -16 20 -22 6
-5 -15 -63 -18 -61 -3 5 21 -17 13 -27 -10 -8 -21 -9 -20 -9 10 -1 17 -5 31
-10 30 -5 -2 -16 6 -24 17 -9 11 -19 17 -23 12 -4 -4 1 -13 11 -21 12 -9 14
-15 7 -20 -7 -4 -38 20 -77 60 -36 37 -65 65 -65 62z"/>
<path d="M5662 2951 c-56 -66 -237 -230 -327 -295 -63 -46 -67 -51 -45 -55 23
-3 332 18 337 23 7 7 83 352 81 364 -2 9 -20 -6 -46 -37z"/>
<path d="M2620 2981 c0 -8 93 -71 104 -71 3 0 55 -27 116 -60 61 -33 122 -60
135 -60 14 0 25 -7 28 -17 4 -17 5 -17 6 0 1 24 -19 40 -149 114 -147 84 -240
120 -240 94z"/>
<path d="M2356 2922 c-3 -5 1 -9 9 -9 8 0 15 4 15 9 0 4 -4 8 -9 8 -6 0 -12
-4 -15 -8z"/>
<path d="M2406 2905 c4 -8 10 -12 15 -9 14 8 10 24 -6 24 -9 0 -12 -6 -9 -15z"/>
<path d="M5425 2870 c-3 -5 -1 -10 4 -10 6 0 11 5 11 10 0 6 -2 10 -4 10 -3 0
-8 -4 -11 -10z"/>
<path d="M5105 2836 c-25 -14 -161 -89 -235 -129 -30 -16 -75 -41 -100 -55
-25 -14 -74 -35 -109 -48 -35 -12 -67 -28 -71 -34 -4 -7 -13 -9 -19 -6 -20 13
-34 -5 -14 -18 28 -20 198 -1 243 27 30 18 155 119 170 137 3 3 40 34 83 69
84 70 97 83 52 57z"/>
<path d="M2820 2817 c8 -8 60 -50 114 -93 55 -43 120 -96 146 -116 51 -42 98
-52 290 -62 93 -5 94 -5 45 9 -27 7 -75 20 -105 28 -62 16 -315 137 -430 204
-41 25 -68 38 -60 30z"/>
<path d="M4656 2794 c-6 -15 -4 -15 11 -3 10 7 20 15 22 16 2 2 -3 3 -11 3 -9
0 -19 -7 -22 -16z"/>
<path d="M3020 2769 c0 -5 7 -9 16 -9 8 0 12 -4 9 -10 -4 -6 5 -10 20 -10 14
0 24 4 21 9 -9 14 -66 32 -66 20z"/>
<path d="M4790 2730 c0 -15 -7 -20 -29 -20 -16 0 -48 -9 -72 -19 -25 -11 -67
-25 -94 -31 -118 -25 -214 -54 -209 -62 3 -4 9 -6 14 -3 5 3 11 2 14 -3 8 -13
80 -4 191 26 79 21 225 100 218 118 -8 21 -33 17 -33 -6z"/>
<path d="M3229 2719 c16 -9 55 -24 87 -33 89 -23 342 -86 348 -86 2 0 6 15 8
33 3 28 7 32 35 35 23 2 32 -1 36 -15 4 -15 5 -15 6 -2 1 23 59 31 64 10 3
-10 5 -8 6 6 1 21 3 21 33 8 28 -11 37 -11 62 2 24 12 30 13 37 1 7 -11 14
-100 10 -134 -1 -8 13 -8 50 -1 l51 10 -7 56 c-8 69 -18 81 -62 81 -19 0 -32
4 -29 9 6 9 -62 21 -118 21 -24 0 -27 3 -16 10 10 7 -24 10 -105 10 -87 0
-116 -3 -105 -11 12 -8 9 -10 -12 -6 -16 2 -28 1 -28 -4 0 -8 -35 -6 -105 5
-22 4 -93 8 -157 10 -116 3 -117 2 -89 -15z"/>
<path d="M3100 2721 c0 -5 33 -27 73 -49 77 -42 271 -98 300 -86 10 3 17 1 17
-5 0 -6 16 -11 35 -11 19 0 35 -4 35 -10 0 -5 6 -10 14 -10 18 0 29 29 13 35
-45 16 -302 73 -308 69 -5 -3 -9 -1 -9 3 0 13 -120 65 -136 59 -8 -3 -14 -1
-14 4 0 6 -4 10 -10 10 -5 0 -10 -4 -10 -9z"/>
<path d="M4060 2710 c-11 -7 -7 -10 19 -10 25 0 32 -4 27 -15 -4 -12 4 -15 39
-15 27 0 45 -5 45 -12 0 -7 6 -5 18 4 11 10 24 13 37 8 11 -4 23 -6 28 -3 31
18 -45 47 -97 37 -24 -4 -36 -2 -36 5 0 14 -59 14 -80 1z"/>
<path d="M4405 2711 c-56 -4 -89 -9 -75 -12 23 -6 22 -6 -7 -8 -34 -1 -47 -21
-15 -21 11 0 23 -8 28 -18 9 -18 14 -18 132 11 67 16 122 33 122 37 0 10 -39
20 -65 18 -11 -1 -65 -4 -120 -7z m142 -7 c-3 -3 -12 -4 -19 -1 -8 3 -5 6 6 6
11 1 17 -2 13 -5z"/>
<path d="M4608 2703 c6 -2 18 -2 25 0 6 3 1 5 -13 5 -14 0 -19 -2 -12 -5z"/>
<path d="M3881 2604 c0 -11 3 -14 6 -6 3 7 2 16 -1 19 -3 4 -6 -2 -5 -13z"/>
<path d="M4345 2590 c-3 -5 -2 -10 4 -10 5 0 13 5 16 10 3 6 2 10 -4 10 -5 0
-13 -4 -16 -10z"/>
<path d="M2270 2560 c12 -23 -14 -15 490 -141 217 -54 463 -117 545 -139 142
-37 230 -53 160 -28 -16 6 -35 19 -42 28 -6 9 -38 36 -70 61 -32 24 -61 48
-64 53 -4 5 -12 5 -19 1 -8 -5 -11 -4 -7 2 7 11 -37 36 -46 26 -11 -10 15 -62
28 -57 7 3 16 1 20 -5 3 -6 13 -11 20 -11 8 0 28 -14 45 -30 17 -17 35 -28 41
-25 5 4 9 1 9 -4 0 -15 -18 -14 -87 4 -168 44 -200 63 -164 98 11 10 12 7 7
-13 -6 -21 -5 -22 4 -7 12 18 5 41 -10 32 -5 -3 -19 -1 -30 5 -16 9 -19 8 -13
-6 4 -12 2 -15 -8 -12 -8 3 -13 11 -11 18 2 7 -5 9 -18 5 -11 -4 -20 -2 -20 4
0 6 9 11 20 11 11 0 20 4 20 9 0 19 -20 22 -49 6 -20 -10 -32 -11 -36 -4 -10
14 -2 19 42 29 23 6 39 5 41 0 2 -6 11 -10 20 -10 14 0 15 -2 2 -10 -8 -5 -12
-11 -10 -14 3 -2 16 5 30 17 15 12 18 18 8 14 -10 -3 -24 0 -31 8 -8 7 -43 26
-78 41 -80 34 -239 48 -239 20 0 -14 -4 -14 -37 3 -31 16 -76 21 -234 30 -259
14 -242 15 -229 -9z m575 -44 c19 -14 30 -46 15 -46 -15 0 -21 18 -8 24 7 3 0
4 -17 3 -21 -1 -31 3 -33 16 -4 20 17 22 43 3z m101 -24 c21 -13 26 -49 8 -56
-23 -9 -30 1 -17 23 10 15 8 20 -10 29 -14 7 -16 11 -7 11 8 0 20 -3 26 -7z
m-46 -12 c0 -5 -5 -10 -11 -10 -5 0 -7 5 -4 10 3 6 8 10 11 10 2 0 4 -4 4 -10z
m155 -90 c3 -5 15 -10 26 -10 10 0 19 -4 19 -10 0 -14 -10 -12 -50 10 -21 11
-28 19 -18 20 9 0 20 -4 23 -10z m362 -116 c-3 -3 -12 -4 -19 -1 -8 3 -5 6 6
6 11 1 17 -2 13 -5z"/>
<path d="M5330 2564 c-85 -7 -182 -17 -215 -23 -33 -6 -77 -11 -97 -11 -20 0
-40 -5 -43 -11 -11 -16 3 -23 19 -9 13 10 20 8 41 -8 l25 -20 -23 -14 c-47
-31 -189 -89 -203 -84 -8 3 -13 2 -10 -3 3 -5 -14 -16 -38 -25 -71 -27 -106
-35 -106 -25 0 5 6 9 14 9 8 0 17 4 20 9 4 5 -4 7 -16 3 -17 -4 -20 -2 -15 12
4 10 1 24 -7 32 -16 16 -40 19 -31 4 3 -6 -1 -7 -9 -4 -9 3 -16 1 -16 -5 0 -6
-6 -11 -12 -11 -21 0 -95 -71 -80 -76 6 -3 12 -10 12 -16 0 -6 -6 -6 -15 2
-16 13 -56 4 -52 -12 1 -6 -11 -15 -28 -21 -24 -8 -295 -203 -295 -212 0 -2
1343 501 1412 528 20 8 -63 5 -232 -9z m-200 -44 c-18 -12 -30 -13 -30 -2 0 4
10 9 22 9 18 2 20 0 8 -7z m-45 -20 c-3 -5 -14 -6 -25 -3 -11 3 -18 9 -15 13
3 5 14 6 25 3 11 -3 18 -9 15 -13z m-485 -180 c0 -5 -8 -10 -17 -10 -15 0 -16
2 -3 10 19 12 20 12 20 0z"/>
<path d="M3630 2556 c0 -10 9 -16 21 -16 24 0 21 23 -4 28 -10 2 -17 -3 -17
-12z"/>
<path d="M4480 2545 c0 -8 7 -15 16 -15 14 0 14 3 4 15 -7 8 -14 15 -16 15 -2
0 -4 -7 -4 -15z"/>
<path d="M4419 2529 c-10 -6 -4 -9 19 -9 17 0 32 2 32 4 0 9 -39 13 -51 5z"/>
<path d="M4368 2523 c6 -2 18 -2 25 0 6 3 1 5 -13 5 -14 0 -19 -2 -12 -5z"/>
<path d="M3298 2504 c19 -8 78 -24 133 -36 54 -12 99 -25 99 -30 0 -4 -9 -8
-19 -8 -11 0 -22 -4 -25 -9 -4 -5 4 -7 16 -3 14 3 19 2 14 -7 -14 -22 21 -39
105 -50 116 -17 419 -25 505 -14 77 10 132 2 80 -11 l-28 -7 26 -24 c16 -15
33 -22 43 -18 11 4 14 3 9 -5 -4 -7 -1 -12 8 -12 8 0 17 6 20 13 4 8 10 5 22
-10 19 -27 44 -30 44 -7 0 10 5 14 16 10 10 -4 13 -2 8 6 -5 7 -2 9 8 5 11 -4
18 1 21 14 3 13 11 17 21 13 12 -4 16 0 16 15 0 12 5 21 11 21 5 0 7 -4 4 -10
-9 -14 2 -12 22 4 61 51 68 58 48 51 -11 -4 -26 -8 -33 -8 -7 0 -11 -6 -8 -12
5 -13 -22 -13 -43 0 -9 5 -12 4 -7 -3 9 -15 -12 -26 -28 -13 -7 6 -28 9 -47 6
l-34 -6 35 13 c29 11 34 17 32 38 -2 14 -5 26 -6 28 -6 5 -161 -20 -178 -29
-15 -8 -19 -5 -24 21 -8 35 -44 44 -44 10 0 -14 7 -20 21 -20 11 0 18 -4 15
-8 -2 -4 -23 -6 -46 -4 -35 4 -41 7 -37 23 5 17 -1 19 -61 18 -37 0 -76 -4
-87 -9 -11 -5 -14 -9 -7 -9 7 -1 21 -9 30 -18 16 -16 15 -16 -8 -10 -14 4 -35
7 -48 7 -16 0 -22 5 -20 18 2 12 -5 18 -22 20 -23 2 -24 1 -7 -11 25 -21 21
-27 -18 -27 -32 0 -35 2 -26 19 12 21 5 31 -21 31 -20 0 -24 -20 -6 -38 8 -8
-14 -10 -90 -7 -73 3 -102 1 -102 -7 0 -7 -6 -5 -12 4 -7 9 -22 18 -33 20 -11
2 25 3 79 2 76 -2 105 1 120 13 20 14 20 14 -9 12 -17 -2 -36 0 -43 5 -7 4
-95 16 -195 26 -100 11 -195 21 -212 24 l-30 5 33 -15z m1018 -149 c-4 -10 1
-14 17 -14 12 1 31 -2 41 -6 13 -6 17 -5 12 3 -3 6 -2 13 3 16 5 3 11 0 14 -8
6 -15 -22 -46 -40 -46 -5 0 -15 -10 -22 -22 -6 -13 -9 -15 -7 -6 4 12 1 15
-11 11 -12 -5 -14 -1 -8 17 6 19 4 22 -10 16 -14 -5 -16 -2 -12 14 4 16 0 20
-21 21 -23 1 -22 3 8 9 19 4 37 8 39 9 2 0 1 -6 -3 -14z m-49 -31 c-3 -3 -12
-4 -19 -1 -8 3 -5 6 6 6 11 1 17 -2 13 -5z"/>
<path d="M4856 2507 c-14 -10 -15 -14 -4 -14 7 0 19 6 26 14 7 7 9 13 4 13 -4
0 -16 -6 -26 -13z"/>
<path d="M3985 2500 c-16 -7 -17 -9 -3 -9 9 -1 20 4 23 9 7 11 7 11 -20 0z"/>
<path d="M4400 2479 c-47 -5 -98 -13 -113 -19 -15 -5 -34 -7 -42 -4 -10 4 -15
0 -15 -11 0 -12 5 -15 22 -9 12 4 43 8 68 9 47 3 200 34 200 41 0 5 -7 4 -120
-7z"/>
<path d="M3176 2442 c-3 -6 -1 -14 5 -17 14 -9 20 -2 10 14 -6 8 -11 9 -15 3z"/>
<path d="M4700 2429 c-8 -5 -10 -9 -5 -9 6 0 3 -5 -5 -10 -12 -7 -10 -9 7 -7
13 0 25 7 27 14 7 17 -7 24 -24 12z"/>
<path d="M4740 2430 c0 -5 5 -10 11 -10 5 0 7 5 4 10 -3 6 -8 10 -11 10 -2 0
-4 -4 -4 -10z"/>
<path d="M3166 2395 c7 -18 14 -18 34 -4 13 9 12 10 -2 5 -10 -3 -18 -1 -18 4
0 6 -4 10 -10 10 -5 0 -7 -7 -4 -15z"/>
<path d="M3405 2370 c3 -5 8 -10 11 -10 2 0 4 5 4 10 0 6 -5 10 -11 10 -5 0
-7 -4 -4 -10z"/>
<path d="M4154 2310 c3 -14 3 -19 0 -12 -9 18 -24 14 -24 -7 0 -14 6 -17 25
-13 29 5 31 11 9 38 -14 18 -15 18 -10 -6z"/>
<path d="M4220 2260 c-13 -8 -12 -10 3 -10 9 0 17 5 17 10 0 12 -1 12 -20 0z"/>
<path d="M4280 2260 c0 -6 -4 -9 -9 -5 -5 3 -12 1 -16 -5 -3 -5 0 -10 7 -11 7
0 2 -5 -12 -11 -38 -16 -500 -23 -589 -9 -40 6 -76 10 -78 7 -2 -2 35 -35 84
-72 48 -38 126 -100 172 -137 47 -38 91 -71 97 -74 12 -4 393 275 394 288 0 4
-11 14 -25 23 -15 10 -25 12 -25 6z"/>
<path d="M3280 1306 l0 -76 41 0 c41 0 78 14 91 34 12 18 9 71 -6 91 -9 13
-30 20 -70 23 l-56 4 0 -76z"/>
<path d="M3280 1120 l0 -80 49 0 c92 0 129 31 116 97 -7 41 -49 63 -120 63
l-45 0 0 -80z"/>
<path d="M3660 1268 c-18 -51 -35 -99 -38 -105 -3 -10 15 -13 72 -13 42 0 76
2 76 4 0 2 -17 49 -38 105 l-39 103 -33 -94z"/>
</g>
</svg>
