<?xml version="1.0" standalone="no"?>
<!DOCTYPE svg PUBLIC "-//W3C//DTD SVG 20010904//EN"
 "http://www.w3.org/TR/2001/REC-SVG-20010904/DTD/svg10.dtd">
<svg version="1.0" xmlns="http://www.w3.org/2000/svg"
 width="790.000000pt" height="784.000000pt" viewBox="0 0 790.000000 784.000000"
 preserveAspectRatio="xMidYMid meet">
<metadata>
Created by potrace 1.16, written by Peter Selinger 2001-2019
</metadata>
<g transform="translate(0.000000,784.000000) scale(0.100000,-0.100000)"
fill="#000000" stroke="none">
<path d="M320 7751 c-83 -26 -141 -74 -181 -151 l-24 -45 0 -3640 0 -3640 27
-50 c31 -59 67 -94 128 -126 l45 -24 3640 0 3640 0 50 27 c59 31 94 67 126
128 l24 45 0 3640 0 3640 -24 45 c-32 61 -67 97 -126 128 l-50 27 -3625 2
c-1994 1 -3636 -2 -3650 -6z m3847 -675 c161 -72 716 -304 745 -311 13 -3 70
1 128 9 58 9 106 12 108 8 2 -4 38 -59 80 -122 l77 -115 95 -27 c52 -15 196
-58 318 -95 l224 -68 92 -245 c130 -343 180 -450 277 -587 45 -65 97 -138 114
-163 l31 -45 -8 -100 c-37 -464 -36 -453 -17 -616 9 -85 23 -199 29 -254 6
-55 22 -136 36 -180 61 -203 66 -248 38 -330 -15 -46 -74 -153 -97 -177 -6 -7
-30 -36 -51 -63 -67 -86 -207 -215 -232 -215 -9 0 -12 -4 -9 -10 3 -5 2 -10
-4 -10 -6 0 -31 -32 -56 -70 -25 -38 -66 -103 -92 -142 -51 -79 -321 -509
-325 -519 -3 -6 -501 -206 -648 -259 -94 -35 -358 -144 -755 -313 -143 -60
-265 -110 -271 -110 -12 0 -60 19 -459 188 -455 192 -490 205 -845 325 l-335
113 -114 191 c-169 283 -344 556 -353 550 -4 -3 -5 1 -2 9 3 8 -2 20 -11 27
-8 7 -15 10 -15 7 0 -3 -10 4 -23 16 -12 12 -49 45 -82 72 -32 28 -70 60 -82
73 -13 12 -27 22 -31 22 -4 0 -14 8 -23 18 -8 9 -31 31 -50 47 -47 42 -120
131 -112 138 3 4 -1 9 -10 13 -22 8 -40 97 -34 164 6 70 33 188 47 205 18 22
29 72 55 250 59 413 59 414 40 690 -9 137 -20 297 -25 354 l-9 105 166 173
c112 117 173 173 187 173 28 0 231 41 243 49 5 3 68 87 140 186 71 99 183 253
247 343 65 90 128 174 140 187 15 16 92 47 261 103 132 44 404 138 605 210
462 164 513 181 526 182 6 0 65 -24 131 -54z m2490 -5305 c141 -6 143 -6 170
-35 16 -16 22 -25 14 -21 -7 4 -17 2 -21 -5 -6 -9 -14 -8 -36 6 -27 18 -70 19
-1099 15 -649 -2 -1076 -7 -1085 -12 -11 -7 -8 -8 10 -4 17 4 21 3 11 -3 -7
-5 -47 -10 -88 -11 -42 -1 -80 -4 -85 -7 -5 -3 -44 -8 -86 -10 -80 -4 -103 -7
-162 -17 -81 -15 -231 -16 -335 -2 -60 8 -150 17 -200 20 -49 2 -106 7 -125
10 -19 3 -43 6 -52 7 -10 1 -18 6 -18 10 0 4 -9 5 -20 3 -11 -2 -22 0 -25 5
-6 9 -539 13 -1720 15 -509 0 -510 0 -552 -22 -24 -13 -43 -22 -44 -20 -20 62
4 71 206 77 240 8 5170 9 5342 1z m-4749 -210 c38 -1 57 -6 72 -21 26 -26 26
-76 1 -92 -19 -12 -19 -13 5 -35 34 -31 33 -84 -2 -112 -22 -17 -41 -21 -109
-21 -66 0 -84 3 -89 16 -3 9 -6 69 -6 134 0 103 2 120 18 129 9 5 26 8 37 6
11 -2 44 -4 73 -4z m322 -16 c46 -41 29 -106 -46 -175 -24 -22 -44 -42 -44
-43 0 -2 27 -1 60 1 59 4 60 4 60 -22 l0 -26 -105 0 c-129 0 -132 7 -41 91 71
66 96 110 76 134 -18 21 -58 19 -72 -5 -14 -21 -68 -29 -68 -9 0 6 16 27 35
46 33 33 39 35 81 30 25 -2 53 -12 64 -22z m229 14 c52 -18 69 -79 32 -113
-18 -17 -18 -18 5 -41 44 -44 24 -104 -42 -125 -102 -34 -198 57 -131 124 23
23 23 24 5 46 -22 27 -23 49 -2 78 28 40 76 51 133 31z m401 -18 c34 -24 46
-72 30 -111 -16 -38 -56 -60 -110 -60 l-40 0 0 -45 c0 -43 -1 -45 -30 -45
l-30 0 0 139 0 140 33 3 c59 7 122 -2 147 -21z m511 -106 c27 -71 48 -136 49
-142 0 -8 -12 -13 -29 -13 -23 0 -31 6 -40 30 -9 28 -13 30 -65 30 -51 0 -55
-2 -65 -30 -8 -24 -16 -30 -40 -30 l-30 0 30 83 c17 45 37 98 44 117 33 89 32
87 66 86 32 -1 33 -1 80 -131z m274 105 c0 -22 -5 -25 -42 -28 l-43 -3 0 -115
0 -114 -30 0 -30 0 0 115 0 115 -40 0 c-38 0 -40 2 -40 30 l0 31 113 -3 112
-3 0 -25z m245 0 l0 -30 -70 0 -70 0 0 -35 0 -35 66 0 c62 0 65 -1 62 -22 -3
-21 -9 -23 -65 -26 l-63 -3 0 -54 c0 -54 0 -55 -30 -55 l-30 0 0 138 c0 76 3
142 7 145 3 4 48 7 100 7 l93 0 0 -30z m241 13 c16 -10 39 -37 50 -61 65 -133
-65 -271 -190 -204 -91 49 -94 204 -5 262 37 25 106 26 145 3z m278 6 c61 -21
80 -101 34 -147 l-26 -26 26 -48 c15 -26 27 -51 27 -54 0 -3 -14 -4 -32 -2
-26 2 -37 12 -58 48 -29 50 -69 67 -71 31 -1 -12 -3 -25 -4 -31 -1 -5 -3 -19
-4 -30 -1 -14 -8 -20 -26 -20 l-25 0 0 145 0 145 64 0 c34 0 77 -5 95 -11z
m221 -81 c19 -47 38 -89 41 -93 4 -3 22 34 42 82 l35 88 42 3 43 3 -6 -83 c-4
-46 -7 -109 -7 -140 0 -55 -1 -58 -25 -58 -25 0 -25 1 -25 87 0 47 -3 83 -7
79 -4 -4 -21 -42 -38 -84 -43 -106 -58 -104 -105 8 l-35 85 -3 -87 -3 -88 -29
0 -30 0 0 138 c0 76 3 142 7 146 4 4 21 6 37 4 28 -3 33 -10 66 -90z m805 68
c77 -50 76 -202 -1 -253 -38 -24 -116 -23 -151 3 -86 63 -81 212 9 258 39 20
106 16 143 -8z m327 -15 c33 -37 35 -48 8 -56 -14 -4 -30 2 -52 20 -58 49
-123 9 -123 -76 0 -43 4 -54 28 -75 34 -29 56 -30 91 -3 37 29 34 49 -9 49
-28 0 -35 4 -35 20 0 18 7 20 66 20 l67 0 -6 -46 c-17 -155 -239 -146 -263 11
-9 60 26 132 76 158 52 27 117 18 152 -22z m-2762 -86 l0 -114 68 -3 c61 -3
67 -5 70 -25 3 -23 1 -23 -97 -23 l-101 0 0 140 0 140 30 0 30 0 0 -115z
m2060 1 c0 -128 -2 -126 88 -126 35 0 42 -3 42 -20 0 -19 -7 -20 -95 -20 l-95
0 0 140 0 140 30 0 30 0 0 -114z m840 -26 l0 -140 -25 0 -25 0 0 140 0 140 25
0 25 0 0 -140z m182 53 l63 -88 3 88 3 87 29 0 30 0 0 -140 0 -140 -27 0 c-24
1 -38 15 -93 92 l-65 91 -3 -92 -3 -91 -27 0 -27 0 2 137 c0 76 2 139 2 141 1
1 12 2 25 2 19 0 38 -19 88 -87z m-3106 -378 c38 -51 1 -115 -66 -115 -39 0
-40 -1 -40 -35 0 -24 -5 -35 -15 -35 -12 0 -15 18 -15 106 l0 106 61 -4 c45
-3 65 -10 75 -23z m194 10 c0 -11 -12 -15 -50 -15 -49 0 -50 -1 -50 -29 0 -28
2 -30 48 -33 59 -4 58 -22 -3 -26 -42 -3 -45 -5 -45 -33 0 -28 1 -29 50 -29
38 0 50 -4 50 -15 0 -12 -14 -15 -70 -15 l-70 0 0 105 0 105 70 0 c56 0 70 -3
70 -15z m194 6 c3 -5 -19 -43 -49 -86 -30 -42 -55 -78 -55 -80 0 -2 23 -5 52
-7 30 -2 53 -8 56 -15 3 -10 -18 -13 -82 -13 -47 0 -86 3 -86 8 1 4 27 43 59
87 l59 80 -54 3 c-39 2 -54 7 -54 17 0 12 16 15 74 15 41 0 77 -4 80 -9z m76
-36 c0 -25 2 -45 5 -45 2 0 23 20 46 45 23 25 50 45 61 45 17 0 13 -8 -21 -46
l-41 -47 33 -46 c50 -70 51 -71 28 -71 -13 0 -32 17 -51 46 -26 36 -34 43 -46
33 -8 -6 -14 -27 -14 -45 0 -24 -5 -34 -15 -34 -12 0 -15 18 -15 105 0 87 3
105 15 105 11 0 15 -12 15 -45z m200 -26 c0 -85 11 -109 49 -109 41 0 50 17
53 100 2 59 6 75 18 75 23 0 27 -138 5 -172 -23 -34 -60 -46 -102 -32 -45 14
-63 53 -63 132 0 66 4 77 27 77 10 0 13 -18 13 -71z m227 -6 l20 -78 24 78
c30 100 47 100 73 -1 21 -81 27 -79 47 12 11 52 30 78 46 63 3 -4 -7 -52 -23
-107 -25 -85 -32 -100 -48 -98 -14 2 -24 19 -37 67 -10 35 -20 65 -22 68 -3 2
-12 -28 -22 -67 -15 -62 -20 -71 -38 -68 -17 2 -26 20 -49 98 -33 114 -33 110
-9 110 15 0 23 -15 38 -77z m283 -28 c0 -82 -3 -105 -14 -105 -16 0 -26 50
-26 136 0 63 4 74 27 74 10 0 13 -24 13 -105z m206 80 c25 -25 25 -45 1 -45
-7 0 -20 9 -30 20 -37 43 -97 8 -97 -57 0 -64 58 -96 101 -57 11 10 25 14 35
10 16 -6 15 -10 -9 -34 -40 -40 -99 -38 -138 6 -33 36 -37 74 -15 126 17 41
39 55 89 56 27 0 45 -7 63 -25z m92 -23 l3 -42 50 0 49 0 0 46 c0 38 3 45 18
42 15 -3 17 -17 20 -106 3 -97 2 -102 -18 -102 -17 0 -20 6 -20 45 l0 45 -50
0 -50 0 0 -45 c0 -38 -3 -45 -20 -45 -19 0 -20 7 -20 106 0 95 2 105 18 102
12 -2 18 -15 20 -46z m324 -52 c44 -113 43 -110 18 -110 -13 0 -22 9 -26 25
-5 22 -12 25 -48 25 -36 0 -45 -4 -54 -25 -7 -14 -20 -25 -31 -25 -18 0 -17 4
9 68 16 37 35 84 44 105 25 61 45 47 88 -63z m106 -8 c3 -97 2 -102 -18 -102
-19 0 -20 6 -20 106 0 95 2 105 18 102 15 -3 17 -17 20 -106z m129 38 c56 -78
63 -76 63 17 0 39 4 54 13 51 8 -3 13 -36 15 -106 2 -92 1 -102 -15 -102 -11
0 -38 29 -68 72 l-50 71 -3 -72 c-3 -63 -5 -71 -22 -71 -19 0 -20 7 -20 98 0
140 12 146 87 42z m-462 -340 c109 0 201 -3 204 -5 2 -3 -245 -4 -550 -3 -305
1 -502 4 -439 7 63 3 215 6 337 6 123 0 223 4 223 9 0 5 6 4 13 -2 7 -6 89
-11 212 -12z m-967 -7 c-10 -2 -26 -2 -35 0 -10 3 -2 5 17 5 19 0 27 -2 18 -5z"/>
<path d="M4130 6898 c-45 -23 -85 -48 -88 -56 -3 -8 5 -23 19 -34 20 -17 21
-19 4 -13 -63 22 -89 17 -200 -35 -60 -29 -151 -71 -201 -95 -84 -40 -175
-105 -146 -105 23 0 2 -20 -50 -46 -46 -24 -52 -24 -60 -9 -6 9 -18 19 -28 23
-16 6 -7 17 54 64 105 83 272 244 263 254 -4 5 -11 4 -15 -1 -4 -6 -27 -11
-52 -12 -25 -1 -115 -15 -200 -30 -141 -24 -167 -32 -280 -86 -69 -32 -141
-66 -160 -75 -19 -9 -47 -25 -62 -36 -26 -19 -29 -19 -115 -2 -154 29 -146 29
-139 10 3 -9 13 -53 22 -99 l17 -83 61 -8 c40 -5 52 -9 34 -12 -31 -4 -37 -17
-12 -26 12 -5 15 -13 10 -34 -4 -15 -9 -39 -11 -53 l-4 -27 42 13 c58 18 183
84 179 96 -2 8 45 3 56 -6 1 -1 -27 -14 -63 -29 l-64 -28 -3 -111 -3 -112
-100 -1 -100 0 90 3 c83 4 104 11 105 36 0 4 -6 7 -12 6 -42 -5 -78 2 -78 16
0 11 12 15 43 16 l42 2 -35 6 c-45 9 -60 4 -60 -20 0 -10 -7 -19 -15 -19 -9 0
-15 9 -15 23 -1 22 -1 22 -15 -3 l-14 -25 1 33 1 32 74 0 c58 0 73 3 73 15 0
12 -14 15 -65 15 -74 0 -87 -6 -169 -75 -56 -47 -58 -50 -35 -56 22 -6 21 -7
-7 -8 -16 -1 -39 -9 -50 -18 -55 -50 -56 -50 -50 -10 4 23 2 37 -5 37 -5 0 -8
4 -5 9 10 16 -6 42 -21 36 -12 -4 -14 0 -10 15 3 11 3 20 1 20 -10 0 -134 -88
-232 -164 -146 -114 -164 -126 -186 -126 -10 0 -66 -10 -123 -22 l-103 -21 -2
-41 c-3 -74 1 -125 9 -140 7 -12 18 -8 60 24 31 24 58 38 67 34 14 -5 13 -10
-5 -32 -19 -25 -19 -27 -2 -33 10 -3 24 -4 32 -1 9 3 12 1 7 -6 -12 -20 19
-14 44 8 13 11 37 20 56 20 22 0 32 4 30 13 -3 6 -7 27 -10 46 -9 50 7 28 20
-27 5 -26 15 -46 21 -45 6 1 8 -8 5 -22 -2 -14 -8 -25 -13 -25 -9 0 -109 -97
-150 -146 -15 -17 -30 -40 -33 -52 -4 -11 -16 -22 -26 -25 -11 -3 -20 -4 -20
-3 0 1 42 51 94 111 52 60 92 115 89 122 -7 17 -40 16 -136 -2 -43 -8 -80 -15
-82 -15 -2 0 -17 -14 -34 -31 l-31 -31 0 -118 c0 -65 4 -121 9 -124 4 -3 25
13 45 35 20 22 36 37 36 32 0 -5 -4 -13 -9 -18 -19 -20 -51 -86 -51 -105 0
-10 -4 -22 -10 -25 -5 -3 -10 -43 -11 -88 l-1 -82 -12 60 c-13 62 -17 61 -35
-15 -54 -224 -88 -423 -106 -622 l-7 -77 113 -3 114 -3 14 -117 c13 -114 13
-120 -8 -176 -36 -101 -33 -113 77 -302 84 -144 185 -305 194 -308 4 -2 8 -8
8 -13 0 -28 341 -499 398 -549 23 -21 70 -48 105 -60 34 -13 107 -45 162 -71
55 -26 172 -73 260 -104 88 -31 207 -73 265 -95 327 -121 393 -145 473 -176
111 -44 131 -42 317 29 344 131 794 310 980 391 91 40 185 78 208 86 29 9 55
27 77 54 39 49 239 342 278 408 39 67 126 288 120 305 -3 8 2 19 11 26 21 16
78 174 71 197 -4 12 1 19 14 23 11 3 22 17 26 37 4 17 31 78 61 135 54 102 54
103 54 194 l0 91 171 0 171 0 -7 88 c-12 144 -29 255 -40 258 -5 2 -32 -28
-60 -66 -27 -38 -53 -66 -56 -62 -4 4 -12 57 -18 117 -15 143 -33 289 -37 294
-4 5 -34 -26 -34 -35 0 -18 -83 -155 -90 -147 -5 4 -5 35 -1 68 5 46 9 55 15
38 4 -13 13 -23 21 -23 13 0 45 67 45 95 0 8 5 15 11 15 5 0 7 5 4 11 -5 7
-14 4 -26 -7 -17 -16 -19 -16 -19 -1 0 10 3 17 8 17 7 0 33 89 35 122 1 9 5
14 9 12 4 -3 8 -1 8 5 0 5 -20 17 -45 26 -34 14 -48 15 -59 6 -7 -6 -21 -8
-31 -5 -14 6 -16 3 -12 -12 3 -10 8 -38 12 -61 l7 -42 -44 22 c-24 11 -62 21
-85 22 -24 0 -48 6 -55 13 -9 9 2 12 53 12 36 0 68 2 71 6 3 3 -7 28 -23 57
-33 61 -36 79 -11 70 14 -5 15 -4 6 8 -15 19 -28 93 -15 85 5 -3 12 -20 16
-36 8 -36 21 -46 40 -30 23 19 85 136 85 160 0 12 -22 97 -50 189 -27 91 -52
178 -55 193 -5 20 -27 38 -95 77 -48 28 -92 51 -98 51 -6 0 -8 -16 -5 -37 l4
-38 -18 35 c-10 19 -24 34 -31 32 -7 -1 -12 2 -12 8 0 5 5 10 11 10 8 0 7 5
-1 15 -7 9 -25 37 -39 63 -73 133 -69 129 -151 151 l-75 19 71 -5 c67 -5 73
-4 84 16 8 15 17 20 31 16 31 -10 42 5 17 25 -13 11 -17 19 -10 20 6 0 12 -4
12 -10 0 -5 6 -10 14 -10 8 0 17 -6 20 -12 4 -7 4 -3 2 10 -3 14 1 22 11 22 8
0 11 -4 8 -10 -3 -5 -1 -10 4 -10 6 0 11 7 11 15 0 8 4 15 10 15 5 0 9 -3 9
-7 -3 -20 2 -34 10 -29 9 6 9 31 0 40 -2 3 -70 12 -149 21 -118 13 -171 25
-281 61 l-135 46 -97 -46 c-53 -25 -98 -50 -101 -55 -3 -5 9 -11 26 -15 21 -4
34 -2 40 6 6 10 8 9 8 -2 0 -12 -16 -15 -85 -16 -63 0 -85 3 -85 13 0 7 -12
20 -26 30 -26 17 -26 17 -5 25 20 7 21 9 7 42 -8 19 -33 62 -56 95 l-41 61
-74 0 c-43 0 -75 4 -75 10 0 6 26 10 59 10 55 0 88 13 59 22 -6 2 4 14 23 26
19 12 46 30 61 40 l28 19 -23 11 c-52 27 -555 167 -565 158 -2 -2 24 -25 57
-51 34 -27 61 -50 61 -52 0 -2 -44 26 -97 62 -54 36 -103 65 -110 65 -6 0 -48
-19 -93 -42z m0 -229 c0 -5 -7 -9 -15 -9 -15 0 -20 12 -9 23 8 8 24 -1 24 -14z
m-130 1 c0 -5 -2 -10 -4 -10 -3 0 -8 5 -11 10 -3 6 -1 10 4 10 6 0 11 -4 11
-10z m61 -136 c30 -36 61 -74 69 -84 8 -9 33 -29 55 -44 21 -15 51 -48 65 -73
18 -34 32 -47 49 -48 13 -1 29 -9 36 -18 7 -10 17 -17 24 -17 6 0 61 -25 122
-55 86 -42 119 -54 145 -50 25 3 34 0 34 -11 0 -12 4 -12 20 -4 11 6 20 20 20
31 0 12 5 19 13 16 6 -2 18 3 25 12 11 14 11 14 6 -1 -5 -14 -1 -18 15 -18 14
0 21 -6 21 -19 0 -37 19 -31 23 6 l4 38 1 -42 c1 -26 -2 -43 -9 -43 -6 0 -9
-7 -5 -15 4 -12 -5 -15 -47 -15 -38 -1 -48 -3 -36 -10 9 -5 27 -11 40 -13 13
-2 24 -10 24 -18 0 -16 41 -39 72 -39 12 0 24 -4 27 -9 3 -4 20 -11 38 -15 19
-4 50 -25 77 -52 45 -46 85 -69 102 -58 5 3 9 0 9 -7 0 -6 8 -1 18 11 22 27
46 19 36 -12 -4 -14 -2 -18 5 -14 6 4 11 2 11 -5 0 -6 -8 -9 -18 -7 -10 3 -23
-1 -29 -7 -15 -17 3 -35 34 -35 16 0 23 -6 23 -20 0 -13 10 -24 26 -30 35 -14
37 -13 31 10 -3 11 0 20 6 20 6 0 8 2 5 5 -8 9 -38 -6 -32 -16 3 -5 0 -9 -5
-9 -6 0 -11 2 -11 4 0 2 -3 11 -6 20 -5 14 5 16 72 15 44 0 74 -3 67 -5 -7 -3
-9 -12 -6 -20 4 -11 -5 -14 -38 -15 l-44 -2 50 -6 c28 -3 74 -6 103 -6 28 0
52 -3 52 -7 0 -5 -4 -9 -10 -9 -5 -1 -14 -3 -20 -4 -5 -1 -19 -3 -30 -4 -23
-1 -29 -41 -6 -41 8 0 16 -7 20 -15 3 -8 9 -15 13 -14 21 3 33 -2 33 -15 0
-17 30 -30 31 -13 1 7 4 1 8 -13 4 -14 12 -25 18 -25 6 0 15 -3 19 -7 4 -4 18
-5 32 -1 17 4 23 2 18 -6 -5 -8 40 -12 171 -13 l178 -2 -152 -3 c-84 -2 -153
-6 -153 -10 0 -3 8 -11 17 -18 15 -11 15 -14 -6 -36 -12 -13 -17 -25 -11 -27
5 -2 8 -8 5 -13 -3 -5 -1 -17 5 -28 11 -22 3 -54 -12 -45 -5 3 -12 -3 -15 -15
-8 -30 -33 -27 -33 4 0 15 -7 28 -17 32 -10 4 -24 14 -31 22 -11 14 -12 13 -3
-4 5 -11 16 -29 24 -40 17 -23 2 -69 -20 -61 -14 6 -18 -10 -4 -18 5 -3 11
-18 13 -34 4 -26 2 -28 -27 -24 -17 2 -25 0 -19 -5 39 -30 2 -92 -64 -102 -29
-5 -37 -11 -36 -28 0 -15 -5 -20 -18 -18 -23 5 -23 -4 0 -22 16 -12 15 -13 -7
-11 -19 2 -31 -5 -47 -29 -12 -18 -24 -29 -28 -26 -3 4 -6 1 -6 -5 0 -6 -10
-14 -22 -18 -12 -3 -28 -13 -36 -20 -7 -8 -24 -14 -37 -14 -13 0 -31 -8 -41
-17 -10 -10 -27 -23 -38 -28 -12 -6 -20 -19 -18 -28 3 -20 -14 -23 -21 -4 -4
9 -7 9 -15 -1 -5 -7 -17 -14 -26 -16 -10 -1 -21 -7 -24 -12 -7 -10 -36 -24
-49 -23 -3 1 -10 -6 -15 -14 -4 -8 -27 -25 -50 -37 -24 -13 -54 -30 -68 -37
-23 -14 -24 -15 -2 -10 12 3 22 2 22 -1 0 -12 -51 -31 -67 -25 -9 4 -19 -1
-25 -10 -5 -10 -18 -17 -29 -17 -11 0 -30 -5 -42 -12 -12 -7 -33 -14 -47 -16
-14 -2 -29 -7 -35 -13 -5 -5 -17 -9 -27 -9 -10 0 -21 -6 -24 -13 -3 -8 -18
-14 -34 -15 -16 0 -38 -6 -50 -12 -12 -6 -28 -9 -35 -6 -8 3 -17 1 -20 -4 -3
-5 -12 -7 -21 -3 -8 3 -14 2 -13 -3 4 -22 -2 -34 -18 -34 -13 0 -14 -3 -6 -11
6 -6 9 -17 6 -24 -2 -7 4 -16 15 -19 11 -4 30 -20 42 -36 13 -17 32 -30 43
-30 11 0 18 -3 14 -6 -3 -4 0 -13 8 -21 8 -8 13 -22 12 -31 -6 -35 -42 -101
-54 -97 -13 4 -7 -20 9 -42 5 -7 5 -14 -2 -18 -5 -3 -10 -17 -10 -31 0 -13 -6
-24 -12 -24 -10 0 -10 -2 0 -9 8 -4 13 -11 13 -15 -3 -19 1 -25 19 -31 11 -3
20 -11 20 -16 0 -6 -5 -7 -12 -3 -7 4 -8 3 -4 -5 9 -14 26 -5 26 15 0 8 7 14
15 14 8 0 15 7 15 15 0 8 7 15 15 15 8 0 15 5 15 10 0 6 21 34 48 62 47 51 93
78 131 78 20 0 21 -7 23 -172 l3 -172 35 -4 c19 -2 42 -8 52 -13 10 -5 18 -6
18 -2 0 5 17 8 37 7 36 -2 68 -27 57 -45 -3 -5 -2 -9 3 -9 4 0 6 -60 3 -134
-5 -132 -5 -135 -34 -165 -17 -17 -40 -31 -52 -31 -30 0 -34 -8 -25 -49 8 -41
37 -64 51 -41 8 13 10 12 10 -2 0 -10 -8 -18 -17 -19 -45 -2 -99 -19 -60 -19
10 0 17 -5 17 -11 0 -6 -6 -9 -12 -6 -7 2 -21 0 -30 -4 -12 -7 -18 -4 -23 12
-10 30 -25 10 -27 -33 -1 -26 -5 -35 -15 -31 -13 5 -17 16 -14 41 1 6 -5 12
-14 12 -18 0 -21 20 -2 21 6 0 2 4 -10 9 -17 7 -23 18 -23 40 l0 30 -59 0
c-33 0 -63 5 -66 11 -5 7 13 10 56 8 50 -2 64 0 64 12 0 16 -111 33 -177 27
-21 -2 -38 0 -38 4 0 8 16 12 33 9 4 0 7 37 7 84 0 81 -1 85 -22 85 -13 0 -33
3 -45 6 -22 6 -23 4 -23 -56 0 -51 3 -61 15 -56 8 3 15 1 15 -4 0 -6 -7 -10
-15 -10 -11 0 -15 -12 -15 -49 0 -28 5 -53 10 -56 6 -4 7 -12 3 -18 -4 -7 -6
-22 -4 -34 1 -14 -3 -23 -11 -23 -10 0 -9 -3 2 -10 21 -13 11 -19 -51 -27 -54
-8 -54 -8 -60 -48 l-6 -40 -2 48 c-1 40 -5 50 -21 54 -11 3 -20 9 -20 15 0 5
8 5 18 -1 17 -9 19 -6 17 42 -1 29 -3 150 -4 269 l-1 216 -32 10 c-18 6 -46
13 -62 17 l-29 6 8 -208 c5 -114 9 -218 9 -230 1 -17 7 -23 24 -23 12 0 22 5
22 11 0 8 4 8 15 -1 12 -10 14 -8 13 12 -2 46 2 78 10 78 9 0 8 -117 -1 -127
-4 -3 -7 -1 -7 5 0 7 -9 12 -20 12 -22 0 -26 -10 -9 -27 9 -9 7 -11 -9 -6 -11
3 -23 11 -26 19 -12 30 -23 11 -25 -43 -1 -31 -6 -64 -11 -74 -6 -10 -7 -31
-4 -48 6 -27 4 -31 -15 -31 -17 0 -21 6 -22 33 0 33 -11 70 -19 66 -3 -2 -14
2 -25 8 -16 10 -18 14 -7 24 9 10 12 10 12 1 0 -7 7 -12 15 -12 20 0 20 58 0
84 -8 11 -15 18 -16 15 -8 -46 -14 -57 -26 -45 -4 4 -1 11 7 16 13 8 12 10 -3
10 -38 0 -49 -26 -52 -131 -4 -99 -15 -153 -15 -71 0 37 -3 42 -23 42 -13 0
-28 5 -35 12 -9 9 -12 7 -12 -9 0 -11 -7 -26 -15 -33 -25 -21 -43 5 -50 76 -8
68 -20 88 -40 61 -10 -14 -28 -17 -91 -15 l-79 2 78 3 c80 4 104 19 40 26
l-38 4 43 1 c41 2 42 3 42 36 0 33 -1 34 -50 40 -28 4 -55 4 -60 1 -13 -8 -50
4 -50 16 0 5 7 9 15 9 22 0 21 76 -1 84 -31 12 -34 5 -34 -93 0 -54 -3 -113
-6 -130 -6 -28 -8 -30 -19 -14 -12 15 -12 14 -8 -11 4 -20 2 -27 -6 -22 -7 5
-11 -4 -11 -28 0 -29 -4 -36 -19 -36 -10 0 -21 -6 -24 -14 -4 -10 18 -25 78
-50 46 -20 87 -36 92 -36 5 0 17 -6 27 -13 15 -11 15 -17 6 -42 -7 -17 -12
-51 -11 -78 1 -43 -1 -47 -18 -38 -12 7 -22 6 -29 -1 -14 -14 -14 -13 -16 25
-1 19 3 27 15 27 9 0 22 7 29 15 11 13 8 15 -14 15 -20 0 -26 5 -27 23 l0 22
-11 -22 c-16 -32 -56 -36 -75 -6 -15 23 -16 23 -29 5 -13 -19 -69 -29 -58 -10
3 5 14 6 24 3 12 -4 19 1 24 17 12 46 9 48 -59 48 -57 0 -67 3 -90 28 -29 30
-116 204 -136 270 l-13 44 -13 -27 c-8 -14 -18 -23 -23 -20 -13 8 -13 45 1 45
6 0 9 14 7 32 -2 27 -8 34 -33 39 -16 4 -22 7 -12 8 10 0 15 6 12 11 -3 6 1
10 9 10 22 0 18 69 -4 72 -8 0 -19 2 -25 3 -5 2 -20 3 -32 4 -33 1 -28 21 7
34 l31 12 -3 100 -3 100 -50 1 c-27 1 -55 -1 -62 -3 -13 -5 -23 -66 -22 -142
0 -71 -24 -67 -27 5 -2 85 -19 53 -19 -38 0 -48 -4 -90 -8 -94 -4 -4 -7 -65
-7 -136 l0 -129 -105 3 -105 3 0 -27 c0 -23 -4 -28 -24 -28 -13 0 -31 10 -39
23 -14 19 -18 20 -26 7 -9 -13 -11 -12 -11 3 0 10 -4 15 -10 12 -5 -3 -10 1
-10 10 0 9 -5 13 -10 10 -6 -3 -12 0 -15 7 -10 24 -12 88 -3 89 4 1 13 2 18 3
19 2 11 18 -16 32 l-26 14 4 -70 c2 -39 0 -70 -4 -70 -4 0 -8 33 -8 74 0 68
-2 74 -22 80 -17 4 -28 -1 -40 -17 l-18 -22 0 27 c0 14 -3 33 -6 41 -4 12 0
14 18 11 16 -3 13 0 -9 11 -18 8 -33 19 -33 23 0 13 -147 75 -159 67 -8 -4
-11 29 -12 102 -1 311 1 437 10 446 5 5 41 7 80 5 l71 -3 0 34 c0 49 6 35 14
-31 4 -37 2 -58 -4 -58 -5 0 -10 9 -10 20 0 18 -7 20 -70 20 -66 0 -70 -1 -70
-22 0 -20 5 -23 40 -23 51 0 52 12 3 18 -23 2 -14 4 20 3 73 0 78 -22 7 -32
-28 -4 -50 -12 -50 -18 0 -6 -4 -5 -9 2 -13 21 -17 -21 -10 -103 3 -38 7 -56
8 -40 2 20 5 24 8 12 3 -11 11 -16 19 -13 8 3 14 1 14 -4 0 -6 9 -10 20 -10
11 0 20 -4 20 -10 0 -5 9 -10 20 -10 15 0 20 -7 21 -27 l1 -28 7 30 c5 19 12
29 22 27 59 -15 79 -14 79 2 0 9 5 16 10 16 6 0 10 4 10 10 0 5 -17 12 -37 15
-66 11 -69 13 -47 35 18 18 34 19 209 19 213 0 234 -1 233 -9 -1 -17 3 -30 11
-30 5 0 7 9 4 20 -3 11 0 20 6 20 6 0 11 -20 12 -47 1 -46 15 -122 18 -95 1 9
6 10 19 4 19 -10 68 -9 79 1 11 12 43 8 43 -5 0 -9 3 -9 9 1 6 9 30 15 63 17
29 1 59 3 66 3 7 1 12 14 12 31 0 44 20 37 21 -7 0 -21 3 -32 6 -25 2 6 15 12
28 12 31 0 56 10 50 20 -3 5 -1 11 5 15 5 3 10 1 10 -4 0 -19 29 -12 40 9 7
13 10 85 9 188 -1 134 2 167 13 167 7 0 11 -7 8 -15 -3 -8 -5 -64 -5 -125 0
-88 3 -110 14 -110 8 0 16 -6 19 -12 2 -7 -3 -13 -12 -13 -12 0 -16 -11 -16
-47 0 -63 12 -82 39 -66 11 7 27 10 35 7 9 -3 23 1 31 10 9 9 23 16 32 16 8 0
27 9 43 20 15 11 30 17 34 13 3 -3 6 1 6 11 0 9 5 14 10 11 19 -12 8 69 -12
88 -23 22 -23 33 0 42 15 6 15 8 -5 16 -15 5 -21 14 -17 24 4 8 1 21 -5 29
-18 21 -10 78 11 84 10 2 18 8 18 13 0 4 14 23 30 41 17 18 30 27 30 20 0 -10
3 -10 13 0 15 13 11 48 -5 48 -6 0 -7 7 -4 16 4 10 1 14 -6 12 -7 -3 -37 8
-67 24 -40 21 -63 27 -88 23 -28 -4 -33 -2 -33 14 0 11 -9 23 -20 26 -11 3
-20 10 -20 15 0 4 -20 15 -45 23 -25 9 -45 13 -45 11 0 -3 -7 1 -15 10 -9 8
-22 13 -30 10 -8 -4 -17 1 -21 9 -3 9 -12 13 -20 10 -8 -3 -14 1 -14 11 0 9
-8 16 -20 16 -11 0 -20 5 -20 10 0 6 -10 10 -22 10 -13 0 -33 13 -47 30 -25
33 -71 42 -71 14 0 -8 -5 -12 -10 -9 -6 4 -8 15 -5 24 3 10 0 23 -7 28 -14 11
-68 27 -80 25 -5 -1 -8 5 -8 13 0 8 -7 15 -15 15 -7 0 -18 7 -23 16 -10 17
-92 37 -92 23 0 -5 -5 -9 -12 -9 -9 0 -9 3 0 12 16 16 15 48 -1 48 -7 0 -29
12 -50 26 -29 19 -36 30 -32 45 4 12 2 19 -6 19 -14 0 -59 39 -59 51 0 5 8 6
18 2 13 -5 15 -3 5 7 -6 7 -22 14 -35 15 -36 4 -37 4 -36 23 0 9 -3 25 -7 35
-5 13 -2 17 11 17 16 0 17 2 4 10 -8 5 -11 10 -5 10 5 0 -1 7 -14 16 -13 9
-30 31 -37 48 -8 17 -24 45 -35 62 -20 32 -17 64 6 64 7 0 26 26 41 58 16 31
32 59 37 60 4 2 7 14 7 27 0 31 28 54 42 34 8 -12 9 -11 5 2 -6 18 -2 25 36
59 16 13 26 18 23 10 -4 -8 5 -28 19 -44 14 -16 25 -36 25 -43 0 -11 8 -8 29
9 18 14 28 29 25 39 -6 21 24 33 43 18 7 -7 17 -9 20 -5 4 4 1 11 -7 16 -18
11 -21 28 -23 138 -2 87 -1 93 18 90 11 -1 27 2 35 7 8 5 33 19 55 30 26 13
39 26 37 37 -2 13 9 18 55 23 32 4 84 20 116 36 32 16 63 29 70 29 30 0 153
72 172 100 14 20 31 32 55 36 111 19 164 54 214 139 14 23 48 62 76 85 32 26
49 48 46 57 -3 8 -2 11 4 8 5 -3 31 22 57 55 26 33 53 60 59 60 5 0 35 -30 65
-66z m-311 -54 c0 -5 -7 -10 -16 -10 -8 0 -12 5 -9 10 3 6 10 10 16 10 5 0 9
-4 9 -10z m708 -114 c-2 -13 -10 -21 -23 -21 -23 0 -33 34 -14 45 20 13 40 -1
37 -24z m764 -68 c-9 -9 -12 -7 -12 12 0 19 3 21 12 12 9 -9 9 -15 0 -24z
m-1924 -177 c-4 -20 -48 -28 -48 -9 0 20 20 37 37 31 8 -3 13 -13 11 -22z
m1552 -1 c0 -5 -5 -10 -11 -10 -5 0 -7 5 -4 10 3 6 8 10 11 10 2 0 4 -4 4 -10z
m-2336 -34 c-6 -15 -24 -23 -24 -11 0 8 24 34 28 30 1 -1 0 -10 -4 -19z m500
15 c3 -5 -1 -11 -9 -14 -9 -4 -12 -1 -8 9 6 16 10 17 17 5z m134 -59 c-4 -2
-6 -8 -2 -13 3 -5 -2 -9 -12 -9 -11 0 -15 6 -11 20 3 11 2 18 -3 15 -11 -7
-21 22 -14 40 5 11 12 7 28 -18 12 -17 19 -34 14 -35z m-75 -14 c8 -5 7 -8 -3
-8 -21 0 -39 19 -34 36 14 45 18 48 22 14 2 -19 9 -38 15 -42z m-92 19 c-10
-9 -11 -8 -5 6 3 10 9 15 12 12 3 -3 0 -11 -7 -18z m30 -4 c-12 -20 -14 -14
-5 12 4 9 9 14 11 11 3 -2 0 -13 -6 -23z m99 -13 c0 -5 -5 -10 -11 -10 -5 0
-7 5 -4 10 3 6 8 10 11 10 2 0 4 -4 4 -10z m77 -6 c-3 -3 -12 -4 -19 -1 -8 3
-5 6 6 6 11 1 17 -2 13 -5z m1683 -4 c0 -5 -5 -10 -11 -10 -5 0 -7 5 -4 10 3
6 8 10 11 10 2 0 4 -4 4 -10z m867 -6 c-3 -3 -12 -4 -19 -1 -8 3 -5 6 6 6 11
1 17 -2 13 -5z m-2957 -14 c0 -5 -4 -10 -10 -10 -5 0 -10 5 -10 10 0 6 5 10
10 10 6 0 10 -4 10 -10z m2907 -16 c-3 -3 -12 -4 -19 -1 -8 3 -5 6 6 6 11 1
17 -2 13 -5z m46 -1 c-7 -2 -19 -2 -25 0 -7 3 -2 5 12 5 14 0 19 -2 13 -5z
m-593 -17 c0 -8 -7 -16 -15 -20 -15 -5 -21 14 -8 27 11 12 23 8 23 -7z m545
-26 c-10 -11 -21 -17 -24 -14 -3 3 3 12 13 20 28 20 32 17 11 -6z m-62 3 c-7
-2 -19 -2 -25 0 -7 3 -2 5 12 5 14 0 19 -2 13 -5z m202 -43 c4 -7 -45 -9 -142
-8 l-148 2 140 6 c77 3 141 7 142 8 1 1 5 -2 8 -8z m-3251 -31 c-7 -11 -34
-12 -34 -1 0 14 11 21 26 15 8 -3 11 -9 8 -14z m2669 14 c-24 -2 -43 -8 -43
-14 0 -5 19 -9 43 -10 23 0 36 -3 30 -6 -25 -9 -14 -30 13 -25 18 3 22 7 13
13 -10 6 -8 8 6 7 13 -1 21 -9 21 -20 0 -14 -8 -18 -36 -19 -19 0 -50 -2 -67
-3 -33 -4 -33 -3 -33 40 l0 44 48 -2 47 -1 -42 -4z m-2349 -57 c-16 -19 -36
-34 -44 -33 -9 1 -16 -8 -18 -25 -2 -16 -8 -25 -15 -22 -17 6 -134 -126 -143
-160 -4 -18 -25 -39 -62 -62 -73 -47 -93 -55 -68 -26 18 21 18 22 -9 32 -14 5
-31 8 -36 5 -5 -4 -4 6 1 20 6 15 10 28 10 31 0 12 -23 1 -55 -27 -24 -21 -41
-29 -53 -24 -15 6 -13 9 11 21 15 8 27 19 27 24 0 6 5 10 11 10 17 0 50 42 45
57 -7 18 11 26 34 13 11 -6 20 -7 20 -2 0 5 6 9 13 9 19 0 147 64 147 74 0 5
5 9 11 9 5 0 7 -4 4 -10 -3 -5 -4 -10 0 -10 3 0 10 12 15 26 6 16 16 24 24 21
10 -4 12 0 9 14 -3 10 0 19 6 19 6 0 12 -8 12 -17 1 -17 2 -17 6 0 2 10 10 17
16 16 21 -2 57 13 57 24 0 6 3 7 7 4 3 -4 13 2 21 14 8 11 16 18 19 15 3 -3
-7 -21 -23 -40z m-94 9 c0 -8 -4 -15 -10 -15 -5 0 -10 7 -10 15 0 8 5 15 10
15 6 0 10 -7 10 -15z m2680 4 c0 -4 3 -16 6 -26 6 -14 4 -16 -6 -6 -7 6 -18 9
-25 6 -9 -3 -12 2 -9 15 5 17 34 27 34 11z m245 1 c-3 -5 -14 -10 -23 -10 -15
0 -15 2 -2 10 20 13 33 13 25 0z m-3795 -10 c0 -5 -2 -10 -4 -10 -3 0 -8 5
-11 10 -3 6 -1 10 4 10 6 0 11 -4 11 -10z m3487 4 c-3 -3 -12 -4 -19 -1 -8 3
-5 6 6 6 11 1 17 -2 13 -5z m1 -19 c-9 -9 -68 -12 -68 -4 0 5 17 9 37 9 20 0
34 -2 31 -5z m65 -31 c-7 -3 -9 -12 -6 -20 4 -11 -8 -14 -63 -13 -66 1 -68 1
-39 14 l30 13 -30 5 c-16 2 4 4 45 5 41 0 70 -2 63 -4z m47 -9 c0 -8 -7 -15
-15 -15 -16 0 -20 12 -8 23 11 12 23 8 23 -8z m43 -1 c11 -11 -3 -24 -18 -18
-8 4 -12 10 -9 15 6 11 18 12 27 3z m-3003 -34 c0 -5 -7 -10 -16 -10 -8 0 -12
5 -9 10 3 6 10 10 16 10 5 0 9 -4 9 -10z m2997 -23 c-1 -5 -7 -8 -12 -7 -5 1
-12 -7 -16 -17 -7 -17 -8 -17 -8 0 -1 10 -9 17 -20 17 -11 0 -22 4 -25 9 -3 5
14 8 39 7 25 0 44 -5 42 -9z m156 -44 c-7 -2 -19 -2 -25 0 -7 3 -2 5 12 5 14
0 19 -2 13 -5z m-3285 -24 c-2 -6 -8 -10 -13 -10 -5 0 -11 4 -13 10 -2 6 4 11
13 11 9 0 15 -5 13 -11z m3095 -60 c-35 -7 -39 -4 -22 14 11 11 18 12 32 3 16
-10 15 -12 -10 -17z m186 -8 c-15 -5 -22 6 -14 19 6 9 10 9 16 -1 5 -8 4 -15
-2 -18z m67 -98 c-10 -10 -19 5 -10 18 6 11 8 11 12 0 2 -7 1 -15 -2 -18z
m-3666 -53 c0 -16 -2 -30 -4 -30 -2 0 -6 14 -8 30 -3 17 -1 30 4 30 4 0 8 -13
8 -30z m75 10 c3 -5 1 -10 -4 -10 -6 0 -11 5 -11 10 0 6 2 10 4 10 3 0 8 -4
11 -10z m42 -55 c-32 -30 -60 -55 -62 -55 -16 0 -1 42 20 56 14 9 22 20 19 25
-3 5 2 6 10 3 9 -3 16 -1 16 4 0 10 18 18 45 21 5 0 -16 -24 -48 -54z m-115
-20 c3 -13 1 -22 -3 -19 -9 5 -13 44 -5 44 2 0 6 -11 8 -25z m3548 -17 c0 -6
-7 -5 -15 2 -8 7 -15 17 -15 22 0 6 7 5 15 -2 8 -7 15 -17 15 -22z m-3595 12
c3 -5 1 -10 -4 -10 -6 0 -11 5 -11 10 0 6 2 10 4 10 3 0 8 -4 11 -10z m3795
-71 c-25 -66 -40 -92 -40 -69 0 8 -22 26 -49 39 -48 22 -130 95 -86 75 11 -5
55 -9 97 -11 62 -1 78 1 82 14 4 9 9 14 12 11 2 -3 -4 -30 -16 -59z m-3742
-234 l-1 -50 -4 45 c-3 24 -9 50 -14 56 -5 6 -6 14 -2 18 13 12 23 -19 21 -69z
m366 -41 c10 -25 -1 -29 -14 -5 -6 12 -7 21 -1 21 5 0 12 -7 15 -16z m-339
-14 c3 -5 1 -10 -4 -10 -6 0 -11 5 -11 10 0 6 2 10 4 10 3 0 8 -4 11 -10z m-7
-83 c8 -28 8 -37 0 -35 -6 2 -13 21 -15 43 -3 46 1 43 15 -8z m606 2 c-3 -5
-10 -7 -15 -3 -5 3 -7 10 -3 15 3 5 10 7 15 3 5 -3 7 -10 3 -15z m-50 -50 c-8
-14 -24 -10 -24 6 0 9 6 12 15 9 8 -4 12 -10 9 -15z m-474 -12 c49 -24 57 -41
59 -129 1 -33 5 -47 14 -45 7 1 13 -12 15 -33 3 -25 14 -44 39 -67 27 -25 34
-38 29 -55 -3 -13 -6 -67 -6 -120 0 -75 -3 -96 -13 -92 -9 3 -13 36 -16 112
-1 58 -5 110 -7 114 -3 5 2 8 11 8 10 0 3 13 -23 38 -34 32 -41 47 -52 107 -8
39 -15 79 -16 90 -1 11 -3 21 -4 23 -2 1 -3 7 -4 13 0 6 -21 22 -46 35 -57 29
-40 30 20 1z m380 9 c0 -3 -4 -8 -10 -11 -5 -3 -10 -1 -10 4 0 6 5 11 10 11 6
0 10 -2 10 -4z m345 -6 c3 -5 -1 -10 -10 -10 -9 0 -13 5 -10 10 3 6 8 10 10
10 2 0 7 -4 10 -10z m75 -20 c0 -5 -2 -10 -4 -10 -3 0 -8 5 -11 10 -3 6 -1 10
4 10 6 0 11 -4 11 -10z m2249 -51 c-7 -14 -14 -18 -21 -11 -13 13 -2 32 18 32
12 0 13 -4 3 -21z m-249 -9 c13 -8 13 -10 -2 -10 -9 0 -20 5 -23 10 -8 13 5
13 25 0z m808 -147 c-2 -156 -2 -156 -5 -33 -3 138 -13 169 -52 171 l-26 1 25
8 c62 20 60 25 58 -147z m-703 138 c3 -5 1 -12 -5 -16 -5 -3 -10 1 -10 9 0 18
6 21 15 7z m572 3 c-3 -3 -12 -4 -19 -1 -8 3 -5 6 6 6 11 1 17 -2 13 -5z
m-314 -11 c-31 -3 -44 -9 -48 -24 -8 -24 -25 -25 -25 -1 0 28 9 32 64 30 50
-1 50 -2 9 -5z m-2433 -53 c0 -5 -4 -10 -10 -10 -5 0 -10 5 -10 10 0 6 5 10
10 10 6 0 10 -4 10 -10z m-486 -8 c-6 -4 -14 -14 -17 -22 -4 -10 -6 -8 -6 8
-1 15 5 22 17 22 10 0 13 -3 6 -8z m323 -34 c-3 -7 -5 -2 -5 12 0 14 2 19 5
13 2 -7 2 -19 0 -25z m503 12 c0 -5 -2 -10 -4 -10 -3 0 -8 5 -11 10 -3 6 -1
10 4 10 6 0 11 -4 11 -10z m1550 -25 c0 -8 -4 -15 -10 -15 -5 0 -10 7 -10 15
0 8 5 15 10 15 6 0 10 -7 10 -15z m100 -5 c0 -5 -4 -10 -10 -10 -5 0 -10 5
-10 10 0 6 5 10 10 10 6 0 10 -4 10 -10z m-1915 -10 c3 -5 1 -10 -4 -10 -6 0
-11 5 -11 10 0 6 2 10 4 10 3 0 8 -4 11 -10z m2955 -15 c-7 -8 -18 -15 -24
-15 -6 0 -2 7 8 15 25 19 32 19 16 0z m-2595 -5 c-3 -5 -11 -10 -16 -10 -6 0
-7 5 -4 10 3 6 11 10 16 10 6 0 7 -4 4 -10z m2298 3 c-7 -2 -19 -2 -25 0 -7 3
-2 5 12 5 14 0 19 -2 13 -5z m-165 -33 c11 -18 10 -20 -10 -20 -13 0 -33 -3
-45 -6 -18 -5 -23 -2 -24 12 0 15 -2 15 -6 4 -3 -8 -11 -18 -17 -22 -16 -11
-56 -10 -56 2 0 6 10 10 23 11 21 1 21 1 -3 8 -21 6 -16 9 29 15 41 6 55 5 62
-5 7 -11 9 -10 9 4 0 23 22 22 38 -3z m150 3 c-10 -2 -28 -2 -40 0 -13 2 -5 4
17 4 22 1 32 -1 23 -4z m282 -8 c-7 -9 -15 -13 -17 -11 -7 7 7 26 19 26 6 0 6
-6 -2 -15z m-910 -25 c0 -5 -5 -10 -11 -10 -5 0 -7 5 -4 10 3 6 8 10 11 10 2
0 4 -4 4 -10z m610 -32 c0 -23 -3 -29 -9 -19 -7 11 -9 11 -14 0 -3 -8 -6 1 -6
19 -1 22 4 32 14 32 10 0 15 -10 15 -32z m-3013 16 c-3 -3 -12 -4 -19 -1 -8 3
-5 6 6 6 11 1 17 -2 13 -5z m56 -1 c-7 -2 -21 -2 -30 0 -10 3 -4 5 12 5 17 0
24 -2 18 -5z m2872 -3 c-3 -5 -2 -10 4 -10 5 0 12 6 14 13 7 17 27 -11 20 -29
-7 -19 -33 -26 -33 -8 0 13 -2 13 -16 -1 -14 -13 -19 -14 -25 -3 -7 10 -11 10
-21 0 -21 -21 -40 -15 -32 11 9 31 14 34 24 17 6 -9 10 -10 10 -3 0 10 11 15
53 22 5 0 5 -3 2 -9z m372 -42 c-2 -13 -4 -5 -4 17 -1 22 1 32 4 23 2 -10 2
-28 0 -40z m-3340 26 c-3 -3 -12 -4 -19 -1 -8 3 -5 6 6 6 11 1 17 -2 13 -5z
m1853 -4 c0 -5 -4 -10 -10 -10 -5 0 -10 5 -10 10 0 6 5 10 10 10 6 0 10 -4 10
-10z m1008 -13 c-3 -19 -10 -22 -50 -23 -39 -1 -46 1 -45 16 1 10 4 17 7 15 3
-2 12 0 19 4 7 4 26 8 42 9 26 1 30 -3 27 -21z m-578 3 c0 -5 -4 -10 -10 -10
-5 0 -10 5 -10 10 0 6 5 10 10 10 6 0 10 -4 10 -10z m-2377 -7 c-7 -2 -19 -2
-25 0 -7 3 -2 5 12 5 14 0 19 -2 13 -5z m50 0 c-7 -2 -19 -2 -25 0 -7 3 -2 5
12 5 14 0 19 -2 13 -5z m54 1 c-3 -3 -12 -4 -19 -1 -8 3 -5 6 6 6 11 1 17 -2
13 -5z m943 -2 c0 -13 -12 -22 -22 -16 -10 6 -1 24 13 24 5 0 9 -4 9 -8z
m1590 -2 c0 -5 -4 -10 -10 -10 -5 0 -10 5 -10 10 0 6 5 10 10 10 6 0 10 -4 10
-10z m-2157 -7 c-7 -2 -19 -2 -25 0 -7 3 -2 5 12 5 14 0 19 -2 13 -5z m1537
-3 c0 -5 -2 -10 -4 -10 -3 0 -8 5 -11 10 -3 6 -1 10 4 10 6 0 11 -4 11 -10z
m-1953 -6 c-3 -3 -12 -4 -19 -1 -8 3 -5 6 6 6 11 1 17 -2 13 -5z m90 0 c-3 -3
-12 -4 -19 -1 -8 3 -5 6 6 6 11 1 17 -2 13 -5z m2013 -4 c0 -5 -5 -10 -11 -10
-5 0 -7 5 -4 10 3 6 8 10 11 10 2 0 4 -4 4 -10z m-1160 -20 c0 -5 -2 -10 -4
-10 -3 0 -8 5 -11 10 -3 6 -1 10 4 10 6 0 11 -4 11 -10z m2200 -20 c-14 -4
-38 -8 -55 -8 -25 -1 -27 1 -10 8 11 5 36 8 55 8 32 0 33 -1 10 -8z m-3050
-10 c0 -12 -98 -12 -155 -1 -32 7 -21 9 58 10 59 1 97 -3 97 -9z m1950 -4 c0
-3 -4 -8 -10 -11 -5 -3 -10 -1 -10 4 0 6 5 11 10 11 6 0 10 -2 10 -4z m998
-17 c2 -11 -8 -15 -35 -17 l-38 -2 25 20 c27 21 43 21 48 -1z m62 1 c0 -5 -8
-10 -17 -10 -15 0 -16 2 -3 10 19 12 20 12 20 0z m225 0 c3 -6 -1 -7 -9 -4
-18 7 -21 14 -7 14 6 0 13 -4 16 -10z m61 -21 c-4 -29 -26 -65 -26 -44 0 12
23 75 28 75 2 0 1 -14 -2 -31z m-2638 3 c2 -7 -3 -12 -12 -12 -9 0 -16 7 -16
16 0 17 22 14 28 -4z m2478 -87 c-3 -8 -37 -13 -116 -14 -61 -1 -166 -6 -233
-11 -67 -5 -125 -10 -129 -10 -5 0 -8 16 -8 35 0 42 6 43 40 10 l27 -26 146 7
c124 6 144 9 129 20 -15 12 -13 13 18 14 26 0 31 -3 20 -10 -11 -7 -4 -10 25
-10 28 0 36 3 26 9 -12 8 -12 12 -2 25 7 9 17 13 22 10 5 -3 9 2 9 11 0 9 5
13 10 10 6 -3 11 2 12 12 1 10 3 -2 5 -26 3 -24 2 -49 -1 -56z m-321 75 c-3
-5 -14 -10 -23 -10 -15 0 -15 2 -2 10 20 13 33 13 25 0z m-67 -55 c0 -14 -4
-25 -9 -25 -10 0 -11 12 -3 34 9 22 12 20 12 -9z m-288 5 c0 -5 -4 -10 -10
-10 -5 0 -10 5 -10 10 0 6 5 10 10 10 6 0 10 -4 10 -10z m-2476 -15 c-4 -9 -1
-15 7 -15 8 0 9 -3 4 -8 -6 -4 -53 -5 -105 -2 -57 3 -90 8 -82 13 7 5 19 6 27
3 8 -3 15 -1 15 4 0 5 -12 11 -27 13 -16 2 16 5 69 6 83 1 97 -1 92 -14z m136
5 c0 -10 -105 -8 -116 3 -4 4 20 7 54 7 34 0 62 -4 62 -10z m2190 -4 c0 -3 -4
-8 -10 -11 -5 -3 -10 -1 -10 4 0 6 5 11 10 11 6 0 10 -2 10 -4z m-1715 -25 c7
-12 -12 -24 -25 -16 -11 7 -4 25 10 25 5 0 11 -4 15 -9z m1295 -1 c0 -5 -5
-10 -11 -10 -5 0 -7 5 -4 10 3 6 8 10 11 10 2 0 4 -4 4 -10z m-995 -30 c17
-34 18 -40 6 -40 -5 0 -11 8 -14 18 -2 9 -8 25 -12 35 -12 28 3 19 20 -13z
m940 16 c8 -7 11 -16 8 -19 -5 -6 -33 17 -33 27 0 10 11 7 25 -8z m1425 4 c0
-5 -2 -10 -4 -10 -3 0 -8 5 -11 10 -3 6 -1 10 4 10 6 0 11 -4 11 -10z m-3360
-18 c0 -10 -9 -13 -35 -10 -19 2 -35 0 -35 -4 0 -4 63 -8 140 -8 87 0 140 -4
140 -10 0 -6 -58 -10 -155 -10 -97 0 -155 4 -155 10 0 6 6 10 13 11 10 0 10 2
0 6 -7 2 -13 11 -13 19 0 11 12 14 50 13 36 -2 50 -6 50 -17z m195 -2 c-3 -5
-44 -9 -90 -9 -75 1 -95 6 -81 20 8 8 176 -3 171 -11z m325 4 c0 -8 -4 -12
-10 -9 -5 3 -10 10 -10 16 0 5 5 9 10 9 6 0 10 -7 10 -16z m2643 -9 c-3 -9 -8
-14 -10 -11 -3 3 -2 9 2 15 9 16 15 13 8 -4z m174 -42 c-15 -21 -36 -44 -47
-51 -27 -17 -18 -30 17 -26 17 2 20 1 8 -3 -65 -18 -125 -46 -125 -58 0 -8 8
-11 23 -8 13 3 18 1 11 -4 -14 -11 -25 -53 -13 -53 15 0 10 -27 -6 -34 -17 -6
-22 -111 -5 -121 14 -9 13 -68 -2 -83 -9 -9 -7 -12 10 -12 25 0 31 -33 10 -54
-18 -17 -57 -26 -64 -15 -3 5 -10 7 -15 4 -5 -4 -9 8 -9 25 0 23 5 33 20 37
16 4 20 14 20 49 0 32 -4 44 -15 44 -11 0 -15 -11 -15 -37 0 -22 -4 -33 -8
-26 -6 9 -12 7 -25 -7 -21 -25 -21 -30 -2 -30 12 0 14 -4 7 -16 -5 -9 -7 -25
-5 -35 3 -11 1 -19 -5 -19 -6 0 -13 12 -15 28 -4 25 -4 25 -6 -5 -1 -22 -6
-33 -16 -33 -13 0 -15 7 -9 38 4 20 12 40 18 44 15 10 -16 20 -51 16 -28 -3
-28 -4 -27 -71 1 -80 13 -75 -166 -79 -114 -3 -128 -6 -148 -26 -27 -27 -42
-28 -42 -2 0 18 -7 20 -66 20 -42 0 -70 -5 -79 -14 -8 -7 -12 -16 -9 -19 3 -3
1 -8 -5 -12 -7 -3 -11 2 -11 14 0 11 -4 22 -9 26 -6 3 -8 -4 -6 -15 2 -12 -1
-20 -9 -20 -31 0 -38 29 -37 150 1 74 -3 120 -9 120 -16 0 -12 30 7 48 9 9 18
16 20 15 10 -8 1 15 -12 30 -8 9 -11 17 -6 17 5 0 17 -12 26 -27 17 -26 19
-26 26 -8 4 11 5 68 2 126 l-5 106 225 7 c123 4 239 11 258 16 18 6 42 7 52 4
16 -5 18 -13 12 -69 -4 -34 -8 -93 -9 -130 -2 -58 1 -69 16 -73 10 -2 18 -9
18 -14 0 -6 7 -7 16 -4 8 3 12 2 9 -3 -3 -5 -1 -12 5 -16 5 -3 10 -1 10 4 0 6
7 11 15 11 9 0 15 9 15 24 0 28 26 41 48 24 12 -10 14 -10 8 0 -4 6 -2 12 3
12 7 0 11 30 11 79 l0 78 93 81 c50 44 94 78 96 76 2 -2 -8 -21 -22 -41z
m-949 20 c2 -8 -5 -13 -17 -13 -12 0 -21 6 -21 16 0 18 31 15 38 -3z m-2118
-3 c0 -5 -9 -10 -19 -10 -11 0 -23 5 -26 10 -4 6 5 10 19 10 14 0 26 -4 26
-10z m40 0 c0 -5 -7 -10 -15 -10 -8 0 -15 5 -15 10 0 6 7 10 15 10 8 0 15 -4
15 -10z m90 1 c0 -5 -18 -9 -40 -9 -22 0 -40 3 -40 9 0 5 18 9 40 9 22 0 40
-4 40 -9z m2730 -5 c0 -3 -4 -8 -10 -11 -5 -3 -10 -1 -10 4 0 6 5 11 10 11 6
0 10 -2 10 -4z m-2980 -30 c0 -11 -14 -13 -57 -11 -32 2 -88 3 -125 4 -38 1
-68 5 -68 11 0 6 48 10 125 10 100 0 125 -3 125 -14z m920 0 c0 -20 -19 -31
-32 -18 -6 6 -7 15 -4 21 10 16 36 13 36 -3z m880 -6 c0 -5 -2 -10 -4 -10 -3
0 -8 5 -11 10 -3 6 -1 10 4 10 6 0 11 -4 11 -10z m-2103 -16 c-3 -3 -12 -4
-19 -1 -8 3 -5 6 6 6 11 1 17 -2 13 -5z m846 -23 c6 -26 -1 -33 -24 -20 -10 5
-16 16 -13 24 9 21 31 19 37 -4z m-903 -13 c0 -18 -2 -20 -9 -8 -6 8 -7 18 -5
22 9 14 14 9 14 -14z m30 3 c0 -6 -4 -13 -10 -16 -5 -3 -10 1 -10 9 0 9 5 16
10 16 6 0 10 -4 10 -9z m3553 2 c-7 -2 -19 -2 -25 0 -7 3 -2 5 12 5 14 0 19
-2 13 -5z m-3522 -26 c-10 -9 -11 -8 -5 6 3 10 9 15 12 12 3 -3 0 -11 -7 -18z
m609 3 c0 -5 -4 -10 -10 -10 -5 0 -10 5 -10 10 0 6 5 10 10 10 6 0 10 -4 10
-10z m298 -31 c-2 -6 -8 -10 -13 -10 -5 0 -11 4 -13 10 -2 6 4 11 13 11 9 0
15 -5 13 -11z m1156 3 c3 -5 -1 -9 -9 -9 -8 0 -15 4 -15 9 0 4 4 8 9 8 6 0 12
-4 15 -8z m337 -55 c-1 -12 -15 -9 -19 4 -3 6 1 10 8 8 6 -3 11 -8 11 -12z
m89 -11 c0 -3 -4 -8 -10 -11 -5 -3 -10 -1 -10 4 0 6 5 11 10 11 6 0 10 -2 10
-4z m40 -75 c0 -6 -4 -13 -10 -16 -5 -3 -10 1 -10 9 0 9 5 16 10 16 6 0 10 -4
10 -9z m-1930 -275 c0 -2 -9 -6 -20 -9 -11 -3 -20 -1 -20 4 0 5 9 9 20 9 11 0
20 -2 20 -4z m1430 -20 c0 -11 -19 -15 -25 -6 -3 5 1 10 9 10 9 0 16 -2 16 -4z
m-1450 -76 c0 10 3 11 11 3 6 -6 9 -36 7 -72 -2 -35 1 -63 7 -65 6 -3 -3 -5
-20 -5 l-30 -1 3 77 c3 50 7 72 13 62 7 -12 9 -12 9 1z m2640 -39 c0 -6 -4
-13 -10 -16 -5 -3 -10 1 -10 9 0 9 5 16 10 16 6 0 10 -4 10 -9z m-1440 -29 c0
-15 -2 -15 -10 -2 -13 20 -13 33 0 25 6 -3 10 -14 10 -23z m1064 1 c-22 -91
-101 -241 -162 -305 -23 -25 -33 -28 -89 -28 -49 0 -63 -3 -63 -15 0 -8 -4
-15 -10 -15 -5 0 -10 5 -10 10 0 15 -50 12 -51 -2 0 -10 -2 -10 -6 0 -2 6 -14
12 -25 12 -15 0 -18 -4 -13 -22 4 -13 12 -27 18 -33 7 -7 8 -6 4 1 -4 7 6 14
25 18 40 8 45 2 20 -24 -17 -18 -23 -19 -46 -9 -20 10 -29 10 -38 1 -7 -7 -17
-12 -23 -12 -21 0 -55 41 -55 65 0 20 8 26 47 37 36 10 49 19 54 38 5 16 7 19
8 8 1 -10 5 -18 10 -18 14 0 76 47 74 56 -1 6 13 10 30 10 21 0 53 14 90 38
71 47 200 175 193 192 -5 13 2 24 16 24 5 0 5 -12 2 -27z m496 -3 c0 -11 -4
-20 -10 -20 -5 0 -10 9 -10 20 0 11 5 20 10 20 6 0 10 -9 10 -20z m-3220 -9
c0 -11 -4 -22 -8 -25 -14 -9 -35 12 -29 28 9 23 37 20 37 -3z m1905 -1 c3 -5
-1 -10 -10 -10 -9 0 -13 5 -10 10 3 6 8 10 10 10 2 0 7 -4 10 -10z m-1970 -20
c3 -5 1 -10 -4 -10 -6 0 -11 5 -11 10 0 6 2 10 4 10 3 0 8 -4 11 -10z m2022
-16 c-3 -3 -12 -4 -19 -1 -8 3 -5 6 6 6 11 1 17 -2 13 -5z m-2027 -14 c0 -5
-7 -10 -15 -10 -8 0 -15 5 -15 10 0 6 7 10 15 10 8 0 15 -4 15 -10z m80 0 c0
-5 -7 -10 -16 -10 -10 0 -14 -5 -10 -16 3 -8 2 -12 -4 -9 -19 12 -11 45 10 45
11 0 20 -4 20 -10z m1702 -22 c-7 -7 -12 -8 -12 -2 0 6 3 14 7 17 3 4 9 5 12
2 2 -3 -1 -11 -7 -17z m-1207 2 c-3 -5 1 -10 9 -10 11 0 16 -9 16 -26 0 -24
-2 -25 -32 -19 -18 4 -39 13 -47 21 -13 11 -12 14 5 19 10 4 26 10 34 15 20
12 22 12 15 0z m638 3 c-7 -2 -21 -2 -30 0 -10 3 -4 5 12 5 17 0 24 -2 18 -5z
m504 -50 c-3 -10 -5 -4 -5 12 0 17 2 24 5 18 2 -7 2 -21 0 -30z m1449 11 c-6
-31 -16 -45 -16 -21 0 18 10 47 16 47 3 0 2 -12 0 -26z m-3102 -15 c-3 -5 -10
-7 -15 -3 -5 3 -7 10 -3 15 3 5 10 7 15 3 5 -3 7 -10 3 -15z m1256 -19 c0 -18
-6 -20 -57 -18 l-58 1 55 7 c54 7 53 7 -30 10 l-85 4 75 6 c41 4 81 7 88 8 6
1 12 -7 12 -18z m240 16 c0 -3 -4 -8 -10 -11 -5 -3 -10 -1 -10 4 0 6 5 11 10
11 6 0 10 -2 10 -4z m621 -45 c-25 -66 -99 -170 -125 -176 -31 -7 -166 -11
-166 -5 0 3 29 18 63 33 35 15 76 39 92 52 l30 25 -74 -7 c-58 -5 -72 -3 -66
6 14 24 66 39 99 30 59 -17 74 -12 113 41 20 28 41 50 45 50 4 0 0 -22 -11
-49z m-576 11 c-6 -7 -35 -12 -35 -7 0 2 3 11 6 19 5 13 9 14 20 5 8 -7 12
-14 9 -17z m-1565 14 c0 -3 -4 -8 -10 -11 -5 -3 -10 -1 -10 4 0 6 5 11 10 11
6 0 10 -2 10 -4z m474 -11 c3 -9 0 -15 -8 -15 -7 0 -28 -3 -45 -6 -27 -6 -31
-4 -31 15 0 18 6 21 39 21 25 0 41 -5 45 -15z m79 0 c4 -9 -6 -23 -26 -37 -29
-20 -30 -20 -14 -2 9 11 17 28 17 37 0 21 16 22 23 2z m1330 -2 c-7 -2 -19 -2
-25 0 -7 3 -2 5 12 5 14 0 19 -2 13 -5z m457 -3 c21 -7 18 -8 -18 -9 -26 -1
-41 3 -37 9 7 11 19 11 55 0z m-2113 -61 c4 -1 10 -3 12 -5 2 -2 -12 -4 -32
-4 -23 0 -37 5 -37 13 0 6 -3 23 -7 37 -6 24 -5 23 25 -8 17 -18 35 -33 39
-33z m-222 41 c3 -5 2 -10 -4 -10 -5 0 -13 5 -16 10 -3 6 -2 10 4 10 5 0 13
-4 16 -10z m1275 2 c0 -4 -19 -6 -42 -4 -71 5 -77 10 -15 11 31 0 57 -2 57 -7z
m617 -18 c-3 -3 -12 -4 -19 -1 -8 3 -5 6 6 6 11 1 17 -2 13 -5z m410 0 c-3 -3
-12 -4 -19 -1 -8 3 -5 6 6 6 11 1 17 -2 13 -5z m-1014 -10 c42 -7 50 -21 12
-21 -14 0 -25 3 -25 8 0 4 -26 10 -57 12 -51 3 -53 3 -13 5 25 1 62 -1 83 -4z
m384 -51 c-3 -10 -5 -2 -5 17 0 19 2 27 5 18 2 -10 2 -26 0 -35z m-542 7 c-27
-12 -35 -12 -35 0 0 6 12 10 28 9 24 0 25 -1 7 -9z m185 -5 c0 -8 -7 -15 -15
-15 -8 0 -15 7 -15 15 0 8 7 15 15 15 8 0 15 -7 15 -15z m984 0 c-4 -8 -8 -15
-10 -15 -2 0 -4 7 -4 15 0 8 4 15 10 15 5 0 7 -7 4 -15z m-1074 -5 c-20 -13
-50 -13 -50 0 0 6 15 10 33 10 24 0 28 -3 17 -10z m335 -75 c11 0 25 3 30 6
19 12 75 2 95 -16 16 -14 17 -20 8 -27 -14 -8 17 -13 62 -8 64 6 75 4 78 -11
4 -21 -56 -32 -122 -23 -31 5 -46 3 -46 -5 0 -7 21 -11 55 -11 59 0 72 -14 29
-30 -23 -9 -26 -15 -20 -40 3 -17 1 -30 -4 -30 -6 0 -10 -10 -10 -22 0 -17 -3
-19 -12 -10 -26 26 -30 10 -4 -17 21 -22 26 -33 18 -46 -6 -11 -12 -14 -16 -7
-4 6 -13 9 -21 6 -21 -8 -8 -24 18 -24 19 0 17 -3 -12 -21 -29 -18 -44 -20
-115 -14 -44 3 -108 8 -141 9 -79 5 -77 5 -70 16 3 5 12 7 19 4 7 -3 18 1 25
9 21 26 -29 30 -59 4 l-25 -22 21 25 c29 34 40 55 26 46 -8 -4 -12 0 -12 11 0
11 -5 24 -12 31 -8 8 -8 12 -1 12 6 0 10 17 9 39 0 22 -3 39 -6 39 -24 -2 -32
4 -27 21 4 16 -2 20 -39 26 -29 4 -48 13 -55 26 -14 27 -8 32 27 18 58 -22 74
-21 75 3 1 17 2 19 6 6 5 -20 33 -25 33 -7 0 6 6 9 13 6 8 -3 20 3 27 14 10
13 17 15 27 7 7 -6 13 -9 14 -7 0 2 2 12 4 22 5 25 15 34 15 14 0 -47 59 -22
62 26 1 30 1 29 7 -8 5 -31 10 -40 26 -40z m-300 44 c5 -6 -10 -9 -44 -8 -28
2 -51 6 -51 11 0 12 88 10 95 -3z m135 -24 c-7 -9 -15 -13 -17 -11 -6 6 20 36
26 30 2 -2 -2 -10 -9 -19z m770 -45 c0 -5 -2 -10 -4 -10 -3 0 -8 5 -11 10 -3
6 -1 10 4 10 6 0 11 -4 11 -10z m351 -21 c-25 -20 -72 -23 -78 -3 -2 6 10 8
32 6 21 -3 35 0 35 7 0 6 8 11 18 11 14 -1 13 -4 -7 -21z m-600 -31 c30 0 39
-4 35 -14 -3 -8 -1 -14 5 -14 6 0 7 -5 4 -10 -4 -6 -12 -4 -21 5 -17 17 -34
12 -34 -10 0 -22 -29 -26 -40 -5 -13 24 -13 63 0 55 6 -3 28 -7 51 -7z m-901
-18 c0 -5 -12 -10 -27 -9 -25 0 -26 1 -8 9 27 12 35 12 35 0z m818 -2 c-6 -17
-36 -34 -45 -24 -4 4 1 14 11 22 24 17 39 18 34 2z m259 6 c-3 -3 -12 -4 -19
-1 -8 3 -5 6 6 6 11 1 17 -2 13 -5z m-997 -14 c0 -5 -7 -7 -15 -4 -8 4 -15 8
-15 10 0 2 7 4 15 4 8 0 15 -4 15 -10z m194 4 c25 -10 20 -33 -6 -29 -26 5
-42 -3 -51 -25 -3 -8 -6 2 -6 23 -1 33 2 37 23 37 13 0 31 -3 40 -6z m893 -16
c-3 -8 -6 -5 -6 6 -1 11 2 17 5 13 3 -3 4 -12 1 -19z m191 2 c2 -10 -6 -16
-23 -18 -19 -1 -25 3 -25 19 0 15 5 20 22 17 13 -2 24 -10 26 -18z m-298 -10
c0 -11 -4 -20 -10 -20 -5 0 -10 9 -10 20 0 11 5 20 10 20 6 0 10 -9 10 -20z
m-1394 -27 c-10 -10 -19 5 -10 18 6 11 8 11 12 0 2 -7 1 -15 -2 -18z m1641 10
c7 -6 12 -27 12 -45 -1 -27 -3 -29 -6 -8 -3 14 -14 35 -26 48 -23 25 -5 29 20
5z m-1587 -1 c0 -5 -7 -9 -15 -9 -8 0 -15 4 -15 9 0 4 7 8 15 8 8 0 15 -4 15
-8z m195 -21 c-3 -6 -11 -11 -17 -11 -6 0 -6 6 2 15 14 17 26 13 15 -4z m-835
-11 c0 -5 -5 -10 -11 -10 -5 0 -7 5 -4 10 3 6 8 10 11 10 2 0 4 -4 4 -10z m50
0 c0 -5 -2 -10 -4 -10 -3 0 -8 5 -11 10 -3 6 -1 10 4 10 6 0 11 -4 11 -10z
m700 1 c0 -9 -24 -21 -41 -21 -5 0 -9 7 -9 15 0 9 9 15 25 15 14 0 25 -4 25
-9z m1023 2 c-7 -2 -19 -2 -25 0 -7 3 -2 5 12 5 14 0 19 -2 13 -5z m210 0 c-7
-2 -19 -2 -25 0 -7 3 -2 5 12 5 14 0 19 -2 13 -5z m-1329 -23 c-6 -6 -15 -5
-24 1 -13 9 -12 10 3 5 9 -3 17 0 17 6 0 6 3 8 7 5 4 -4 2 -12 -3 -17z m-94 0
c0 -5 -4 -10 -10 -10 -5 0 -10 5 -10 10 0 6 5 10 10 10 6 0 10 -4 10 -10z m30
0 c0 -5 -2 -10 -4 -10 -3 0 -8 5 -11 10 -3 6 -1 10 4 10 6 0 11 -4 11 -10z
m250 0 c0 -5 -7 -10 -16 -10 -8 0 -12 5 -9 10 3 6 10 10 16 10 5 0 9 -4 9 -10z
m1365 0 c-3 -5 -14 -10 -23 -10 -15 0 -15 2 -2 10 20 13 33 13 25 0z m-1548
-42 c-3 -8 -6 -5 -6 6 -1 11 2 17 5 13 3 -3 4 -12 1 -19z m90 8 c0 -8 -11 -16
-24 -19 -27 -5 -30 8 -5 22 23 14 29 13 29 -3z m1627 -11 c-4 -8 -10 -12 -15
-9 -14 8 -10 24 6 24 9 0 12 -6 9 -15z m-1824 -56 c0 -6 -4 -7 -10 -4 -5 3
-10 11 -10 16 0 6 5 7 10 4 6 -3 10 -11 10 -16z m90 7 c0 -8 -9 -12 -22 -11
-33 4 -34 4 -18 15 22 14 40 12 40 -4z m110 5 c0 -14 -60 -19 -77 -6 -14 10
-9 13 30 13 26 1 47 -3 47 -7z m1610 4 c0 -11 -42 -25 -53 -18 -8 5 -2 10 18
14 17 4 31 7 33 8 1 0 2 -1 2 -4z m-1142 -69 c-7 -8 -15 -12 -17 -11 -5 6 10
25 20 25 5 0 4 -6 -3 -14z m209 -32 c-3 -3 -12 -4 -19 -1 -8 3 -5 6 6 6 11 1
17 -2 13 -5z"/>
<path d="M3944 6469 c-4 -13 -8 -27 -9 -31 0 -3 -3 -10 -7 -14 -17 -17 -7 -26
11 -10 23 21 32 49 21 66 -5 9 -10 5 -16 -11z"/>
<path d="M3835 6360 c-3 -5 -12 -7 -19 -4 -14 6 -176 -226 -176 -253 0 -11 12
-8 50 13 39 21 60 43 101 107 43 67 50 84 40 99 -6 10 -7 18 -2 18 5 0 11 7
15 15 6 17 0 20 -9 5z"/>
<path d="M3938 6348 c-20 -27 -62 -83 -102 -135 -50 -64 -89 -102 -98 -97 -5
3 -12 -4 -15 -16 -3 -12 -11 -19 -18 -16 -13 4 -30 -20 -27 -37 1 -4 -3 -6
-10 -5 -6 2 -21 -11 -32 -29 -12 -18 -26 -30 -33 -28 -6 2 -17 -3 -23 -11 -14
-15 -40 -19 -40 -5 0 4 9 20 20 34 13 17 17 28 10 32 -7 4 -8 11 -2 18 5 7 13
22 16 35 6 17 3 22 -12 22 -11 0 -25 -7 -32 -15 -25 -30 -41 -18 -34 25 8 48
-5 52 -30 8 -11 -18 -36 -59 -57 -90 -38 -56 -38 -57 -13 -47 l27 9 -24 -26
c-63 -70 -69 -74 -91 -70 -19 4 -34 -8 -80 -62 -32 -37 -71 -88 -87 -114 -41
-64 -92 -119 -167 -179 -35 -28 -64 -58 -64 -67 0 -10 12 -28 25 -41 14 -13
25 -27 25 -31 0 -14 32 -21 46 -9 11 9 19 7 34 -11 10 -12 21 -27 23 -33 2 -7
9 -7 21 0 22 12 58 5 49 -10 -4 -6 2 -8 17 -4 l22 6 -23 -25 c-13 -14 -19 -24
-14 -22 6 2 20 -6 32 -17 21 -19 185 -85 214 -85 8 0 23 -7 33 -15 10 -8 23
-12 29 -8 6 3 7 2 4 -4 -6 -9 94 -73 116 -73 7 0 21 -7 31 -15 11 -8 30 -15
43 -15 13 0 23 -4 23 -8 0 -5 19 -15 43 -22 23 -7 56 -19 74 -26 38 -17 63
-18 63 -2 0 9 3 9 12 0 26 -26 58 -14 86 35 39 67 54 80 105 87 50 8 137 -11
115 -25 -16 -10 8 -40 27 -33 10 4 12 0 8 -15 -3 -14 0 -23 11 -27 9 -3 13
-11 10 -16 -6 -9 73 -5 141 6 11 2 24 4 28 5 5 0 5 10 2 21 -5 16 -2 20 17 18
18 -2 22 1 20 17 -2 18 -2 18 8 3 14 -22 38 -23 92 -1 88 34 212 133 168 133
-5 0 -10 5 -10 10 0 6 11 8 25 4 16 -4 25 -2 25 6 0 6 10 10 23 8 14 -2 26 4
33 17 12 22 8 45 -8 45 -6 0 -5 -8 3 -17 12 -17 12 -17 -5 -1 -19 17 -15 55 4
43 5 -3 11 -1 11 4 1 6 2 17 3 24 1 6 -2 18 -7 24 -5 7 -7 22 -4 33 3 10 1 18
-3 17 -4 -1 -16 7 -26 19 -23 25 -63 48 -72 40 -3 -3 5 -17 18 -31 13 -14 18
-25 11 -25 -7 0 -9 -6 -6 -12 4 -7 -1 -4 -9 6 -9 11 -16 16 -16 11 0 -4 -9 0
-20 10 -11 10 -17 22 -14 27 3 4 2 8 -3 7 -16 -4 -43 13 -43 28 0 8 -4 12 -8
9 -5 -3 -6 8 -4 25 l4 29 33 -20 c40 -25 45 -25 45 -1 0 11 -22 38 -50 62 -51
43 -61 63 -35 72 15 6 95 -77 95 -99 0 -6 28 -38 63 -71 34 -33 61 -66 59 -72
-2 -7 2 -11 9 -10 18 3 69 -21 69 -33 0 -5 -7 -11 -15 -14 -23 -9 -18 -29 10
-42 24 -11 25 -11 14 9 -11 21 -10 21 12 5 29 -20 39 -20 39 -1 0 8 -8 15 -17
16 -11 0 -13 2 -5 6 7 3 28 -7 47 -21 35 -27 69 -34 80 -16 4 6 10 8 13 6 4
-2 12 6 18 19 14 28 -6 65 -34 65 -18 1 -58 47 -49 57 3 3 16 -2 29 -11 30
-21 38 -20 38 5 0 27 -14 53 -67 120 -55 70 -97 219 -62 219 8 0 8 4 2 13 -6
6 -16 29 -23 50 -11 37 -13 38 -31 21 -10 -9 -21 -26 -25 -38 -9 -29 -43 -76
-55 -76 -6 0 -2 12 9 28 10 15 22 35 25 45 6 15 4 16 -13 7 -10 -6 -23 -17
-28 -25 -4 -9 -24 -23 -43 -33 -27 -13 -34 -22 -32 -43 2 -26 1 -27 -27 -13
-15 8 -44 35 -65 59 -40 50 -55 56 -55 24 0 -13 30 -55 73 -103 40 -44 77 -87
81 -93 15 -26 -11 -11 -73 42 -36 30 -66 53 -69 51 -2 -3 -13 5 -25 17 -13 13
-22 17 -25 9 -7 -22 -31 -12 -47 18 -19 36 -59 64 -81 56 -14 -6 -45 13 -94
58 -8 7 -38 16 -67 20 -62 8 -139 40 -147 62 -3 8 -9 13 -13 11 -5 -3 -8 8 -8
25 0 23 -9 38 -37 61 -46 37 -60 29 -28 -16 l23 -32 -32 29 c-38 36 -76 112
-73 146 2 14 18 39 36 56 32 30 32 32 15 53 -9 11 -22 21 -28 21 -6 0 -8 7 -5
15 9 21 1 19 -18 -7z m-78 -267 c-17 -28 -36 -51 -41 -51 -5 0 -9 -7 -9 -17 0
-9 -3 -13 -7 -10 -3 4 -17 0 -30 -8 -13 -9 -23 -11 -23 -5 0 6 7 13 15 16 8 3
20 21 27 39 6 19 15 32 20 29 4 -3 8 0 8 7 0 7 12 26 27 41 43 45 51 18 13
-41z m112 -96 c54 -54 83 -70 72 -40 -10 26 13 16 41 -17 18 -21 23 -33 15
-38 -13 -8 25 -40 48 -40 7 0 24 -7 37 -16 34 -22 31 -11 -7 37 -39 49 -33 58
13 19 19 -16 39 -29 44 -30 6 0 37 -21 69 -45 33 -25 63 -45 67 -45 5 0 14 12
22 26 12 22 15 24 26 10 14 -17 15 -33 10 -112 -4 -62 -22 -66 -61 -12 -25 33
-68 67 -68 53 0 -3 7 -21 15 -41 10 -24 11 -33 2 -28 -11 7 18 -33 34 -46 3
-3 6 -13 6 -22 0 -14 -6 -16 -25 -11 -16 4 -23 2 -19 -4 5 -7 -5 -8 -30 -2
-26 5 -40 4 -45 -4 -5 -8 -8 -4 -8 10 0 23 -52 68 -110 96 -50 23 -62 5 -22
-34 24 -24 30 -35 22 -45 -6 -7 -10 -21 -8 -30 4 -25 -29 -30 -53 -8 -17 16
-19 16 -19 1 0 -10 -5 -17 -11 -17 -6 0 -8 8 -4 19 4 13 -5 27 -30 49 -39 35
-71 34 -58 -2 4 -11 7 -31 6 -44 -1 -15 4 -22 11 -19 7 3 13 -1 13 -9 0 -7 -5
-10 -10 -7 -5 3 -13 0 -17 -6 -5 -9 -20 -5 -56 14 -32 17 -50 22 -53 14 -4
-13 -131 110 -131 128 0 7 13 19 29 28 16 8 31 20 34 27 3 10 13 8 41 -6 51
-27 56 -12 11 34 -55 56 -36 62 27 8 77 -65 83 -66 53 -12 -25 46 -25 47 -3
23 26 -29 155 -92 163 -79 5 9 -84 70 -103 70 -7 0 -12 4 -12 10 0 5 -15 16
-33 24 -45 18 -107 74 -107 95 0 10 -7 26 -15 37 -16 22 -20 48 -5 39 6 -3 10
-1 10 6 0 10 3 10 12 1 21 -21 59 -13 86 18 15 17 27 30 28 30 0 0 26 -25 56
-55z m-395 -49 c-7 -13 -15 -22 -19 -20 -3 2 -9 0 -13 -6 -4 -6 -11 -8 -16 -5
-5 4 -9 1 -9 -4 0 -6 -6 -11 -13 -11 -7 0 -19 -6 -25 -12 -17 -17 -112 -21
-106 -5 2 7 27 27 54 45 37 24 50 28 50 17 0 -14 3 -14 28 -2 15 8 35 13 44
12 10 -2 20 1 24 6 11 18 12 8 1 -15z m163 -6 c0 -5 -5 -10 -11 -10 -5 0 -7 5
-4 10 3 6 8 10 11 10 2 0 4 -4 4 -10z m390 -390 c0 -5 -4 -10 -10 -10 -5 0
-10 5 -10 10 0 6 5 10 10 10 6 0 10 -4 10 -10z m-1065 -89 c10 -17 -12 -21
-25 -6 -10 12 -10 15 3 15 9 0 18 -4 22 -9z m-60 -39 c-8 -8 -25 10 -19 20 4
6 9 5 15 -3 4 -7 6 -15 4 -17z m207 -37 c-4 -26 -22 -35 -22 -12 0 10 18 37
26 37 1 0 -1 -11 -4 -25z m352 -56 c-3 -5 -10 -7 -15 -3 -5 3 -7 10 -3 15 3 5
10 7 15 3 5 -3 7 -10 3 -15z m42 -76 c-10 -10 -19 5 -10 18 6 11 8 11 12 0 2
-7 1 -15 -2 -18z m912 -35 c-6 -18 -28 -21 -28 -4 0 9 7 16 16 16 9 0 14 -5
12 -12z m-858 -118 c0 -5 -5 -10 -11 -10 -5 0 -7 5 -4 10 3 6 8 10 11 10 2 0
4 -4 4 -10z m54 2 c11 -18 -9 -29 -40 -23 -9 1 17 31 27 31 4 0 10 -4 13 -8z
m226 -2 c0 -5 -4 -10 -10 -10 -5 0 -10 5 -10 10 0 6 5 10 10 10 6 0 10 -4 10
-10z m-170 -40 c0 -5 -2 -10 -4 -10 -3 0 -8 5 -11 10 -3 6 -1 10 4 10 6 0 11
-4 11 -10z m140 -30 c0 -5 -4 -10 -10 -10 -5 0 -10 5 -10 10 0 6 5 10 10 10 6
0 10 -4 10 -10z"/>
<path d="M3880 5892 c0 -11 89 -102 101 -102 5 0 3 14 -6 30 -9 17 -19 30 -23
30 -4 0 -20 11 -36 25 -31 27 -36 29 -36 17z"/>
<path d="M4240 5738 c0 -18 48 -64 57 -55 8 8 -27 59 -45 65 -7 2 -12 -3 -12
-10z"/>
<path d="M3730 5704 c0 -10 23 -26 77 -56 50 -27 62 -21 25 13 -18 16 -37 27
-42 24 -5 -3 -21 2 -35 11 -14 9 -25 12 -25 8z"/>
<path d="M4040 6220 c0 -5 13 -23 29 -39 28 -29 29 -29 27 -6 0 13 -4 21 -9
18 -4 -2 -10 2 -13 11 -6 17 -34 30 -34 16z"/>
<path d="M4758 6093 c7 -3 16 -2 19 1 4 3 -2 6 -13 5 -11 0 -14 -3 -6 -6z"/>
<path d="M3595 6000 c4 -6 11 -8 16 -5 14 9 11 15 -7 15 -8 0 -12 -5 -9 -10z"/>
<path d="M4416 5915 c4 -8 10 -12 15 -9 11 6 2 24 -11 24 -5 0 -7 -7 -4 -15z"/>
<path d="M5258 5703 c6 -2 18 -2 25 0 6 3 1 5 -13 5 -14 0 -19 -2 -12 -5z"/>
<path d="M5060 5641 c14 -28 13 -34 -7 -27 -26 11 26 -43 60 -60 37 -20 34 -4
-9 56 -35 49 -65 70 -44 31z"/>
<path d="M5130 5613 c0 -5 9 -19 20 -33 l20 -25 0 26 c0 15 -7 29 -16 33 -20
8 -24 8 -24 -1z"/>
<path d="M2880 5565 c0 -8 2 -15 4 -15 2 0 6 7 10 15 3 8 1 15 -4 15 -6 0 -10
-7 -10 -15z"/>
<path d="M5572 5493 c4 -24 21 -35 30 -20 14 21 8 37 -12 37 -14 0 -20 -6 -18
-17z"/>
<path d="M5080 5461 c0 -11 42 -43 48 -37 2 3 -1 14 -8 25 -11 21 -40 29 -40
12z"/>
<path d="M3020 5381 c0 -5 5 -13 10 -16 6 -3 10 -2 10 4 0 5 -4 13 -10 16 -5
3 -10 2 -10 -4z"/>
<path d="M4977 5216 c-4 -10 -1 -13 9 -9 15 6 19 23 5 23 -5 0 -11 -7 -14 -14z"/>
<path d="M3283 5183 c-13 -5 -6 -33 8 -33 12 0 55 -40 46 -41 -4 -1 -11 -2
-17 -3 -5 0 -10 -4 -10 -8 0 -5 0 -12 0 -18 0 -5 15 -10 34 -10 42 0 68 -9 60
-21 -3 -5 0 -9 6 -9 6 0 8 -4 5 -10 -3 -5 1 -10 9 -10 24 0 19 -16 -11 -39
-31 -25 -28 -30 20 -33 20 -2 37 -7 37 -13 1 -5 8 -1 18 10 12 15 30 20 65 21
46 0 47 0 23 -13 -14 -7 -30 -22 -36 -32 -11 -22 -3 -54 12 -45 5 3 15 -2 22
-12 15 -20 46 -13 46 10 0 10 6 13 16 9 11 -4 13 -13 9 -33 -3 -16 -1 -31 4
-35 6 -3 11 0 11 8 0 8 6 20 14 26 12 10 17 8 26 -9 9 -17 14 -19 26 -9 8 6
14 7 14 3 0 -5 -12 -16 -26 -25 -24 -15 -24 -16 -8 -30 16 -12 17 -12 11 3 -4
12 -2 15 8 11 8 -3 17 2 21 10 5 13 9 13 32 1 15 -8 34 -14 42 -14 11 0 11 -3
2 -12 -18 -18 -14 -38 8 -38 11 0 20 5 20 10 0 6 5 10 11 10 8 0 8 -4 -1 -15
-13 -15 -5 -39 11 -30 13 9 11 -9 -3 -23 -9 -9 -8 -12 5 -12 9 0 17 5 17 11 0
5 4 8 9 5 14 -9 19 15 10 54 -5 19 -9 60 -9 91 0 55 -1 57 -31 63 -17 3 -36 3
-42 -1 -5 -3 -7 -2 -4 4 7 10 -26 43 -62 62 -18 10 -20 9 -14 -6 6 -16 5 -16
-10 -4 -9 7 -15 17 -12 21 2 4 -16 8 -40 8 -24 1 -47 -2 -50 -8 -3 -5 1 -10
10 -10 9 0 14 -4 10 -9 -3 -5 2 -11 11 -13 15 -3 16 -4 2 -16 -13 -10 -19 -10
-34 5 -17 17 -18 17 -11 0 5 -14 2 -20 -15 -25 -21 -5 -21 -6 -2 -13 18 -6 18
-7 1 -14 -33 -14 -43 11 -19 45 12 16 22 34 22 39 0 6 7 14 16 19 21 12 9 33
-13 25 -13 -5 -15 -2 -10 11 4 9 3 15 -2 11 -5 -3 -21 -1 -35 5 -14 5 -26 6
-26 1 0 -5 11 -12 25 -15 13 -3 29 -15 35 -26 18 -34 -21 -25 -58 13 -39 40
-40 47 -4 47 20 0 23 3 12 9 -8 6 -18 7 -22 5 -4 -3 -8 0 -8 6 0 7 -7 9 -16 6
-8 -3 -12 -2 -9 4 3 5 -4 14 -15 20 -16 8 -20 8 -20 -4 0 -9 -7 -12 -19 -9
-11 3 -17 11 -14 18 8 21 -116 80 -144 68z m51 -22 c19 -11 36 -18 39 -15 2 2
10 -2 17 -11 25 -30 0 -27 -50 5 -46 29 -58 40 -45 40 2 0 20 -9 39 -19z m116
-115 c0 -3 -4 -8 -10 -11 -5 -3 -10 -1 -10 4 0 6 5 11 10 11 6 0 10 -2 10 -4z
m41 -40 c-9 -11 -9 -15 1 -19 7 -2 0 -8 -15 -12 -38 -10 -45 0 -16 24 28 23
47 28 30 7z m213 -81 c-4 -8 -1 -15 6 -15 6 0 8 -4 5 -10 -9 -15 39 -12 54 3
11 10 12 8 7 -9 -7 -22 16 -40 35 -28 5 3 9 -2 9 -11 0 -12 -4 -14 -19 -5 -11
5 -27 7 -36 4 -10 -4 -15 -2 -13 7 2 8 -7 15 -22 17 -14 2 -30 10 -36 18 -10
12 -13 12 -23 0 -13 -16 -41 -11 -41 6 0 6 7 8 15 5 7 -3 24 3 37 13 28 24 29
24 22 5z m46 5 c0 -5 -2 -10 -4 -10 -3 0 -8 5 -11 10 -3 6 -1 10 4 10 6 0 11
-4 11 -10z m110 -134 c0 -3 -4 -8 -10 -11 -5 -3 -10 -1 -10 4 0 6 5 11 10 11
6 0 10 -2 10 -4z"/>
<path d="M4800 5157 c-39 -37 -94 -58 -84 -33 3 8 11 13 18 10 7 -3 21 4 31
16 11 12 13 20 6 20 -21 0 -76 -26 -90 -43 -12 -15 -11 -17 5 -17 17 0 17 -1
-1 -14 -14 -10 -24 -11 -36 -3 -12 7 -22 6 -40 -6 -19 -14 -20 -17 -6 -17 24
0 21 -17 -4 -23 -12 -3 -18 -10 -15 -16 11 -17 -13 -51 -37 -51 -22 -1 -22 -1
-2 -16 12 -9 30 -12 46 -9 17 4 32 1 42 -10 10 -9 18 -11 22 -5 4 6 11 8 16 5
5 -4 9 1 9 9 0 9 -8 16 -18 16 -10 0 -19 6 -19 14 0 8 6 12 14 9 19 -7 16 7
-4 23 -17 12 -17 13 -1 14 19 0 38 -28 31 -47 -2 -6 11 -18 28 -27 l33 -16
-24 25 -23 24 36 -4 c35 -5 36 -4 27 20 -11 29 3 34 19 8 9 -16 10 -16 11 4 0
19 5 22 37 19 25 -1 43 4 55 16 23 23 23 26 -7 26 -15 0 -27 -8 -30 -19 -5
-15 -10 -16 -32 -8 -15 5 -39 7 -55 4 -17 -4 -28 -2 -28 4 0 6 11 11 25 11 24
0 30 9 26 38 -1 6 3 12 9 12 14 0 60 46 60 60 0 17 -14 11 -50 -23z m-70 -126
c0 -5 -6 -11 -13 -14 -8 -3 -14 1 -14 9 0 8 6 14 14 14 7 0 13 -4 13 -9z"/>
<path d="M4935 5172 c-50 -6 -50 -20 -1 -27 26 -4 50 -5 53 -1 13 13 -23 32
-52 28z"/>
<path d="M3123 5154 c0 -8 6 -14 14 -14 7 0 13 4 13 9 0 5 15 5 36 1 25 -6 34
-5 31 3 -6 18 -94 18 -94 1z"/>
<path d="M4858 5111 c-10 -13 -10 -14 1 -4 11 9 17 8 28 -3 11 -11 19 -12 28
-4 10 8 16 7 22 -5 9 -15 11 -15 22 -1 15 18 9 22 -51 29 -27 3 -41 0 -50 -12z"/>
<path d="M3170 5111 c-18 -5 -21 -9 -12 -15 17 -10 82 2 82 14 0 11 -33 11
-70 1z"/>
<path d="M4795 5080 c-3 -5 -1 -10 4 -10 6 0 11 5 11 10 0 6 -2 10 -4 10 -3 0
-8 -4 -11 -10z"/>
<path d="M3231 5063 c-12 -13 -11 -14 7 -8 17 5 21 3 16 -9 -3 -9 -1 -17 5
-17 35 -4 45 -3 48 7 3 9 -10 18 -57 41 -3 1 -11 -5 -19 -14z"/>
<path d="M3322 5048 c3 -7 14 -14 26 -16 18 -3 20 -8 15 -35 -5 -31 -5 -31 10
-12 11 13 16 15 17 6 0 -11 3 -11 16 0 14 12 14 14 0 25 -9 6 -16 16 -16 21 0
6 -10 13 -22 17 -36 9 -50 7 -46 -6z"/>
<path d="M4536 5033 c-32 -8 -48 -29 -32 -42 10 -8 19 -6 36 9 12 11 28 17 34
13 6 -4 5 1 -3 10 -7 9 -14 16 -15 16 0 -1 -10 -4 -20 -6z"/>
<path d="M3315 5011 c-3 -5 -1 -12 4 -15 5 -3 11 1 15 9 6 16 -9 21 -19 6z"/>
<path d="M4016 4994 c-8 -29 1 -64 15 -64 5 0 9 -6 9 -14 0 -7 6 -19 14 -25
11 -10 16 -8 21 9 3 11 10 18 15 15 4 -3 11 2 14 11 3 8 2 12 -4 9 -13 -8 -13
1 -1 24 6 10 7 28 4 40 -5 20 -7 21 -29 6 -22 -14 -25 -14 -30 0 -9 23 -21 18
-28 -11z"/>
<path d="M4443 5003 c-7 -2 -13 -11 -13 -18 0 -8 -7 -11 -20 -8 -22 6 -28 -12
-7 -20 6 -3 2 -6 -11 -6 -15 -1 -21 3 -16 11 5 8 0 9 -17 5 -13 -4 -31 -7 -39
-8 -10 0 -8 -3 5 -8 17 -8 14 -11 -22 -26 -24 -9 -43 -21 -43 -25 0 -5 -8 -6
-18 -3 -14 3 -18 -3 -20 -28 -3 -36 -12 -51 -19 -31 -3 6 -9 12 -14 12 -4 0
-6 -7 -2 -16 4 -10 -4 -24 -21 -39 -14 -12 -26 -27 -26 -34 0 -6 -4 -11 -10
-11 -5 0 -10 9 -10 20 0 37 -20 21 -26 -22 -7 -39 -8 -40 -17 -17 -5 14 -11
19 -14 12 -6 -15 -23 -17 -23 -3 0 18 -35 45 -55 42 -20 -3 -63 49 -57 69 1 6
-2 8 -7 5 -9 -6 -8 -64 1 -118 3 -14 13 -34 22 -43 12 -12 14 -21 7 -29 -18
-21 -9 -146 10 -146 5 0 9 -7 9 -16 0 -19 24 -13 26 7 5 54 6 54 15 24 14 -44
19 -81 18 -164 0 -61 3 -72 15 -68 8 3 17 1 20 -6 10 -26 25 19 25 73 -1 80
11 147 29 162 13 11 15 10 10 -9 -9 -33 25 -30 40 2 16 34 15 35 -5 29 -12 -4
-14 -3 -6 3 14 10 27 87 14 78 -21 -12 -20 30 0 51 12 13 19 30 16 38 -3 8 1
20 10 28 15 11 16 10 10 -11 -3 -14 0 -33 10 -47 17 -27 33 -31 33 -10 0 8 7
17 16 20 8 3 13 10 10 15 -3 5 1 11 8 14 8 3 17 1 20 -6 3 -8 7 -9 13 -2 4 6
22 18 38 27 24 14 30 23 28 48 -1 23 3 30 13 26 7 -3 20 1 28 9 21 21 39 19
31 -4 -3 -11 -1 -22 5 -26 6 -4 13 7 17 25 4 22 8 28 14 18 7 -10 9 -10 9 0 0
17 15 15 34 -4 15 -14 16 -14 16 0 0 9 7 16 16 16 11 0 14 5 10 16 -4 12 -2
15 9 10 10 -3 15 1 15 12 0 25 -10 35 -54 55 -30 14 -41 15 -52 6 -8 -7 -17
-10 -19 -7 -3 3 1 11 9 18 13 10 13 14 1 26 -14 15 -22 16 -42 7z m87 -72 c20
-38 13 -53 -21 -46 -22 5 -29 4 -25 -4 5 -7 1 -9 -8 -5 -9 3 -16 10 -16 16 0
5 4 7 9 3 5 -3 12 -1 16 4 3 6 12 8 20 4 10 -3 15 1 15 12 0 11 -5 15 -15 11
-15 -5 -20 5 -8 17 11 12 22 8 33 -12z m-73 -2 c-9 -6 -15 -13 -13 -17 2 -4
-9 -15 -25 -24 -16 -9 -31 -13 -33 -9 -3 4 8 15 25 25 16 9 29 21 29 27 0 5 8
9 18 9 16 -1 16 -1 -1 -11z m-87 -46 c0 -17 -18 -35 -29 -29 -8 5 -7 11 2 21
13 16 27 19 27 8z m80 -14 c0 -5 -4 -9 -10 -9 -5 0 -10 7 -10 16 0 8 5 12 10
9 6 -3 10 -10 10 -16z m-130 -9 c0 -5 -4 -10 -10 -10 -5 0 -10 5 -10 10 0 6 5
10 10 10 6 0 10 -4 10 -10z m-103 -77 c-3 -10 -5 -4 -5 12 0 17 2 24 5 18 2
-7 2 -21 0 -30z m147 19 c7 -11 -17 -38 -40 -46 -15 -5 -24 -2 -28 10 -8 21 4
40 15 23 6 -11 9 -10 15 4 6 17 29 23 38 9z m-366 -50 c-10 -2 -18 -8 -18 -13
0 -6 -5 -7 -11 -4 -6 5 -4 12 8 20 10 7 22 10 28 7 5 -4 2 -8 -7 -10z m182 4
c0 -2 -7 -7 -16 -10 -8 -3 -12 -2 -9 4 6 10 25 14 25 6z m-195 -206 c3 -5 2
-10 -4 -10 -5 0 -13 5 -16 10 -3 6 -2 10 4 10 5 0 13 -4 16 -10z m80 -220 c3
-5 1 -10 -4 -10 -6 0 -11 5 -11 10 0 6 2 10 4 10 3 0 8 -4 11 -10z"/>
<path d="M4602 4938 c5 -15 28 -23 28 -10 0 5 -7 13 -16 16 -10 4 -14 1 -12
-6z"/>
<path d="M3497 4922 c-10 -10 -14 -22 -10 -25 7 -8 43 21 43 35 0 14 -16 9
-33 -10z"/>
<path d="M4625 4900 c4 -6 11 -8 16 -5 14 9 11 15 -7 15 -8 0 -12 -5 -9 -10z"/>
<path d="M4130 4809 c0 -5 5 -7 10 -4 6 3 10 8 10 11 0 2 -4 4 -10 4 -5 0 -10
-5 -10 -11z"/>
<path d="M4500 4810 c0 -5 5 -10 11 -10 5 0 7 5 4 10 -3 6 -8 10 -11 10 -2 0
-4 -4 -4 -10z"/>
<path d="M4410 4786 c0 -9 5 -16 10 -16 6 0 10 4 10 9 0 6 -4 13 -10 16 -5 3
-10 -1 -10 -9z"/>
<path d="M3665 4780 c3 -5 8 -10 11 -10 2 0 4 5 4 10 0 6 -5 10 -11 10 -5 0
-7 -4 -4 -10z"/>
<path d="M3747 4783 c-12 -11 -8 -23 9 -23 8 0 12 -4 9 -10 -3 -6 1 -7 10 -4
14 6 14 8 -1 25 -19 22 -18 21 -27 12z"/>
<path d="M4167 4486 c-4 -9 8 -29 25 -48 22 -23 33 -29 36 -19 2 7 0 16 -5 20
-5 3 -18 18 -30 33 -16 21 -22 24 -26 14z"/>
<path d="M4221 4484 c0 -11 3 -14 6 -6 3 7 2 16 -1 19 -3 4 -6 -2 -5 -13z"/>
<path d="M3917 4473 c-10 -10 -8 -25 2 -19 5 4 11 1 13 -6 3 -7 7 -2 10 10 6
21 -10 31 -25 15z"/>
<path d="M3945 4428 c-4 -16 -4 -36 0 -45 12 -32 28 12 17 45 l-10 27 -7 -27z"/>
<path d="M4156 4428 c-9 -36 -7 -48 8 -48 21 0 28 29 12 51 -13 19 -14 19 -20
-3z"/>
<path d="M3890 4424 c0 -8 5 -12 10 -9 6 3 10 10 10 16 0 5 -4 9 -10 9 -5 0
-10 -7 -10 -16z"/>
<path d="M3997 4404 c6 -15 23 -19 23 -5 0 5 -7 11 -14 14 -10 4 -13 1 -9 -9z"/>
<path d="M4102 4370 c1 -23 5 -43 9 -45 10 -7 39 5 39 17 0 5 -5 6 -11 2 -8
-4 -9 0 -4 15 4 15 2 21 -9 21 -10 0 -13 6 -10 15 4 8 1 15 -5 15 -6 0 -10
-17 -9 -40z"/>
<path d="M4003 4364 c-16 -17 -17 -51 -1 -60 6 -4 8 -3 4 4 -3 6 -1 23 4 38
12 31 10 37 -7 18z"/>
<path d="M2543 4094 c8 -9 77 -25 122 -29 22 -2 30 -1 18 2 -13 2 -23 11 -23
19 0 11 -15 14 -62 14 -34 0 -59 -3 -55 -6z"/>
<path d="M2680 4090 c0 -5 25 -10 55 -10 30 0 55 5 55 10 0 6 -25 10 -55 10
-30 0 -55 -4 -55 -10z"/>
<path d="M2625 4040 c-8 -13 5 -13 25 0 13 8 13 10 -2 10 -9 0 -20 -4 -23 -10z"/>
<path d="M2680 4042 c0 -4 18 -6 40 -4 22 2 40 6 40 8 0 2 -18 4 -40 4 -22 0
-40 -3 -40 -8z"/>
<path d="M2775 4040 c3 -5 8 -10 11 -10 2 0 4 5 4 10 0 6 -5 10 -11 10 -5 0
-7 -4 -4 -10z"/>
<path d="M2628 4013 c7 -3 16 -2 19 1 4 3 -2 6 -13 5 -11 0 -14 -3 -6 -6z"/>
<path d="M2299 3988 c-3 -67 0 -161 5 -166 3 -3 6 38 6 91 0 54 -2 97 -5 97
-3 0 -5 -10 -6 -22z"/>
<path d="M2380 3985 c0 -7 7 -12 15 -11 22 3 23 19 3 22 -10 1 -18 -4 -18 -11z"/>
<path d="M2557 3963 c-11 -10 -8 -53 3 -53 6 0 10 14 10 30 0 31 -2 35 -13 23z"/>
<path d="M2623 3932 l0 -31 74 -3 c40 -2 83 -1 95 2 20 5 19 8 -18 29 -23 14
-62 25 -95 28 l-56 5 0 -30z"/>
<path d="M2670 3870 c0 -5 7 -10 16 -10 8 0 12 5 9 10 -3 6 -10 10 -16 10 -5
0 -9 -4 -9 -10z"/>
<path d="M2748 3863 c6 -2 18 -2 25 0 6 3 1 5 -13 5 -14 0 -19 -2 -12 -5z"/>
<path d="M3393 3853 c-10 -3 -13 -51 -13 -189 l0 -184 -25 -6 c-20 -5 -25 -12
-25 -39 0 -27 9 -41 47 -73 25 -22 62 -49 82 -60 l36 -21 3 290 3 289 -48 -1
c-26 0 -54 -3 -60 -6z m82 -213 c3 -5 1 -10 -4 -10 -6 0 -11 5 -11 10 0 6 2
10 4 10 3 0 8 -4 11 -10z m5 -250 c0 -5 -4 -10 -10 -10 -5 0 -10 5 -10 10 0 6
5 10 10 10 6 0 10 -4 10 -10z"/>
<path d="M3670 3845 c0 -11 11 -15 39 -15 22 0 44 6 51 15 11 13 6 15 -39 15
-39 0 -51 -4 -51 -15z"/>
<path d="M2670 3825 c0 -9 17 -13 60 -14 47 0 58 2 54 14 -8 19 -114 19 -114
0z"/>
<path d="M3662 3726 c1 -52 6 -92 10 -90 5 3 8 0 8 -5 0 -19 40 -12 41 7 0 15
1 14 8 -2 7 -18 8 -18 14 5 12 42 8 49 -23 49 -34 0 -42 16 -7 17 12 0 38 1
57 3 34 3 34 3 -10 10 -25 4 -35 8 -22 8 35 3 30 42 -5 43 l-28 1 25 7 c14 4
26 15 28 24 3 14 -5 17 -48 17 l-51 0 3 -94z"/>
<path d="M4918 3685 c-2 -60 1 -94 7 -92 13 5 19 187 6 187 -5 0 -11 -43 -13
-95z"/>
<path d="M3770 3750 c0 -11 5 -20 10 -20 6 0 10 9 10 20 0 11 -4 20 -10 20 -5
0 -10 -9 -10 -20z"/>
<path d="M2740 3740 c0 -5 11 -10 24 -10 14 0 28 5 31 10 4 6 -7 10 -24 10
-17 0 -31 -4 -31 -10z"/>
<path d="M3770 3680 c0 -5 5 -10 11 -10 5 0 7 5 4 10 -3 6 -8 10 -11 10 -2 0
-4 -4 -4 -10z"/>
<path d="M2775 3670 c3 -5 8 -10 11 -10 2 0 4 5 4 10 0 6 -5 10 -11 10 -5 0
-7 -4 -4 -10z"/>
<path d="M2820 3653 c0 -38 10 -73 21 -73 5 0 9 23 9 50 0 38 -4 50 -15 50
-10 0 -15 -10 -15 -27z"/>
<path d="M2872 3603 c4 -75 5 -78 29 -78 23 0 24 3 27 78 l3 77 -31 0 -32 0 4
-77z m48 -55 c0 -5 -4 -8 -10 -8 -5 0 -10 10 -10 23 0 18 2 19 10 7 5 -8 10
-18 10 -22z"/>
<path d="M4791 3651 c-14 -4 -27 -13 -29 -20 -3 -10 1 -12 17 -8 27 7 38 -9
11 -18 -11 -3 -20 -12 -20 -19 0 -33 14 -76 24 -76 16 1 106 68 106 80 0 6 -7
10 -15 10 -11 0 -13 8 -8 30 5 29 4 30 -28 29 -19 -1 -45 -4 -58 -8z"/>
<path d="M3685 3578 c4 -18 9 -36 12 -40 8 -15 23 -8 23 11 0 10 10 26 23 35
l22 17 -22 -5 c-13 -2 -23 0 -23 5 0 5 -9 9 -21 9 -18 0 -20 -4 -14 -32z"/>
<path d="M3870 3586 c0 -14 5 -28 10 -31 6 -3 10 0 10 9 0 8 3 21 6 30 4 11 1
16 -10 16 -10 0 -16 -9 -16 -24z"/>
<path d="M2750 3520 c-11 -6 -15 -20 -12 -49 l4 -41 64 0 c60 0 84 13 49 26
-8 4 -15 12 -15 20 0 8 -3 13 -7 12 -5 -2 -9 2 -10 7 -2 6 2 10 9 10 6 0 13 6
16 13 4 14 -74 17 -98 2z m50 -35 c0 -8 -7 -15 -15 -15 -26 0 -18 20 13 29 1
1 2 -6 2 -14z"/>
<path d="M4010 3492 c0 -16 32 -12 37 5 3 7 -4 11 -16 10 -12 -1 -21 -7 -21
-15z"/>
<path d="M2646 3445 c4 -8 8 -15 10 -15 2 0 4 7 4 15 0 8 -4 15 -10 15 -5 0
-7 -7 -4 -15z"/>
<path d="M4320 3410 c0 -5 -7 -10 -15 -10 -8 0 -15 -7 -15 -15 0 -12 5 -13 18
-7 9 5 23 7 30 5 6 -3 12 0 12 6 0 6 -5 11 -11 11 -5 0 -7 5 -4 10 3 6 1 10
-4 10 -6 0 -11 -4 -11 -10z"/>
<path d="M2635 5588 c-22 -12 -35 -28 -35 -42 0 -6 9 0 19 11 11 12 26 23 33
26 7 2 11 7 8 10 -3 3 -14 1 -25 -5z"/>
<path d="M5410 5772 c0 -4 9 -8 20 -9 11 -1 18 2 15 8 -7 11 -35 12 -35 1z"/>
<path d="M2532 4315 c9 -9 88 -13 88 -4 0 5 -21 9 -47 9 -25 0 -44 -2 -41 -5z"/>
<path d="M5187 4133 c-40 -4 -49 -8 -57 -29 -6 -14 -23 -33 -40 -42 -29 -16
-30 -19 -30 -89 0 -58 3 -73 15 -73 12 0 15 16 16 78 l1 77 10 -55 c5 -30 10
-63 11 -72 1 -19 17 -25 17 -7 0 5 5 7 11 3 8 -5 8 -1 0 14 -35 65 26 131 82
88 9 -7 17 -24 17 -38 0 -34 5 -37 45 -24 23 7 35 17 35 28 0 23 6 23 32 -2
24 -22 38 -26 38 -9 0 21 45 4 48 -18 2 -13 8 -23 13 -23 5 0 9 -7 9 -16 0 -8
5 -12 11 -8 8 4 9 -1 4 -17 l-7 -24 20 23 c11 13 23 19 26 13 3 -5 -1 -16 -9
-25 -14 -13 -13 -15 3 -13 10 0 18 8 18 16 1 9 5 51 9 94 7 68 6 77 -8 72 -8
-4 -23 2 -33 13 -23 24 -97 45 -127 37 -18 -5 -19 -4 -7 5 8 6 33 9 55 8 22
-1 49 3 60 10 16 9 -7 11 -110 10 -71 -1 -152 -3 -178 -5z m316 -133 c-7 -28
-13 -25 -13 6 0 14 4 23 9 20 5 -3 7 -15 4 -26z"/>
<path d="M5421 3944 c0 -11 3 -14 6 -6 3 7 2 16 -1 19 -3 4 -6 -2 -5 -13z"/>
<path d="M5604 3845 c8 -8 18 -15 22 -15 3 0 1 7 -6 15 -7 8 -17 15 -22 15 -5
0 -3 -7 6 -15z"/>
<path d="M5416 3813 c-3 -4 -6 -30 -6 -60 0 -50 -1 -53 -25 -53 -14 0 -28 6
-31 14 -4 10 -16 12 -37 9 -40 -6 -39 -5 -43 -45 -2 -17 -10 -35 -17 -40 -6
-4 33 -8 88 -8 110 0 131 7 121 38 -5 15 0 28 15 43 l22 22 -6 -31 c-8 -39 -5
-39 28 -7 42 43 28 75 -28 66 -4 -1 -10 6 -13 14 -7 18 -59 47 -68 38z m4
-147 c0 -11 -19 -15 -25 -6 -3 5 1 10 9 10 9 0 16 -2 16 -4z"/>
<path d="M5149 3716 c-2 -2 -20 -6 -39 -7 -46 -5 -54 -18 -24 -42 14 -11 23
-26 20 -34 -4 -8 -1 -11 5 -7 6 3 9 15 6 25 -4 16 1 19 26 20 18 1 35 1 40 0
9 -1 9 12 1 33 -6 15 -25 21 -35 12z"/>
<path d="M5170 3645 c0 -8 5 -15 10 -15 6 0 10 7 10 15 0 8 -4 15 -10 15 -5 0
-10 -7 -10 -15z"/>
<path d="M2992 3540 c0 -14 2 -19 5 -12 2 6 2 18 0 25 -3 6 -5 1 -5 -13z"/>
<path d="M4780 3131 c0 -6 5 -13 10 -16 6 -3 10 1 10 9 0 9 -4 16 -10 16 -5 0
-10 -4 -10 -9z"/>
<path d="M2948 3343 c7 -3 16 -2 19 1 4 3 -2 6 -13 5 -11 0 -14 -3 -6 -6z"/>
<path d="M4178 3143 c7 -3 16 -2 19 1 4 3 -2 6 -13 5 -11 0 -14 -3 -6 -6z"/>
<path d="M3855 3080 c3 -5 15 -10 26 -10 11 0 17 5 14 10 -3 6 -15 10 -26 10
-11 0 -17 -4 -14 -10z"/>
<path d="M4210 3036 c0 -9 0 -19 -1 -23 0 -4 4 -9 10 -11 14 -5 14 35 1 43 -5
3 -10 -1 -10 -9z"/>
<path d="M4158 3023 c-7 -25 6 -53 14 -31 3 7 2 22 -2 32 -6 19 -7 19 -12 -1z"/>
<path d="M3932 2854 c-10 -12 -10 -14 2 -14 17 0 30 16 19 23 -5 3 -14 -1 -21
-9z"/>
<path d="M4108 2843 c7 -3 16 -2 19 1 4 3 -2 6 -13 5 -11 0 -14 -3 -6 -6z"/>
<path d="M5020 6693 c-52 -31 -89 -58 -82 -61 16 -5 15 -22 -2 -22 -10 0 -11
-10 -5 -47 13 -80 34 -128 54 -125 48 9 118 116 129 197 4 28 10 65 13 83 3
17 1 32 -3 32 -5 0 -52 -26 -104 -57z"/>
<path d="M5146 6724 c-12 -42 -25 -149 -18 -155 14 -14 142 -22 142 -10 0 10
-89 151 -110 175 -5 4 -11 0 -14 -10z"/>
<path d="M3637 6690 c-13 -15 -14 -20 -3 -20 7 0 16 9 19 20 3 11 4 20 3 20
-1 0 -9 -9 -19 -20z"/>
<path d="M2878 6284 c-16 -8 -28 -16 -28 -18 0 -2 16 -6 35 -8 31 -4 35 -1 35
19 0 27 -5 28 -42 7z"/>
<path d="M6233 5347 c-5 -40 -7 -79 -5 -89 5 -21 19 -17 165 45 26 12 37 27
17 27 -5 0 -34 16 -65 35 -30 19 -65 39 -79 45 -24 9 -24 8 -33 -63z"/>
<path d="M1585 4759 c-5 -24 -45 -330 -45 -349 0 -6 33 -10 73 -10 68 0 72 1
73 23 0 12 4 58 8 102 l7 80 -55 89 c-48 77 -56 86 -61 65z"/>
<path d="M5904 3102 c-28 -15 -82 -46 -120 -70 -38 -24 -116 -71 -173 -105
-57 -34 -104 -67 -103 -72 2 -19 145 -204 154 -199 4 3 8 22 9 42 0 26 3 31 8
19 5 -15 30 18 111 145 164 257 171 268 168 268 -2 0 -26 -12 -54 -28z"/>
<path d="M2071 3082 c10 -25 143 -247 215 -357 l80 -124 48 48 c27 27 53 59
60 72 7 16 23 26 46 29 19 4 43 11 54 17 18 10 18 11 -1 30 -18 18 -174 109
-358 208 -38 21 -87 49 -109 63 -21 13 -37 19 -35 14z"/>
<path d="M5315 2724 c-63 -30 -826 -360 -960 -414 l-140 -58 -52 -73 c-28 -41
-73 -102 -99 -137 -26 -34 -45 -65 -42 -67 5 -5 482 195 754 315 61 27 182 76
270 108 87 33 166 63 175 66 15 7 149 177 149 190 0 14 -25 1 -181 -97 -90
-57 -189 -119 -219 -138 -30 -19 -62 -36 -70 -38 -40 -11 -70 -12 -84 -4 -11
6 -4 8 24 8 45 0 62 12 37 26 -9 6 -17 18 -17 27 0 30 -19 41 -51 30 -16 -5
-34 -8 -40 -6 -12 4 104 47 435 162 103 35 190 67 193 70 2 2 0 14 -7 25 -12
24 -33 26 -75 5z m-535 -288 c0 -2 -8 -10 -17 -17 -16 -13 -17 -12 -4 4 13 16
21 21 21 13z"/>
<path d="M2692 2669 c-10 -38 -9 -41 14 -49 48 -18 126 -24 134 -9 5 7 10 11
12 9 2 -3 20 -30 39 -60 20 -30 63 -89 96 -130 55 -70 64 -77 129 -99 38 -13
85 -32 104 -42 40 -21 369 -161 448 -191 29 -11 63 -18 74 -15 12 3 35 -1 52
-9 22 -11 10 5 -44 57 -95 92 -78 81 89 -53 74 -59 138 -108 143 -108 16 0 -3
162 -22 189 -9 14 -70 48 -146 83 -114 53 -732 322 -904 393 -36 15 -90 38
-121 51 -77 33 -85 31 -97 -17z"/>
<path d="M1848 1513 c0 -5 -2 -20 -2 -35 -2 -26 1 -28 40 -28 34 0 44 4 49 20
4 12 1 27 -5 35 -13 15 -79 21 -82 8z"/>
<path d="M1852 1401 c-8 -5 -12 -22 -10 -42 3 -30 7 -34 35 -37 44 -4 73 13
73 44 0 35 -63 58 -98 35z"/>
<path d="M2374 1506 c-13 -33 0 -51 36 -51 32 0 35 2 35 30 0 27 -4 30 -33 33
-22 2 -34 -2 -38 -12z"/>
<path d="M2372 1388 c-30 -30 -3 -72 44 -66 34 4 53 31 38 56 -13 21 -64 28
-82 10z"/>
<path d="M2740 1465 c0 -44 1 -45 33 -45 37 0 51 8 60 33 12 33 -10 57 -53 57
l-40 0 0 -45z"/>
<path d="M3268 1440 l-16 -50 35 0 c32 0 35 2 29 25 -8 32 -25 75 -29 75 -2 0
-10 -22 -19 -50z"/>
<path d="M4013 1496 c-24 -21 -28 -31 -27 -77 0 -44 5 -56 29 -76 21 -18 35
-23 54 -18 46 11 63 37 63 96 0 45 -4 56 -26 76 -34 29 -58 29 -93 -1z"/>
<path d="M4310 1470 c0 -40 0 -40 40 -40 46 0 68 26 50 60 -8 15 -21 20 -50
20 -40 0 -40 0 -40 -40z"/>
<path d="M5324 1509 c-66 -33 -54 -169 16 -184 41 -9 76 15 89 60 10 38 -1 96
-22 113 -20 17 -60 22 -83 11z"/>
<path d="M2877 1084 c-4 -4 -7 -20 -7 -36 0 -34 21 -45 59 -32 27 10 36 30 23
51 -10 15 -64 28 -75 17z"/>
<path d="M4701 1040 c-15 -46 -14 -50 14 -50 29 0 30 6 11 50 l-13 32 -12 -32z"/>
</g>
</svg>
