<?xml version="1.0" standalone="no"?>
<!DOCTYPE svg PUBLIC "-//W3C//DTD SVG 20010904//EN"
 "http://www.w3.org/TR/2001/REC-SVG-20010904/DTD/svg10.dtd">
<svg version="1.0" xmlns="http://www.w3.org/2000/svg"
 width="780.000000pt" height="784.000000pt" viewBox="0 0 780.000000 784.000000"
 preserveAspectRatio="xMidYMid meet">
<metadata>
Created by potrace 1.16, written by Peter Selinger 2001-2019
</metadata>
<g transform="translate(0.000000,784.000000) scale(0.100000,-0.100000)"
fill="#000000" stroke="none">
<path d="M246 7754 c-34 -11 -64 -31 -102 -68 -93 -94 -84 312 -84 -3761 0
-4072 -9 -3667 84 -3761 94 -93 -311 -84 3761 -84 4072 0 3667 -9 3761 84 93
94 84 -311 84 3761 0 4072 9 3667 -84 3761 -94 93 312 84 -3765 83 -3176 0
-3612 -2 -3655 -15z m3691 -364 c15 -15 35 -20 103 -23 l85 -3 -90 -2 c-59 -2
-96 -8 -109 -17 -36 -28 -76 21 -44 53 17 17 35 15 55 -8z m348 -44 c92 -18
55 -18 -65 -2 -64 10 -80 14 -50 14 25 1 77 -5 115 -12z m160 -30 c28 -8 41
-14 30 -14 -29 0 -124 25 -100 27 11 0 43 -6 70 -13z m167 -43 c48 -14 86 -28
84 -30 -2 -2 -43 8 -92 22 -105 30 -114 33 -95 34 8 1 54 -11 103 -26z m-372
0 c-14 -3 -28 -10 -32 -17 -12 -18 -9 -66 4 -66 7 0 6 -5 -4 -12 -9 -7 -18
-20 -21 -28 -4 -10 -6 -8 -6 7 -1 19 -9 23 -57 29 -108 13 -499 -2 -629 -25
-221 -39 -390 -91 -398 -122 -12 -46 -71 -28 -65 20 3 23 7 26 43 24 37 -1
264 53 275 66 3 3 16 7 30 8 14 1 72 8 130 17 176 26 401 37 540 26 69 -5 128
-10 133 -10 4 0 7 13 7 29 0 49 9 61 44 60 27 -2 28 -2 6 -6z m206 -34 c459
-103 876 -332 1217 -669 99 -99 109 -106 127 -93 11 8 20 20 20 27 0 8 -57 69
-128 137 -116 113 -248 220 -359 292 -24 15 -43 30 -43 33 0 6 8 1 85 -49 108
-72 248 -189 359 -300 l108 -108 -27 -29 -28 -29 75 -93 c201 -250 364 -551
453 -840 23 -73 31 -88 48 -88 24 0 20 -7 -6 -12 -15 -2 -25 18 -61 127 -98
295 -269 605 -452 819 -64 75 -66 77 -85 60 -22 -20 -26 -12 66 -125 75 -93
193 -268 250 -373 98 -181 193 -437 241 -649 20 -88 33 -125 50 -142 26 -26
23 -49 -8 -66 -15 -8 -24 -7 -39 7 -23 20 -23 22 -9 -99 14 -123 14 -362 0
-487 -16 -150 -54 -339 -94 -468 -18 -62 -31 -114 -27 -116 3 -2 18 -6 33 -10
25 -6 28 -2 48 51 30 81 75 270 100 424 21 126 21 131 4 150 -21 23 -10 51 21
57 31 7 46 -36 22 -60 -8 -7 -16 -28 -20 -46 -6 -30 -5 -32 18 -26 27 7 32 -4
16 -34 -5 -9 -21 -80 -35 -158 -14 -77 -42 -194 -61 -258 -20 -65 -34 -123
-33 -128 2 -6 24 -19 48 -28 34 -14 44 -23 42 -36 -6 -28 -54 -145 -58 -141
-2 2 7 31 21 65 14 34 25 68 25 76 0 16 -41 34 -86 40 -17 1 -36 6 -42 10 -6
3 -30 -34 -60 -92 -53 -108 -187 -320 -316 -502 -44 -64 -86 -124 -92 -135 -6
-11 -20 -22 -32 -25 -11 -3 -48 -36 -82 -73 l-63 -68 22 -23 c28 -30 109 -30
142 0 47 41 176 204 245 310 65 98 77 111 111 120 28 7 39 15 43 34 3 15 14
26 26 28 11 2 29 21 43 48 13 24 26 43 28 40 2 -2 -6 -22 -18 -45 -13 -25 -19
-50 -15 -64 6 -26 -61 -152 -142 -267 -98 -137 -288 -360 -308 -360 -6 0 -26
16 -45 36 -18 20 -46 45 -61 56 l-28 19 -67 -60 c-108 -96 -199 -166 -326
-251 -65 -43 -124 -81 -129 -82 -16 -6 4 -37 33 -51 32 -16 38 -63 10 -72 -12
-3 -25 -4 -30 -1 -5 4 -55 -16 -110 -44 -184 -92 -366 -157 -558 -200 -144
-31 -136 -34 -152 62 -7 46 -14 84 -16 86 -2 2 -52 -1 -112 -8 -59 -7 -177
-11 -262 -11 -146 2 -154 1 -169 -20 -14 -20 -20 -21 -101 -14 -47 4 -107 10
-133 14 l-47 8 -7 -45 c-5 -30 -3 -47 6 -52 6 -4 52 -13 101 -20 74 -11 91
-11 105 1 14 11 18 11 28 -2 23 -32 483 -32 494 0 6 17 39 13 46 -5 3 -9 4
-20 0 -25 -7 -12 -41 -12 -46 0 -2 5 -47 5 -108 -1 -58 -5 -166 -7 -240 -4
-79 4 -141 2 -150 -3 -10 -7 -20 -6 -30 3 -8 8 -53 19 -100 25 -111 16 -120
19 -120 41 0 13 -9 22 -27 26 -266 59 -491 139 -691 245 -134 71 -143 78 -132
99 17 31 12 38 -62 89 -260 175 -469 379 -656 636 l-54 75 23 20 c32 26 35 26
64 -17 48 -73 60 -89 122 -164 77 -94 339 -349 359 -349 8 0 14 -4 14 -8 0
-11 136 -113 198 -149 l45 -27 18 23 c11 13 19 27 19 31 0 4 -37 32 -82 61
-78 51 -210 152 -267 205 -31 29 -38 29 -65 7 -21 -18 -21 -18 -3 3 24 28 21
49 -8 72 -28 22 -32 32 -11 32 7 0 16 -8 18 -18 3 -11 45 -54 94 -97 218 -190
400 -302 690 -423 136 -58 174 -69 174 -53 0 6 5 11 11 11 6 0 9 -6 6 -14 -4
-10 10 -19 46 -31 127 -41 463 -96 502 -82 11 5 15 14 12 27 -3 11 0 23 6 27
6 4 3 9 -9 13 -14 5 -10 8 18 12 33 3 36 2 24 -12 -22 -25 -30 -61 -15 -71 8
-5 42 -9 76 -9 89 0 317 20 326 29 4 5 -8 22 -28 40 l-36 31 48 -1 c39 -1 43
-3 19 -8 l-30 -6 33 -27 c18 -16 40 -28 49 -28 13 0 17 -8 16 -35 -1 -19 1
-37 6 -40 4 -2 34 2 66 9 32 8 95 22 139 31 44 10 125 33 180 52 111 39 338
144 349 161 4 6 26 20 49 31 23 10 87 50 142 88 81 56 100 74 98 92 -5 42 15
63 57 59 35 -3 45 3 110 61 l71 63 -20 22 c-30 32 -26 44 4 16 l25 -24 66 65
c59 58 65 67 59 96 -6 34 3 45 39 47 26 1 126 131 236 308 113 180 148 253
133 278 -10 15 -8 29 12 74 18 41 21 57 12 64 -21 16 -111 43 -118 35 -3 -5
-21 -44 -38 -88 -76 -186 -217 -422 -344 -575 -183 -218 -376 -376 -632 -515
-38 -20 -74 -41 -80 -45 -16 -12 -203 -90 -290 -121 -68 -24 -80 -32 -80 -51
0 -18 -6 -24 -27 -26 -22 -3 -28 1 -28 17 0 19 -2 20 -47 6 -53 -16 -91 -19
-58 -5 11 5 65 21 120 36 182 49 424 155 573 251 53 33 64 59 25 57 -18 0 -19
2 -10 18 9 14 8 22 -8 37 -20 19 -21 18 -129 -44 -195 -114 -431 -206 -633
-245 -35 -7 -63 -17 -63 -22 0 -5 -5 -6 -11 -3 -6 4 -71 1 -145 -5 l-134 -13
-25 -33 c-23 -30 -24 -34 -8 -35 15 -1 15 -2 -2 -6 -11 -3 -28 -12 -38 -21
-16 -15 -17 -14 -11 1 5 15 -2 17 -47 19 l-54 1 64 6 c56 5 66 10 87 37 l24
31 -127 7 c-178 9 -317 31 -458 72 -143 41 -151 41 -157 9 -4 -20 1 -26 31
-38 20 -8 61 -20 91 -27 55 -13 80 -25 80 -40 0 -5 -35 3 -77 16 -121 38 -139
40 -146 15 -6 -26 4 -31 128 -64 62 -17 73 -23 51 -25 -16 -2 -39 1 -50 6 -12
6 -52 21 -91 33 -86 27 -208 76 -298 120 -57 27 -70 30 -78 18 -7 -11 -9 -9
-9 7 0 14 -12 26 -38 38 -76 37 -260 164 -372 257 -133 111 -243 225 -359 373
-67 86 -181 262 -194 299 -1 5 -23 -1 -47 -14 -25 -13 -47 -24 -50 -24 -3 -1
-21 -11 -40 -23 -19 -12 -38 -22 -43 -22 -17 0 35 -80 60 -92 21 -10 28 -20
28 -43 0 -25 -4 -31 -26 -33 -35 -4 -55 21 -41 52 8 19 6 31 -14 65 l-25 41
-40 -20 c-21 -11 -39 -25 -39 -30 0 -32 168 -294 273 -426 50 -62 72 -83 97
-87 27 -6 31 -10 28 -34 -3 -24 -8 -28 -33 -28 -26 0 -30 4 -30 27 -1 18 -24
56 -69 113 -115 145 -299 436 -284 450 1 1 22 12 45 24 24 12 43 24 43 27 0 3
-7 18 -15 33 -61 119 -156 398 -189 556 -9 44 -19 91 -22 104 -5 22 -8 23 -82
20 l-77 -4 -9 50 c-13 72 -11 579 2 640 10 45 10 41 4 -35 -10 -117 -9 -478 1
-573 l9 -78 56 7 c32 3 60 9 64 13 4 3 2 44 -4 91 -12 92 -14 434 -4 515 14
106 36 235 56 316 25 103 25 98 -2 110 -21 9 -21 9 4 4 23 -4 27 -1 33 24 3
16 12 32 20 35 16 6 77 94 118 169 18 34 24 54 17 61 -16 16 -12 28 8 22 13
-5 27 15 69 97 107 209 286 459 456 631 59 61 107 112 107 115 0 17 -84 110
-101 113 -52 7 -45 68 7 68 32 0 214 136 214 160 0 25 26 43 53 36 16 -4 41 6
82 31 66 39 227 121 290 148 135 56 404 140 427 133 6 -2 -36 -16 -93 -32 -57
-15 -148 -43 -202 -63 -79 -29 -97 -39 -92 -52 20 -47 45 -125 41 -128 -2 -2
-13 25 -26 59 -12 35 -26 67 -31 72 -5 6 -59 -15 -133 -52 -150 -73 -236 -127
-236 -146 0 -24 -31 -48 -55 -42 -22 6 -89 -35 -174 -105 -48 -39 -50 -82 -6
-131 l33 -36 39 32 c76 65 193 146 304 212 63 37 119 74 126 82 15 18 47 8 39
-13 -8 -21 1 -19 71 19 34 18 65 31 68 28 3 -3 5 -15 5 -26 0 -17 -2 -18 -10
-6 -8 13 -21 9 -87 -24 -120 -59 -273 -149 -365 -215 -145 -103 -378 -325
-378 -359 0 -6 6 -12 13 -15 6 -2 8 -8 4 -13 -4 -5 -12 -2 -18 6 -8 12 -18 6
-55 -35 -65 -72 -231 -323 -293 -445 -51 -97 -53 -104 -35 -117 28 -21 54 -16
54 10 1 20 2 20 11 4 5 -9 7 -22 3 -28 -3 -6 0 -15 7 -20 18 -11 39 -11 39 0
0 16 113 217 173 306 33 50 84 121 114 158 49 62 56 74 60 128 3 32 10 59 14
59 5 0 6 7 3 15 -7 18 -30 20 -38 3 -3 -7 -5 -4 -3 7 3 26 35 32 44 8 4 -10
11 -21 17 -25 8 -6 7 -11 -2 -16 -7 -5 -16 -26 -19 -48 l-6 -39 121 117 c110
105 284 246 360 290 25 15 31 16 41 4 12 -14 -8 -31 -174 -143 -18 -12 -49
-41 -69 -65 -34 -40 -36 -43 -17 -46 33 -5 46 -39 25 -63 -23 -26 -40 -24 -60
6 -9 14 -21 25 -27 25 -14 0 -159 -143 -232 -230 -103 -123 -286 -426 -268
-443 3 -4 2 -7 -4 -7 -6 0 -14 -7 -17 -16 -4 -11 5 -19 30 -30 20 -8 37 -14
39 -12 9 10 35 69 35 78 0 25 55 149 97 217 45 75 48 83 34 83 -9 0 -61 -83
-111 -178 -37 -71 -50 -77 -21 -11 33 76 126 210 137 199 7 -7 21 4 43 34 17
25 37 48 43 52 14 9 5 -6 -45 -75 -49 -66 -131 -220 -123 -228 3 -4 6 -2 6 4
0 8 176 279 197 302 2 3 9 -1 15 -7 9 -9 4 -22 -20 -54 -117 -159 -220 -341
-287 -507 -25 -63 -43 -121 -41 -128 3 -7 2 -13 -3 -13 -12 0 -54 -158 -47
-175 3 -8 1 -15 -5 -17 -18 -6 -70 -373 -55 -396 3 -5 -1 -18 -9 -28 -14 -18
-14 -18 -15 -1 0 40 -20 3 -22 -41 l-1 -47 -6 55 -6 55 -49 0 -49 0 2 -80 c4
-185 47 -434 106 -616 23 -73 116 -299 134 -327 7 -11 12 -12 29 -1 l21 13
-26 48 c-14 26 -30 45 -34 42 -5 -2 -15 21 -24 53 -9 32 -34 114 -55 183 -20
69 -43 152 -49 185 -7 33 -14 70 -17 83 -3 14 -12 22 -27 23 -17 1 -18 2 -4 6
15 4 17 12 11 69 -6 60 -5 64 14 64 16 0 22 -9 27 -40 6 -35 9 -39 30 -34 18
5 24 0 33 -24 12 -35 8 -42 -25 -42 -15 0 -23 -6 -23 -17 0 -39 97 -369 99
-340 1 5 -10 47 -23 95 -31 110 -41 172 -28 172 6 0 17 2 25 5 7 3 14 0 14 -7
1 -25 55 -204 88 -288 39 -103 133 -297 175 -362 17 -27 38 -48 48 -48 13 0
14 -2 3 -9 -9 -6 -10 -11 -2 -15 16 -10 14 -46 -3 -46 -8 0 -24 16 -36 35 -21
35 -34 43 -44 27 -7 -12 31 -72 46 -72 7 -1 2 -10 -12 -21 l-24 -21 39 -35
c22 -19 31 -29 20 -22 -49 32 -75 62 -64 75 8 10 6 20 -8 38 -20 27 -31 28
-46 4 -12 -18 -1 -35 109 -173 92 -116 213 -238 230 -231 8 3 11 0 8 -8 -3 -7
35 -45 92 -90 81 -65 98 -75 111 -64 14 11 15 10 10 -7 -6 -17 6 -29 71 -72
149 -100 467 -254 492 -238 19 12 10 26 -27 41 -21 9 -80 36 -132 60 -72 34
-97 41 -103 32 -5 -9 -8 -3 -8 15 0 15 6 27 12 27 7 0 2 7 -11 17 -18 12 -28
14 -41 5 -15 -9 -17 -8 -13 7 3 13 -13 29 -64 62 -37 24 -96 66 -131 92 -35
27 -66 47 -68 44 -3 -3 7 -14 22 -26 22 -17 25 -24 15 -34 -10 -9 -12 -9 -9 1
2 7 -15 29 -37 50 -23 20 -33 31 -23 23 10 -8 21 -12 23 -9 3 3 -24 31 -60 63
-55 48 -67 55 -80 45 -9 -7 -18 -10 -22 -7 -3 4 2 9 11 13 9 3 16 12 16 20 0
24 18 16 79 -39 62 -56 201 -157 296 -216 48 -30 57 -32 72 -20 16 13 17 12 5
-3 -12 -15 -9 -20 27 -42 50 -32 55 -32 67 -3 6 12 8 15 6 7 -18 -73 -22 -66
80 -115 53 -25 101 -45 107 -45 6 0 17 12 23 28 7 15 13 28 14 30 1 1 50 -11
110 -28 139 -39 350 -70 530 -77 137 -5 141 -5 162 17 12 13 19 27 16 32 -3 4
2 8 10 8 9 0 16 -6 16 -13 0 -7 6 -21 13 -30 11 -15 21 -16 100 -6 l87 12 1
31 c2 30 2 30 6 4 3 -19 10 -28 23 -28 30 0 238 56 335 90 198 70 474 229 605
349 50 46 53 50 30 51 -19 0 -22 2 -11 9 9 6 22 6 32 1 32 -18 253 232 362
407 49 80 103 178 98 178 -1 0 10 26 24 58 15 32 24 64 22 72 -3 7 0 15 6 18
15 6 51 103 43 116 -3 5 0 11 8 14 15 6 41 90 33 111 -3 8 0 17 7 19 25 10 86
337 86 459 0 29 4 48 11 48 14 0 6 -151 -16 -306 -10 -69 -10 -101 -3 -105 7
-5 7 -22 -2 -57 -6 -28 -9 -56 -5 -62 3 -5 2 -10 -3 -10 -10 0 -42 -82 -42
-107 0 -7 6 -13 13 -13 15 0 83 242 99 352 8 53 14 68 27 68 9 0 23 -6 29 -12
10 -10 15 -10 22 2 5 8 10 23 10 33 0 10 4 16 10 12 6 -3 6 -15 0 -29 -8 -21
-5 -25 18 -31 14 -3 21 -9 15 -13 -5 -4 -16 -38 -23 -77 -11 -56 -59 -238 -87
-327 -6 -18 27 -39 89 -56 l38 -10 25 81 c36 113 71 264 92 398 20 130 26 570
8 576 -6 2 -9 22 -7 46 4 46 -44 268 -88 412 -39 127 -103 282 -165 405 -64
125 -232 383 -245 375 -14 -9 -38 5 -43 25 -7 28 15 52 44 48 19 -2 24 -9 25
-35 0 -21 23 -66 70 -140 155 -238 233 -397 315 -643 36 -108 53 -144 64 -142
8 2 15 -4 15 -13 0 -8 -5 -15 -11 -15 -6 0 -8 -11 -5 -27 2 -16 10 -59 17 -97
l12 -69 18 24 c25 32 24 33 -16 196 -58 239 -165 499 -286 699 -49 81 -190
275 -258 354 l-30 35 25 25 24 26 -103 101 c-157 155 -226 212 -372 310 -76
51 -267 163 -278 163 -2 0 -14 -24 -26 -52 -13 -29 -30 -66 -39 -82 -14 -28
-14 -31 2 -40 10 -6 25 -17 34 -24 15 -11 15 -11 -3 -5 -11 3 -26 10 -32 16
-9 6 -18 5 -28 -3 -8 -7 -15 -8 -15 -3 0 6 -45 28 -100 49 -55 22 -100 44
-100 50 0 16 -59 39 -70 28 -9 -10 -40 -110 -40 -130 0 -6 11 -15 24 -18 36
-9 154 -65 161 -76 10 -16 -4 -12 -79 24 -95 45 -116 51 -116 34 0 -8 17 -20
38 -27 20 -7 72 -30 114 -51 70 -35 79 -37 88 -22 5 9 9 13 10 7 0 -5 -4 -17
-10 -25 -7 -12 -25 -6 -107 33 -54 25 -110 49 -125 53 -34 8 -34 10 -3 107 31
95 31 105 3 117 -48 19 10 9 62 -11 l54 -21 19 23 18 22 72 -29 c62 -25 72
-33 75 -56 6 -53 30 -41 68 33 19 39 33 76 31 83 -6 14 -181 88 -317 133 -58
19 -172 50 -255 68 -82 19 -140 34 -128 34 12 1 83 -13 159 -30z m-1062 15
c21 -8 21 -53 0 -61 -8 -3 -25 -1 -37 5 -12 6 -29 13 -37 15 -10 4 -9 6 5 6
11 1 26 10 33 21 14 22 14 22 36 14z m1453 -58 c161 -65 433 -204 433 -222 0
-2 -24 9 -52 26 -98 57 -282 147 -378 184 -118 46 -138 54 -123 55 6 1 60 -19
120 -43z m-537 -20 c0 -23 -16 -27 -45 -12 -23 12 -24 15 -8 19 36 9 53 7 53
-7z m280 -51 c17 -20 9 -49 -15 -53 -20 -4 -20 -3 -1 11 27 20 14 49 -21 45
-32 -4 -39 -20 -18 -42 9 -9 12 -16 6 -16 -12 0 -31 33 -31 54 0 21 63 22 80
1z m-523 -31 c-3 -3 -12 -4 -19 -1 -8 3 -5 6 6 6 11 1 17 -2 13 -5z m193 -18
c83 -17 41 -18 -75 -1 -75 10 -82 13 -40 13 28 1 79 -5 115 -12z m165 -31 c53
-17 35 -17 -40 -1 -38 9 -49 14 -30 14 17 0 48 -5 70 -13z m72 -21 c-3 -3 -12
-4 -19 -1 -8 3 -5 6 6 6 11 1 17 -2 13 -5z m-987 -14 c0 -5 -2 -10 -4 -10 -3
0 -8 5 -11 10 -3 6 -1 10 4 10 6 0 11 -4 11 -10z m763 3 c-7 -2 -21 -2 -30 0
-10 3 -4 5 12 5 17 0 24 -2 18 -5z m264 1 c-3 -3 -12 -4 -19 -1 -8 3 -5 6 6 6
11 1 17 -2 13 -5z m-1432 -34 c-3 -5 -14 -10 -23 -10 -15 0 -15 2 -2 10 20 13
33 13 25 0z m440 -16 c-16 -24 -16 -25 2 -24 10 1 38 1 63 0 42 -1 43 -2 18
-12 -58 -21 -28 -29 85 -22 97 6 114 4 126 -10 9 -11 31 -16 70 -17 53 -2 54
-2 16 -8 -32 -6 -17 -9 70 -15 132 -9 330 -39 436 -66 43 -11 81 -20 86 -20 5
0 15 23 22 51 7 27 15 48 18 46 2 -3 -1 -26 -8 -51 -12 -48 -10 -56 13 -60 7
-2 24 -8 38 -14 14 -6 66 -29 115 -50 113 -47 270 -135 367 -205 96 -69 99
-71 93 -55 -3 7 -1 19 4 27 8 12 16 10 48 -14 50 -38 55 -46 37 -66 -13 -14
-8 -21 42 -69 l56 -53 44 44 44 43 -38 39 c-48 50 -186 166 -237 200 l-40 27
-23 -30 -23 -30 -40 27 c-61 40 -43 84 20 47 29 -17 32 -17 43 -1 12 15 23 8
113 -64 55 -44 130 -109 166 -144 l65 -65 34 35 34 35 -30 31 c-56 59 -220
191 -324 261 -112 75 -130 88 -90 68 49 -25 186 -120 270 -187 120 -95 302
-281 390 -398 41 -55 79 -103 84 -106 4 -4 3 -10 -4 -14 -6 -4 -12 -5 -14 -4
-1 2 -12 21 -24 42 -29 50 -159 212 -209 259 l-39 38 -82 -83 -82 -83 43 -42
c38 -37 45 -41 56 -28 11 13 9 21 -9 46 -26 36 -13 40 19 6 13 -14 29 -22 35
-20 18 7 53 -31 114 -119 29 -42 59 -77 67 -77 33 0 13 32 -134 217 -42 54
-46 61 -17 33 20 -19 71 -81 114 -137 66 -89 80 -102 100 -98 19 5 23 2 20
-12 -2 -10 -9 -17 -16 -16 -12 3 111 -205 132 -222 21 -17 39 -57 28 -64 -5
-3 5 -41 26 -89 33 -79 36 -83 61 -78 24 6 24 5 6 -5 -11 -7 -22 -13 -24 -15
-7 -6 41 -134 50 -134 6 0 7 -4 4 -10 -9 -15 14 -88 32 -98 12 -7 2 -13 -42
-27 -31 -10 -59 -23 -61 -29 -7 -18 24 -150 36 -154 7 -3 8 -8 1 -16 -7 -8 -7
-32 -2 -67 5 -30 13 -108 17 -172 6 -105 5 -117 -10 -117 -13 0 -16 12 -16 70
0 115 -21 271 -37 277 -11 4 -12 8 -3 13 9 6 8 26 -5 84 -18 81 -16 106 10
106 27 0 75 30 75 47 0 8 -5 33 -12 55 -9 31 -21 44 -63 68 -29 17 -55 30 -59
30 -4 0 -11 -10 -16 -22 -6 -17 -9 -19 -9 -6 -1 10 10 25 24 34 14 9 23 20 20
24 -6 10 -45 1 -45 -11 0 -5 -6 -9 -12 -9 -7 0 -29 37 -47 83 -54 128 -68 148
-99 142 -25 -5 -25 -5 -5 4 21 9 22 13 11 38 -33 79 -266 403 -289 403 -19 0
-21 -31 -4 -50 10 -11 16 -20 13 -20 -2 0 -17 14 -34 32 -16 17 -24 28 -18 25
7 -4 17 0 24 8 10 12 7 20 -13 44 -51 61 -260 241 -279 241 -15 0 -8 -24 14
-49 19 -21 17 -21 -9 3 -23 20 -30 33 -23 41 13 15 -13 39 -120 108 -117 75
-272 151 -280 136 -5 -7 -9 -4 -12 8 -4 13 -39 30 -129 60 -246 84 -389 107
-664 107 -242 0 -295 -6 -296 -37 -1 -19 -2 -19 -6 -3 -4 16 -11 17 -56 12
-96 -13 -309 -74 -422 -121 -43 -18 -268 -121 -298 -136 -17 -9 -17 -8 -1 16
9 13 20 23 24 20 5 -3 10 -1 12 3 3 10 123 69 238 118 69 29 75 34 73 59 -3
39 -16 49 -49 38 -18 -6 -31 -19 -34 -34 -5 -20 -7 -21 -13 -7 -6 17 -9 17
-57 -2 -27 -11 -78 -34 -111 -51 -41 -20 -65 -27 -71 -21 -18 18 2 33 106 81
122 57 187 83 284 112 51 15 72 26 73 37 0 16 1 16 11 1 10 -15 19 -14 102 7
70 18 95 29 110 48 26 34 43 34 21 0z m518 -11 c-7 -2 -19 -2 -25 0 -7 3 -2 5
12 5 14 0 19 -2 13 -5z m107 -3 c0 -5 -5 -10 -11 -10 -5 0 -7 5 -4 10 3 6 8
10 11 10 2 0 4 -4 4 -10z m387 4 c-3 -3 -12 -4 -19 -1 -8 3 -5 6 6 6 11 1 17
-2 13 -5z m-1522 -23 c-6 -5 -21 -12 -35 -15 l-25 -7 25 15 c28 17 50 21 35 7z
m1555 -5 c0 -3 -4 -8 -10 -11 -5 -3 -10 -1 -10 4 0 6 5 11 10 11 6 0 10 -2 10
-4z m-1440 -45 c0 -10 -89 -45 -96 -38 -3 3 13 13 35 23 23 10 41 22 41 27 0
4 5 5 10 2 6 -3 10 -10 10 -14z m2024 -7 c19 -7 21 -35 4 -52 -7 -7 -17 -8
-30 -1 -21 11 -23 30 -6 47 14 14 12 14 32 6z m-1006 -11 c45 -3 82 -10 82
-15 0 -5 -15 -6 -34 -3 -19 4 -76 10 -127 14 -52 5 -74 9 -49 10 25 0 82 -2
128 -6z m-1173 -43 c3 -5 1 -10 -4 -10 -6 0 -11 5 -11 10 0 6 2 10 4 10 3 0 8
-4 11 -10z m2055 -26 c0 -2 -9 0 -20 6 -11 6 -20 13 -20 16 0 2 9 0 20 -6 11
-6 20 -13 20 -16z m258 -21 c-5 -27 -35 -40 -53 -23 -13 14 -13 18 1 38 12 18
19 20 35 11 11 -6 19 -17 17 -26z m-441 -5 c-3 -8 -6 -5 -6 6 -1 11 2 17 5 13
3 -3 4 -12 1 -19z m537 -54 c20 -8 21 -38 1 -54 -29 -24 -60 21 -33 48 14 14
12 14 32 6z m-2149 -34 c-3 -5 -12 -10 -18 -10 -7 0 -6 4 3 10 19 12 23 12 15
0z m543 -17 c-16 -2 -40 -2 -55 0 -16 2 -3 4 27 4 30 0 43 -2 28 -4z m280 0
c-16 -2 -40 -2 -55 0 -16 2 -3 4 27 4 30 0 43 -2 28 -4z m-369 -7 c-2 -2 -33
-6 -69 -9 -41 -3 -54 -2 -35 3 31 8 112 13 104 6z m496 -7 c20 -5 9 -6 -30 -2
-33 3 -62 7 -64 9 -8 7 63 2 94 -7z m-652 -16 c-7 -2 -19 -2 -25 0 -7 3 -2 5
12 5 14 0 19 -2 13 -5z m730 0 c-7 -2 -19 -2 -25 0 -7 3 -2 5 12 5 14 0 19 -2
13 -5z m1267 -61 c0 -8 29 -44 63 -81 103 -107 188 -206 172 -200 -6 2 -45 42
-87 89 -146 165 -155 173 -174 166 -11 -4 -27 2 -46 21 l-28 27 22 23 22 23
28 -27 c15 -15 28 -33 28 -41z m-2060 48 c-34 -11 -60 -11 -35 0 11 5 29 8 40
8 16 0 15 -2 -5 -8z m865 0 c25 -11 -1 -11 -35 0 -20 6 -21 8 -5 8 11 0 29 -3
40 -8z m895 -31 c0 -12 -27 -11 -35 1 -11 17 5 32 21 19 8 -6 14 -15 14 -20z
m-1823 15 c-3 -3 -12 -4 -19 -1 -8 3 -5 6 6 6 11 1 17 -2 13 -5z m-116 -35
c-47 -16 -86 -27 -88 -25 -5 5 137 54 157 54 8 0 -23 -13 -69 -29z m1154 21
c13 -5 14 -9 5 -9 -8 0 -24 4 -35 9 -13 5 -14 9 -5 9 8 0 24 -4 35 -9z m-2345
-3 c0 -2 -37 -42 -83 -88 -189 -193 -366 -446 -474 -678 -53 -112 -125 -293
-147 -369 l-15 -53 30 -11 c16 -6 28 -12 26 -14 -6 -6 -67 17 -67 26 0 4 18
60 40 123 74 215 181 435 292 601 77 116 230 305 307 381 34 33 61 65 61 72 0
7 7 13 15 13 8 0 15 -2 15 -3z m2445 -33 c24 -11 25 -13 5 -8 -14 4 -38 13
-55 20 -24 11 -25 13 -5 8 14 -4 39 -13 55 -20z m-1365 -24 c-8 -5 -19 -10
-25 -10 -5 0 -3 5 5 10 8 5 20 10 25 10 6 0 3 -5 -5 -10z m1430 0 c8 -5 11
-10 5 -10 -5 0 -17 5 -25 10 -8 5 -10 10 -5 10 6 0 17 -5 25 -10z m-1490 -25
c-14 -8 -29 -14 -35 -14 -5 0 1 6 15 14 14 8 30 14 35 14 6 0 -1 -6 -15 -14z
m1550 0 c14 -8 21 -14 15 -14 -5 0 -21 6 -35 14 -14 8 -20 14 -15 14 6 0 21
-6 35 -14z m-1601 -19 c-10 -9 -109 -56 -109 -51 0 6 91 54 104 55 5 0 7 -2 5
-4z m1751 -61 c0 -3 -27 8 -60 25 -33 17 -60 33 -60 35 0 3 27 -8 60 -25 33
-17 60 -33 60 -35z m-2405 45 c3 -5 1 -10 -4 -10 -6 0 -11 5 -11 10 0 6 2 10
4 10 3 0 8 -4 11 -10z m521 -53 c-281 -179 -437 -319 -595 -536 -53 -73 -86
-112 -75 -91 4 8 39 57 77 108 93 124 229 266 336 351 82 65 256 182 270 180
3 0 -2 -6 -13 -12z m2074 -116 c53 -39 138 -111 190 -161 52 -49 99 -90 104
-90 5 0 6 -3 3 -6 -4 -4 15 -32 41 -63 60 -70 103 -127 127 -166 28 -45 5 -19
-63 72 -34 45 -66 84 -70 87 -8 5 -111 -166 -126 -209 -6 -17 -11 -12 -28 28
-11 26 -23 47 -27 47 -3 0 -13 -17 -22 -38 l-16 -37 -13 28 c-7 15 -16 27 -19
27 -3 0 -27 -39 -53 -87 -42 -78 -48 -84 -48 -56 0 18 -4 42 -9 55 -5 13 -12
31 -15 41 -5 16 -9 15 -30 -10 l-25 -28 -18 44 -19 44 -19 -49 -18 -49 -11 33
-11 32 -45 -81 c-25 -45 -55 -89 -67 -99 -15 -12 -23 -29 -23 -50 l0 -32 83 5
c58 4 70 3 42 -3 -22 -4 -62 -10 -90 -11 l-50 -3 -1 114 c0 63 1 87 3 53 3
-45 8 -63 18 -63 14 0 116 164 130 209 7 23 8 23 18 5 15 -29 16 -29 34 -4
l16 23 22 -43 c21 -42 23 -43 34 -22 23 43 49 17 63 -61 2 -12 18 7 48 57 24
42 48 76 51 76 4 0 11 -15 15 -32 l7 -33 20 45 19 45 22 -49 22 -49 49 84 c26
46 54 92 62 101 13 15 11 21 -24 59 -100 113 -238 232 -368 319 -44 29 -84 58
-90 63 -24 24 89 -49 175 -112z m305 40 c5 -11 2 -11 -17 1 -12 8 -24 20 -26
27 -6 18 36 -9 43 -28z m-125 -36 c13 -14 21 -25 18 -25 -2 0 -15 11 -28 25
-13 14 -21 25 -18 25 2 0 15 -11 28 -25z m290 10 c7 -8 8 -15 2 -15 -5 0 -15
7 -22 15 -7 8 -8 15 -2 15 5 0 15 -7 22 -15z m-2100 -186 c0 -5 -7 -9 -15 -9
-15 0 -20 12 -9 23 8 8 24 -1 24 -14z m1208 -46 c-10 -2 -26 -2 -35 0 -10 3
-2 5 17 5 19 0 27 -2 18 -5z m-1168 -23 c0 -5 -4 -10 -10 -10 -5 0 -10 5 -10
10 0 6 5 10 10 10 6 0 10 -4 10 -10z m-30 -227 c0 -71 3 -182 5 -248 3 -66 5
-165 5 -220 0 -69 3 -95 10 -85 6 9 10 111 10 248 l0 232 35 0 35 0 1 -52 c1
-29 4 -66 8 -83 l7 -30 13 25 c45 80 157 163 259 192 85 23 150 23 235 -2 94
-26 144 -58 217 -137 35 -39 69 -67 77 -65 12 3 14 -3 10 -25 -6 -31 12 -113
25 -113 4 0 8 81 8 180 l0 180 29 0 29 0 7 -240 c10 -333 35 -314 35 28 l0
162 29 0 c28 0 28 -1 34 -67 4 -38 7 -132 7 -210 0 -130 6 -163 25 -134 3 5
30 17 59 25 164 48 335 -17 433 -162 53 -79 67 -125 67 -232 1 -75 -3 -93 -30
-151 -18 -37 -49 -85 -69 -108 -41 -45 -39 -33 -35 -203 2 -70 17 -56 20 17 1
22 5 49 10 60 6 15 9 6 10 -35 1 -30 2 -62 1 -71 -1 -9 8 -19 19 -22 23 -6 21
-9 95 123 53 93 95 153 103 146 2 -3 -9 -22 -26 -43 -16 -21 -43 -65 -59 -98
-16 -33 -39 -75 -50 -94 -12 -18 -19 -41 -15 -49 3 -9 1 -13 -5 -9 -6 4 -13 0
-17 -8 -3 -8 -1 -15 4 -15 6 0 10 -7 10 -16 0 -10 -5 -14 -16 -10 -8 3 -12 2
-9 -4 9 -15 35 -12 35 4 0 8 5 18 10 21 7 4 10 -6 8 -29 -1 -20 -6 -36 -11
-36 -5 0 18 -20 51 -44 33 -24 71 -59 85 -78 39 -51 74 -136 85 -208 8 -55 6
-73 -13 -136 -12 -40 -32 -88 -44 -108 -28 -44 -113 -122 -162 -147 -59 -30
-167 -43 -236 -28 -68 15 -156 15 -161 0 -2 -6 -16 -11 -31 -11 -20 0 -27 -5
-28 -21 -2 -16 3 -20 18 -16 10 3 17 1 13 -4 -3 -5 -11 -9 -19 -9 -8 0 -17 -5
-21 -12 -5 -8 -2 -9 10 -5 9 4 24 2 34 -3 9 -5 62 -19 117 -30 94 -20 126 -30
94 -30 -8 0 -30 4 -49 10 -19 5 -56 11 -82 11 -27 1 -51 6 -54 11 -7 11 -64
10 -64 -2 0 -5 -4 -10 -10 -10 -5 0 -10 7 -10 15 0 8 -7 15 -15 15 -21 0 -19
-30 3 -46 15 -12 15 -13 0 -14 -9 0 -18 6 -21 13 -3 8 -10 7 -23 -7 -11 -10
-14 -16 -7 -12 16 9 78 -47 69 -62 -9 -16 -93 -40 -166 -48 -33 -4 -60 -11
-60 -15 0 -5 -27 -9 -59 -9 -62 0 -84 -12 -54 -29 10 -5 16 -12 13 -15 -6 -6
-95 -13 -262 -22 -143 -7 -142 -6 -137 -89 2 -24 0 -47 -4 -51 -4 -4 -7 19 -7
52 0 32 -4 64 -8 70 -4 7 -63 13 -148 17 -122 6 -143 4 -164 -10 l-24 -17 22
31 c27 38 27 38 0 39 -13 1 -58 9 -102 19 -43 9 -91 15 -107 13 -16 -3 -29 -2
-29 1 0 4 -26 11 -59 18 -64 12 -131 40 -131 55 0 5 3 7 8 4 4 -2 16 2 27 10
18 13 17 14 -11 15 l-29 1 30 7 c37 9 76 30 56 31 -7 0 -11 6 -7 15 7 20 -32
29 -102 22 -168 -17 -170 -17 -127 -7 96 24 91 22 73 29 -17 6 -16 7 2 19 18
11 20 10 20 -9 0 -15 4 -19 16 -15 9 3 21 6 27 7 7 1 1 5 -13 9 -19 6 -20 8
-6 9 15 1 16 4 6 15 -6 8 -19 12 -28 9 -14 -4 -15 -3 -2 6 24 17 5 24 -77 27
-43 2 -98 6 -123 9 -68 10 -164 60 -220 116 -50 50 -120 176 -120 218 0 17 -6
21 -32 21 -28 1 -30 2 -15 11 10 6 25 8 33 5 11 -4 14 5 14 43 0 26 7 70 15
97 9 27 18 63 20 81 4 26 2 30 -14 26 -11 -3 -21 2 -24 11 -5 12 0 16 19 16
14 0 23 4 20 9 -3 4 6 13 19 19 21 10 25 9 25 -4 0 -8 5 -12 10 -9 6 3 10 15
10 25 0 14 -6 18 -24 14 -20 -3 -23 -1 -19 16 6 23 19 26 26 8 2 -7 7 -10 10
-7 4 3 -2 21 -13 41 l-19 36 30 4 c16 3 29 1 29 -4 0 -4 -7 -8 -15 -8 -8 0
-15 -7 -15 -15 0 -8 6 -15 14 -15 9 0 12 -7 9 -20 -3 -11 -3 -27 1 -35 5 -13
8 -14 20 -3 10 9 11 15 2 20 -6 4 2 8 19 8 22 0 26 3 15 9 -8 6 -18 7 -22 5
-4 -3 -8 -1 -8 5 0 5 9 13 20 16 11 3 20 11 20 16 0 5 -9 9 -20 9 -11 0 -20 5
-20 10 0 6 11 10 24 10 13 0 32 3 40 6 12 5 15 2 10 -10 -3 -9 -2 -16 3 -16 5
0 9 10 10 21 2 19 -2 21 -31 16 -18 -3 -39 -1 -47 4 -10 6 -5 9 19 9 l32 0 2
73 2 72 3 -73 c3 -58 7 -73 18 -68 9 3 15 -4 17 -22 2 -21 9 -28 31 -30 18 -2
29 2 33 12 3 9 12 16 20 16 9 0 14 12 14 35 0 19 5 35 10 35 6 0 10 11 10 24
0 17 -15 35 -53 63 -101 77 -156 189 -157 319 0 54 -5 92 -16 113 -18 37 -10
56 12 27 16 -23 16 -23 39 28 26 54 116 148 170 177 25 13 45 27 45 31 0 4
-17 10 -37 14 -80 13 -100 24 -35 18 55 -5 62 -4 62 12 0 20 -111 253 -121
254 -3 0 -11 -18 -18 -40 -28 -95 -141 -322 -157 -316 -7 3 -23 -24 -40 -66
-16 -39 -41 -91 -56 -115 -15 -24 -37 -61 -48 -83 -11 -22 -27 -40 -34 -40
-20 0 -31 57 -16 76 11 12 14 12 25 -3 8 -10 15 -16 17 -13 30 37 78 129 103
195 17 45 35 80 41 78 13 -4 41 35 46 63 2 10 6 21 9 24 6 6 104 236 114 268
10 34 18 27 43 -36 13 -31 40 -86 60 -122 36 -64 36 -65 43 -35 7 30 7 30 8
-6 0 -20 4 -56 7 -81 6 -41 9 -44 30 -40 20 4 24 10 24 38 0 31 3 34 30 34 27
0 30 -3 30 -30 0 -27 3 -30 30 -30 l30 0 0 95 0 95 35 0 34 0 3 -107 c2 -74 7
-108 16 -111 9 -3 12 34 13 160 1 90 2 195 3 233 l1 70 31 3 31 3 6 -257 c4
-142 10 -261 15 -266 11 -11 22 258 22 529 l0 203 30 0 30 0 0 -127z m2536
105 c4 -15 1 -25 -12 -35 -24 -17 -27 -17 -42 8 -10 16 -10 24 -1 35 17 21 47
17 55 -8z m-376 -29 c15 -28 5 -23 -15 7 -9 15 -12 23 -6 20 6 -4 16 -16 21
-27z m-2060 -99 c0 -5 -16 -10 -36 -10 -21 0 -33 4 -29 10 3 6 19 10 36 10 16
0 29 -4 29 -10z m-1655 -90 c0 -41 -4 -60 -12 -60 -14 0 -19 101 -6 113 14 15
18 4 18 -53z m3716 -25 c43 -80 28 -64 -23 22 -21 37 -33 61 -25 53 8 -8 30
-42 48 -75z m-3332 8 c-12 -21 -27 -42 -32 -48 -11 -11 9 29 31 63 24 37 25
25 1 -15z m2371 -88 c0 -8 -4 -15 -10 -15 -5 0 -10 7 -10 15 0 8 5 15 10 15 6
0 10 -7 10 -15z m1026 -36 c14 -28 24 -53 22 -55 -2 -2 -16 21 -31 51 -15 30
-25 55 -22 55 3 0 16 -23 31 -51z m-3454 19 c-7 -7 -12 -8 -12 -2 0 14 12 26
19 19 2 -3 -1 -11 -7 -17z m3926 0 c-6 -18 -28 -21 -28 -4 0 9 7 16 16 16 9 0
14 -5 12 -12z m-1331 -40 c-3 -8 -6 -5 -6 6 -1 11 2 17 5 13 3 -3 4 -12 1 -19z
m360 16 c-3 -3 -12 -4 -19 -1 -8 3 -5 6 6 6 11 1 17 -2 13 -5z m-3004 -82
c-14 -34 -28 -60 -30 -58 -2 2 8 31 23 65 15 34 28 60 30 58 2 -2 -8 -31 -23
-65z m-573 44 c0 -8 -4 -17 -9 -21 -12 -7 -24 12 -16 25 9 15 25 12 25 -4z
m3347 8 c-3 -3 -12 -4 -19 -1 -8 3 -5 6 6 6 11 1 17 -2 13 -5z m783 -89 c0 -5
-5 -3 -10 5 -5 8 -10 20 -10 25 0 6 5 3 10 -5 5 -8 10 -19 10 -25z m-3298 -35
c-2 -16 -6 -30 -8 -30 -2 0 -4 14 -4 30 0 17 4 30 8 30 5 0 7 -13 4 -30z
m4048 20 c0 -5 -12 -10 -27 -9 l-28 1 25 8 c14 4 26 8 28 9 1 1 2 -3 2 -9z
m-3335 -20 c3 -5 1 -10 -4 -10 -6 0 -11 5 -11 10 0 6 2 10 4 10 3 0 8 -4 11
-10z m-1014 -27 c-12 -20 -14 -14 -5 12 4 9 9 14 11 11 3 -2 0 -13 -6 -23z
m952 20 c-7 -2 -21 -2 -30 0 -10 3 -4 5 12 5 17 0 24 -2 18 -5z m2677 -28 c0
-5 -5 -3 -10 5 -5 8 -10 20 -10 25 0 6 5 3 10 -5 5 -8 10 -19 10 -25z m727 13
c-3 -8 -6 -5 -6 6 -1 11 2 17 5 13 3 -3 4 -12 1 -19z m-3570 -15 c2 -6 -4 -10
-13 -9 -10 2 -20 8 -22 15 -3 8 3 12 14 9 9 -1 19 -8 21 -15z m-434 0 c-7 -2
-21 -2 -30 0 -10 3 -4 5 12 5 17 0 24 -2 18 -5z m4025 -68 c0 -16 -2 -15 -8 5
-4 14 -8 34 -8 45 0 16 2 15 8 -5 4 -14 8 -34 8 -45z m-4402 9 c-8 -21 -15
-34 -15 -28 -1 15 20 76 25 71 2 -2 -2 -21 -10 -43z m521 40 c-3 -3 -12 -4
-19 -1 -8 3 -5 6 6 6 11 1 17 -2 13 -5z m60 -10 c-3 -3 -12 -4 -19 -1 -8 3 -5
6 6 6 11 1 17 -2 13 -5z m3102 -64 c0 -8 -7 1 -14 20 -18 46 -17 64 0 25 8
-16 14 -37 14 -45z m-3802 28 c-3 -8 -6 -5 -6 6 -1 11 2 17 5 13 3 -3 4 -12 1
-19z m4248 -8 c-3 -5 -10 -10 -16 -10 -5 0 -9 5 -9 10 0 6 7 10 16 10 8 0 12
-4 9 -10z m-81 -15 c3 -8 1 -15 -4 -15 -6 0 -10 7 -10 15 0 8 2 15 4 15 2 0 6
-7 10 -15z m-84 -5 c0 -5 -4 -10 -10 -10 -5 0 -10 5 -10 10 0 6 5 10 10 10 6
0 10 -4 10 -10z m-671 -12 c7 11 10 12 11 3 0 -7 6 -11 14 -8 8 3 16 -2 19
-14 4 -15 14 -19 46 -19 l41 0 0 -40 c0 -40 0 -40 -39 -40 -22 0 -46 -7 -55
-15 -21 -21 -76 -27 -76 -8 0 12 -10 14 -51 8 l-50 -7 3 43 c3 43 4 44 43 50
22 3 34 7 28 8 -16 1 -17 23 -1 39 9 9 17 8 34 -3 21 -13 24 -13 33 3z m1118
-20 c-3 -7 -5 -2 -5 12 0 14 2 19 5 13 2 -7 2 -19 0 -25z m-4443 -47 c-4 -17
-9 -30 -11 -27 -3 2 -2 19 2 36 9 41 17 33 9 -9z m3999 9 c-3 -11 -12 -20 -21
-20 -13 0 -12 3 3 20 10 11 19 20 21 20 1 0 0 -9 -3 -20z m479 -160 c9 -85 17
-119 30 -132 15 -15 16 -23 8 -38 -14 -26 -46 -26 -60 1 -9 17 -8 25 6 40 19
21 18 26 -11 274 l-5 40 10 -35 c5 -19 15 -87 22 -150z m-733 120 c0 -9 -4 -8
-9 5 -5 11 -9 27 -9 35 0 9 4 8 9 -5 5 -11 9 -27 9 -35z m-3869 -40 c0 -5 -2
-10 -4 -10 -3 0 -8 5 -11 10 -3 6 -1 10 4 10 6 0 11 -4 11 -10z m3877 -12 c-3
-8 -6 -5 -6 6 -1 11 2 17 5 13 3 -3 4 -12 1 -19z m-3780 -30 c-3 -7 -5 -2 -5
12 0 14 2 19 5 13 2 -7 2 -19 0 -25z m3801 -63 c0 -16 -2 -15 -8 5 -4 14 -8
36 -8 50 0 22 1 22 8 -5 4 -16 8 -39 8 -50z m-4469 58 c0 -5 -4 -17 -9 -28 -8
-18 -9 -17 -9 8 -1 15 4 27 9 27 6 0 10 -3 9 -7z m904 -35 c10 -31 11 -49 4
-65 -13 -30 -20 -29 -34 7 -8 22 -8 39 0 65 6 19 11 35 13 35 1 0 9 -19 17
-42z m-246 -10 c-3 -7 -5 -2 -5 12 0 14 2 19 5 13 2 -7 2 -19 0 -25z m649 -19
c-9 -19 -20 -54 -26 -78 -11 -43 -11 -43 -27 -21 -9 13 -18 46 -20 74 l-4 51
20 -35 19 -35 16 39 c9 21 16 43 16 49 0 8 3 8 11 0 7 -7 5 -20 -5 -44z m3441
29 c-3 -8 -6 -5 -6 6 -1 11 2 17 5 13 3 -3 4 -12 1 -19z m-3742 -91 c-8 -12
-15 -31 -16 -42 0 -13 -2 -15 -5 -5 -3 8 -12 31 -21 51 -14 33 -13 39 3 70
l17 34 19 -43 c16 -39 16 -46 3 -65z m70 42 c4 -11 4 -32 0 -46 l-6 -26 -15
22 c-10 13 -13 32 -10 47 8 29 22 31 31 3z m-428 -11 c-3 -8 -6 -5 -6 6 -1 11
2 17 5 13 3 -3 4 -12 1 -19z m4248 -18 c-3 -5 -11 -10 -16 -10 -6 0 -7 5 -4
10 3 6 11 10 16 10 6 0 7 -4 4 -10z m-4258 -72 c-2 -13 -4 -5 -4 17 -1 22 1
32 4 23 2 -10 2 -28 0 -40z m3950 10 c-3 -7 -5 -2 -5 12 0 14 2 19 5 13 2 -7
2 -19 0 -25z m-100 -60 c-2 -13 -4 -5 -4 17 -1 22 1 32 4 23 2 -10 2 -28 0
-40z m-437 -51 c0 -20 0 -20 -15 -1 -8 10 -15 14 -15 8 0 -7 -8 -14 -19 -17
-12 -3 -25 -23 -36 -56 -9 -29 -19 -50 -21 -48 -7 7 25 87 48 120 12 17 23 36
24 42 0 5 2 17 3 25 2 20 31 -47 31 -73z m-3423 -179 c-1 -46 -3 -9 -3 82 0
91 2 128 3 83 2 -46 2 -120 0 -165z m3868 -16 c-4 -62 -9 -111 -11 -109 -3 2
-1 69 3 148 4 79 9 128 11 109 2 -19 1 -86 -3 -148z m-3545 139 c0 -17 -18
-21 -24 -6 -3 9 0 15 9 15 8 0 15 -4 15 -9z m3880 -24 c0 -2 -10 -12 -22 -23
l-23 -19 19 23 c18 21 26 27 26 19z m-3893 -39 c-3 -8 -6 -5 -6 6 -1 11 2 17
5 13 3 -3 4 -12 1 -19z m3173 -43 c0 -5 -5 -3 -10 5 -5 8 -10 20 -10 25 0 6 5
3 10 -5 5 -8 10 -19 10 -25z m685 -11 c0 -28 -4 -39 -15 -39 -16 0 -26 45 -16
72 11 28 31 7 31 -33z m-912 -4 c-3 -11 -10 -23 -16 -27 -7 -4 -8 0 -4 11 4
10 7 22 7 27 0 5 4 9 9 9 5 0 7 -9 4 -20z m-3405 -73 c2 -53 0 -67 -12 -67
-10 0 -16 17 -21 59 -7 62 -2 85 18 78 7 -2 13 -31 15 -70z m909 53 c-1 -23
-22 -27 -30 -6 -4 9 1 17 11 19 9 3 18 5 19 6 1 0 1 -8 0 -19z m-257 -15 c-7
-9 -15 -13 -18 -10 -3 2 1 11 8 20 7 9 15 13 18 10 3 -2 -1 -11 -8 -20z m66
-9 c10 -8 17 -17 14 -19 -3 -3 -16 3 -30 13 -29 22 -14 27 16 6z m2714 4 c0
-5 -5 -10 -11 -10 -5 0 -7 5 -4 10 3 6 8 10 11 10 2 0 4 -4 4 -10z m944 -57
c-3 -32 -7 -66 -8 -75 -1 -10 -6 -21 -10 -25 -8 -7 -3 43 11 125 9 53 14 36 7
-25z m-3774 11 c0 -3 -7 -1 -15 6 -8 7 -15 17 -15 22 0 5 7 3 15 -6 8 -8 15
-18 15 -22z m2777 30 c-3 -3 -12 -4 -19 -1 -8 3 -5 6 6 6 11 1 17 -2 13 -5z
m1049 -138 c-15 -20 -32 -34 -37 -31 -13 9 -11 25 3 23 6 -2 18 9 27 24 12 22
13 33 5 55 -24 61 -24 66 2 16 l27 -52 -27 -35z m-3524 112 c-9 -9 -15 -9 -24
0 -9 9 -7 12 12 12 19 0 21 -3 12 -12z m175 -20 c-3 -8 -6 -5 -6 6 -1 11 2 17
5 13 3 -3 4 -12 1 -19z m2348 2 c-3 -5 -12 -7 -20 -3 -21 7 -19 13 6 13 11 0
18 -4 14 -10z m-3268 -52 c-2 -13 -4 -5 -4 17 -1 22 1 32 4 23 2 -10 2 -28 0
-40z m753 26 c0 -8 -7 -14 -15 -14 -15 0 -21 21 -9 33 10 9 24 -2 24 -19z
m2420 -33 c0 -5 -7 -12 -16 -15 -22 -9 -24 -8 -24 9 0 8 9 15 20 15 11 0 20
-4 20 -9z m87 3 c-3 -3 -12 -4 -19 -1 -8 3 -5 6 6 6 11 1 17 -2 13 -5z m580
-46 c-3 -7 -5 -2 -5 12 0 14 2 19 5 13 2 -7 2 -19 0 -25z m-2967 6 c0 -8 -5
-12 -10 -9 -6 4 -8 11 -5 16 9 14 15 11 15 -7z m-842 -134 c-1 -23 -26 82 -26
110 0 14 6 -2 14 -35 7 -33 13 -67 12 -75z m3219 124 c-3 -3 -12 -4 -19 -1 -8
3 -5 6 6 6 11 1 17 -2 13 -5z m578 -69 c-3 -26 -8 -45 -11 -43 -2 3 -1 26 2
52 4 25 9 44 12 42 2 -3 1 -26 -3 -51z m-3232 -2 c-7 -2 -19 -2 -25 0 -7 3 -2
5 12 5 14 0 19 -2 13 -5z m3214 -85 c-3 -7 -5 -2 -5 12 0 14 2 19 5 13 2 -7 2
-19 0 -25z m-3870 6 c-3 -3 -12 -4 -19 -1 -8 3 -5 6 6 6 11 1 17 -2 13 -5z
m100 -16 c-3 -8 -6 -5 -6 6 -1 11 2 17 5 13 3 -3 4 -12 1 -19z m3758 -48 c-9
-41 -17 -33 -9 9 4 17 9 30 11 27 3 -2 2 -19 -2 -36z m-3727 -60 c0 -8 -6 1
-13 20 -7 19 -13 42 -13 50 0 8 6 -1 13 -20 7 -19 13 -42 13 -50z m373 -23
c-13 -13 -26 -3 -16 12 3 6 11 8 17 5 6 -4 6 -10 -1 -17z m3309 -64 c-50 -157
-193 -415 -311 -563 -154 -195 -417 -414 -616 -514 -82 -41 -62 -22 25 24 166
88 371 254 515 415 158 178 273 371 364 612 43 114 57 130 23 26z m-3652 -8
c0 -5 -6 4 -13 20 -8 17 -14 37 -14 45 0 8 7 -1 14 -20 7 -19 13 -39 13 -45z
m4212 65 c0 -5 -4 -10 -10 -10 -5 0 -10 5 -10 10 0 6 5 10 10 10 6 0 10 -4 10
-10z m-99 -63 c-1 -12 -15 -9 -19 4 -3 6 1 10 8 8 6 -3 11 -8 11 -12z m-4055
-144 c-5 -5 -41 73 -50 109 -3 12 8 -6 25 -41 16 -35 28 -65 25 -68z m4004 85
c0 -18 -2 -20 -9 -8 -6 8 -7 18 -5 22 9 14 14 9 14 -14z m-3610 -59 c0 -5 -8
-9 -17 -7 -10 1 -24 -1 -30 -5 -13 -8 -18 5 -6 16 10 11 53 8 53 -4z m-361
-81 c11 -23 19 -44 16 -46 -3 -4 -45 72 -45 83 0 14 10 1 29 -37z m-71 -73
c-3 -3 -9 2 -12 12 -6 14 -5 15 5 6 7 -7 10 -15 7 -18z m117 -15 c9 -16 13
-30 11 -30 -3 0 -12 14 -21 30 -9 17 -13 30 -11 30 3 0 12 -13 21 -30z m35
-60 c6 -11 8 -20 6 -20 -3 0 -10 9 -16 20 -6 11 -8 20 -6 20 3 0 10 -9 16 -20z
m60 -91 c116 -170 326 -379 501 -499 49 -34 144 -90 211 -125 68 -36 120 -65
115 -65 -4 0 -51 22 -105 49 -284 143 -555 381 -734 644 -21 31 -36 57 -34 57
3 0 24 -27 46 -61z m3995 -34 c-14 -31 -28 -55 -31 -52 -3 2 7 30 22 61 36 72
42 66 9 -9z m-3375 -95 c-34 -11 -60 -11 -35 0 11 5 29 8 40 8 16 0 15 -2 -5
-8z m-84 -25 c-17 -7 -33 -21 -37 -31 -7 -17 -8 -17 -8 3 -1 15 8 24 27 31 39
15 52 13 18 -3z m2138 -10 c10 -7 16 -17 15 -22 -2 -4 -14 2 -26 15 -25 24
-18 29 11 7z m-186 -13 c2 -7 -2 -10 -12 -6 -9 3 -16 11 -16 16 0 13 23 5 28
-10z m-1758 -6 c0 -3 -4 -8 -10 -11 -5 -3 -10 -1 -10 4 0 6 5 11 10 11 6 0 10
-2 10 -4z m-57 -33 c-7 -2 -19 -2 -25 0 -7 3 -2 5 12 5 14 0 19 -2 13 -5z
m107 -9 c0 -2 -9 -4 -20 -4 -11 0 -20 4 -20 9 0 5 9 7 20 4 11 -3 20 -7 20 -9z
m1715 6 c3 -5 -1 -10 -10 -10 -9 0 -13 5 -10 10 3 6 8 10 10 10 2 0 7 -4 10
-10z m-331 -85 c11 -8 16 -15 10 -15 -5 0 -18 7 -28 15 -11 8 -16 15 -10 15 5
0 18 -7 28 -15z m-2089 -35 c3 -6 -1 -7 -9 -4 -18 7 -21 14 -7 14 6 0 13 -4
16 -10z m2392 4 c-3 -3 -12 -4 -19 -1 -8 3 -5 6 6 6 11 1 17 -2 13 -5z m-1672
-22 c-3 -3 -11 0 -18 7 -9 10 -8 11 6 5 10 -3 15 -9 12 -12z m1465 3 c0 -1
-12 -2 -26 -2 -17 0 -22 2 -13 7 10 7 39 3 39 -5z m157 9 c-3 -3 -12 -4 -19
-1 -8 3 -5 6 6 6 11 1 17 -2 13 -5z m973 -4 c0 -5 -4 -10 -10 -10 -5 0 -10 5
-10 10 0 6 5 10 10 10 6 0 10 -4 10 -10z m-2635 -20 c-3 -5 -13 -10 -21 -10
-8 0 -12 5 -9 10 3 6 13 10 21 10 8 0 12 -4 9 -10z m125 0 c0 -5 -4 -10 -9
-10 -6 0 -13 5 -16 10 -3 6 1 10 9 10 9 0 16 -4 16 -10z m325 0 c3 -5 1 -10
-4 -10 -6 0 -11 5 -11 10 0 6 2 10 4 10 3 0 8 -4 11 -10z m-98 -26 c-3 -3 -12
-4 -19 -1 -8 3 -5 6 6 6 11 1 17 -2 13 -5z m128 -14 c-4 -7 -75 -1 -75 6 0 3
18 4 39 2 22 -1 38 -5 36 -8z m855 -6 c0 -2 -15 -4 -32 -3 -27 0 -29 2 -13 8
18 8 45 4 45 -5z m-1879 -47 c-13 -13 -26 -3 -16 12 3 6 11 8 17 5 6 -4 6 -10
-1 -17z m-303 -36 c3 -8 -1 -12 -9 -9 -7 2 -15 10 -17 17 -3 8 1 12 9 9 7 -2
15 -10 17 -17z m278 -43 l29 -33 -32 29 c-31 28 -38 36 -30 36 2 0 16 -15 33
-32z m1417 25 c-7 -2 -19 -2 -25 0 -7 3 -2 5 12 5 14 0 19 -2 13 -5z m-1602
-29 l24 -27 -27 18 c-16 9 -28 21 -28 26 0 14 5 11 31 -17z m1359 6 c0 -5 -5
-10 -11 -10 -5 0 -7 5 -4 10 3 6 8 10 11 10 2 0 4 -4 4 -10z m105 -18 c-7 -8
-35 7 -35 18 0 6 7 6 20 -2 10 -7 17 -14 15 -16z m945 -117 c-36 -21 -181 -77
-186 -72 -3 2 28 16 68 31 40 15 84 33 98 41 14 8 30 14 35 14 6 0 -1 -6 -15
-14z m-1520 -35 c8 -5 11 -10 5 -10 -5 0 -17 5 -25 10 -8 5 -10 10 -5 10 6 0
17 -5 25 -10z m70 -25 c19 -7 28 -14 20 -14 -8 0 -28 6 -45 14 -39 17 -21 18
25 0z m1987 -27 c-3 -8 -6 -5 -6 6 -1 11 2 17 5 13 3 -3 4 -12 1 -19z m-1897
-3 c19 -7 28 -14 20 -14 -8 0 -28 6 -45 14 -39 17 -21 18 25 0z m1115 -5 c-11
-5 -27 -9 -35 -9 -9 0 -8 4 5 9 11 5 27 9 35 9 9 0 8 -4 -5 -9z m-1000 -24
c28 -8 41 -14 30 -14 -21 0 -107 25 -90 27 6 0 33 -6 60 -13z m910 -1 c-22 -8
-49 -13 -60 -13 -11 0 0 6 25 13 59 17 87 17 35 0z m865 -5 c-35 -24 -54 -31
-30 -11 14 11 30 21 35 21 6 0 3 -5 -5 -10z m-1655 -20 c27 -7 27 -8 5 -8 -14
0 -36 4 -50 8 -20 6 -21 8 -5 8 11 0 34 -4 50 -8z m682 0 c-15 -5 -58 -11 -95
-14 l-67 -5 70 13 c39 7 81 14 95 14 24 0 24 0 -3 -8z m1053 0 c0 -5 -5 -10
-11 -10 -5 0 -7 5 -4 10 3 6 8 10 11 10 2 0 4 -4 4 -10z m-1652 -17 c-10 -2
-26 -2 -35 0 -10 3 -2 5 17 5 19 0 27 -2 18 -5z m150 -10 c-21 -2 -55 -2 -75
0 -21 2 -4 4 37 4 41 0 58 -2 38 -4z m240 0 c-15 -2 -42 -2 -60 0 -18 2 -6 4
27 4 33 0 48 -2 33 -4z m1141 -21 c13 -24 3 -38 -43 -57 -32 -14 -40 -14 -47
-3 -13 20 -12 24 29 51 45 31 49 32 61 9z m-922 -219 c-3 -10 -5 -2 -5 17 0
19 2 27 5 18 2 -10 2 -26 0 -35z m-534 0 c-7 -2 -21 -2 -30 0 -10 3 -4 5 12 5
17 0 24 -2 18 -5z m-175 -29 c13 -4 22 -14 22 -26 0 -16 -6 -19 -32 -16 -25 2
-34 8 -36 26 -4 23 6 26 46 16z m765 -3 c39 7 56 0 57 -23 0 -13 -38 -28 -73
-28 -37 0 -51 17 -40 47 4 9 8 12 10 6 2 -6 18 -7 46 -2z m-205 -68 c-10 -2
-26 -2 -35 0 -10 3 -2 5 17 5 19 0 27 -2 18 -5z m1624 -654 c29 -6 91 -29 137
-51 153 -73 273 -218 316 -383 20 -77 19 -230 -1 -309 -47 -183 -205 -346
-394 -408 l-65 -21 -1800 -2 c-1012 -2 -1828 1 -1865 6 -85 12 -227 82 -302
149 -123 110 -188 258 -188 427 0 175 54 307 176 429 78 79 195 145 289 162
74 14 3629 15 3697 1z m1603 -1158 c25 -50 88 -104 130 -112 15 -3 8 -10 -30
-30 -37 -19 -61 -42 -92 -88 -24 -35 -43 -56 -43 -47 0 43 -79 126 -144 150
-15 5 -10 11 33 32 51 26 111 95 111 128 0 27 9 18 35 -33z"/>
<path d="M2710 6818 c-183 -103 -431 -288 -385 -288 3 0 42 29 87 64 98 75
254 178 320 212 26 13 49 28 53 34 11 18 -19 10 -75 -22z"/>
<path d="M1675 5573 c-60 -144 -121 -371 -143 -540 -8 -55 -7 -62 10 -66 10
-3 18 -10 18 -16 0 -8 -6 -9 -19 -1 -18 9 -20 4 -27 -78 -7 -91 2 -404 14
-482 6 -42 10 -45 42 -51 30 -5 31 -7 8 -8 -15 0 -29 -5 -32 -9 -2 -4 2 -41
10 -82 16 -87 17 -100 5 -80 -6 8 -13 37 -16 65 -5 30 -15 57 -27 69 -20 19
-20 19 -14 -25 5 -40 5 -41 -5 -11 -5 17 -12 32 -15 32 -20 0 70 -351 99 -388
5 -7 11 -22 13 -35 5 -44 97 -257 110 -257 4 0 40 16 81 35 41 19 78 35 83 35
6 0 10 6 10 14 0 13 -62 149 -85 186 -5 8 -10 21 -10 30 -1 8 -20 74 -43 145
-22 72 -50 176 -62 232 -21 107 -54 438 -46 460 3 7 15 13 26 13 16 0 20 7 21
38 l2 37 6 -35 c6 -33 8 -35 46 -35 l40 0 8 102 c4 57 14 138 21 180 7 43 12
81 10 85 -2 3 -22 9 -43 13 -26 4 -41 13 -44 25 -7 28 -1 29 50 14 26 -8 47
-13 49 -12 4 5 44 165 44 178 0 7 -15 10 -42 8 -41 -3 -42 -4 -56 -56 -13 -47
-18 -53 -36 -48 -12 3 -32 6 -46 7 -23 1 -23 2 5 8 26 5 31 13 51 79 12 40 22
74 23 75 0 4 14 43 37 101 13 33 24 64 24 71 0 8 -99 65 -114 65 -2 0 -21 -39
-41 -87z m-20 -203 c8 -13 -5 -13 -25 0 -13 8 -13 10 2 10 9 0 20 -4 23 -10z
m11 -182 c-15 -25 -18 -15 -10 28 7 36 8 37 14 14 4 -14 2 -33 -4 -42z m61
-80 c-3 -7 -5 -2 -5 12 0 14 2 19 5 13 2 -7 2 -19 0 -25z m-10 -60 c-3 -7 -5
-2 -5 12 0 14 2 19 5 13 2 -7 2 -19 0 -25z m-10 -70 c-3 -7 -5 -2 -5 12 0 14
2 19 5 13 2 -7 2 -19 0 -25z m-10 -100 c-3 -7 -5 -2 -5 12 0 14 2 19 5 13 2
-7 2 -19 0 -25z m-180 -680 c-3 -8 -6 -5 -6 6 -1 11 2 17 5 13 3 -3 4 -12 1
-19z"/>
<path d="M1860 5553 c-7 -21 -21 -57 -31 -81 -11 -24 -22 -57 -26 -73 -5 -29
-5 -29 36 -26 l42 2 35 90 c18 50 34 91 34 92 0 3 -70 33 -75 33 -2 0 -9 -17
-15 -37z"/>
<path d="M1593 5476 c-21 -36 -44 -66 -50 -66 -12 0 -14 -5 -17 -42 -1 -7 6
-13 14 -13 8 0 18 -4 22 -10 4 -5 9 -7 11 -5 8 10 67 194 63 198 -2 2 -22 -26
-43 -62z"/>
<path d="M1491 5248 c-45 -203 -53 -273 -58 -495 -5 -196 -4 -223 10 -223 13
0 15 24 15 168 0 183 19 353 58 519 28 120 28 123 10 123 -10 0 -21 -29 -35
-92z"/>
<path d="M1552 5310 c-17 -43 -51 -210 -67 -328 -19 -143 -21 -452 -2 -452 9
0 12 40 13 168 1 197 27 425 65 569 13 49 7 81 -9 43z"/>
<path d="M1760 5160 c14 -4 34 -8 45 -8 l20 -1 -20 9 c-11 5 -31 8 -45 8 l-25
0 25 -8z"/>
<path d="M1438 4515 c-3 -3 -4 -27 -1 -53 9 -109 14 -132 28 -132 12 0 14 13
10 63 l-4 62 11 -62 c10 -59 20 -75 32 -54 11 17 -16 181 -30 181 -7 0 -15
-15 -17 -32 l-4 -33 -1 33 c-2 30 -11 40 -24 27z"/>
<path d="M6356 4285 c-14 -80 -42 -196 -60 -258 -18 -62 -35 -118 -37 -126 -2
-7 1 -15 7 -18 31 -11 154 511 127 538 -6 6 -19 -42 -37 -136z"/>
<path d="M6055 4382 c-3 -3 -5 -18 -5 -33 0 -26 -70 -314 -85 -351 -4 -11 -3
-18 4 -18 6 0 11 7 11 15 0 8 6 15 14 15 9 0 12 -9 9 -27 -3 -21 -2 -24 5 -13
23 36 23 57 1 63 -12 3 -18 10 -14 17 4 6 15 8 25 5 22 -7 29 12 65 170 32
140 32 151 0 157 -13 3 -27 3 -30 0z"/>
<path d="M1831 4240 c-2 -32 76 -296 78 -266 1 5 -12 54 -28 110 -16 55 -33
117 -39 136 -5 19 -10 28 -11 20z"/>
<path d="M5931 4224 c0 -11 3 -14 6 -6 3 7 2 16 -1 19 -3 4 -6 -2 -5 -13z"/>
<path d="M5901 4114 c0 -11 3 -14 6 -6 3 7 2 16 -1 19 -3 4 -6 -2 -5 -13z"/>
<path d="M5881 4049 c-7 -22 -11 -43 -8 -45 2 -2 9 14 16 37 7 22 11 43 8 45
-2 2 -9 -14 -16 -37z"/>
<path d="M5851 3959 c-6 -18 -9 -34 -7 -36 2 -2 9 10 15 28 6 18 9 34 7 36 -2
2 -9 -10 -15 -28z"/>
<path d="M5879 3953 c-6 -16 -17 -44 -24 -63 -27 -74 -83 -186 -107 -215 -13
-16 -55 -77 -92 -134 -37 -57 -92 -135 -123 -172 -46 -58 -53 -72 -43 -84 17
-21 43 0 34 28 -5 14 -2 19 7 15 21 -8 133 138 210 275 62 110 169 341 169
366 0 22 -21 10 -31 -16z"/>
<path d="M5933 3908 c-49 -148 -242 -486 -354 -620 -17 -21 -26 -38 -20 -38 6
0 11 -4 11 -10 0 -5 -10 -10 -23 -10 -32 0 -190 -160 -181 -183 3 -10 1 -17
-5 -17 -6 0 -11 7 -11 15 0 11 -16 3 -53 -25 -30 -22 -56 -40 -59 -40 -3 0 21
26 54 58 46 47 58 65 58 90 0 18 -3 32 -6 32 -3 0 -45 -33 -92 -73 -48 -40
-104 -85 -125 -101 -37 -27 -37 -28 -21 -55 9 -15 24 -38 34 -51 l18 -23 68
48 c73 52 239 195 289 250 99 108 207 243 241 302 16 26 44 71 62 98 52 77
192 379 181 389 -2 2 -14 7 -26 10 -19 6 -24 1 -40 -46z m-733 -998 c0 -5 -7
-10 -15 -10 -8 0 -15 5 -15 10 0 6 7 10 15 10 8 0 15 -4 15 -10z"/>
<path d="M1880 3945 c0 -5 5 -17 10 -25 5 -8 10 -10 10 -5 0 6 -5 17 -10 25
-5 8 -10 11 -10 5z"/>
<path d="M1920 3933 c0 -15 72 -174 76 -170 4 3 -64 167 -72 176 -2 2 -4 -1
-4 -6z"/>
<path d="M6140 3834 c-21 -51 -22 -56 -6 -73 10 -11 13 -21 8 -22 -6 -2 -24
-35 -41 -74 -44 -100 -6 -47 64 87 30 59 55 109 55 112 0 2 -13 9 -29 14 -29
10 -30 9 -51 -44z"/>
<path d="M5781 3789 c-18 -39 -30 -73 -28 -75 2 -3 18 28 36 67 18 39 30 73
28 75 -2 3 -18 -28 -36 -67z"/>
<path d="M1920 3845 c0 -5 5 -17 10 -25 5 -8 10 -10 10 -5 0 6 -5 17 -10 25
-5 8 -10 11 -10 5z"/>
<path d="M1980 3713 c1 -18 76 -147 87 -151 28 -8 23 31 -12 93 -25 45 -42 65
-55 65 -11 0 -20 -3 -20 -7z"/>
<path d="M1925 3696 c-18 -13 -17 -17 24 -87 62 -108 67 -115 86 -99 8 7 15
18 15 25 0 15 -92 174 -101 175 -3 0 -14 -6 -24 -14z"/>
<path d="M6104 3353 c-14 -3 -36 -28 -60 -66 -53 -87 -166 -239 -237 -319 -57
-65 -62 -68 -106 -68 l-46 -1 59 -55 58 -55 30 28 c119 112 409 507 392 535
-5 8 -52 9 -90 1z"/>
<path d="M1865 3330 c-17 -55 269 -381 490 -559 168 -135 265 -198 276 -180
16 26 9 36 -63 84 -237 156 -524 433 -651 628 -34 52 -43 57 -52 27z"/>
<path d="M5401 3225 c-46 -49 -50 -56 -39 -75 12 -19 15 -17 72 39 51 51 58
62 47 75 -8 9 -17 16 -21 16 -4 0 -30 -25 -59 -55z"/>
<path d="M5506 2876 c-63 -58 -78 -77 -72 -92 9 -23 6 -30 -10 -26 -7 1 -15
-2 -19 -8 -3 -5 -17 -10 -29 -10 -13 0 -81 -38 -151 -85 -71 -47 -132 -85
-137 -85 -4 0 -8 -7 -8 -16 0 -8 -5 -12 -10 -9 -6 4 -30 -5 -55 -19 -73 -43
-284 -132 -393 -165 -68 -21 -102 -37 -102 -46 0 -17 -17 -20 -22 -5 -2 7 -35
5 -96 -7 l-94 -17 6 -30 c4 -17 9 -54 13 -83 7 -63 2 -63 151 -28 199 48 313
88 504 177 119 57 127 62 133 94 7 40 -9 76 -30 68 -8 -4 -15 -1 -15 5 0 6 4
11 10 11 5 0 6 8 3 18 -6 15 -4 15 9 4 20 -16 27 -13 150 69 133 89 360 270
380 304 4 7 -2 21 -15 33 l-22 20 -79 -72z"/>
<path d="M3201 2698 c-5 -13 -7 -25 -5 -27 6 -7 22 9 27 29 7 27 -12 25 -22
-2z"/>
<path d="M2685 2650 c-13 -25 -8 -39 8 -27 2 1 12 -4 21 -12 11 -10 14 -17 7
-24 -7 -7 -17 -5 -31 8 -20 18 -21 18 -35 -1 -13 -17 -12 -21 6 -36 11 -9 72
-43 137 -76 187 -95 414 -179 452 -167 11 3 20 2 20 -3 0 -12 142 -46 250 -61
153 -20 201 -23 216 -10 23 19 16 29 -18 29 -18 0 -89 9 -158 19 -69 10 -136
18 -150 17 -16 0 -26 5 -28 17 -5 23 25 33 46 14 17 -15 149 -41 272 -53 65
-6 66 -6 78 21 15 33 13 36 -35 41 -327 36 -568 106 -859 250 -94 46 -174 84
-177 84 -4 0 -13 -13 -22 -30z"/>
<path d="M4027 2653 c-12 -11 -8 -23 8 -23 8 0 15 7 15 15 0 16 -12 20 -23 8z"/>
<path d="M3180 2621 c-6 -12 -7 -21 -1 -21 10 0 24 30 17 37 -2 3 -9 -5 -16
-16z"/>
<path d="M2619 2534 c-18 -22 -9 -28 176 -120 198 -98 393 -167 589 -208 l64
-13 5 26 c3 14 5 26 4 27 -1 1 -42 10 -92 22 -76 17 -91 18 -98 6 -11 -19 -27
-18 -27 1 0 17 2 16 -165 75 -66 24 -190 77 -275 119 -85 42 -157 77 -161 79
-3 1 -12 -5 -20 -14z"/>
<path d="M4230 2358 c-14 -5 -114 -12 -223 -15 l-198 -6 -14 -27 c-8 -15 -11
-30 -8 -34 19 -19 475 3 497 24 11 11 0 56 -16 63 -7 2 -24 0 -38 -5z"/>
<path d="M3535 6915 c-5 -1 -44 -11 -85 -20 -70 -16 -290 -83 -290 -89 0 -18
25 -66 33 -66 26 1 139 48 126 52 -17 7 -8 11 60 28 29 8 40 15 33 22 -6 6
-30 5 -72 -6 -69 -18 -93 -20 -69 -6 16 9 154 40 252 57 26 4 48 13 48 18 0
11 -19 16 -36 10z"/>
<path d="M3735 6889 c-22 -5 -13 -7 33 -8 40 -1 61 3 57 9 -7 11 -39 10 -90
-1z"/>
<path d="M3653 6873 c9 -2 25 -2 35 0 9 3 1 5 -18 5 -19 0 -27 -2 -17 -5z"/>
<path d="M3485 6855 l-60 -13 60 5 c33 3 69 9 80 14 l20 8 -20 -1 c-11 0 -47
-6 -80 -13z"/>
<path d="M3548 6833 c7 -3 16 -2 19 1 4 3 -2 6 -13 5 -11 0 -14 -3 -6 -6z"/>
<path d="M3388 6803 c6 -2 18 -2 25 0 6 3 1 5 -13 5 -14 0 -19 -2 -12 -5z"/>
<path d="M3348 6793 c7 -3 16 -2 19 1 4 3 -2 6 -13 5 -11 0 -14 -3 -6 -6z"/>
<path d="M5475 6170 c-21 -23 -23 -17 71 -131 52 -64 130 -181 189 -285 14
-25 22 -30 46 -26 16 2 29 6 29 8 0 44 -280 454 -310 454 -4 0 -15 -9 -25 -20z"/>
<path d="M5707 5986 c-3 -8 11 -41 32 -73 20 -32 50 -82 67 -110 27 -50 54
-69 54 -40 0 17 -114 209 -133 225 -12 10 -16 10 -20 -2z"/>
<path d="M5775 5710 c-3 -4 15 -51 40 -104 25 -52 45 -101 45 -107 0 -6 7 -8
16 -5 9 3 20 6 25 6 16 0 10 25 -22 88 -23 46 -34 60 -47 56 -16 -5 -16 -5 0
9 15 12 16 16 3 34 -15 22 -52 36 -60 23z"/>
<path d="M5877 5684 c-6 -6 49 -143 64 -158 17 -19 9 23 -17 89 -26 65 -36 80
-47 69z"/>
<path d="M5938 5484 c-11 -24 -10 -29 17 -50 17 -13 33 -24 37 -24 3 0 -1 23
-10 50 -18 57 -27 61 -44 24z"/>
<path d="M3793 5766 c-100 -33 -198 -117 -247 -214 -54 -106 -51 -247 6 -353
35 -68 58 -91 76 -80 10 6 5 23 -21 72 -56 104 -69 203 -41 316 5 18 4 24 -5
19 -6 -4 -2 11 10 33 12 23 26 38 32 34 6 -3 7 -1 3 5 -11 18 78 100 137 128
52 24 82 31 73 16 -2 -4 24 -6 58 -4 71 5 162 -17 211 -51 42 -29 105 -88 117
-112 6 -11 -7 -1 -27 23 -69 80 -168 123 -274 121 -54 -2 -54 -2 19 -9 84 -8
155 -37 191 -78 l24 -27 -25 22 c-45 39 -119 64 -192 64 -84 0 -134 -15 -141
-43 -4 -14 -11 -19 -21 -15 -9 4 -15 3 -15 -1 4 -26 -3 -34 -27 -29 -45 8 -92
-61 -114 -167 -20 -96 4 -192 65 -264 28 -33 30 -34 84 -27 85 10 91 13 91 46
0 27 -2 29 -40 29 -33 0 -40 3 -40 19 0 11 9 23 20 26 18 6 20 15 20 120 0
114 0 115 -25 121 -15 4 -25 13 -25 24 0 18 26 30 68 30 19 0 22 5 22 35 0 31
3 35 25 35 22 0 25 -4 25 -35 0 -24 5 -35 15 -35 10 0 15 11 15 35 0 31 3 35
25 35 23 0 25 -4 25 -40 0 -32 4 -40 19 -40 10 0 30 -9 45 -21 33 -26 37 -86
6 -114 -19 -17 -19 -18 10 -45 17 -16 30 -38 30 -50 0 -47 -51 -100 -96 -100
-11 0 -14 -9 -12 -32 3 -32 5 -33 68 -43 l65 -11 39 36 39 35 -28 -37 c-15
-21 -23 -38 -17 -38 6 0 25 17 43 38 17 20 28 30 24 22 -4 -8 -17 -25 -28 -38
-23 -25 -13 -46 19 -40 27 5 81 90 100 156 25 86 16 212 -21 288 -39 79 -110
148 -193 187 -57 27 -80 32 -157 34 -57 2 -106 -2 -132 -11z m372 -186 c10
-11 16 -20 13 -20 -3 0 -13 9 -23 20 -10 11 -16 20 -13 20 3 0 13 -9 23 -20z
m63 -55 c-3 -3 -9 2 -12 12 -6 14 -5 15 5 6 7 -7 10 -15 7 -18z m29 -97 c-3
-8 -6 -5 -6 6 -1 11 2 17 5 13 3 -3 4 -12 1 -19z m0 -110 c-3 -8 -6 -5 -6 6
-1 11 2 17 5 13 3 -3 4 -12 1 -19z m-37 -25 c-11 -17 -11 -17 -6 0 3 10 6 24
7 30 0 9 2 9 5 0 3 -7 0 -20 -6 -30z m-29 -76 c-10 -9 -11 -8 -5 6 3 10 9 15
12 12 3 -3 0 -11 -7 -18z m30 0 c-10 -9 -11 -8 -5 6 3 10 9 15 12 12 3 -3 0
-11 -7 -18z"/>
<path d="M3887 5463 c-6 -48 4 -59 44 -47 66 19 64 76 -3 82 -34 3 -36 2 -41
-35z"/>
<path d="M3581 5474 c0 -11 3 -14 6 -6 3 7 2 16 -1 19 -3 4 -6 -2 -5 -13z"/>
<path d="M3574 5360 c2 -100 12 -130 64 -198 31 -40 42 -34 13 7 -41 57 -65
125 -72 206 l-7 80 2 -95z"/>
<path d="M3880 5320 l0 -50 38 0 c21 0 48 7 60 16 47 33 13 84 -56 84 l-42 0
0 -50z"/>
<path d="M4629 5355 c-103 -33 -203 -130 -233 -225 -27 -84 -28 -104 -7 -117
17 -11 19 -8 19 53 0 55 4 72 33 120 20 33 56 73 86 96 50 38 65 43 151 47 18
0 31 6 30 12 -2 6 3 14 10 16 6 3 12 -2 12 -10 0 -9 15 -16 45 -20 54 -8 108
-34 155 -77 l35 -32 -42 31 c-42 32 -112 62 -142 60 -9 0 4 -7 29 -14 25 -8
61 -28 80 -45 l35 -31 -45 31 c-90 61 -256 50 -290 -19 -8 -17 -21 -29 -27
-26 -7 2 -13 0 -13 -6 0 -6 -5 -7 -11 -3 -8 5 -8 1 0 -14 7 -14 8 -23 1 -27
-10 -6 -14 1 -11 18 1 5 -4 7 -11 5 -23 -8 -59 -87 -65 -144 l-6 -56 66 -64
c37 -35 85 -89 107 -119 22 -30 48 -55 58 -55 11 0 13 -3 5 -8 -8 -5 -8 -15 2
-40 13 -30 17 -32 64 -32 114 0 239 83 296 197 25 48 30 73 33 149 4 83 1 96
-26 155 -57 123 -170 200 -302 206 -47 2 -92 -3 -121 -12z m-15 -120 c-4 -8
-11 -15 -16 -15 -6 0 -5 6 2 15 7 8 14 15 16 15 2 0 1 -7 -2 -15z m96 -35 c0
-20 5 -30 15 -30 10 0 15 10 15 30 0 23 5 30 19 30 15 0 21 -8 23 -32 2 -24 9
-34 23 -36 35 -7 55 -33 55 -73 0 -28 -5 -41 -20 -49 -20 -11 -20 -12 10 -40
34 -32 37 -48 14 -91 -10 -20 -21 -29 -30 -25 -9 3 -12 1 -9 -4 3 -6 -5 -10
-19 -10 -22 0 -26 -4 -26 -30 0 -23 -4 -30 -20 -30 -16 0 -20 7 -20 31 0 39
-23 34 -30 -7 -7 -42 -40 -45 -40 -4 0 28 -2 30 -40 30 -33 0 -40 3 -40 19 0
11 9 23 20 26 18 6 20 15 20 110 0 103 0 105 -25 111 -16 4 -25 13 -25 25 0
15 7 19 40 19 38 0 40 2 40 30 0 25 4 30 25 30 21 0 25 -5 25 -30z m327 -192
c-3 -7 -5 -2 -5 12 0 14 2 19 5 13 2 -7 2 -19 0 -25z m-30 -40 c-3 -8 -6 -5
-6 6 -1 11 2 17 5 13 3 -3 4 -12 1 -19z m-36 -101 c-10 -9 -11 -8 -5 6 3 10 9
15 12 12 3 -3 0 -11 -7 -18z m-61 -102 c0 -2 -10 -9 -22 -15 -22 -11 -22 -10
-4 4 21 17 26 19 26 11z m-177 -62 c-7 -2 -21 -2 -30 0 -10 3 -4 5 12 5 17 0
24 -2 18 -5z"/>
<path d="M4700 5080 l0 -41 36 3 c43 4 65 29 48 56 -6 10 -26 18 -48 20 l-36
3 0 -41z"/>
<path d="M4700 4955 l0 -45 45 0 c39 0 47 4 57 26 11 23 10 29 -11 45 -13 11
-38 19 -57 19 -34 0 -34 -1 -34 -45z"/>
<path d="M2983 5256 c-159 -52 -255 -182 -256 -346 0 -61 5 -86 27 -137 33
-72 113 -154 178 -183 57 -25 118 -36 120 -21 4 31 1 36 -27 43 -26 6 -25 7 8
3 20 -2 37 0 37 6 0 5 -10 9 -22 10 -13 0 -32 4 -43 9 -13 6 -5 7 26 3 41 -5
47 -3 64 23 12 19 14 29 7 32 -7 2 -12 19 -12 38 0 24 -5 34 -15 34 -10 0 -15
-10 -15 -34 0 -29 -3 -33 -20 -29 -14 4 -20 14 -20 35 0 29 -1 30 -40 26 -33
-3 -40 0 -40 14 0 9 9 20 20 23 18 6 20 15 20 100 0 111 -4 125 -37 125 -18 0
-24 5 -21 18 2 12 15 18 46 20 41 3 42 4 42 38 0 31 3 35 23 32 17 -2 23 -11
25 -35 4 -41 22 -43 22 -3 0 25 4 30 25 30 21 0 25 -5 25 -31 0 -24 5 -32 30
-41 17 -5 35 -18 40 -28 15 -28 12 -71 -6 -91 -15 -17 -14 -20 12 -42 l28 -25
53 46 c29 25 53 53 53 61 0 9 -9 35 -20 59 -10 23 -17 42 -14 42 3 0 16 -24
29 -52 13 -29 24 -45 24 -35 1 28 -44 109 -81 144 -18 18 -50 39 -70 47 -57
24 -58 19 -3 -13 28 -16 59 -39 70 -51 11 -13 0 -8 -28 13 -79 60 -178 76
-219 35 -17 -17 -20 -18 -15 -4 5 13 2 17 -11 14 -10 -2 -18 -14 -20 -31 -3
-27 -16 -35 -27 -17 -9 15 -25 12 -25 -5 0 -8 -8 -15 -17 -15 -15 0 -16 2 -3
10 8 5 10 10 4 10 -15 0 -35 -25 -32 -39 2 -6 -8 -17 -22 -24 -48 -24 -75
-171 -46 -252 l8 -20 -13 20 c-7 11 -16 52 -20 90 l-6 70 -2 -70 c-3 -65 -3
-68 -13 -35 -9 33 -7 86 7 140 6 20 5 22 -5 10 -10 -13 -11 -12 -6 3 3 10 6
21 6 23 0 3 5 2 12 -2 7 -4 8 -3 4 4 -9 15 18 66 49 90 14 11 25 24 25 28 0
11 57 50 93 63 40 16 197 -4 250 -30 73 -37 133 -104 162 -181 9 -24 12 -25
28 -13 16 12 17 18 8 47 -28 81 -114 164 -203 195 -60 21 -164 26 -215 9z
m-179 -472 c3 -8 2 -12 -4 -9 -6 3 -10 10 -10 16 0 14 7 11 14 -7z m65 -58
c-2 -2 -13 8 -23 22 l-19 27 24 -22 c12 -12 21 -24 18 -27z m-14 -13 c35 -44
36 -46 6 -18 -29 26 -58 65 -48 65 1 0 20 -21 42 -47z m110 -53 c3 -6 -1 -7
-9 -4 -18 7 -21 14 -7 14 6 0 13 -4 16 -10z"/>
<path d="M3890 5196 c0 -14 5 -28 11 -31 14 -9 18 -4 21 25 2 16 -3 25 -14 28
-13 3 -18 -3 -18 -22z"/>
<path d="M3043 5203 c20 -2 54 -2 75 0 20 2 3 4 -38 4 -41 0 -58 -2 -37 -4z"/>
<path d="M3785 5074 c-206 -33 -422 -160 -541 -318 -262 -348 -219 -812 102
-1105 155 -142 386 -222 599 -208 95 6 238 43 308 79 227 115 390 320 448 566
28 115 23 301 -11 407 -85 269 -300 478 -572 555 -72 21 -265 34 -333 24z m78
-31 c-7 -2 -21 -2 -30 0 -10 3 -4 5 12 5 17 0 24 -2 18 -5z m-84 -15 c-14 -10
-14 -13 3 -30 15 -15 34 -18 123 -18 58 0 105 4 105 9 0 5 -6 11 -12 14 -7 2
-10 8 -6 12 8 8 38 -18 38 -32 0 -5 33 -19 73 -32 81 -25 188 -85 261 -145
116 -97 214 -269 231 -403 5 -42 3 -39 -14 22 -40 146 -97 242 -207 345 -73
68 -154 117 -251 151 -68 24 -311 40 -299 20 4 -6 35 -11 75 -11 72 0 197 -29
271 -62 113 -52 230 -158 296 -270 36 -62 74 -164 74 -195 -1 -10 -13 18 -28
62 -66 191 -212 338 -403 405 -116 41 -302 38 -429 -7 -46 -17 -78 -36 -44
-27 15 4 20 0 21 -18 1 -12 -3 -26 -10 -30 -9 -6 -8 -11 3 -19 13 -9 12 -10
-2 -5 -10 3 -18 1 -18 -4 0 -5 -11 -12 -25 -16 -14 -3 -22 -10 -19 -16 4 -6
-6 -8 -23 -5 -26 4 -32 0 -49 -32 -20 -38 -42 -61 -59 -60 -5 0 -4 3 3 6 6 2
12 9 12 14 0 5 -9 4 -19 -3 -10 -6 -17 -17 -15 -23 6 -15 -34 -65 -52 -65 -20
0 -18 5 12 35 14 14 24 32 21 39 -3 7 6 25 20 40 21 23 22 27 7 24 -31 -5
-111 -109 -99 -128 3 -6 1 -10 -4 -10 -17 0 -57 -90 -75 -167 -88 -392 222
-773 630 -773 182 0 342 68 467 197 72 74 112 139 148 238 10 28 18 41 19 30
0 -10 -21 -62 -46 -114 -152 -311 -525 -446 -854 -306 -178 75 -307 218 -371
410 -20 58 -24 91 -24 190 0 116 8 158 50 267 5 12 2 16 -11 14 -41 -6 -80
-193 -71 -339 10 -169 71 -300 202 -433 121 -122 242 -182 412 -203 178 -22
358 27 508 139 95 71 160 155 221 283 19 40 32 61 28 47 -11 -47 -66 -150
-116 -215 -173 -229 -500 -327 -786 -236 -236 76 -422 276 -478 516 -24 105
-15 285 19 389 25 72 27 104 7 91 -4 -3 -13 2 -20 10 -10 12 -8 24 11 60 30
58 64 97 74 87 5 -4 5 -1 1 6 -11 18 116 141 189 184 104 60 227 105 295 106
21 1 23 -1 9 -10z m192 -478 c15 25 39 70 54 100 16 30 30 51 31 45 2 -5 -9
-57 -25 -114 l-29 -104 84 84 c46 46 84 80 84 76 0 -5 -27 -51 -60 -104 -33
-52 -60 -96 -60 -98 0 -2 48 22 108 53 l107 55 -54 -49 c-30 -27 -72 -62 -93
-78 -21 -15 -37 -30 -34 -33 4 -4 158 27 212 42 10 3 -28 -18 -86 -47 l-105
-53 45 -7 c25 -3 79 -7 120 -8 83 -2 73 -6 -72 -30 -43 -7 -78 -16 -78 -20 0
-4 15 -11 33 -17 94 -31 170 -64 137 -59 -87 13 -194 18 -185 9 6 -5 41 -31
78 -57 38 -27 67 -50 65 -52 -2 -2 -39 11 -81 28 -43 17 -80 28 -84 25 -3 -4
23 -42 58 -84 35 -43 57 -73 49 -67 -75 56 -144 104 -151 104 -4 0 8 -37 27
-82 20 -46 39 -90 42 -98 3 -8 -23 22 -58 68 -34 45 -64 81 -66 79 -2 -1 1
-43 6 -92 5 -49 8 -90 6 -92 -1 -2 -17 35 -35 82 -19 47 -37 85 -41 85 -4 0
-13 -48 -19 -107 -7 -59 -14 -109 -15 -111 -2 -1 -6 35 -9 80 -4 46 -10 97
-15 113 l-9 30 -18 -40 c-10 -22 -29 -67 -42 -100 l-24 -60 7 45 c16 116 20
160 14 160 -3 0 -32 -34 -65 -75 -32 -41 -60 -75 -61 -75 -5 0 9 36 44 113 17
37 27 67 22 67 -5 0 -24 -13 -42 -28 -52 -44 -145 -107 -127 -86 72 85 128
158 125 162 -2 2 -13 -1 -24 -7 -26 -14 -182 -70 -182 -66 0 2 41 32 90 66 50
34 89 63 88 64 -2 1 -34 -1 -73 -6 -38 -4 -90 -8 -115 -8 -42 1 -38 3 64 38
l109 37 -79 17 c-43 9 -99 20 -124 24 l-45 8 60 6 c33 4 89 8 125 8 l65 2
-109 55 c-59 30 -106 57 -104 59 2 2 46 -7 98 -20 135 -35 142 -33 84 18 -27
23 -67 59 -89 80 l-40 39 108 -57 c59 -31 107 -54 107 -50 0 4 -25 43 -56 87
-31 44 -58 88 -62 97 -3 9 32 -19 78 -61 46 -43 85 -76 87 -74 2 1 -13 48 -31
104 -19 56 -32 102 -28 102 4 0 31 -38 61 -85 30 -47 56 -87 60 -89 3 -2 5 44
4 102 l-2 107 33 -100 c19 -57 36 -94 39 -85 4 8 16 58 29 110 l23 95 5 -120
5 -120 26 45z m347 167 c3 -16 1 -17 -17 -5 -25 16 -27 31 -4 26 10 -2 19 -11
21 -21z m-754 -123 c3 -8 2 -12 -4 -9 -6 3 -10 10 -10 16 0 14 7 11 14 -7z
m983 -261 c-3 -10 -5 -2 -5 17 0 19 2 27 5 18 2 -10 2 -26 0 -35z m49 -203
c-9 -36 -13 -49 -11 -30 3 19 8 85 12 145 l8 110 3 -80 c1 -46 -4 -108 -12
-145z m-39 102 c-3 -43 -11 -89 -17 -102 l-11 -25 6 25 c2 14 8 60 11 103 4
42 9 77 12 77 3 0 2 -35 -1 -78z m-1257 -76 c0 -3 -4 -8 -10 -11 -5 -3 -10 -1
-10 4 0 6 5 11 10 11 6 0 10 -2 10 -4z m1053 -311 c-3 -9 -8 -14 -10 -11 -3 3
-2 9 2 15 9 16 15 13 8 -4z"/>
<path d="M3698 4922 c-10 -2 -18 -8 -18 -13 0 -10 23 -10 60 0 l25 7 -25 5
c-14 3 -33 3 -42 1z"/>
<path d="M3307 4700 c-3 -11 -3 -20 -1 -20 2 0 8 9 14 20 6 11 7 20 2 20 -6 0
-12 -9 -15 -20z"/>
<path d="M3482 4701 c2 -7 7 -12 11 -12 12 1 9 15 -3 20 -7 2 -11 -2 -8 -8z"/>
<path d="M4433 5025 c0 -27 2 -38 4 -22 2 15 2 37 0 50 -2 12 -4 0 -4 -28z"/>
<path d="M3056 4998 c-12 -47 -7 -58 23 -58 52 0 81 49 42 70 -32 17 -58 12
-65 -12z"/>
<path d="M3057 4893 c-4 -3 -7 -24 -7 -45 0 -36 2 -38 31 -38 17 0 39 5 50 10
21 12 25 50 7 68 -13 13 -70 17 -81 5z"/>
<path d="M3130 4749 c0 -5 5 -7 10 -4 6 3 10 8 10 11 0 2 -4 4 -10 4 -5 0 -10
-5 -10 -11z"/>
<path d="M4949 4685 c-11 -17 -8 -138 3 -127 5 5 8 38 6 73 -2 35 -6 60 -9 54z"/>
<path d="M4919 4664 c-1 -5 -1 -12 0 -16 0 -4 -6 -5 -14 -2 -9 4 -18 -1 -22
-12 -4 -10 -2 -19 5 -22 7 -2 10 -8 6 -13 -3 -5 2 -9 11 -9 9 0 15 6 13 13 -1
6 2 22 6 35 4 13 5 26 2 29 -3 4 -7 2 -7 -3z"/>
<path d="M4847 4560 c-3 -11 -1 -23 4 -26 5 -3 9 6 9 20 0 31 -6 34 -13 6z"/>
<path d="M4879 4578 c-6 -25 -6 -38 1 -38 12 0 20 29 10 35 -6 4 -10 5 -11 3z"/>
<path d="M4906 4534 c-22 -22 -20 -31 2 -11 10 10 22 14 27 10 4 -5 5 -2 1 5
-9 15 -11 15 -30 -4z"/>
<path d="M2829 4354 c-100 -30 -197 -123 -232 -222 -38 -106 -13 -247 62 -340
58 -74 175 -132 268 -132 52 0 152 31 192 59 33 24 35 29 22 50 -8 13 -12 13
-28 0 -16 -13 -17 -12 -5 3 12 14 10 26 -14 78 -23 51 -29 58 -42 48 -8 -7
-29 -17 -46 -23 -23 -8 -32 -17 -34 -37 -5 -39 -32 -37 -32 2 0 23 -4 30 -20
30 -16 0 -20 -7 -20 -30 0 -20 -5 -30 -15 -30 -10 0 -15 10 -15 30 0 28 -2 30
-40 30 -33 0 -40 4 -40 19 0 10 9 21 20 24 18 5 20 14 20 95 0 107 -4 122 -36
122 -20 0 -24 5 -24 28 0 26 2 27 45 24 44 -4 45 -3 45 24 0 22 -3 25 -9 14
-6 -8 -7 -19 -5 -25 3 -5 -2 -1 -10 9 -9 11 -16 14 -16 8 0 -7 -5 -12 -11 -12
-6 0 -8 7 -5 17 6 14 4 14 -14 -2 -16 -14 -23 -16 -29 -7 -5 9 -12 7 -26 -8
-20 -22 -20 -22 9 -37 12 -7 15 -13 7 -17 -6 -4 -11 -2 -11 3 0 6 -11 11 -24
11 -20 0 -28 -9 -43 -47 -26 -69 -23 -148 8 -211 14 -28 21 -48 16 -45 -18 11
-50 99 -58 158 l-8 60 3 -70 c4 -82 28 -138 90 -205 l41 -45 -43 40 c-24 22
-56 63 -70 90 -24 45 -27 62 -28 162 -1 76 2 111 9 106 6 -3 7 -1 3 5 -12 19
43 99 58 85 3 -4 6 1 6 9 0 8 17 26 38 40 64 42 118 58 195 58 50 0 67 3 57
10 -22 14 -107 11 -161 -6z m-94 -534 c10 -11 16 -20 13 -20 -3 0 -13 9 -23
20 -10 11 -16 20 -13 20 3 0 13 -9 23 -20z m375 -25 c0 -2 -10 -10 -22 -16
-21 -11 -22 -11 -9 4 13 16 31 23 31 12z"/>
<path d="M4873 4350 c-24 -5 -51 -14 -60 -20 -16 -10 -16 -11 2 -4 39 13 128
18 121 5 -5 -7 1 -11 17 -11 35 0 108 -28 137 -51 l25 -21 -27 16 c-32 19 -52
21 -42 4 5 -8 2 -9 -12 -4 -10 5 -36 10 -56 13 -35 5 -38 4 -39 -18 l0 -24
-11 23 c-6 12 -16 22 -22 22 -6 0 -6 -4 1 -11 7 -7 9 -31 6 -60 -4 -41 -2 -49
11 -49 11 0 16 9 16 30 0 23 4 30 20 30 15 0 20 -7 20 -29 0 -24 7 -33 37 -48
51 -25 64 -63 35 -102 l-21 -29 25 -23 c25 -23 32 -53 14 -64 -5 -3 -10 -1
-10 4 0 6 -7 11 -15 11 -8 0 -15 -9 -15 -19 0 -11 -9 -22 -19 -26 -13 -4 -18
-12 -14 -22 4 -11 2 -14 -5 -9 -8 5 -12 -5 -12 -33 0 -34 -3 -41 -19 -41 -10
0 -19 6 -18 13 1 38 -5 57 -18 57 -10 0 -15 -11 -15 -35 0 -24 -5 -35 -15 -35
-14 0 -20 17 -16 48 1 8 -13 12 -44 12 -39 0 -45 3 -45 20 0 13 10 24 26 30
25 10 25 11 20 92 -3 46 -5 91 -6 101 0 10 -8 17 -18 17 -14 0 -21 -15 -34
-67 -9 -38 -27 -94 -42 -125 -14 -31 -26 -62 -26 -69 0 -7 15 -29 33 -49 l32
-35 -37 34 c-53 49 -58 31 -6 -21 42 -42 28 -36 -23 9 -24 22 -27 23 -40 7
-12 -15 -9 -21 29 -54 75 -67 124 -85 232 -84 76 0 105 4 142 21 144 66 237
240 208 388 -37 192 -223 322 -407 285z m233 -121 c3 -6 -5 -3 -20 6 -14 10
-26 19 -26 22 0 7 39 -17 46 -28z m44 -4 c13 -14 21 -25 18 -25 -2 0 -15 11
-28 25 -13 14 -21 25 -18 25 2 0 15 -11 28 -25z m-253 -501 c-3 -3 -12 -4 -19
-1 -8 3 -5 6 6 6 11 1 17 -2 13 -5z m90 0 c-3 -3 -12 -4 -19 -1 -8 3 -5 6 6 6
11 1 17 -2 13 -5z m-34 -31 c-7 -2 -21 -2 -30 0 -10 3 -4 5 12 5 17 0 24 -2
18 -5z"/>
<path d="M2928 4333 c12 -2 30 -2 40 0 9 3 -1 5 -23 4 -22 0 -30 -2 -17 -4z"/>
<path d="M2907 4271 c-2 -11 -15 -21 -28 -24 -22 -4 -22 -4 4 -6 24 -1 27 -5
27 -36 0 -19 5 -35 10 -35 6 0 10 16 10 35 0 31 3 35 25 35 22 0 25 -4 25 -35
0 -19 5 -35 11 -35 6 0 8 7 5 16 -3 9 -6 36 -6 60 l0 44 -39 0 c-30 0 -40 -4
-44 -19z"/>
<path d="M4883 4249 c-1 -10 2 -19 8 -19 11 0 12 27 1 34 -4 2 -9 -4 -9 -15z"/>
<path d="M4826 4195 c-11 -8 -16 -15 -10 -15 5 0 2 -5 -6 -10 -11 -7 -5 -10
23 -10 39 0 44 6 25 33 -12 14 -15 14 -32 2z"/>
<path d="M2913 4123 c-7 -2 -13 -20 -13 -39 0 -32 2 -34 34 -34 18 0 39 7 46
15 28 34 -21 77 -67 58z"/>
<path d="M4910 4070 c0 -36 3 -40 24 -40 41 0 56 11 56 40 0 29 -15 40 -56 40
-21 0 -24 -4 -24 -40z"/>
<path d="M2907 4003 c-4 -3 -7 -24 -7 -45 0 -37 1 -38 38 -38 44 0 62 14 62
47 0 16 -8 27 -26 33 -29 12 -58 13 -67 3z"/>
<path d="M4906 3975 c-3 -9 -6 -30 -6 -46 0 -28 2 -29 44 -29 89 0 96 81 9 88
-30 2 -42 -1 -47 -13z"/>
<path d="M4553 3419 c-13 -13 -39 -23 -67 -26 -25 -3 -46 -9 -46 -12 0 -12 54
-11 105 2 37 10 50 18 50 32 0 27 -17 28 -42 4z"/>
<path d="M3196 3414 c-4 -9 -5 -18 -4 -19 9 -8 112 -34 117 -30 3 3 -5 8 -17
12 -12 3 -20 9 -17 13 3 5 -4 6 -15 3 -15 -4 -20 0 -20 16 0 26 -35 29 -44 5z"/>
<path d="M4227 3313 c-4 -3 -19 -7 -34 -9 -16 -2 -44 -7 -63 -13 -32 -9 -30
-10 20 -6 30 3 70 4 89 4 30 0 32 2 21 16 -14 16 -23 19 -33 8z"/>
<path d="M4068 3283 c7 -3 16 -2 19 1 4 3 -2 6 -13 5 -11 0 -14 -3 -6 -6z"/>
<path d="M5144 2736 c-10 -8 -16 -17 -13 -20 9 -9 59 11 59 24 0 14 -23 12
-46 -4z"/>
<path d="M2210 1760 c-127 -6 -166 -11 -215 -30 -177 -68 -314 -219 -360 -396
-20 -75 -19 -210 1 -288 49 -192 220 -355 420 -402 62 -14 248 -16 1849 -16
1607 0 1787 1 1849 16 199 47 365 204 421 400 23 79 23 221 0 301 -56 193
-195 334 -395 402 -53 17 -131 18 -1735 19 -924 0 -1750 -2 -1835 -6z m858
-214 c4 -21 -14 -37 -35 -29 -14 5 -18 35 -6 47 12 12 38 1 41 -18z m-440 -99
l3 -48 40 50 c29 36 48 51 65 51 32 0 30 -7 -11 -59 -40 -50 -40 -50 -22 -76
8 -11 26 -41 41 -67 l28 -48 -30 0 c-26 0 -35 7 -59 49 -32 58 -53 54 -53 -10
0 -37 -2 -39 -30 -39 l-30 0 0 118 c0 65 3 122 7 126 4 4 16 6 28 4 16 -2 21
-12 23 -51z m333 24 c25 -31 24 -76 -2 -102 l-22 -22 22 -44 c26 -54 26 -53
-4 -53 -20 0 -30 9 -47 45 -14 29 -29 45 -40 45 -15 0 -18 -8 -18 -45 0 -43
-1 -45 -30 -45 l-30 0 0 126 0 126 76 -4 c65 -3 79 -7 95 -27z m109 -96 l0
-125 -25 0 -25 0 0 125 0 125 25 0 25 0 0 -125z m211 98 c26 -26 28 -86 4
-113 -11 -12 -38 -22 -66 -26 l-49 -7 0 -38 c0 -35 -3 -39 -25 -39 l-25 0 0
126 0 126 70 -4 c54 -3 75 -8 91 -25z m234 2 c0 -16 -8 -21 -37 -23 l-38 -3 0
-100 c0 -99 0 -99 -25 -99 -24 0 -24 1 -27 103 l-3 102 -32 3 c-25 3 -33 8
-33 23 0 18 6 20 98 17 89 -3 97 -5 97 -23z m187 -4 c27 -24 32 -36 36 -87 3
-50 0 -64 -20 -94 -32 -47 -74 -58 -125 -34 -29 15 -41 29 -51 59 -43 130 68
238 160 156z m317 5 c24 -22 28 -68 7 -85 -13 -11 -12 -15 5 -32 25 -25 24
-57 -3 -86 -18 -20 -31 -23 -90 -23 l-68 0 0 126 0 126 64 -4 c45 -3 71 -10
85 -22z m224 4 c49 -38 60 -138 23 -195 -9 -13 -34 -29 -55 -36 -34 -10 -44
-9 -73 8 -46 27 -60 57 -55 127 3 51 8 63 35 87 39 35 88 38 125 9z m214 10
c28 -10 53 -45 53 -74 0 -7 -10 -26 -22 -41 l-21 -27 21 -44 c27 -55 27 -54
-2 -54 -18 0 -30 11 -48 42 -13 24 -31 44 -41 46 -14 3 -17 -4 -17 -42 0 -42
-2 -46 -25 -46 -17 0 -25 6 -25 18 0 9 -1 63 -3 120 -1 57 -1 105 2 108 8 8
98 4 128 -6z m238 -15 c14 -13 25 -31 25 -40 0 -23 -47 -19 -60 5 -13 24 -42
26 -60 5 -16 -20 1 -41 40 -50 42 -9 80 -49 80 -83 0 -56 -68 -86 -133 -58
-34 14 -61 50 -50 69 9 14 43 7 53 -13 7 -13 21 -20 40 -20 60 0 49 38 -20 67
-59 25 -80 59 -62 98 23 49 107 61 147 20z m217 -85 c21 -58 40 -113 44 -122
10 -31 -44 -24 -56 7 -8 21 -16 25 -50 25 -33 0 -42 -4 -52 -25 -7 -16 -19
-25 -35 -25 -12 0 -23 2 -23 5 0 7 78 224 85 236 4 5 16 9 28 7 16 -2 28 -24
59 -108z m230 80 c10 -12 18 -28 18 -36 0 -21 -37 -17 -60 6 -24 24 -43 25
-60 5 -16 -20 1 -41 40 -50 68 -15 101 -84 60 -125 -50 -50 -152 -27 -162 35
-4 29 37 33 52 5 14 -27 73 -25 78 2 3 13 -12 24 -52 42 -65 29 -86 61 -68
101 7 14 22 30 34 35 36 15 100 4 120 -20z m108 -95 l0 -125 -25 0 -25 0 0
125 0 125 25 0 25 0 0 -125z m-2020 -265 c0 -5 -4 -10 -10 -10 -5 0 -10 5 -10
10 0 6 5 10 10 10 6 0 10 -4 10 -10z m160 0 c0 -5 -4 -10 -10 -10 -5 0 -10 5
-10 10 0 6 5 10 10 10 6 0 10 -4 10 -10z m-222 -42 c6 -6 12 -29 12 -53 0 -51
-25 -78 -67 -73 -27 3 -28 5 -31 62 -2 32 -1 64 2 71 5 13 64 8 84 -7z m62
-53 c0 -43 -4 -75 -10 -75 -11 0 -14 133 -3 143 12 13 13 7 13 -68z m106 -61
c-5 -12 -66 -21 -66 -10 0 2 -3 13 -6 23 -6 15 -4 16 7 6 7 -7 21 -13 31 -13
15 0 18 9 18 58 0 32 3 62 8 66 8 9 16 -110 8 -130z m54 61 c0 -43 -4 -75 -10
-75 -11 0 -14 133 -3 143 12 13 13 7 13 -68z m113 57 c-21 -3 -23 -9 -23 -62
0 -81 -18 -87 -22 -8 -3 58 -5 63 -28 68 -18 3 -10 6 25 10 49 5 92 -2 48 -8z
m396 -68 c-13 -35 -27 -63 -33 -61 -12 4 -58 137 -47 137 8 0 23 -33 36 -78 8
-27 20 -21 29 12 12 47 28 81 33 68 3 -7 -5 -42 -18 -78z m125 3 c15 -39 21
-67 15 -67 -6 0 -13 9 -16 20 -4 14 -14 20 -35 20 -21 0 -31 -6 -35 -20 -5
-19 -23 -29 -23 -13 0 23 54 143 61 136 4 -4 19 -38 33 -76z m134 45 c2 -13
-2 -29 -8 -37 -9 -10 -7 -21 5 -44 8 -17 11 -31 6 -31 -6 0 -17 14 -26 30 -9
17 -22 30 -30 30 -10 0 -15 -10 -15 -30 0 -16 -4 -30 -9 -30 -8 0 -21 137 -14
144 2 1 22 0 45 -3 35 -5 44 -10 46 -29z m52 -33 c0 -59 0 -59 30 -59 17 0 30
-4 30 -10 0 -5 -18 -10 -40 -10 l-40 0 0 76 c0 47 4 73 10 69 6 -3 10 -33 10
-66z m160 11 c5 0 20 14 34 32 14 18 28 29 32 25 4 -4 -4 -20 -19 -35 l-26
-27 24 -30 c37 -46 29 -66 -9 -21 -27 32 -34 35 -39 21 -4 -9 -7 -25 -7 -36 0
-10 -4 -19 -10 -19 -6 0 -10 29 -10 68 0 71 13 108 18 53 2 -17 7 -31 12 -31z
m145 -70 c19 0 35 -4 35 -10 0 -5 -20 -10 -45 -10 l-45 0 0 68 c0 89 14 103
18 18 l3 -66 34 0z m138 48 c14 -38 21 -68 15 -68 -5 0 -12 9 -15 20 -7 28
-58 27 -73 -1 -18 -32 -23 -15 -9 28 23 71 40 106 48 97 5 -5 20 -39 34 -76z
m-1053 68 c0 -2 11 -33 25 -70 14 -36 21 -66 16 -66 -5 0 -13 9 -16 20 -9 28
-58 27 -79 -2 -10 -13 -15 -16 -13 -8 25 86 43 130 54 130 7 0 13 -2 13 -4z
m82 -53 c3 -57 3 -58 36 -61 46 -5 40 -22 -8 -22 -25 0 -40 5 -41 13 -4 88 -3
127 3 127 4 0 8 -26 10 -57z m628 -13 c0 -40 -4 -70 -10 -70 -6 0 -10 30 -10
70 0 40 4 70 10 70 6 0 10 -30 10 -70z m474 48 c7 -12 6 -23 -3 -41 -10 -18
-10 -30 -2 -45 20 -37 11 -38 -18 -3 -30 37 -51 35 -51 -5 0 -13 -4 -24 -10
-24 -6 0 -10 30 -10 71 l0 70 41 -3 c26 -2 46 -10 53 -20z"/>
<path d="M2850 1415 c0 -30 3 -35 24 -35 30 0 59 27 52 47 -3 8 -6 17 -6 19 0
2 -16 4 -35 4 -33 0 -35 -2 -35 -35z"/>
<path d="M3188 1452 c-13 -2 -18 -13 -18 -38 0 -35 1 -35 38 -32 33 3 37 6 37
32 0 30 -24 46 -57 38z"/>
<path d="M3606 1445 c-30 -30 -32 -107 -4 -142 16 -20 55 -15 72 9 47 67 -14
186 -68 133z"/>
<path d="M3920 1420 c0 -25 4 -30 24 -30 13 0 29 7 36 15 19 23 4 45 -30 45
-27 0 -30 -3 -30 -30z"/>
<path d="M3920 1325 c0 -32 3 -35 28 -35 27 0 52 15 52 31 0 16 -33 39 -56 39
-21 0 -24 -5 -24 -35z"/>
<path d="M4156 1447 c-26 -19 -33 -99 -12 -132 19 -29 57 -33 77 -9 20 24 16
109 -6 134 -21 23 -34 25 -59 7z"/>
<path d="M4378 1415 c3 -28 8 -35 26 -35 32 0 48 15 44 41 -2 19 -10 25 -39
27 -35 3 -35 3 -31 -33z"/>
<path d="M4838 1398 c-3 -13 -9 -31 -13 -40 -6 -15 -2 -18 23 -18 30 0 31 1
20 33 -15 44 -25 53 -30 25z"/>
<path d="M3107 1063 c-4 -3 -7 -28 -7 -55 0 -45 2 -48 25 -48 18 0 28 7 35 26
14 35 13 41 -10 64 -21 21 -32 24 -43 13z"/>
<path d="M3976 1034 c-10 -26 -7 -34 13 -34 14 0 18 5 14 20 -7 27 -20 34 -27
14z"/>
<path d="M4089 1065 c-4 -3 -4 -17 -1 -31 3 -17 9 -23 19 -20 8 3 19 6 25 6 5
0 8 10 6 23 -3 21 -36 36 -49 22z"/>
<path d="M4607 1046 c-11 -29 -8 -46 8 -46 16 0 18 14 6 44 -7 18 -8 18 -14 2z"/>
<path d="M3580 1041 c0 -5 -3 -16 -6 -25 -4 -11 0 -16 14 -16 15 0 19 5 15 20
-6 22 -23 38 -23 21z"/>
<path d="M4710 1039 c0 -25 3 -30 21 -27 31 4 49 35 29 48 -31 20 -50 12 -50
-21z"/>
</g>
</svg>
