<?xml version="1.0" standalone="no"?>
<!DOCTYPE svg PUBLIC "-//W3C//DTD SVG 20010904//EN"
 "http://www.w3.org/TR/2001/REC-SVG-20010904/DTD/svg10.dtd">
<svg version="1.0" xmlns="http://www.w3.org/2000/svg"
 width="779.000000pt" height="781.000000pt" viewBox="0 0 779.000000 781.000000"
 preserveAspectRatio="xMidYMid meet">
<metadata>
Created by potrace 1.16, written by Peter Selinger 2001-2019
</metadata>
<g transform="translate(0.000000,781.000000) scale(0.100000,-0.100000)"
fill="#000000" stroke="none">
<path d="M240 7741 c-83 -26 -141 -74 -181 -151 l-24 -45 0 -3640 0 -3640 27
-50 c31 -59 67 -94 128 -126 l45 -24 3640 0 3640 0 50 27 c59 31 94 67 126
128 l24 45 0 3640 0 3640 -24 45 c-32 61 -67 97 -126 128 l-50 27 -3625 2
c-1994 1 -3636 -2 -3650 -6z m3116 -448 c-10 -10 -19 5 -10 18 6 11 8 11 12 0
2 -7 1 -15 -2 -18z m585 -165 c44 -20 68 -37 65 -45 -3 -7 -1 -15 3 -18 5 -2
12 5 16 18 7 20 8 19 12 -11 2 -18 9 -30 14 -26 5 3 7 10 4 15 -4 5 -1 9 5 9
7 0 10 -7 6 -15 -3 -8 2 -21 10 -27 9 -7 24 -21 35 -30 18 -17 19 -17 35 7 23
35 38 31 19 -5 -20 -39 -20 -42 16 -62 17 -10 27 -23 23 -29 -5 -8 -9 -8 -14
1 -4 7 -13 9 -20 5 -8 -5 -11 -4 -7 2 4 6 -1 14 -10 18 -10 3 -19 3 -20 -2 -2
-4 -23 -42 -48 -83 -24 -41 -42 -76 -40 -78 4 -4 102 68 204 150 81 65 65 38
-46 -81 l-88 -93 -85 17 c-105 22 -192 21 -290 -4 l-75 -19 -23 26 c-13 15
-53 60 -88 100 -36 39 -61 72 -55 72 5 0 13 -5 16 -10 3 -6 34 -29 68 -52 34
-23 80 -56 101 -75 22 -18 41 -31 43 -30 1 2 -28 65 -65 140 -40 79 -64 138
-58 141 6 2 4 5 -6 5 -9 1 -18 -5 -20 -11 -3 -7 -9 1 -15 18 l-11 30 77 13
c42 7 99 17 126 22 28 5 60 10 72 12 12 2 26 6 29 10 10 10 9 10 85 -25z
m-461 -52 c-25 -15 -45 -12 -35 5 4 5 18 9 33 9 l27 -1 -25 -13z m-321 -85
l25 -18 -55 -18 c-58 -19 -132 -49 -164 -67 -21 -11 69 91 114 129 22 19 27
20 41 7 8 -8 26 -23 39 -33z m968 43 c-3 -3 -12 -4 -19 -1 -8 3 -5 6 6 6 11 1
17 -2 13 -5z m593 -84 c0 -5 -10 -10 -22 -10 -19 0 -20 2 -8 10 19 13 30 13
30 0z m67 -33 c4 -7 38 -34 74 -60 36 -26 77 -64 91 -84 28 -42 68 -112 68
-118 0 -7 -34 8 -40 16 -3 5 -21 10 -40 11 l-35 3 3 -52 c4 -54 -8 -70 -27
-35 -16 30 -52 216 -46 239 4 19 0 24 -32 32 -21 6 -46 11 -55 11 -9 0 -20 5
-24 11 -4 8 4 9 27 5 32 -7 33 -6 15 9 -27 21 -31 48 -6 35 11 -6 23 -16 27
-23z m-107 -6 c0 -5 8 -12 18 -14 9 -3 3 -5 -14 -6 -21 -1 -31 4 -31 14 0 8 6
15 14 15 7 0 13 -4 13 -9z m-290 -95 c0 -2 -34 -25 -76 -50 -66 -40 -78 -44
-102 -35 -25 10 -21 13 73 49 55 21 101 38 103 39 1 0 2 -1 2 -3z m-875 -41
c108 -35 115 -41 72 -49 -32 -6 -45 -1 -99 34 -34 22 -59 40 -56 40 3 0 41
-11 83 -25z m2269 0 c-4 -8 -10 -15 -15 -15 -5 0 -9 7 -9 15 0 8 7 15 15 15 9
0 12 -6 9 -15z m-2774 -75 c0 -5 -2 -10 -4 -10 -3 0 -8 5 -11 10 -3 6 -1 10 4
10 6 0 11 -4 11 -10z m1680 -50 c0 -13 -7 -20 -19 -20 -22 0 -35 15 -26 30 12
19 45 11 45 -10z m-1879 -125 c0 -6 -10 -12 -23 -13 -19 -4 -20 -2 -9 12 15
17 33 18 32 1z m1142 -72 c36 -33 63 -64 59 -67 -3 -4 -34 22 -69 56 l-63 62
-55 -54 c-30 -29 -52 -56 -50 -59 3 -3 27 17 54 43 44 44 51 47 68 35 40 -30
93 -83 93 -93 0 -6 -25 14 -55 44 l-55 54 -52 -51 c-41 -39 -56 -48 -65 -40
-9 9 2 26 50 73 34 34 65 61 68 60 4 -1 36 -29 72 -63z m-1805 -43 c22 -11 52
-20 66 -20 32 0 40 -14 20 -34 -18 -18 -30 -20 -39 -6 -3 6 -30 10 -60 10 -53
0 -54 -1 -71 -40 -15 -34 -19 -37 -29 -23 -10 13 -8 26 9 62 38 83 38 83 104
51z m1756 5 c10 -8 16 -21 13 -29 -4 -10 -1 -13 7 -10 21 8 30 -15 17 -39 -7
-12 -24 -30 -37 -41 -25 -18 -26 -18 -55 10 -36 35 -37 60 -2 96 31 32 32 32
57 13z m-779 -15 c3 -5 1 -10 -4 -10 -6 0 -11 5 -11 10 0 6 2 10 4 10 3 0 8
-4 11 -10z m1448 -94 c-6 -9 -53 41 -53 57 0 5 -9 7 -21 4 -16 -4 -18 -3 -8 9
9 11 18 8 49 -24 21 -20 36 -41 33 -46z m1042 56 c6 -4 19 -41 29 -82 10 -41
21 -81 23 -87 3 -7 0 -13 -6 -13 -6 0 -11 8 -11 18 0 13 -2 14 -9 4 -6 -10
-25 1 -74 45 -37 32 -67 64 -67 72 0 10 3 11 13 3 16 -13 82 22 72 38 -7 12
15 13 30 2z m-1135 -22 c0 -5 -7 -10 -16 -10 -9 0 -12 -5 -8 -12 4 -7 4 -10
-1 -6 -4 4 -14 3 -22 -3 -9 -8 -13 -8 -13 -1 0 6 12 18 28 26 33 18 32 18 32
6z m-1220 -10 c0 -5 -5 -10 -11 -10 -5 0 -7 5 -4 10 3 6 8 10 11 10 2 0 4 -4
4 -10z m752 -21 c-4 -3 -35 -32 -70 -64 l-63 -59 -44 44 c-25 24 -45 49 -45
54 0 5 14 -3 30 -19 17 -16 30 -25 29 -19 0 5 -17 23 -37 39 -20 17 -32 24
-28 17 6 -10 2 -13 -15 -10 -12 1 -24 9 -27 17 -3 8 0 11 7 7 6 -4 11 -2 11 3
0 21 22 10 71 -36 l49 -46 24 22 c14 13 29 20 34 17 11 -7 66 33 58 42 -3 3
-16 -3 -28 -14 -22 -18 -22 -18 1 8 18 21 26 24 36 15 7 -7 10 -15 7 -18z
m-701 -26 c13 -16 12 -17 -3 -4 -17 13 -22 21 -14 21 2 0 10 -8 17 -17z m1223
2 c7 -19 -2 -42 -19 -48 -18 -8 -55 21 -54 41 0 12 3 11 9 -5 10 -24 44 -31
55 -13 4 6 1 17 -5 25 -7 9 -8 15 -2 15 5 0 12 -7 16 -15z m-127 -41 c-3 -3
-12 -4 -19 -1 -8 3 -5 6 6 6 11 1 17 -2 13 -5z m65 -31 l37 -37 23 20 23 19
-19 -22 c-11 -13 -22 -23 -25 -23 -10 1 -94 80 -85 80 4 0 25 -17 46 -37z
m112 28 c3 -5 -1 -11 -9 -14 -9 -4 -12 -1 -8 9 6 16 10 17 17 5z m-949 -61
c10 -11 16 -20 13 -20 -3 0 -13 9 -23 20 -10 11 -16 20 -13 20 3 0 13 -9 23
-20z m-715 0 c0 -5 -7 -10 -15 -10 -8 0 -15 5 -15 10 0 6 7 10 15 10 8 0 15
-4 15 -10z m967 -47 c-3 -10 -5 -4 -5 12 0 17 2 24 5 18 2 -7 2 -21 0 -30z
m-1887 12 c0 -8 -4 -15 -10 -15 -5 0 -10 7 -10 15 0 8 5 15 10 15 6 0 10 -7
10 -15z m1675 -15 c10 -11 16 -20 13 -20 -3 0 -13 9 -23 20 -10 11 -16 20 -13
20 3 0 13 -9 23 -20z m612 -87 c-2 -16 -4 -5 -4 22 0 28 2 40 4 28 2 -13 2
-35 0 -50z m183 52 c0 -8 -4 -15 -9 -15 -13 0 -22 16 -14 24 11 11 23 6 23 -9z
m-880 -28 c0 -2 -10 -12 -22 -23 l-23 -19 19 23 c18 21 26 27 26 19z m60 -24
c0 -10 -4 -14 -8 -8 -4 6 -11 13 -16 18 -5 4 -2 7 7 7 10 0 17 -8 17 -17z
m237 -45 c-2 -13 -4 -3 -4 22 0 25 2 35 4 23 2 -13 2 -33 0 -45z m511 44 c2
-7 -3 -12 -12 -12 -9 0 -16 7 -16 16 0 17 22 14 28 -4z m-779 -21 c6 -10 7
-21 4 -25 -3 -3 -1 -6 5 -6 5 0 12 6 15 13 2 6 4 -4 4 -24 -1 -29 -4 -35 -18
-32 -10 3 -15 11 -12 19 3 8 0 14 -7 14 -6 0 -8 5 -5 10 9 15 -4 12 -21 -5 -9
-8 -12 -19 -9 -25 3 -5 0 -10 -8 -10 -9 0 -14 10 -14 24 0 18 4 23 15 19 10
-4 13 -2 8 6 -8 12 10 41 25 41 5 0 13 -8 18 -19z m-653 -26 c-2 -14 -6 -25
-9 -25 -4 0 -7 2 -7 5 0 3 0 14 0 25 0 11 4 20 9 20 5 0 8 -11 7 -25z m1855 8
c11 -15 11 -16 -1 -5 -21 18 -36 15 -48 -13 -7 -14 -12 -28 -12 -30 0 -9 66
-5 78 5 9 7 9 7 3 -1 -6 -8 -5 -17 5 -26 8 -8 14 -20 14 -26 0 -6 -7 -1 -16
11 -22 32 -73 30 -98 -4 -18 -25 -18 -26 5 -50 29 -31 72 -32 93 -2 9 12 16
18 16 12 0 -5 -5 -15 -12 -22 -8 -8 -8 -15 2 -27 7 -8 8 -15 3 -15 -5 0 -15
-11 -21 -25 -6 -14 -20 -25 -30 -25 -10 0 -25 11 -32 25 -7 14 -23 26 -34 26
-19 2 -19 2 2 6 27 5 28 24 2 48 -16 15 -22 15 -35 5 -17 -14 -20 -46 -5 -53
6 -3 5 -4 -2 -3 -8 2 -12 15 -10 32 7 75 6 73 20 61 19 -15 56 31 40 50 -6 8
-7 13 -1 13 5 0 15 11 21 25 13 29 34 32 53 8z m-1101 -3 c0 -5 -2 -10 -4 -10
-3 0 -8 5 -11 10 -3 6 -1 10 4 10 6 0 11 -4 11 -10z m561 -350 c-12 -42 -49
-82 -131 -142 -69 -50 -80 -73 -80 -169 l0 -67 -50 -45 -50 -45 0 -91 c0 -61
4 -91 11 -91 8 0 8 -4 0 -13 -8 -11 -6 -13 12 -13 30 1 41 40 20 72 -26 41
-10 84 59 155 34 34 56 65 50 67 -15 5 -16 39 -1 48 6 3 18 0 26 -9 20 -20 7
-45 -63 -118 -59 -63 -73 -97 -54 -137 12 -25 13 -26 21 -7 6 17 8 15 8 -11 1
-16 7 -38 14 -48 12 -17 15 -17 30 -2 15 15 17 15 26 -1 6 -10 11 -12 11 -6 0
7 -9 18 -20 25 -11 7 -20 20 -20 29 0 9 9 19 20 22 16 4 20 14 20 51 0 38 3
46 19 46 10 0 33 3 50 6 l31 7 0 -65 c0 -51 -4 -67 -20 -81 -19 -16 -20 -15
-31 4 -13 25 -5 49 16 49 10 0 15 9 15 26 0 20 -4 25 -16 20 -9 -3 -21 -6 -29
-6 -7 0 -15 -9 -18 -19 -6 -24 3 -72 13 -66 4 2 13 -8 19 -23 9 -18 9 -28 2
-30 -6 -2 -11 -8 -11 -13 0 -4 7 -5 17 -2 11 5 14 3 8 -6 -14 -24 31 7 59 40
l26 31 0 255 c0 253 0 257 24 297 13 23 46 59 73 80 l48 39 -54 -54 c-87 -88
-84 -77 -79 -366 4 -233 3 -255 -14 -283 -10 -17 -25 -33 -33 -36 -8 -4 -15
-11 -15 -16 0 -6 7 -8 15 -4 8 3 15 1 15 -5 0 -6 -10 -9 -22 -6 -16 4 -34 -3
-57 -23 -36 -31 -36 -43 1 -45 13 -1 23 5 26 17 3 11 11 17 21 14 36 -10 110
122 111 200 0 53 30 122 72 166 26 28 31 31 13 9 -45 -58 -65 -108 -75 -187
-11 -84 -34 -144 -74 -189 -36 -40 -50 -65 -36 -65 5 0 10 6 10 14 0 7 8 20
17 27 15 12 16 12 10 -3 -3 -10 -2 -18 3 -18 6 0 10 9 10 20 0 18 26 40 49 40
6 0 8 -12 5 -27 -7 -39 9 -61 30 -43 14 11 16 10 10 -6 -5 -16 -4 -16 5 -4 6
8 11 22 11 31 0 9 6 19 13 22 22 8 40 87 43 191 5 150 24 193 99 227 44 21 75
24 75 9 0 -6 -3 -9 -7 -9 -58 9 -122 -36 -141 -99 -7 -22 -12 -81 -12 -131 l0
-92 49 49 c27 27 59 52 70 55 29 7 26 0 -6 -17 -44 -22 -99 -83 -117 -129 -10
-23 -24 -55 -32 -71 -8 -16 -12 -31 -10 -34 3 -3 8 3 12 12 3 9 12 16 20 16
17 0 18 -17 2 -23 -10 -4 -10 -7 -1 -18 7 -7 14 -11 16 -8 1 2 18 36 37 74 28
56 43 74 75 91 44 24 189 45 169 24 -6 -6 -9 -23 -6 -38 l5 -27 13 35 c7 19
13 30 13 24 1 -16 167 -184 183 -185 7 0 25 -2 41 -3 33 -2 34 2 5 13 -20 8
-21 10 -5 16 25 10 49 -2 45 -22 -2 -13 -14 -18 -43 -19 -54 -2 -70 7 -147 89
-65 69 -68 70 -87 53 -11 -10 -31 -16 -48 -14 -24 2 -28 8 -31 36 -4 35 -12
38 -63 21 -51 -17 -87 -56 -104 -113 -9 -28 -20 -59 -26 -68 -7 -14 -4 -21 11
-30 11 -7 20 -17 20 -23 0 -6 15 -16 33 -23 17 -7 39 -17 47 -21 24 -12 180
-295 168 -303 -12 -7 -79 31 -119 69 l-26 24 -86 -25 c-47 -14 -122 -32 -167
-40 -229 -44 -338 -86 -418 -160 -27 -25 -57 -64 -67 -87 l-19 -40 -20 33
c-41 66 -70 97 -122 134 -75 51 -155 77 -361 119 -98 20 -184 40 -193 45 -33
16 -69 20 -82 7 -42 -40 -115 -84 -131 -78 -15 5 -4 27 72 155 88 147 90 150
140 168 65 25 76 45 55 95 -54 128 -78 157 -146 169 -35 6 -38 4 -38 -18 0
-45 -43 -64 -75 -32 -23 23 -55 5 -107 -60 -49 -62 -101 -101 -120 -90 -7 5
-23 7 -36 5 -20 -2 -23 1 -20 21 4 31 48 39 48 9 0 -42 62 -12 109 54 18 25
50 57 71 71 21 14 40 35 43 46 5 19 10 20 78 14 70 -7 119 -24 145 -51 15 -14
54 -86 54 -98 0 -5 7 -24 16 -43 18 -38 35 -37 28 2 -4 22 -2 25 16 19 20 -6
20 -6 -2 52 -24 61 -41 86 -98 142 -62 61 -142 77 -230 46 -56 -20 -63 -13
-10 9 51 20 142 21 185 0 19 -9 57 -40 86 -71 30 -32 50 -47 47 -35 -3 10 -2
37 2 58 l8 39 1 -52 c2 -86 51 -205 72 -172 4 7 21 12 38 11 l31 -1 -26 24
c-15 14 -21 26 -14 30 5 3 10 2 10 -4 0 -5 14 -12 30 -16 28 -6 43 -25 20 -25
-5 0 -10 -7 -10 -17 0 -9 3 -13 6 -10 4 3 16 2 27 -4 15 -9 18 -8 12 2 -6 9
-3 11 8 6 21 -8 22 6 3 22 -10 8 -16 9 -19 1 -3 -6 -4 -5 -3 2 2 7 -7 25 -20
40 -30 37 -60 120 -69 193 -9 74 -34 124 -86 176 -22 22 -32 36 -22 31 64 -35
104 -104 127 -221 18 -89 41 -145 56 -136 5 3 10 -5 12 -17 2 -13 9 -22 16
-21 6 2 11 -2 9 -8 -1 -6 4 -14 12 -17 8 -2 11 0 7 6 -3 6 1 15 10 20 15 8 15
10 0 15 -11 5 -15 3 -10 -5 4 -7 3 -8 -5 -4 -6 4 -9 11 -6 16 3 4 -2 14 -11
21 -45 37 -48 62 -45 304 2 127 5 232 7 234 2 2 4 -96 4 -218 0 -229 6 -268
43 -300 19 -15 23 -1 5 17 -7 7 -8 12 -2 12 5 0 11 17 12 38 2 36 41 132 54
132 3 0 16 -20 28 -44 15 -32 20 -59 18 -98 -2 -30 1 -54 7 -55 6 -1 9 5 7 14
-2 9 2 13 10 11 7 -3 16 -18 19 -34 6 -24 7 -25 8 -6 0 13 15 43 31 67 17 24
30 51 30 60 0 26 -26 67 -65 105 -20 19 -46 50 -57 68 -19 31 -19 35 -4 50 15
15 17 15 33 0 14 -14 14 -20 3 -33 -12 -14 -7 -23 37 -68 28 -29 56 -62 62
-74 17 -33 13 -77 -8 -104 -15 -20 -16 -26 -5 -36 8 -8 15 -9 19 -3 4 6 10 8
15 5 14 -9 20 24 20 110 l0 83 -50 42 -50 42 0 81 c0 55 3 77 10 67 16 -25 50
65 50 133 0 75 -17 110 -85 177 -30 30 -55 58 -55 63 0 5 21 32 46 61 26 28
55 69 65 91 10 22 19 32 19 22 0 -27 -17 -55 -71 -118 l-48 -56 54 -53 c70
-69 85 -102 86 -187 1 -57 -3 -77 -27 -123 -21 -39 -29 -68 -28 -103 0 -46 4
-52 53 -95 l53 -47 0 -73 c1 -40 5 -75 10 -78 5 -3 8 -2 7 3 -5 29 4 52 21 58
16 5 20 15 20 50 0 41 -5 50 -67 115 l-66 71 66 67 66 67 2 110 2 110 -56 61
-56 61 23 22 c12 12 26 18 31 14 4 -5 5 -2 1 5 -10 16 13 45 30 38 7 -3 16 -1
19 4 4 6 0 10 -7 10 -11 0 -11 2 0 9 7 4 17 21 22 37 8 28 8 28 9 4 1 -17 21
-45 61 -85 l60 -59 -57 -58 c-31 -31 -59 -55 -62 -53 -3 2 -5 -49 -3 -113 l3
-117 67 -67 66 -68 -67 -68 c-64 -64 -67 -70 -67 -115 0 -26 5 -47 11 -47 5 0
7 -4 4 -10 -3 -5 3 -10 15 -10 12 0 19 -3 17 -7 -3 -5 -1 -17 3 -28 4 -12 8
15 8 63 1 82 2 82 38 115 21 17 44 37 52 43 20 14 28 105 12 135 -7 13 -9 20
-4 16 4 -4 15 7 24 25 8 18 35 47 60 65 150 111 149 109 152 335 l2 173 4
-165 c2 -94 -1 -180 -7 -200z m-128 330 c4 -15 0 -20 -14 -20 -19 0 -22 19 -4
32 6 4 11 8 11 8 1 0 4 -9 7 -20z m-2963 0 c0 -5 -5 -10 -11 -10 -5 0 -7 5 -4
10 3 6 8 10 11 10 2 0 4 -4 4 -10z m3015 -10 c3 -5 -1 -10 -10 -10 -9 0 -13 5
-10 10 3 6 8 10 10 10 2 0 7 -4 10 -10z m508 0 c-13 -5 -23 -17 -24 -27 0 -11
-3 -13 -6 -5 -7 17 15 42 36 41 11 0 9 -3 -6 -9z m205 -31 c-3 -8 -7 -3 -11
10 -4 17 -3 21 5 13 5 -5 8 -16 6 -23z m-1955 -41 c-2 -4 -10 -2 -17 4 -9 9
-10 15 -2 24 8 9 12 8 17 -5 4 -9 5 -19 2 -23z m3037 0 c17 -70 50 -179 70
-233 10 -27 26 -77 36 -110 9 -33 43 -112 75 -175 52 -102 101 -248 78 -234
-5 3 -9 -20 -9 -51 0 -35 4 -54 10 -50 6 3 10 -1 10 -10 0 -9 4 -14 10 -10 5
3 7 12 3 20 -3 8 -1 15 4 15 5 0 24 -44 42 -97 19 -54 45 -122 59 -151 l24
-52 -22 -53 c-13 -28 -23 -61 -22 -72 1 -10 -3 -24 -7 -30 -5 -5 -28 -66 -51
-134 -39 -115 -41 -127 -32 -175 8 -39 7 -59 -3 -83 l-14 -33 -145 0 c-105 0
-146 3 -146 12 0 6 21 121 46 256 32 169 44 262 42 301 -4 50 -50 218 -180
651 -22 74 -52 158 -66 185 -41 77 -52 105 -43 105 5 0 11 -9 14 -20 6 -22 42
-26 129 -14 l45 6 7 67 c3 36 9 99 12 139 4 39 8 72 10 72 2 0 8 -19 14 -42z
m-1187 4 c-2 -7 2 -12 8 -12 5 0 7 -4 4 -10 -3 -5 -15 -10 -26 -10 -14 0 -19
7 -19 26 0 19 4 25 18 22 9 -2 16 -10 15 -16z m-1839 -54 c7 -5 4 -8 -6 -8
-12 0 -18 7 -17 23 0 15 2 17 6 7 3 -8 11 -18 17 -22z m76 23 c0 -4 -11 -20
-25 -35 -19 -21 -33 -26 -69 -26 -25 0 -47 3 -49 8 -3 4 16 5 42 4 43 -3 50
-1 72 27 26 33 29 35 29 22z m-30 -5 c0 -2 -8 -10 -17 -17 -16 -13 -17 -12 -4
4 13 16 21 21 21 13z m1900 -31 c0 -16 -38 -40 -48 -30 -3 3 4 8 16 12 12 3
22 12 22 19 0 8 2 14 5 14 3 0 5 -7 5 -15z m-500 -38 c0 -2 -15 -16 -32 -33
l-33 -29 29 33 c28 30 36 37 36 29z m170 -13 c0 -9 -5 -14 -12 -12 -18 6 -21
28 -4 28 9 0 16 -7 16 -16z m750 8 c0 -13 -12 -22 -22 -16 -10 6 -1 24 13 24
5 0 9 -4 9 -8z m-2140 -17 c0 -8 -7 -15 -15 -15 -8 0 -15 7 -15 15 0 8 7 15
15 15 8 0 15 -7 15 -15z m1160 -49 c0 -2 -8 -10 -17 -17 -16 -13 -17 -12 -4 4
13 16 21 21 21 13z m-2570 -16 c0 -5 -8 -10 -17 -10 -15 0 -16 2 -3 10 19 12
20 12 20 0z m1520 -5 c11 -13 10 -14 -4 -9 -9 3 -16 10 -16 15 0 13 6 11 20
-6z m1160 11 c0 -2 -8 -10 -17 -17 -16 -13 -17 -12 -4 4 13 16 21 21 21 13z
m-2730 -10 c0 -3 -4 -8 -10 -11 -5 -3 -10 -1 -10 4 0 6 5 11 10 11 6 0 10 -2
10 -4z m1267 -13 c-13 -3 -17 -11 -13 -25 3 -15 2 -18 -6 -10 -15 15 -2 42 19
41 17 -1 17 -2 0 -6z m1185 -66 c-4 -36 -6 -37 -43 -37 l-39 0 0 44 c0 43 1
45 33 48 42 4 54 -9 49 -55z m138 59 c0 -2 -8 -10 -17 -17 -16 -13 -17 -12 -4
4 13 16 21 21 21 13z m413 -14 c-21 -22 -26 -21 -17 2 3 9 12 16 20 16 11 0
10 -4 -3 -18z m492 8 c3 -5 -1 -10 -9 -10 -9 0 -16 5 -16 10 0 6 4 10 9 10 6
0 13 -4 16 -10z m-1845 -42 c0 -13 -5 -9 -31 19 l-24 26 27 -19 c15 -10 28
-22 28 -26z m415 -174 c-8 -9 -15 -20 -15 -25 0 -5 -5 -9 -11 -9 -6 0 -1 13
10 29 17 24 21 46 23 128 l2 98 3 -103 c3 -82 1 -106 -12 -118z m-155 195 c0
-5 -4 -8 -9 -5 -5 3 -11 -5 -13 -19 -5 -25 17 -44 26 -22 2 7 5 4 5 -5 1 -15
-7 -18 -43 -18 -25 0 -48 4 -51 10 -4 6 1 7 11 3 14 -5 16 -2 12 15 -4 12 -2
25 4 28 6 4 5 10 -3 15 -9 6 -1 9 24 9 20 0 37 -5 37 -11z m1127 -14 c-4 -8
-17 -14 -29 -14 l-23 2 23 4 c12 2 22 12 22 20 0 9 3 14 6 10 4 -3 4 -13 1
-22z m-2830 1 c1 -1 -31 -67 -71 -147 -60 -120 -75 -161 -84 -225 -6 -44 -21
-137 -32 -209 -48 -307 -70 -470 -69 -514 1 -25 22 -111 46 -191 25 -80 47
-153 50 -163 5 -16 -5 -17 -153 -15 l-159 3 -47 120 c-26 66 -57 139 -68 161
l-21 41 30 89 c16 49 46 145 66 214 34 115 36 129 26 175 -10 42 -9 59 4 95 9
25 40 139 70 253 51 201 55 210 100 269 l48 60 131 -7 c72 -4 132 -8 133 -9z
m1492 -63 c17 -25 31 -56 30 -67 -1 -16 -3 -15 -9 7 -5 16 -20 43 -34 62 -25
32 -31 45 -22 45 2 0 18 -21 35 -47z m-94 2 c51 -50 16 -148 -53 -148 -62 0
-103 50 -88 108 17 65 94 87 141 40z m1192 3 c15 -14 23 -32 22 -52 -2 -30 -2
-30 -6 -4 -4 29 -49 68 -77 68 -25 0 -69 -42 -54 -52 9 -5 8 -8 -4 -8 -11 0
-18 -8 -18 -18 0 -25 35 -56 55 -49 17 7 19 -1 5 -23 -9 -13 -11 -13 -20 0 -5
8 -10 11 -10 6 0 -5 -9 -1 -20 9 -23 21 -27 82 -7 107 33 42 98 50 134 16z
m-1879 -13 c-2 -3 -17 -6 -31 -7 -18 -2 -27 -8 -27 -20 0 -10 -4 -18 -10 -18
-14 0 -13 23 2 38 7 7 25 12 42 12 16 0 27 -2 24 -5z m101 -22 c0 -24 -1 -25
-8 -8 -5 13 -21 22 -47 26 l-39 6 48 2 c45 1 47 0 46 -26z m2396 17 c-3 -5
-12 -7 -20 -3 -21 7 -19 13 6 13 11 0 18 -4 14 -10z m-3655 -30 c0 -5 -4 -10
-10 -10 -5 0 -10 5 -10 10 0 6 5 10 10 10 6 0 10 -4 10 -10z m3248 -16 c-7
-15 -14 -21 -16 -15 -2 7 2 18 8 26 18 22 21 18 8 -11z m-240 -9 c-8 -19 -8
-29 0 -37 13 -13 46 -3 37 12 -3 5 -1 10 4 10 18 0 13 -15 -13 -39 l-23 -22
-16 32 c-8 18 -13 38 -10 46 3 8 -2 13 -12 13 -11 0 -15 -5 -11 -15 8 -22 -1
-18 -14 5 -10 18 -8 20 29 20 40 0 40 -1 29 -25z m-828 -50 c27 -32 3 -20 -35
19 -34 34 -35 37 -9 18 17 -11 37 -28 44 -37z m1004 33 c-12 -22 -37 -48 -45
-48 -4 0 5 14 19 30 28 32 38 38 26 18z m29 -61 c-14 -24 -44 -45 -122 -85
-57 -29 -105 -51 -108 -49 -2 3 41 28 96 56 97 50 140 86 142 120 0 10 2 12 6
3 2 -7 -4 -27 -14 -45z m-2120 -2 c-7 -21 -13 -19 -13 6 0 11 4 18 10 14 5 -3
7 -12 3 -20z m165 -5 l2 -30 -85 0 c-72 0 -84 2 -78 16 4 11 9 12 16 5 12 -12
85 -15 111 -5 9 3 16 15 16 25 0 31 16 22 18 -11z m840 0 c14 -23 8 -40 -22
-62 -22 -16 -24 -15 -49 8 -30 28 -31 32 -14 55 24 32 65 31 85 -1z m602 10
c-13 -8 -12 -10 3 -10 9 0 17 5 17 10 0 19 21 10 32 -15 10 -22 8 -29 -12 -50
-13 -14 -27 -25 -31 -25 -13 0 -49 42 -49 57 0 17 40 57 48 48 4 -3 0 -10 -8
-15z m-212 -15 c-3 -3 -9 2 -12 12 -6 14 -5 15 5 6 7 -7 10 -15 7 -18z m-813
-3 c-3 -3 -11 0 -18 7 -9 10 -8 11 6 5 10 -3 15 -9 12 -12z m1445 14 c0 -2 -7
-7 -16 -10 -8 -3 -12 -2 -9 4 6 10 25 14 25 6z m400 -11 c0 -12 14 -15 65 -15
55 0 65 3 65 18 0 14 2 15 9 2 16 -25 2 -30 -79 -30 -73 0 -79 2 -77 20 1 23
17 28 17 5z m-1774 -31 c18 -14 18 -14 -6 -3 -31 14 -36 19 -24 19 6 0 19 -7
30 -16z m1294 6 c-8 -5 -19 -10 -25 -10 -5 0 -3 5 5 10 8 5 20 10 25 10 6 0 3
-5 -5 -10z m-1193 -74 c32 -30 66 -68 76 -85 26 -45 15 -38 -22 15 -18 25 -56
63 -83 85 -27 21 -45 39 -39 39 5 0 36 -24 68 -54z m1143 50 c0 -2 -7 -7 -16
-10 -8 -3 -12 -2 -9 4 6 10 25 14 25 6z m370 1 c0 -2 -12 -14 -27 -28 l-28
-24 24 28 c23 25 31 32 31 24z m-447 -59 c-17 -18 -45 -53 -62 -77 -17 -24
-31 -39 -31 -34 0 18 104 143 119 143 3 0 -9 -15 -26 -32z m274 26 c-3 -3 -12
-4 -19 -1 -8 3 -5 6 6 6 11 1 17 -2 13 -5z m60 0 c-3 -3 -12 -4 -19 -1 -8 3
-5 6 6 6 11 1 17 -2 13 -5z m43 -29 c-7 -8 -20 -15 -29 -15 -11 0 -8 5 9 14
33 19 35 19 20 1z m-51 -21 c2 -2 -17 -4 -42 -4 -26 0 -47 4 -47 9 0 8 79 3
89 -5z m276 -52 c-6 -7 -35 18 -35 31 0 5 9 2 20 -8 11 -10 18 -20 15 -23z
m-2205 21 c0 -13 -50 -56 -50 -44 0 18 24 51 37 51 7 0 13 -3 13 -7z m2186
-50 c-4 -4 -16 3 -26 17 -29 37 -24 49 7 18 15 -15 23 -31 19 -35z m-2057 24
c-13 -13 -26 -21 -29 -19 -5 4 38 42 48 42 3 0 -6 -10 -19 -23z m336 -17 c18
-35 33 -156 18 -147 -5 3 -11 30 -12 59 -1 30 -10 69 -21 91 -11 21 -16 36
-10 32 6 -3 17 -19 25 -35z m1468 16 c-10 -13 -20 -22 -22 -20 -4 4 29 44 36
44 2 0 -4 -11 -14 -24z m116 -45 c0 -10 -4 -7 -10 8 -5 14 -13 30 -17 36 -4 6
1 2 11 -8 9 -11 17 -27 16 -36z m532 41 c-7 -2 -18 1 -23 6 -8 8 -4 9 13 5 13
-4 18 -8 10 -11z m-2386 -8 c32 -33 -4 -92 -42 -68 -35 22 -40 44 -14 65 28
23 35 24 56 3z m1813 4 c18 -18 15 -43 -9 -64 -22 -19 -49 -12 -57 17 -2 8 3
5 11 -6 13 -16 19 -18 34 -9 24 15 27 38 8 58 -9 9 -13 16 -8 16 5 0 14 -5 21
-12z m-67 -21 c-10 -9 -11 -8 -5 6 3 10 9 15 12 12 3 -3 0 -11 -7 -18z m49 -7
c0 -11 -7 -20 -15 -20 -27 0 -18 30 13 39 1 1 2 -8 2 -19z m-1590 -6 c0 -8 -5
-12 -10 -9 -6 4 -8 11 -5 16 9 14 15 11 15 -7z m117 -26 c-3 -8 -6 -5 -6 6 -1
11 2 17 5 13 3 -3 4 -12 1 -19z m1113 6 c0 -8 -5 -12 -10 -9 -6 4 -8 11 -5 16
9 14 15 11 15 -7z m300 -19 c14 -19 14 -19 -2 -6 -10 7 -18 18 -18 24 0 6 1 8
3 6 1 -2 9 -13 17 -24z m-2005 -17 c21 -25 26 -40 23 -69 l-3 -38 50 -4 50 -3
-55 -2 c-30 -2 -64 -9 -74 -17 -11 -8 -37 -15 -57 -15 -29 0 -43 7 -63 31 -35
41 -34 83 3 120 42 41 90 40 126 -3z m196 15 c13 -16 12 -17 -3 -4 -10 7 -18
15 -18 17 0 8 8 3 21 -13z m1919 13 c0 -2 -8 -10 -17 -17 -16 -13 -17 -12 -4
4 13 16 21 21 21 13z m220 -8 c-19 -5 -41 -15 -49 -21 -12 -10 -13 -9 -7 1 10
16 44 31 71 30 11 0 4 -4 -15 -10z m65 -8 c3 -6 -1 -7 -9 -4 -18 7 -21 14 -7
14 6 0 13 -4 16 -10z m-698 -92 c-2 -18 -4 -4 -4 32 0 36 2 50 4 33 2 -18 2
-48 0 -65z m-1434 70 c-2 -5 -13 -8 -23 -8 -10 0 -21 3 -23 8 -3 4 8 7 23 7
15 0 26 -3 23 -7z m1800 0 c-2 -5 -10 -8 -18 -8 -8 0 -16 3 -18 8 -3 4 5 7 18
7 13 0 21 -3 18 -7z m294 -4 c-3 -3 -12 -4 -19 -1 -8 3 -5 6 6 6 11 1 17 -2
13 -5z m14 -77 c-10 -9 -11 -8 -5 6 3 10 9 15 12 12 3 -3 0 -11 -7 -18z
m-2201 -7 c-8 -5 -24 -9 -35 -9 -16 1 -16 2 5 9 35 11 48 11 30 0z m-385 -40
c-5 -8 -11 -8 -17 -2 -6 6 -7 16 -3 22 5 8 11 8 17 2 6 -6 7 -16 3 -22z m2115
20 c0 -5 -4 -10 -10 -10 -5 0 -10 5 -10 10 0 6 5 10 10 10 6 0 10 -4 10 -10z
m614 2 c8 -13 -11 -35 -23 -28 -16 10 -14 36 3 36 8 0 17 -4 20 -8z m-817 -27
c-4 -8 -11 -15 -17 -15 -7 0 -7 6 0 21 13 23 26 19 17 -6z m-1083 -25 c-6 -5
-24 21 -24 34 0 6 6 1 14 -10 8 -10 12 -21 10 -24z m-2484 20 c0 -5 -4 -10 -9
-10 -6 0 -13 5 -16 10 -3 6 1 10 9 10 9 0 16 -4 16 -10z m2525 -68 c-6 -6 -35
18 -35 29 0 5 9 1 20 -8 11 -9 17 -19 15 -21z m1015 33 c0 -3 -9 -14 -20 -25
-24 -24 -30 -25 -30 -5 0 8 7 15 15 15 8 0 15 5 15 10 0 6 5 10 10 10 6 0 10
-2 10 -5z m-3030 -15 c0 -5 -4 -10 -10 -10 -5 0 -10 5 -10 10 0 6 5 10 10 10
6 0 10 -4 10 -10z m3022 -67 c-3 -16 -7 -22 -10 -15 -2 6 -8 10 -13 6 -14 -8
-11 3 7 20 21 21 22 20 16 -11z m-192 4 c0 -7 -9 -13 -20 -13 -25 0 -26 13 -2
19 9 3 18 5 20 6 1 0 2 -5 2 -12z m280 4 c0 -5 -7 -12 -16 -15 -14 -5 -15 -4
-4 9 14 17 20 19 20 6z m-1193 -37 c-3 -3 -12 -4 -19 -1 -8 3 -5 6 6 6 11 1
17 -2 13 -5z m1867 -45 c-3 -5 -10 -7 -15 -3 -5 3 -7 10 -3 15 3 5 10 7 15 3
5 -3 7 -10 3 -15z m-3774 -79 c0 -5 -7 -6 -17 -3 -11 4 -14 3 -9 -5 4 -7 2
-12 -3 -12 -15 0 -14 27 2 33 14 5 27 -1 27 -13z m1676 -103 c-91 -140 -136
-213 -136 -220 0 -3 12 -13 28 -21 32 -18 14 -21 -23 -4 -22 10 -28 9 -36 -3
-6 -9 -9 -10 -9 -2 0 11 44 84 187 306 13 21 28 35 33 32 5 -3 -14 -43 -44
-88z m1634 41 c13 -24 56 -95 97 -159 40 -64 73 -118 73 -120 0 -3 -8 -5 -17
-5 -10 -1 -31 -4 -48 -8 l-30 -7 28 16 c15 9 27 18 27 20 0 2 -13 27 -30 55
-16 28 -30 53 -30 56 0 3 -9 17 -19 32 -33 47 -101 153 -101 158 0 2 6 4 13 4
7 0 24 -19 37 -42z m1699 -85 c0 -11 -3 -13 -6 -5 -2 6 -10 9 -15 6 -7 -4 -8
-2 -4 4 11 18 26 14 25 -5z m-2299 -263 c-8 -5 -19 -10 -25 -10 -5 0 -3 5 5
10 8 5 20 10 25 10 6 0 3 -5 -5 -10z m1066 -38 c-11 -10 -15 4 -8 28 l7 25 3
-23 c2 -13 1 -26 -2 -30z m-1436 2 c0 -2 -9 0 -20 6 -11 6 -20 13 -20 16 0 2
9 0 20 -6 11 -6 20 -13 20 -16z m1415 -21 c12 -17 14 -17 34 1 27 24 27 6 1
-25 l-20 -24 -20 25 c-11 14 -20 28 -20 33 0 13 12 8 25 -10z m-1910 -3 c13
-6 15 -9 5 -9 -8 0 -22 4 -30 9 -18 12 -2 12 25 0z m855 -24 c0 -2 -7 -7 -16
-10 -8 -3 -12 -2 -9 4 6 10 25 14 25 6z m304 -15 c6 -9 -53 -35 -61 -27 -3 2
5 7 16 11 12 3 21 11 21 16 0 12 17 12 24 0z m-1759 -27 c16 -25 16 -27 -4
-47 l-21 -21 -21 21 c-21 21 -21 21 -3 47 24 32 28 32 49 0z m802 -1 c-7 -6
-46 10 -41 18 3 5 14 3 24 -3 11 -7 18 -13 17 -15z m780 -39 c-3 -3 -12 -4
-19 -1 -8 3 -5 6 6 6 11 1 17 -2 13 -5z m-592 -14 c13 -5 14 -9 5 -9 -8 0 -24
4 -35 9 -13 5 -14 9 -5 9 8 0 24 -4 35 -9z m545 0 c-8 -5 -22 -10 -30 -10 -13
0 -13 1 0 10 8 5 22 10 30 10 13 0 13 -1 0 -10z m140 -10 c0 -5 -4 -10 -10
-10 -5 0 -10 5 -10 10 0 6 5 10 10 10 6 0 10 -4 10 -10z m-240 -20 c-8 -5 -19
-10 -25 -10 -5 0 -3 5 5 10 8 5 20 10 25 10 6 0 3 -5 -5 -10z m1360 0 c0 -5
-4 -10 -10 -10 -5 0 -10 5 -10 10 0 6 5 10 10 10 6 0 10 -4 10 -10z m-1564
-60 l69 -9 -65 3 c-67 2 -120 21 -128 45 -3 8 7 5 25 -8 19 -15 54 -25 99 -31z
m149 30 c-10 -11 -22 -20 -28 -20 -5 0 1 9 14 20 31 25 37 25 14 0z m-48 -26
c-3 -3 -12 -4 -19 -1 -8 3 -5 6 6 6 11 1 17 -2 13 -5z m-811 -31 c19 -14 40
-36 46 -47 7 -15 0 -11 -24 12 -19 18 -37 30 -40 27 -2 -3 -13 4 -23 15 -26
29 0 25 41 -7z m1399 -18 c-33 -26 -50 -32 -39 -12 16 28 28 37 48 37 19 0 18
-2 -9 -25z m215 2 c0 -8 -3 -17 -7 -20 -9 -9 -34 13 -27 24 8 14 34 11 34 -4z
m-821 -80 c27 -35 62 -69 76 -77 15 -8 38 -35 51 -61 16 -32 32 -50 52 -57 17
-6 53 -39 82 -74 29 -34 64 -69 77 -76 22 -12 29 -11 66 14 23 15 60 44 82 66
22 21 42 38 45 38 3 0 30 -25 60 -55 30 -30 59 -55 65 -55 5 0 23 -20 38 -45
16 -25 55 -64 88 -87 33 -22 57 -43 55 -46 -8 -8 -114 69 -147 106 -18 20 -40
37 -48 37 -9 0 -21 10 -27 23 -13 27 -54 72 -65 72 -9 0 -4 -34 7 -52 4 -7 3
-8 -5 -4 -6 4 -14 0 -18 -11 -11 -28 -28 -42 -43 -33 -7 4 -10 15 -7 25 7 18
-5 13 -35 -13 -10 -8 -18 -10 -18 -5 0 10 -73 9 -89 -2 -5 -2 -16 4 -26 15
-10 11 -26 20 -36 20 -11 0 -26 15 -38 38 -19 37 -67 79 -77 69 -3 -3 2 -21
10 -41 8 -20 12 -34 7 -32 -5 3 -14 20 -22 38 -7 18 -23 46 -36 61 -13 16 -23
33 -23 39 0 10 -132 139 -137 134 -2 -2 8 -24 23 -49 30 -55 25 -62 -9 -12
l-24 35 -13 -25 c-11 -20 -11 -27 1 -41 11 -13 11 -18 2 -21 -7 -3 -13 -15
-13 -27 0 -12 -14 -37 -31 -56 l-30 -35 6 28 c6 29 -9 38 -19 11 -3 -8 -9 -13
-13 -11 -5 3 -24 -15 -43 -39 -19 -24 -40 -44 -47 -44 -6 0 -15 -9 -18 -20 -3
-11 -15 -25 -26 -30 -23 -13 -24 -8 -2 33 9 18 20 49 23 70 7 35 6 37 -14 31
-29 -8 -58 -43 -51 -64 3 -9 -4 -43 -15 -75 -25 -72 -25 -72 2 -49 22 19 23
19 8 -1 -30 -40 -75 -56 -67 -24 6 21 5 21 -37 23 -16 1 -31 7 -33 13 -3 9
-12 9 -29 2 -38 -14 -38 -11 -2 19 76 62 102 90 139 144 28 41 47 58 68 63 22
5 39 20 60 56 17 27 58 77 91 110 33 34 60 66 60 71 0 4 9 8 20 8 12 0 38 -23
69 -63z m541 4 c-15 -29 -13 -32 15 -21 36 14 31 3 -7 -16 -18 -9 -45 -28 -60
-42 -16 -14 -28 -22 -28 -16 0 15 40 76 63 95 28 23 30 23 17 0z m1386 -103
c-19 -27 -20 -22 -4 23 8 23 13 28 16 17 2 -10 -4 -28 -12 -40z m-1171 -9 c0
-7 -8 -15 -17 -17 -18 -3 -25 18 -11 32 10 10 28 1 28 -15z m-1515 -9 c0 -5
-4 -10 -10 -10 -5 0 -10 5 -10 10 0 6 5 10 10 10 6 0 10 -4 10 -10z m-270 -45
c0 -8 -4 -15 -9 -15 -13 0 -22 16 -14 24 11 11 23 6 23 -9z m1068 -20 c-3 -3
-9 2 -12 12 -6 14 -5 15 5 6 7 -7 10 -15 7 -18z m-72 -52 c11 -18 12 -24 3
-16 -12 9 -21 -2 -53 -68 -37 -74 -107 -160 -130 -158 -6 0 -5 3 2 6 6 2 12
13 12 24 0 25 33 91 76 152 19 26 34 50 34 53 0 5 29 32 36 34 1 0 10 -12 20
-27z m929 7 c-3 -5 -12 -10 -18 -10 -7 0 -6 4 3 10 19 12 23 12 15 0z m-1577
-95 c27 -25 53 -45 57 -45 4 0 21 -12 39 -27 19 -17 24 -24 11 -19 -11 5 -29
11 -40 14 -11 2 -25 9 -32 14 -7 6 -13 4 -16 -4 -4 -9 -6 -8 -6 3 -1 8 -15 28
-33 45 -17 16 -29 22 -25 13 3 -9 -6 -36 -20 -60 -14 -26 -20 -45 -14 -47 17
-6 13 -34 -10 -71 -28 -46 -35 -33 -10 17 13 26 17 43 11 47 -12 8 -88 -61
-96 -88 -3 -10 -8 -16 -11 -13 -4 3 -22 -4 -42 -16 l-36 -21 30 32 c18 20 30
43 30 60 0 27 -3 25 -63 -38 -35 -36 -59 -56 -52 -43 l11 22 -33 -20 c-59 -36
-51 -21 37 65 47 47 91 85 96 85 6 0 42 32 81 70 39 39 74 70 79 70 4 0 29
-20 57 -45z m495 -25 c-23 -32 -60 -57 -70 -47 -1 2 16 24 38 50 48 55 72 53
32 -3z m2377 30 c0 -5 -4 -10 -10 -10 -5 0 -10 5 -10 10 0 6 5 10 10 10 6 0
10 -4 10 -10z m-4132 -40 c11 -32 3 -40 -17 -16 -7 8 -21 12 -32 9 -19 -5 -18
-4 3 20 26 29 32 28 46 -13z m1932 -55 c0 -17 -2 -17 -10 -5 -7 12 -10 8 -10
-15 0 -16 -9 -45 -20 -62 -11 -18 -17 -39 -14 -47 3 -8 1 -17 -5 -21 -6 -3
-11 1 -11 10 0 9 -4 13 -10 10 -17 -11 -11 16 10 42 11 14 20 37 20 50 0 22
-1 23 -16 9 -8 -9 -20 -16 -25 -16 -18 0 -9 20 27 60 34 37 38 39 50 23 7 -10
13 -27 14 -38z m-2132 -131 c2 -60 0 -106 -4 -102 -3 4 -19 52 -34 107 l-27
100 26 3 c14 2 28 3 31 2 3 -1 6 -51 8 -110z m4112 71 c0 -37 -8 -43 -28 -23
-16 16 -15 45 1 51 24 10 27 7 27 -28z m-2220 21 c0 -2 -8 -10 -17 -17 -16
-13 -17 -12 -4 4 13 16 21 21 21 13z m1233 -37 c26 -22 47 -46 47 -52 0 -6 -7
-1 -16 11 -13 19 -63 52 -79 52 -3 0 -5 -7 -5 -15 0 -11 -11 -15 -37 -15 l-37
0 34 30 c19 16 37 29 40 30 3 0 26 -18 53 -41z m-1408 -29 c-16 -16 -31 -27
-34 -24 -6 6 45 54 56 54 4 0 -6 -13 -22 -30z m130 22 c-43 -36 -84 -61 -79
-47 4 9 23 24 43 35 39 21 50 25 36 12z m-883 -48 c48 -34 50 -43 2 -13 -33
20 -38 21 -48 7 -39 -56 -37 -54 -32 -35 8 27 -10 20 -56 -20 -36 -33 -39 -34
-23 -10 19 30 94 96 109 97 6 0 27 -12 48 -26z m1028 -1 c0 -5 -13 -17 -28
-27 l-27 -19 24 26 c26 28 31 32 31 20z m-740 -17 c0 -3 -4 -8 -10 -11 -5 -3
-10 -1 -10 4 0 6 5 11 10 11 6 0 10 -2 10 -4z m90 -66 c0 -5 -5 -10 -11 -10
-5 0 -7 5 -4 10 3 6 8 10 11 10 2 0 4 -4 4 -10z m1567 -27 c-4 -20 -18 -48
-32 -62 l-26 -26 17 38 c32 67 5 62 -76 -13 -48 -44 -83 -70 -98 -70 -12 0
-35 -8 -50 -17 l-27 -17 19 22 c11 12 29 22 41 22 13 0 45 20 71 44 27 24 67
59 89 79 22 20 48 37 59 37 16 0 18 -5 13 -37z m43 2 c13 -14 21 -25 18 -25
-2 0 -15 11 -28 25 -13 14 -21 25 -18 25 2 0 15 -11 28 -25z m-1150 1 c0 -2
-7 -7 -16 -10 -8 -3 -12 -2 -9 4 6 10 25 14 25 6z m2160 -66 c0 -5 -4 -10 -10
-10 -5 0 -10 5 -10 10 0 6 5 10 10 10 6 0 10 -4 10 -10z m-1150 -19 c-5 -11
-15 -23 -21 -27 -6 -3 -3 5 6 20 20 30 30 35 15 7z m-402 -58 c38 -26 75 -56
82 -68 10 -16 6 -15 -16 6 -39 35 -131 89 -138 82 -3 -4 -6 -18 -6 -33 0 -16
-11 -36 -27 -51 -22 -20 -25 -21 -19 -5 5 16 4 17 -9 6 -9 -8 -15 -8 -15 -2 0
6 5 14 10 17 6 3 10 11 10 17 0 10 -47 -15 -65 -36 -5 -6 -21 -12 -35 -14 -26
-3 -114 -45 -140 -67 -35 -30 -177 -85 -164 -64 3 5 24 14 48 20 23 6 65 28
92 50 27 21 60 44 74 50 63 27 140 71 195 110 22 15 43 28 46 29 4 0 38 -21
77 -47z m-2042 -145 c40 -37 77 -68 83 -68 6 0 11 -15 11 -32 -1 -30 -2 -31
-14 -15 -13 16 -14 16 -27 0 -9 -11 -10 -14 -1 -9 6 4 12 5 12 1 0 -3 -10 -9
-22 -14 -37 -14 -94 20 -101 61 -3 18 -15 64 -26 101 -23 80 -26 81 85 -25z
m3508 42 c-3 -31 -1 -50 5 -50 5 0 -5 -32 -22 -71 -32 -69 -34 -71 -87 -89
-67 -24 -63 -23 -56 -3 7 16 -23 53 -44 53 -14 0 -13 36 3 47 6 6 21 13 31 17
16 5 17 4 6 -9 -10 -12 -10 -15 1 -16 8 0 30 -2 51 -5 48 -6 59 7 88 100 14
42 26 76 27 76 2 0 0 -22 -3 -50z m-1697 -20 c-14 -11 -29 -20 -34 -20 -11 1
37 40 49 40 6 0 -1 -9 -15 -20z m1903 -155 c0 -8 -4 -15 -10 -15 -5 0 -10 7
-10 15 0 8 5 15 10 15 6 0 10 -7 10 -15z m-921 -111 c-12 -15 -39 -19 -39 -6
0 15 22 30 36 25 11 -4 12 -9 3 -19z m931 6 c0 -5 -2 -10 -4 -10 -3 0 -8 5
-11 10 -3 6 -1 10 4 10 6 0 11 -4 11 -10z m-3116 -19 c3 -4 3 -11 0 -14 -8 -8
-34 3 -34 14 0 11 27 12 34 0z m334 -130 c-2 -10 -14 -16 -30 -17 -20 -1 -25
3 -20 15 12 33 56 35 50 2z m-255 -143 c5 1 6 -2 3 -7 -4 -5 0 -12 6 -14 8 -3
5 -6 -6 -6 -22 -1 -73 51 -105 106 -21 35 -17 33 36 -22 32 -33 62 -58 66 -57z
m-255 85 c-4 -22 -22 -20 -26 1 -2 10 3 16 13 16 10 0 15 -7 13 -17z m1301
-52 c18 -11 5 -31 -20 -31 -18 0 -26 20 -12 33 8 9 15 9 32 -2z m2121 -131 c0
-5 -4 -10 -10 -10 -5 0 -10 5 -10 10 0 6 5 10 10 10 6 0 10 -4 10 -10z m-2345
-65 c166 -47 232 -57 340 -51 55 4 118 11 140 17 25 7 40 8 42 2 2 -6 16 -8
31 -6 22 4 24 2 12 -7 -12 -9 -9 -11 17 -8 18 3 30 1 27 -4 -3 -4 -12 -8 -20
-8 -9 0 -14 -11 -14 -30 0 -16 5 -30 12 -30 33 0 -9 -11 -93 -24 -134 -21
-258 -44 -268 -50 -4 -3 -64 20 -132 50 -68 31 -148 65 -176 76 -43 16 -50 22
-40 33 10 11 13 11 15 -1 6 -23 23 -16 20 9 -4 28 -17 49 -27 43 -4 -3 -8 2
-8 10 0 10 6 14 16 10 9 -2 57 -16 106 -31z m993 -40 c4 -4 0 -5 -8 -1 -9 5
-8 2 3 -7 20 -17 22 -27 5 -27 -13 1 -58 34 -58 43 0 8 49 1 58 -8z m-351 -81
c-3 -3 -12 -4 -19 -1 -8 3 -5 6 6 6 11 1 17 -2 13 -5z m2403 -421 c19 -12 40
-30 46 -40 10 -16 8 -19 -7 -19 -11 0 -19 4 -19 8 0 4 -3 7 -7 6 -5 0 -26 7
-48 17 -38 17 -87 18 -925 11 -487 -3 -955 -6 -1040 -6 -88 0 -149 -4 -142 -9
21 -13 -69 -32 -152 -32 -39 0 -75 -4 -81 -8 -11 -10 -184 -22 -360 -26 -66
-1 -156 -4 -200 -5 -44 -1 -136 5 -205 13 -69 9 -132 15 -140 16 -8 0 -44 3
-80 6 -36 4 -70 7 -77 7 -7 1 -9 6 -6 11 4 6 -3 8 -16 4 -18 -4 -21 -2 -16 11
5 14 4 15 -6 5 -15 -15 -33 -18 -25 -4 6 9 -1510 25 -1889 19 -200 -3 -234 -5
-264 -21 -29 -16 -35 -17 -48 -4 -12 12 -11 16 14 33 26 18 57 19 443 25 228
3 1495 5 2815 5 l2400 -1 35 -22z m-3570 -133 c0 -5 11 -10 25 -10 14 0 25 5
25 10 0 6 9 10 20 10 24 0 26 -17 3 -42 -20 -22 -61 -23 -91 -2 -27 19 -29 44
-2 44 11 0 20 -4 20 -10z m238 -23 c3 -23 0 -27 -22 -27 -28 0 -37 17 -24 43
14 27 42 17 46 -16z m327 3 c0 -18 -6 -26 -23 -28 -24 -4 -38 18 -28 44 3 9
15 14 28 12 17 -2 23 -10 23 -28z m-2173 -61 c80 -37 90 -169 18 -234 -30 -27
-120 -27 -151 0 -28 25 -49 75 -49 116 0 39 35 104 64 117 28 14 90 15 118 1z
m219 -77 l58 -84 3 84 c3 81 4 83 28 83 l25 0 0 -125 0 -125 -25 -3 c-21 -2
-34 10 -80 77 l-55 80 -3 -79 -3 -80 -31 0 c-29 0 -30 2 -24 31 3 17 6 76 6
131 0 96 1 99 22 96 14 -2 42 -32 79 -86z m219 -22 l0 -109 62 -3 c50 -2 63
-6 66 -20 3 -16 -6 -18 -87 -18 l-91 0 0 123 c0 68 3 127 7 130 3 4 15 7 25 7
16 0 18 -10 18 -110z m220 -20 l0 -130 -25 0 -25 0 0 130 0 130 25 0 25 0 0
-130z m159 43 l61 -87 0 87 0 88 28 -3 27 -3 0 -125 0 -125 -26 -3 c-22 -3
-33 8 -80 77 -30 44 -58 80 -62 81 -5 0 -8 -17 -6 -37 1 -21 1 -57 0 -80 -1
-39 -3 -43 -26 -43 l-25 0 0 123 c0 68 3 127 7 130 20 21 46 1 102 -80z m346
62 c0 -18 -8 -20 -62 -23 -62 -3 -63 -3 -63 -32 0 -28 1 -29 58 -32 43 -2 57
-7 57 -18 0 -11 -14 -16 -57 -18 l-58 -3 0 -34 0 -35 65 0 c58 0 65 -2 65 -20
0 -19 -7 -20 -90 -20 l-90 0 0 130 0 131 88 -3 c79 -3 87 -5 87 -23z m315 0
c0 -24 -3 -25 -60 -25 l-60 0 0 -30 c0 -30 1 -30 55 -30 48 0 55 -2 55 -20 0
-18 -7 -20 -55 -20 l-55 0 0 -35 0 -35 60 0 c53 0 60 -2 60 -20 0 -19 -7 -20
-90 -20 l-90 0 0 123 c0 68 3 127 7 130 3 4 44 7 90 7 82 0 83 0 83 -25z m241
-6 c16 -17 29 -37 29 -45 0 -22 -53 -17 -68 6 -8 14 -23 20 -47 20 -28 0 -37
-5 -50 -30 -33 -63 -3 -140 55 -140 42 0 84 48 45 51 -8 1 -21 2 -27 3 -7 0
-14 11 -16 24 -3 21 0 22 52 22 l56 0 0 -44 c0 -78 -73 -123 -155 -96 -60 20
-93 93 -74 164 19 70 51 94 127 95 37 1 49 -4 73 -30z m129 -99 l0 -130 -25 0
-25 0 0 130 0 130 25 0 25 0 0 -130z m235 105 c0 -16 -8 -21 -37 -23 l-38 -3
0 -105 0 -105 -27 3 -28 3 -3 103 -3 102 -34 0 c-31 0 -35 3 -35 25 l0 26 103
-3 c94 -3 102 -4 102 -23z m91 -36 c-3 -34 -6 -93 -6 -130 0 -67 -1 -69 -25
-69 l-25 0 0 130 0 130 31 0 32 0 -7 -61z m144 -15 c15 -39 31 -77 35 -84 5
-8 20 18 40 71 32 82 34 84 69 87 l36 3 0 -130 0 -131 -30 0 -29 0 -3 72 -3
73 -29 -73 c-39 -96 -55 -96 -93 1 l-28 72 -3 -72 c-3 -70 -4 -73 -27 -73 -24
0 -24 1 -27 123 -2 67 -1 126 0 130 2 4 18 7 34 5 28 -3 33 -9 58 -74z m499
52 c16 -14 21 -31 21 -66 0 -60 -22 -81 -90 -88 l-50 -5 0 -38 c0 -37 -2 -39
-30 -39 l-30 0 0 131 0 131 79 -3 c60 -3 84 -9 100 -23z m119 -88 l3 -108 54
0 c48 0 55 -2 55 -20 0 -18 -7 -20 -85 -20 l-85 0 0 131 0 130 28 -3 27 -3 3
-107z m329 -8 c23 -63 42 -121 42 -127 1 -7 -10 -13 -25 -13 -19 0 -28 7 -35
30 -10 28 -15 30 -59 30 -46 0 -49 -2 -55 -30 -6 -25 -11 -30 -37 -30 -16 0
-28 4 -26 8 2 5 23 63 48 131 44 121 45 122 75 119 28 -3 32 -8 72 -118z m253
95 c0 -22 -4 -25 -34 -25 -32 0 -34 -2 -40 -46 -3 -26 -6 -73 -6 -105 0 -56
-1 -59 -25 -59 l-25 0 0 105 0 105 -35 0 c-31 0 -35 3 -35 25 l0 25 100 0 100
0 0 -25z m210 0 c0 -24 -3 -25 -60 -25 -60 0 -60 0 -60 -29 0 -29 2 -30 53
-33 45 -3 52 -6 55 -25 3 -22 0 -23 -52 -23 l-56 0 0 -50 c0 -47 -2 -50 -25
-50 l-25 0 0 130 0 130 85 0 c84 0 85 0 85 -25z m224 4 c53 -42 70 -108 42
-172 -22 -54 -50 -71 -112 -71 -48 0 -58 4 -86 31 -60 60 -45 188 26 219 46
20 99 17 130 -7z m272 -12 c31 -36 31 -78 0 -108 l-23 -22 23 -41 c30 -52 30
-56 -4 -56 -23 0 -32 8 -50 45 -17 36 -27 45 -47 45 -23 0 -25 -4 -25 -45 0
-41 -2 -45 -25 -45 l-25 0 0 131 0 131 76 -4 c69 -3 79 -6 100 -31z m157 -29
c15 -35 31 -76 37 -92 6 -16 13 -27 15 -24 3 3 20 43 38 89 31 79 35 84 62 84
l30 0 3 -127 3 -128 -25 0 c-25 0 -25 2 -28 82 l-3 81 -31 -79 c-42 -109 -59
-110 -99 -7 l-30 78 -3 -77 c-3 -75 -4 -78 -27 -78 l-25 0 0 130 0 130 28 0
c26 0 32 -7 55 -62z m287 -20 c0 -101 13 -132 57 -136 49 -5 63 24 63 130 0
87 0 88 25 88 25 0 25 0 25 -95 0 -114 -13 -148 -64 -165 -49 -16 -101 -3
-131 32 -23 27 -25 38 -25 122 0 51 3 96 7 99 3 4 15 7 25 7 16 0 18 -9 18
-82z m-3554 -309 c10 -17 -13 -36 -27 -22 -12 12 -4 33 11 33 5 0 12 -5 16
-11z m104 -15 c0 -8 -7 -14 -15 -14 -15 0 -21 21 -9 33 10 9 24 -2 24 -19z
m1130 12 c0 -21 -21 -31 -30 -15 -5 7 -6 17 -4 21 9 14 34 9 34 -6z m440 0 c0
-8 -5 -18 -11 -22 -14 -8 -33 11 -25 25 10 16 36 13 36 -3z m385 4 c4 -6 13
-5 25 2 24 15 37 4 20 -17 -21 -26 -80 -13 -80 17 0 11 28 10 35 -2z m-1762
-71 c32 -39 13 -55 -23 -19 -26 26 -55 25 -81 -1 -17 -17 -20 -29 -16 -61 3
-21 11 -45 17 -53 15 -18 61 -20 78 -3 20 20 14 38 -13 38 -16 0 -25 6 -25 15
0 11 11 15 40 15 39 0 40 -1 40 -34 0 -25 -7 -40 -26 -55 -39 -30 -80 -27
-116 9 -28 28 -30 35 -26 82 7 68 43 103 97 94 20 -3 44 -15 54 -27z m277 16
c0 -10 -10 -15 -30 -15 l-30 0 0 -90 c0 -73 -3 -90 -15 -90 -12 0 -15 17 -15
90 l0 90 -35 0 c-33 0 -43 8 -28 23 3 4 39 7 80 7 58 0 73 -3 73 -15z m148
-83 c40 -108 39 -104 25 -109 -6 -2 -19 10 -28 27 -13 25 -21 31 -38 26 -12
-3 -29 -6 -38 -6 -10 0 -20 -11 -23 -25 -6 -23 -36 -36 -36 -16 0 16 60 174
71 188 19 22 35 3 67 -85z m418 77 c16 -13 19 -55 4 -64 -6 -4 -4 -15 6 -30
21 -33 11 -73 -22 -85 -14 -6 -45 -10 -70 -10 l-44 0 0 98 c0 54 3 102 8 106
10 11 101 -1 118 -15z m94 -90 c0 -81 -3 -99 -15 -99 -12 0 -15 18 -15 98 0
54 3 102 6 105 17 17 24 -13 24 -104z m80 16 l0 -84 40 -3 c64 -5 52 -23 -17
-26 l-63 -3 0 100 c0 70 4 101 13 104 23 8 27 -4 27 -88z m254 74 c26 -20 35
-49 16 -49 -5 0 -19 9 -30 20 -51 51 -118 -12 -93 -87 17 -50 92 -57 101 -9 3
11 -4 16 -22 16 -17 0 -26 6 -26 16 0 12 9 14 43 12 37 -3 42 -6 45 -29 4 -38
-26 -69 -75 -76 -37 -5 -46 -2 -73 25 -85 85 20 235 114 161z m104 -79 c3 -89
-7 -127 -26 -104 -13 15 -2 206 11 201 8 -2 13 -38 15 -97z m452 80 c20 -20
27 -50 12 -50 -5 0 -17 9 -27 20 -35 38 -85 18 -100 -42 -7 -26 8 -66 29 -80
22 -15 65 -8 76 11 14 28 13 31 -15 31 -16 0 -25 6 -25 15 0 11 11 15 40 15
38 0 40 -2 40 -30 0 -43 -39 -80 -83 -80 -91 0 -130 118 -62 186 31 31 86 33
115 4z m403 -12 c26 -26 29 -33 15 -36 -9 -2 -26 6 -37 17 -36 36 -78 20 -95
-35 -7 -24 9 -74 27 -86 22 -14 57 -8 69 12 14 22 38 27 38 8 -1 -55 -103 -75
-144 -29 -41 45 -28 139 23 166 41 22 70 18 104 -17z m-2638 16 c21 -8 45 -56
45 -89 0 -67 -59 -112 -135 -103 l-30 3 -3 83 c-2 46 -1 89 2 97 6 16 88 21
121 9z m113 -91 c-2 -79 -6 -98 -18 -98 -12 0 -16 17 -18 84 -3 94 0 111 23
111 13 0 15 -14 13 -97z m102 13 c0 -92 -13 -120 -54 -114 -30 4 -34 35 -4 34
22 -1 23 3 26 82 2 64 6 82 17 82 12 0 15 -17 15 -84z m285 -16 c0 -78 -3 -95
-15 -95 -12 0 -16 19 -18 98 -2 90 -1 98 15 95 16 -3 18 -15 18 -98z m435 15
l0 -85 45 0 c34 0 45 -4 45 -15 0 -13 -11 -15 -62 -13 l-63 3 -3 98 c-3 92 -2
97 18 97 19 0 20 -6 20 -85z m1097 -5 c31 -81 36 -119 12 -105 -5 4 -15 18
-20 32 -8 23 -13 24 -47 18 -20 -4 -38 -10 -40 -14 -9 -25 -32 -45 -40 -36 -6
6 3 43 26 103 30 79 38 93 55 90 16 -2 29 -24 54 -88z m399 -3 c40 -103 38
-97 19 -97 -9 0 -20 12 -25 26 -9 22 -15 25 -47 22 -28 -2 -41 -9 -50 -28 -12
-25 -33 -34 -33 -15 -1 6 14 50 31 98 42 117 58 116 105 -6z m297 66 c2 -16 4
-59 3 -98 -1 -55 -4 -70 -16 -70 -12 0 -16 19 -18 98 -2 80 0 97 12 97 8 0 16
-12 19 -27z m-1160 -380 c-34 -2 -93 -2 -130 0 -37 2 -9 3 62 3 72 0 102 -1
68 -3z m190 0 c-13 -2 -35 -2 -50 0 -16 2 -5 4 22 4 28 0 40 -2 28 -4z m3005
-78 c14 -38 93 -112 129 -121 32 -8 29 -18 -10 -32 -43 -16 -103 -76 -119
-119 -14 -40 -24 -42 -32 -8 -10 39 -76 106 -126 128 l-45 20 34 9 c39 11 127
95 137 132 8 35 18 33 32 -9z"/>
<path d="M3690 7071 c-19 -10 -40 -17 -47 -14 -7 3 -16 -2 -19 -11 -4 -10 20
-49 68 -109 40 -52 79 -103 86 -113 12 -18 12 -17 8 6 -3 14 -11 58 -18 98
l-12 72 -47 0 c-31 0 -49 5 -52 14 -3 8 0 17 8 20 8 3 16 0 18 -7 3 -8 10 -6
23 6 19 18 19 18 -1 12 -20 -7 -20 -7 0 9 18 15 20 15 27 -5 11 -30 21 -18 12
15 -7 31 -9 31 -54 7z"/>
<path d="M3761 7088 c-1 -10 91 -240 94 -236 7 9 15 158 8 157 -41 -7 -60 3
-80 44 -12 23 -22 39 -22 35z"/>
<path d="M3910 6990 c0 -6 4 -9 9 -5 6 3 14 -3 20 -12 6 -11 11 -13 11 -5 0 7
5 10 11 7 7 -5 4 -14 -8 -27 -18 -20 -18 -20 -24 4 -6 19 -7 16 -7 -12 0 -19
3 -45 6 -57 6 -18 12 -10 33 43 l27 64 -23 0 c-13 0 -30 3 -39 6 -9 3 -16 1
-16 -6z"/>
<path d="M4024 6963 c-3 -16 -12 -53 -19 -83 -7 -30 -12 -56 -11 -57 2 -3 74
89 95 121 12 19 12 20 -2 3 -10 -12 -17 -14 -22 -7 -3 5 -10 8 -15 5 -4 -3
-11 2 -14 11 -5 12 -2 15 10 10 14 -5 15 -4 4 9 -17 20 -19 19 -26 -12z"/>
<path d="M3805 6800 c-3 -5 -1 -10 4 -10 6 0 11 5 11 10 0 6 -2 10 -4 10 -3 0
-8 -4 -11 -10z"/>
<path d="M4905 6780 c3 -5 8 -10 11 -10 2 0 4 5 4 10 0 6 -5 10 -11 10 -5 0
-7 -4 -4 -10z"/>
<path d="M3870 6400 c0 -5 5 -10 10 -10 6 0 10 5 10 10 0 6 -4 10 -10 10 -5 0
-10 -4 -10 -10z"/>
<path d="M3844 6379 c-3 -5 0 -9 6 -9 8 0 8 -6 0 -21 -7 -11 -9 -23 -6 -27 3
-3 6 0 6 8 0 10 3 10 16 -1 14 -11 18 -10 30 6 9 13 11 22 4 31 -14 16 -49 24
-56 13z"/>
<path d="M3868 6303 c7 -3 16 -2 19 1 4 3 -2 6 -13 5 -11 0 -14 -3 -6 -6z"/>
<path d="M3911 6249 c-14 -15 -26 -19 -43 -14 -22 7 -22 6 -5 -11 17 -18 18
-17 49 14 18 17 30 32 26 32 -4 0 -16 -9 -27 -21z"/>
<path d="M4765 5820 c-3 -5 4 -19 15 -30 17 -17 24 -19 36 -9 8 6 14 20 14 30
0 14 -7 19 -29 19 -17 0 -32 -4 -36 -10z"/>
<path d="M3875 5910 c-3 -5 -1 -10 6 -10 7 0 22 -8 33 -17 15 -13 14 -10 -3
10 -28 31 -28 31 -36 17z"/>
<path d="M3866 5883 c-4 -5 -12 -8 -17 -8 -5 0 -9 -4 -8 -8 1 -5 -11 -21 -25
-36 -25 -26 -28 -61 -6 -61 5 0 22 -14 39 -31 24 -24 35 -28 45 -20 7 6 17 7
21 3 5 -4 5 -2 2 4 -7 11 16 38 55 67 13 9 15 16 7 27 -9 12 -10 12 -5 -4 6
-16 4 -17 -9 -6 -9 7 -14 19 -11 26 3 7 0 16 -6 20 -7 4 -8 3 -4 -4 12 -20 -3
-13 -32 13 -29 27 -35 29 -46 18z m42 -39 c33 -23 29 -62 -10 -92 -15 -12 -21
-9 -48 18 l-32 32 28 29 c32 34 33 34 62 13z"/>
<path d="M3864 5835 c-12 -9 -14 -14 -6 -15 8 0 12 -9 10 -22 -2 -17 2 -23 16
-23 11 0 21 6 24 13 2 8 -2 10 -15 5 -10 -3 -15 -3 -11 2 4 4 2 15 -5 23 -10
13 -9 15 11 10 19 -5 21 -4 11 8 -14 17 -11 17 -35 -1z"/>
<path d="M3832 5382 c-29 -26 -52 -51 -52 -55 0 -9 91 -97 100 -97 3 0 28 23
55 50 l50 50 -50 50 -50 49 -53 -47z m85 -4 c36 -39 38 -65 7 -93 -34 -32 -57
-32 -83 1 -27 35 -26 59 4 89 30 31 46 31 72 3z"/>
<path d="M3870 5370 c-20 -12 -10 -19 14 -10 11 3 15 9 10 13 -6 3 -16 2 -24
-3z"/>
<path d="M3860 5303 c0 -19 18 -25 37 -13 17 11 16 11 -1 5 -11 -3 -23 0 -28
7 -5 9 -8 10 -8 1z"/>
<path d="M3853 5075 c0 -8 4 -12 9 -9 4 3 8 9 8 15 0 5 -4 9 -8 9 -5 0 -9 -7
-9 -15z"/>
<path d="M4030 4987 c0 -15 -6 -27 -12 -27 -9 0 -8 -4 2 -10 23 -15 27 -12 25
20 -2 38 -15 52 -15 17z"/>
<path d="M4156 4995 c-3 -9 0 -15 9 -15 8 0 15 7 15 15 0 8 -4 15 -9 15 -5 0
-11 -7 -15 -15z"/>
<path d="M2990 4960 c0 -11 4 -20 9 -20 5 0 7 9 4 20 -3 11 -7 20 -9 20 -2 0
-4 -9 -4 -20z"/>
<path d="M3540 4963 c0 -13 5 -23 10 -23 13 0 13 11 0 30 -8 12 -10 11 -10 -7z"/>
<path d="M3580 4960 c11 -11 25 -20 30 -20 6 0 10 -5 10 -12 0 -6 2 -9 5 -6 9
8 -6 38 -16 32 -5 -3 -9 2 -9 10 0 9 -9 16 -20 16 l-20 0 20 -20z"/>
<path d="M3718 4943 c7 -3 16 -2 19 1 4 3 -2 6 -13 5 -11 0 -14 -3 -6 -6z"/>
<path d="M4175 4930 c-3 -5 -1 -10 4 -10 6 0 11 5 11 10 0 6 -2 10 -4 10 -3 0
-8 -4 -11 -10z"/>
<path d="M3610 4900 c8 -5 20 -10 25 -10 6 0 3 5 -5 10 -8 5 -19 10 -25 10 -5
0 -3 -5 5 -10z"/>
<path d="M3553 4893 c-17 -6 -17 -23 0 -23 8 0 14 7 14 15 0 8 -1 15 -1 14 -1
0 -7 -3 -13 -6z"/>
<path d="M4315 4859 c-9 -14 -2 -20 14 -10 8 6 9 11 3 15 -6 3 -14 1 -17 -5z"/>
<path d="M4140 5650 c0 -5 7 -7 15 -4 8 4 15 8 15 10 0 2 -7 4 -15 4 -8 0 -15
-4 -15 -10z"/>
<path d="M3290 5591 c0 -5 5 -13 11 -16 5 -4 9 -19 7 -33 -3 -23 1 -27 25 -30
28 -3 34 9 21 43 -7 18 -64 50 -64 36z"/>
<path d="M3226 5568 c-22 -31 -20 -52 10 -87 42 -50 102 -38 69 13 -19 29 -50
45 -41 21 3 -9 2 -14 -3 -11 -12 8 -11 58 1 74 8 8 6 12 -5 12 -9 0 -23 -10
-31 -22z"/>
<path d="M3520 5411 c0 -26 27 -28 47 -3 14 16 14 16 9 -1 -4 -12 -2 -17 6
-15 16 6 17 30 2 35 -7 2 -19 -3 -27 -12 -17 -16 -32 -20 -22 -6 3 5 1 12 -5
16 -5 3 -10 -3 -10 -14z"/>
<path d="M4170 5410 c0 -5 5 -10 10 -10 6 0 10 5 10 10 0 6 -4 10 -10 10 -5 0
-10 -4 -10 -10z"/>
<path d="M4230 5410 c0 -5 5 -10 11 -10 5 0 7 5 4 10 -3 6 -8 10 -11 10 -2 0
-4 -4 -4 -10z"/>
<path d="M4198 5378 c9 -9 15 -9 24 0 9 9 7 12 -12 12 -19 0 -21 -3 -12 -12z"/>
<path d="M2982 5196 c1 -21 6 -35 12 -33 17 6 18 43 2 56 -13 11 -15 8 -14
-23z"/>
<path d="M2951 5207 c-8 -10 -7 -19 4 -33 14 -18 14 -17 15 14 0 36 -2 38 -19
19z"/>
<path d="M2633 5148 c-28 -13 -46 -58 -37 -92 14 -57 86 -74 129 -31 40 40 30
96 -22 123 -26 14 -41 14 -70 0z m57 -28 c0 -5 -6 -7 -14 -4 -20 8 -28 -34 -8
-46 14 -8 13 -9 -7 -10 -18 0 -22 -3 -14 -11 13 -13 53 -2 53 15 0 6 -5 17
-12 24 -9 9 -9 12 -1 12 18 0 26 -39 12 -56 -7 -8 -24 -14 -38 -12 -22 3 -26
7 -23 33 4 36 29 78 42 70 6 -4 10 -10 10 -15z"/>
<path d="M2596 4173 c-9 -22 10 -41 25 -26 13 13 5 43 -10 43 -5 0 -12 -8 -15
-17z"/>
<path d="M3786 3523 c-6 -14 -5 -15 5 -6 7 7 10 15 7 18 -3 3 -9 -2 -12 -12z"/>
<path d="M3132 3499 c-7 -11 -11 -23 -9 -25 7 -7 29 24 25 36 -2 6 -9 1 -16
-11z"/>
<path d="M1473 1489 c-29 -10 -43 -39 -43 -86 0 -54 23 -83 65 -83 44 0 65 29
65 91 0 62 -38 96 -87 78z"/>
<path d="M4250 1450 c0 -39 1 -40 35 -40 40 0 57 23 44 58 -6 17 -16 22 -44
22 -34 0 -35 -1 -35 -40z"/>
<path d="M4738 1464 c-3 -5 -10 -26 -16 -46 -10 -38 -10 -38 19 -38 17 0 29 5
28 13 -1 25 -26 81 -31 71z"/>
<path d="M5385 1470 c-23 -26 -24 -89 -2 -123 23 -35 78 -38 101 -5 23 32 21
110 -2 131 -25 23 -75 21 -97 -3z"/>
<path d="M5652 1453 c3 -33 6 -38 31 -41 37 -4 59 15 55 47 -3 23 -8 26 -46
29 l-43 3 3 -38z"/>
<path d="M3322 1028 c-16 -46 -16 -48 13 -48 28 0 30 11 12 54 l-12 28 -13
-34z"/>
<path d="M3710 1050 c0 -26 3 -30 29 -30 16 0 34 7 41 15 18 21 -4 45 -41 45
-26 0 -29 -4 -29 -30z"/>
<path d="M3713 960 c2 -26 6 -30 33 -30 36 0 57 20 48 44 -4 11 -18 16 -45 16
-36 0 -38 -1 -36 -30z"/>
<path d="M2470 1005 l0 -75 29 0 c35 0 71 40 71 77 0 31 -42 73 -75 73 -25 0
-25 -1 -25 -75z"/>
<path d="M4521 1037 c-17 -44 -14 -57 14 -57 28 0 29 2 10 50 l-13 35 -11 -28z"/>
<path d="M4918 1030 c-18 -42 -15 -50 18 -50 27 0 27 2 10 50 l-13 35 -15 -35z"/>
</g>
</svg>
