<?xml version="1.0" standalone="no"?>
<!DOCTYPE svg PUBLIC "-//W3C//DTD SVG 20010904//EN"
 "http://www.w3.org/TR/2001/REC-SVG-20010904/DTD/svg10.dtd">
<svg version="1.0" xmlns="http://www.w3.org/2000/svg"
 width="505.000000pt" height="412.000000pt" viewBox="0 0 505.000000 412.000000"
 preserveAspectRatio="xMidYMid meet">
<metadata>
Created by potrace 1.16, written by Peter Selinger 2001-2019
</metadata>
<g transform="translate(0.000000,412.000000) scale(0.100000,-0.100000)"
fill="#000000" stroke="none">
<path d="M0 2060 l0 -2060 2525 0 2525 0 0 2060 0 2060 -2525 0 -2525 0 0
-2060z m4093 1629 c33 -9 37 -13 31 -32 -10 -34 -22 -43 -42 -31 -25 16 -20
28 14 35 53 11 -1 22 -68 15 -67 -8 -91 -17 -125 -49 -25 -22 -29 -17 -13 14
26 48 122 71 203 48z m66 -88 c9 -6 6 -8 -13 -8 -14 0 -23 3 -20 8 7 11 15 11
33 0z m-1338 -16 c-1 -15 -24 -12 -29 3 -3 9 2 13 12 10 10 -1 17 -7 17 -13z
m1344 -19 c26 -18 25 -88 0 -116 -18 -20 -18 -20 -43 2 -19 19 -23 30 -19 61
5 36 22 67 36 67 4 0 16 -6 26 -14z m-1845 -15 c0 -5 -39 -12 -87 -16 -127
-10 -267 -40 -420 -90 -236 -78 -437 -201 -613 -375 -53 -52 -67 -68 -31 -35
36 33 68 63 71 66 3 4 57 46 120 93 100 75 351 216 385 216 5 0 -40 -27 -100
-61 -61 -33 -117 -68 -125 -76 -8 -9 11 -2 42 15 116 64 306 134 453 166 77
18 288 46 294 41 2 -2 1 -11 -3 -20 -4 -11 -11 -13 -22 -7 -20 11 -195 -10
-301 -37 -363 -93 -685 -309 -916 -614 -48 -63 -141 -223 -177 -302 -64 -143
-122 -366 -123 -477 0 -43 -4 -58 -14 -58 -11 0 -13 8 -9 28 3 15 10 59 16 97
20 146 69 326 124 457 22 51 20 59 -5 20 -36 -56 -33 -27 5 55 20 43 29 69 20
58 -25 -32 -99 -193 -132 -286 -33 -95 -67 -241 -78 -337 -4 -35 -10 -60 -14
-55 -5 4 -2 51 5 103 87 642 542 1170 1176 1365 168 51 459 93 459 66z m1590
-66 c0 -9 -9 -28 -20 -42 l-20 -26 0 25 c0 13 -4 28 -9 34 -4 5 -6 26 -4 46
l5 37 24 -28 c13 -16 24 -37 24 -46z m140 55 c12 -8 11 -10 -7 -10 -13 0 -23
5 -23 10 0 13 11 13 30 0z m-42 -32 c4 -20 -30 -40 -52 -32 -19 7 -21 40 -3
48 23 9 52 1 55 -16z m157 -98 c-3 -5 -11 -10 -16 -10 -6 0 -7 5 -4 10 3 6 11
10 16 10 6 0 7 -4 4 -10z m-1029 -45 c61 -25 185 -106 274 -178 95 -77 300
-275 300 -290 0 -5 13 -26 29 -46 15 -20 34 -47 41 -61 12 -25 12 -25 -7 -5
-11 11 -51 56 -88 100 -94 111 -221 241 -275 280 -86 63 -146 93 -174 88 -17
-4 -26 -1 -26 7 0 8 -9 10 -26 6 -19 -5 -24 -3 -22 8 2 8 -14 35 -35 60 -42
51 -42 52 9 31z m-911 -14 c3 -5 1 -12 -5 -16 -5 -3 -10 1 -10 9 0 18 6 21 15
7z m1941 -91 c20 0 44 -17 44 -32 0 -4 -7 -8 -15 -8 -8 0 -15 4 -15 9 0 5 -12
12 -26 15 -19 5 -35 0 -60 -19 -19 -14 -34 -21 -34 -16 0 6 14 21 31 33 26 20
30 27 25 58 l-5 35 17 -37 c12 -26 24 -38 38 -38z m-682 -11 c-3 -5 -10 -7
-15 -3 -5 3 -7 10 -3 15 3 5 10 7 15 3 5 -3 7 -10 3 -15z m-1764 -27 c0 -13
-12 -22 -22 -16 -10 6 -1 24 13 24 5 0 9 -4 9 -8z m2165 -22 c-3 -5 -13 -10
-21 -10 -8 0 -12 5 -9 10 3 6 13 10 21 10 8 0 12 -4 9 -10z m351 -15 c-11 -8
-22 -12 -25 -9 -6 6 19 24 34 24 6 -1 1 -7 -9 -15z m-1683 -57 c56 -28 120
-41 113 -22 -8 20 7 17 37 -6 22 -17 32 -19 67 -11 27 6 53 5 76 -2 31 -9 38
-8 49 6 16 22 22 21 28 -2 3 -14 18 -21 57 -26 29 -4 60 -15 70 -25 24 -24 34
-3 11 25 -16 20 -16 20 7 1 12 -11 22 -27 22 -37 0 -10 29 -47 65 -82 36 -36
65 -68 65 -71 0 -3 -16 -6 -36 -6 -21 0 -33 -4 -29 -10 3 -5 -3 -10 -15 -10
-13 0 -19 -4 -14 -11 4 -8 -3 -9 -25 -4 -28 6 -33 4 -38 -14 -8 -31 -43 -28
-43 4 0 18 -4 23 -15 19 -11 -5 -15 1 -15 19 0 21 -5 25 -37 26 -21 1 -54 3
-73 4 -34 2 -35 1 -32 -30 2 -24 -1 -33 -11 -33 -17 0 -27 52 -15 74 13 23 -5
80 -26 84 -15 3 -16 1 -6 -18 6 -12 10 -23 8 -25 -2 -3 -30 3 -62 11 -65 17
-112 11 -83 -11 9 -7 17 -17 17 -24 0 -17 -38 -13 -42 4 -2 11 -14 5 -45 -24
-38 -34 -43 -44 -43 -82 0 -32 -3 -40 -10 -29 -20 30 -9 59 46 120 30 34 53
67 50 73 -4 7 -9 20 -12 30 -8 21 -20 22 -28 2 -3 -10 1 -15 12 -15 24 -1 -33
-50 -57 -50 -20 0 -51 40 -51 65 0 8 -14 24 -32 35 -36 22 -55 16 -22 -7 32
-21 20 -51 -22 -59 -21 -4 -40 -2 -49 6 -13 11 -15 8 -15 -14 0 -19 -5 -26
-19 -26 -14 0 -20 10 -24 45 -4 29 -2 53 5 65 16 26 4 36 -27 22 -14 -7 -38
-12 -54 -12 -36 0 -43 -8 -28 -31 15 -23 -4 -45 -51 -58 -43 -13 -48 1 -12 37
52 52 36 72 -17 22 -18 -17 -37 -30 -42 -30 -7 0 -9 -21 -5 -58 5 -46 3 -60
-10 -71 -27 -22 -18 -35 11 -16 18 12 28 14 31 7 2 -7 12 -12 22 -12 11 0 24
-9 30 -19 11 -21 3 -54 -10 -46 -5 3 -18 -7 -29 -21 -18 -23 -25 -26 -45 -16
-18 8 -27 7 -39 -5 -11 -11 -20 -12 -33 -5 -13 7 -22 6 -32 -4 -18 -19 -82
-19 -82 0 0 19 38 46 63 46 16 0 17 3 7 15 -10 13 -10 19 4 33 20 23 20 32 0
32 -9 0 -18 9 -21 20 -3 10 -14 22 -24 25 -11 4 -24 15 -30 26 -13 25 -2 79
16 79 7 0 23 15 34 34 24 39 39 45 141 56 41 4 94 14 117 21 37 11 49 11 92
-5 28 -10 56 -14 62 -10 14 8 113 31 142 33 10 1 37 -9 60 -21z m-1533 -8 c0
-11 -7 -20 -15 -20 -8 0 -15 9 -15 20 0 11 7 20 15 20 8 0 15 -9 15 -20z m836
-31 c10 -17 -13 -36 -27 -22 -12 12 -4 33 11 33 5 0 12 -5 16 -11z m14 -59 c0
-5 -9 -12 -21 -15 -11 -4 -25 -18 -31 -31 -9 -19 -18 -24 -42 -22 -17 1 -37 6
-44 11 -19 15 -62 -8 -62 -33 0 -11 -7 -32 -16 -45 -15 -23 -14 -26 5 -53 20
-28 20 -31 4 -73 -25 -66 -49 -88 -105 -95 -31 -4 -48 -11 -48 -20 0 -8 5 -14
10 -14 6 0 10 -4 10 -10 0 -5 -9 -10 -19 -10 -22 0 -54 -27 -46 -40 3 -4 -4
-6 -15 -3 -36 9 -26 50 18 70 30 15 38 24 40 51 3 31 2 32 -37 32 -32 0 -44
-5 -58 -26 -51 -72 -65 -84 -98 -84 -34 0 -34 0 -23 33 6 17 19 37 27 44 22
17 6 16 -29 -2 -16 -8 -28 -23 -28 -32 1 -23 -39 -90 -58 -97 -10 -4 -13 -13
-9 -27 6 -18 4 -20 -14 -14 -16 5 -21 2 -21 -10 0 -10 -17 -33 -37 -51 -43
-39 -48 -41 -33 -14 6 11 10 26 8 34 -4 19 52 106 68 106 10 0 12 9 7 30 -3
17 -1 30 4 30 16 0 83 70 93 96 10 26 66 64 120 83 20 7 44 25 55 43 11 17 31
38 45 47 l25 16 -28 -36 c-30 -40 -37 -64 -8 -28 11 13 23 21 27 16 4 -4 -7
-25 -24 -46 -18 -22 -32 -45 -32 -50 0 -6 -4 -11 -10 -11 -5 0 -10 -7 -10 -16
0 -27 24 -9 53 42 16 27 37 53 46 58 9 5 43 38 76 72 42 43 73 65 100 73 56
15 64 14 58 -10 -5 -19 -4 -20 16 -10 11 7 21 18 21 25 0 7 10 18 23 23 23 11
47 7 47 -7z m410 -53 c0 -50 -5 -80 -16 -95 -8 -12 -14 -30 -13 -40 1 -9 -3
-30 -10 -47 -7 -16 -11 -49 -9 -72 2 -24 -1 -43 -6 -43 -5 0 -7 46 -4 103 4
77 10 112 26 143 15 30 19 51 15 82 -4 28 -2 42 6 42 7 0 11 -25 11 -73z m216
-51 c8 -34 -5 -55 -19 -30 -16 27 -16 54 -1 54 8 0 16 -11 20 -24z m-686 6 c0
-5 -9 -17 -19 -26 -16 -15 -18 -22 -9 -42 9 -20 17 -24 37 -20 14 3 48 8 74
12 48 6 48 6 35 -15 -10 -17 -23 -21 -66 -21 -39 0 -53 -4 -50 -12 3 -7 19
-14 37 -16 26 -3 32 -7 29 -24 -2 -15 -17 -25 -53 -37 -27 -9 -55 -19 -62 -24
-6 -4 -17 -5 -25 -2 -7 3 -20 -7 -29 -24 -9 -16 -29 -31 -45 -35 -15 -4 -33
-15 -40 -24 -10 -13 -15 -14 -25 -5 -10 10 -7 14 12 22 58 22 85 73 106 199 5
32 4 33 -17 22 -37 -20 -35 -1 6 59 4 4 64 19 87 20 9 1 17 -3 17 -7z m1410
-12 c0 -5 -4 -10 -10 -10 -5 0 -10 5 -10 10 0 6 5 10 10 10 6 0 10 -4 10 -10z
m-1362 -27 c-2 -10 -13 -19 -26 -21 -17 -3 -22 2 -22 17 0 16 6 21 26 21 19 0
25 -5 22 -17z m552 -3 c0 -5 -4 -10 -10 -10 -5 0 -10 5 -10 10 0 6 5 10 10 10
6 0 10 -4 10 -10z m-34 -42 l19 -21 -27 18 c-29 18 -34 25 -20 25 5 0 17 -10
28 -22z m-1142 -30 c-3 -4 -12 -8 -20 -8 -17 0 -19 27 -1 33 14 5 28 -13 21
-25z m1445 0 c0 -7 -4 -22 -9 -33 -7 -17 -9 -15 -9 13 -1 17 4 32 9 32 6 0 10
-6 9 -12z m-252 -34 c1 -18 0 -22 -4 -9 -3 11 -10 26 -17 34 -9 11 -8 13 4 9
8 -2 16 -18 17 -34z m778 6 c-5 -8 -11 -8 -17 -2 -6 6 -7 16 -3 22 5 8 11 8
17 2 6 -6 7 -16 3 -22z m515 -8 c0 -4 16 -32 36 -62 58 -90 119 -218 157 -330
39 -118 52 -174 37 -165 -6 3 -10 14 -10 23 0 22 -34 130 -67 212 -35 88 -68
153 -117 230 -48 74 -60 100 -46 100 6 0 10 -4 10 -8z m-142 -20 c2 -7 -3 -12
-12 -12 -9 0 -16 7 -16 16 0 17 22 14 28 -4z m-161 -37 c9 -25 -2 -27 -22 -5
-17 18 -17 20 -1 20 9 0 19 -7 23 -15z m-1317 -12 c0 -5 -4 -15 -10 -23 -11
-18 -25 -7 -17 15 6 15 27 21 27 8z m-128 -35 c-7 -7 -12 -8 -12 -2 0 14 12
26 19 19 2 -3 -1 -11 -7 -17z m1500 -3 c3 -14 2 -25 -2 -25 -14 0 -32 29 -25
40 11 17 22 11 27 -15z m-55 -32 c-9 -9 -19 -14 -23 -11 -10 10 6 28 24 28 15
0 15 -1 -1 -17z m-1867 -63 c0 -5 -7 -10 -15 -10 -8 0 -15 5 -15 10 0 6 7 10
15 10 8 0 15 -4 15 -10z m-245 -20 c11 -17 -5 -32 -21 -19 -7 6 -11 15 -8 20
7 12 21 11 29 -1z m146 -15 c-1 -15 -24 -12 -29 3 -3 9 2 13 12 10 10 -1 17
-7 17 -13z m199 -30 c0 -8 -4 -15 -10 -15 -5 0 -10 7 -10 15 0 8 5 15 10 15 6
0 10 -7 10 -15z m600 -8 c0 -7 -6 -21 -13 -31 -12 -16 -14 -16 -26 -2 -11 13
-11 19 -1 31 15 18 40 20 40 2z m1330 -47 c-12 -22 -40 -27 -40 -7 0 19 10 27
32 27 16 0 17 -3 8 -20z m-2600 -20 c0 -5 -2 -10 -4 -10 -3 0 -8 5 -11 10 -3
6 -1 10 4 10 6 0 11 -4 11 -10z m76 -97 c-10 -10 -19 5 -10 18 6 11 8 11 12 0
2 -7 1 -15 -2 -18z m2464 7 c0 -5 -5 -10 -11 -10 -5 0 -7 5 -4 10 3 6 8 10 11
10 2 0 4 -4 4 -10z m-2505 -22 c-19 -11 -30 -5 -21 11 4 6 14 7 22 4 15 -5 14
-7 -1 -15z m2605 2 c0 -5 -4 -10 -10 -10 -5 0 -10 5 -10 10 0 6 5 10 10 10 6
0 10 -4 10 -10z m-985 -10 c3 -5 -1 -10 -10 -10 -9 0 -13 5 -10 10 3 6 8 10
10 10 2 0 7 -4 10 -10z m260 -41 l0 -44 -47 -1 c-44 -1 -48 1 -48 23 0 14 -4
21 -10 18 -5 -3 -10 -15 -10 -26 0 -16 -7 -19 -44 -19 -52 0 -60 8 -46 45 14
37 52 31 61 -10 l7 -30 1 31 c1 27 5 31 31 32 17 0 30 -3 30 -8 0 -4 11 -3 25
3 14 7 25 18 25 25 0 8 6 12 13 10 7 -3 12 -22 12 -49z m75 37 c0 -22 37 -27
43 -5 7 25 27 24 27 -1 0 -17 5 -19 25 -14 14 3 32 1 39 -5 11 -9 19 -9 35 1
17 10 23 10 33 -1 11 -12 10 -13 -4 -8 -14 5 -18 1 -18 -18 0 -14 3 -25 6 -25
15 0 34 32 34 59 0 34 19 42 27 12 3 -11 11 -17 18 -15 10 4 12 -1 8 -18 l-5
-23 20 24 c13 17 26 22 41 18 16 -4 21 -1 21 14 0 23 18 25 26 4 4 -8 13 -15
20 -15 8 0 19 -10 24 -22 l9 -23 0 22 c1 20 6 22 46 21 44 -2 45 -3 45 -36 l0
-33 -65 3 c-62 2 -65 3 -66 28 l-2 25 -4 -26 c-4 -24 -9 -27 -41 -27 -20 0
-43 5 -49 10 -8 6 -13 7 -13 1 0 -5 -13 -10 -30 -10 -16 0 -30 4 -30 9 0 4 -9
3 -20 -4 -16 -10 -24 -10 -40 -1 -12 8 -21 9 -25 3 -7 -11 -80 -8 -91 3 -4 4
-13 2 -20 -4 -7 -6 -22 -8 -34 -4 -30 9 -29 95 2 95 4 0 8 -6 8 -14z m520 4
c0 -5 -4 -10 -10 -10 -5 0 -10 5 -10 10 0 6 5 10 10 10 6 0 10 -4 10 -10z
m-1725 -45 c0 -25 -5 -32 -32 -40 -25 -7 -33 -15 -33 -32 0 -16 -6 -23 -20
-23 -18 0 -20 7 -20 66 l0 65 53 -3 c50 -3 52 -4 52 -33z m93 28 c-36 -5 -40
-42 -5 -44 l22 -2 -22 -4 c-18 -3 -23 -11 -23 -34 0 -24 4 -29 25 -29 19 0 33
11 55 47 17 26 30 50 30 54 0 4 -12 10 -27 12 -16 2 -2 5 30 6 31 0 57 -1 57
-4 0 -3 -13 -27 -30 -53 -16 -27 -30 -52 -30 -55 0 -3 12 -8 28 -10 15 -2 -21
-5 -80 -6 l-108 -1 0 65 0 65 53 -1 c28 -1 40 -4 25 -6z m192 -13 c0 -26 8
-25 30 3 21 26 37 18 19 -10 -9 -16 -7 -27 10 -61 l21 -42 -24 0 c-16 0 -27 7
-31 20 -3 11 -11 20 -16 20 -5 0 -9 -9 -9 -20 0 -13 -7 -20 -20 -20 -18 0 -20
7 -20 65 0 58 2 65 20 65 13 0 20 -7 20 -20z m130 -29 c0 -49 18 -79 40 -66 5
3 10 31 10 61 l0 54 34 0 c29 0 34 -4 43 -32 l11 -33 7 33 c9 40 45 46 45 8 0
-36 17 -40 24 -6 3 17 11 30 17 30 6 0 9 -6 6 -12 -2 -7 -10 -37 -17 -65 -16
-60 -43 -73 -55 -25 l-7 27 -10 -28 c-16 -46 -40 -30 -58 38 l-15 60 -3 -50
c-4 -62 -15 -75 -62 -75 -44 0 -50 10 -50 81 0 42 3 49 20 49 17 0 20 -7 20
-49z m290 -16 c0 -58 -2 -65 -20 -65 -18 0 -20 7 -20 65 0 58 2 65 20 65 18 0
20 -7 20 -65z m1209 24 l21 -40 -20 -26 c-24 -31 -27 -58 -5 -49 8 3 15 1 15
-4 0 -6 -9 -10 -19 -10 -13 0 -29 -18 -49 -54 -36 -63 -114 -132 -197 -174
-135 -68 -190 -72 -945 -72 -536 0 -649 -3 -670 -14 -14 -8 -40 -22 -58 -32
-18 -9 -40 -26 -48 -38 -51 -73 -67 -107 -80 -165 l-14 -66 6 65 c2 36 5 75 5
87 1 26 137 173 160 173 8 0 32 9 54 20 43 22 65 25 65 10 0 -14 1242 -13
1334 1 159 25 279 95 353 206 42 63 53 100 40 130 -8 18 -6 27 8 43 9 10 15
26 12 35 -13 32 12 13 32 -26z m-1078 -4 l7 -30 1 33 c2 47 31 44 31 -3 l0
-35 -50 0 c-43 0 -50 3 -50 20 0 11 7 20 15 20 8 0 15 4 15 10 0 5 -7 6 -17 3
-11 -4 -14 -3 -9 6 15 23 50 8 57 -24z m967 -9 c4 -46 -19 -47 -29 0 l-7 29
-1 -27 c-2 -44 -31 -36 -31 8 0 34 1 35 33 32 29 -3 32 -6 35 -42z m274 -28
c-7 -7 -12 -8 -12 -2 0 14 12 26 19 19 2 -3 -1 -11 -7 -17z m136 -41 c2 -10
-3 -17 -12 -17 -10 0 -16 9 -16 21 0 24 23 21 28 -4z m-1246 -82 c3 -38 0 -45
-14 -45 -15 0 -18 9 -18 45 0 32 4 45 14 45 9 0 15 -15 18 -45z m83 15 l14
-25 1 28 c0 15 5 27 10 27 6 0 10 -20 10 -45 0 -51 -18 -60 -44 -23 l-16 22
-1 -24 c0 -14 -3 -19 -6 -12 -4 10 -8 10 -18 2 -11 -10 -13 -5 -10 27 1 21 3
41 4 44 3 17 44 1 56 -21z m113 -2 l9 -33 7 33 c7 30 10 32 49 31 23 -1 34 -3
24 -6 -10 -3 -17 -12 -16 -21 4 -40 -2 -62 -16 -62 -11 0 -15 12 -16 43 l-1
42 -12 -40 c-16 -52 -42 -58 -55 -13 l-9 33 -1 -32 c-1 -22 -6 -33 -16 -33
-11 0 -15 12 -15 45 0 43 1 45 30 45 25 0 31 -5 38 -32z m177 22 c4 -6 13 -5
24 2 21 13 51 5 51 -14 0 -9 -3 -9 -12 0 -13 13 -28 16 -28 5 0 -5 11 -13 25
-19 21 -10 24 -9 27 9 2 11 9 22 16 25 8 2 12 -10 12 -42 0 -44 -1 -46 -27
-44 -15 2 -37 13 -49 25 -26 26 -46 30 -38 8 4 -8 10 -13 14 -10 4 3 10 -2 14
-10 4 -11 -2 -15 -24 -15 -24 0 -30 5 -31 23 l-2 22 -4 -22 c-2 -13 -11 -23
-19 -23 -10 0 -14 13 -14 45 0 43 1 45 29 45 17 0 33 -4 36 -10z m229 -7 c6
-14 8 -14 22 3 15 19 15 19 9 -1 -3 -11 -9 -32 -12 -47 -8 -40 -28 -34 -42 12
-6 22 -16 40 -21 40 -6 0 -10 -18 -10 -40 0 -29 -4 -40 -15 -40 -11 0 -15 11
-15 39 0 22 -5 42 -12 44 -7 3 10 6 38 6 40 1 53 -3 58 -16z m-847 -79 c-9 -9
-28 6 -21 18 4 6 10 6 17 -1 6 -6 8 -13 4 -17z m-1320 -20 c-3 -3 -12 -4 -19
-1 -8 3 -5 6 6 6 11 1 17 -2 13 -5z m-447 -127 c19 -4 51 -11 70 -15 l35 -8
-55 -11 c-69 -14 -98 -14 -105 -2 -4 5 -36 10 -73 11 l-67 2 70 5 70 6 4 35
c3 32 4 33 10 10 5 -17 17 -27 41 -33z m2930 -57 c0 -5 -4 -10 -10 -10 -5 0
-10 5 -10 10 0 6 5 10 10 10 6 0 10 -4 10 -10z m230 -6 c0 -8 -5 -12 -10 -9
-6 4 -8 11 -5 16 9 14 15 11 15 -7z m-2864 -19 c-21 -16 -32 -13 -21 4 3 6 14
11 23 11 15 -1 15 -2 -2 -15z m-414 -60 c0 -5 -5 -11 -11 -13 -6 -2 -11 4 -11
13 0 9 5 15 11 13 6 -2 11 -8 11 -13z m698 -5 c0 -5 -4 -10 -10 -10 -5 0 -10
5 -10 10 0 6 5 10 10 10 6 0 10 -4 10 -10z m2810 -20 c45 -7 45 -7 8 -9 -20 0
-40 -5 -43 -11 -4 -6 -33 -7 -73 -4 -37 4 -85 7 -106 8 -22 1 -41 7 -43 13 -3
9 9 11 44 7 26 -3 59 -1 73 5 14 6 41 8 60 4 19 -3 55 -9 80 -13z m890 -5 c0
-8 -7 -15 -15 -15 -16 0 -20 12 -8 23 11 12 23 8 23 -8z m-3875 -5 c-3 -5 -12
-10 -20 -10 -8 0 -17 5 -20 10 -4 6 5 10 20 10 15 0 24 -4 20 -10z m2395 -20
c0 -5 -7 -10 -15 -10 -8 0 -15 5 -15 10 0 6 7 10 15 10 8 0 15 -4 15 -10z
m198 -13 c2 -12 -1 -15 -12 -11 -19 7 -22 38 -3 32 6 -3 13 -12 15 -21z m278
-134 c-9 -48 -33 -142 -52 -208 -20 -66 -38 -126 -40 -132 -2 -7 -8 -13 -14
-13 -21 0 -21 29 -1 57 28 39 77 192 91 288 13 92 21 125 27 108 3 -7 -3 -52
-11 -100z m-2151 67 c3 -5 1 -10 -4 -10 -6 0 -11 5 -11 10 0 6 2 10 4 10 3 0
8 -4 11 -10z m255 -30 c0 -5 -5 -10 -11 -10 -5 0 -7 5 -4 10 3 6 8 10 11 10 2
0 4 -4 4 -10z m165 0 c-3 -5 -10 -10 -16 -10 -5 0 -9 5 -9 10 0 6 7 10 16 10
8 0 12 -4 9 -10z m-965 -20 c0 -6 -11 -8 -27 -4 -40 10 -41 14 -5 14 18 0 32
-5 32 -10z m2340 -10 c0 -5 -2 -10 -4 -10 -3 0 -8 5 -11 10 -3 6 -1 10 4 10 6
0 11 -4 11 -10z m-70 -170 c0 -5 -4 -10 -10 -10 -5 0 -10 5 -10 10 0 6 5 10
10 10 6 0 10 -4 10 -10z m-1710 -30 c0 -5 -7 -10 -16 -10 -8 0 -12 5 -9 10 3
6 10 10 16 10 5 0 9 -4 9 -10z m-852 -12 c-3 -7 -11 -13 -18 -13 -7 0 -15 6
-17 13 -3 7 4 12 17 12 13 0 20 -5 18 -12z m2462 2 c0 -5 -5 -10 -11 -10 -5 0
-7 5 -4 10 3 6 8 10 11 10 2 0 4 -4 4 -10z m-2100 -15 c0 -8 -4 -15 -10 -15
-5 0 -10 7 -10 15 0 8 5 15 10 15 6 0 10 -7 10 -15z m2100 -15 c0 -5 -8 -10
-17 -10 -15 0 -16 2 -3 10 19 12 20 12 20 0z m-7 -50 c-7 -25 -23 -27 -18 -2
2 9 4 18 4 20 1 1 5 2 10 2 5 0 7 -9 4 -20z m-2388 -48 c0 -18 -20 -15 -23 4
-3 10 1 15 10 12 7 -3 13 -10 13 -16z m2325 -62 c0 -5 -6 -10 -13 -10 -7 0
-20 -8 -28 -17 -36 -41 -68 -60 -124 -76 -103 -29 -381 -51 -345 -27 8 5 36
10 62 10 26 0 65 6 85 14 53 20 103 27 103 16 0 -13 43 -13 56 -1 5 5 25 13
44 18 28 7 36 15 38 36 2 20 9 27 25 29 12 0 34 2 50 3 15 1 30 5 34 9 9 9 13
8 13 -4z m278 -63 c4 -20 -25 -34 -40 -19 -15 15 -1 44 19 40 10 -2 19 -11 21
-21z m149 -60 c-40 -70 -87 -136 -87 -121 0 5 6 18 14 29 7 11 24 40 38 65 52
93 63 109 66 100 2 -6 -12 -38 -31 -73z m-1082 55 c-3 -3 -11 0 -18 7 -9 10
-8 11 6 5 10 -3 15 -9 12 -12z m-775 -28 c11 -12 11 -18 -1 -30 -13 -12 -18
-12 -34 0 -16 12 -17 16 -6 30 17 20 25 20 41 0z m-988 -87 c56 -67 96 -142
84 -155 -6 -6 -105 137 -133 193 -14 28 -23 48 -20 45 2 -3 34 -40 69 -83z
m-182 18 c0 -8 -4 -15 -10 -15 -5 0 -10 7 -10 15 0 8 5 15 10 15 6 0 10 -7 10
-15z m2740 -68 c0 -8 -3 -17 -7 -20 -9 -9 -34 13 -27 24 8 14 34 11 34 -4z
m332 -139 c-9 -9 -15 -9 -24 0 -10 10 -10 15 2 22 20 12 38 -6 22 -22z m-2912
-13 c0 -8 -7 -15 -15 -15 -8 0 -15 7 -15 15 0 8 7 15 15 15 8 0 15 -7 15 -15z
m2097 -190 c-4 -8 -14 -15 -23 -15 -16 0 -16 2 1 20 20 22 31 20 22 -5z m1491
3 c-6 -18 -28 -21 -28 -4 0 9 7 16 16 16 9 0 14 -5 12 -12z m-2688 -38 c0 -5
-4 -10 -10 -10 -5 0 -10 5 -10 10 0 6 5 10 10 10 6 0 10 -4 10 -10z m320 -85
c0 -8 -7 -15 -15 -15 -8 0 -15 7 -15 15 0 8 7 15 15 15 8 0 15 -7 15 -15z
m515 -26 c10 -15 -1 -23 -20 -15 -9 3 -13 10 -10 16 8 13 22 13 30 -1z m285
-9 c0 -11 -7 -20 -15 -20 -15 0 -21 21 -8 33 12 13 23 7 23 -13z m1378 -168
c2 -7 -3 -12 -12 -12 -9 0 -16 7 -16 16 0 17 22 14 28 -4z m-1611 -8 c-3 -3
-12 -4 -19 -1 -8 3 -5 6 6 6 11 1 17 -2 13 -5z m-60 -10 c-3 -3 -12 -4 -19 -1
-8 3 -5 6 6 6 11 1 17 -2 13 -5z m-82 -15 c-32 -10 -307 -23 -289 -14 9 5 220
21 289 23 l30 0 -30 -9z m-362 -6 c-7 -2 -21 -2 -30 0 -10 3 -4 5 12 5 17 0
24 -2 18 -5z"/>
<path d="M2375 3110 l-20 -9 20 0 c11 0 29 4 40 9 l20 9 -20 0 c-11 0 -29 -4
-40 -9z"/>
<path d="M2195 3100 c3 -5 13 -10 21 -10 8 0 14 5 14 10 0 6 -9 10 -21 10 -11
0 -17 -4 -14 -10z"/>
<path d="M2520 3090 c0 -5 7 -10 15 -10 8 0 15 5 15 10 0 6 -7 10 -15 10 -8 0
-15 -4 -15 -10z"/>
<path d="M2000 3070 c-6 -11 -17 -20 -25 -20 -8 0 -15 -2 -15 -4 0 -2 -3 -11
-6 -20 -10 -26 29 -19 56 9 13 14 31 25 39 25 9 0 25 7 35 15 18 14 16 15 -27
15 -36 0 -49 -4 -57 -20z"/>
<path d="M2716 3024 c-4 -10 -16 -14 -37 -12 -20 2 -34 -2 -37 -11 -3 -11 6
-12 49 -6 53 7 79 19 79 36 0 16 -48 10 -54 -7z"/>
<path d="M2038 2928 c-19 -24 -15 -40 7 -31 8 3 15 16 15 29 0 29 -1 29 -22 2z"/>
<path d="M3035 2850 c4 -6 11 -8 16 -5 14 9 11 15 -7 15 -8 0 -12 -5 -9 -10z"/>
<path d="M1354 2794 c3 -9 6 -22 6 -30 0 -8 5 -14 10 -14 6 0 10 14 10 30 0
21 -5 30 -16 30 -11 0 -14 -5 -10 -16z"/>
<path d="M1506 2795 c-3 -9 0 -15 9 -15 16 0 20 16 6 24 -5 3 -11 -1 -15 -9z"/>
<path d="M1770 2819 c0 -5 5 -7 10 -4 6 3 10 8 10 11 0 2 -4 4 -10 4 -5 0 -10
-5 -10 -11z"/>
<path d="M2862 2260 c0 -14 2 -19 5 -12 2 6 2 18 0 25 -3 6 -5 1 -5 -13z"/>
<path d="M3284 2275 c-9 -23 5 -37 22 -21 18 18 18 22 -1 30 -9 3 -18 -1 -21
-9z"/>
<path d="M3410 2279 c0 -5 5 -7 10 -4 6 3 10 8 10 11 0 2 -4 4 -10 4 -5 0 -10
-5 -10 -11z"/>
<path d="M2971 2264 c0 -11 3 -14 6 -6 3 7 2 16 -1 19 -3 4 -6 -2 -5 -13z"/>
<path d="M3076 2272 c-2 -4 -1 -14 5 -22 7 -12 9 -10 9 8 0 23 -5 28 -14 14z"/>
<path d="M1707 2294 c-11 -11 -8 -44 3 -44 15 0 24 30 13 41 -5 5 -12 6 -16 3z"/>
<path d="M3071 2124 c0 -11 3 -14 6 -6 3 7 2 16 -1 19 -3 4 -6 -2 -5 -13z"/>
</g>
</svg>
