<?xml version="1.0" standalone="no"?>
<!DOCTYPE svg PUBLIC "-//W3C//DTD SVG 20010904//EN"
 "http://www.w3.org/TR/2001/REC-SVG-20010904/DTD/svg10.dtd">
<svg version="1.0" xmlns="http://www.w3.org/2000/svg"
 width="427.000000pt" height="418.000000pt" viewBox="0 0 427.000000 418.000000"
 preserveAspectRatio="xMidYMid meet">
<metadata>
Created by potrace 1.16, written by Peter Selinger 2001-2019
</metadata>
<g transform="translate(0.000000,418.000000) scale(0.100000,-0.100000)"
fill="#000000" stroke="none">
<path d="M1999 4046 c-2 -2 -41 -9 -86 -16 -139 -19 -313 -89 -395 -159 -23
-19 -57 -60 -76 -90 -33 -50 -36 -63 -36 -126 0 -83 24 -144 82 -202 55 -56
71 -67 158 -108 112 -53 111 -53 194 -72 94 -21 375 -24 465 -5 192 42 355
122 420 207 38 50 68 149 60 198 -9 58 -49 130 -102 182 -83 80 -268 158 -441
184 -70 11 -234 15 -243 7z"/>
<path d="M1330 3790 c0 -5 -16 -6 -35 -3 -22 3 -35 2 -35 -5 0 -6 12 -12 28
-14 27 -3 27 -4 32 -88 6 -102 22 -92 19 12 -2 48 2 73 9 76 17 5 15 19 -3 26
-8 3 -15 1 -15 -4z"/>
<path d="M1288 3563 c31 -4 32 -5 33 -56 0 -29 5 -61 10 -72 6 -14 8 2 6 52
-2 58 0 73 13 77 8 2 -10 3 -40 3 -31 0 -41 -2 -22 -4z"/>
<path d="M938 3528 c-162 -21 -353 -158 -473 -338 -46 -71 -129 -230 -119
-230 4 0 1 -6 -5 -13 -6 -8 -18 -62 -28 -120 -15 -92 -15 -117 -4 -181 37
-224 178 -313 387 -244 315 103 598 550 545 862 -32 193 -139 286 -303 264z"/>
<path d="M3155 3492 c-52 -9 -91 -27 -127 -60 -127 -114 -140 -367 -32 -591
88 -184 200 -320 337 -409 265 -173 482 -102 528 174 11 64 11 89 -4 181 -10
58 -22 112 -28 120 -6 7 -9 13 -5 13 10 0 -73 159 -119 230 -89 133 -231 255
-356 306 -60 25 -157 43 -194 36z"/>
<path d="M3535 1925 c-109 -25 -245 -113 -344 -221 -83 -91 -173 -236 -221
-359 -49 -121 -64 -287 -36 -394 26 -103 76 -169 154 -202 47 -21 128 -27 182
-14 98 22 245 118 339 221 101 110 205 292 246 429 40 134 28 334 -25 420 -64
103 -175 148 -295 120z"/>
<path d="M520 1920 c-166 -25 -248 -158 -238 -385 7 -154 56 -288 165 -452 97
-147 228 -269 353 -325 166 -76 309 -44 390 87 65 106 66 326 0 490 -48 123
-138 268 -221 359 -63 69 -177 156 -249 188 -48 22 -74 30 -140 42 -8 2 -35 0
-60 -4z"/>
<path d="M2045 1104 c-133 -15 -284 -57 -379 -108 -111 -59 -170 -121 -200
-211 -34 -99 13 -224 115 -305 27 -21 62 -44 79 -51 16 -8 30 -17 30 -21 0 -5
9 -8 20 -8 11 0 20 -3 20 -7 0 -10 125 -48 210 -65 36 -7 130 -12 210 -12 117
0 162 5 235 23 174 45 310 112 369 182 51 60 79 136 74 204 -6 95 -42 153
-144 236 -27 21 -138 74 -198 94 -112 37 -329 61 -441 49z"/>
</g>
</svg>
