<?xml version="1.0" standalone="no"?>
<!DOCTYPE svg PUBLIC "-//W3C//DTD SVG 20010904//EN"
 "http://www.w3.org/TR/2001/REC-SVG-20010904/DTD/svg10.dtd">
<svg version="1.0" xmlns="http://www.w3.org/2000/svg"
 width="211.000000pt" height="192.000000pt" viewBox="0 0 211.000000 192.000000"
 preserveAspectRatio="xMidYMid meet">
<metadata>
Created by potrace 1.16, written by Peter Selinger 2001-2019
</metadata>
<g transform="translate(0.000000,192.000000) scale(0.100000,-0.100000)"
fill="#000000" stroke="none">
<path d="M710 1871 c-321 -70 -565 -301 -652 -617 -30 -112 -31 -315 0 -429
77 -288 299 -514 587 -601 76 -23 110 -27 220 -28 126 -1 249 16 261 36 3 5
-5 26 -19 46 -14 20 -29 54 -32 74 -4 21 -11 38 -16 38 -5 0 -9 15 -8 33 1 30
2 29 18 -18 16 -51 81 -185 81 -170 0 5 11 -6 24 -24 14 -18 35 -40 48 -49 13
-9 25 -19 29 -24 3 -4 34 -22 69 -39 60 -29 104 -41 205 -55 50 -7 189 20 233
47 18 10 39 19 45 19 7 0 27 13 45 30 18 16 35 30 38 30 7 0 44 39 44 48 0 4
14 22 30 41 17 18 30 39 30 46 0 7 12 34 27 61 26 47 27 56 27 194 0 138 -1
147 -27 198 -15 30 -27 60 -27 67 0 18 -167 185 -185 185 -7 0 -21 3 -31 7
-14 5 -16 3 -11 -11 4 -11 3 -15 -4 -11 -6 4 -8 13 -5 21 6 16 -29 38 -50 30
-10 -4 -12 -2 -8 6 5 7 -1 9 -19 4 -14 -3 -29 -2 -32 4 -9 14 -88 12 -104 -2
-11 -10 -13 -10 -7 0 9 16 -65 17 -81 1 -8 -8 -17 -8 -29 -1 -15 8 -13 10 12
15 85 16 145 17 215 3 41 -9 76 -16 78 -16 9 0 -14 145 -36 220 -81 281 -313
506 -598 581 -115 30 -276 34 -385 10z m570 -496 l0 -95 -27 0 c-25 0 -25 1
-10 18 29 31 19 34 -18 6 -20 -15 -38 -25 -40 -22 -3 2 13 18 35 34 38 28 49
44 31 44 -4 0 -28 -18 -53 -40 -45 -39 -46 -39 -134 -42 l-89 -3 -3 -57 c-3
-56 -2 -58 21 -58 39 0 87 -12 82 -20 -2 -4 -27 -5 -55 -2 l-50 5 0 -77 0 -76
-94 0 c-108 0 -106 -2 -106 92 l0 60 -77 -6 c-164 -15 -263 -42 -263 -73 0
-17 75 -52 112 -53 14 0 28 -4 30 -9 2 -5 68 -15 148 -21 113 -10 183 -10 315
0 157 11 175 14 229 42 32 16 55 25 52 19 -5 -7 -1 -8 10 -4 11 4 13 8 6 11
-7 2 -12 10 -12 17 0 20 -58 42 -147 56 -82 13 -111 29 -52 29 45 0 169 -30
210 -51 66 -33 65 -42 -9 -78 -36 -18 -73 -42 -80 -52 -7 -10 -18 -19 -24 -19
-13 0 -77 -73 -95 -107 -6 -12 -18 -35 -26 -50 -8 -15 -22 -50 -30 -78 -11
-34 -16 -42 -16 -25 -2 53 48 155 108 222 l24 27 -64 -3 c-35 -2 -83 -4 -106
-5 l-43 -1 0 -200 0 -201 -97 3 -98 3 -3 196 -2 196 -85 7 c-88 6 -200 27
-249 46 -36 13 -66 49 -63 75 5 44 141 87 320 101 l77 6 0 54 0 53 -147 3
-148 3 -3 98 -3 97 406 0 405 0 0 -95z m148 -334 c11 -6 10 -10 -4 -15 -9 -3
-19 -4 -22 -1 -3 3 1 5 9 5 11 0 11 2 -1 10 -8 5 -10 10 -5 10 6 0 16 -4 23
-9z m189 -7 c-3 -3 -12 -4 -19 -1 -8 3 -5 6 6 6 11 1 17 -2 13 -5z m-242 -35
c-4 -5 -12 -9 -18 -8 -9 0 -8 2 1 6 6 2 9 10 6 15 -4 7 -2 8 5 4 6 -4 9 -12 6
-17z m217 6 c49 5 74 3 95 -8 15 -8 52 -26 81 -41 28 -15 52 -32 52 -38 0 -6
-11 -3 -25 6 -13 9 -28 16 -32 16 -13 0 38 -32 55 -34 9 -2 16 -7 15 -12 -2
-13 28 -44 38 -39 8 5 59 -55 59 -69 0 -5 6 -22 14 -39 52 -117 49 -248 -9
-381 -27 -62 -26 -37 2 44 45 133 32 287 -34 393 -13 20 -26 37 -29 37 -3 0
-3 -4 1 -9 3 -6 -1 -25 -10 -43 -8 -18 -13 -25 -11 -16 3 10 1 20 -4 23 -6 4
-10 2 -10 -2 0 -5 -10 -13 -22 -18 -13 -6 -31 -26 -40 -45 -34 -70 -130 -170
-162 -170 -12 0 -27 -9 -34 -20 -15 -25 -28 -25 -49 0 -10 12 -30 20 -48 20
-16 0 -25 4 -19 8 6 4 16 17 23 30 7 12 16 20 20 18 5 -3 23 -1 42 5 80 25 99
27 99 13 0 -8 -7 -14 -15 -14 -8 0 -15 -7 -15 -15 0 -35 52 3 70 51 9 22 7 27
-10 31 -21 5 -24 21 -14 61 7 25 24 30 24 7 0 -12 3 -12 20 2 14 12 16 19 8
24 -7 4 -16 5 -21 2 -5 -3 -6 4 -2 16 4 15 2 21 -8 21 -7 0 -14 6 -14 14 0 8
6 12 13 9 8 -3 11 2 7 16 -7 26 -47 53 -69 44 -12 -4 -15 -3 -10 5 4 8 -3 11
-24 9 -16 -1 -30 -6 -30 -10 0 -5 -4 -6 -8 -3 -12 7 -36 -39 -29 -56 3 -7 6
-4 6 9 1 12 6 25 13 29 8 5 9 0 5 -17 l-6 -24 16 23 c25 36 93 25 93 -16 0 -7
-4 -11 -9 -7 -6 3 -7 -6 -2 -22 5 -16 5 -37 0 -48 -4 -11 -8 -16 -8 -11 -1 5
-7 3 -15 -3 -12 -10 -14 -9 -12 6 2 10 1 12 -1 6 -3 -7 -9 -13 -14 -13 -5 0
-9 -5 -9 -11 0 -5 3 -8 8 -5 9 5 47 -22 40 -29 -3 -3 -17 0 -32 6 -25 12 -31
22 -26 44 1 5 -8 1 -20 -10 -19 -17 -20 -21 -6 -31 21 -15 20 -31 -1 -43 -27
-14 -35 -14 -43 0 -6 9 -17 3 -40 -22 -22 -23 -29 -27 -21 -11 11 20 9 22 -16
23 -15 1 -32 1 -37 0 -5 -1 -6 5 -2 14 3 9 2 13 -4 10 -13 -8 -13 -35 0 -35 6
0 15 -12 21 -27 9 -24 7 -31 -15 -50 -14 -12 -26 -29 -26 -38 0 -8 -6 -24 -12
-35 -10 -16 -10 -24 -1 -40 9 -13 9 -21 2 -26 -16 -9 -21 1 -24 48 -2 29 3 47
14 56 9 7 11 11 4 8 -6 -4 -15 -1 -19 5 -4 7 -3 9 3 6 14 -9 63 34 63 55 0 9
-7 19 -16 22 -10 4 -14 16 -12 38 2 27 8 34 29 36 31 4 44 34 27 62 -12 19
-29 14 -71 -20 -17 -13 -20 -13 -31 2 -7 10 -24 22 -38 27 -28 11 -42 52 -24
75 6 8 31 31 54 50 24 20 41 36 37 36 -6 0 -65 -46 -87 -68 -53 -52 -88 -115
-113 -202 -13 -44 -13 -44 -14 -11 -3 91 117 247 235 306 32 16 60 32 62 36 1
3 24 2 50 -3 26 -5 77 -6 114 -3z m-35 9 c-3 -3 -12 -4 -19 -1 -8 3 -5 6 6 6
11 1 17 -2 13 -5z m-222 -33 c-3 -6 -11 -11 -16 -11 -5 0 -4 6 3 14 14 16 24
13 13 -3z m530 -102 c11 -17 -1 -21 -15 -4 -8 9 -8 15 -2 15 6 0 14 -5 17 -11z
m-685 -244 c0 -8 5 -15 11 -17 7 -2 6 -8 -4 -16 -12 -10 -14 -8 -14 15 0 15
-6 29 -12 31 -6 2 -11 8 -11 14 0 6 6 6 15 -2 8 -7 15 -18 15 -25z m764 19 c4
-10 1 -14 -6 -12 -15 5 -23 28 -10 28 5 0 13 -7 16 -16z m-28 -33 c-4 -5 -1
-11 6 -13 6 -2 -3 -10 -20 -17 -18 -8 -32 -17 -32 -22 0 -4 -13 0 -30 9 -35
20 -34 37 3 37 20 1 24 -2 15 -12 -16 -19 -7 -22 22 -6 15 7 19 13 10 14 -10
0 -8 3 5 9 27 11 27 11 21 1z m-789 -78 c-2 -16 -4 -3 -4 27 0 30 2 43 4 28 2
-16 2 -40 0 -55z m153 56 c0 -5 -5 -9 -12 -9 -6 0 -19 -6 -27 -14 -14 -13 -19
-12 -36 1 -11 9 -13 13 -5 11 21 -7 63 10 55 22 -3 6 1 7 9 4 9 -3 16 -10 16
-15z m666 -25 c-4 -9 -9 -15 -11 -12 -3 3 -3 13 1 22 4 9 9 15 11 12 3 -3 3
-13 -1 -22z m-650 -17 c4 -4 -2 -7 -14 -7 -12 0 -22 4 -22 9 0 10 26 9 36 -2z
m504 2 c23 1 23 0 -7 -15 -26 -13 -33 -23 -34 -48 0 -26 -2 -28 -8 -11 -5 11
-7 23 -5 26 2 3 -8 12 -21 19 -31 16 -33 34 -4 25 16 -5 19 -4 14 6 -6 9 -2
10 16 5 13 -4 35 -7 49 -7z m-362 -11 c-8 -7 -18 -23 -21 -36 -5 -19 -2 -22
15 -16 26 8 68 -14 68 -37 0 -14 7 -16 43 -12 23 4 44 10 45 15 13 32 147 49
147 18 0 -10 10 -15 33 -14 17 1 30 -2 27 -6 -3 -5 1 -10 7 -13 7 -3 -6 -2
-29 0 -34 5 -42 2 -46 -13 -4 -16 -5 -16 -6 3 -1 15 -6 20 -18 18 -10 -2 -24
-4 -32 -4 -9 -1 -12 -11 -9 -36 4 -35 3 -36 -24 -30 -21 5 -28 3 -28 -8 0 -8
-8 -21 -17 -28 -15 -11 -16 -11 -5 1 18 21 15 32 -7 21 -10 -6 -22 -7 -26 -3
-4 4 -5 -3 -2 -15 3 -13 1 -23 -4 -23 -5 0 -9 13 -9 29 0 29 -27 68 -39 56 -3
-4 2 -12 12 -19 21 -16 22 -27 2 -20 -21 8 -19 -13 3 -25 19 -12 12 -14 -12
-5 -9 3 -16 14 -16 23 0 9 -5 22 -12 29 -7 7 -8 12 -2 12 5 0 10 11 10 24 1
18 -2 22 -17 19 -11 -3 -19 -10 -19 -15 0 -5 -7 -3 -15 6 -20 19 -19 28 1 24
10 -2 19 2 21 9 5 14 -23 11 -39 -5 -7 -7 -18 -12 -24 -12 -7 0 -14 -8 -17
-17 -2 -11 -7 -4 -11 18 -6 27 -3 45 9 65 17 30 17 30 -1 -38 -5 -23 -5 -23
11 -3 9 11 21 32 27 48 5 15 17 27 26 27 14 0 14 -1 0 -12z m408 -10 c4 -7 3
-8 -4 -4 -7 4 -12 0 -12 -10 0 -10 -3 -15 -6 -11 -7 6 2 37 10 37 3 0 8 -5 12
-12z m-568 -41 c2 -9 -2 -17 -8 -17 -6 0 -8 5 -4 11 3 6 0 16 -7 21 -12 8 -11
9 1 5 8 -2 16 -11 18 -20z m-115 -87 c24 -47 21 -72 -3 -32 -11 18 -23 54 -25
80 -4 37 -3 41 4 16 4 -17 15 -45 24 -64z m152 40 c-3 -5 -11 -10 -16 -10 -6
0 -7 5 -4 10 3 6 11 10 16 10 6 0 7 -4 4 -10z m395 -32 c0 -19 -2 -20 -10 -8
-13 19 -13 30 0 30 6 0 10 -10 10 -22z m-397 -61 c-3 -5 -10 -2 -15 8 -9 15
-12 15 -35 -7 -25 -22 -25 -22 -14 -1 6 12 16 23 23 26 17 5 48 -15 41 -26z
m562 -21 c6 -4 0 -3 -12 3 -12 6 -25 16 -28 21 -3 6 -11 10 -17 10 -6 0 -5 -7
3 -16 12 -15 11 -16 -9 -10 -13 5 -22 3 -22 -3 0 -10 14 -15 34 -12 4 1 17 -1
28 -5 14 -4 17 -8 8 -14 -6 -4 -11 -10 -11 -14 2 -10 -59 -59 -65 -53 -4 3
-17 -6 -30 -21 -20 -23 -25 -25 -34 -12 -9 13 -10 13 -10 0 0 -16 -38 -45 -48
-36 -3 3 0 6 6 6 7 0 12 5 12 11 0 6 -8 8 -17 5 -17 -6 -17 -5 0 8 9 7 17 16
17 20 0 11 -28 6 -33 -6 -4 -10 -6 -10 -6 -1 -1 6 4 15 9 18 15 9 12 25 -4 19
-22 -9 -26 -29 -10 -59 11 -22 11 -25 1 -16 -8 6 -17 8 -20 4 -4 -3 -7 8 -7
25 0 25 -4 32 -20 32 -14 0 -20 -7 -21 -22 -1 -16 -3 -18 -6 -7 -3 14 -42 34
-49 26 -1 -1 1 -17 3 -34 6 -35 22 -45 24 -15 1 15 2 15 6 0 2 -9 12 -19 21
-21 9 -3 1 -4 -18 -3 -28 1 -35 6 -40 26 l-6 25 -7 -24 c-5 -21 -8 -22 -21
-11 -9 7 -16 20 -16 29 1 11 5 8 15 -9 8 -14 15 -20 15 -15 0 6 3 21 7 34 5
20 3 23 -10 18 -9 -3 -18 -1 -20 6 -7 20 -18 1 -20 -36 -2 -35 -13 -38 -44
-14 -7 5 -13 6 -13 3 0 -4 -13 1 -30 10 l-29 18 30 27 c18 16 26 30 20 33 -6
4 -24 -6 -40 -23 l-29 -30 -22 24 c-19 20 -21 27 -10 40 10 12 10 15 -1 16 -8
0 -5 4 6 8 12 5 25 3 33 -6 21 -20 37 -15 18 6 -10 10 -13 22 -8 25 5 3 15 -6
22 -19 7 -14 17 -25 22 -25 5 0 6 5 2 12 -4 7 -3 8 5 4 6 -4 8 -12 5 -18 -5
-8 -1 -9 10 -5 9 4 15 3 11 -2 -8 -15 94 -44 155 -45 38 -1 68 6 99 21 24 13
47 20 52 17 5 -3 10 0 10 5 1 6 2 15 3 20 0 5 5 13 10 18 5 5 6 3 2 -5 -6 -10
-3 -13 11 -10 10 1 29 -8 41 -20 13 -13 27 -20 33 -16 5 3 -5 17 -23 32 l-33
25 25 27 25 26 25 -20 c14 -12 30 -25 35 -30z m-624 -11 c11 6 11 5 2 -5 -12
-14 -33 -6 -33 13 0 8 3 7 9 -2 5 -8 14 -10 22 -6z m348 -136 c9 -27 9 -30 -4
-19 -8 7 -15 21 -15 31 0 28 7 23 19 -12z m221 27 c0 -2 -12 -11 -27 -20 l-28
-17 24 20 c23 21 31 25 31 17z m-475 -44 c-3 -3 -11 0 -18 7 -9 10 -8 11 6 5
10 -3 15 -9 12 -12z m45 -12 c8 -5 11 -10 5 -10 -5 0 -17 5 -25 10 -8 5 -10
10 -5 10 6 0 17 -5 25 -10z m316 -9 c-8 -13 -91 -34 -112 -28 -13 3 -9 5 11 7
17 1 46 8 65 15 44 17 42 17 36 6z m-306 -27 c0 -2 -7 -4 -15 -4 -8 0 -15 4
-15 10 0 5 7 7 15 4 8 -4 15 -8 15 -10z m57 10 c-3 -3 -12 -4 -19 -1 -8 3 -5
6 6 6 11 1 17 -2 13 -5z m300 -16 c-3 -8 -6 -5 -6 6 -1 11 2 17 5 13 3 -3 4
-12 1 -19z m-239 5 c-10 -2 -26 -2 -35 0 -10 3 -2 5 17 5 19 0 27 -2 18 -5z
m209 1 c-3 -3 -12 -4 -19 -1 -8 3 -5 6 6 6 11 1 17 -2 13 -5z m-179 -59 c-3
-3 -9 2 -12 12 -6 14 -5 15 5 6 7 -7 10 -15 7 -18z"/>
<path d="M1280 1020 c-9 -6 -10 -10 -3 -10 6 0 15 5 18 10 8 12 4 12 -15 0z"/>
<path d="M1405 976 c-65 -32 -55 -32 20 -1 33 13 53 25 45 25 -8 0 -37 -11
-65 -24z"/>
<path d="M1655 981 c87 -31 91 -32 40 -6 -27 13 -59 25 -70 25 -11 -1 3 -9 30
-19z"/>
<path d="M1269 813 c-13 -16 -12 -17 4 -4 9 7 17 15 17 17 0 8 -8 3 -21 -13z"/>
<path d="M1440 701 c-8 -6 -18 -7 -24 -4 -5 3 -6 1 -2 -5 5 -8 13 -9 25 -2 10
5 22 6 26 2 5 -4 5 -1 1 6 -8 14 -7 14 -26 3z"/>
<path d="M1620 426 c0 -2 7 -7 16 -10 8 -3 12 -2 9 4 -6 10 -25 14 -25 6z"/>
<path d="M1561 397 c-15 -19 -2 -29 15 -12 8 7 14 16 14 19 0 11 -17 6 -29 -7z"/>
<path d="M1820 312 c0 -12 19 -26 26 -19 2 2 -2 10 -11 17 -9 8 -15 8 -15 2z"/>
<path d="M1290 295 c-11 -14 -11 -18 4 -33 17 -16 18 -16 11 8 -6 22 -6 23 6
8 9 -12 19 -15 28 -9 9 6 10 11 2 15 -6 4 -11 4 -11 0 0 -4 -6 0 -13 10 -12
16 -14 17 -27 1z"/>
<path d="M1732 288 c-7 -7 -18 -13 -25 -13 -7 0 -11 -9 -9 -20 4 -20 3 -20
-12 0 -11 15 -15 16 -15 5 0 -23 26 -54 31 -38 4 11 8 10 21 -1 20 -16 22 -8
6 21 -7 14 -8 23 0 31 7 7 12 1 17 -18 6 -22 8 -25 16 -12 5 9 15 14 23 11 20
-8 19 1 -2 26 -20 23 -34 25 -51 8z"/>
<path d="M1388 240 c-9 -16 -13 -32 -8 -35 4 -3 11 3 15 13 7 15 9 14 16 -8 7
-19 8 -16 4 15 -3 27 -1 35 5 25 7 -12 12 -12 22 -2 8 8 8 12 1 12 -6 0 -17 2
-25 5 -7 3 -20 -8 -30 -25z"/>
<path d="M1366 244 c-20 -19 -20 -25 -2 -18 8 3 17 12 20 20 7 18 1 18 -18 -2z"/>
</g>
</svg>
