<?xml version="1.0" standalone="no"?>
<!DOCTYPE svg PUBLIC "-//W3C//DTD SVG 20010904//EN"
 "http://www.w3.org/TR/2001/REC-SVG-20010904/DTD/svg10.dtd">
<svg version="1.0" xmlns="http://www.w3.org/2000/svg"
 width="253.000000pt" height="262.000000pt" viewBox="0 0 253.000000 262.000000"
 preserveAspectRatio="xMidYMid meet">
<metadata>
Created by potrace 1.16, written by Peter Selinger 2001-2019
</metadata>
<g transform="translate(0.000000,262.000000) scale(0.100000,-0.100000)"
fill="#000000" stroke="none">
<path d="M1250 2211 c5 -11 10 -32 10 -46 0 -23 -3 -25 -22 -19 -22 6 -22 6
-5 -13 18 -21 22 -76 10 -146 l-6 -38 -53 52 c-30 30 -54 60 -54 69 0 12 -2
12 -9 1 -11 -17 -42 -2 -95 48 -27 25 -35 29 -27 14 6 -12 30 -37 52 -55 23
-18 58 -48 78 -66 l36 -32 -30 5 c-25 5 -23 2 16 -19 68 -37 79 -59 79 -163 0
-48 -3 -105 -7 -126 l-6 -39 -57 57 c-54 54 -57 59 -49 89 11 39 11 45 -1 26
-8 -12 -14 -10 -42 15 -25 23 -28 24 -12 5 12 -14 25 -36 29 -49 6 -21 5 -23
-14 -18 -11 3 -54 25 -95 48 -75 44 -76 44 -87 100 -7 31 -20 61 -29 67 -16 9
-16 7 -4 -26 7 -20 13 -49 14 -64 0 -25 -4 -28 -30 -28 -44 0 -102 33 -144 81
-44 52 -47 39 -6 -23 32 -48 48 -58 153 -94 115 -39 307 -177 343 -246 20 -38
31 -148 15 -148 -12 0 -108 74 -123 95 -4 6 -8 25 -8 43 0 17 -4 32 -8 32 -4
0 -16 13 -25 30 -10 16 -28 35 -40 42 -15 8 -11 -1 16 -30 26 -30 37 -51 37
-73 0 -17 -3 -29 -7 -27 -5 2 -42 22 -84 46 -70 39 -77 45 -83 80 -3 23 -18
52 -38 73 -18 19 -26 26 -17 15 27 -35 39 -63 39 -94 l0 -30 -64 14 c-132 28
-216 73 -216 118 0 16 -2 18 -9 7 -7 -11 -12 -8 -23 14 -12 22 -16 24 -21 11
-4 -10 1 -19 12 -26 11 -5 29 -26 41 -45 29 -47 83 -77 216 -120 147 -48 218
-95 342 -228 50 -53 52 -58 52 -111 0 -31 -3 -56 -6 -56 -4 0 -37 24 -73 53
-36 30 -87 68 -112 85 -28 19 -49 42 -53 57 -11 42 -54 101 -84 114 -26 12
-26 12 6 -22 20 -20 35 -48 39 -70 l5 -36 -88 35 c-49 20 -95 38 -102 41 -19
8 -82 93 -82 112 0 13 -2 13 -9 2 -6 -9 1 -30 20 -62 32 -54 32 -54 -56 -38
-72 13 -103 28 -158 77 -23 20 -34 27 -24 16 23 -28 22 -32 -16 -37 -25 -3
-23 -4 14 -5 31 -1 51 -8 64 -22 9 -10 37 -27 62 -36 26 -10 39 -20 33 -24 -7
-4 21 -10 62 -12 49 -4 96 -15 142 -34 l70 -29 -50 -7 c-27 -3 -95 -22 -152
-42 -78 -28 -119 -36 -175 -37 l-72 -1 40 -13 c23 -7 61 -10 90 -7 l50 5 -20
-24 c-11 -13 -33 -40 -50 -59 l-30 -35 31 28 c17 15 33 24 37 20 4 -3 7 1 7 9
0 64 245 139 356 109 22 -6 61 -25 85 -43 l44 -32 -55 -12 c-30 -7 -91 -13
-135 -14 -80 0 -133 -16 -180 -54 -15 -12 -8 -11 27 4 25 11 68 23 94 27 l47
6 -71 -71 c-40 -40 -77 -72 -84 -72 -6 0 -9 -2 -6 -5 9 -9 88 36 98 56 15 27
88 67 139 75 l43 7 -28 -44 c-15 -24 -39 -57 -53 -74 l-26 -30 29 25 c16 14
48 45 72 70 38 40 48 45 86 45 48 0 90 -26 128 -78 23 -30 23 -33 13 -156 -11
-143 -27 -185 -91 -243 -54 -49 -115 -83 -193 -108 -37 -11 -81 -32 -100 -45
-35 -27 -23 -32 30 -14 40 14 48 7 32 -28 -11 -25 -8 -24 21 9 25 28 48 41 95
54 34 9 85 32 113 50 59 39 60 39 60 21 0 -27 -60 -96 -117 -135 -56 -38 -104
-82 -89 -82 3 0 36 14 73 30 l66 30 -6 -57 -6 -58 35 72 c24 50 48 83 83 112
56 47 61 43 61 -41 0 -37 -7 -64 -26 -95 -29 -51 -25 -67 9 -35 26 24 59 23
88 -4 34 -30 41 -11 14 39 -25 48 -35 137 -17 164 13 21 107 -84 141 -157 31
-68 35 -66 22 12 -4 27 -7 48 -6 48 1 0 33 -14 70 -31 37 -16 69 -28 71 -26 5
5 -28 33 -114 98 -51 38 -92 90 -92 116 0 6 26 -4 58 -23 31 -19 82 -42 112
-50 35 -11 69 -29 93 -53 l38 -36 -11 29 c-13 36 -10 39 24 26 15 -5 37 -10
49 -10 35 0 -37 47 -102 66 -130 37 -253 135 -278 220 -7 22 -15 92 -19 156
l-7 118 45 44 c68 68 117 72 182 15 19 -17 38 -39 41 -50 4 -10 11 -19 18 -19
6 0 22 -10 36 -22 20 -18 19 -15 -5 12 -16 19 -43 55 -58 79 l-28 44 38 -8
c59 -10 100 -33 138 -75 19 -21 37 -36 40 -33 2 3 15 -2 28 -11 12 -9 27 -16
33 -16 5 0 -3 8 -18 19 -15 10 -52 44 -82 75 -46 48 -51 56 -32 56 30 0 99
-20 115 -33 8 -6 24 -12 35 -14 27 -4 14 6 -56 43 -40 21 -61 25 -120 23 -40
-1 -103 4 -141 11 l-70 13 30 24 c62 51 84 58 179 57 141 -2 285 -60 285 -116
0 -11 4 -17 9 -13 5 3 12 1 16 -5 3 -5 16 -15 28 -21 12 -7 2 10 -26 42 -47
54 -47 54 -22 57 15 2 40 -1 57 -7 18 -6 28 -8 24 -4 -4 4 10 13 31 19 37 12
37 12 -33 13 -54 1 -100 11 -192 41 -66 22 -133 40 -148 40 -41 0 -20 14 64
44 47 17 95 26 135 27 40 0 55 3 42 8 -17 7 -14 10 20 21 22 7 53 23 68 36 17
15 43 25 65 25 30 2 32 3 10 6 -31 5 -34 12 -15 33 6 8 -4 1 -23 -16 -45 -41
-82 -59 -148 -73 -94 -20 -96 -18 -62 38 17 26 30 57 29 67 0 15 -2 14 -12 -6
-36 -79 -83 -116 -211 -164 l-66 -25 0 28 c0 26 36 86 62 103 7 4 8 8 3 8 -22
0 -84 -73 -98 -113 -11 -34 -25 -50 -74 -82 -33 -22 -83 -60 -112 -84 -28 -24
-53 -42 -55 -40 -2 2 -6 25 -9 51 -6 43 -4 50 32 95 52 66 144 149 205 184 28
16 96 43 151 60 123 38 164 59 201 100 16 18 41 44 56 59 18 19 24 31 17 41
-6 10 -9 10 -9 2 0 -21 -71 -93 -110 -113 -42 -22 -147 -50 -184 -50 -17 0
-26 5 -26 15 0 19 26 83 43 105 7 9 0 3 -16 -12 -15 -16 -33 -49 -39 -74 -12
-43 -16 -47 -97 -90 -46 -24 -86 -42 -89 -40 -9 10 19 71 46 100 l27 29 -27
-19 c-33 -24 -58 -65 -58 -95 0 -16 -21 -43 -62 -82 l-63 -59 -9 40 c-16 75
-2 110 77 187 80 77 184 141 304 185 61 23 87 39 121 76 23 25 42 53 42 62 0
9 -15 -2 -37 -28 -40 -46 -101 -79 -147 -80 -28 0 -28 0 -21 48 4 26 11 55 17
65 8 16 7 17 -11 5 -14 -9 -22 -28 -27 -66 -6 -50 -9 -54 -48 -74 -22 -11 -60
-34 -83 -49 -64 -44 -77 -37 -48 24 l16 32 -21 -24 c-18 -21 -23 -22 -30 -10
-6 9 -7 2 -4 -22 6 -33 2 -39 -52 -92 l-59 -56 -7 37 c-4 20 -7 68 -7 106 -1
89 24 137 94 177 47 27 48 29 16 23 l-33 -7 17 27 c9 14 21 26 25 26 13 0 100
81 111 104 7 15 4 13 -11 -6 -22 -28 -79 -68 -98 -68 -6 0 -13 8 -16 18 -4 13
-4 13 -3 -3 2 -22 -103 -156 -115 -149 -5 3 -8 40 -8 83 0 65 4 83 22 107 l22
29 -27 -24 -27 -24 0 32 c0 32 -24 101 -35 101 -3 0 -1 -9 5 -19z"/>
<path d="M1122 1860 c0 -14 2 -19 5 -12 2 6 2 18 0 25 -3 6 -5 1 -5 -13z"/>
<path d="M1834 539 c-8 -14 11 -33 25 -25 6 4 11 14 11 22 0 16 -26 19 -36 3z"/>
<path d="M1878 506 c-23 -17 -23 -22 3 -58 l21 -29 29 27 c36 35 36 40 -1 59
-34 18 -31 18 -52 1z"/>
<path d="M1750 470 c0 -11 7 -20 15 -20 8 0 15 9 15 20 0 11 -7 20 -15 20 -8
0 -15 -9 -15 -20z"/>
<path d="M1778 440 c-14 -8 -14 -15 -5 -46 14 -46 29 -51 68 -23 l32 22 -32
29 c-34 31 -38 32 -63 18z"/>
<path d="M1644 419 c-8 -14 11 -33 25 -25 16 10 13 36 -3 36 -8 0 -18 -5 -22
-11z"/>
<path d="M1547 384 c-14 -15 -6 -34 14 -34 14 0 19 5 17 17 -3 18 -20 27 -31
17z"/>
<path d="M1664 374 c-8 -4 -9 -17 -2 -47 5 -23 11 -43 13 -45 2 -2 22 7 45 19
l42 24 -33 27 c-33 28 -43 31 -65 22z"/>
<path d="M2107 373 c-4 -3 -7 -11 -7 -17 0 -6 5 -5 12 2 6 6 9 14 7 17 -3 3
-9 2 -12 -2z"/>
<path d="M1437 353 c-4 -3 -7 -12 -7 -20 0 -15 26 -18 34 -4 7 11 -18 33 -27
24z"/>
<path d="M1194 329 c-10 -17 13 -36 27 -22 12 12 4 33 -11 33 -5 0 -12 -5 -16
-11z"/>
<path d="M1310 320 c0 -15 5 -20 18 -18 9 2 17 10 17 18 0 8 -8 16 -17 18 -13
2 -18 -3 -18 -18z"/>
<path d="M1563 329 c-18 -6 -23 -16 -23 -43 0 -19 4 -37 8 -40 10 -6 92 14 92
23 0 3 -13 20 -28 38 -22 26 -31 30 -49 22z"/>
<path d="M1427 293 c-4 -3 -7 -26 -7 -51 l0 -45 37 6 c51 9 57 18 37 61 -17
34 -48 48 -67 29z"/>
<path d="M1176 256 c-3 -13 -8 -31 -12 -39 -4 -12 5 -16 40 -19 25 -2 46 -1
46 2 0 3 -5 22 -11 43 -8 29 -15 37 -33 37 -17 0 -26 -7 -30 -24z"/>
<path d="M1296 253 c-4 -15 -9 -36 -12 -45 -5 -15 1 -18 39 -18 24 0 46 3 50
6 3 3 0 22 -7 42 -10 28 -19 38 -38 40 -21 3 -27 -2 -32 -25z"/>
<path d="M1909 223 c-13 -16 -12 -17 4 -4 16 13 21 21 13 21 -2 0 -10 -8 -17
-17z"/>
</g>
</svg>
