<svg xmlns="http://www.w3.org/2000/svg" viewBox="0 0 900 600">
  <!-- Red stripe -->
  <rect width="900" height="200" fill="#ED2024"/>
  <!-- White stripe -->
  <rect y="200" width="900" height="200" fill="#FFFFFF"/>
  <!-- Green stripe -->
  <rect y="400" width="900" height="200" fill="#21A038"/>
  <!-- Yellow sun (21 rays) -->
  <circle cx="450" cy="300" r="100" fill="#FECC02"/>
  <g fill="#FECC02">
    <polygon points="450,145 440,200 460,200" transform="rotate(0,450,300)"/>
    <polygon points="450,145 440,200 460,200" transform="rotate(17.14,450,300)"/>
    <polygon points="450,145 440,200 460,200" transform="rotate(34.29,450,300)"/>
    <polygon points="450,145 440,200 460,200" transform="rotate(51.43,450,300)"/>
    <polygon points="450,145 440,200 460,200" transform="rotate(68.57,450,300)"/>
    <polygon points="450,145 440,200 460,200" transform="rotate(85.71,450,300)"/>
    <polygon points="450,145 440,200 460,200" transform="rotate(102.86,450,300)"/>
    <polygon points="450,145 440,200 460,200" transform="rotate(120,450,300)"/>
    <polygon points="450,145 440,200 460,200" transform="rotate(137.14,450,300)"/>
    <polygon points="450,145 440,200 460,200" transform="rotate(154.29,450,300)"/>
    <polygon points="450,145 440,200 460,200" transform="rotate(171.43,450,300)"/>
    <polygon points="450,145 440,200 460,200" transform="rotate(188.57,450,300)"/>
    <polygon points="450,145 440,200 460,200" transform="rotate(205.71,450,300)"/>
    <polygon points="450,145 440,200 460,200" transform="rotate(222.86,450,300)"/>
    <polygon points="450,145 440,200 460,200" transform="rotate(240,450,300)"/>
    <polygon points="450,145 440,200 460,200" transform="rotate(257.14,450,300)"/>
    <polygon points="450,145 440,200 460,200" transform="rotate(274.29,450,300)"/>
    <polygon points="450,145 440,200 460,200" transform="rotate(291.43,450,300)"/>
    <polygon points="450,145 440,200 460,200" transform="rotate(308.57,450,300)"/>
    <polygon points="450,145 440,200 460,200" transform="rotate(325.71,450,300)"/>
    <polygon points="450,145 440,200 460,200" transform="rotate(342.86,450,300)"/>
  </g>
</svg>